<svg viewBox="0 0 330 200" xmlns="http://www.w3.org/2000/svg"><g><g><g><g><g><line x1="51.5625" y1="177" x2="46.5625" y2="177" style="visibility: inherit;" fill="rgb(0, 0, 0)" stroke="rgb(204, 204, 204)" stroke-width="1px"></line><line x1="51.5625" y1="159.3" x2="46.5625" y2="159.3" style="visibility: inherit;" fill="rgb(0, 0, 0)" stroke="rgb(204, 204, 204)" stroke-width="1px"></line><line x1="51.5625" y1="141.6" x2="46.5625" y2="141.6" style="visibility: inherit;" fill="rgb(0, 0, 0)" stroke="rgb(204, 204, 204)" stroke-width="1px"></line><line x1="51.5625" y1="123.89999999999999" x2="46.5625" y2="123.89999999999999" style="visibility: inherit;" fill="rgb(0, 0, 0)" stroke="rgb(204, 204, 204)" stroke-width="1px"></line><line x1="51.5625" y1="106.2" x2="46.5625" y2="106.2" style="visibility: inherit;" fill="rgb(0, 0, 0)" stroke="rgb(204, 204, 204)" stroke-width="1px"></line><line x1="51.5625" y1="88.5" x2="46.5625" y2="88.5" style="visibility: inherit;" fill="rgb(0, 0, 0)" stroke="rgb(204, 204, 204)" stroke-width="1px"></line><line x1="51.5625" y1="70.8" x2="46.5625" y2="70.8" style="visibility: inherit;" fill="rgb(0, 0, 0)" stroke="rgb(204, 204, 204)" stroke-width="1px"></line><line x1="51.5625" y1="53.10000000000001" x2="46.5625" y2="53.10000000000001" style="visibility: inherit;" fill="rgb(0, 0, 0)" stroke="rgb(204, 204, 204)" stroke-width="1px"></line><line x1="51.5625" y1="35.40000000000001" x2="46.5625" y2="35.40000000000001" style="visibility: inherit;" fill="rgb(0, 0, 0)" stroke="rgb(204, 204, 204)" stroke-width="1px"></line><line x1="51.5625" y1="17.699999999999996" x2="46.5625" y2="17.699999999999996" style="visibility: inherit;" fill="rgb(0, 0, 0)" stroke="rgb(204, 204, 204)" stroke-width="1px"></line><line x1="51.5625" y1="0" x2="46.5625" y2="0" style="visibility: inherit;" fill="rgb(0, 0, 0)" stroke="rgb(204, 204, 204)" stroke-width="1px"></line></g><g transform="translate(41.5625, 0)"><text x="0" y="177" dx="0em" dy="0.3em" style="text-anchor: end; visibility: hidden; font-family: Roboto, sans-serif; font-size: 12px; font-weight: 200;" fill="rgb(33, 33, 33)" stroke="none" stroke-width="1px">-0.1</text><text x="0" y="159.3" dx="0em" dy="0.3em" style="text-anchor: end; visibility: inherit; font-family: Roboto, sans-serif; font-size: 12px; font-weight: 200;" fill="rgb(33, 33, 33)" stroke="none" stroke-width="1px">0</text><text x="0" y="141.6" dx="0em" dy="0.3em" style="text-anchor: end; visibility: hidden; font-family: Roboto, sans-serif; font-size: 12px; font-weight: 200;" fill="rgb(33, 33, 33)" stroke="none" stroke-width="1px">0.1</text><text x="0" y="123.89999999999999" dx="0em" dy="0.3em" style="text-anchor: end; visibility: inherit; font-family: Roboto, sans-serif; font-size: 12px; font-weight: 200;" fill="rgb(33, 33, 33)" stroke="none" stroke-width="1px">0.2</text><text x="0" y="106.2" dx="0em" dy="0.3em" style="text-anchor: end; visibility: hidden; font-family: Roboto, sans-serif; font-size: 12px; font-weight: 200;" fill="rgb(33, 33, 33)" stroke="none" stroke-width="1px">0.3</text><text x="0" y="88.5" dx="0em" dy="0.3em" style="text-anchor: end; visibility: inherit; font-family: Roboto, sans-serif; font-size: 12px; font-weight: 200;" fill="rgb(33, 33, 33)" stroke="none" stroke-width="1px">0.4</text><text x="0" y="70.8" dx="0em" dy="0.3em" style="text-anchor: end; visibility: hidden; font-family: Roboto, sans-serif; font-size: 12px; font-weight: 200;" fill="rgb(33, 33, 33)" stroke="none" stroke-width="1px">0.5</text><text x="0" y="53.10000000000001" dx="0em" dy="0.3em" style="text-anchor: end; visibility: inherit; font-family: Roboto, sans-serif; font-size: 12px; font-weight: 200;" fill="rgb(33, 33, 33)" stroke="none" stroke-width="1px">0.6</text><text x="0" y="35.40000000000001" dx="0em" dy="0.3em" style="text-anchor: end; visibility: hidden; font-family: Roboto, sans-serif; font-size: 12px; font-weight: 200;" fill="rgb(33, 33, 33)" stroke="none" stroke-width="1px">0.7</text><text x="0" y="17.699999999999996" dx="0em" dy="0.3em" style="text-anchor: end; visibility: inherit; font-family: Roboto, sans-serif; font-size: 12px; font-weight: 200;" fill="rgb(33, 33, 33)" stroke="none" stroke-width="1px">0.8</text><text x="0" y="0" dx="0em" dy="0.3em" style="text-anchor: end; visibility: hidden; font-family: Roboto, sans-serif; font-size: 12px; font-weight: 200;" fill="rgb(33, 33, 33)" stroke="none" stroke-width="1px">0.9</text></g><line x1="51.5625" y1="0" x2="51.5625" y2="177" fill="rgb(0, 0, 0)" stroke="rgb(204, 204, 204)" stroke-width="1px"></line></g></g><g transform="translate(51, 0)" clip-path="url(#clip_0)"><clipPath id="clip_0"><rect width="278" height="177"></rect></clipPath><g><g><g><line x1="0" y1="0" x2="0" y2="177" fill="rgb(0, 0, 0)" stroke="rgb(66, 66, 66)" stroke-width="1px" opacity="0.25"></line><line x1="30.9375" y1="0" x2="30.9375" y2="177" fill="rgb(0, 0, 0)" stroke="rgb(66, 66, 66)" stroke-width="1px" opacity="0.25"></line><line x1="61.875" y1="0" x2="61.875" y2="177" fill="rgb(0, 0, 0)" stroke="rgb(66, 66, 66)" stroke-width="1px" opacity="0.25"></line><line x1="92.8125" y1="0" x2="92.8125" y2="177" fill="rgb(0, 0, 0)" stroke="rgb(66, 66, 66)" stroke-width="1px" opacity="0.25"></line><line x1="123.75" y1="0" x2="123.75" y2="177" fill="rgb(0, 0, 0)" stroke="rgb(66, 66, 66)" stroke-width="1px" opacity="0.25"></line><line x1="154.6875" y1="0" x2="154.6875" y2="177" fill="rgb(0, 0, 0)" stroke="rgb(66, 66, 66)" stroke-width="1px" opacity="0.25"></line><line x1="185.625" y1="0" x2="185.625" y2="177" fill="rgb(0, 0, 0)" stroke="rgb(66, 66, 66)" stroke-width="1px" opacity="0.25"></line><line x1="216.5625" y1="0" x2="216.5625" y2="177" fill="rgb(0, 0, 0)" stroke="rgb(66, 66, 66)" stroke-width="1px" opacity="0.25"></line><line x1="247.5" y1="0" x2="247.5" y2="177" fill="rgb(0, 0, 0)" stroke="rgb(66, 66, 66)" stroke-width="1px" opacity="0.25"></line><line x1="278.4375" y1="0" x2="278.4375" y2="177" fill="rgb(0, 0, 0)" stroke="rgb(66, 66, 66)" stroke-width="1px" opacity="0.25"></line></g><g><line x1="0" y1="177" x2="278.4375" y2="177" fill="rgb(0, 0, 0)" stroke="rgb(66, 66, 66)" stroke-width="1px" opacity="0.25"></line><line x1="0" y1="159.3" x2="278.4375" y2="159.3" fill="rgb(0, 0, 0)" stroke="rgb(66, 66, 66)" stroke-width="1px" opacity="0.25"></line><line x1="0" y1="141.6" x2="278.4375" y2="141.6" fill="rgb(0, 0, 0)" stroke="rgb(66, 66, 66)" stroke-width="1px" opacity="0.25"></line><line x1="0" y1="123.89999999999999" x2="278.4375" y2="123.89999999999999" fill="rgb(0, 0, 0)" stroke="rgb(66, 66, 66)" stroke-width="1px" opacity="0.25"></line><line x1="0" y1="106.2" x2="278.4375" y2="106.2" fill="rgb(0, 0, 0)" stroke="rgb(66, 66, 66)" stroke-width="1px" opacity="0.25"></line><line x1="0" y1="88.5" x2="278.4375" y2="88.5" fill="rgb(0, 0, 0)" stroke="rgb(66, 66, 66)" stroke-width="1px" opacity="0.25"></line><line x1="0" y1="70.8" x2="278.4375" y2="70.8" fill="rgb(0, 0, 0)" stroke="rgb(66, 66, 66)" stroke-width="1px" opacity="0.25"></line><line x1="0" y1="53.10000000000001" x2="278.4375" y2="53.10000000000001" fill="rgb(0, 0, 0)" stroke="rgb(66, 66, 66)" stroke-width="1px" opacity="0.25"></line><line x1="0" y1="35.40000000000001" x2="278.4375" y2="35.40000000000001" fill="rgb(0, 0, 0)" stroke="rgb(66, 66, 66)" stroke-width="1px" opacity="0.25"></line><line x1="0" y1="17.699999999999996" x2="278.4375" y2="17.699999999999996" fill="rgb(0, 0, 0)" stroke="rgb(66, 66, 66)" stroke-width="1px" opacity="0.25"></line><line x1="0" y1="0" x2="278.4375" y2="0" fill="rgb(0, 0, 0)" stroke="rgb(66, 66, 66)" stroke-width="1px" opacity="0.25"></line></g></g></g><g><g><line x1="0" y1="159.3" x2="278.4375" y2="159.3" fill="rgb(0, 0, 0)" stroke="rgb(153, 153, 153)" stroke-width="1.5px"></line></g></g><g><g><line x1="30.9375" y1="0" x2="30.9375" y2="177" fill="rgb(0, 0, 0)" stroke="rgb(153, 153, 153)" stroke-width="1.5px"></line></g></g><g><g><g><g><g><path stroke="rgb(255, 112, 67)" stroke-width="2px" d="M31.185000000000002,115.64719455242155L31.80375,122.02759407386183L31.865625,115.36840698816337L32.051249999999996,131.20353987619336L32.113125,109.67767845953477L32.175,129.23762504298887L32.29875,118.76083277883924L32.54625,134.3162741277799L32.608125,142.65712492320975L33.4125,118.83975070137937L33.845625,122.81630343043929L33.9075,136.23481368711953L33.969375,126.51605142023296L34.093125,105.2448468545323L34.27875,125.79718839926865L34.65,123.19428076399072L34.711875,127.13523499576166L34.77375,123.96688609911438L34.835625,136.4080288705203L35.021249999999995,117.97510968654602L35.083125,115.79493776728872L35.145,111.53077974713632L35.268750000000004,119.33612198630041L35.330625,106.91464796971587L35.701874999999994,103.11540876833246L36.01125,102.7185922303394L36.444375,98.64581475398744L37.06312500000001,100.70165162533755L37.310625,98.3365221872665L37.496249999999996,99.15665401319328L37.558125000000004,87.1972787282191L37.681875,83.76207237449236L38.115,95.55770293895637L38.424375000000005,85.85378691302998L38.671875,104.26452854303176L38.73375,112.90770146360656L38.857499999999995,115.61527623606857L38.98125,104.29721636785459L39.3525,103.56954572285058L39.414375,92.6483861949179L39.8475,105.24818062398901L39.97125,112.21906536446141L40.033125,121.20464464581852L40.21874999999999,98.86435069505882L40.651875,81.41784894919547L40.8375,97.09175277841187L40.96125,102.55900827840816L41.085,84.62347175436194L41.45625,85.18978455637844L41.518125,98.49565492983459L41.580000000000005,83.36067313017537L41.889375,69.8878617599935L42.3225,89.30259766196605L42.384375000000006,102.73886615167712L42.44625,94.53700115281218L42.693749999999994,83.44952715156776L42.755625,76.49973468731666L42.8175,95.1725708839372L43.250625,108.09697171551541L43.43625,101.78455347837512L43.498125,90.5853680623856L43.56,105.42165146906919L43.621875,115.99504086875775L43.745625000000004,121.04594985666195L43.993125,101.03078848852101L44.116875,90.21864020784723L44.240625,107.97806513404865L44.488125,95.16326205310833L44.550000000000004,113.88411977039345L44.611875,125.56327169744115L44.7975,120.84699168686831L45.106875,130.00389876118163L45.725625,111.45323701710021L46.035,105.6377680969865L46.096875000000004,104.6924979801554L46.15875,123.79282958123557L46.901250000000005,134.20679445274752L46.963125,125.37112943177272L47.025,120.8296168628028L47.705625,130.6125713200981L47.89125,123.83362232039062L48.015,122.30408184283786L48.13875,135.41286807360538L48.386250000000004,141.77755108506852L48.571875000000006,135.02931023974045L48.7575,142.60658862539424L48.88125,136.9865709754723L49.190625,143.20356701659546L49.314375,135.51883508591285L49.376250000000006,131.85812670009392L49.871249999999996,134.67139708231127L49.995,134.87366985339065L50.2425,136.7518079028019L50.49,143.90741106885602L50.61375,146.6482418669339L50.675625,148.93171272206757L50.86125,145.855874805024L51.789375,149.30353416673583L51.85125,151.86219466401485L52.160624999999996,150.658082201322L52.284375,152.14609966948038L52.34625,152.05952258392813L52.7175,153.51088195404196L52.841249999999995,151.77464072740545L53.088750000000005,152.26619005075975L53.33625,153.11421088470152L53.398125,151.24791932280738L53.46,151.3075693391316L53.521874999999994,151.30209662989097L53.58375,153.57836690090784L53.645625,154.04047080870086L54.32625,154.54919404504068L54.82125,152.87915789435723L55.06875,151.89727777868762L55.192499999999995,153.78410730149002L55.31625,152.21462860605507L55.501875,152.66838516653414L55.81125,153.14161992556353L55.935,154.4423225920588L56.244375000000005,153.47854068405567L56.55375,153.3692490352818L56.615625,153.8829408139663L56.986875,154.8622183916376L57.048750000000005,155.18602146133222L57.29625,155.817758190256L57.54375,155.78821310229398L57.853125,155.52670273201048L57.915,155.1242769224428L57.976875,154.77781469273464L58.100625,152.91345543472704L58.348124999999996,153.0125970200225L58.410000000000004,152.563424523206L58.533750000000005,154.03750392796485L58.78125,152.96742150307827L58.905,152.04586108071285L59.152499999999996,152.17264903779434L59.461875,152.7817397886253L59.709375,153.50612419061284L59.77125,153.69755110613954L59.895,154.10265076039704L60.01875,154.76988487439436L60.26625,154.93339462174225L60.328125,153.97244269724638L60.637499999999996,150.23241734073133L60.699374999999996,152.04563481742483L61.070625,150.35319651564564L61.194374999999994,151.97167170778278L61.50375,152.79653694516637L61.75125,154.21528380877504L62.431875,154.60895649919945L62.49375,153.61317099350714L62.555625,153.5280994946839L62.6175,152.87478510857113L62.679375,150.73602482986743L62.74125,152.51230501465378L62.926875,152.53315765727982L62.988749999999996,151.8399088965024L63.050625000000004,152.6495290715197L63.916875000000005,154.378484397453L63.97875,154.62033831779476L64.10249999999999,155.55412753055583L64.164375,153.99412348318154L64.22625,153.96006156815918L64.35,154.87358082094093L64.47375,155.05935832460702L64.5975,153.2072260919212L64.72125,154.7201980930119L64.96875,154.957088440749L65.0925,153.78817825740154L65.34,150.94322695687757L65.71124999999999,152.26080443519558L65.83500000000001,151.40318255131368L66.0825,151.32030340257242L66.268125,152.44314862741803L66.391875,153.3864569621013L67.0725,153.79270447353878L67.134375,152.8290208832047L67.32000000000001,151.01617750976212L67.44375000000001,152.4200123177691L67.505625,154.1221192354246L67.69125,152.6171450477412L67.815,152.99249220976654L68.248125,153.00393200242175L68.5575,151.27415910973343L68.866875,153.04523995184417L68.92875,153.59155982427905L69.0525,154.0835627102441L69.42375,151.67522843203463L69.485625,151.13381352258634L69.67125,149.64852702577656L69.795,150.5363312447652L69.856875,148.80263243940976L70.10437499999999,150.78276211039727L70.35187499999999,152.9811888931185L70.66125,154.325250361442L70.723125,153.93475268100465L70.78500000000001,154.6318904698775L71.094375,155.2221379763416L71.218125,154.0473203037102L71.465625,153.77777319812293L71.65125,147.85898331620402L71.77499999999999,150.16550367187327L72.20812500000001,151.0631743330411L72.39375,151.08568441740584L72.703125,152.53339344454952L72.76499999999999,150.46152539785592L73.0125,151.79588786027364L73.26,150.89435738302188L73.755,149.50176535056187L73.87875,145.09391461435646L74.0025,148.55266996516997L74.064375,149.90833623405823L74.188125,145.7731114947589L74.37375,146.5510372635002L74.86875,147.65446941621752L75.17812500000001,148.30547887842448L75.301875,148.8912378100192L75.48750000000001,143.24741890833587L75.549375,143.4738771438945L75.673125,145.9170925641268L75.796875,142.39962602521234L75.85875,146.14663285353933L75.9825,145.84132964038344L76.044375,147.77754271223242L76.168125,146.49052654739674L76.23,148.4548944725779L76.291875,148.9731273614876L76.60125,145.07222317060902L76.84875000000001,146.6564328944747L76.9725,147.74796504950908L77.71499999999999,147.3649742208504L78.21000000000001,148.76450694188972L78.271875,146.51618630460203L78.519375,148.6630661336857L78.705,149.72402778972852L78.890625,149.08079847937626L78.9525,149.4185014170158L79.07624999999999,149.238114385113L79.138125,148.08570005613856L79.2,149.2627173472541L79.32375,148.9710185366331L79.695,143.3212372337257L80.685,142.14648485746832L80.74687499999999,142.11251461366922L80.80875,133.58441738522117L80.870625,132.0116754557852L81.05624999999999,131.90555751956487L81.55125,134.49388643704046L81.613125,137.24969497503156L82.17,141.17402594018768L82.41749999999999,140.54752692239754L82.479375,140.2584009162025L82.603125,143.93371264406662L82.66499999999999,146.14403859656227L82.85062500000001,146.24083375979168L82.9125,147.63642815648737L83.09812500000001,150.28186156510841L83.221875,150.40746483868082L83.593125,147.74852297226025L83.964375,146.09506415557524L84.15,145.18957817215716L84.27374999999999,146.0614164373815L84.52125000000001,145.14619268009304L84.76875000000001,143.92988346653723L84.830625,143.86718058489288L85.635,144.62957230867462L85.75874999999999,142.54536775268028L86.00625,146.3633095947916L86.13000000000001,148.3981179757723L86.315625,149.08624798708013L86.43937500000001,150.45908516706737L86.50125,147.92318436063354L86.686875,144.67875932608263L86.74874999999999,142.5255032220734L87.05812499999999,141.78493644352275L87.12,145.31951031837175L87.24375,147.4638215464551L87.30562499999999,148.653984246087L87.73875,146.63022004034036L87.80062500000001,147.28602731624792L87.924375,144.9378547495577L88.3575,147.72526681995228L88.48125,139.0410859750261L88.543125,141.438049667272L88.605,139.8630255134064L89.038125,140.60874596185434L89.22375,139.28051613954872L89.409375,141.31307941012483L89.656875,139.35698528011383L89.8425,139.01520015668714L90.02812499999999,141.26137819332985L90.33749999999999,143.55852001394695L90.52312500000001,144.91018212548414L90.646875,144.5383562768192L90.77062500000001,142.26550013391324L90.83250000000001,144.94271605770675L91.45125,143.2872092888408L91.513125,140.01885098133405L91.69874999999999,139.2972726411457L91.94624999999999,130.26029834788056L92.19375000000001,123.86056454682952L92.3175,121.52101759257678L92.44125000000001,128.63349093999125L92.565,136.6296450031141L92.75062500000001,142.76384905888673L92.93625,144.3055117017867L92.998125,141.35103721659436L93.05999999999999,138.8814191188875L93.18375,138.12131724872967L93.493125,132.45695074390636L93.616875,135.91707166249316L93.740625,137.3082805598662L94.17375,136.71906308203253L94.42124999999999,140.16051639657803L94.545,134.10212296689502L94.97812499999999,135.29055069473358L95.03999999999999,134.37525889150484L95.101875,125.69519336266627L95.47312500000001,128.78522963788097L95.65875,132.73381850818387L96.2775,133.19658019482844L96.40124999999999,138.75940530323837L96.525,138.848149842166L96.64874999999999,138.73003835865447L96.958125,136.1984373604571L97.08187500000001,139.44173406632632L97.14375000000001,138.2757810310834L97.205625,137.32053047873458L97.2675,136.50593972598244L97.329375,134.47399555799203L97.576875,136.0528521201422L97.7625,135.94840375670256L98.07187499999999,138.1807628142146L98.13375,142.03578460438894L98.195625,141.88583329572586L98.44312500000001,141.65771999331895L98.87625,136.96072996600023L99.12375,137.38673052575322L99.185625,136.84994876734095L99.2475,134.80095819563675L99.433125,131.84522364217645L99.556875,132.69518411683202L99.68062499999999,136.37389014200664L99.74249999999999,137.40597316763578L99.86625000000001,141.2426252504693L100.299375,140.0983789778058L100.36125,140.71485758938218L100.546875,136.52053352187767L100.60875,140.44215180093462L100.73249999999999,136.5937105704213L100.794375,135.11992695384413L100.98,135.5301054635834L101.10375,140.59446675414986L101.413125,140.1688387008616L101.84625,135.1329804558819L102.155625,135.26585987921152L102.2175,136.05676241466756L102.83625,138.092621227797L102.96,138.90340463679797L103.14562500000001,135.98772675729853L103.57875,137.42882396064437L103.7025,138.82303325821303L103.764375,138.1446125846466L103.82625,130.02581261762145L104.07374999999999,124.40383948307135L104.1975,131.56451403868735L104.50687500000001,133.26449291689718L104.75437500000001,132.68127883662893L104.81625000000001,134.73117288881608L105.001875,130.24924874385636L105.496875,128.69920546579624L105.55875,128.0091460822121L105.620625,128.34232209909533L106.05375,132.7196777700697L106.30125,134.79781285281862L106.610625,128.77937896583012L106.73437500000001,136.01022505601364L106.981875,136.63181643509935L107.91,127.07102973475499L108.03375,119.2468897963431L108.219375,129.81494401901165L108.28125,124.71264494186164L108.343125,126.39035125926448L108.40499999999999,125.98049320909567L108.52875,126.58484686215633L108.6525,127.61421517729707L108.71437499999999,123.86352882027595L108.9,129.98698079252225L108.96187499999999,129.3333358398913L109.333125,125.70962750624649L109.580625,128.62640746778865L109.89,123.32498202649724L109.951875,118.14122088627798L110.01375,125.38681528017987L110.26125,130.00302762535853L110.446875,116.00370480983044L110.75625000000001,119.84160822968832L110.941875,124.69143684828967L111.25125,117.43295894458704L111.313125,118.02402430531274L111.49875,115.49061184499793L111.74624999999999,103.52980671271166L111.99374999999999,99.05200241294193L112.303125,107.66289226106815L112.6125,104.47153089697368L112.73625000000001,102.18744642409807L112.921875,93.77084063335137L112.98375,91.06275419022963L113.540625,105.46159981385664L114.159375,111.28344676432489L114.345,111.72581980667995L114.71624999999999,122.84056302751591L115.0875,128.30241838124687L115.335,123.2971069587904L115.396875,117.69111148677096L115.45875000000001,111.00957022524967L115.5825,116.83730252752957L116.015625,110.38946995359812L116.07749999999999,109.96769262803885L116.325,118.82639971168811L116.69624999999999,126.96311027402862L116.94375,123.87796140787117L117.12937500000001,115.01562278435892L117.376875,114.85055923561016L118.614375,107.49421574652051L118.861875,114.5504306327096L119.480625,123.62671467010924L119.79,131.3287101867482L119.91375,136.8215793372801L119.975625,129.4785118711955L120.0375,134.5841957588772L120.09937500000001,136.57575285612225L120.594375,135.36687987076448L120.965625,136.8478194339705L121.089375,132.23494806192116L121.15125,131.41533535421965L121.27499999999999,129.2664198392694L121.33687499999999,131.6189212878981L122.07937500000001,138.41448747965327L122.14125,135.79979439409158L122.265,133.77297043223132L122.69812499999999,132.42607266079753L122.94562499999999,135.70523886723143L123.13125000000001,136.16838930870784L123.37875,132.0239845992666L123.62625,118.99961253413805L123.688125,118.07618145709782L123.87375,123.6237428770396L124.30687499999999,131.70895501708586L124.36874999999999,132.4188720937705L124.430625,127.86208909011697L124.55437500000001,125.5334154931117L124.74000000000001,117.97762431427293L125.4825,112.62365961625845L125.85375,119.69127194139166L126.03937499999999,119.7262998417187L126.10125000000001,121.2183990070324L126.286875,120.26379336172944L126.72000000000001,115.90268899473314L126.905625,123.12433029218174L126.9675,125.94365275623595L127.58624999999999,128.1485902662408L127.77187500000001,126.26014924736808L127.83375000000001,132.47744013602727L127.9575,126.81489365062232L128.20499999999998,121.03547776914307L128.266875,116.55592497811716L128.4525,118.96950880185368L128.7,128.16515593645335L129.009375,132.94891941617345L129.628125,126.48168419164668L129.69,122.43642722107322L129.751875,129.79150042377321L129.99937500000001,130.26566193486696L130.123125,125.15593252888587L130.618125,128.24311465925734L131.608125,130.56186573569036L131.855625,135.81462123730216L132.103125,126.27269206010362L132.226875,126.33757870652114L132.4125,126.06121273313663L132.474375,119.08241041108786L132.78375,124.90253291013731L132.84562499999998,119.90898201872643L133.093125,112.74326751953207L133.27875,99.69303645805026L133.4025,112.39336536714735L133.77375,116.97096903675379L134.02125,127.21807368846882L134.26875,125.00461154849619L134.51624999999999,126.49830648226315L134.701875,121.99021869374975L134.825625,126.79571893616715L135.196875,120.35073804857848L135.25875,119.32621560217451L135.320625,115.67923482013649L135.3825,113.79259130330625L135.691875,113.0698025713667L135.75375,115.90906375111966L135.81562499999998,120.71456433929103L136.24875,118.6439203429049L136.3725,114.68406135605727L136.55812500000002,121.33050800542209L136.681875,121.29573379385573L136.74375,122.83832768576207L136.805625,123.21930559382952L136.8675,126.30923346940348L137.23875,127.10706651487153L137.48624999999998,110.3846716134441L137.548125,108.94417916349721L137.671875,98.85653529055209L137.98125000000002,117.1464264672237L138.47625,123.77239426977857L138.53812499999998,128.5570255530323L138.785625,122.57735911205086L138.909375,111.57107275959655L139.21875,126.18797309659006L139.40437500000002,135.09076743073513L139.46625,131.56735829083473L140.146875,131.93731868128987L140.765625,127.11906721032267L140.889375,124.26411722324256L141.07500000000002,121.85511268628814L141.3225,130.76164329143273L141.384375,124.3025561290497L141.44625,124.94783473238435L141.631875,125.73186313167265L141.8175,122.71803302916916L142.065,121.03161198826452L142.3125,126.00399249870668L142.43625,131.29219604598936L143.488125,127.45761149089012L143.735625,118.10869903660102L143.92125,113.81896310148409L143.983125,103.19225167213543L144.16875,98.50713805066742L144.29250000000002,98.05445558373451L144.54,113.07203628268431L144.66375,121.78817789463157L145.220625,112.48189995233987L145.46812500000001,110.57061276879772L146.025,95.3180895164422L146.334375,73.85267836062978L146.39625,83.87472972517531L146.458125,92.58144449261023L146.89125,97.11000534455295L147.2625,91.6140150413532L147.448125,87.33029341135139L147.63375000000002,85.60041611572333L147.7575,95.49169020879405L148.190625,100.44248575108134L148.43812499999999,87.01336091361573L148.62375,88.04103334428149L148.995,91.74229025173949L149.056875,98.57101975994567L149.11875,103.5892490763501L149.30437500000002,109.62657761806463L149.61375,113.65406816264519L149.98499999999999,118.23230738795118L150.046875,113.42536756131838L150.665625,112.65025436838741L150.7275,120.0163634309785L150.97500000000002,115.94964276609518L151.03687499999998,119.49287290011465L151.09875,120.30203950902593L151.284375,122.8572269898699L151.408125,124.62147252810279L151.59375,121.30013069064782L151.779375,123.16572082490543L151.965,117.04344793349993L152.21249999999998,119.01201870078141L152.274375,114.31871472140728L152.398125,115.5434182378088L152.46,112.30661277845111L152.58375,113.36837611242895L152.64562500000002,109.46665634420373L153.264375,108.40217716042315L153.388125,106.41320075836249L153.511875,107.21770214704553L153.88312499999998,101.92604460041453L153.945,96.81841050935228L154.130625,82.78718544574043L155.739375,94.75907108027614L155.986875,103.70430091642665L156.29625000000001,99.52918856634693L156.42000000000002,97.82608530815838L156.605625,100.26926840005159L156.853125,100.37132625495099L156.91500000000002,92.24633670994461L157.1625,93.89186222761167L157.348125,86.56751351719674L157.59562499999998,87.26285530546652L158.02875,94.00313806902973L158.09062500000002,95.25937787039047L158.15249999999997,108.05060415591578L158.833125,96.07339593366252L158.895,96.93552884933632L159.01875,101.90590963767337L159.26624999999999,108.12169140700321L159.575625,116.39246074750316L160.070625,110.84347532745775L160.194375,101.41771159026966L160.318125,108.85225765498843L160.565625,113.70088428731184L160.689375,112.77635419175279L160.75125,105.74525818231851L160.87499999999997,98.36015491606682L161.060625,97.72537704778846L161.184375,96.84834911628447L161.431875,117.14234993102478L161.49374999999998,109.10398595596749L161.74125,104.05993827739596L161.803125,103.29586274480366L162.050625,97.03662068996158L162.11249999999998,105.93695373864965L162.298125,93.51203039128777L162.36,98.63730678581715L162.54562499999997,94.10831840529156L163.1025,80.05245367821522L163.288125,70.84723026356976L163.906875,81.18671702147653L164.52562500000002,79.19546627999026L164.71124999999998,87.47428333282875L165.144375,59.42168387604003L165.57750000000001,60.157151723100206L166.258125,66.63284885656445L166.38187499999998,74.28651559931998L166.69125,73.69542858471253L167.00062499999999,86.8243123332845L167.124375,100.84511247636001L167.24812500000002,95.76331246233654L167.619375,59.28063630781575L167.743125,31.84616264654401L167.92875,22.577293492276684L167.99062500000002,15.165869479727283L168.361875,43.587737713665696L168.609375,63.107293466574504L169.29,65.07009118309412L169.475625,83.99104811376806L169.66125,77.65132589832828L169.785,72.46859201726845L170.58937500000002,93.19894957028349L171.0225,34.82974216152739L171.20812500000002,55.99041090017267L171.76500000000001,61.166026310954734L172.074375,70.49014618923322L172.755,65.45051442462238L173.25,58.88564575957081L173.559375,79.61847247151626L173.62125,90.69992700021322L173.93062500000002,76.24062350988899L174.24,78.21138102293321L174.425625,64.93303836393541L174.73499999999999,59.141219450284154L175.23,79.25116043403692L175.415625,87.77831633278696L175.725,92.07611805551629L175.84875,80.0769093367659L175.910625,86.51033158619421L175.9725,84.43376510571966L176.09625,83.859692826459L176.4675,77.91151025688004L176.776875,83.17494630810828L176.900625,92.29245590685136L177.643125,99.54552716444927L177.766875,87.45375939387677L178.07625,97.26959247218727L178.4475,112.27392530457472L178.756875,97.52798209915336L178.880625,97.60785544830428L179.00437499999998,96.5851526625029L179.06625,85.05705835146141L179.251875,90.11416248632925L179.31375,89.43156777234947L180.365625,73.97878292567775L181.17,71.57798694710281L181.355625,78.76077039444654L181.603125,53.877459470058746L181.66500000000002,33.496487483754905L181.85062499999998,55.08631460510205L181.974375,54.76341104413575L182.03625,49.479473132523935L182.77875,51.85712648071828L183.27375,43.30186569594133L183.39749999999998,40.39803018035167L183.459375,32.769715386996715L183.706875,13.77829036138656L183.954375,-1.1574516998398117L184.201875,7.434833336671146L184.635,-1.5202012534142082L184.696875,3.91179837255476L184.944375,47.686710206680296L185.191875,44.090623593338L185.50125000000003,60.066210393910225L185.625,33.821172211649774L185.810625,21.208754996110663L185.93437500000002,10.921285302430194L185.99625,28.330656041496887L186.11999999999998,32.53307079183691L186.24375,20.789273465321273L186.429375,32.92813434400905L186.676875,25.119872101537883L186.73874999999998,39.03000395321399L186.800625,45.89212961210938L186.924375,36.93109961994965L187.048125,44.37342948823262L187.3575,35.57920090144329L187.48125,25.43952977052601L187.543125,22.664830151744315L187.97625,62.03651478621223L188.1,66.01272681911503L188.28562499999998,58.39126009201835L189.646875,64.61959820780653L189.70875,82.70323012467324L189.8325,63.22374146816791L190.265625,38.87418602012194L190.389375,24.292764790669665L190.45125000000002,12.125413703808544L190.760625,31.531185579233977L190.8225,39.828396906813154L190.884375,67.36918248078834L191.07,79.70010865057475L191.13187499999998,59.613523051291516L191.3175,54.241204260080934L191.75062499999999,64.5818097414314L191.87437500000001,64.2389411295497L191.99812500000002,83.38365698367618L192.121875,95.19392485445893L192.18374999999997,68.63459223643635L192.864375,65.323879202221L192.92625,69.33913530827412L192.988125,56.64710124207049L193.483125,57.501320404246506L193.54500000000002,58.8510847773761L193.85437499999998,83.82982345262828L193.91625,70.20750927352704L193.978125,70.20973381175872L194.04,69.0144808052437L194.16375000000002,68.68476379385332L194.225625,87.07319452566348L194.28750000000002,86.33616087080505L194.47312499999998,98.07240302825848L195.15375,91.0934896389537L195.525,86.81269583939867L195.64875,67.84246519231412L196.14374999999998,47.676724423310844L196.205625,59.466758502329405L196.2675,67.95862596321405L196.39125,69.6023636715907L196.824375,69.12400369508852L197.01000000000002,77.6559811941611L197.13375,74.38810477446481L197.319375,62.749168425744564L197.443125,62.42417456027614L197.566875,70.19171459982842L198.12375,87.56597322648793L198.37125,83.19395779148358L198.495,68.12836049661409L198.61875,54.50913201490267L198.74249999999998,70.10164214324487L198.804375,53.57773294658382L199.051875,61.178356920545816L199.11375,55.91872429064841L199.17562500000003,50.353437819552006L199.48499999999999,51.9113836470077L199.79437499999997,66.35583216564831L199.85625,64.03849555144892L200.10375,74.64708950692525L200.41312499999998,66.19478622540304L200.475,90.01182404556553L200.536875,84.14494130968261L200.59875,79.67747876142982L200.7225,90.83290581879334L200.784375,91.11601503001044L201.27937500000002,56.38353354040616L201.34125,75.15431582631966L201.40312500000002,77.0581074410814L201.7125,98.76828248942721L201.774375,82.6775091102411L202.021875,103.44761455838024L202.2075,59.29073693742834L202.393125,82.41270398849537L202.51687500000003,80.47126812311583L202.640625,79.52768698795184L202.764375,74.93851946987834L202.82625,71.19329577921704L202.888125,94.50063615702912L203.1975,82.26068580665186L203.259375,71.29063501189945L204.001875,57.24055615324257L204.125625,94.82006552939701L204.55875,116.38351211592607L204.93,111.3634508302513L204.991875,110.5020149690332L205.6725,100.48743062391412L205.734375,122.50585600286443L206.29125000000002,112.72892799228262L206.415,39.726211508809506L206.53875,69.92330612701117L206.724375,69.68227091528142L206.91,83.28316389499405L207.09562499999998,69.86382776605069L207.34312500000001,20.247430380028373L207.405,41.04030740728492L207.714375,55.41088722747871L207.83812500000002,33.150503503097944L207.96187500000002,50.39570331502786L208.02374999999998,28.67331537681121L208.27125,14.78781218694031L208.395,60.42301313022603L208.580625,56.25545725309748L209.075625,43.03796649148404L209.199375,40.75085188967192L209.26125,86.87928944213513L209.385,93.18221630205706L209.69437499999998,92.70517324656244L209.81812499999998,102.29904313355682L209.941875,90.38166838091611L210.065625,40.8981719994664L210.56062500000002,60.55427923823118L211.055625,16.370247806457996L211.1175,-4.797378207833602L211.24125,28.545883325582142L211.303125,39.11540249576891L211.48874999999998,37.494632499162684L211.6125,42.03036237284203L211.674375,24.97868296935953L211.85999999999999,30.30546379467724L212.23125000000002,55.60180514801072L212.47875,32.957094889572424L212.540625,80.3491832442231L213.406875,98.23633133454007L213.5925,109.29509273340037L213.778125,102.75475504618721L213.96375,122.51732416791819L214.21125,118.92141557361545L214.396875,113.11652098790326L214.45875,94.5282250278921L214.52062500000002,24.167333242519565L214.891875,54.87373692347041L215.20125,91.2923340901937L215.263125,93.81509647519624L215.325,101.48665623039743L215.57250000000002,105.39164903980935L215.69625,97.18574090255764L215.75812499999998,87.48940188082138L216.129375,87.75252572054912L216.315,49.08848768803624L216.43875,92.51919591148584L216.500625,95.23148532462055L216.62437500000001,52.27894079060514L216.68625,63.47860776526426L216.80999999999997,79.41411180700479L216.995625,110.48252066809306L217.18125,105.91049143098813L217.67625,92.50823627485647L217.738125,94.96533679827341L218.04749999999999,100.43488838114911L218.29500000000002,85.05177760743244L218.356875,68.96046793355431L218.66625,77.41470859702758L219.470625,95.01542642388542L219.5325,84.10761815234304L219.59437499999999,71.63698576166796L219.65625,81.0813530056153L220.213125,98.54579195907559L220.64624999999998,91.60107796627786L220.831875,65.8100253608138L221.14125,102.73241041481856L221.326875,115.2724508796952L221.698125,118.1573919996513L221.76,109.19406404882032L221.82187499999998,121.1725522279105L222.13125,109.33747205253611L222.37875,129.04712064817872L222.5025,112.0267150459011L222.688125,115.09727448089835L222.935625,102.72767111697148L222.9975,68.95666124962779L223.059375,66.30346017922766L223.18312500000002,76.32946866181973L223.430625,56.289034227296625L223.49249999999998,75.10946813330942L223.61625,85.52954970780549L223.678125,105.2313777040454L223.925625,92.54746652549578L223.98749999999998,105.07044655147835L224.049375,86.9653520897844L224.35875000000001,104.39645672057978L224.4825,103.64111063131638L225.10125,125.0605132159528L225.163125,124.14949529152732L225.410625,65.96055457581055L225.534375,44.84347939961537L225.84375,80.72090713187089L225.9675,61.44935738565939L226.153125,83.83381398154746L226.276875,76.05660347243219L226.895625,77.76119709789795L227.08125,59.22706708896186L227.266875,37.78672202103153L227.57625000000002,16.426653902964674L227.76187499999997,23.23807253434473L228.133125,55.43653798815139L228.31875,79.20954331109837L228.4425,108.48160700231742L228.751875,-0.837109569132644L228.87562499999999,-15.406119949472123L229.123125,41.7532714278387L229.185,72.26489605849306L229.68,105.40204696086239L229.9275,43.57867254869456L229.989375,11.011949355937942L230.175,13.640098790847004L230.29875,41.28831917793914L230.4225,-25.98566993503951L230.731875,-72.81466120022048L230.979375,4.379838226214014L231.226875,47.711582142099715L231.474375,-13.171586805591026L231.59812499999998,30.89027432083547L231.969375,-13.515610893491168L232.711875,52.8679948521118L232.835625,75.11916705325011L232.959375,37.60701522561769L233.145,68.1491388829521L233.330625,47.66134587955306L233.51625,68.71526019115346L233.578125,103.16716823005137L233.8875,105.85823370351468L234.3825,73.20866937955662L234.75375,40.74892081451681L234.93937499999998,66.76422902841728L235.00125,25.026293659802445L235.49625,72.81600422358285L235.99124999999998,67.50701767144065L236.548125,79.56466484747804L236.795625,6.060423349633672L237.22875,-39.82510904831005L237.60000000000002,23.99888014100605L237.72375,39.04044674934515L237.909375,-26.666180310836076L238.033125,14.020366688853139L238.404375,-4.734810750314238L238.52812500000002,7.850520319563981L238.59,64.64147694338727L238.96125,65.4798409380279L239.085,79.79717224584591L239.14687500000002,75.72262394992453L239.20875,80.80587169985736L239.45624999999998,13.65731931126573L239.518125,24.851029846647144L239.58,22.0942773613803L239.70375,27.467937428562184L239.889375,23.515299457793432L240.013125,73.65573413847983L240.32250000000002,103.26958238410414L240.38437499999998,122.55652006880915L240.57,86.76118964920329L240.879375,111.92283422601156L240.94125,73.21553393633326L241.065,68.61510782021976L241.12687499999998,47.28488888608633L241.43625,27.678726967973823L241.56,-14.99952277612492L241.745625,2.443732441235775L241.8075,60.19173239038538L241.86937500000002,20.4210898492703L242.05499999999998,34.6597252091151L242.240625,8.693619473003222L242.42625,3.4917047352927266L242.67374999999998,36.564417627533516L242.92125000000001,7.424218785214568L243.04500000000002,62.13994921055326L243.354375,23.696985960047787L243.41625,-11.358242254232568L243.54000000000002,16.016359216704846L243.72562499999998,-28.00822787360259L244.035,43.52834370329436L244.15875000000003,-6.098911012444183L245.953125,-16.81898766783574L246.26250000000002,35.96925241453829L246.324375,79.16646196486582L246.38625,-8.850431029546073L247.2525,-13.77985975786619L247.438125,15.194330677720473" style="fill: none;" fill="none"></path></g></g></g></g><g opacity="0.2"><g><g><g><path stroke="rgb(255, 112, 67)" stroke-width="2px" d="M31.185000000000002,115.64719455242157L31.80375,125.855833786726L31.865625,108.97558738589287L32.051249999999996,149.82565615251661L32.113125,81.57351379394531L32.175,156.29607274867595L32.29875,103.77885221242904L32.54625,156.99625694677235L32.608125,154.95825971961023L33.4125,83.4737257540226L33.845625,128.7450654834509L33.9075,156.28955613188447L33.969375,111.96964146494865L34.093125,73.37971251010894L34.27875,156.60154221039267L34.65,119.29175508320331L34.711875,133.04499866366388L34.77375,119.2151671975851L34.835625,155.067847744748L35.021249999999995,90.32741575241089L35.083125,112.52479945421219L35.145,105.13468303084373L35.268750000000004,131.04398124217988L35.330625,88.28258408904075L35.701874999999994,97.41657696962356L36.01125,102.12336911559105L36.444375,92.53665896058082L37.06312500000001,103.78540377616882L37.310625,94.78883020877838L37.496249999999996,100.38685129880905L37.558125000000004,69.25821976661682L37.681875,78.60926352739334L38.115,113.251147377491L38.424375000000005,71.29791356921196L38.671875,131.88064019680024L38.73375,125.87246062159538L38.857499999999995,119.67663835287094L38.98125,87.32012667059898L39.3525,102.4780397593975L39.414375,76.26664693951606L39.8475,124.1478722423315L39.97125,122.67539246678352L40.033125,134.683013561368L40.21874999999999,65.35390977859497L40.651875,55.24809633493424L40.8375,120.60260851979255L40.96125,110.75989152789116L41.085,57.72016696929932L41.45625,86.03925375938415L41.518125,118.4544604897499L41.580000000000005,60.65820043087006L41.889375,49.67864470481873L42.3225,118.42470151484012L42.384375000000006,122.89326888620853L42.44625,82.23420365452766L42.693749999999994,66.8183161497116L42.755625,66.0750459909439L42.8175,123.18182517886162L43.250625,127.48357296288013L43.43625,92.3159261226654L43.498125,73.78658993840217L43.56,127.67607657909393L43.621875,131.85512496829034L43.745625000000004,128.62231333851815L43.993125,71.00804643630981L44.116875,74.00041778683662L44.240625,134.61720252335073L44.488125,75.94105743169784L44.550000000000004,141.96540634632112L44.611875,143.0819995880127L44.7975,113.77257167100906L45.106875,143.7392593726516L45.725625,83.62724440097809L46.035,96.91456471681595L46.096875000000004,103.27459280490875L46.15875,152.4433269828558L46.901250000000005,149.8277417600155L46.963125,112.11763190031051L47.025,114.01734800934791L47.705625,145.28700300604106L47.89125,113.66519882082939L48.015,120.00977112650871L48.13875,155.07604741975666L48.386250000000004,151.32457560226322L48.571875000000006,124.90694897174835L48.7575,153.97250620387496L48.88125,128.55654450058938L49.190625,152.52906107828022L49.314375,123.99173718988895L49.376250000000006,126.36706412136554L49.871249999999996,138.89130265563728L49.995,135.17707901000978L50.2425,139.5690149769187L50.49,154.64081581793727L50.61375,150.7594880640507L50.675625,152.35691900476814L50.86125,141.24211792945863L51.789375,154.47502320930363L51.85125,155.70018540993334L52.160624999999996,148.85191350728275L52.284375,154.37812587171794L52.34625,151.9296569555998L52.7175,155.68792100921274L52.841249999999995,149.1702788874507L53.088750000000005,153.00351403579117L53.33625,154.38624213561417L53.398125,148.44848197996618L53.46,151.3970443636179L53.521874999999994,151.29388756603004L53.58375,156.9927723074332L53.645625,154.73362667039038L54.32625,155.31227889955045L54.82125,150.3741036683321L55.06875,150.42445760518314L55.192499999999995,156.61435158569367L55.31625,149.8604105629027L55.501875,153.3490200072527L55.81125,153.85147206410767L55.935,156.39337659180165L56.244375000000005,152.03286782205106L56.55375,153.20531156212093L56.615625,154.6534784819931L56.986875,156.33113475814463L57.048750000000005,155.6717260658741L57.29625,156.76536328364165L57.54375,155.743895470351L57.853125,155.1344371765852L57.915,154.52063820809127L57.976875,154.25812134817244L58.100625,150.11691654771568L58.348124999999996,153.16130939796568L58.410000000000004,151.8896657779813L58.533750000000005,156.2486230351031L58.78125,151.36229786574842L58.905,150.66352044716479L59.152499999999996,152.36283097341658L59.461875,153.6953759148717L59.709375,154.59270079359413L59.77125,153.9846914794296L59.895,154.71030024178327L60.01875,155.77073604539038L60.26625,155.17865924276413L60.328125,152.53101481050254L60.637499999999996,144.62237930595876L60.699374999999996,154.7654610324651L61.070625,147.81453906297685L61.194374999999994,154.3993844959885L61.50375,154.03383480124177L61.75125,156.3434041041881L62.431875,155.19946553483607L62.49375,152.11949273496867L62.555625,153.400492246449L62.6175,151.89481352940203L62.679375,147.52788441181184L62.74125,155.1767252918333L62.926875,152.56443662121893L62.988749999999996,150.8000357553363L63.050625000000004,153.86395933404566L63.916875000000005,156.97191738635303L63.97875,154.9831191983074L64.10249999999999,156.95481134969742L64.164375,151.65411741212012L64.22625,153.90896869562567L64.35,156.24385970011355L64.47375,155.33802458010615L64.5975,150.42902774289252L64.72125,156.98965609464796L64.96875,155.31242396235467L65.0925,152.0348129823804L65.34,146.6758000060916L65.71124999999999,154.23717065267266L65.83500000000001,150.11674972549082L66.0825,151.19598467946054L66.268125,154.1274164646864L66.391875,154.80141946412624L67.0725,154.402075740695L67.134375,151.38349549770356L67.32000000000001,148.29691244959832L67.44375000000001,154.52576452977956L67.505625,156.6752796119079L67.69125,150.35968376621605L67.815,153.55551295280458L68.248125,153.0210916914046L68.5575,148.67949977070094L68.866875,155.7018612150103L68.92875,154.41103963293136L69.0525,154.82156703919173L69.42375,148.06272701472045L69.485625,150.3216911584139L69.67125,147.42059728056194L69.795,151.86803757324816L69.856875,146.20208423137666L70.10437499999999,153.75295661687852L70.35187499999999,156.27882906720043L70.66125,156.34134256392718L70.723125,153.34900616034867L70.78500000000001,155.6775971531868L71.094375,156.10750923603774L71.218125,152.2850937947631L71.465625,153.373452539742L71.65125,138.98079849332572L71.77499999999999,153.6252842053771L72.20812500000001,152.40968032479287L72.39375,151.11944954395295L72.703125,154.70495698526503L72.76499999999999,147.35372332781554L73.0125,153.79743155390025L73.26,149.5420616671443L73.755,147.4128773018718L73.87875,138.4821385100484L74.0025,153.74080299139024L74.064375,151.94183563739062L74.188125,139.5702743858099L74.37375,147.71792591661216L74.86875,149.30961764529349L75.17812500000001,149.28199307173492L75.301875,149.7698762074113L75.48750000000001,134.78169055581094L75.549375,143.81356449723245L75.673125,149.58191569447519L75.796875,137.12342621684076L75.85875,151.76714309602977L75.9825,145.38337482064964L76.044375,150.6818623200059L76.168125,144.56000230014325L76.23,151.40144636034967L76.291875,149.75047669485213L76.60125,139.22086688429118L76.84875000000001,149.03274748027326L76.9725,149.38526328206063L77.71499999999999,146.79048797786237L78.21000000000001,150.86380602344872L78.271875,143.1437053486705L78.519375,151.88338587731124L78.705,151.31547027379276L78.890625,148.11595451384784L78.9525,149.92505582347513L79.07624999999999,148.96753383725883L79.138125,146.35707856267692L79.2,151.02824328392745L79.32375,148.5334703207016L79.695,134.8465652793646L80.685,140.38435629308225L80.74687499999999,142.0615592479706L80.80875,120.79227154254913L80.870625,129.6525625616312L81.05624999999999,131.7463806152344L81.55125,138.3763798132539L81.613125,141.3834077820182L82.17,147.06052238792182L82.41749999999999,139.6077783957124L82.479375,139.82471190690995L82.603125,149.44668023586274L82.66499999999999,149.45952752530576L82.85062500000001,146.38602650463582L82.9125,149.7298197515309L83.09812500000001,154.25001167804004L83.221875,150.59586974903942L83.593125,143.76011017262937L83.964375,143.61487593054773L84.15,143.83134919703008L84.27374999999999,147.36917383521796L84.52125000000001,143.77335704416038L84.76875000000001,142.10541964620353L84.830625,143.7731262624264L85.635,145.7731598943472L85.75874999999999,139.41906091868879L86.00625,152.09022235795857L86.13000000000001,151.45033054724337L86.315625,150.11844300404192L86.43937500000001,152.5183409370482L86.50125,144.11933315098287L86.686875,139.81212177425624L86.74874999999999,139.2956190660596L87.05812499999999,140.67408627569677L87.12,150.6213711306453L87.24375,150.6802883885801L87.30562499999999,150.43922829553486L87.73875,143.59457373172046L87.80062500000001,148.26973823010923L87.924375,141.41559589952232L88.3575,151.90638492554427L88.48125,126.01481470763683L88.543125,145.0334952056408L88.605,137.50048928260804L89.038125,141.72732663452626L89.22375,137.28817140609027L89.409375,144.36192431598903L89.656875,136.42284408509732L89.8425,138.50252247154714L90.02812499999999,144.6306452482939L90.33749999999999,147.00423274487258L90.52312500000001,146.93767529278995L90.646875,143.98061750382186L90.77062500000001,138.85621591955424L90.83250000000001,148.95853994339706L91.45125,140.80394913554193L91.513125,135.1163135200739L91.69874999999999,138.2149051308632L91.94624999999999,116.70483690798282L92.19375000000001,114.26096384525299L92.3175,118.01169716119766L92.44125000000001,139.302200961113L92.565,148.62387609779836L92.75062500000001,151.9651551425457L92.93625,146.61800566613675L92.998125,136.91932548880578L93.05999999999999,135.17699197232724L93.18375,136.9811644434929L93.493125,123.96040098667144L93.616875,141.10725304037334L93.740625,139.39509390592576L94.17375,135.83523686528207L94.42124999999999,145.3226963683963L94.545,125.01453282237053L94.97812499999999,137.0731922864914L95.03999999999999,133.00232118666173L95.101875,112.67509506940841L95.47312500000001,133.42028405070306L95.65875,138.65670181363822L96.2775,133.89072272479535L96.40124999999999,147.10364296585323L96.525,138.98126665055753L96.64874999999999,138.5528711333871L96.958125,132.4010358631611L97.08187500000001,144.3066791251302L97.14375000000001,136.52685147821904L97.205625,135.88765465021135L97.2675,135.28405359685422L97.329375,131.42607930600644L97.576875,138.42113696336747L97.7625,135.7917312115431L98.07187499999999,141.52930140048267L98.13375,147.81831728965045L98.195625,141.66090633273126L98.44312500000001,141.31555003970863L98.87625,129.91524492502214L99.12375,138.02573136538268L99.185625,136.0447761297226L99.2475,131.72747233808042L99.433125,127.41162181198597L99.556875,133.97012482881547L99.68062499999999,141.89194917976857L99.74249999999999,138.9540977060795L99.86625000000001,146.99760337471963L100.299375,138.38200956881047L100.36125,141.63957550674678L100.546875,130.22904742062093L100.60875,146.3245792195201L100.73249999999999,130.82104872465135L100.794375,132.90925152897836L100.98,136.14537322819234L101.10375,148.1910086899996L101.413125,139.53039662092925L101.84625,127.57919308841228L102.155625,135.46517901420594L102.2175,137.24311621785165L102.83625,141.14640944749118L102.96,140.11957975029947L103.14562500000001,131.61420993804933L103.57875,139.59046976566316L103.7025,140.914347204566L103.764375,137.12698157429696L103.82625,117.84761266708374L104.07374999999999,115.97087978124618L104.1975,142.30552587211133L104.50687500000001,135.81446123421193L104.75437500000001,131.8064577162266L104.81625000000001,137.80601396709682L105.001875,123.52636252641678L105.496875,126.37414054870605L105.55875,126.97405700683593L105.620625,128.84208612442018L106.05375,139.28571127653123L106.30125,137.91501547694207L106.610625,119.75172813534736L106.73437500000001,146.85649419128896L106.981875,137.56420350372792L107.91,112.72984968423843L108.03375,107.51067988872528L108.219375,145.66702535301448L108.28125,117.05919632613659L108.343125,128.90691073536874L108.40499999999999,125.36570613384247L108.52875,127.49137734174728L108.6525,129.1582676500082L108.71437499999999,118.23749928474426L108.9,139.1721587508917L108.96187499999999,128.35286841094495L109.333125,120.27406500577926L109.580625,133.0015774101019L109.89,115.37284386456012L109.951875,110.3655791759491L110.01375,136.25520687103273L110.26125,136.9273461431265L110.446875,95.00472058653831L110.75625000000001,125.59846335947513L110.941875,131.96617977619172L111.25125,106.54524208903312L111.313125,118.91062234640121L111.49875,111.69049315452575L111.74624999999999,85.58859901428222L111.99374999999999,92.33529596328735L112.303125,120.57922703325748L112.6125,99.68448885083198L112.73625000000001,98.76131971478462L112.921875,81.14593194723129L112.98375,87.00062452554702L113.540625,127.05986824929714L114.159375,120.01621719002723L114.345,112.38937937021255L114.71624999999999,139.5126778587699L115.0875,136.4952014118433L115.335,115.78913982510566L115.396875,109.28211827874183L115.45875000000001,100.98725833296776L115.5825,125.5789009809494L116.015625,100.71772109270096L116.07749999999999,109.33502663969993L116.325,132.11446033716203L116.69624999999999,139.16817611753942L116.94375,119.25023810863495L117.12937500000001,101.72211484909057L117.376875,114.60296391248703L118.614375,96.45970051288604L118.861875,125.13475296199321L119.480625,137.2411407262087L119.79,142.88170346170665L119.91375,145.06088306307794L119.975625,118.4639106720686L120.0375,142.24272159039975L120.09937500000001,139.56308850198985L120.594375,133.55357039272786L120.965625,139.06922877877952L121.089375,125.31564100384712L121.15125,130.1859162926674L121.27499999999999,126.04304656684398L121.33687499999999,135.1476734608412L122.07937500000001,148.60783676728607L122.14125,131.877754765749L122.265,130.73273448944093L122.69812499999999,130.40572600364686L122.94562499999999,140.62398817688228L123.13125000000001,136.86311497092248L123.37875,125.80737753510475L123.62625,99.46305443644523L123.688125,116.69103484153747L123.87375,131.9450850069523L124.30687499999999,143.83677322715522L124.36874999999999,133.48374770879747L124.430625,121.02691458463669L124.55437500000001,122.0404050976038L124.74000000000001,106.64393754601478L125.4825,104.59271256923675L125.85375,130.29269042909146L126.03937499999999,119.77884169220924L126.10125000000001,123.45654775500297L126.286875,118.83188489377498L126.72000000000001,109.36103244423866L126.905625,133.9567922383547L126.9675,130.17263645231725L127.58624999999999,131.4559965312481L127.77187500000001,123.42748771905899L127.83375000000001,141.8033764690161L127.9575,118.32107392251491L128.20499999999998,112.3663539469242L128.266875,109.83659579157829L128.4525,122.58988453745842L128.7,141.95862663835288L129.009375,140.12456463575364L129.628125,116.78083135485649L129.69,116.36854176521301L129.751875,140.82411022782327L129.99937500000001,130.97690420150758L130.123125,117.49133841991424L130.618125,132.87388785481454L131.608125,134.0399923503399L131.855625,143.69375448971988L132.103125,111.9597982943058L132.226875,126.43490867614746L132.4125,125.64666377305984L132.474375,108.61420692801475L132.78375,133.63271665871144L132.84562499999998,112.4186556816101L133.093125,101.9946957707405L133.27875,80.11768986582756L133.4025,131.443858730793L133.77375,123.83737454116344L134.02125,142.58873066604139L134.26875,121.68441833853721L134.51624999999999,128.7388488829136L134.701875,115.22808701097965L134.825625,134.00396929979325L135.196875,110.68326671719551L135.25875,117.78943193256855L135.320625,110.20876364707946L135.3825,110.96262602806091L135.691875,111.98561947345733L135.75375,120.16795552074909L135.81562499999998,127.92281522154808L136.24875,115.53795434832573L136.3725,108.74427287578582L136.55812500000002,131.3001779794693L136.681875,121.24357247650623L136.74375,125.15221852362156L136.805625,123.7907724559307L136.8675,130.94412528276445L137.23875,128.30381608307363L137.48624999999998,85.30107926130295L137.548125,106.78344048857689L137.671875,83.72506948113441L137.98125000000002,144.58126323223115L138.47625,133.7113459736109L138.53812499999998,135.7339724779129L138.785625,113.60785945057869L138.909375,95.06164323091507L139.21875,148.11332360208036L139.40437500000002,148.44495893195273L139.46625,126.28224458098411L140.146875,132.49225926697255L140.765625,119.89169000387191L140.889375,119.98169224262237L141.07500000000002,118.24160588085651L141.3225,144.12143919914962L141.384375,114.61392538547516L141.44625,125.91575263738632L141.631875,126.90790573060512L141.8175,118.19728787541389L142.065,118.50198042690754L142.3125,133.46256326436998L142.43625,139.22450136691333L143.488125,121.70573465824127L143.735625,104.08533035516739L143.92125,107.38435919880867L143.983125,87.25218452811241L144.16875,91.47946761846542L144.29250000000002,97.37543188333511L144.54,135.59840733110906L144.66375,134.86239031255246L145.220625,98.52248303890228L145.46812500000001,107.7036819934845L146.025,72.43930463790893L146.334375,41.65456162691117L146.39625,98.90780677199363L146.458125,105.64151664376259L146.89125,103.90284662246704L147.2625,83.37002958655357L147.448125,80.90471096634865L147.63375000000002,83.00560017228126L147.7575,110.32860134840011L148.190625,107.86867906451225L148.43812499999999,66.8696736574173L148.62375,89.58254199028015L148.995,97.29417561292648L149.056875,108.81411402225494L149.11875,111.11659305095672L149.30437500000002,118.6825704306364L149.61375,119.69530397951603L149.98499999999999,125.09966622591018L150.046875,106.21495782136917L150.665625,111.48758457899093L150.7275,131.06552702486516L150.97500000000002,109.84956176877022L151.03687499999998,124.80771810114383L151.09875,121.51578942239284L151.284375,126.69000821113586L151.408125,127.26784083545208L151.59375,116.3181179344654L151.779375,125.96410602629184L151.965,107.86003859639168L152.21249999999998,121.96487485170364L152.274375,107.27875875234604L152.398125,117.38047351241111L152.46,107.4514045894146L152.58375,114.96102111339569L152.64562500000002,103.61407669186592L153.264375,106.80545838475227L153.388125,103.42973615527153L153.511875,108.42445423007011L153.88312499999998,93.98855828046798L153.945,89.15695937275886L154.130625,61.74034785032273L155.739375,112.7168995320797L155.986875,117.12214567065239L156.29625000000001,93.26652004122734L156.42000000000002,95.27143042087555L156.605625,103.93404303789139L156.853125,100.5244130373001L156.91500000000002,80.05885239243507L157.1625,96.36015050411224L157.348125,75.58099045157432L157.59562499999998,88.30586798787117L158.02875,104.11356221437454L158.09062500000002,97.14373757243156L158.15249999999997,127.23744358420372L158.833125,78.10758360028267L158.895,98.22872822284698L159.01875,109.36148082017898L159.26624999999999,117.44536406099796L159.575625,128.7986147582531L160.070625,102.5199971973896L160.194375,87.27906598448753L160.318125,120.00407675206661L160.565625,120.97382423579693L160.689375,111.38955904841423L160.75125,95.19861416816711L160.87499999999997,87.2825000166893L161.060625,96.77321024537086L161.184375,95.53280721902847L161.431875,147.5833511531353L161.49374999999998,97.0464399933815L161.74125,96.49386675953865L161.803125,102.14974944591522L162.050625,87.64775760769844L162.11249999999998,119.28745331168174L162.298125,74.87464537024498L162.36,106.32522137761116L162.54562499999997,87.31483583450317L163.1025,58.96865658760071L163.288125,57.03939514160157L163.906875,96.69594715833664L164.52562500000002,76.20859016776085L164.71124999999998,99.89250891208648L165.144375,17.342784690856938L165.57750000000001,61.260353493690495L166.258125,76.34639455676079L166.38187499999998,85.76701571345329L166.69125,72.80879806280136L167.00062499999999,106.51763795614242L167.124375,121.87631269097328L167.24812500000002,88.14061244130134L167.619375,4.55662207603455L167.743125,-9.305547845363632L167.92875,8.673989760875706L167.99062500000002,4.048733460903172L168.361875,86.22054006457329L168.609375,92.38662709593773L169.29,68.01428775787353L169.475625,112.37248350977897L169.66125,68.1417425751686L169.785,64.69449119567871L170.58937500000002,124.29448589980602L171.0225,-52.72406895160677L171.20812500000002,87.73141400814056L171.76500000000001,68.92944942712784L172.074375,84.47632600665092L172.755,57.89106677770615L173.25,49.03834276199341L173.559375,110.71771253943443L173.62125,107.32210879325866L173.93062500000002,54.55166827440262L174.24,81.16751729249954L174.425625,45.015524375438694L174.73499999999999,50.453491079807286L175.23,109.41607190966606L175.415625,100.56905018091201L175.725,98.52282063961029L175.84875,62.078096258640294L175.910625,96.16046496033668L175.9725,81.31891538500786L176.09625,82.99858440756798L176.4675,68.9892364025116L176.776875,91.07010038495063L176.900625,105.96872030496597L177.643125,110.4251340508461L177.766875,69.31610773801803L178.07625,111.99334208965301L178.4475,134.7804245531559L178.756875,75.40906729102134L178.880625,97.72766547203064L179.00437499999998,95.05109848380089L179.06625,67.76491688489914L179.251875,97.69981868863105L179.31375,88.40767570137977L180.365625,50.79960565567017L181.17,67.97679297924041L181.355625,89.53494556546211L181.603125,16.552493083477025L181.66500000000002,2.9250295042991676L181.85062499999998,87.47105528712272L181.974375,54.279055702686314L182.03625,41.553566265106205L182.77875,55.4236065030098L183.27375,30.468974518775944L183.39749999999998,36.04227690696717L183.459375,21.327243196964268L183.706875,-14.708847177028671L183.954375,-23.5610647916794L184.201875,20.323260891437535L184.635,-14.95275313854219L184.696875,12.059797811508183L184.944375,113.34907795786857L185.191875,38.69649367332459L185.50125000000003,84.02959059476852L185.625,-5.5463850617408905L185.810625,2.2901291728019753L185.93437500000002,-4.50991923809053L185.99625,54.4447121500969L186.11999999999998,38.83669291734696L186.24375,3.1735774755477943L186.429375,51.136425662040715L186.676875,13.40747873783112L186.73874999999998,59.895201730728154L186.800625,56.18531810045243L186.924375,23.489554631710057L187.048125,55.53692429065705L187.3575,22.387858021259312L187.48125,10.23002307415009L187.543125,18.50278072357178L187.97625,121.09404173791408L188.1,71.97704486846924L188.28562499999998,46.959060001373295L189.646875,73.9621053814888L189.70875,109.8286779999733L189.8325,34.004508483409886L190.265625,2.3498528480529823L190.389375,2.4206329464912453L190.45125000000002,-6.12561292648317L190.760625,60.639843392372136L190.8225,52.27421389818192L190.884375,108.6803608417511L191.07,98.19649790525436L191.13187499999998,29.483644652366642L191.3175,46.18272607326508L191.75062499999999,80.0927179634571L191.87437500000001,63.72463821172715L191.99812500000002,112.10073076486587L192.121875,112.90932666063308L192.18374999999997,28.79559330940247L192.864375,60.357809650897984L192.92625,75.36201946735382L192.988125,37.60905014276505L193.483125,58.78264914751053L193.54500000000002,60.87573133707047L193.85437499999998,121.29793146550655L193.91625,49.77403800487519L193.978125,70.21307061910629L194.04,67.22160129547119L194.16375000000002,68.19018827676773L194.225625,114.65584062337875L194.28750000000002,85.23061038851738L194.47312499999998,115.67676626443863L195.15375,80.62511955499649L195.525,80.39150514006614L195.64875,39.38711922168732L196.14374999999998,17.428113269805912L196.205625,77.15180962085724L196.2675,80.69642715454101L196.39125,72.06797023415565L196.824375,68.40646373033523L197.01000000000002,90.45394744277L197.13375,69.48629014492035L197.319375,45.29076390266419L197.443125,61.93668376207352L197.566875,81.8430246591568L198.12375,113.6273611664772L198.37125,76.63593463897705L198.495,45.52996455430985L198.61875,34.080289292335515L198.74249999999998,93.4904073357582L198.804375,28.79186915159226L199.051875,72.5792928814888L199.11375,48.02927534580231L199.17562500000003,42.005508112907414L199.48499999999999,54.24830238819123L199.79437499999997,88.02250494360923L199.85625,60.562490630149846L200.10375,90.55998044013977L200.41312499999998,53.516331303119664L200.475,125.73738077580929L200.536875,75.34461720585823L200.59875,72.97628493905067L200.7225,107.56604640483856L200.784375,91.54067884683609L201.27937500000002,4.28481130599976L201.34125,103.31048925518989L201.40312500000002,79.91379486322403L201.7125,131.33354506194593L201.774375,58.54134904146195L202.021875,134.60277273058892L202.2075,-6.9445794939994965L202.393125,117.0956545650959L202.51687500000003,77.55911432504654L202.640625,78.11231528520584L202.764375,68.0547681927681L202.82625,65.5754602432251L202.888125,129.46164672374726L203.1975,63.90076028108597L203.259375,54.83555881977082L204.001875,36.16543786525727L204.125625,151.18932959362866L204.55875,148.72868199571968L204.93,103.83335890173912L204.991875,109.20986117720604L205.6725,85.4655541062355L205.734375,155.5334940712899L206.29125000000002,98.06353597640991L206.415,-69.77786321640016L206.53875,115.21894805431366L206.724375,69.32071809768676L206.91,103.68450336456299L207.09562499999998,49.734823572635655L207.34312500000001,-54.177165699005144L207.405,72.2296229481697L207.714375,76.96675695776939L207.83812500000002,-0.2400720834732213L207.96187500000002,76.26350303292274L208.02374999999998,-3.910266530513779L208.27125,-6.040442597866074L208.395,128.87581454515458L208.580625,50.00412343740464L209.075625,23.211730349063878L209.199375,37.32017998695374L209.26125,156.07194577082993L209.385,102.63660659193992L209.69437499999998,91.98960866332054L209.81812499999998,116.68984796404838L209.941875,72.50560625195503L210.065625,-33.32707257270815L210.56062500000002,90.03844009637832L211.055625,-49.9057993412018L211.1175,-36.54881722927095L211.24125,78.56077562570572L211.303125,54.969681251049046L211.48874999999998,35.06347750425339L211.6125,48.83395718336106L211.674375,-0.5988361358642735L211.85999999999999,38.29563503265381L212.23125000000002,93.54631717801094L212.47875,-1.0099704980850377L212.540625,151.4373157761991L213.406875,125.06705347001552L213.5925,125.88323483169079L213.778125,92.9442485153675L213.96375,152.16117785051466L214.21125,113.52755268216133L214.396875,104.40917910933494L214.45875,66.64578108787536L214.52062500000002,-81.37400443553926L214.891875,100.9333424448967L215.20125,145.92022984027864L215.263125,97.59924005270004L215.325,112.99399586319923L215.57250000000002,111.24913825392723L215.69625,84.87687869668007L215.75812499999998,72.94489334821701L216.129375,88.14721148014068L216.315,-8.907569360733048L216.43875,157.66525824666024L216.500625,99.29991944432258L216.62437500000001,-12.149876010417954L216.68625,80.27810822725296L216.80999999999997,103.31736786961555L216.995625,157.0851339597255L217.18125,99.05244757533073L217.67625,72.40485354065895L217.738125,98.65098758339882L218.04749999999999,108.63921575546264L218.29500000000002,61.97711144685746L218.356875,44.823503422737126L218.66625,90.09606959223747L219.470625,121.41650316417217L219.5325,67.74590574502945L219.59437499999999,52.93103717565537L219.65625,95.24790387153625L220.213125,124.74245038926601L220.64624999999998,81.1840069770813L220.831875,27.12344645261765L221.14125,158.11598799582572L221.326875,134.08251157701017L221.698125,122.48480367958545L221.76,95.74907212257385L221.82187499999998,139.1402844965458L222.13125,91.58485178947448L222.37875,158.61159354164266L222.5025,86.49610664248466L222.688125,119.70311363339424L222.935625,84.17326607108116L222.9975,18.300146448612217L223.059375,62.323658573627476L223.18312500000002,91.36848138570785L223.430625,26.228382575511937L223.49249999999998,103.34011899232864L223.61625,101.15967206954956L223.678125,134.78411969840528L223.925625,73.52159975767135L223.98749999999998,123.85491659045219L224.049375,59.807710397243504L224.35875000000001,130.54311366677285L224.4825,102.50809149742126L225.10125,157.18961709290744L225.163125,122.7829684048891L225.410625,-21.322856497764604L225.534375,13.167866635322575L225.84375,134.53704873025418L225.9675,32.54203276634217L226.153125,117.41049887537956L226.276875,64.3907877087593L226.895625,80.31808753609657L227.08125,31.425872075557713L227.266875,5.626204419136052L227.57625000000002,-15.613448274135605L227.76187499999997,33.4552004814148L228.133125,103.73423616886139L228.31875,114.86905129551887L228.4425,152.38970253914596L228.751875,-164.8151844263077L228.87562499999999,-37.2596355199814L229.123125,127.49235849380493L229.185,118.03233300447464L229.68,155.10777331441642L229.9275,-49.15638906955721L229.989375,-37.83813543319704L230.175,17.582322943210606L230.29875,82.76064975857734L230.4225,-126.89665360450746L230.731875,-143.05814809799196L230.979375,120.1715873658657L231.226875,112.70919801592827L231.474375,-104.49634022712709L231.59812499999998,96.98306601047516L231.969375,-80.1244387149811L232.711875,152.44340347051622L232.835625,108.49592535495758L232.959375,-18.66121251583101L233.145,113.9623243689537L233.330625,16.929656374454503L233.51625,100.29613165855407L233.578125,154.84503028839828L233.8875,109.89483191370964L234.3825,24.23432289361954L234.75375,-7.940702033042923L234.93937499999998,105.78719134926796L235.00125,-37.58060939311983L235.49625,144.50057006925346L235.99124999999998,59.54353784322739L236.548125,97.65113561153412L236.795625,-104.19593889713289L237.22875,-108.65340764522554L237.60000000000002,119.73486392498016L237.72375,61.602796661853795L237.909375,-125.2261209011078L238.033125,75.05018718838691L238.404375,-32.867576909065264L238.52812500000002,26.72851692438126L238.59,149.82791187912227L238.96125,66.73738692998886L239.085,101.27316920757293L239.14687500000002,69.61080150604248L239.20875,88.43074332475662L239.45624999999998,-87.06550927162172L239.518125,41.64159564971924L239.58,17.959148633480076L239.70375,35.528427529335026L239.889375,17.586342501640324L240.013125,148.86638615950943L240.32250000000002,147.6903547525406L240.38437499999998,151.4869265958667L240.57,33.06819401979447L240.879375,149.66530109122397L240.94125,15.1545835018158L241.065,61.714468646049504L241.12687499999998,15.289560484886174L241.43625,-1.730515909194962L241.56,-79.01689739227297L241.745625,28.608615267276768L241.8075,146.8137323141098L241.86937500000002,-39.23487396240236L242.05499999999998,56.0176782488823L242.240625,-30.255539131164568L242.42625,-4.311167371273056L242.67374999999998,86.1734869658947L242.92125000000001,-36.28607947826387L243.04500000000002,144.2135448485613L243.354375,-33.967458915710466L243.41625,-63.94108457565309L243.54000000000002,57.078261423110966L243.72562499999998,-94.04510850906374L244.035,150.83320106863977L244.15875000000003,-80.53979308605196L245.7675,-40.91224308013918L245.953125,54.35344390869141L246.26250000000002,115.15161253809929L246.324375,143.96227629035712L246.38625,-140.87577052116396L247.06687499999998,-94.49103684425356L247.2525,78.01048647165298L247.438125,58.65561633110047" style="fill: none;" fill="none"></path></g></g></g></g></g></g><g transform="translate(51, 177)" clip-path="url(#clip_1)"><clipPath id="clip_1"><rect width="278" height="23"></rect></clipPath><g><g><line x1="0" y1="0" x2="0" y2="5" style="visibility: inherit;" fill="rgb(0, 0, 0)" stroke="rgb(204, 204, 204)" stroke-width="1px"></line><line x1="30.9375" y1="0" x2="30.9375" y2="5" style="visibility: inherit;" fill="rgb(0, 0, 0)" stroke="rgb(204, 204, 204)" stroke-width="1px"></line><line x1="61.875" y1="0" x2="61.875" y2="5" style="visibility: inherit;" fill="rgb(0, 0, 0)" stroke="rgb(204, 204, 204)" stroke-width="1px"></line><line x1="92.8125" y1="0" x2="92.8125" y2="5" style="visibility: inherit;" fill="rgb(0, 0, 0)" stroke="rgb(204, 204, 204)" stroke-width="1px"></line><line x1="123.75" y1="0" x2="123.75" y2="5" style="visibility: inherit;" fill="rgb(0, 0, 0)" stroke="rgb(204, 204, 204)" stroke-width="1px"></line><line x1="154.6875" y1="0" x2="154.6875" y2="5" style="visibility: inherit;" fill="rgb(0, 0, 0)" stroke="rgb(204, 204, 204)" stroke-width="1px"></line><line x1="185.625" y1="0" x2="185.625" y2="5" style="visibility: inherit;" fill="rgb(0, 0, 0)" stroke="rgb(204, 204, 204)" stroke-width="1px"></line><line x1="216.5625" y1="0" x2="216.5625" y2="5" style="visibility: inherit;" fill="rgb(0, 0, 0)" stroke="rgb(204, 204, 204)" stroke-width="1px"></line><line x1="247.5" y1="0" x2="247.5" y2="5" style="visibility: inherit;" fill="rgb(0, 0, 0)" stroke="rgb(204, 204, 204)" stroke-width="1px"></line><line x1="278.4375" y1="0" x2="278.4375" y2="5" style="visibility: inherit;" fill="rgb(0, 0, 0)" stroke="rgb(204, 204, 204)" stroke-width="1px"></line></g><g transform="translate(0, 8)"><text x="0" y="0" dx="0em" dy="0.95em" style="text-anchor: middle; visibility: hidden; font-family: Roboto, sans-serif; font-size: 12px; font-weight: 200;" fill="rgb(33, 33, 33)" stroke="none" stroke-width="1px">-500</text><text x="30.9375" y="0" dx="0em" dy="0.95em" style="text-anchor: middle; visibility: inherit; font-family: Roboto, sans-serif; font-size: 12px; font-weight: 200;" fill="rgb(33, 33, 33)" stroke="none" stroke-width="1px">0</text><text x="61.875" y="0" dx="0em" dy="0.95em" style="text-anchor: middle; visibility: inherit; font-family: Roboto, sans-serif; font-size: 12px; font-weight: 200;" fill="rgb(33, 33, 33)" stroke="none" stroke-width="1px">500</text><text x="92.8125" y="0" dx="0em" dy="0.95em" style="text-anchor: middle; visibility: inherit; font-family: Roboto, sans-serif; font-size: 12px; font-weight: 200;" fill="rgb(33, 33, 33)" stroke="none" stroke-width="1px">1k</text><text x="123.75" y="0" dx="0em" dy="0.95em" style="text-anchor: middle; visibility: inherit; font-family: Roboto, sans-serif; font-size: 12px; font-weight: 200;" fill="rgb(33, 33, 33)" stroke="none" stroke-width="1px">1.5k</text><text x="154.6875" y="0" dx="0em" dy="0.95em" style="text-anchor: middle; visibility: inherit; font-family: Roboto, sans-serif; font-size: 12px; font-weight: 200;" fill="rgb(33, 33, 33)" stroke="none" stroke-width="1px">2k</text><text x="185.625" y="0" dx="0em" dy="0.95em" style="text-anchor: middle; visibility: inherit; font-family: Roboto, sans-serif; font-size: 12px; font-weight: 200;" fill="rgb(33, 33, 33)" stroke="none" stroke-width="1px">2.5k</text><text x="216.5625" y="0" dx="0em" dy="0.95em" style="text-anchor: middle; visibility: inherit; font-family: Roboto, sans-serif; font-size: 12px; font-weight: 200;" fill="rgb(33, 33, 33)" stroke="none" stroke-width="1px">3k</text><text x="247.5" y="0" dx="0em" dy="0.95em" style="text-anchor: middle; visibility: inherit; font-family: Roboto, sans-serif; font-size: 12px; font-weight: 200;" fill="rgb(33, 33, 33)" stroke="none" stroke-width="1px">3.5k</text><text x="278.4375" y="0" dx="0em" dy="0.95em" style="text-anchor: middle; visibility: hidden; font-family: Roboto, sans-serif; font-size: 12px; font-weight: 200;" fill="rgb(33, 33, 33)" stroke="none" stroke-width="1px">4k</text></g><line x1="0" y1="0" x2="278.4375" y2="0" fill="rgb(0, 0, 0)" stroke="rgb(204, 204, 204)" stroke-width="1px"></line></g></g></g></g></svg>