<svg viewBox="0 0 330 200" xmlns="http://www.w3.org/2000/svg"><g><g><g><g><g><line x1="51.5625" y1="177" x2="46.5625" y2="177" style="visibility: inherit;" fill="rgb(0, 0, 0)" stroke="rgb(204, 204, 204)" stroke-width="1px"></line><line x1="51.5625" y1="159.3" x2="46.5625" y2="159.3" style="visibility: inherit;" fill="rgb(0, 0, 0)" stroke="rgb(204, 204, 204)" stroke-width="1px"></line><line x1="51.5625" y1="141.6" x2="46.5625" y2="141.6" style="visibility: inherit;" fill="rgb(0, 0, 0)" stroke="rgb(204, 204, 204)" stroke-width="1px"></line><line x1="51.5625" y1="123.89999999999999" x2="46.5625" y2="123.89999999999999" style="visibility: inherit;" fill="rgb(0, 0, 0)" stroke="rgb(204, 204, 204)" stroke-width="1px"></line><line x1="51.5625" y1="106.2" x2="46.5625" y2="106.2" style="visibility: inherit;" fill="rgb(0, 0, 0)" stroke="rgb(204, 204, 204)" stroke-width="1px"></line><line x1="51.5625" y1="88.5" x2="46.5625" y2="88.5" style="visibility: inherit;" fill="rgb(0, 0, 0)" stroke="rgb(204, 204, 204)" stroke-width="1px"></line><line x1="51.5625" y1="70.8" x2="46.5625" y2="70.8" style="visibility: inherit;" fill="rgb(0, 0, 0)" stroke="rgb(204, 204, 204)" stroke-width="1px"></line><line x1="51.5625" y1="53.10000000000001" x2="46.5625" y2="53.10000000000001" style="visibility: inherit;" fill="rgb(0, 0, 0)" stroke="rgb(204, 204, 204)" stroke-width="1px"></line><line x1="51.5625" y1="35.40000000000001" x2="46.5625" y2="35.40000000000001" style="visibility: inherit;" fill="rgb(0, 0, 0)" stroke="rgb(204, 204, 204)" stroke-width="1px"></line><line x1="51.5625" y1="17.699999999999996" x2="46.5625" y2="17.699999999999996" style="visibility: inherit;" fill="rgb(0, 0, 0)" stroke="rgb(204, 204, 204)" stroke-width="1px"></line><line x1="51.5625" y1="0" x2="46.5625" y2="0" style="visibility: inherit;" fill="rgb(0, 0, 0)" stroke="rgb(204, 204, 204)" stroke-width="1px"></line></g><g transform="translate(41.5625, 0)"><text x="0" y="177" dx="0em" dy="0.3em" style="text-anchor: end; visibility: hidden; font-family: Roboto, sans-serif; font-size: 12px; font-weight: 200;" fill="rgb(33, 33, 33)" stroke="none" stroke-width="1px">-0.1</text><text x="0" y="159.3" dx="0em" dy="0.3em" style="text-anchor: end; visibility: inherit; font-family: Roboto, sans-serif; font-size: 12px; font-weight: 200;" fill="rgb(33, 33, 33)" stroke="none" stroke-width="1px">0</text><text x="0" y="141.6" dx="0em" dy="0.3em" style="text-anchor: end; visibility: hidden; font-family: Roboto, sans-serif; font-size: 12px; font-weight: 200;" fill="rgb(33, 33, 33)" stroke="none" stroke-width="1px">0.1</text><text x="0" y="123.89999999999999" dx="0em" dy="0.3em" style="text-anchor: end; visibility: inherit; font-family: Roboto, sans-serif; font-size: 12px; font-weight: 200;" fill="rgb(33, 33, 33)" stroke="none" stroke-width="1px">0.2</text><text x="0" y="106.2" dx="0em" dy="0.3em" style="text-anchor: end; visibility: hidden; font-family: Roboto, sans-serif; font-size: 12px; font-weight: 200;" fill="rgb(33, 33, 33)" stroke="none" stroke-width="1px">0.3</text><text x="0" y="88.5" dx="0em" dy="0.3em" style="text-anchor: end; visibility: inherit; font-family: Roboto, sans-serif; font-size: 12px; font-weight: 200;" fill="rgb(33, 33, 33)" stroke="none" stroke-width="1px">0.4</text><text x="0" y="70.8" dx="0em" dy="0.3em" style="text-anchor: end; visibility: hidden; font-family: Roboto, sans-serif; font-size: 12px; font-weight: 200;" fill="rgb(33, 33, 33)" stroke="none" stroke-width="1px">0.5</text><text x="0" y="53.10000000000001" dx="0em" dy="0.3em" style="text-anchor: end; visibility: inherit; font-family: Roboto, sans-serif; font-size: 12px; font-weight: 200;" fill="rgb(33, 33, 33)" stroke="none" stroke-width="1px">0.6</text><text x="0" y="35.40000000000001" dx="0em" dy="0.3em" style="text-anchor: end; visibility: hidden; font-family: Roboto, sans-serif; font-size: 12px; font-weight: 200;" fill="rgb(33, 33, 33)" stroke="none" stroke-width="1px">0.7</text><text x="0" y="17.699999999999996" dx="0em" dy="0.3em" style="text-anchor: end; visibility: inherit; font-family: Roboto, sans-serif; font-size: 12px; font-weight: 200;" fill="rgb(33, 33, 33)" stroke="none" stroke-width="1px">0.8</text><text x="0" y="0" dx="0em" dy="0.3em" style="text-anchor: end; visibility: hidden; font-family: Roboto, sans-serif; font-size: 12px; font-weight: 200;" fill="rgb(33, 33, 33)" stroke="none" stroke-width="1px">0.9</text></g><line x1="51.5625" y1="0" x2="51.5625" y2="177" fill="rgb(0, 0, 0)" stroke="rgb(204, 204, 204)" stroke-width="1px"></line></g></g><g transform="translate(51, 0)" clip-path="url(#clip_0)"><clipPath id="clip_0"><rect width="278" height="177"></rect></clipPath><g><g><g><line x1="0" y1="0" x2="0" y2="177" fill="rgb(0, 0, 0)" stroke="rgb(66, 66, 66)" stroke-width="1px" opacity="0.25"></line><line x1="30.9375" y1="0" x2="30.9375" y2="177" fill="rgb(0, 0, 0)" stroke="rgb(66, 66, 66)" stroke-width="1px" opacity="0.25"></line><line x1="61.875" y1="0" x2="61.875" y2="177" fill="rgb(0, 0, 0)" stroke="rgb(66, 66, 66)" stroke-width="1px" opacity="0.25"></line><line x1="92.8125" y1="0" x2="92.8125" y2="177" fill="rgb(0, 0, 0)" stroke="rgb(66, 66, 66)" stroke-width="1px" opacity="0.25"></line><line x1="123.75" y1="0" x2="123.75" y2="177" fill="rgb(0, 0, 0)" stroke="rgb(66, 66, 66)" stroke-width="1px" opacity="0.25"></line><line x1="154.6875" y1="0" x2="154.6875" y2="177" fill="rgb(0, 0, 0)" stroke="rgb(66, 66, 66)" stroke-width="1px" opacity="0.25"></line><line x1="185.625" y1="0" x2="185.625" y2="177" fill="rgb(0, 0, 0)" stroke="rgb(66, 66, 66)" stroke-width="1px" opacity="0.25"></line><line x1="216.5625" y1="0" x2="216.5625" y2="177" fill="rgb(0, 0, 0)" stroke="rgb(66, 66, 66)" stroke-width="1px" opacity="0.25"></line><line x1="247.5" y1="0" x2="247.5" y2="177" fill="rgb(0, 0, 0)" stroke="rgb(66, 66, 66)" stroke-width="1px" opacity="0.25"></line><line x1="278.4375" y1="0" x2="278.4375" y2="177" fill="rgb(0, 0, 0)" stroke="rgb(66, 66, 66)" stroke-width="1px" opacity="0.25"></line></g><g><line x1="0" y1="177" x2="278.4375" y2="177" fill="rgb(0, 0, 0)" stroke="rgb(66, 66, 66)" stroke-width="1px" opacity="0.25"></line><line x1="0" y1="159.3" x2="278.4375" y2="159.3" fill="rgb(0, 0, 0)" stroke="rgb(66, 66, 66)" stroke-width="1px" opacity="0.25"></line><line x1="0" y1="141.6" x2="278.4375" y2="141.6" fill="rgb(0, 0, 0)" stroke="rgb(66, 66, 66)" stroke-width="1px" opacity="0.25"></line><line x1="0" y1="123.89999999999999" x2="278.4375" y2="123.89999999999999" fill="rgb(0, 0, 0)" stroke="rgb(66, 66, 66)" stroke-width="1px" opacity="0.25"></line><line x1="0" y1="106.2" x2="278.4375" y2="106.2" fill="rgb(0, 0, 0)" stroke="rgb(66, 66, 66)" stroke-width="1px" opacity="0.25"></line><line x1="0" y1="88.5" x2="278.4375" y2="88.5" fill="rgb(0, 0, 0)" stroke="rgb(66, 66, 66)" stroke-width="1px" opacity="0.25"></line><line x1="0" y1="70.8" x2="278.4375" y2="70.8" fill="rgb(0, 0, 0)" stroke="rgb(66, 66, 66)" stroke-width="1px" opacity="0.25"></line><line x1="0" y1="53.10000000000001" x2="278.4375" y2="53.10000000000001" fill="rgb(0, 0, 0)" stroke="rgb(66, 66, 66)" stroke-width="1px" opacity="0.25"></line><line x1="0" y1="35.40000000000001" x2="278.4375" y2="35.40000000000001" fill="rgb(0, 0, 0)" stroke="rgb(66, 66, 66)" stroke-width="1px" opacity="0.25"></line><line x1="0" y1="17.699999999999996" x2="278.4375" y2="17.699999999999996" fill="rgb(0, 0, 0)" stroke="rgb(66, 66, 66)" stroke-width="1px" opacity="0.25"></line><line x1="0" y1="0" x2="278.4375" y2="0" fill="rgb(0, 0, 0)" stroke="rgb(66, 66, 66)" stroke-width="1px" opacity="0.25"></line></g></g></g><g><g><line x1="0" y1="159.3" x2="278.4375" y2="159.3" fill="rgb(0, 0, 0)" stroke="rgb(153, 153, 153)" stroke-width="1.5px"></line></g></g><g><g><line x1="30.9375" y1="0" x2="30.9375" y2="177" fill="rgb(0, 0, 0)" stroke="rgb(153, 153, 153)" stroke-width="1.5px"></line></g></g><g><g><g><g><g><path stroke="rgb(255, 112, 67)" stroke-width="2px" d="M31.0550625,156.55925425998868L31.3273125,155.51303185005673L31.605749999999997,130.24321824667254L32.007937500000004,114.11903688602067L32.4534375,118.54050908002519L32.54625,132.16446691408308L32.6885625,139.9931197420235L33.4310625,114.57045217691402L33.5115,131.48592786652713L33.647625,122.76357314223574L33.820875,108.22198244746781L34.0993125,95.03780286207842L34.241625,80.55627191451418L34.2725625,71.02722740846447L34.3839375,98.16566064179159L34.631437500000004,120.97482305927961L34.885125,134.6953774248958L34.92225,116.76455895146148L35.0150625,126.06003629119066L35.6709375,113.9667952419336L35.9184375,110.14381684472434L36.302062500000005,116.04841102126422L36.4258125,112.43588646506053L37.224,110.05998597555637L37.29206249999999,97.96841982462976L37.360125000000004,96.72418071372428L37.818000000000005,91.59555161052855L37.904624999999996,95.48036670385784L37.947937499999995,109.67622388267944L38.0716875,111.54746735971534L38.1459375,113.4468426129229L38.2201875,98.72507777714084L38.2696875,101.42710630745003L38.480062499999995,91.62075638003623L38.6904375,106.28093752091665L38.7028125,115.76198408265255L38.783249999999995,117.97675867533032L38.808,103.86958004276148L39.457687500000006,92.50480594749594L39.711375000000004,107.24104094517368L39.9650625,92.92260213664427L40.1878125,103.76617350606163L40.2868125,107.04747418038245L40.305375,113.71390513697837L40.52193749999999,114.98888078535681L40.5405,95.60661341072486L40.627125,84.9589705255897L41.01075,99.30726985410905L41.060249999999996,106.2019362657764L41.276812500000005,114.48262444321044L41.4748125,101.87119577153604L41.5305,107.46945481316335L42.372,114.03250681768661L42.693749999999994,117.94629346496758L42.755625,94.84367941835201L42.9474375,77.42510773073181L43.07118749999999,97.13088118750626L43.077374999999996,106.78910936068888L43.8075,116.94501079530438L44.611875,127.39764355785255L45.2925,135.3109016082683L45.54,125.79280424010729L46.0164375,118.63290450031735L46.047375,115.54307905587658L46.1278125,108.4422189054078L46.1773125,126.08229382200163L46.195875,136.38426731415464L46.431,143.2788605218403L46.888875,146.1295829919143L46.8950625,148.40023610008737L47.025,134.72223289139853L47.24775,142.10527171956173L47.29725,128.10627284924192L47.5509375,135.19982999849324L47.606625,123.60658586912157L47.6994375,121.29318717773438L47.755125,129.76718837532806L47.977875,126.15545905657655L47.9840625,125.40377761857538L48.0706875,122.71082469902531L48.175875,135.40101126377044L48.342937500000005,130.1506671592251L48.540937500000005,125.41018834141823L48.646125000000005,131.78882587032277L49.339124999999996,127.9201876656816L50.01975,130.89222619870932L50.0259375,128.77705367290756L50.1496875,138.47356877674926L50.155875,143.31749926895063L50.403375,142.45195351892806L50.737500000000004,146.64138131024893L50.848875,145.9860131077913L50.997375,145.55541134792253L51.145875000000004,144.07095889817288L51.1644375,144.25165430766708L51.7089375,146.77434863902548L52.005937499999995,150.7465273601259L52.494749999999996,153.1799386259881L52.5999375,152.61200593185228L52.7608125,154.14175811691166L53.0083125,154.31797650073815L53.218687499999994,155.37501140014737L53.3176875,155.4839651347781L53.5528125,154.14445159176495L53.596124999999994,155.24208401465123L53.6394375,155.6083868423027L53.658,155.70428371721042L53.7755625,153.0801391481968L53.9116875,154.1532980918653L54.3448125,154.4250983977179L54.7531875,153.88544107996586L55.16775,154.87451043261981L55.279125,154.963654524737L55.538999999999994,154.4344929299673L55.767937499999995,148.69544563066484L55.836000000000006,151.05671287892176L56.213437500000005,152.834040674674L56.368125000000006,152.7440214694187L56.442375000000006,153.07094645265607L56.4609375,153.41616165020386L56.59706250000001,153.27881039129687L56.813625,154.47765604047174L56.8816875,155.36745745815753L57.09825,155.54341918127486L57.283874999999995,155.0702816089794L57.661312499999994,151.75451181595355L57.7231875,152.6371164871146L58.5028125,153.88149221452414L59.004,153.3708508098861L59.028749999999995,153.0826906028235L59.1834375,154.2711107810047L59.4804375,154.3518606312398L59.709375,152.80269655777954L59.9630625,149.6268660390016L60.0125625,148.8576109131358L60.06825,152.02622879759562L60.210562499999995,154.06759033227618L60.501375,154.66266838803682L60.8416875,152.42147107002017L60.866437499999996,149.10722232626009L60.9159375,150.33014808127956L61.1510625,152.0256732231657L61.3243125,151.65224443353895L62.370000000000005,152.49698009745887L62.4256875,152.68967559699183L62.4380625,154.12057721071818L62.6979375,152.20739698054422L62.7226875,151.30991313512342L62.84025,146.69774146589765L63.03825,148.87820788570122L63.1186875,151.2643895643823L63.273375,151.71517202066616L63.353812500000004,152.57214069817803L63.446625,154.1058594265839L63.5023125,153.3350249796665L63.7065,152.46553874549605L63.855,151.9542176767429L63.8735625,152.61459936882497L64.1210625,154.25810633233453L64.37474999999999,155.1995769274608L64.634625,154.3096799404845L64.6903125,155.60430514530393L65.030625,155.6699551696542L66.00825,154.1971432566621L66.3980625,154.09254847213495L66.57131249999999,154.86339843463819L67.02918749999999,150.21025345559073L67.2395625,152.84292303940745L67.32000000000001,153.477350285626L67.7964375,145.82402460156473L67.951125,149.2469053966021L68.05012500000001,150.22228828651998L68.124375,152.5157186547416L68.396625,153.05253461626157L68.7555,148.08763120667328L68.9225625,150.86778601063008L68.9473125,152.6953238830132L69.460875,151.05567410321012L69.57225,150.24498873460874L69.795,150.44761132722252L70.12293749999999,151.63867438569756L70.1353125,152.79541933795863L70.2838125,151.1980136362377L70.29,150.50773384259125L70.3209375,152.9685100319146L70.35187499999999,154.390254231373L71.33568749999999,155.01092741434547L71.478,154.17669047859175L71.5584375,147.84544965414324L71.589375,145.74489580087732L71.68837500000001,141.0778394919209L71.7193125,145.709428477381L71.77499999999999,148.70148545807263L71.874,150.97588160637414L72.23287499999999,150.7050221604311L72.58556250000001,149.26019086612487L72.7093125,151.51928105278745L73.0310625,152.88656042083463L73.2785625,152.35342640438296L73.3280625,150.791534353546L73.73643750000001,151.49673794731598L73.755,151.27417369321049L73.8230625,149.62553591331877L74.2005,146.02231149078034L74.2314375,144.19125770867242L74.2438125,144.85223197961076L74.5903125,147.7234867019905L74.980125,148.70061883172116L74.9986875,146.5952614697261L75.0358125,147.41463935508986L75.27093749999999,148.14464541873133L75.537,140.3389683234739L75.821625,139.93707174289509L75.95156250000001,142.966909601857L76.16193750000001,145.3930094877301L76.3475625,147.56035861429083L76.440375,144.57533169541662L76.527,145.3872307178611L76.9539375,147.6191156466147L77.1271875,147.84474530990963L77.1519375,148.3037234090331L77.16431250000001,147.2048686064817L77.2385625,147.157704933735L77.3870625,148.70344523862138L77.4613125,147.90001903161487L77.5479375,150.76889219364574L77.616,151.34705129969743L77.925375,148.53642800395866L77.9934375,150.15345084306702L78.2038125,150.24033519528572L78.2409375,150.56919341446317L78.3399375,151.01138227201318L78.75450000000001,151.20523764918337L78.7730625,149.6526592280274L78.9339375,149.7526690736893L79.1690625,147.31884492608805L79.17524999999999,147.3457896940285L79.336125,147.79483134760702L79.5465,147.03920458504106L79.794,148.48455715446798L80.35706250000001,145.53033598941045L80.7283125,143.65582677651332L81.19856250000001,144.21233637707763L81.3346875,143.75831953750452L81.7801875,145.44293326298236L82.157625,146.78172120368384L82.24425000000001,146.1407703168148L82.2751875,146.2388031617972L82.776375,144.5609262291296L82.900125,143.35978584430833L83.48174999999999,147.2414596178664L83.8344375,142.74918935409386L83.8715625,145.00662528521536L84.2675625,146.0765822872324L84.52125000000001,144.82349504916687L84.54599999999999,145.07616886549485L84.7378125,144.61284454317862L84.92343749999999,143.37541827769266L85.0966875,145.10439487642756L85.2451875,144.5565002235574L85.2575625,145.6706588353397L85.53599999999999,144.62249818478116L85.597875,143.11261850436978L85.8268125,143.6567506196526L85.870125,143.5996827794568L86.117625,146.00067097744088L86.538375,142.03345021009883L86.66831250000001,144.68693895399835L86.835375,144.4630669144408L86.9900625,146.76086402878855L87.379875,147.39797702220497L87.57168750000001,148.1005593150104L87.9429375,145.10007872159747L88.19043749999999,145.8039119671313L88.43175,147.1788414597826L88.506,138.81356041433315L88.5616875,143.67076888830601L88.6545,141.09230328709566L88.765875,144.46448191291503L88.8525,147.02038638285643L88.93293750000001,146.67559099311737L88.963875,145.24014944025936L89.02574999999999,143.06227867239156L89.4526875,143.90527619501017L89.96006249999999,144.79976495373285L90.01575,144.93007346670652L90.1333125,133.4224289469768L90.783,135.80280593233402L90.7891875,136.8266888105696L91.0366875,137.71514292739784L91.290375,141.34764046003195L91.29656250000001,141.24677385228736L91.4079375,140.64078662120022L91.661625,137.8477351875467L91.810125,129.38243125864048L91.8905625,128.5290032934438L91.99575,121.2966868657643L92.1628125,118.82183512441961L92.30512499999999,123.42130962963489L92.4969375,130.18474513683074L92.503125,135.43090509529918L92.50931250000001,137.11642813894755L92.57118750000001,140.80763010033132L92.65162500000001,140.52407755284406L92.68875,139.54262980537948L92.775375,144.41392220656476L93.20849999999999,141.45198946476225L93.3755625,135.31178904462004L93.567375,141.47561595790472L93.6725625,141.2479281523996L94.0005,139.73820740694842L94.1056875,138.88717652210616L94.149,135.0851647260727L94.483125,139.2911641432608L94.5511875,136.13755951248197L94.9348125,133.1871894247686L94.95337500000001,130.21225718065233L94.95956249999999,132.19950361015876L95.26275,138.9927221188693L95.572125,143.1604634728878L95.60925,143.697965179494L95.6154375,145.09815201855358L95.6525625,146.12019714353477L95.918625,144.36663014494178L96.02381249999999,142.48197820486305L96.289875,140.48058286250637L96.5064375,139.9203772881091L96.735375,139.9506672894037L96.79724999999999,135.6839793440745L96.809625,135.6177839718488L97.19325,135.67225734604762L97.25512499999999,137.91424998887396L97.2984375,139.77626109092247L97.58925,139.69241683583743L98.0285625,141.3213235443907L99.1485,141.30229815996154L99.1794375,141.1756714126853L99.2289375,140.39371689625906L99.34031250000001,137.60118719141678L99.58781250000001,136.4690714681208L99.73631250000001,137.5475137903726L99.7734375,137.1842077847979L100.05806249999999,140.1414300529159L100.3179375,138.83528619098647L100.35506249999999,138.6687724756478L100.4045625,141.76971827669612L101.05425,138.9128760690908L101.4440625,138.93819192739846L101.536875,141.83124707277133L101.74725,136.16569947800346L101.858625,130.9016576755125L102.5825625,135.10737064290515L102.78675,135.18434007768911L103.31268750000001,131.16398300531554L103.5601875,133.21766697766213L103.6839375,130.10970797897477L103.739625,135.91902236617264L103.8695625,128.87866877124702L104.07374999999999,132.3713979530692L104.247,137.5803543763375L104.37075,134.40634905439708L104.4264375,134.53470302428065L104.91525,131.72837009433064L105.0204375,131.47952526571248L105.36075000000001,130.59880854464706L105.6639375,128.85549704418858L106.27650000000001,129.3285139345305L106.30125,127.94481078166824L106.64775,124.41351209031976L106.8705,129.59859495548866L107.0623125,134.1746465944556L107.0746875,132.27770447154685L107.1489375,134.11653178107647L107.3840625,137.1946556858534L107.6315625,139.09579881503072L107.6563125,138.40408510967424L107.6686875,140.2466329109927L107.79862499999999,123.7928883369124L107.8048125,114.4495310816381L107.89762499999999,107.97202582080445L107.971875,109.92524898123312L108.1389375,124.77406698031167L108.1513125,131.82091067888103L108.16368750000001,138.66234072362045L108.62156250000001,140.43556157061255L108.912375,139.84206133788106L109.2031875,133.20137420836255L109.5744375,132.0228954001854L110.088,118.7448849418515L110.768625,119.77194615356647L110.793375,124.05178356380775L111.0346875,101.90521156437107L111.2079375,101.55285938290899L111.2326875,106.9323837692031L111.36262500000001,112.01442092981867L111.5296875,113.77148812131246L111.67818749999999,102.46161629150009L111.9504375,99.47841912859496L112.5444375,108.59099286528715L112.99612499999999,98.35859131176645L113.26218750000001,90.66247773503885L113.540625,105.38078780493514L113.7819375,117.14236426783428L113.9675625,120.7830695011188L114.1965,122.05247339713392L114.6110625,112.99337127392182L114.78431250000001,98.68388970961982L114.83381250000001,97.75571489018688L115.236,106.69832844068102L115.3535625,110.45327744322712L115.3845,111.10248101137695L116.3435625,119.23480998028884L116.63437499999999,124.9897294327591L116.8880625,124.19006319075669L117.04893750000001,114.70225365418102L117.38924999999999,113.55010333453362L117.44493750000001,115.74323455688206L117.6058125,119.64307112930327L117.8533125,121.7962746062166L118.66387499999999,115.98850866307535L118.7319375,116.05980157464576L118.8433125,97.05847074276109L119.1650625,99.80337822965323L119.20837499999999,115.41955374021255L119.7590625,122.573824557894L119.80237500000001,132.00593793704124L120.0375,126.12947417207964L120.074625,131.90392677252535L120.16125000000001,136.82466913142827L120.2169375,138.66282331990615L120.87899999999999,142.56752978263745L121.138875,134.802792869201L121.4235,137.48258725654526L121.559625,141.11314156086112L122.178375,137.4048814632348L122.63625,135.14256039129805L122.83425000000001,136.00188142697283L122.9146875,132.57127519750756L122.9394375,129.18331854643918L123.267375,134.34970821620522L123.29212500000001,138.39283268381058L123.38493749999999,133.1655968244606L123.87375,135.08593841110076L124.15837499999999,137.93101310082915L124.1645625,139.39127496211913L124.1893125,140.547305175836L124.43681249999999,133.73817273448412L124.5234375,134.69174886745515L124.6100625,125.07450593830528L124.702875,131.26868812752593L124.8451875,131.64525561161534L124.900875,121.92750273840247L124.9875,128.3355956637658L125.8228125,130.64159090422373L125.9094375,128.97059688748587L125.9960625,131.39601283658547L126.05175,123.80580425613523L126.34875,117.24916463824152L126.484875,119.6556914146664L126.5776875,122.57117204164996L126.6148125,120.67902638611515L126.78806250000001,118.07370734988046L127.5305625,124.09096002565856L127.70381250000001,127.9507225941839L127.8894375,134.44522445864808L128.1616875,136.19605002204975L128.22356249999999,127.60881846308946L128.390625,127.4739265701785L128.4586875,122.25071442017641L128.66287499999999,129.8151499515157L128.8299375,131.3233184698451L128.898,136.48489819784334L129.157875,131.05882709037883L129.4610625,134.06502662307992L130.1416875,122.29438207988127L130.4139375,128.2746833392631L130.667625,127.75106945923869L131.08837499999998,127.70607228572314L131.0945625,122.58750037369217L131.42249999999999,127.24730793963126L131.434875,125.38950597959906L131.47199999999998,129.11784622024388L131.880375,135.74043811947638L132.0845625,127.79003067487798L132.3691875,121.55924114510012L132.48675,118.78459001853818L132.58575,119.15504947587702L133.687125,119.65171540072473L134.46675,126.17611013347455L134.4915,132.8783983093175L135.1040625,119.10628113875822L135.3020625,116.79814384537958L135.3886875,116.63942724083677L135.40725,114.56110117921122L135.55575000000002,108.56579800420337L135.80325,113.70789889200529L135.828,119.94767723026276L136.1435625,105.73286507572173L136.2301875,101.77980511930848L136.4653125,114.49743369071045L136.6014375,119.35327905445314L136.8736875,124.74255785482536L136.9108125,125.27767423592454L136.917,126.04778887630967L137.01600000000002,120.33710090518872L137.09025,128.3242949688487L137.548125,108.4656111695798L137.6780625,98.73687398543548L137.7585,106.29573326892013L137.820375,94.26716595164748L137.869875,88.78320429606326L138.5690625,107.7453074400609L138.798,102.74733982473525L139.31775,105.50661996120161L139.61475,117.71251611896723L140.04168750000002,117.9429173480771L140.047875,114.36462372131957L140.283,125.91868012122997L140.3881875,124.48303000433856L140.443875,122.55739168228872L140.65425000000002,111.49650535048347L140.8831875,113.7396317735988L141.1678125,112.57220117662418L141.53287500000002,116.41619544395249L141.58237499999998,123.26065975647235L141.607125,127.58183506382146L141.91649999999998,126.39645177991771L142.34962499999997,130.5991045598482L142.3681875,134.22309283222526L142.53525,133.669059646164L142.8631875,129.3034422362057L142.993125,120.36898574138925L143.067375,108.40229733052996L143.116875,104.5334045080134L143.141625,106.0954095785492L143.166375,114.68926480321129L143.5995,112.3589541322472L144.0264375,109.97021138229861L144.3729375,123.04020827566919L144.45337500000002,118.21035697910389L144.824625,125.49775933655025L144.973125,115.3967509426589L145.06593750000002,119.28421963917705L145.2144375,122.64906694214041L145.294875,119.91034473133382L145.35056250000002,108.37129509658992L145.5485625,106.53509020454514L146.1301875,91.14345514086978L146.161125,79.94927169387398L146.24156250000001,61.328817181020135L146.30962499999998,67.63622625126192L147.0088125,83.67072860392183L147.01500000000001,90.48386867756994L147.052125,105.91064536640256L147.0706875,111.78857108515031L147.1449375,105.62829725600199L147.23775,90.1828265181596L147.91218750000002,94.60853595205634L148.4505,75.30025457065398L148.7475,84.08507434082682L149.11875,92.0855607673684L149.180625,99.44538505108115L149.205375,93.31995282430026L149.21156249999999,98.45499797498329L149.799375,94.60113682171789L150.2263125,101.29031000745944L150.48,103.19110868819148L150.838875,109.68111271052116L151.01831249999998,112.03805813544126L151.1049375,121.70887315602977L151.58756250000002,112.55947835166384L151.60612500000002,115.6030095345922L151.88456250000002,114.24154244942355L152.32387500000002,107.58475231100849L152.422875,117.51104629140933L152.5528125,106.01791953624391L152.596125,109.72318785060111L153.709875,105.61366746347345L153.833625,95.81166185570477L154.04399999999998,92.564208214478L154.143,74.36143721163053L154.2110625,72.38594017159808L154.576125,75.90965065319459L154.5823125,69.83820550536585L154.6070625,77.44849841651602L154.6875,80.27804768119624L154.7803125,63.930006594862775L155.15775,76.91369450295343L155.52281250000001,83.17925181033833L156.61800000000002,94.59330666805879L156.9335625,84.74351904359803L157.1315625,69.42921748618689L157.18725,78.08715103900674L157.3048125,72.66759299061442L157.41618749999998,79.40878636849966L157.744125,89.49344281204372L157.867875,86.75676243929762L158.004,94.13822822945534L158.1463125,97.5205328486992L158.2515,87.4159954632898L158.27006250000002,87.5029252389419L158.28862500000002,101.51217473979878L158.5175625,91.37805134437137L158.6908125,93.01321993816885L158.8021875,91.30974980443115L158.8145625,81.95579619079467L159.3961875,78.70997333568118L159.56324999999998,94.11274849916568L159.724125,101.7678548499648L159.8788125,103.62776662854577L159.897375,86.14807589738504L160.55325000000002,101.4825599675711L160.57799999999997,111.78900350364066L160.6708125,100.83189630765925L160.6831875,93.62999851381308L160.71412500000002,104.47161116645053L160.75125,106.62811916855165L160.88118749999998,101.84045105568879L161.1039375,111.60710163469503L161.2029375,102.74449601623647L161.679375,104.55868430169363L161.902125,99.92151880521739L161.95162499999998,114.98219709968068L161.98874999999998,124.70906135186851L162.149625,128.1972555991727L162.174375,118.66640464047897L162.322875,103.77917789685911L162.3909375,105.48114599268546L162.53325,96.48508717227526L162.8055,104.7777229059252L163.29431250000002,86.31377264431195L163.47375,93.4946169601147L163.758375,80.54682372011331L164.4823125,88.27091645716183L164.4946875,87.64472383689018L164.550375,89.6059267856546L164.57512499999999,79.8770231639068L164.5813125,69.06855698554044L164.624625,85.14763249950602L164.723625,91.94876201866265L165.0639375,74.1649872965705L165.0763125,65.97508330506635L165.3361875,38.419966307655294L165.42281250000002,60.591333949193555L165.90543749999998,61.37607853151871L165.94875,56.750116752013625L166.109625,68.0308173527867L167.4585,77.58487188521327L167.607,60.907150166650425L167.77406249999999,40.6974219378351L167.9101875,58.43300484517329L167.9720625,30.907514227027388L168.07106249999998,35.73767028128783L168.485625,38.36277998134899L168.757875,33.760668586763195L168.832125,63.63335052911784L168.8754375,90.20135769834724L168.96824999999998,77.3802855061925L169.40756249999998,69.63422953888397L169.4199375,38.004703372744444L169.648875,55.06354013802274L169.945875,53.271447723636996L170.2490625,60.468641863781194L170.3604375,81.03426461131453L170.577,81.60738215393471L170.8059375,92.26615279165894L171.05962499999998,29.147133710670406L171.41231249999998,33.4257867781448L171.7464375,48.91111779022978L171.901125,70.1595447838829L172.767375,62.900540989668734L172.9344375,71.01340384127592L173.151,66.47907687450585L173.584125,88.24536267772399L173.61506250000002,91.16597209605625L173.69549999999998,92.83386371989876L173.83781249999998,95.73430952823061L173.91206250000002,52.05728247520862L174.8773125,78.43269512628042L175.1000625,90.8130418823631L175.2361875,103.01279178777168L175.29806250000001,105.0197043938567L175.7683125,101.37973966855584L175.7745,106.82311665927637L176.3499375,97.34367167422336L176.900625,101.38338672321534L176.913,104.70164451838431L177.247125,93.68317068243562L177.2656875,83.0077916373285L177.6988125,91.45943241771892L178.311375,107.4409849623253L179.14668749999998,111.7690593361503L179.6045625,106.6535497712878L179.87681250000003,109.82946466969179L179.9139375,108.40609549740985L180.192375,104.09465872323534L180.8049375,74.31332956717026L181.6464375,35.870625866446574L181.7825625,21.418835070725482L181.863,54.2813176864363L182.13525,69.80564610206946L182.34562499999998,62.53497325923362L182.370375,38.96194986549805L182.4879375,23.607660050677005L183.19331250000002,31.414390294245923L183.37893749999998,-0.14521040887116565L183.7996875,19.86086571711018L183.8863125,-21.005481244935314L184.13381249999998,22.597001022211487L184.5050625,63.591037623948935L184.56693750000002,31.98681124738878L184.635,27.09881517822757L184.65975,17.893923883051958L184.85775,-6.20123186325354L184.9010625,1.480199817327712L185.031,14.55347239703421L185.2475625,36.97438885528139L185.3713125,81.21172446881707L185.38368749999998,50.5887650136648L185.488875,42.761441338330414L185.5755,54.10421201006765L185.95912500000003,27.344139239884587L185.9715,21.882427795944906L186.3241875,37.20120752824444L186.78825,37.69099435909448L187.17187500000003,59.41435413899337L188.09381249999998,54.5543002399344L188.37843750000002,89.87314166322581L188.52075000000002,79.48541713294524L189.41793750000002,62.115866778714306L189.646875,61.95470828439166L189.721125,75.99091566696983L189.882,50.85195627388491L189.981,70.67537976370534L189.99337500000001,86.76926895538736L190.042875,90.33032296752792L190.05524999999997,85.15871661815561L190.315125,58.73664644428204L190.66781250000003,58.62467879216736L190.760625,55.44974864340344L190.76681250000001,66.71482205400777L191.09475,84.46859275823779L191.24325000000002,48.137673608815355L191.305125,61.74996754190665L191.379375,43.02905955231989L191.7568125,57.711555346946746L192.1651875,79.06651457375337L192.22087499999998,46.25161080018312L192.418875,46.31118321213503L192.47456250000002,39.54631065722333L192.52406249999999,55.257755116200606L192.5735625,56.85946571086417L192.765375,55.87082265886409L192.77775,54.24882399006333L193.446,56.722181976816934L193.458375,57.884695394624394L193.61306249999998,48.14584725844212L193.6935,69.61763442127317L193.70587500000002,79.49243543010002L193.7615625,86.41171892083314L194.151375,60.959876291731746L194.42362500000002,62.18541409062132L194.4545625,63.5730446379589L194.85675,62.96200435884042L195.22181250000003,94.84236787395025L195.45075,65.38923114440647L195.4816875,67.2958143061507L195.512625,33.23201092637232L195.7168125,38.69630358074099L195.81581250000002,76.81357790621512L196.032375,62.66954224581953L196.09425000000002,65.18006301209591L196.106625,74.82532508066453L196.13137500000002,85.08567904288266L196.156125,49.98524075779137L196.47787499999998,53.40252722044478L196.8553125,48.77567615473087L196.8615,53.39965487458595L196.86768750000002,56.3896761187213L197.4740625,68.32694855739457L197.8205625,52.2540065920936L198.0928125,34.66950983980814L198.185625,68.97410137283516L198.3031875,46.25263096110649L198.37125,80.15703116307631L198.6496875,58.25626333743319L198.76725,73.52497818106404L198.87243750000002,85.64335929890866L199.91193750000002,84.49210696661709L200.277,57.65020759370468L200.7410625,76.82173399130428L200.759625,74.7375780653949L200.8153125,94.92991902422878L201.229875,118.21727005655751L201.32887499999998,55.668245954604046L201.36599999999999,69.07591659742063L201.87956250000002,49.56078058551232L201.9043125,48.81359818738985L202.03425000000001,83.73924390889579L202.36837500000001,72.40615675221308L202.8200625,68.97686772686497L202.9066875,90.29624011720571L203.11087500000002,90.12981575611445L203.160375,81.70435631920822L203.185125,61.69423861414152L203.5378125,66.81925171798441L203.55018750000002,56.565948208486894L203.680125,53.33969401855223L204.02662500000002,24.920761124723885L204.23081249999998,77.82997727300747L204.472125,95.84001010123505L204.82481249999998,96.0143188516117L205.44975,53.15690566300253L205.56731249999999,65.79530766248048L206.43975,26.907265364166125L206.99043749999998,59.07934284868003L207.0399375,54.466735743654716L207.38025000000002,1.1371565432387234L207.4978125,33.11259731596933L207.813375,58.95185357419389L207.999,75.47061907820546L208.0794375,60.33125385506536L209.0941875,54.739447284123806L209.1065625,45.37977182887883L209.4778125,89.48379182128842L209.65106250000002,36.04360925262414L210.2079375,73.20705161872651L210.2203125,100.60136272360769L210.2821875,104.51461367040805L210.73387499999998,45.30927672046382L211.1175,17.599775417196508L211.16081250000002,-18.793662181170166L211.3711875,21.587313199835204L211.98375,23.55199261712862L212.29931249999998,73.97057328318259L212.540625,60.18513095912159L212.565375,95.92111166558755L212.8809375,96.38867374326045L213.048,105.72029652157578L213.2398125,104.55412758087608L213.27075,93.31661890682872L213.4130625,105.91634913645564L213.60487500000002,110.62733314968573L213.877125,87.08127575956242L214.21743750000002,111.03745301391157L214.3164375,76.27484909907264L214.533,26.266115495057615L214.570125,-16.17515314788123L214.644375,4.582450282749532L214.79906250000002,-9.0972577070135L215.1703125,4.752089296881102L215.2321875,59.20624567991718L215.27550000000002,85.07977722362413L215.3806875,101.96079463050206L215.523,92.3705264656868L215.6281875,108.32645640666045L215.7890625,92.53161051925873L216.0365625,118.59852220718179L216.33975,59.61188791575499L216.4078125,72.60711750735324L216.5625,84.36810113519121L216.909,92.95342116790825L216.98325,114.85279968641885L217.06368750000001,78.92351745642834L217.8061875,85.97716924117573L218.07225,102.47714336971383L218.14031250000002,124.27310451915825L218.1526875,137.40489473939516L218.17743750000002,123.46293320775376L218.4249375,122.28341222834794L218.62912500000002,87.85228805680399L218.728125,84.92160698258473L218.8456875,86.34160561372991L219.186,95.89699113494251L219.84806250000003,94.05519473151024L220.3183125,108.33881487724575L220.36781249999999,114.06318285153743L220.374,102.97915014795325L220.8380625,73.24791329128661L220.9185,107.43257013524692L221.005125,121.84466946581077L221.21550000000002,126.32858121787949L221.83425,129.72131498214867L222.0879375,136.85955414925377L222.25500000000002,119.27866608473276L222.40968750000002,134.89715827754208L222.465375,86.49428434640805L222.5025,53.37306055230284L222.55200000000002,75.48270663024417L222.59531249999998,75.35724991322417L222.7190625,100.11289830780541L222.79331249999998,82.89466318474123L222.97275,89.4605911265964L223.48631250000003,69.46412687368121L224.06175000000002,65.89498593847112L224.26593749999998,98.37602013433073L224.69906250000003,117.13391024937685L224.841375,95.48760854167018L225.0826875,89.93482900954649L225.29306250000002,96.61805464325765L225.65812499999998,51.649531297078255L225.7138125,49.873880269640985L225.95512499999998,33.50207445294519L226.276875,29.418966820662376L226.512,54.62540921141216L226.648125,95.25985587101883L226.83993750000002,79.33630704678122L227.0626875,74.12209393380299L227.0874375,58.90328291057476L227.13693750000002,44.58992670893032L227.52675,22.349163115736L227.5453125,43.599767811725236L228.06506249999998,85.61026330419165L228.19500000000002,80.7716518689858L228.26925,80.28124552784365L228.33731250000002,83.87473340641262L228.4363125,113.27681267565966L228.52293749999998,38.273727223315724L228.65287500000002,-1.2664535540110542L230.2306875,-30.4903816881408L230.5153125,6.11768409117286L231.04125,55.74756700220242L231.4310625,14.69275475515446L232.08075,69.66169600590183L232.167375,42.03649635376999L232.464375,72.89420957244914L232.7551875,101.78811596082139L233.0521875,48.38901854423575L233.22543750000003,13.888248372482607L233.5595625,50.7713705422922L233.96175000000002,43.66178367390894L233.9679375,55.165263563720366L234.04218749999998,60.09244221587658L234.048375,59.4670337756853L234.5248125,62.4189576292265L234.5619375,61.38271729375293L234.92081249999998,39.86233298436028L235.0445625,-1.0140394469784593L235.2054375,21.062661207873415L235.422,29.662861197685483L236.003625,50.19657049268203L236.27587499999998,14.6452224546058L236.52337500000002,3.952355421387151L236.8018125,-57.735158593176045L236.85750000000002,-71.44535205287826L237.303,11.078798840504364L237.562875,41.01261922243922L237.6556875,68.24223685099892L237.686625,95.15864543339141L237.7670625,78.22068829191045L237.859875,63.833676708056416L238.379625,25.958867790886107L239.46862499999997,-6.78198912466269L239.778,-48.14829308407839L239.9821875,24.801503190890948L240.09975,59.653973699507716L240.2668125,31.281791468201632L240.44625,79.92492259844455L240.4771875,68.53051991763301L240.4895625,-3.2754789429749147L240.6133125,14.803324608931266L241.3125,8.52467142398915L241.3805625,20.07537735733846L241.448625,-8.296666238108546L241.857,53.32652936494397L241.86937500000002,90.55286128113299L241.98075,47.64972268336789L242.19731249999998,70.14104890819654L242.537625,79.66568352697053L243.02643750000001,61.812305671678544L243.057375,94.84940716308746L243.57093749999999,83.46758804251189L244.1896875,31.759360770758605L244.25775000000002,19.266871793494587L244.40625,-13.508407369002146L245.45193749999999,-52.40640533573373L245.903625,23.958518300015097L246.33675,72.38453117642305L246.60899999999998,24.502216737470054L246.70181250000002,-36.82136400163116L247.17825000000002,-33.24428302938479L247.190625,12.205803789527792L247.20299999999997,-11.669568950038235L247.302,31.642413221537428L247.5,28.58111674472054" style="fill: none;" fill="none"></path></g></g></g></g><g opacity="0.2"><g><g><g><path stroke="rgb(255, 112, 67)" stroke-width="2px" d="M31.0550625,156.55925425998868L31.3273125,154.88529840409757L31.605749999999997,105.9841971874237L32.007937500000004,95.15699960589409L32.4534375,124.31318317651748L32.54625,151.01130522340537L32.6885625,151.1882185444236L33.4310625,77.50395880937576L33.5115,156.43296884670855L33.647625,109.81189291477203L33.820875,86.5414875626564L34.0993125,75.33328120708465L34.241625,58.88126020431519L34.2725625,56.752329039573674L34.3839375,138.84141028225423L34.631437500000004,155.17247989699246L34.885125,155.27040289454163L34.92225,89.87288387417793L35.0150625,140.00183622837068L35.6709375,95.8280390381813L35.9184375,104.40955891013145L36.302062500000005,124.9051079928875L36.4258125,107.01717095375061L37.224,106.49616338610649L37.29206249999999,79.83115653991699L37.360125000000004,94.85782735347748L37.818000000000005,83.90262107849121L37.904624999999996,101.30758337974548L37.947937499999995,130.96999657452108L38.0716875,114.3543315410614L38.1459375,116.2959048628807L38.2201875,76.6424334526062L38.2696875,105.48014878034591L38.480062499999995,76.91123219132423L38.6904375,128.27120860219003L38.7028125,129.98355368077756L38.783249999999995,121.29892053008079L38.808,82.70881222486496L39.457687500000006,75.45764486789703L39.711375000000004,129.34539339244367L39.9650625,71.44494395256042L40.1878125,120.03153054714203L40.2868125,111.96942518949508L40.305375,123.71355156898498L40.52193749999999,116.90134425759315L40.5405,66.53321235179901L40.627125,68.98750619888305L41.01075,120.82971884608268L41.060249999999996,116.5439358830452L41.276812500000005,126.90365670919418L41.4748125,82.95405276417732L41.5305,115.86684337556362L42.372,123.87708482444286L42.693749999999994,123.81697343587875L42.755625,60.18975834846497L42.9474375,51.297250199317936L43.07118749999999,126.68954137265682L43.077374999999996,121.27645162045955L43.8075,132.17886294722558L44.611875,143.07659270167352L45.2925,147.1807886838913L45.54,111.51565818786621L46.0164375,107.89305489063263L46.047375,110.90834088921547L46.1278125,97.79092867970466L46.1773125,152.54240619689227L46.195875,151.83722755238415L46.431,153.6207503333688L46.888875,150.4056666970253L46.8950625,151.806215762347L47.025,114.20522807836532L47.24775,153.17982996180655L47.29725,107.1077745437622L47.5509375,145.84016572237016L47.606625,106.21671967506408L47.6994375,117.82308914065361L47.755125,142.4781901717186L47.977875,120.73786507844925L47.9840625,124.2762554615736L48.0706875,118.67139531970024L48.175875,154.43629111088813L48.342937500000005,122.27515100240707L48.540937500000005,118.29947011470794L48.646125000000005,141.3567821636796L49.339124999999996,122.11723035871982L50.01975,135.35028399825097L50.0259375,125.60429488420486L50.1496875,153.01834143251182L50.155875,150.5833950072527L50.403375,141.1536348938942L50.737500000000004,152.9255229972303L50.848875,145.00296080410482L50.997375,144.9095087081194L51.145875000000004,141.84428022354842L51.1644375,144.5226974219084L51.7089375,150.5583901360631L52.005937499999995,156.70479544177653L52.494749999999996,156.83005552478136L52.5999375,151.76010689064861L52.7608125,156.43638639450074L53.0083125,154.5823040764779L53.218687499999994,156.9605637492612L53.3176875,155.64739573672415L53.5528125,152.1351812772453L53.596124999999994,156.88853264898063L53.6394375,156.15784108377994L53.658,155.84812902957202L53.7755625,149.14392229467632L53.9116875,155.7630365073681L54.3448125,154.83279885649682L54.7531875,153.07595510333778L55.16775,156.3581144616008L55.279125,155.09737066291274L55.538999999999994,153.64075053781272L55.767937499999995,140.0868746817112L55.836000000000006,154.59861375130714L56.213437500000005,155.50003236830236L56.368125000000006,152.60899266153575L56.442375000000006,153.56133392751218L56.4609375,153.93398444652559L56.59706250000001,153.07278350293637L56.813625,156.27592451423408L56.8816875,156.70215958468617L57.09825,155.80736176595093L57.283874999999995,154.36057525053621L57.661312499999994,146.7808571264148L57.7231875,153.9610234938562L58.5028125,155.74805580563844L59.004,152.60488870292903L59.028749999999995,152.65045029222966L59.1834375,156.05374104827644L59.4804375,154.4729854065925L59.709375,150.47895044758917L59.9630625,144.8631202608347L60.0125625,147.7037282243371L60.06825,156.77915562428535L60.210562499999995,157.12963263429702L60.501375,155.5552854716778L60.8416875,149.05967509299518L60.866437499999996,144.13584921061994L60.9159375,152.1645367138088L61.1510625,154.568960935995L61.3243125,151.0921012490988L62.370000000000005,153.76408359333874L62.4256875,152.97871884629132L62.4380625,156.26692963130773L62.6979375,149.33762663528324L62.7226875,149.96368736699225L62.84025,139.77948396205903L63.03825,152.14890751540662L63.1186875,154.8436620824039L63.273375,152.39134570509196L63.353812500000004,153.85759371444584L63.446625,156.4064375191927L63.5023125,152.17877330929042L63.7065,151.1613093942404L63.855,151.18723607361318L63.8735625,153.6051719069481L64.1210625,156.72336677759887L64.37474999999999,156.61178282015027L64.634625,152.97483446002008L64.6903125,157.54624295253308L65.030625,155.76843020617963L66.00825,151.9879253871739L66.3980625,153.93565629534424L66.57131249999999,156.01967337839307L67.02918749999999,143.23053598701955L67.2395625,156.79192741513253L67.32000000000001,154.42899115495385L67.7964375,134.34403607547284L67.951125,154.3812265891582L68.05012500000001,151.6853626213968L68.124375,155.95586420707406L68.396625,153.85775855854155L68.7555,140.6402760922909L68.9225625,155.03801821656526L68.9473125,155.43663069158794L69.460875,148.59619943350555L69.57225,149.02896068170668L69.795,150.75154521614314L70.12293749999999,153.42526897341014L70.1353125,154.53053676635028L70.2838125,148.80190508365632L70.29,149.47231415212156L70.3209375,156.65967431589962L70.35187499999999,156.52287053056062L71.33568749999999,155.94193718880416L71.478,152.9253350749612L71.5584375,138.34858841747047L71.589375,142.59406502097846L71.68837500000001,134.07725502848626L71.7193125,152.6568119555712L71.77499999999999,153.18957092911006L71.874,154.38747582882644L72.23287499999999,150.2987329915166L72.58556250000001,147.09294392466546L72.7093125,154.90791633278133L73.0310625,154.9374794729054L73.2785625,151.55372537970544L73.3280625,148.4486962772906L73.73643750000001,152.55454333797098L73.755,150.94032731205226L73.8230625,147.15257924348117L74.2005,140.6174748569727L74.2314375,141.44467703551055L74.2438125,145.8436933860183L74.5903125,152.03036878556014L74.980125,150.16631702631713L74.9986875,143.4372254267335L75.0358125,148.64370618313552L75.27093749999999,149.23965451419355L75.537,128.63045268058778L75.821625,139.33422687202693L75.95156250000001,147.5116663902998L76.16193750000001,149.03215931653978L76.3475625,150.811382304132L76.440375,140.0977913171053L76.527,146.6050792515278L76.9539375,150.9669430397451L77.1271875,148.18318980485202L77.1519375,148.9921905577183L77.16431250000001,145.55658640265466L77.2385625,147.08695942461492L77.3870625,151.022055695951L77.4613125,146.6948797211051L77.5479375,155.072201936692L77.616,152.21428995877505L77.925375,144.32049306035043L77.9934375,152.57898510172964L78.2038125,150.37066172361375L78.2409375,151.0624807432294L78.3399375,151.67466555833818L78.75450000000001,151.49602071493865L78.7730625,147.32379159629346L78.9339375,149.90268384218217L79.1690625,143.66810870468618L79.17524999999999,147.38620684593917L79.336125,148.4683938279748L79.5465,145.90576444119216L79.794,150.65258600860835L80.35706250000001,141.09900424182416L80.7283125,140.84406295716764L81.19856250000001,145.04710077792407L81.3346875,143.07729427814485L81.7801875,147.96985385119916L82.157625,148.7899031147361L82.24425000000001,145.17934398651124L82.2751875,146.38585242927076L82.776375,142.0441108301282L82.900125,141.5580752670765L83.48174999999999,153.0639702782035L83.8344375,136.01078395843507L83.8715625,148.39277918189765L84.2675625,147.68151779025794L84.52125000000001,142.9438641920686L84.54599999999999,145.4551795899868L84.7378125,143.91785805970432L84.92343749999999,141.51927887946368L85.0966875,147.69785977452995L85.2451875,143.73465824425222L85.2575625,147.34189675301315L85.53599999999999,143.05025720894338L85.597875,140.84779898375274L85.8268125,144.4729487925768L85.870125,143.51408101916314L86.117625,149.60215327441693L86.538375,136.08261905908586L86.66831250000001,148.6671720698476L86.835375,144.12725885510446L86.9900625,150.20755970031024L87.379875,148.3536465123296L87.57168750000001,149.1544327542186L87.9429375,140.59935783147813L88.19043749999999,146.85966183543206L88.43175,149.24123569875957L88.506,126.26563884615898L88.5616875,150.95658159926535L88.6545,137.22460488528014L88.765875,149.52274985164405L88.8525,150.85424308776857L88.93293750000001,146.1583979085088L88.963875,143.08698711097242L89.02574999999999,139.79547252058984L89.4526875,145.1697724789381L89.96006249999999,146.1414980918169L90.01575,145.12553623616697L90.1333125,116.16096216738224L90.783,139.37337141036988L90.7891875,138.36251312792302L91.0366875,139.04782410264016L91.290375,146.79638675898315L91.29656250000001,141.0954739406705L91.4079375,139.73180577456952L91.661625,133.65815803706647L91.810125,116.6844753652811L91.8905625,127.24886134564876L91.99575,110.44821222424507L92.1628125,115.10955751240253L92.30512499999999,130.32052138745786L92.4969375,140.3298983976245L92.503125,143.3001450330019L92.50931250000001,139.6447127044201L92.57118750000001,146.34443304240705L92.65162500000001,140.09874873161317L92.68875,138.07045818418266L92.775375,151.7208608083427L93.20849999999999,137.00909035205842L93.3755625,126.10148841440677L93.567375,150.72135632783176L93.6725625,140.90639644414188L94.0005,137.47362628877164L94.1056875,137.61063019484283L94.149,129.3821470320225L94.483125,145.60016326904298L94.5511875,131.40715256631375L94.9348125,128.7616342931986L94.95337500000001,125.74985881447792L94.95956249999999,135.18037325441838L95.26275,149.18254988193513L95.572125,149.41207550391556L95.60925,144.50421773940326L95.6154375,147.198432277143L95.6525625,147.65326483100654L95.918625,141.7362796470523L96.02381249999999,139.65500029474498L96.289875,137.47848984897138L96.5064375,139.0800689265132L96.735375,139.9961022913456L96.79724999999999,129.28394742608072L96.809625,135.51849091351033L97.19325,135.75396740734578L97.25512499999999,141.27723895311357L97.2984375,142.5692777439952L97.58925,139.5666504532099L98.0285625,143.76468360722066L99.1485,141.27376008331777L99.1794375,140.98573129177095L99.2289375,139.2207851216197L99.34031250000001,133.41239263415338L99.58781250000001,134.77089788317681L99.73631250000001,139.16517727375032L99.7734375,136.63924877643586L100.05806249999999,144.57726345509292L100.3179375,136.87607039809228L100.35506249999999,138.41900190263988L100.4045625,146.42113697826863L101.05425,134.6276127576828L101.4440625,138.97616571485997L101.536875,146.17082979083062L101.74725,127.66737808585167L101.858625,123.005594971776L102.5825625,141.41594009399415L102.78675,135.29979422986509L103.31268750000001,125.13344739675522L103.5601875,136.29819293618203L103.6839375,125.44776948094368L103.739625,144.63299394696952L103.8695625,118.31813837885856L104.07374999999999,137.61049172580243L104.247,145.39378901124002L104.37075,129.64534107148648L104.4264375,134.72723397910596L104.91525,127.51887069940567L105.0204375,131.1062580227852L105.36075000000001,129.27773346304895L105.6639375,126.2405297935009L106.27650000000001,130.03803927004338L106.30125,125.86925605237484L106.64775,119.11656405329704L106.8705,137.37621925324203L107.0623125,141.03872405290605L107.0746875,129.43229128718377L107.1489375,136.87477274537088L107.3840625,141.81184154301883L107.6315625,141.9475135087967L107.6563125,137.36651455163957L107.6686875,143.01045461297036L107.79862499999999,99.11227147579193L107.8048125,100.43449519872665L107.89762499999999,98.25576792955398L107.971875,112.85508372187614L108.1389375,147.04729397892953L108.1513125,142.39117622673513L108.16368750000001,148.92448579072953L108.62156250000001,143.0953928411007L108.912375,138.95181098878385L109.2031875,123.24034351408481L109.5744375,130.25517718791963L110.088,98.82786925435066L110.768625,121.31253797113895L110.793375,130.47153967916967L111.0346875,68.68535356521606L111.2079375,101.02433111071586L111.2326875,115.00167034864425L111.36262500000001,119.63747667074203L111.5296875,116.40708890855312L111.67818749999999,85.49680854678154L111.9504375,95.00362338423729L112.5444375,122.25985347032547L112.99612499999999,83.00998898148536L113.26218750000001,79.11830736994743L113.540625,127.45825290977955L113.7819375,134.784728962183L113.9675625,126.2441273510456L114.1965,123.95657924115658L114.6110625,99.4047180891037L114.78431250000001,77.2196673631668L114.83381250000001,96.36345266103744L115.236,120.11224876642227L115.3535625,116.08570094704628L115.3845,112.07628636360168L116.3435625,131.4333034336567L116.63437499999999,133.6221086114645L116.8880625,122.99056382775306L117.04893750000001,100.47053934931755L117.38924999999999,111.82187785506248L117.44493750000001,119.0329313904047L117.6058125,125.49282598793506L117.8533125,125.0260798215866L118.66387499999999,107.27685974836349L118.7319375,116.16674094200134L118.8433125,68.55647449493408L119.1650625,103.92073945999145L119.20837499999999,138.84381700605155L119.7590625,133.3052307844162L119.80237500000001,146.1541080057621L120.0375,117.31477852463722L120.074625,140.56560567319394L120.16125000000001,144.20578266978265L120.2169375,141.420054602623L120.87899999999999,148.4245894767344L121.138875,123.15568749904632L121.4235,141.50227883756162L121.559625,146.55897301733495L122.178375,131.84249131679536L122.63625,131.74907878339292L122.83425000000001,137.29086298048497L122.9146875,127.42536585330963L122.9394375,124.10138356983661L123.267375,142.0992927208543L123.29212500000001,144.45751938521863L123.38493749999999,125.32474303543567L123.87375,137.96645079106094L124.15837499999999,142.19862513542176L124.1645625,141.58166775405408L124.1893125,142.28135049641133L124.43681249999999,123.52447407245636L124.5234375,136.1221130669117L124.6100625,110.64864154458046L124.702875,140.55996141135694L124.8451875,132.2101068377495L124.900875,107.35087342858314L124.9875,137.94773505181075L125.8228125,134.1005837649107L125.9094375,126.46410586237907L125.9960625,135.03413676023484L126.05175,112.4204913854599L126.34875,107.41420521140098L126.484875,123.26548157930374L126.5776875,126.94439298212528L126.6148125,117.84080790281295L126.78806250000001,114.16572879552841L127.5305625,133.11683903932573L127.70381250000001,133.7403664469719L127.8894375,144.1869772553444L128.1616875,138.82228836715223L128.22356249999999,114.72797112464905L128.390625,127.27158873081207L128.4586875,114.41589619517326L128.66287499999999,141.16180324852468L128.8299375,133.58557124733926L128.898,144.2272677898407L129.157875,122.91972042918205L129.4610625,138.57432592213155L130.1416875,104.63841526508331L130.4139375,137.24513522833587L130.667625,126.96564863920212L131.08837499999998,127.63857652544975L131.0945625,114.90964250564575L131.42249999999999,134.2370192885399L131.434875,122.60280303955078L131.47199999999998,134.7103565812111L131.880375,145.67432596832515L132.0845625,115.86441950798034L132.3691875,112.21305685043335L132.48675,114.6226133286953L132.58575,119.71073866188526L133.687125,120.39671428799629L134.46675,135.96270223259927L134.4915,142.93183057308198L135.1040625,98.44810538291931L135.3020625,113.33593790531158L135.3886875,116.40135233402252L135.40725,111.44361208677292L135.55575000000002,99.57284324169159L135.80325,121.42105022370815L135.828,129.30734473764898L136.1435625,84.41064684391021L136.2301875,95.85021518468857L136.4653125,133.57387654781343L136.6014375,126.63704710006714L136.8736875,132.8264760553837L136.9108125,126.08034880757332L136.917,127.20296083688736L137.01600000000002,111.7710689485073L137.09025,140.3050860643387L137.548125,78.67758547067642L137.6780625,84.14376820921898L137.7585,117.63402219414711L137.820375,76.22431497573852L137.869875,80.55726181268692L138.5690625,136.18846215605737L138.798,95.25038840174675L139.31775,109.64554016590118L139.61475,136.02136035561563L140.04168750000002,118.28851919174194L140.047875,108.99718328118324L140.283,143.24976472109557L140.3881875,122.32955482900142L140.443875,119.66893419921398L140.65425000000002,94.90517585277557L140.8831875,117.10432140827179L141.1678125,110.82105528116226L141.53287500000002,122.18218684494495L141.58237499999998,133.52735622525216L141.607125,134.06359802484513L141.91649999999998,124.61837685406208L142.34962499999997,136.90308372974397L142.3681875,139.65907524079086L142.53525,132.83800986707212L142.8631875,122.75501612126827L142.993125,106.96730099916458L143.067375,90.45226471424102L143.116875,98.73006527423858L143.141625,108.43841718435287L143.166375,127.58004764020443L143.5995,108.86348812580108L144.0264375,106.38709725737571L144.3729375,142.64520361572505L144.45337500000002,110.96558003425598L144.824625,136.42886287271978L144.973125,100.2452383518219L145.06593750000002,125.11542268395424L145.2144375,127.69633789658546L145.294875,115.80226141512394L145.35056250000002,91.06272064447403L145.5485625,103.78078286647796L146.1301875,68.05600254535675L146.161125,63.157996523380284L146.24156250000001,33.398135411739354L146.30962499999998,77.0973398566246L147.0088125,107.72248213291168L147.01500000000001,100.70357878804207L147.052125,129.05081039965154L147.0706875,120.6054596632719L147.1449375,96.38788651227951L147.23775,67.01462041139602L147.91218750000002,101.24710010290146L148.4505,46.33783249855042L148.7475,97.26230399608612L149.11875,104.08629040718078L149.180625,110.48512147665024L149.205375,84.13180448412895L149.21156249999999,106.15756570100784L149.799375,88.82034509181976L150.2263125,111.32406978607177L150.48,106.04230670928955L150.838875,119.41611874401569L151.01831249999998,115.57347627282142L151.1049375,136.21509568691255L151.58756250000002,98.8353861451149L151.60612500000002,120.16830630898475L151.88456250000002,112.19934182167053L152.32387500000002,97.59956710338592L152.422875,132.40048726201059L152.5528125,88.77822940349579L152.596125,115.28109032213688L153.709875,99.44938688278198L153.833625,81.10865344405174L154.04399999999998,87.69302775263786L154.143,47.05728070735932L154.2110625,69.42269461154937L154.576125,81.19521637558937L154.5823125,60.731037783622746L154.6070625,88.86393778324127L154.6875,84.52237157821655L154.7803125,39.40794496536255L155.15775,96.38922636508941L155.52281250000001,92.57758777141571L156.61800000000002,111.71438895463943L156.9335625,69.96883760690689L157.1315625,46.457765150070195L157.18725,91.07405136823654L157.3048125,64.53825591802597L157.41618749999998,89.52057643532753L157.744125,104.62042747735977L157.867875,82.65174188017845L158.004,105.21042691469192L158.1463125,102.593989777565L158.2515,72.2591893851757L158.27006250000002,87.63331990242004L158.28862500000002,122.5260489910841L158.5175625,76.17686625123024L158.6908125,95.46597282886505L158.8021875,88.75454460382461L158.8145625,67.92486577033996L159.3961875,73.84123905301094L159.56324999999998,117.21691124439239L159.724125,113.25051437616348L159.8788125,106.41763429641723L159.897375,59.928539800643925L160.55325000000002,124.48428607285022L160.57799999999997,127.24866880774498L160.6708125,84.39623551368713L160.6831875,82.82715182304382L160.71412500000002,120.73403014540672L160.75125,109.86288117170334L160.88118749999998,94.6589488863945L161.1039375,126.25707750320434L161.2029375,89.45058758854866L161.679375,107.27996672987938L161.902125,92.965770560503L161.95162499999998,137.57321454137565L161.98874999999998,139.29935773015023L162.149625,133.42954697012902L162.174375,104.37012820243835L162.322875,81.44833778142929L162.3909375,108.03409813642502L162.53325,82.99099894165992L162.8055,117.2166765064001L163.29431250000002,58.617847251892094L163.47375,104.26588343381881L163.758375,61.12513386011124L164.4823125,99.8570555627346L164.4946875,86.7054349064827L164.550375,92.54773120880127L164.57512499999999,65.28366773128509L164.5813125,52.85585771799088L164.624625,109.2662457704544L164.723625,102.15045629739761L165.0639375,47.489325213432316L165.0763125,53.69022731781006L165.3361875,-2.9127091884613194L165.42281250000002,93.84838541150093L165.90543749999998,62.55319540500641L165.94875,49.81117408275605L166.109625,84.9518682539463L167.4585,91.91595368385315L167.607,35.89056758880616L167.77406249999999,10.382829594612126L167.9101875,85.03637920618057L167.9720625,-10.380721700191513L168.07106249999998,42.98290436267853L168.485625,42.30044453144074L168.757875,26.857501494884495L168.832125,108.44237344264984L168.8754375,130.05336845219136L168.96824999999998,58.14867721796036L169.40756249999998,58.01514558792115L169.4199375,-9.439585876464859L169.648875,80.65179528594017L169.945875,50.583309102058415L170.2490625,71.2644330739975L170.3604375,111.88269873261451L170.577,82.46705846786499L170.8059375,108.25430874824524L171.05962499999998,-65.5313949108124L171.41231249999998,39.84376637935639L171.7464375,72.13911430835724L171.901125,102.03218527436256L172.767375,52.01203529834748L172.9344375,83.18269811868667L173.151,59.67758642435074L173.584125,120.89479138255119L173.61506250000002,95.54688622355461L173.69549999999998,95.33570115566253L173.83781249999998,100.08497824072838L173.91206250000002,-13.458258104324356L174.8773125,117.9958141028881L175.1000625,109.38356201648712L175.2361875,121.31241664588451L175.29806250000001,108.03007330298423L175.7683125,95.91979258060455L175.7745,114.98818214535713L176.3499375,83.12450419664383L176.900625,107.44295929670334L176.913,109.67903121113777L177.247125,77.15545992851257L177.2656875,66.99472306966781L177.6988125,104.13689358830452L178.311375,131.4133137792349L179.14668749999998,118.26117089688778L179.6045625,98.98028542399406L179.87681250000003,114.59333701729774L179.9139375,106.27104173898697L180.192375,97.62750356197357L180.8049375,29.641335833072667L181.6464375,-21.793429684638994L181.7825625,-0.25885112285615586L181.863,103.57504161000251L182.13525,93.09213872551918L182.34562499999998,51.62896399497986L182.370375,3.602414774894718L182.4879375,0.5762253284454385L183.19331250000002,43.12448565959931L183.37893749999998,-47.48461146354677L183.7996875,49.86997990608216L183.8863125,-82.30500168800356L184.13381249999998,88.00072442293167L184.5050625,125.08209252655506L184.56693750000002,-15.419528317451492L184.635,19.766821074485783L184.65975,4.086586940288548L184.85775,-42.34396548271181L184.9010625,13.00234733819962L185.031,34.16338126659394L185.2475625,70.60576354265213L185.3713125,147.5677278891206L185.38368749999998,4.654325830936436L185.488875,31.02045582532883L185.5755,71.11836801767349L185.95912500000003,-12.79596991539003L185.9715,13.689860630035405L186.3241875,60.17937712669373L186.78825,38.42567460536957L187.17187500000003,91.9993938088417L188.09381249999998,47.26421939134598L188.37843750000002,142.85140379816295L188.52075000000002,63.90383033752442L189.41793750000002,36.06154124736786L189.646875,61.71297054290772L189.721125,97.0452267408371L189.882,13.143517184257512L189.981,100.41051499843597L189.99337500000001,110.91010274291038L190.042875,95.67190398573875L190.05524999999997,77.40130709409713L190.315125,19.103541183471684L190.66781250000003,58.456727313995366L190.760625,50.68735342025757L190.76681250000001,83.61243216991424L191.09475,111.09924881458282L191.24325000000002,-6.358705115318314L191.305125,82.16840844154358L191.379375,14.947697567939763L191.7568125,79.73529903888702L192.1651875,111.09895341396332L192.22087499999998,-2.9707448601722874L192.418875,46.40054183006287L192.47456250000002,29.39900182485581L192.52406249999999,78.82492180466652L192.5735625,59.2620316028595L192.765375,54.38785808086396L192.77775,51.81582598686219L193.446,60.43221895694733L193.458375,59.628465521335606L193.61306249999998,33.537575054168705L193.6935,101.82531516551971L193.70587500000002,94.3046369433403L193.7615625,96.79064415693283L194.151375,22.782112348079686L194.42362500000002,64.02372078895569L194.4545625,65.6544904589653L194.85675,62.04544394016266L195.22181250000003,142.66291314661504L195.45075,21.209526050090794L195.4816875,70.15568904876709L195.512625,-17.863694143295305L195.7168125,46.89274256229401L195.81581250000002,133.98948939442636L196.032375,41.45348875522614L196.09425000000002,68.94584416151046L196.106625,89.29321818351745L196.13137500000002,100.47620998620987L196.156125,-2.6654166698455968L196.47787499999998,58.5284569144249L196.8553125,41.83539955615998L196.8615,60.335622954368596L196.86768750000002,60.87470798492432L197.4740625,86.23285721540451L197.8205625,28.144593644142155L198.0928125,8.29276471138001L198.185625,120.43098867237568L198.3031875,12.170425343513493L198.37125,131.0136314660311L198.6496875,25.40511159896851L198.76725,96.42805044651031L198.87243750000002,103.82093097567558L199.91193750000002,82.7652284681797L200.277,17.387358534336094L200.7410625,105.5790235877037L200.759625,71.61134417653084L200.8153125,125.21843046247959L201.229875,153.14829660505058L201.32887499999998,-38.15529019832613L201.36599999999999,89.1874225616455L201.87956250000002,20.288076567649846L201.9043125,47.69282459020615L202.03425000000001,136.12771249115468L202.36837500000001,55.40652601718903L202.8200625,63.83293418884278L202.9066875,122.27529870271682L203.11087500000002,89.88017921447754L203.160375,69.06616716384887L203.185125,31.679062056541447L203.5378125,74.50677137374878L203.55018750000002,41.185992944240574L203.680125,48.50031273365021L204.02662500000002,-17.707638216018694L204.23081249999998,157.19380149543287L204.472125,122.85505934357643L204.82481249999998,96.27578197717666L205.44975,-11.12921411991121L205.56731249999999,84.75291066169738L206.43975,-31.424798083305376L206.99043749999998,107.3374590754509L207.0399375,47.547825086116795L207.38025000000002,-78.85721225738527L207.4978125,81.07575847506523L207.813375,97.71073796153068L207.999,100.24876733422279L208.0794375,37.62220602035523L209.0941875,46.35173742771149L209.1065625,31.340258646011357L209.4778125,155.6398218099028L209.65106250000002,-44.11666460037233L210.2079375,128.95221516788007L210.2203125,141.69282938092948L210.2821875,110.3844900906086L210.73387499999998,-43.49872870445253L211.16081250000002,-73.38381857872011L211.3711875,82.15877627134323L211.98375,26.4990117430687L212.29931249999998,149.59844428226353L212.540625,39.506967473030095L212.565375,149.5250827252865L212.8809375,97.09001685976982L213.048,119.71773068904876L213.2398125,102.8048741698265L213.27075,76.46035589575767L213.4130625,124.815944480896L213.60487500000002,117.69380916953087L213.877125,51.762189674377446L214.21743750000002,146.97171889543534L214.3164375,24.130943226814274L214.533,-48.74698491096498L214.570125,-79.83705611228945L214.644375,35.71885542869568L214.79906250000002,-29.616819691658037L215.1703125,25.526109802722935L215.2321875,140.8874802544713L215.27550000000002,123.89007453918457L215.3806875,127.28232074081897L215.523,77.9851242184639L215.6281875,132.26035131812097L215.7890625,68.83934168815613L216.0365625,157.69888973906637L216.33975,-28.86806352138521L216.4078125,92.09996189475059L216.5625,102.00957657694816L216.909,105.83140121698379L216.98325,147.70186746418477L217.06368750000001,25.02959411144257L217.8061875,96.55764691829681L218.07225,127.22710456252098L218.14031250000002,156.9670462433249L218.1526875,157.10258006975056L218.17743750000002,102.54999091029167L218.4249375,120.5141307592392L218.62912500000002,36.20560179948807L218.728125,80.52558537125587L218.8456875,88.47160356044769L219.186,110.2300694167614L219.84806250000003,91.29250012636184L220.3183125,129.76424509584905L220.36781249999999,122.64973481297493L220.374,86.35310109257698L220.8380625,28.651058006286625L220.9185,158.7095554011874L221.005125,143.46281846165658L221.21550000000002,133.05444884598256L221.83425,134.81041562855245L222.0879375,147.56691289991142L222.25500000000002,92.90733398795128L222.40968750000002,158.32489656675608L222.465375,13.889973449707036L222.5025,3.6912248611450234L222.55200000000002,108.64717574715614L222.59531249999998,75.16906483769417L222.7190625,137.2463708996773L222.79331249999998,57.06731050014496L222.97275,99.30948303937912L223.48631250000003,39.469430494308476L224.06175000000002,60.54127453565598L224.26593749999998,147.09757142812015L224.69906250000003,145.27074542194606L224.841375,63.01815598011017L225.0826875,81.60565971136093L225.29306250000002,106.64289309382438L225.65812499999998,-15.803253722190872L225.7138125,47.21040372848511L225.95512499999998,8.944365727901463L226.276875,23.294305372238163L226.512,92.43507279753685L226.648125,156.21152586042882L226.83993750000002,55.45098381042481L227.0626875,66.30077426433563L227.0874375,36.075066375732426L227.13693750000002,23.119892406463627L227.52675,-11.011982274055496L227.5453125,75.47567485570907L228.06506249999998,148.62600654289128L228.19500000000002,73.51373471617698L228.26925,79.54563601613044L228.33731250000002,89.26496522426605L228.4363125,157.37993157953025L228.52293749999998,-74.23090095520021L230.02650000000003,-55.12329168319704L230.2306875,18.060523796081547L230.5153125,61.029782760143284L231.04125,130.19239136874677L231.4310625,-46.8894636154175L232.08075,152.11510788202287L232.167375,0.5986968755722085L232.464375,119.18077940046787L232.7551875,145.1289755433798L233.0521875,-31.709627580642717L233.22543750000003,-37.86290688514711L233.5595625,106.0960537970066L233.96175000000002,32.99740337133408L233.9679375,72.4204833984375L234.04218749999998,67.48321019411087L234.048375,58.52892111539841L234.5248125,66.84684340953827L234.5619375,59.82835679054261L234.92081249999998,7.5817565202713055L235.0445625,-62.32859809398653L235.2054375,54.17771219015122L235.422,42.56316118240357L236.003625,80.99713443517685L236.27587499999998,-38.68179960250856L236.85750000000002,-92.01064224243166L237.303,134.86502518057824L237.562875,85.91334979534149L237.6556875,109.0866632938385L237.686625,135.53325830698014L237.7670625,52.81375257968903L237.859875,42.253159332275395L238.379625,-30.853345584869402L239.778,-54.17830510139467L239.9821875,134.22619760334493L240.09975,111.93267946243286L240.2668125,-11.276481878757492L240.44625,152.88961929380895L240.4771875,51.438915896415715L240.4895625,-110.98447723388674L240.6133125,41.92152993679047L241.3125,-0.893308353424088L241.3805625,37.40143625736237L241.448625,-50.85473163127901L241.857,145.76132276952268L241.86937500000002,146.3923591554165L241.98075,-16.70498521327974L242.19731249999998,103.87803824543953L242.537625,93.95263545513153L243.02643750000001,35.032238888740544L243.057375,144.40505940020086L243.57093749999999,66.39485936164856L244.1896875,-45.802980136871355L244.25775000000002,0.5281383275985757L244.40625,-62.67132611274721L245.45193749999999,-72.60932035446169L245.903625,138.50590375363828L246.33675,145.023550491035L246.60899999999998,-47.32125492095949L247.1225625,-171.3875528097153L247.17825000000002,57.8295284986496L247.190625,80.38093401789665L247.20299999999997,-47.482628059387224L247.302,96.6103864789009L247.5,23.989172029495244" style="fill: none;" fill="none"></path></g></g></g></g></g></g><g transform="translate(51, 177)" clip-path="url(#clip_1)"><clipPath id="clip_1"><rect width="278" height="23"></rect></clipPath><g><g><line x1="0" y1="0" x2="0" y2="5" style="visibility: inherit;" fill="rgb(0, 0, 0)" stroke="rgb(204, 204, 204)" stroke-width="1px"></line><line x1="30.9375" y1="0" x2="30.9375" y2="5" style="visibility: inherit;" fill="rgb(0, 0, 0)" stroke="rgb(204, 204, 204)" stroke-width="1px"></line><line x1="61.875" y1="0" x2="61.875" y2="5" style="visibility: inherit;" fill="rgb(0, 0, 0)" stroke="rgb(204, 204, 204)" stroke-width="1px"></line><line x1="92.8125" y1="0" x2="92.8125" y2="5" style="visibility: inherit;" fill="rgb(0, 0, 0)" stroke="rgb(204, 204, 204)" stroke-width="1px"></line><line x1="123.75" y1="0" x2="123.75" y2="5" style="visibility: inherit;" fill="rgb(0, 0, 0)" stroke="rgb(204, 204, 204)" stroke-width="1px"></line><line x1="154.6875" y1="0" x2="154.6875" y2="5" style="visibility: inherit;" fill="rgb(0, 0, 0)" stroke="rgb(204, 204, 204)" stroke-width="1px"></line><line x1="185.625" y1="0" x2="185.625" y2="5" style="visibility: inherit;" fill="rgb(0, 0, 0)" stroke="rgb(204, 204, 204)" stroke-width="1px"></line><line x1="216.5625" y1="0" x2="216.5625" y2="5" style="visibility: inherit;" fill="rgb(0, 0, 0)" stroke="rgb(204, 204, 204)" stroke-width="1px"></line><line x1="247.5" y1="0" x2="247.5" y2="5" style="visibility: inherit;" fill="rgb(0, 0, 0)" stroke="rgb(204, 204, 204)" stroke-width="1px"></line><line x1="278.4375" y1="0" x2="278.4375" y2="5" style="visibility: inherit;" fill="rgb(0, 0, 0)" stroke="rgb(204, 204, 204)" stroke-width="1px"></line></g><g transform="translate(0, 8)"><text x="0" y="0" dx="0em" dy="0.95em" style="text-anchor: middle; visibility: hidden; font-family: Roboto, sans-serif; font-size: 12px; font-weight: 200;" fill="rgb(33, 33, 33)" stroke="none" stroke-width="1px">-5k</text><text x="30.9375" y="0" dx="0em" dy="0.95em" style="text-anchor: middle; visibility: inherit; font-family: Roboto, sans-serif; font-size: 12px; font-weight: 200;" fill="rgb(33, 33, 33)" stroke="none" stroke-width="1px">0</text><text x="61.875" y="0" dx="0em" dy="0.95em" style="text-anchor: middle; visibility: inherit; font-family: Roboto, sans-serif; font-size: 12px; font-weight: 200;" fill="rgb(33, 33, 33)" stroke="none" stroke-width="1px">5k</text><text x="92.8125" y="0" dx="0em" dy="0.95em" style="text-anchor: middle; visibility: inherit; font-family: Roboto, sans-serif; font-size: 12px; font-weight: 200;" fill="rgb(33, 33, 33)" stroke="none" stroke-width="1px">10k</text><text x="123.75" y="0" dx="0em" dy="0.95em" style="text-anchor: middle; visibility: inherit; font-family: Roboto, sans-serif; font-size: 12px; font-weight: 200;" fill="rgb(33, 33, 33)" stroke="none" stroke-width="1px">15k</text><text x="154.6875" y="0" dx="0em" dy="0.95em" style="text-anchor: middle; visibility: inherit; font-family: Roboto, sans-serif; font-size: 12px; font-weight: 200;" fill="rgb(33, 33, 33)" stroke="none" stroke-width="1px">20k</text><text x="185.625" y="0" dx="0em" dy="0.95em" style="text-anchor: middle; visibility: inherit; font-family: Roboto, sans-serif; font-size: 12px; font-weight: 200;" fill="rgb(33, 33, 33)" stroke="none" stroke-width="1px">25k</text><text x="216.5625" y="0" dx="0em" dy="0.95em" style="text-anchor: middle; visibility: inherit; font-family: Roboto, sans-serif; font-size: 12px; font-weight: 200;" fill="rgb(33, 33, 33)" stroke="none" stroke-width="1px">30k</text><text x="247.5" y="0" dx="0em" dy="0.95em" style="text-anchor: middle; visibility: inherit; font-family: Roboto, sans-serif; font-size: 12px; font-weight: 200;" fill="rgb(33, 33, 33)" stroke="none" stroke-width="1px">35k</text><text x="278.4375" y="0" dx="0em" dy="0.95em" style="text-anchor: middle; visibility: hidden; font-family: Roboto, sans-serif; font-size: 12px; font-weight: 200;" fill="rgb(33, 33, 33)" stroke="none" stroke-width="1px">40k</text></g><line x1="0" y1="0" x2="278.4375" y2="0" fill="rgb(0, 0, 0)" stroke="rgb(204, 204, 204)" stroke-width="1px"></line></g></g></g></g></svg>