<svg viewBox="0 0 330 200" xmlns="http://www.w3.org/2000/svg"><g><g><g><g><g><line x1="82.734375" y1="177" x2="77.734375" y2="177" style="visibility: inherit;" fill="rgb(0, 0, 0)" stroke="rgb(204, 204, 204)" stroke-width="1px"></line><line x1="82.734375" y1="154.875" x2="77.734375" y2="154.875" style="visibility: inherit;" fill="rgb(0, 0, 0)" stroke="rgb(204, 204, 204)" stroke-width="1px"></line><line x1="82.734375" y1="132.75" x2="77.734375" y2="132.75" style="visibility: inherit;" fill="rgb(0, 0, 0)" stroke="rgb(204, 204, 204)" stroke-width="1px"></line><line x1="82.734375" y1="110.625" x2="77.734375" y2="110.625" style="visibility: inherit;" fill="rgb(0, 0, 0)" stroke="rgb(204, 204, 204)" stroke-width="1px"></line><line x1="82.734375" y1="88.5" x2="77.734375" y2="88.5" style="visibility: inherit;" fill="rgb(0, 0, 0)" stroke="rgb(204, 204, 204)" stroke-width="1px"></line><line x1="82.734375" y1="66.375" x2="77.734375" y2="66.375" style="visibility: inherit;" fill="rgb(0, 0, 0)" stroke="rgb(204, 204, 204)" stroke-width="1px"></line><line x1="82.734375" y1="44.25" x2="77.734375" y2="44.25" style="visibility: inherit;" fill="rgb(0, 0, 0)" stroke="rgb(204, 204, 204)" stroke-width="1px"></line><line x1="82.734375" y1="22.125" x2="77.734375" y2="22.125" style="visibility: inherit;" fill="rgb(0, 0, 0)" stroke="rgb(204, 204, 204)" stroke-width="1px"></line><line x1="82.734375" y1="0" x2="77.734375" y2="0" style="visibility: inherit;" fill="rgb(0, 0, 0)" stroke="rgb(204, 204, 204)" stroke-width="1px"></line></g><g transform="translate(72.734375, 0)"><text x="0" y="177" dx="0em" dy="0.3em" style="text-anchor: end; visibility: hidden; font-family: Roboto, sans-serif; font-size: 12px; font-weight: 200;" fill="rgb(33, 33, 33)" stroke="none" stroke-width="1px">-1.6e+3</text><text x="0" y="154.875" dx="0em" dy="0.3em" style="text-anchor: end; visibility: inherit; font-family: Roboto, sans-serif; font-size: 12px; font-weight: 200;" fill="rgb(33, 33, 33)" stroke="none" stroke-width="1px">-1.4e+3</text><text x="0" y="132.75" dx="0em" dy="0.3em" style="text-anchor: end; visibility: hidden; font-family: Roboto, sans-serif; font-size: 12px; font-weight: 200;" fill="rgb(33, 33, 33)" stroke="none" stroke-width="1px">-1.2e+3</text><text x="0" y="110.625" dx="0em" dy="0.3em" style="text-anchor: end; visibility: inherit; font-family: Roboto, sans-serif; font-size: 12px; font-weight: 200;" fill="rgb(33, 33, 33)" stroke="none" stroke-width="1px">-1e+3</text><text x="0" y="88.5" dx="0em" dy="0.3em" style="text-anchor: end; visibility: hidden; font-family: Roboto, sans-serif; font-size: 12px; font-weight: 200;" fill="rgb(33, 33, 33)" stroke="none" stroke-width="1px">-800</text><text x="0" y="66.375" dx="0em" dy="0.3em" style="text-anchor: end; visibility: inherit; font-family: Roboto, sans-serif; font-size: 12px; font-weight: 200;" fill="rgb(33, 33, 33)" stroke="none" stroke-width="1px">-600</text><text x="0" y="44.25" dx="0em" dy="0.3em" style="text-anchor: end; visibility: hidden; font-family: Roboto, sans-serif; font-size: 12px; font-weight: 200;" fill="rgb(33, 33, 33)" stroke="none" stroke-width="1px">-400</text><text x="0" y="22.125" dx="0em" dy="0.3em" style="text-anchor: end; visibility: inherit; font-family: Roboto, sans-serif; font-size: 12px; font-weight: 200;" fill="rgb(33, 33, 33)" stroke="none" stroke-width="1px">-200</text><text x="0" y="0" dx="0em" dy="0.3em" style="text-anchor: end; visibility: hidden; font-family: Roboto, sans-serif; font-size: 12px; font-weight: 200;" fill="rgb(33, 33, 33)" stroke="none" stroke-width="1px">0</text></g><line x1="82.734375" y1="0" x2="82.734375" y2="177" fill="rgb(0, 0, 0)" stroke="rgb(204, 204, 204)" stroke-width="1px"></line></g></g><g transform="translate(82, 0)" clip-path="url(#clip_0)"><clipPath id="clip_0"><rect width="247" height="177"></rect></clipPath><g><g><g><line x1="0" y1="0" x2="0" y2="177" fill="rgb(0, 0, 0)" stroke="rgb(66, 66, 66)" stroke-width="1px" opacity="0.25"></line><line x1="27.473958333333332" y1="0" x2="27.473958333333332" y2="177" fill="rgb(0, 0, 0)" stroke="rgb(66, 66, 66)" stroke-width="1px" opacity="0.25"></line><line x1="54.947916666666664" y1="0" x2="54.947916666666664" y2="177" fill="rgb(0, 0, 0)" stroke="rgb(66, 66, 66)" stroke-width="1px" opacity="0.25"></line><line x1="82.421875" y1="0" x2="82.421875" y2="177" fill="rgb(0, 0, 0)" stroke="rgb(66, 66, 66)" stroke-width="1px" opacity="0.25"></line><line x1="109.89583333333333" y1="0" x2="109.89583333333333" y2="177" fill="rgb(0, 0, 0)" stroke="rgb(66, 66, 66)" stroke-width="1px" opacity="0.25"></line><line x1="137.36979166666669" y1="0" x2="137.36979166666669" y2="177" fill="rgb(0, 0, 0)" stroke="rgb(66, 66, 66)" stroke-width="1px" opacity="0.25"></line><line x1="164.84375" y1="0" x2="164.84375" y2="177" fill="rgb(0, 0, 0)" stroke="rgb(66, 66, 66)" stroke-width="1px" opacity="0.25"></line><line x1="192.31770833333334" y1="0" x2="192.31770833333334" y2="177" fill="rgb(0, 0, 0)" stroke="rgb(66, 66, 66)" stroke-width="1px" opacity="0.25"></line><line x1="219.79166666666666" y1="0" x2="219.79166666666666" y2="177" fill="rgb(0, 0, 0)" stroke="rgb(66, 66, 66)" stroke-width="1px" opacity="0.25"></line><line x1="247.265625" y1="0" x2="247.265625" y2="177" fill="rgb(0, 0, 0)" stroke="rgb(66, 66, 66)" stroke-width="1px" opacity="0.25"></line></g><g><line x1="0" y1="177" x2="247.265625" y2="177" fill="rgb(0, 0, 0)" stroke="rgb(66, 66, 66)" stroke-width="1px" opacity="0.25"></line><line x1="0" y1="154.875" x2="247.265625" y2="154.875" fill="rgb(0, 0, 0)" stroke="rgb(66, 66, 66)" stroke-width="1px" opacity="0.25"></line><line x1="0" y1="132.75" x2="247.265625" y2="132.75" fill="rgb(0, 0, 0)" stroke="rgb(66, 66, 66)" stroke-width="1px" opacity="0.25"></line><line x1="0" y1="110.625" x2="247.265625" y2="110.625" fill="rgb(0, 0, 0)" stroke="rgb(66, 66, 66)" stroke-width="1px" opacity="0.25"></line><line x1="0" y1="88.5" x2="247.265625" y2="88.5" fill="rgb(0, 0, 0)" stroke="rgb(66, 66, 66)" stroke-width="1px" opacity="0.25"></line><line x1="0" y1="66.375" x2="247.265625" y2="66.375" fill="rgb(0, 0, 0)" stroke="rgb(66, 66, 66)" stroke-width="1px" opacity="0.25"></line><line x1="0" y1="44.25" x2="247.265625" y2="44.25" fill="rgb(0, 0, 0)" stroke="rgb(66, 66, 66)" stroke-width="1px" opacity="0.25"></line><line x1="0" y1="22.125" x2="247.265625" y2="22.125" fill="rgb(0, 0, 0)" stroke="rgb(66, 66, 66)" stroke-width="1px" opacity="0.25"></line><line x1="0" y1="0" x2="247.265625" y2="0" fill="rgb(0, 0, 0)" stroke="rgb(66, 66, 66)" stroke-width="1px" opacity="0.25"></line></g></g></g><g><g><line x1="0" y1="0" x2="247.265625" y2="0" fill="rgb(0, 0, 0)" stroke="rgb(153, 153, 153)" stroke-width="1.5px"></line></g></g><g><g><line x1="27.473958333333332" y1="0" x2="27.473958333333332" y2="177" fill="rgb(0, 0, 0)" stroke="rgb(153, 153, 153)" stroke-width="1.5px"></line></g></g><g><g><g><g><g><path stroke="rgb(255, 112, 67)" stroke-width="2px" d="M27.69375,131.3030973815918L28.243229166666666,137.0341563606262L28.298177083333332,132.4136617808439L28.46302083333333,146.64585579451392L28.517968749999998,139.32942292271017L28.572916666666664,163.3357587254931L28.6828125,148.24939705855297L28.902604166666666,166.19429619569974L28.957552083333333,181.71577720150717L29.671875,162.30803701250122L30.056510416666665,154.44277907402463L30.11145833333333,166.07821042529534L30.166406249999998,152.2484497179738L30.27630208333333,142.35626351943475L30.441145833333334,160.3091610559868L30.770833333333332,151.58904928953473L30.82578125,149.65854393524575L30.880729166666665,143.56015837656184L30.935677083333335,164.31657129447387L31.10052083333333,152.02217851590433L31.15546875,143.9030278648816L31.21041666666667,141.07127273301825L31.320312500000004,144.67870414660933L31.375260416666666,152.53963003632308L31.704947916666665,147.50396228312627L31.979687499999997,148.72276189521426L32.364322916666666,152.66745679826508L32.91380208333334,153.63813742529257L33.13359375,152.677742025628L33.2984375,154.59473810743634L33.35338541666667,132.58680672685023L33.46328125,123.74845613543013L33.84791666666667,138.66015114502986L34.122656250000006,127.98046368730667L34.34244791666667,136.97856843664786L34.397395833333334,146.1565389532851L34.50729166666667,150.41312365466123L34.6171875,147.52432443841775L34.946875,144.84761028208715L35.00182291666666,145.84699500359602L35.38645833333333,152.8976892258302L35.49635416666666,156.69349210788138L35.55130208333333,159.7822364399371L35.71614583333333,160.8299947572102L36.10078125,157.2970755282753L36.265625,159.6521160446511L36.37552083333333,164.75385751760658L36.485416666666666,156.5494314537391L36.815104166666664,158.20659740986343L36.870052083333334,163.23190885489427L36.925000000000004,163.31750481000728L37.19973958333333,164.38115675563634L37.584375,167.94958702824158L37.63932291666667,167.6023929334973L37.694270833333334,164.21755630452984L37.9140625,163.67531140112592L37.96901041666667,161.20429319443477L38.02395833333334,167.0410546764273L38.408593749999994,169.07885897162805L38.5734375,165.7761796102716L38.62838541666667,166.47176721440516L38.68333333333333,169.11396786038142L38.73828125,171.7844773653988L38.84817708333333,170.6845459773447L39.06796875,169.7553708359185L39.17786458333333,170.42975723055505L39.287760416666664,169.73727319209277L39.50755208333333,168.5334392021209L39.5625,172.36823521316705L39.61744791666666,170.30264468014633L39.782291666666666,169.5336842812323L40.05703125,169.61792480213782L40.606510416666666,162.1278521102866L40.88125,163.88939296783207L40.93619791666667,166.5274447406602L40.991145833333334,171.0735565660758L41.65052083333334,169.64165884198923L41.70546875,168.38568542970526L41.76041666666667,167.3100843230087L42.36484375,162.88651259942046L42.529687499999994,164.1675136387538L42.639583333333334,168.87824261928745L42.74947916666667,171.43963374295916L42.96927083333333,170.39633475017004L43.134114583333336,170.3163286210981L43.29895833333333,170.67292723857682L43.408854166666664,172.81784902503085L43.68359375,170.7878994479775L43.79348958333333,168.63322547811268L43.8484375,168.98852293335196L44.288020833333334,170.20031349756002L44.39791666666667,170.31678428994226L44.61770833333333,171.57425963036187L44.837500000000006,171.08413796205502L44.94739583333334,168.41256734144196L45.00234375,167.55547946126165L45.167187500000004,169.31122148413004L45.99140625,168.21678617416944L46.04635416666667,167.6686271549411L46.321093749999996,170.08451192528887L46.43098958333333,170.28215994448L46.4859375,173.50420673328955L46.815625,171.95976940130188L46.92552083333333,169.56730954727524L47.1453125,171.0537218489706L47.36510416666667,171.11137678614014L47.42005208333333,168.79525331777785L47.475,168.74707481171163L47.529947916666664,165.94894523492738L47.584895833333334,169.48583097762634L47.639843750000004,169.07443385879262L48.24427083333334,167.25283682894747L48.68385416666667,167.42206232686067L48.903645833333336,165.36370931994452L49.01354166666667,169.99774808342178L49.1234375,167.40033790644958L49.28828125,167.96098713718027L49.56302083333333,166.46462075520859L49.672916666666666,167.3565546186525L49.94765625,166.54804251240245L50.22239583333333,165.59528534630866L50.27734375,166.57884137380083L50.60703125,170.40960688726878L50.66197916666667,169.39094748197067L50.881770833333334,171.22448331462186L51.1015625,170.24326133887078L51.376302083333336,169.08887681675023L51.43125,167.75636042232549L51.48619791666667,167.38563049289726L51.59609375,166.4031966245958L51.81588541666667,166.73823828725747L51.87083333333334,166.15284269159275L51.98072916666667,167.21129085055136L52.200520833333336,167.88007120222534L52.31041666666667,164.89685720497778L52.530208333333334,165.25840680345542L52.80494791666666,164.6830066064873L53.02473958333333,165.1989021694588L53.0796875,165.34829253458543L53.18958333333333,165.6240500751946L53.299479166666664,168.214774069775L53.51927083333333,167.04452227877903L53.57421875,166.0117439763983L53.84895833333333,161.60290606601475L53.90390625,164.132752092978L54.23359375,159.83261655730047L54.34348958333333,162.93757991362835L54.618229166666666,165.11726520281567L54.83802083333333,166.64941609800778L55.442447916666666,165.05152334654878L55.497395833333336,165.17922458532186L55.55234375,165.48662917257982L55.60729166666667,164.40725152088186L55.66223958333334,164.07369081731426L55.7171875,164.38103037783975L55.882031250000004,165.0172086808054L55.93697916666667,164.23667255955746L55.99192708333334,165.85667864559775L56.76119791666667,166.61962913560083L56.81614583333333,166.6142544711066L56.92604166666666,166.5998591401835L56.98098958333333,163.0937434260046L57.035937499999996,163.68701750946016L57.14583333333333,164.0804043228148L57.25572916666666,164.51227723114005L57.365625,166.41490064044186L57.475520833333334,166.62437263524168L57.6953125,165.47207780477783L57.80520833333333,163.9530120026909L58.025,163.84323646186846L58.3546875,164.33798277067575L58.46458333333334,157.7421314287629L58.684375,158.96733165266787L58.84921875,160.96185367299725L58.95911458333333,162.48188573285105L59.56354166666667,163.8784457097302L59.618489583333336,161.5453927737385L59.78333333333334,162.96910749041498L59.89322916666667,163.50573237754978L59.948177083333334,165.27902844630526L60.11302083333333,165.54775385977536L60.22291666666666,165.8439645717246L60.60755208333333,164.2383166092457L60.88229166666667,165.70367053805717L61.157031249999996,165.79308629500227L61.211979166666666,166.89094824306582L61.321875,164.70072595877895L61.6515625,165.7192568338123L61.70651041666667,167.1466344530706L61.87135416666667,166.0519612016275L61.981249999999996,164.0283551267382L62.036197916666666,164.01531538317184L62.25598958333333,165.26928633683673L62.47578125,165.59505504795163L62.75052083333333,163.9489989406362L62.80546875,160.56179127112L62.86041666666667,162.72938152536733L63.13515625000001,161.98137998333561L63.245052083333334,161.0987432426869L63.46484375,161.4187266279852L63.6296875,155.79205232200596L63.73958333333333,158.89717109046921L64.12421875000001,158.11538117601006L64.2890625,156.40035535355526L64.56380208333334,160.84067118942806L64.61874999999999,166.82516095340293L64.83854166666667,166.2339273215535L65.05833333333334,161.8184664088012L65.49791666666667,160.97965333160886L65.6078125,157.2681000433989L65.71770833333333,160.91904487101004L65.77265625,162.4003207824693L65.88255208333332,161.77410720336832L66.04739583333334,161.9188891267085L66.48697916666667,159.052373270947L66.76171875,154.60884708878888L66.87161458333333,156.72024053476744L67.03645833333334,146.18241681231552L67.09140624999999,146.69823814280926L67.20130208333333,151.23731144647658L67.31119791666666,149.67124404562034L67.36614583333333,150.99202129919834L67.47604166666667,150.1798741869897L67.53098958333334,155.44126157884423L67.64088541666666,152.39027058866392L67.69583333333334,155.07183099333508L67.75078125,151.66645144023934L68.02552083333333,148.04493229602838L68.24531250000001,153.0851381190721L68.35520833333334,155.67630626011513L69.01458333333333,152.1426514623679L69.45416666666667,154.93411135471564L69.50911458333333,153.88220527718485L69.72890625,157.26543653911364L69.89375,159.9916754061342L70.05859375,151.3549367927528L70.11354166666666,154.5795671781907L70.22343749999999,154.95122712332068L70.27838541666667,151.49244159625803L70.33333333333333,154.80416484789157L70.44322916666667,157.67175327274862L70.77291666666666,156.3197455671648L71.65208333333334,149.53943092794538L71.70703125,148.20041707117153L71.76197916666666,151.23793252419708L71.81692708333334,150.321133446403L71.98177083333333,149.45500031930663L72.42135416666666,152.216918160334L72.47630208333334,151.81459111226482L72.97083333333333,151.4829177532964L73.190625,148.41235233654814L73.24557291666666,146.89965722102068L73.35546875,149.32236040316903L73.41041666666666,149.19617844893267L73.57526041666667,142.64421277614673L73.63020833333333,145.43610029752398L73.79505208333333,151.08130910429566L73.90494791666666,156.29324453850512L74.23463541666666,156.70841339790778L74.56432291666667,153.6551153910396L74.72916666666667,150.61338091064914L74.8390625,154.565963116702L75.05885416666668,148.42416786635906L75.27864583333334,149.0944099300205L75.33359374999999,148.37386266333456L76.04791666666668,144.98503256382108L76.1578125,143.61265946138835L76.37760416666667,146.13610098689162L76.4875,148.87489484506466L76.65234375,148.83198256133568L76.76223958333334,153.21430654119592L76.81718749999999,146.78685162491286L76.98203125,143.0871064278286L77.03697916666665,137.1867904069901L77.31171875,135.82915966289525L77.36666666666666,140.455943002327L77.4765625,145.54266568542937L77.53151041666666,148.98597581506618L77.91614583333333,152.53867978835612L77.97109375000001,151.1360116755039L78.08098958333333,146.17961454314414L78.465625,147.4198649478103L78.57552083333333,143.6791275258151L78.63046875,146.77962269468827L78.68541666666667,145.39013216783835L79.07005208333334,146.08939354020498L79.23489583333333,144.7469879612812L79.39973958333334,138.68649520596793L79.61953125000001,140.7346932661589L79.784375,144.62578544211718L79.94921875,147.22917631287777L80.22395833333333,151.36604552161336L80.38880208333333,153.11239736301684L80.49869791666666,155.8422972434937L80.60859375,152.62278957046146L80.66354166666667,152.6306901607339L81.21302083333333,143.03416900977044L81.26796875,131.338108339456L81.4328125,130.5284628125115L81.65260416666666,124.78165190625688L81.87239583333334,133.87607985835376L81.98229166666667,139.51992947018803L82.09218750000001,143.67970676658547L82.20208333333333,149.23979381703137L82.36692708333334,151.50819596184968L82.53177083333334,151.74599918111372L82.58671875,151.94296730651982L82.64166666666667,152.06703053649977L82.7515625,152.59577639685105L83.02630208333333,144.49223594919462L83.13619791666666,146.50713533172382L83.24609375,146.844881479796L83.63072916666667,146.66390133050456L83.85052083333332,140.03368320552931L83.96041666666666,135.37244295554416L84.34505208333333,140.83682594178353L84.39999999999999,138.28858634876156L84.45494791666667,135.6692301173624L84.78463541666667,141.2975753628979L84.94947916666666,144.00558754561962L85.49895833333333,141.70628087209832L85.60885416666666,144.4617005606125L85.71875,139.97477872870152L85.82864583333333,131.39840193570723L86.10338541666667,125.3226452568833L86.21328125000001,122.10590093586828L86.26822916666667,119.8111267431616L86.32317708333333,122.31124175024264L86.378125,126.30839464731358L86.43307291666667,128.39742793218696L86.65286458333334,136.3993564175153L86.81770833333333,137.1228857316127L87.09244791666667,139.2342738584012L87.14739583333333,144.01588120957197L87.20234375,145.7083206568955L87.42213541666666,145.4695085684537L87.80677083333333,139.5404149799394L88.0265625,143.41599193840312L88.08151041666666,141.28248081367664L88.13645833333334,144.0746165094462L88.30130208333333,132.47166776333376L88.41119791666667,126.8558612231858L88.52109374999999,128.9756945903568L88.57604166666667,130.27093497320823L88.68593750000001,136.7218453162003L89.07057291666666,130.68265479714205L89.12552083333334,131.44489777940828L89.29036458333333,128.4141530536313L89.3453125,129.32858665029406L89.45520833333333,132.84743623089906L89.51015625,132.50273593897893L89.67500000000001,136.9027015914635L89.78489583333334,141.63604844511246L90.05963541666667,138.48175342619834L90.44427083333333,136.26538222539673L90.71901041666666,133.5727437700525L90.77395833333334,132.48318581281276L91.3234375,125.98295759974823L91.43333333333332,129.82098000418486L91.59817708333334,124.96140807087028L91.9828125,134.49762679442648L92.09270833333333,138.971909908443L92.14765625,140.12084488915758L92.20260416666666,135.48725821523286L92.42239583333333,133.64802369134674L92.53229166666667,139.83558875094084L92.80703125000001,135.66174823957817L93.02682291666667,140.83424096034847L93.08177083333334,131.07420433573054L93.24661458333334,137.43267320568637L93.68619791666667,135.35845331916377L93.74114583333333,135.71123187309007L93.79609375000001,137.31613661530912L94.18072916666667,138.77529308368744L94.40052083333333,137.52080197936286L94.67526041666666,139.1538045823931L94.78515625,136.15729639079328L95.00494791666667,139.50996831909512L95.82916666666667,133.60034613427933L95.9390625,127.99245368276488L96.10390625,129.1861056019929L96.15885416666667,130.5496204534809L96.21380208333333,126.16958053014518L96.26875,132.16364098776486L96.37864583333334,133.97076110022726L96.48854166666668,132.88052810178672L96.54348958333333,125.85788854686305L96.70833333333334,122.48978122382097L96.76328124999999,128.89346971695858L97.09296875,127.77275254550719L97.31276041666666,123.38741666402308L97.5875,108.43994172815019L97.64244791666667,108.71234707119186L97.69739583333335,123.4536616301663L97.91718750000001,127.57856559992595L98.08203125,125.78725053549269L98.35677083333333,128.33608924341476L98.52161458333333,128.0890779845254L98.79635416666666,134.155036146184L98.85130208333334,133.25590172311078L99.01614583333333,137.2778819762493L99.23593749999999,136.686245573689L99.45572916666666,133.57135903854933L99.73046875,127.68522176468234L100.00520833333333,124.23518475558674L100.11510416666667,121.25617939583252L100.27994791666667,124.8722726704585L100.33489583333333,126.6713186804001L100.82942708333334,133.5144276218143L101.37890625,133.14050984457296L101.54375,131.823191740484L101.8734375,125.29553342197593L102.203125,130.70466914376175L102.42291666666667,136.45655765080784L102.47786458333333,139.39985826602182L102.5328125,139.9993444640076L102.64270833333333,129.16853149835086L103.02734375,128.68214786019215L103.08229166666666,124.13798018340046L103.30208333333334,127.17818041350705L103.63177083333333,129.5123206931726L103.8515625,132.54628993787622L104.01640625,114.13182492708123L104.23619791666667,102.9942029884753L105.33515625,107.59973352404222L105.55494791666666,119.03053680021634L106.10442708333333,124.66455450200482L106.37916666666666,127.36796497049001L106.48906249999999,130.07184056676667L106.54401041666667,117.85865422104145L106.59895833333333,118.08913342007604L106.65390625,117.79514618974093L107.09348958333334,121.34802631247736L107.42317708333334,119.54562041395126L107.53307291666667,117.05336782332193L107.58802083333333,122.46260434267478L107.69791666666666,120.24127805970645L107.75286458333333,123.40658229602896L108.41223958333335,120.63410025652364L108.4671875,119.22913215098448L108.57708333333333,118.66474479352038L108.96171875,122.4624394664443L109.18151041666667,125.16931222112633L109.34635416666667,122.44891988272462L109.56614583333334,117.8088998422324L109.7859375,118.01131988580823L109.84088541666667,121.04024322543027L110.00572916666667,122.57070144673277L110.39036458333332,119.45358920300058L110.4453125,120.18961552741558L110.50026041666666,114.81693958927652L110.61015625,113.98143500905906L110.775,101.90735284198328L111.434375,103.60701581590774L111.76406250000001,109.2608748643005L111.92890625,113.71006416418575L111.98385416666667,115.20876768552317L112.14869791666666,108.6852278506938L112.53333333333335,111.0728857033362L112.69817708333333,113.31739121204077L112.753125,111.46274853948032L113.30260416666665,113.98618183853196L113.46744791666667,114.74306554843169L113.52239583333333,115.79443033247695L113.63229166666666,110.59815295046273L113.85208333333333,109.70890770045342L113.90703125,113.76455873160016L114.07187499999999,113.99123987763198L114.29166666666666,117.94163421588583L114.56640625,118.44032052586938L115.11588541666667,119.71303231185955L115.17083333333333,124.181138448395L115.22578125000001,121.68671291522841L115.44557291666668,120.12301279552379L115.55546875,118.27222289948224L115.99505208333333,117.09299185126163L116.87421875,119.25068933683117L117.09401041666666,124.71295885966705L117.31380208333333,114.7047010054975L117.42369791666667,115.59621034328872L117.58854166666667,111.08346410575349L117.64348958333333,118.3289847439697L117.91822916666666,123.4452435075146L117.97317708333333,109.68066909950389L118.19296874999999,113.69768307591329L118.35781250000001,108.66118417110948L118.46770833333333,111.49430471042935L118.79739583333334,110.18224665987579L119.0171875,112.58526019685321L119.23697916666667,102.44367203302892L119.45677083333334,110.08528033773726L119.62161458333333,106.06786328626052L119.73151041666667,109.09352717585787L120.06119791666667,103.19081155697955L120.11614583333332,96.04390641355785L120.17109375,92.14507636156246L120.22604166666666,97.28960819486716L120.50078125,99.88260651543105L120.55572916666667,100.94489809199789L120.61067708333333,105.11616381552588L120.9953125,98.08387199537023L121.10520833333332,87.93362759480516L121.27005208333334,101.05456821948076L121.37994791666667,103.00518944853413L121.43489583333333,109.11830663176696L121.48984375,111.72917343218519L121.54479166666667,107.49355810594196L121.87447916666666,107.94107330961013L122.09427083333333,112.40122742082464L122.14921875,110.38781918564911L122.25911458333334,112.73578462052033L122.53385416666667,113.94528763632589L122.9734375,115.51150177491074L123.02838541666667,109.63762962634782L123.24817708333335,106.04620211968076L123.35807291666667,112.16554735213073L123.6328125,108.08087815493079L123.79765625,109.65148444300729L123.85260416666668,106.82929783133171L124.45703124999999,97.6939428650588L125.00651041666666,102.85255920048057L125.11640625,101.93473150417508L125.28125000000001,101.48012144950212L125.50104166666667,101.44488317243565L125.55598958333333,101.09652949757762L125.6109375,107.67257581011883L125.77578125000001,111.56494370994827L125.940625,111.93541219459689L126.16041666666668,113.57666687242221L126.38020833333333,116.18216775650995L126.49010416666667,119.041811792822L127.42421875,109.8992089018651L127.64401041666667,102.9456215477841L127.80885416666665,89.71771095662456L127.86380208333333,94.92664732592785L128.02864583333334,85.31636544023445L128.13854166666667,82.57615466758305L128.35833333333332,96.28759654810844L128.46822916666667,101.31853891641387L128.96276041666667,94.38632076806122L129.18255208333335,96.25209839955743L129.67708333333334,95.52746297345027L129.95182291666666,91.87522813502231L130.00677083333335,96.67523868765402L130.06171875,98.09184858063439L130.44635416666668,104.64351506268727L130.77604166666666,97.25281863233891L130.94088541666667,87.41139323628812L131.10572916666666,99.5408275189213L131.215625,100.56075647534203L131.60026041666669,99.88358419526384L131.82005208333334,105.71706558673837L131.98489583333333,109.67521646385941L132.31458333333333,106.41951865700219L132.36953125,109.49559159581263L132.42447916666666,111.66271765890359L132.58932291666667,113.13474293054723L132.8640625,109.00589747036449L133.19375,111.89142065384954L133.24869791666666,112.85194623386245L133.79817708333334,112.85078341719736L133.853125,115.5798845400645L134.07291666666669,104.07417964066468L134.12786458333332,90.91953943112733L134.18281249999998,94.22060628807093L134.34765625,97.97749336573807L134.45755208333333,105.44668959244088L134.62239583333331,108.32318334164616L134.78723958333333,111.53752600230216L134.95208333333335,110.77161341021919L135.171875,107.07691659349479L135.22682291666666,107.14406182133125L135.33671875,109.72395973684172L135.39166666666668,105.86257365704643L135.5015625,113.70094955921809L135.55651041666667,104.45425172710802L136.10598958333333,97.2915698656105L136.21588541666665,104.02278710369245L136.32578125,85.48234726526725L136.65546874999998,89.09672557412617L136.71041666666667,87.45896129357239L136.87526041666666,93.0339453033651L138.30390625,101.2843523199585L138.52369791666666,95.94763017554443L138.7984375,86.8840950731001L138.90833333333333,75.09694706461201L139.07317708333332,63.42040443719248L139.29296875,78.55362703121199L139.34791666666666,93.19743091843422L139.56770833333331,96.94441500247656L139.73255208333333,102.66436149538242L139.95234374999998,102.9260318752568L140.33697916666668,103.93480068948514L140.39192708333334,102.32036973253874L140.44687499999998,108.49559601554861L141.05130208333333,112.67897424751277L141.10625,113.63692379411316L141.21614583333334,96.3797294565216L141.4359375,107.40335110164735L141.71067708333334,112.59262763486535L142.15026041666667,111.37967303172489L142.26015625,112.37250523505055L142.37005208333335,113.94979617081547L142.58984375,116.40878395248926L142.69973958333333,89.87044393258975L142.75468750000002,101.05603000091128L142.86458333333331,107.24716325811512L143.02942708333333,110.40870200760344L143.13932291666666,82.25700565127838L143.3591145833333,90.55715173976606L143.4140625,89.32281249771707L143.63385416666668,89.12438488632556L143.68880208333334,88.11514277261563L143.90859375,79.0445379340772L143.96354166666666,82.94961481977248L144.12838541666667,83.812711274676L144.18333333333334,61.68878753903655L144.34817708333333,60.290484834212954L144.84270833333332,60.23061812525921L145.00755208333334,64.51040729788501L145.55703125,56.32775491492486L146.10651041666668,57.967975077250806L146.27135416666664,79.11968476558879L146.65598958333334,88.17734642759058L147.040625,72.9152307401603L147.64505208333335,63.00727644458447L147.75494791666665,72.64979593572042L148.0296875,66.76996890054357L148.30442708333334,80.4642488421572L148.41432291666666,54.162631206844594L148.52421875000002,55.463074848374355L148.85390625,67.68916638119258L148.96380208333335,77.84467037620088L149.12864583333334,77.33793024696077L149.18359375,81.13220481870869L149.51328125,60.681149597157834L149.73307291666666,76.17714028930055L150.3375,68.90859774169556L150.50234375,53.28903551421901L150.66718749999998,72.3996206493517L150.77708333333334,75.718097478112L151.49140625,56.97742928764844L151.87604166666668,68.77504642451778L152.04088541666667,58.7292934339343L152.53541666666666,73.91286739642015L152.81015625,72.80677411827202L153.41458333333333,89.47955729933236L153.85416666666666,100.2871112106541L154.12890625,71.53448593415614L154.18385416666666,86.71586778424854L154.45859375,80.42897567238019L154.73333333333332,77.3054820983744L154.89817708333334,84.87357270629028L155.17291666666665,91.4072840504099L155.61249999999998,89.94891579462583L155.77734375,71.37414466567931L156.05208333333331,59.89963785378992L156.16197916666667,81.32790762072122L156.21692708333333,82.92862448576281L156.271875,84.47380603911395L156.38177083333335,90.22403263164706L156.71145833333333,94.32974054761617L156.98619791666664,91.59760383479528L157.09609375,66.0446767952009L157.75546875,81.7840489970424L157.86536458333333,87.40761227481237L158.14010416666667,90.89356629677219L158.46979166666665,81.12254393760921L158.74453125,72.97899480738974L158.85442708333335,84.63775235318384L158.96432291666665,62.25259090318227L159.01927083333334,54.36621835263933L159.18411458333333,45.838374650194446L159.23906250000002,62.1612485144819L160.17317708333334,64.46187650431901L160.8875,56.01981201404159L161.05234375,44.812359216176446L161.27213541666669,59.40901028678593L161.32708333333335,52.964051061903085L161.49192708333334,43.23386680199781L161.60182291666666,72.02119624086666L161.65677083333333,85.77760136573582L162.31614583333334,91.45679881077452L162.75572916666667,95.1722469347801L162.865625,96.13793037522353L162.92057291666666,92.30270883243394L163.14036458333334,95.45782993508048L163.36015625,92.27398482628266L163.57994791666667,77.52273639290094L163.96458333333334,74.84564151530599L164.01953125,74.06832126477443L164.23932291666668,50.37418340980458L164.45911458333333,46.94174223124652L164.73385416666667,39.39975613510412L164.84375,59.156912000154286L165.00859375,68.92562718056132L165.11848958333334,80.1077108267694L165.1734375,78.41687742684776L165.28333333333333,76.48481107219753L165.39322916666666,85.53511091700015L165.55807291666667,76.20637636465321L165.77786458333333,82.39713145233686L165.8328125,76.1838496111482L165.88776041666665,85.65022364608345L165.99765625,80.2511352710241L166.10755208333333,86.17981554676975L166.38229166666667,86.96238882452181L166.4921875,80.79139978641231L166.54713541666666,77.65464675661302L166.93177083333333,58.09133312843071L167.04166666666669,81.26369968784944L167.20651041666665,88.41678536446747L168.41536458333334,70.35121488780891L168.4703125,53.75862852985331L168.58020833333333,66.7357553497235L168.96484375,78.41989899535658L169.07473958333335,81.11970488488484L169.12968750000002,94.50972380983714L169.40442708333333,79.25167112367085L169.459375,72.5067332955404L169.51432291666669,61.20829914785647L169.67916666666665,75.24982244525685L169.73411458333334,86.03928368016682L169.89895833333333,91.54437318661572L170.28359375,71.6992698775456L170.39348958333335,64.76643427912745L170.50338541666667,50.29123120346279L170.61328125,41.551118253938036L170.66822916666666,64.95512274984817L171.27265624999998,77.69115655090987L171.32760416666667,63.347006064334984L171.38255208333334,79.11783375029533L171.82213541666667,82.10242096856098L171.87708333333333,84.18631604549206L172.15182291666665,62.248541710119966L172.20677083333334,72.29698855146259L172.26171875,78.50038555946644L172.31666666666666,69.44230994133171L172.42656250000002,81.65741729109297L172.48151041666668,60.73173046498781L172.53645833333334,47.998999674256346L172.70130208333333,36.22907513948424L173.30572916666668,37.912309578014266L173.63541666666666,69.98561114964059L173.7453125,88.25363435946208L174.18489583333334,96.07486703230323L174.23984375,104.63356957240927L174.29479166666667,81.0815355422737L174.4046875,82.70960800138963L174.78932291666666,84.91338967876345L174.95416666666668,62.40829226062723L175.06406249999998,82.22015782097593L175.22890625,71.7622762798048L175.33880208333335,82.78223069708208L175.44869791666667,61.35681295133032L175.94322916666667,43.20574626002549L176.16302083333332,42.556906351291175L176.27291666666667,65.96374346592607L176.3828125,84.99858619796385L176.49270833333333,62.543988602323225L176.54765625,78.3488844181078L176.76744791666667,93.7777022939311L176.82239583333333,80.43166413148562L176.87734375000002,89.60994827747535L177.15208333333334,65.39867926311607L177.42682291666665,50.38206327838966L177.48177083333331,41.91014819194836L177.7015625,41.57037956458306L177.97630208333334,64.96925340403305L178.03125,44.87560261767617L178.08619791666666,43.70110130907005L178.14114583333333,45.48403429771012L178.25104166666668,33.191198860791594L178.30598958333334,31.363480440132182L178.74557291666667,59.36322568473361L178.80052083333334,41.57527936683382L178.85546875,41.11790387956076L179.13020833333334,30.565758441017678L179.18515625,59.40311206229129L179.40494791666666,41.58269441632984L179.56979166666667,53.79294636171196L179.73463541666666,39.589485411173904L179.84453125000002,35.1764665686648L179.95442708333331,32.40736950800185L180.06432291666667,36.5047777457557L180.11927083333333,39.43114267131817L180.17421875,29.465486651069707L180.44895833333334,29.105770117167683L180.50390625,34.64151382048371L181.16328125,45.332241986748265L181.27317708333334,27.47942215761939L181.6578125,16.81143971920848L181.98749999999998,15.973218461041677L182.04244791666667,15.412187325099122L182.646875,15.361276071512123L182.70182291666669,9.321720744516508L183.19635416666668,16.906924113122248L183.30624999999998,44.31368901377178L183.41614583333333,37.56149701956071L183.58098958333335,33.92736379553767L183.7458333333333,31.62005537754233L183.91067708333333,36.604394249474616L184.13046875,62.57948576233125L184.18541666666667,48.65101548541391L184.46015625,40.15122409837725L184.57005208333334,70.02694466410449L184.6799479166667,53.13496576773151L184.73489583333333,48.57096051685229L184.9546875,45.80636495299468L185.06458333333333,33.53185530678826L185.22942708333332,38.3527748280549L185.66901041666668,40.11448165403509L185.77890624999998,40.67141512004555L185.83385416666667,24.4899261905433L185.94375,20.41550785742289L186.2184895833333,23.52811088968569L186.32838541666666,19.860708426053847L186.43828125,23.145796359190662L186.54817708333334,48.636251451378655L186.98776041666667,40.8875166102681L187.42734375,65.77888456943235L187.48229166666667,86.3943423078215L187.59218750000002,63.203495635852555L187.64713541666666,76.6066875914725L187.81197916666667,88.06368780207588L187.921875,99.72375607724162L187.97682291666666,88.8533085779856L188.14166666666665,69.91998054626646L188.47135416666669,53.13794755627549L188.69114583333334,75.34685839277408L188.74609375,45.34435172302664L189.51536458333334,33.053398185152645L189.68020833333333,25.648445374714644L189.84505208333334,26.906878496496258L190.00989583333333,16.522704893641706L190.22968749999998,21.276385005887185L190.39453125,18.635481150016666L190.44947916666666,34.92677478925316L190.50442708333335,56.7108778160568L190.83411458333333,45.362433298215635L191.10885416666665,32.865553246370155L191.16380208333334,30.65654629947616L191.21875,24.226320987235763L191.43854166666668,20.426384785944954L191.54843749999998,29.221173919662686L191.60338541666667,35.7028349441438L191.93307291666667,32.78226998198921L192.09791666666666,48.84901492803632L192.2078125,29.489666782554018L192.26276041666668,28.897586641035073L192.37265625,50.9848783548603L192.42760416666667,41.97077167844351L192.5375,31.01036544999826L192.70234375,18.758220264621656L192.8671875,16.963947837178747L193.30677083333333,21.574738247290156L193.36171875,24.35075984137947L193.63645833333334,20.568140837536422L193.85625000000002,24.002758098713258L193.91119791666668,31.41728825919134L194.1859375,30.123003738595866L194.90026041666667,23.875742516442415L194.95520833333333,31.079970419838613L195.01015625,41.27808152558482L195.06510416666666,36.44983470941826L195.55963541666665,27.648826858670972L195.94427083333332,34.369388507170356L196.10911458333334,56.553527070977026L196.38385416666668,34.01734167924389L196.54869791666667,26.148910107796578L196.87838541666667,21.381458750835183L196.9333333333333,23.788041075391238L196.98828125,20.096248477174445L197.26302083333334,23.752522546692838L197.4828125,14.342066477921081L197.59270833333332,19.565825660220685L197.75755208333334,17.499811527724184L197.97734375,32.71229173993774L198.03229166666665,53.16999587831323L198.08723958333334,61.150788390025056L198.19713541666667,48.18465630733045L198.41692708333332,59.8167260811512L198.47187499999998,47.587103443490534L198.58177083333334,40.12503338262263L198.63671875,29.911812174348963L198.85651041666665,35.75144643546873L198.91145833333331,27.527791338454097L198.96640625,28.346280584627646L199.24114583333335,22.81509065454855L199.35104166666665,31.746362879667604L199.90052083333333,19.118268385972925L199.95546875,22.997794344572046L200.17526041666667,48.262504441826216L200.28515625,65.24319137054007L200.55989583333334,44.91924951241804L200.66979166666667,67.35677729228968L200.83463541666666,46.44879111444852L200.94453124999998,71.65293465707244L201.49401041666667,48.5669758592459L201.65885416666669,71.84170289530829L201.82369791666665,88.93252991589591L202.09843750000002,83.83799643464496L202.26328124999998,92.25817446295984L202.59296875,61.12291472950319L202.7578125,42.39932585643973L202.86770833333333,25.466150006590762L203.14244791666667,60.373848420702494L203.25234375,83.10893957610314L203.47213541666667,55.46863714310755L203.52708333333334,39.00606519754666L203.96666666666667,23.40992495292611L204.18645833333335,62.222391647781066L204.24140624999998,84.5844784151823L204.40625,96.8033776008672L204.51614583333333,104.88685367844025L204.62604166666668,110.28076275027702L204.90078125,113.52423291872091L205.12057291666667,73.80887587565269L205.34036458333333,49.9595352460032L205.56015625,79.25738151747495L205.67005208333333,64.38064265560216L205.99973958333334,89.56906985849801L206.65911458333332,53.76744750599957L206.76901041666667,37.811761857634195L206.87890625,69.88963728425824L207.04375000000002,47.706021883952154L207.20859375,75.37532620410175L207.3734375,57.03085075938731L207.42838541666666,34.23766574441062L207.703125,26.253094491354616L208.14270833333333,67.26215707933426L208.47239583333334,86.28437572953415L208.63723958333333,57.37838419817275L208.6921875,79.71473677195543L209.13177083333332,47.853720038696714L209.57135416666665,40.911362035730235L210.06588541666665,30.10033570173905L210.28567708333333,62.25148590590672L210.6703125,79.96267735592194L211,53.59977802343168L211.10989583333333,80.53835616342425L211.27473958333334,93.99107171197058L211.38463541666667,68.21430849349093L211.71432291666667,88.3729900033211L211.82421875,65.19379447501512L211.87916666666666,39.13948599518306L212.20885416666667,34.236424041873015L212.31875,26.099785009077664L212.37369791666669,21.319456538588685L212.42864583333335,18.233160621303835L212.6484375,56.59825309275302L212.70338541666666,50.156299206726025L212.75833333333333,78.64556336802977L212.86822916666668,59.70404091693602L213.03307291666667,41.632856831655744L213.14296875,25.00298610531142L213.41770833333334,15.099400109188856L213.47265625,9.076778079286003L213.6375,53.83470582462238L213.91223958333336,32.31512875507406L213.9671875,67.49454755944092L214.07708333333332,87.74894411183642L214.13203125,105.55904069195536L214.40677083333335,69.07300989109486L214.51666666666665,83.58639158223991L214.68151041666667,62.44509074005441L214.73645833333333,37.56297850515221L214.79140625,38.65512173596485L214.95624999999998,71.45839863361994L215.12109375,89.89251693285752L215.28593750000002,59.43915151141435L215.50572916666667,41.305413170947716L215.72552083333335,35.65455719440822L215.83541666666667,21.45878213935879L216.11015625,59.96150414689651L216.16510416666668,83.5305873941438L216.275,55.581909105721515L216.43984375,81.74066349932157L216.71458333333334,49.07342288263799L216.8244791666667,75.79360603671171L217.26406250000002,92.96740049946843L217.31901041666669,66.74888946883999L217.53880208333334,87.18281643887236L217.64869791666666,99.62889082157537L217.9234375,106.35728172805263L218.03333333333333,112.10352653805228L218.14322916666666,113.89484770383721L218.253125,115.67552297166755L218.41796875,75.02741719753605L218.69270833333334,45.02505099657438L218.74765625,27.505431707401648L218.80260416666664,58.132394507229066L218.85755208333333,40.372814656913114L218.9125,35.87178558064691L218.96744791666666,66.05250750561471L219.18723958333334,87.16281593525358L219.29713541666666,98.44706895568342L219.40703125,104.58448710094909L219.571875,68.61136357862365L219.73671875000002,52.355844815722776" style="fill: none;" fill="none"></path></g></g></g></g><g opacity="0.2"><g><g><g><path stroke="rgb(255, 112, 67)" stroke-width="2px" d="M27.69375,131.3030973815918L28.243229166666666,140.4727917480469L28.298177083333332,127.97798698425295L28.46302083333333,163.38291595458983L28.517968749999998,129.7770881652832L28.572916666666664,196.54516342163083L28.6828125,126.675658493042L28.902604166666666,192.3581314086914L28.957552083333333,204.6069467926025L29.671875,133.4898046875L30.056510416666665,142.7162294769287L30.11145833333333,183.46803794860838L30.166406249999998,131.54896522521972L30.27630208333333,127.53736404418946L30.441145833333334,187.21740440368652L30.770833333333332,138.51503173828124L30.82578125,146.7636028289795L30.880729166666665,134.41412841796875L30.935677083333335,195.44802864074708L31.10052083333333,133.58171310424805L31.15546875,131.72474716186522L31.21041666666667,136.82373321533203L31.320312500000004,150.08978004455565L31.375260416666666,164.33092575073243L31.704947916666665,139.95049644470214L31.979687499999997,150.55095611572264L32.364322916666666,158.58448905944823L32.91380208333334,155.09415687561037L33.13359375,151.237149810791L33.2984375,157.4702311706543L33.35338541666667,99.57491695404053L33.46328125,110.49093200683593L33.84791666666667,161.02769187927245L34.122656250000006,111.96093326568604L34.34244791666667,150.4757251739502L34.397395833333334,159.92349449157715L34.50729166666667,156.79800064086913L34.6171875,143.19112564086913L34.946875,140.8325390625L35.00182291666666,147.34607208251953L35.38645833333333,163.47373054504394L35.49635416666666,162.3871964263916L35.55130208333333,164.41535293579102L35.71614583333333,162.401632232666L36.10078125,151.99769668579103L36.265625,163.18467681884766L36.37552083333333,172.4064697265625L36.485416666666666,144.24279235839845L36.815104166666664,160.69234634399413L36.870052083333334,170.76987602233888L36.925000000000004,163.44589874267578L37.19973958333333,165.97663467407227L37.584375,173.3022324371338L37.63932291666667,167.08160179138184L37.694270833333334,159.140301361084L37.9140625,162.8619440460205L37.96901041666667,157.4977658843994L38.02395833333334,175.79619689941407L38.408593749999994,172.1355654144287L38.5734375,160.8221605682373L38.62838541666667,167.51514862060546L38.68333333333333,173.0772688293457L38.73828125,175.7902416229248L38.84817708333333,169.03464889526367L39.06796875,168.3616081237793L39.17786458333333,171.44133682250975L39.287760416666664,168.6985471343994L39.50755208333333,166.7276882171631L39.5625,178.12042922973635L39.61744791666666,167.20425888061524L39.782291666666666,168.38024368286133L40.05703125,169.7442855834961L40.606510416666666,150.89274307250977L40.88125,166.53170425415038L40.93619791666667,170.48452239990235L40.991145833333334,177.8927243041992L41.65052083333334,167.49381225585938L41.70546875,166.5017253112793L41.76041666666667,165.69668266296387L42.36484375,156.2511550140381L42.529687499999994,166.0890151977539L42.639583333333334,175.9443360900879L42.74947916666667,175.2817204284668L42.96927083333333,168.83138626098633L43.134114583333336,170.19631942749024L43.29895833333333,171.2078251647949L43.408854166666664,176.03523170471192L43.68359375,167.74297508239746L43.79348958333333,165.40121452331542L43.8484375,169.52146911621094L44.288020833333334,172.01799934387208L44.39791666666667,170.49149047851563L44.61770833333333,173.4604726409912L44.837500000000006,170.34895545959472L44.94739583333334,164.40521141052247L45.00234375,166.2698476409912L45.167187500000004,171.94483451843263L45.99140625,166.5751332092285L46.04635416666667,166.84638862609864L46.321093749999996,173.70833908081056L46.43098958333333,170.5786319732666L46.4859375,178.3372769165039L46.815625,169.6431134033203L46.92552083333333,165.97861976623534L47.1453125,173.28334030151368L47.36510416666667,171.19785919189454L47.42005208333333,165.32106811523437L47.475,168.6748070526123L47.529947916666664,161.75175086975096L47.584895833333334,174.7911595916748L47.639843750000004,168.457338180542L48.24427083333334,164.5204412841797L48.68385416666667,167.67590057373047L48.903645833333336,162.27617980957032L49.01354166666667,176.9488062286377L49.1234375,163.5042226409912L49.28828125,168.80196098327636L49.56302083333333,164.22007118225096L49.672916666666666,168.69445541381836L49.94765625,165.33527435302736L50.22239583333333,164.16614959716796L50.27734375,168.05417541503905L50.60703125,176.1557551574707L50.66197916666667,167.86295837402344L50.881770833333334,173.97478706359863L51.1015625,168.77142837524414L51.376302083333336,167.35730003356935L51.43125,165.75758583068847L51.48619791666667,166.8295355987549L51.59609375,164.92954582214355L51.81588541666667,167.24080078125L51.87083333333334,165.2747492980957L51.98072916666667,168.79896308898927L52.200520833333336,168.88324172973634L52.31041666666667,160.42203620910644L52.530208333333334,165.80073120117189L52.80494791666666,163.81990631103517L53.02473958333333,165.972745513916L53.0796875,165.57237808227538L53.18958333333333,166.0376863861084L53.299479166666664,172.1008600616455L53.51927083333333,165.28914459228517L53.57421875,164.46257652282716L53.84895833333333,154.98964920043946L53.90390625,167.92752113342286L54.23359375,153.38241325378416L54.34348958333333,167.5950249481201L54.618229166666666,168.38679313659668L54.83802083333333,168.9476424407959L55.442447916666666,162.65468421936035L55.497395833333336,165.37077644348145L55.55234375,165.9477360534668L55.60729166666667,162.78818504333495L55.66223958333334,163.5733497619629L55.7171875,164.84203971862794L55.882031250000004,165.9714761352539L55.93697916666667,163.06586837768555L55.99192708333334,168.2866877746582L56.76119791666667,167.76405487060546L56.81614583333333,166.60619247436523L56.92604166666666,166.57826614379883L56.98098958333333,157.83456985473632L57.035937499999996,164.57692863464356L57.14583333333333,164.67048454284668L57.25572916666666,165.16008659362794L57.365625,169.26883575439453L57.475520833333334,166.9385806274414L57.6953125,163.74363555908204L57.80520833333333,161.67441329956054L58.025,163.67857315063478L58.3546875,165.08010223388672L58.46458333333334,147.84835441589357L58.684375,160.8051319885254L58.84921875,163.9536367034912L58.95911458333333,164.76193382263185L59.56354166666667,165.97328567504883L59.618489583333336,158.045813369751L59.78333333333334,165.10467956542968L59.89322916666667,164.31066970825196L59.948177083333334,167.9389725494385L60.11302083333333,165.95084197998048L60.22291666666666,166.28828063964843L60.60755208333333,161.82984466552733L60.88229166666667,167.9017014312744L61.157031249999996,165.92720993041993L61.211979166666666,168.53774116516112L61.321875,161.41539253234865L61.6515625,167.2470531463623L61.70651041666667,169.28770088195802L61.87135416666667,164.4099513244629L61.981249999999996,160.99294601440428L62.036197916666666,163.99575576782226L62.25598958333333,167.150242767334L62.47578125,166.08370811462402L62.75052083333333,161.4799147796631L62.80546875,155.4809797668457L62.86041666666667,165.98076690673827L63.13515625000001,160.8593776702881L63.245052083333334,159.77478813171388L63.46484375,161.8987017059326L63.6296875,147.3520408630371L63.73958333333333,163.55484924316406L64.12421875000001,156.9426963043213L64.2890625,153.82781661987306L64.56380208333334,167.5011449432373L64.61874999999999,175.80189559936522L64.83854166666667,165.3470768737793L65.05833333333334,155.19527503967285L65.49791666666667,159.72143371582033L65.6078125,151.70077011108398L65.71770833333333,166.39546211242677L65.77265625,164.6222346496582L65.88255208333332,160.8347868347168L66.04739583333334,162.13606201171874L66.48697916666667,154.75259948730468L66.76171875,147.94355781555177L66.87161458333333,159.88733070373536L67.03645833333334,130.3756812286377L67.09140624999999,147.4719701385498L67.20130208333333,158.04592140197755L67.31119791666666,147.32214294433592L67.36614583333333,152.97318717956543L67.47604166666667,148.96165351867677L67.53098958333334,163.33334266662598L67.64088541666666,147.81378410339354L67.69583333333334,159.0941716003418L67.75078125,146.55838211059572L68.02552083333333,142.61265357971192L68.24531250000001,160.6454468536377L68.35520833333334,159.56305847167968L69.01458333333333,146.84216926574706L69.45416666666667,159.12130119323731L69.50911458333333,152.30434616088868L69.72890625,162.34028343200683L69.89375,164.08103370666504L70.05859375,138.39982887268067L70.11354166666666,159.41651275634766L70.22343749999999,155.50871704101561L70.27838541666667,146.30426330566405L70.33333333333333,159.7717497253418L70.44322916666667,161.9731359100342L70.77291666666666,154.29173400878906L71.65208333333334,139.36895896911622L71.70703125,146.19189628601075L71.76197916666666,155.79420570373534L71.81692708333334,148.94593482971192L71.98177083333333,148.15580062866212L72.42135416666666,156.359794921875L72.47630208333334,151.21110054016114L72.97083333333333,150.98540771484375L73.190625,143.8065042114258L73.24557291666666,144.6306145477295L73.35546875,152.9564151763916L73.41041666666666,149.00690551757813L73.57526041666667,132.81626426696778L73.63020833333333,149.62393157958985L73.79505208333333,159.54912231445311L73.90494791666666,164.11114768981935L74.23463541666666,157.33116668701172L74.56432291666667,149.0751683807373L74.72916666666667,146.05077919006348L74.8390625,160.49483642578124L75.05885416666668,139.21147499084472L75.27864583333334,150.0997730255127L75.33359374999999,147.29304176330567L76.04791666666668,139.9017874145508L76.1578125,141.55409980773925L76.37760416666667,149.9212632751465L76.4875,152.98308563232422L76.65234375,148.76761413574218L76.76223958333334,159.78779251098632L76.81718749999999,137.14566925048828L76.98203125,137.53748863220216L77.03697916666665,128.33631637573242L77.31171875,133.79271354675294L77.36666666666666,147.3961180114746L77.4765625,153.172749710083L77.53151041666666,154.1509410095215L77.91614583333333,157.867735748291L77.97109375000001,149.0320095062256L78.08098958333333,138.7450188446045L78.465625,149.28024055480958L78.57552083333333,138.06802139282226L78.63046875,151.43036544799804L78.68541666666667,143.30589637756347L79.07005208333334,147.1382855987549L79.23489583333333,142.73337959289552L79.39973958333334,129.59575607299806L79.61953125000001,143.8069903564453L79.784375,150.4624237060547L79.94921875,151.13426261901856L80.22395833333333,157.57134933471679L80.38880208333333,155.73192512512207L80.49869791666666,159.93714706420897L80.60859375,147.79352806091308L80.66354166666667,152.64254104614258L81.21302083333333,128.63938728332522L81.26796875,113.79401733398437L81.4328125,129.31399452209473L81.65260416666666,116.161435546875L81.87239583333334,147.51772178649904L81.98229166666667,147.98570388793945L82.09218750000001,149.91937271118164L82.20208333333333,157.5799243927002L82.36692708333334,154.91079917907715L82.53177083333334,152.10270401000977L82.58671875,152.2384194946289L82.64166666666667,152.25312538146972L82.7515625,153.38889518737793L83.02630208333333,132.33692527770995L83.13619791666666,149.5294844055176L83.24609375,147.35150070190429L83.63072916666667,146.3924311065674L83.85052083333332,130.0883560180664L83.96041666666666,128.3805825805664L84.34505208333333,149.03340042114257L84.39999999999999,134.46622695922852L84.45494791666667,131.74019577026368L84.78463541666667,149.74009323120117L84.94947916666666,148.06760581970215L85.49895833333333,138.2573208618164L85.60885416666666,148.5948300933838L85.71875,133.24439598083495L85.82864583333333,118.53383674621581L86.10338541666667,116.20901023864747L86.21328125000001,117.28078445434569L86.26822916666667,116.36896545410154L86.32317708333333,126.06141426086425L86.378125,132.30412399291993L86.43307291666667,131.53097785949709L86.65286458333334,148.40224914550782L86.81770833333333,138.2081797027588L87.09244791666667,142.40135604858398L87.14739583333333,151.18829223632812L87.20234375,148.24697982788086L87.42213541666666,145.111290435791L87.80677083333333,130.64677459716796L88.0265625,149.22935737609865L88.08151041666666,138.0822141265869L88.13645833333334,148.2628200531006L88.30130208333333,115.06724464416504L88.41119791666667,118.43215141296388L88.52109374999999,132.1554446411133L88.57604166666667,132.21379554748535L88.68593750000001,146.39821083068847L89.07057291666666,121.6238690185547L89.12552083333334,132.58826225280762L89.29036458333333,123.86803596496584L89.3453125,130.70023704528808L89.45520833333333,138.12571060180665L89.51015625,131.98568550109866L89.67500000000001,143.50265007019044L89.78489583333334,148.73606872558594L90.05963541666667,133.75031089782715L90.44427083333333,132.94082542419434L90.71901041666666,129.53378608703613L90.77395833333334,130.84884887695313L91.3234375,116.23261528015136L91.43333333333332,135.57801361083983L91.59817708333334,117.67205017089846L91.9828125,148.80195487976076L92.09270833333333,145.68333457946778L92.14765625,141.8442473602295L92.20260416666666,128.5368782043457L92.42239583333333,130.88917190551757L92.53229166666667,149.11693634033205L92.80703125000001,129.40098747253415L93.02682291666667,148.59298004150392L93.08177083333334,116.43414939880373L93.24661458333334,146.97037651062013L93.68619791666667,132.24712348937987L93.74114583333333,136.24039970397948L93.79609375000001,139.7234937286377L94.18072916666667,140.9640277862549L94.40052083333333,135.63906532287598L94.67526041666666,141.6033084869385L94.78515625,131.66253410339354L95.00494791666667,144.53897621154786L95.82916666666667,124.73591285705567L95.9390625,119.58061500549316L96.10390625,130.97658348083496L96.15885416666667,132.5948927307129L96.21380208333333,119.5995206451416L96.26875,141.15473167419432L96.37864583333334,136.6814412689209L96.48854166666668,131.24517860412598L96.54348958333333,115.32392921447753L96.70833333333334,117.43762023925783L96.76328124999999,138.49900245666504L97.09296875,126.09167678833009L97.31276041666666,116.80941284179687L97.5875,86.01872932434082L97.64244791666667,109.1209550857544L97.69739583333335,145.56563346862794L97.91718750000001,133.76592155456544L98.08203125,123.10027793884278L98.35677083333333,132.15934730529784L98.52161458333333,127.7185610961914L98.79635416666666,143.25397338867188L98.85130208333334,131.90720008850099L99.01614583333333,143.31085235595702L99.23593749999999,135.79879096984862L99.45572916666666,128.89902923583983L99.73046875,118.85601585388186L100.00520833333333,119.06012924194337L100.11510416666667,116.78767135620117L100.27994791666667,130.29641258239747L100.33489583333333,129.36988769531249L100.82942708333334,143.77909103393554L101.37890625,132.57963317871094L101.54375,129.84721458435058L101.8734375,115.50404594421387L102.203125,138.81837272644043L102.42291666666667,145.08439041137694L102.47786458333333,143.81480918884276L102.5328125,140.89857376098632L102.64270833333333,112.92231204986572L103.02734375,127.9525724029541L103.08229166666666,117.32172866821288L103.30208333333334,131.73848075866698L103.63177083333333,133.0135311126709L103.8515625,137.09724380493165L104.01640625,86.51012741088869L104.23619791666667,86.2877700805664L105.33515625,114.50802932739256L105.55494791666666,136.17674171447754L106.10442708333333,133.1155810546875L106.37916666666666,131.42308067321778L106.48906249999999,134.12765396118164L106.54401041666667,99.53887470245363L106.59895833333333,118.43485221862794L106.65390625,117.35416534423828L107.09348958333334,126.67734649658203L107.42317708333334,116.84201156616211L107.53307291666667,113.31498893737792L107.58802083333333,130.5764591217041L107.69791666666666,116.9092886352539L107.75286458333333,128.1545386505127L108.41223958333335,116.47537719726563L108.4671875,117.12167999267578L108.57708333333333,117.81816375732421L108.96171875,128.1589814758301L109.18151041666667,129.2296213531494L109.34635416666667,118.36833137512207L109.56614583333334,110.84886978149414L109.7859375,118.31494995117187L109.84088541666667,125.58362823486328L110.00572916666667,124.86638877868653L110.39036458333332,114.77792083740235L110.4453125,121.2936550140381L110.50026041666666,106.75792568206789L110.61015625,112.72817813873291L110.775,83.79622959136962L111.434375,106.15651027679442L111.76406250000001,117.74166343688965L111.92890625,120.38384811401366L111.98385416666667,117.4568229675293L112.14869791666666,98.8999180984497L112.53333333333335,114.6543724822998L112.69817708333333,116.68414947509766L112.753125,108.68078453063963L113.30260416666665,117.77133178710938L113.46744791666667,115.87839111328124L113.52239583333333,117.37147750854491L113.63229166666666,102.80373687744141L113.85208333333333,108.37503982543946L113.90703125,119.84803527832031L114.07187499999999,114.33126159667968L114.29166666666666,123.86722572326661L114.56640625,119.18834999084473L115.11588541666667,121.62209999084473L115.17083333333333,130.88329765319824L115.22578125000001,117.94507461547852L115.44557291666668,117.77746261596681L115.55546875,115.49603805541993L115.99505208333333,115.32414527893066L116.87421875,122.48723556518554L117.09401041666666,132.9063631439209L117.31380208333333,99.69231422424318L117.42369791666667,116.93347434997558L117.58854166666667,104.31434474945067L117.64348958333333,129.19726570129396L117.91822916666666,131.11963165283203L117.97317708333333,89.03380748748779L118.19296874999999,119.72320404052734L118.35781250000001,101.10643581390381L118.46770833333333,115.74398551940916L118.79739583333334,108.21415958404542L119.0171875,116.18978050231934L119.23697916666667,87.23128978729247L119.45677083333334,121.5476927947998L119.62161458333333,100.04173770904542L119.73151041666667,113.63202301025392L120.06119791666667,94.3367381286621L120.11614583333332,85.32354869842528L120.17109375,86.29683128356933L120.22604166666666,105.00640594482422L120.50078125,103.77210399627685L120.55572916666667,102.53833545684816L120.61067708333333,111.37306240081787L120.9953125,87.53543426513671L121.10520833333332,72.70826099395752L121.27005208333334,120.73597915649415L121.37994791666667,105.93112129211426L121.43489583333333,118.28798240661621L121.48984375,115.64547363281251L121.54479166666667,101.14013511657713L121.87447916666666,108.6123461151123L122.09427083333333,119.09145858764649L122.14921875,107.36770683288574L122.25911458333334,116.25773277282714L122.53385416666667,115.7595421600342L122.9734375,117.86082298278806L123.02838541666667,100.82682140350343L123.24817708333335,100.65906085968017L123.35807291666667,121.34456520080566L123.6328125,101.95387435913086L123.79765625,112.00739387512208L123.85260416666668,102.59601791381837L124.45703124999999,83.99091041564941L125.00651041666666,110.59048370361329L125.11640625,100.55798995971679L125.28125000000001,100.79820636749268L125.50104166666667,101.39202575683593L125.55598958333333,100.57399898529053L125.6109375,117.53664527893065L125.77578125000001,117.40349555969239L125.940625,112.4911149215698L126.16041666666668,116.03854888916015L126.38020833333333,120.0904190826416L126.49010416666667,123.33127784729004L127.42421875,96.18530456542967L127.64401041666667,92.51524051666259L127.80885416666665,69.87584506988526L127.86380208333333,102.74005187988283L128.02864583333334,70.90094261169433L128.13854166666667,78.46583850860597L128.35833333333332,116.8547593688965L128.46822916666667,108.86495246887206L128.96276041666667,83.98799354553223L129.18255208333335,99.05076484680175L129.67708333333334,94.44050983428956L129.95182291666666,86.39687587738037L130.00677083333335,103.87525451660156L130.06171875,100.21676342010497L130.44635416666668,114.4710147857666L130.77604166666666,86.16677398681641L130.94088541666667,72.64925514221193L131.10572916666666,117.7349789428711L131.215625,102.09064990997312L131.60026041666669,98.86782577514649L131.82005208333334,114.46728767395021L131.98489583333333,115.61244277954101L132.31458333333333,101.53597194671629L132.36953125,114.10970100402831L132.42447916666666,114.91340675354003L132.58932291666667,115.3427808380127L132.8640625,102.81262928009033L133.19375,116.21970542907714L133.24869791666666,114.29273460388184L133.79817708333334,112.84903919219971L133.853125,119.67353622436522L134.07291666666669,86.81562229156494L134.12786458333332,71.18757911682128L134.18281249999998,99.17220657348635L134.34765625,103.61282398223877L134.45755208333333,116.6504839324951L134.62239583333331,112.6379239654541L134.78723958333333,116.35903999328613L134.95208333333335,109.62274452209472L135.171875,101.5348713684082L135.22682291666666,107.24477966308595L135.33671875,113.5938066101074L135.39166666666668,100.07049453735351L135.5015625,125.4585134124756L135.55651041666667,90.58420497894285L136.10598958333333,86.54754707336426L136.21588541666665,114.11961296081543L136.32578125,57.671687507629386L136.65546874999998,94.51829303741457L136.71041666666667,85.0023148727417L136.87526041666666,101.3964213180542L138.30390625,113.65996284484864L138.52369791666666,87.94254695892334L138.7984375,73.28879241943359L138.90833333333333,57.41622505187989L139.07317708333332,45.905590496063226L139.29296875,101.25346092224122L139.34791666666666,115.16313674926758L139.56770833333331,102.56489112854004L139.73255208333333,111.24428123474121L139.95234374999998,103.31853744506836L140.33697916666668,105.44795391082764L140.39192708333334,99.89872329711916L140.44687499999998,117.75843544006348L141.05130208333333,118.95404159545899L141.10625,115.07384811401366L141.21614583333334,70.49393795013428L141.4359375,123.93878356933592L141.71067708333334,120.37654243469237L142.15026041666667,109.56024112701415L142.26015625,113.86175354003908L142.37005208333335,116.3157325744629L142.58984375,120.09726562499999L142.69973958333333,50.062933902740475L142.75468750000002,117.83440910339354L142.86458333333331,116.53386314392091L143.02942708333333,115.15101013183595L143.13932291666666,40.02946111679077L143.3591145833333,103.00737087249755L143.4140625,87.47130363464355L143.63385416666668,88.82674346923827L143.68880208333334,86.6012796020508L143.90859375,65.43863067626954L143.96354166666666,88.80723014831544L144.12838541666667,85.10735595703125L144.18333333333334,28.502901935577384L144.34817708333333,58.19303077697754L144.84270833333332,60.14081806182861L145.00755208333334,70.93009105682373L145.55703125,44.053776340484625L146.10651041666668,60.42830532073974L146.27135416666664,110.8472492980957L146.65598958333334,101.76383892059327L147.040625,50.02205720901488L147.64505208333335,48.145345001220704L147.75494791666665,87.11357517242432L148.0296875,57.950228347778314L148.30442708333334,101.00566875457764L148.41432291666666,14.710204753875725L148.52421875000002,57.413740310668935L148.85390625,86.02830368041992L148.96380208333335,93.07792636871338L149.12864583333334,76.57782005310058L149.18359375,86.82361667633056L149.51328125,30.00456676483155L149.73307291666666,99.42112632751464L150.3375,58.005783920288074L150.50234375,29.859692173004156L150.66718749999998,101.06549835205078L150.77708333333334,80.69581272125244L151.49140625,28.86642700195313L151.87604166666668,86.47147212982179L152.04088541666667,43.66066394805909L152.53541666666666,96.68822834014892L152.81015625,71.1476342010498L153.41458333333333,114.48873207092285L153.85416666666666,116.49844207763671L154.12890625,28.405548019409174L154.18385416666666,109.48794055938721L154.45859375,70.99863750457764L154.73333333333332,72.62024173736573L154.89817708333334,96.22570861816408L155.17291666666665,101.20785106658937L155.61249999999998,87.7613634109497L155.77734375,43.511987972259526L156.05208333333331,42.68787763595581L156.16197916666667,113.47031227111817L156.21692708333333,85.3296997833252L156.271875,86.79157836914064L156.38177083333335,98.84937252044679L156.71145833333333,100.48830242156983L156.98619791666664,87.49939876556397L157.09609375,27.715286235809323L157.75546875,105.39310729980468L157.86536458333333,95.8429571914673L158.14010416666667,96.12249732971192L158.46979166666665,66.46601039886475L158.74453125,60.76367111206054L158.85442708333335,102.12588867187499L158.96432291666665,28.674848728179928L159.01927083333334,42.536659526824955L159.18411458333333,33.04660909652709L159.23906250000002,86.64555931091309L160.17317708333334,67.91281848907471L160.8875,43.356715278625494L161.05234375,28.00118001937867L161.27213541666669,81.30398689270021L161.32708333333335,43.29661222457885L161.49192708333334,28.638590412139898L161.60182291666666,115.20219039916992L161.65677083333333,106.41220905303955L162.31614583333334,99.97559497833252L162.75572916666667,100.74541912078858L162.865625,97.58645553588867L162.92057291666666,86.54987651824952L163.14036458333334,100.19051158905029L163.36015625,87.49821716308594L163.57994791666667,55.39586374282837L163.96458333333334,70.82999919891357L164.01953125,72.90234088897705L164.23932291666668,14.832976627349858L164.45911458333333,41.79308046340942L164.73385416666667,28.086776990890506L164.84375,88.79264579772948L165.00859375,83.57869995117187L165.11848958333334,96.88083629608154L165.1734375,75.88062732696532L165.28333333333333,73.58671154022215L165.39322916666666,99.1105606842041L165.55807291666667,62.213274536132815L165.77786458333333,91.68326408386228L165.8328125,66.86392684936523L165.88776041666665,99.84978469848632L165.99765625,72.15250270843505L166.10755208333333,95.07283596038819L166.38229166666667,88.1362487411499L166.4921875,71.53491622924805L166.54713541666666,72.94951721191406L166.93177083333333,28.746362686157227L167.04166666666669,116.02224952697752L167.20651041666665,99.14641387939454L168.41536458333334,43.25285917282105L168.4703125,28.869748992919916L168.58020833333333,86.20144557952881L168.96484375,95.94611446380614L169.07473958333335,85.16941371917724L169.12968750000002,114.59475219726562L169.40442708333333,56.36459209442139L169.459375,62.38932655334472L169.51432291666669,44.260647926330556L169.67916666666665,96.3121073913574L169.73411458333334,102.22347553253175L169.89895833333333,99.80200744628907L170.28359375,41.931614913940436L170.39348958333335,54.367180881500246L170.50338541666667,28.57842658996582L170.61328125,28.44094882965089L170.66822916666666,100.06112949371337L171.27265624999998,96.79520725250244L171.32760416666667,41.830780334472664L171.38255208333334,102.77407527923584L171.82213541666667,86.57930179595947L171.87708333333333,87.31215866088868L172.15182291666665,29.34188020706176L172.20677083333334,87.36965881347658L172.26171875,87.80548107147217L172.31666666666666,55.855196514129645L172.42656250000002,99.98007831573487L172.48151041666668,29.34320022583008L172.53645833333334,28.899903488159175L172.70130208333333,18.57418833732606L173.30572916666668,40.43716123580933L173.63541666666666,118.09556350708009L173.7453125,115.65566917419433L174.18489583333334,107.80671604156495L174.23984375,117.47162338256835L174.29479166666667,45.75348449707031L174.4046875,85.15171669006348L174.78932291666666,88.21906219482423L174.95416666666668,28.650646133422846L175.06406249999998,111.937956161499L175.22890625,56.075453968048095L175.33880208333335,99.31216232299803L175.44869791666667,29.218686332702635L175.94322916666667,15.979146223068236L176.16302083333332,41.58364648818969L176.27291666666667,101.07399913787842L176.3828125,113.5508502960205L176.49270833333333,28.8620922088623L176.54765625,102.05622814178467L176.76744791666667,116.92092910766603L176.82239583333333,60.412606887817375L176.87734375000002,103.37737449645995L177.15208333333334,29.081775741577154L177.42682291666665,27.857139301300045L177.48177083333331,29.20227556228638L177.7015625,41.06072662353515L177.97630208333334,100.06756416320802L178.03125,14.735126438140865L178.08619791666666,41.93934934616088L178.14114583333333,48.15843378067017L178.25104166666668,14.751945705413815L178.30598958333334,28.621902809143076L178.74557291666667,101.36284355163575L178.80052083333334,14.89335988998413L178.85546875,40.431840648651125L179.13020833333334,14.737540283203128L179.18515625,102.65914249420166L179.40494791666666,14.852067947387695L179.56979166666667,72.10832427978515L179.73463541666666,18.28429398536683L179.84453125000002,28.556938304901113L179.95442708333331,28.253723917007452L180.06432291666667,42.65089010238648L180.11927083333333,43.82069005966186L180.17421875,14.517002620697024L180.44895833333334,28.5661953163147L180.50390625,42.94512937545776L181.16328125,61.36833423614502L181.27317708333334,0.7001924139261301L181.6578125,0.8094660615921068L181.98749999999998,14.715886573791503L182.04244791666667,14.570640621185307L182.646875,15.284909191131588L182.70182291666669,0.26238775402306724L183.19635416666668,28.28472916603088L183.30624999999998,85.42383636474608L183.41614583333333,27.433209028244026L183.58098958333335,28.476163959503182L183.7458333333333,28.159092750549323L183.91067708333333,44.080902557373044L184.13046875,101.54212303161621L184.18541666666667,27.75831007003784L184.46015625,27.40153701782227L184.57005208333334,114.84052551269531L184.6799479166667,27.796997423172005L184.73489583333333,41.724952640533445L184.9546875,41.65947160720826L185.06458333333333,15.120090837478648L185.22942708333332,45.58415410995483L185.66901041666668,42.757041893005365L185.77890624999998,41.50681531906127L185.83385416666667,0.21769279628992788L185.94375,14.303880357742301L186.2184895833333,28.197015438079827L186.32838541666666,14.35960473060607L186.43828125,28.073428258895884L186.54817708333334,86.87193408966064L186.98776041666667,29.264414348602298L187.42734375,103.1159365081787L187.48229166666667,117.31752891540528L187.59218750000002,28.41722562789917L187.64713541666666,96.71147552490235L187.81197916666667,105.24918811798098L187.921875,117.21385848999023L187.97682291666666,72.54763732910158L188.14166666666665,41.51998849868774L188.47135416666669,27.96489807128906L188.69114583333334,108.66022464752197L188.74609375,0.3405917184054883L189.51536458333334,14.616967878341672L189.68020833333333,14.541016159057621L189.84505208333334,28.794528179168697L190.00989583333333,0.9464444893598501L190.22968749999998,28.40690517425537L190.39453125,14.674125366210932L190.44947916666666,59.363715248107916L190.50442708333335,89.3870323562622L190.83411458333333,28.33976652145386L191.10885416666665,14.120233168601988L191.16380208333334,27.343035879135126L191.21875,14.58098301887513L191.43854166666668,14.726480484008789L191.54843749999998,42.413357620239246L191.60338541666667,45.42532648086547L191.93307291666667,28.401422538757327L192.09791666666666,72.94913234710693L192.2078125,0.4506445643305794L192.26276041666668,28.009466428756717L192.37265625,84.11581592559814L192.42760416666667,28.44961166381836L192.5375,14.569756107330328L192.70234375,0.3800024865567653L192.8671875,14.272539196014408L193.30677083333333,28.490923862457272L193.36171875,28.51479223251343L193.63645833333334,14.894212331771858L193.85625000000002,29.15468399047851L193.91119791666668,42.53908349990845L194.1859375,28.181576957702635L194.90026041666667,14.504850683212284L194.95520833333333,41.88631227493286L195.01015625,56.5752481842041L195.06510416666666,29.207464485168458L195.55963541666665,14.447315082550057L195.94427083333332,44.450230979919425L196.10911458333334,89.82973491668702L196.38385416666668,0.21306359164416633L196.54869791666667,14.346262750625614L196.87838541666667,14.230281715393057L196.9333333333333,27.397914562225335L196.98828125,14.558559579849238L197.26302083333334,29.236933650970453L197.4828125,0.22638237476348877L197.59270833333332,27.401464433670043L197.75755208333334,14.400790328979502L197.97734375,55.53101205825806L198.03229166666665,83.85655208587646L198.08723958333334,73.12197715759278L198.19713541666667,28.73545818328858L198.41692708333332,77.26483074188232L198.47187499999998,29.242669486999503L198.58177083333334,28.93192829132079L198.63671875,14.591980361938468L198.85651041666665,44.51089782714843L198.91145833333331,15.192308692932132L198.96640625,29.57401445388794L199.24114583333335,14.51830575942993L199.35104166666665,45.14327121734619L199.90052083333333,0.17612664543092094L199.95546875,28.817083282470698L200.17526041666667,86.15956958770752L200.28515625,90.71422176361084L200.55989583333334,14.433336725234984L200.66979166666667,101.01306896209717L200.83463541666666,15.086811847686773L200.94453124999998,109.45914997100832L201.49401041666667,13.938037662506106L201.65885416666669,106.75379344940185L201.82369791666665,114.56877044677735L202.09843750000002,76.19619621276854L202.26328124999998,104.88844150543213L202.59296875,14.420025129318239L202.7578125,14.313942546844492L202.86770833333333,0.06638623181731373L203.14244791666667,112.73539604187013L203.25234375,117.21157630920409L203.47213541666667,14.008183493614188L203.52708333333334,14.312207279205326L203.96666666666667,0.015714585995303176L204.18645833333335,120.44109169006349L204.24140624999998,118.12760856628418L204.40625,115.13172637939454L204.51614583333333,117.0120677947998L204.62604166666668,118.37162635803223L204.90078125,118.38943817138671L205.12057291666667,14.235840311050413L205.34036458333333,14.185524301528936L205.56015625,123.20415092468262L205.67005208333333,42.06553436279297L205.99973958333334,127.35171066284178L206.65911458333332,0.06501397725194535L206.76901041666667,13.878233385086055L206.87890625,118.00645042419434L207.04375000000002,14.430598783493046L207.20859375,116.87928268432617L207.3734375,29.51413759231568L207.42838541666666,0.047888221945611265L207.703125,14.27623761177062L208.14270833333333,128.7757509613037L208.47239583333334,114.81770370483399L208.63723958333333,14.019396901130676L208.6921875,113.21926563262942L209.13177083333332,0.06219493880867644L209.57135416666665,30.49782503128051L210.06588541666665,13.883796200752267L210.28567708333333,110.4782112121582L210.6703125,106.52946453094482L211,14.055429024696345L211.10989583333333,120.94622337341309L211.27473958333334,114.17014503479004L211.38463541666667,29.54916366577149L211.71432291666667,118.6110122680664L211.82421875,30.425001182556155L211.87916666666666,0.058023275434962995L212.20885416666667,26.881831111907953L212.31875,13.894826459884648L212.37369791666669,14.148963832855216L212.42864583333335,13.603716745376579L212.6484375,114.14589179992677L212.70338541666666,40.49336837768555L212.75833333333333,121.37945960998535L212.86822916666668,31.2917572402954L213.03307291666667,14.52608070373536L213.14296875,0.058180015794930484L213.41770833333334,0.2440211150050069L213.47265625,0.042845034431672424L213.6375,120.97159744262696L213.91223958333336,0.03576315075159309L213.9671875,120.26367576599122L214.07708333333332,118.13053894042969L214.13203125,132.2741855621338L214.40677083333335,14.343963689804083L214.51666666666665,105.35646411895752L214.68151041666667,30.73313947677612L214.73645833333333,0.2398101527989005L214.79140625,40.293336582183834L214.95624999999998,120.66331398010254L215.12109375,117.54369438171386L215.28593750000002,13.75910337924957L215.50572916666667,14.104805660247798L215.72552083333335,27.178273229599L215.83541666666667,0.16511955678462353L216.11015625,117.71558715820312L216.16510416666668,118.88421226501465L216.275,13.658891673088084L216.43984375,120.97879508972169L216.71458333333334,0.07256195761263606L216.8244791666667,115.87388076782226L217.26406250000002,118.72809219360352L217.31901041666669,27.42112292289733L217.53880208333334,117.8337068939209L217.64869791666666,118.2980023956299L217.9234375,116.44986808776855L218.03333333333333,120.72289375305176L218.14322916666666,116.58182945251464L218.253125,118.34653587341309L218.41796875,14.055258536338798L218.69270833333334,0.021501695131875165L218.74765625,1.2260027736425478L218.80260416666664,104.0728387069702L218.85755208333333,13.733444881439205L218.9125,29.120241966247566L218.96744791666666,111.32359039306641L219.18723958333334,118.82827857971192L219.29713541666666,115.37344848632813L219.40703125,113.79061431884766L219.571875,14.651678295135495L219.73671875000002,27.972566671371464" style="fill: none;" fill="none"></path></g></g></g></g></g></g><g transform="translate(82, 177)" clip-path="url(#clip_1)"><clipPath id="clip_1"><rect width="247" height="23"></rect></clipPath><g><g><line x1="0" y1="0" x2="0" y2="5" style="visibility: inherit;" fill="rgb(0, 0, 0)" stroke="rgb(204, 204, 204)" stroke-width="1px"></line><line x1="27.473958333333332" y1="0" x2="27.473958333333332" y2="5" style="visibility: inherit;" fill="rgb(0, 0, 0)" stroke="rgb(204, 204, 204)" stroke-width="1px"></line><line x1="54.947916666666664" y1="0" x2="54.947916666666664" y2="5" style="visibility: inherit;" fill="rgb(0, 0, 0)" stroke="rgb(204, 204, 204)" stroke-width="1px"></line><line x1="82.421875" y1="0" x2="82.421875" y2="5" style="visibility: inherit;" fill="rgb(0, 0, 0)" stroke="rgb(204, 204, 204)" stroke-width="1px"></line><line x1="109.89583333333333" y1="0" x2="109.89583333333333" y2="5" style="visibility: inherit;" fill="rgb(0, 0, 0)" stroke="rgb(204, 204, 204)" stroke-width="1px"></line><line x1="137.36979166666669" y1="0" x2="137.36979166666669" y2="5" style="visibility: inherit;" fill="rgb(0, 0, 0)" stroke="rgb(204, 204, 204)" stroke-width="1px"></line><line x1="164.84375" y1="0" x2="164.84375" y2="5" style="visibility: inherit;" fill="rgb(0, 0, 0)" stroke="rgb(204, 204, 204)" stroke-width="1px"></line><line x1="192.31770833333334" y1="0" x2="192.31770833333334" y2="5" style="visibility: inherit;" fill="rgb(0, 0, 0)" stroke="rgb(204, 204, 204)" stroke-width="1px"></line><line x1="219.79166666666666" y1="0" x2="219.79166666666666" y2="5" style="visibility: inherit;" fill="rgb(0, 0, 0)" stroke="rgb(204, 204, 204)" stroke-width="1px"></line><line x1="247.265625" y1="0" x2="247.265625" y2="5" style="visibility: inherit;" fill="rgb(0, 0, 0)" stroke="rgb(204, 204, 204)" stroke-width="1px"></line></g><g transform="translate(0, 8)"><text x="0" y="0" dx="0em" dy="0.95em" style="text-anchor: middle; visibility: hidden; font-family: Roboto, sans-serif; font-size: 12px; font-weight: 200;" fill="rgb(33, 33, 33)" stroke="none" stroke-width="1px">-500</text><text x="27.473958333333332" y="0" dx="0em" dy="0.95em" style="text-anchor: middle; visibility: inherit; font-family: Roboto, sans-serif; font-size: 12px; font-weight: 200;" fill="rgb(33, 33, 33)" stroke="none" stroke-width="1px">0</text><text x="54.947916666666664" y="0" dx="0em" dy="0.95em" style="text-anchor: middle; visibility: inherit; font-family: Roboto, sans-serif; font-size: 12px; font-weight: 200;" fill="rgb(33, 33, 33)" stroke="none" stroke-width="1px">500</text><text x="82.421875" y="0" dx="0em" dy="0.95em" style="text-anchor: middle; visibility: inherit; font-family: Roboto, sans-serif; font-size: 12px; font-weight: 200;" fill="rgb(33, 33, 33)" stroke="none" stroke-width="1px">1k</text><text x="109.89583333333333" y="0" dx="0em" dy="0.95em" style="text-anchor: middle; visibility: inherit; font-family: Roboto, sans-serif; font-size: 12px; font-weight: 200;" fill="rgb(33, 33, 33)" stroke="none" stroke-width="1px">1.5k</text><text x="137.36979166666669" y="0" dx="0em" dy="0.95em" style="text-anchor: middle; visibility: inherit; font-family: Roboto, sans-serif; font-size: 12px; font-weight: 200;" fill="rgb(33, 33, 33)" stroke="none" stroke-width="1px">2k</text><text x="164.84375" y="0" dx="0em" dy="0.95em" style="text-anchor: middle; visibility: inherit; font-family: Roboto, sans-serif; font-size: 12px; font-weight: 200;" fill="rgb(33, 33, 33)" stroke="none" stroke-width="1px">2.5k</text><text x="192.31770833333334" y="0" dx="0em" dy="0.95em" style="text-anchor: middle; visibility: inherit; font-family: Roboto, sans-serif; font-size: 12px; font-weight: 200;" fill="rgb(33, 33, 33)" stroke="none" stroke-width="1px">3k</text><text x="219.79166666666666" y="0" dx="0em" dy="0.95em" style="text-anchor: middle; visibility: inherit; font-family: Roboto, sans-serif; font-size: 12px; font-weight: 200;" fill="rgb(33, 33, 33)" stroke="none" stroke-width="1px">3.5k</text><text x="247.265625" y="0" dx="0em" dy="0.95em" style="text-anchor: middle; visibility: hidden; font-family: Roboto, sans-serif; font-size: 12px; font-weight: 200;" fill="rgb(33, 33, 33)" stroke="none" stroke-width="1px">4k</text></g><line x1="0" y1="0" x2="247.265625" y2="0" fill="rgb(0, 0, 0)" stroke="rgb(204, 204, 204)" stroke-width="1px"></line></g></g></g></g></svg>