<svg viewBox="0 0 1070 400" xmlns="http://www.w3.org/2000/svg"><g><g><g><g><g><line x1="82.734375" y1="377" x2="77.734375" y2="377" style="visibility: inherit;" fill="rgb(0, 0, 0)" stroke="rgb(204, 204, 204)" stroke-width="1px"></line><line x1="82.734375" y1="348" x2="77.734375" y2="348" style="visibility: inherit;" fill="rgb(0, 0, 0)" stroke="rgb(204, 204, 204)" stroke-width="1px"></line><line x1="82.734375" y1="319" x2="77.734375" y2="319" style="visibility: inherit;" fill="rgb(0, 0, 0)" stroke="rgb(204, 204, 204)" stroke-width="1px"></line><line x1="82.734375" y1="290" x2="77.734375" y2="290" style="visibility: inherit;" fill="rgb(0, 0, 0)" stroke="rgb(204, 204, 204)" stroke-width="1px"></line><line x1="82.734375" y1="261" x2="77.734375" y2="261" style="visibility: inherit;" fill="rgb(0, 0, 0)" stroke="rgb(204, 204, 204)" stroke-width="1px"></line><line x1="82.734375" y1="232" x2="77.734375" y2="232" style="visibility: inherit;" fill="rgb(0, 0, 0)" stroke="rgb(204, 204, 204)" stroke-width="1px"></line><line x1="82.734375" y1="203" x2="77.734375" y2="203" style="visibility: inherit;" fill="rgb(0, 0, 0)" stroke="rgb(204, 204, 204)" stroke-width="1px"></line><line x1="82.734375" y1="174" x2="77.734375" y2="174" style="visibility: inherit;" fill="rgb(0, 0, 0)" stroke="rgb(204, 204, 204)" stroke-width="1px"></line><line x1="82.734375" y1="145" x2="77.734375" y2="145" style="visibility: inherit;" fill="rgb(0, 0, 0)" stroke="rgb(204, 204, 204)" stroke-width="1px"></line><line x1="82.734375" y1="116" x2="77.734375" y2="116" style="visibility: inherit;" fill="rgb(0, 0, 0)" stroke="rgb(204, 204, 204)" stroke-width="1px"></line><line x1="82.734375" y1="86.99999999999999" x2="77.734375" y2="86.99999999999999" style="visibility: inherit;" fill="rgb(0, 0, 0)" stroke="rgb(204, 204, 204)" stroke-width="1px"></line><line x1="82.734375" y1="58" x2="77.734375" y2="58" style="visibility: inherit;" fill="rgb(0, 0, 0)" stroke="rgb(204, 204, 204)" stroke-width="1px"></line><line x1="82.734375" y1="28.999999999999982" x2="77.734375" y2="28.999999999999982" style="visibility: inherit;" fill="rgb(0, 0, 0)" stroke="rgb(204, 204, 204)" stroke-width="1px"></line><line x1="82.734375" y1="0" x2="77.734375" y2="0" style="visibility: inherit;" fill="rgb(0, 0, 0)" stroke="rgb(204, 204, 204)" stroke-width="1px"></line></g><g transform="translate(72.734375, 0)"><text x="0" y="377" dx="0em" dy="0.3em" style="text-anchor: end; visibility: hidden; font-family: Roboto, sans-serif; font-size: 12px; font-weight: 200;" fill="rgb(33, 33, 33)" stroke="none" stroke-width="1px">-1.3e+3</text><text x="0" y="348" dx="0em" dy="0.3em" style="text-anchor: end; visibility: inherit; font-family: Roboto, sans-serif; font-size: 12px; font-weight: 200;" fill="rgb(33, 33, 33)" stroke="none" stroke-width="1px">-1.2e+3</text><text x="0" y="319" dx="0em" dy="0.3em" style="text-anchor: end; visibility: inherit; font-family: Roboto, sans-serif; font-size: 12px; font-weight: 200;" fill="rgb(33, 33, 33)" stroke="none" stroke-width="1px">-1.1e+3</text><text x="0" y="290" dx="0em" dy="0.3em" style="text-anchor: end; visibility: inherit; font-family: Roboto, sans-serif; font-size: 12px; font-weight: 200;" fill="rgb(33, 33, 33)" stroke="none" stroke-width="1px">-1e+3</text><text x="0" y="261" dx="0em" dy="0.3em" style="text-anchor: end; visibility: inherit; font-family: Roboto, sans-serif; font-size: 12px; font-weight: 200;" fill="rgb(33, 33, 33)" stroke="none" stroke-width="1px">-900</text><text x="0" y="232" dx="0em" dy="0.3em" style="text-anchor: end; visibility: inherit; font-family: Roboto, sans-serif; font-size: 12px; font-weight: 200;" fill="rgb(33, 33, 33)" stroke="none" stroke-width="1px">-800</text><text x="0" y="203" dx="0em" dy="0.3em" style="text-anchor: end; visibility: inherit; font-family: Roboto, sans-serif; font-size: 12px; font-weight: 200;" fill="rgb(33, 33, 33)" stroke="none" stroke-width="1px">-700</text><text x="0" y="174" dx="0em" dy="0.3em" style="text-anchor: end; visibility: inherit; font-family: Roboto, sans-serif; font-size: 12px; font-weight: 200;" fill="rgb(33, 33, 33)" stroke="none" stroke-width="1px">-600</text><text x="0" y="145" dx="0em" dy="0.3em" style="text-anchor: end; visibility: inherit; font-family: Roboto, sans-serif; font-size: 12px; font-weight: 200;" fill="rgb(33, 33, 33)" stroke="none" stroke-width="1px">-500</text><text x="0" y="116" dx="0em" dy="0.3em" style="text-anchor: end; visibility: inherit; font-family: Roboto, sans-serif; font-size: 12px; font-weight: 200;" fill="rgb(33, 33, 33)" stroke="none" stroke-width="1px">-400</text><text x="0" y="86.99999999999999" dx="0em" dy="0.3em" style="text-anchor: end; visibility: inherit; font-family: Roboto, sans-serif; font-size: 12px; font-weight: 200;" fill="rgb(33, 33, 33)" stroke="none" stroke-width="1px">-300</text><text x="0" y="58" dx="0em" dy="0.3em" style="text-anchor: end; visibility: inherit; font-family: Roboto, sans-serif; font-size: 12px; font-weight: 200;" fill="rgb(33, 33, 33)" stroke="none" stroke-width="1px">-200</text><text x="0" y="28.999999999999982" dx="0em" dy="0.3em" style="text-anchor: end; visibility: inherit; font-family: Roboto, sans-serif; font-size: 12px; font-weight: 200;" fill="rgb(33, 33, 33)" stroke="none" stroke-width="1px">-100</text><text x="0" y="0" dx="0em" dy="0.3em" style="text-anchor: end; visibility: hidden; font-family: Roboto, sans-serif; font-size: 12px; font-weight: 200;" fill="rgb(33, 33, 33)" stroke="none" stroke-width="1px">0</text></g><line x1="82.734375" y1="0" x2="82.734375" y2="377" fill="rgb(0, 0, 0)" stroke="rgb(204, 204, 204)" stroke-width="1px"></line></g></g><g transform="translate(82, 0)" clip-path="url(#clip_0)"><clipPath id="clip_0"><rect width="987" height="377"></rect></clipPath><g><g><g><line x1="0" y1="0" x2="0" y2="377" fill="rgb(0, 0, 0)" stroke="rgb(66, 66, 66)" stroke-width="1px" opacity="0.25"></line><line x1="82.27213541666666" y1="0" x2="82.27213541666666" y2="377" fill="rgb(0, 0, 0)" stroke="rgb(66, 66, 66)" stroke-width="1px" opacity="0.25"></line><line x1="164.54427083333331" y1="0" x2="164.54427083333331" y2="377" fill="rgb(0, 0, 0)" stroke="rgb(66, 66, 66)" stroke-width="1px" opacity="0.25"></line><line x1="246.81640625" y1="0" x2="246.81640625" y2="377" fill="rgb(0, 0, 0)" stroke="rgb(66, 66, 66)" stroke-width="1px" opacity="0.25"></line><line x1="329.08854166666663" y1="0" x2="329.08854166666663" y2="377" fill="rgb(0, 0, 0)" stroke="rgb(66, 66, 66)" stroke-width="1px" opacity="0.25"></line><line x1="411.36067708333337" y1="0" x2="411.36067708333337" y2="377" fill="rgb(0, 0, 0)" stroke="rgb(66, 66, 66)" stroke-width="1px" opacity="0.25"></line><line x1="493.6328125" y1="0" x2="493.6328125" y2="377" fill="rgb(0, 0, 0)" stroke="rgb(66, 66, 66)" stroke-width="1px" opacity="0.25"></line><line x1="575.9049479166667" y1="0" x2="575.9049479166667" y2="377" fill="rgb(0, 0, 0)" stroke="rgb(66, 66, 66)" stroke-width="1px" opacity="0.25"></line><line x1="658.1770833333333" y1="0" x2="658.1770833333333" y2="377" fill="rgb(0, 0, 0)" stroke="rgb(66, 66, 66)" stroke-width="1px" opacity="0.25"></line><line x1="740.44921875" y1="0" x2="740.44921875" y2="377" fill="rgb(0, 0, 0)" stroke="rgb(66, 66, 66)" stroke-width="1px" opacity="0.25"></line><line x1="822.7213541666667" y1="0" x2="822.7213541666667" y2="377" fill="rgb(0, 0, 0)" stroke="rgb(66, 66, 66)" stroke-width="1px" opacity="0.25"></line><line x1="904.9934895833333" y1="0" x2="904.9934895833333" y2="377" fill="rgb(0, 0, 0)" stroke="rgb(66, 66, 66)" stroke-width="1px" opacity="0.25"></line><line x1="987.265625" y1="0" x2="987.265625" y2="377" fill="rgb(0, 0, 0)" stroke="rgb(66, 66, 66)" stroke-width="1px" opacity="0.25"></line></g><g><line x1="0" y1="377" x2="987.265625" y2="377" fill="rgb(0, 0, 0)" stroke="rgb(66, 66, 66)" stroke-width="1px" opacity="0.25"></line><line x1="0" y1="348" x2="987.265625" y2="348" fill="rgb(0, 0, 0)" stroke="rgb(66, 66, 66)" stroke-width="1px" opacity="0.25"></line><line x1="0" y1="319" x2="987.265625" y2="319" fill="rgb(0, 0, 0)" stroke="rgb(66, 66, 66)" stroke-width="1px" opacity="0.25"></line><line x1="0" y1="290" x2="987.265625" y2="290" fill="rgb(0, 0, 0)" stroke="rgb(66, 66, 66)" stroke-width="1px" opacity="0.25"></line><line x1="0" y1="261" x2="987.265625" y2="261" fill="rgb(0, 0, 0)" stroke="rgb(66, 66, 66)" stroke-width="1px" opacity="0.25"></line><line x1="0" y1="232" x2="987.265625" y2="232" fill="rgb(0, 0, 0)" stroke="rgb(66, 66, 66)" stroke-width="1px" opacity="0.25"></line><line x1="0" y1="203" x2="987.265625" y2="203" fill="rgb(0, 0, 0)" stroke="rgb(66, 66, 66)" stroke-width="1px" opacity="0.25"></line><line x1="0" y1="174" x2="987.265625" y2="174" fill="rgb(0, 0, 0)" stroke="rgb(66, 66, 66)" stroke-width="1px" opacity="0.25"></line><line x1="0" y1="145" x2="987.265625" y2="145" fill="rgb(0, 0, 0)" stroke="rgb(66, 66, 66)" stroke-width="1px" opacity="0.25"></line><line x1="0" y1="116" x2="987.265625" y2="116" fill="rgb(0, 0, 0)" stroke="rgb(66, 66, 66)" stroke-width="1px" opacity="0.25"></line><line x1="0" y1="86.99999999999999" x2="987.265625" y2="86.99999999999999" fill="rgb(0, 0, 0)" stroke="rgb(66, 66, 66)" stroke-width="1px" opacity="0.25"></line><line x1="0" y1="58" x2="987.265625" y2="58" fill="rgb(0, 0, 0)" stroke="rgb(66, 66, 66)" stroke-width="1px" opacity="0.25"></line><line x1="0" y1="28.999999999999982" x2="987.265625" y2="28.999999999999982" fill="rgb(0, 0, 0)" stroke="rgb(66, 66, 66)" stroke-width="1px" opacity="0.25"></line><line x1="0" y1="0" x2="987.265625" y2="0" fill="rgb(0, 0, 0)" stroke="rgb(66, 66, 66)" stroke-width="1px" opacity="0.25"></line></g></g></g><g><g><line x1="0" y1="0" x2="987.265625" y2="0" fill="rgb(0, 0, 0)" stroke="rgb(153, 153, 153)" stroke-width="1.5px"></line></g></g><g><g><line x1="82.27213541666666" y1="0" x2="82.27213541666666" y2="377" fill="rgb(0, 0, 0)" stroke="rgb(153, 153, 153)" stroke-width="1.5px"></line></g></g><g><g><g><g><g><path stroke="rgb(255, 112, 67)" stroke-width="2px" d="M82.27213541666666,393.9575659179687L83.09485677083333,365.6821012878418L83.917578125,343.56168180504625L84.74029947916667,404.9365532639447L85.56302083333334,349.21510144500417L86.3857421875,402.2077566983134L89.67662760416667,389.13876475892647L90.49934895833333,370.21833533269614L91.3220703125,365.6585863607866L92.14479166666668,404.1098811533962L96.2583984375,392.68995074147523L97.08111979166667,350.919241268128L97.90384114583334,369.45474881558795L98.7265625,389.08151470402845L99.54928385416666,374.2809410655264L100.37200520833333,364.1779965720597L101.1947265625,392.3219430187364L102.84016927083334,359.03519422293124L103.662890625,339.1760196693544L104.48561197916666,355.0370284258274L105.30833333333334,338.25730489569634L106.1310546875,325.11782682656L106.95377604166667,334.12994613515565L107.77649739583333,348.2411682833361L108.59921875,308.6899358593625L109.42194010416667,309.5381510092464L110.24466145833333,317.0305861327149L111.0673828125,343.23394929805204L111.89010416666666,332.8609934952776L112.71282552083333,339.20110199577834L113.53554687500001,339.33665289718914L114.35826822916667,364.8732290998943L115.18098958333333,374.72302487544704L116.00371093749999,419.352164570438L116.82643229166666,401.81783242523096L117.64915364583334,375.62335618585655L118.471875,348.4663686872779L119.29459635416667,389.8698285408892L120.11731770833335,333.1273075213852L120.94003906249999,383.93835082332623L121.76276041666667,346.17047484861655L122.58548177083333,383.9129543432721L123.408203125,366.82729506676264L124.23092447916666,360.27618905174455L125.05364583333335,365.1856826693422L125.87636718750001,412.7172079415321L129.16725260416666,422.16940227422475L129.9899739583333,367.13278687233986L130.8126953125,322.5348403362909L131.63541666666666,331.85154140880627L132.45813802083333,305.9983120523143L133.280859375,311.3328573485761L134.10358072916668,306.2287944872706L134.92630208333333,319.929008137675L135.7490234375,324.3778902341675L136.57174479166667,330.044698007688L137.39446614583332,334.5518520077378L138.21718750000002,313.5816304917521L139.03990885416667,313.6704939200512L139.86263020833334,325.98326461374955L140.6853515625,336.4051511510622L141.50807291666666,335.33762389376244L142.33079427083334,288.00938024446054L143.15351562499998,279.5859928927701L143.97623697916669,283.9323430501152L144.79895833333333,272.37256281249097L145.6216796875,222.02396371288518L146.44440104166668,208.674976616403L147.26712239583333,196.3447330401543L148.08984375,186.40705491198324L148.91256510416667,141.328373999436L149.73528645833335,143.16006248559913L150.5580078125,136.8314470372579L151.38072916666667,96.76758913910282L152.20345052083334,86.07327198932106L153.026171875,66.65363854759654L153.84889322916666,53.793226310930976L154.67161458333334,46.91814712078707L155.4943359375,42.33744082374179L156.31705729166666,69.12989076377636L157.9625,55.651134867201336L158.78522135416665,47.579763714510236L159.60794270833333,28.905235626243407L160.4306640625,45.55240816041404L161.25338541666667,41.49172416260583L162.07610677083332,39.273339459721704L162.898828125,38.175611372366184L163.72154947916667,79.03546509002126L164.54427083333331,74.94999987920806L165.36699218750002,58.8753052253764L166.18971354166666,82.87915798874147L167.01243489583334,49.962853764840645L167.83515625,43.708174142449295L168.65787760416666,26.409835628276596L169.48059895833333,16.34741395402283L170.30332031249998,38.363378731300436L171.12604166666668,66.02824513428807L171.94876302083333,53.7491087016666L172.771484375,46.94666132695696L173.59420572916667,42.06133410696523L174.41692708333332,65.45224248078065L176.06236979166667,39.47635787622092L176.88509114583334,65.69524941811534L177.7078125,79.8123513110255L178.5305338541667,74.83942207811923L179.35325520833334,45.15352175997884L180.17597656249998,55.10501564387792L180.99869791666666,46.63552977206897L181.82141927083333,42.0597116010343L182.644140625,51.56272930437063L183.46686197916665,31.137837052188708L184.28958333333335,32.88328041734836L185.1123046875,33.940491291180486L185.93502604166665,34.32529904716921L186.75774739583335,48.410142502032L187.58046875,29.256593910242508L188.40319010416667,17.851079540840043L189.22591145833334,10.990727428788695L190.04863281250002,34.86230681860135L190.87135416666666,34.673260800145165L191.6940755208333,35.45368951231372L192.516796875,61.290907432974116L193.33951822916666,51.05952514215757L194.16223958333333,58.80633703353669L194.9849609375,49.16910806728999L195.80768229166668,57.96145666166304L196.63040364583333,61.178492405200934L197.453125,50.6729725793511L198.27584635416667,75.57045517846998L199.09856770833332,59.78478464272655L199.92128906250002,50.250022702139844L200.74401041666667,43.9457078046335L201.56673177083334,53.314419738932436L202.389453125,69.48091527109385L203.21217447916666,56.13914083746101L204.03489583333334,74.21993018118752L204.85761718749998,58.70647895221839L205.68033854166669,49.71515232494434L206.50305989583333,69.17882747895099L207.32578125,68.67417752985105L208.14850260416668,41.45225357964004L208.97122395833333,69.39577927180747L209.7939453125,55.82792389243021L210.61666666666667,73.79380841260658L211.43938802083335,73.51174366572799L212.262109375,58.302472743626275L213.08483072916667,76.4410794713711L213.90755208333334,59.82199066988319L214.7302734375,64.7751942798596L215.55299479166666,53.0897280791462L216.37571614583334,32.25422455805902L217.1984375,33.45682120334131L218.02115885416666,34.35892826277625L218.84388020833333,48.2688039791501L219.6666015625,42.91842005228502L220.48932291666665,52.9207916553944L221.31204427083333,46.31426460505309L222.134765625,56.143232652191955L222.95748697916667,62.84240400781914L223.78020833333332,52.03427001089261L224.6029296875,45.7311998239184L225.42565104166667,41.79620146173386L226.24837239583331,39.5009108794817L227.07109375000002,37.96151512510115L227.89381510416666,37.167272295275566L228.71653645833334,36.99620187814189L229.5392578125,36.12571542009805L230.36197916666666,36.0404564127033L231.18470052083333,49.43866697506341L232.00742187499998,44.28753786204L232.83014322916668,41.319793560729906L233.65286458333333,66.13911820186759L234.4755859375,54.415414280495575L235.29830729166667,46.828636965514164L236.94375,42.7149999893671L237.76647135416667,39.40546291476282L238.58919270833334,51.23070835188507L239.4119140625,64.87653682753724L240.2346354166667,52.710574898036064L241.05735677083334,32.09542837960228L241.88007812499998,64.20666230119886L242.70279947916666,66.38886792515288L243.52552083333333,53.385639907923775L244.3482421875,32.50588768315758L245.17096354166665,33.12360191531448L245.99368489583335,48.05479255788012L246.81640625,43.00135795660307L247.63912760416667,26.060314212247683L248.46184895833332,30.250835347416995L249.2845703125,32.02792515864549L250.1072916666667,33.61455062741386L250.93001302083331,34.53486202928031L251.75273437500002,34.97820328934558L252.5754557291667,35.62569327487685L253.3981770833333,35.11530231746519L254.2208984375,21.32414094991969L255.04361979166669,26.88231251184637L255.86634114583333,16.366283381131232L256.68906250000003,24.501464303581102L257.51178385416665,29.61706327453145L258.3345052083333,44.99679344567588L259.1572265625,41.07181642385086L259.9799479166666,39.20332273394916L260.80266927083335,38.05000685448081L261.625390625,37.03032653090139L262.44811197916664,67.83721728084554L263.2708333333333,69.33975248764796L264.0935546875,55.79383611172937L264.91627604166666,47.5871495979458L265.73899739583334,43.24942391404095L266.56171875,53.834412832311266L267.38444010416663,32.69007033255783L268.20716145833336,33.6410319151109L269.02988281250003,34.39775739369546L269.85260416666665,21.080020366774534L270.6753255208333,26.7111138741174L271.498046875,16.401947948455778L272.3207682291667,36.888916876983636L273.14348958333335,48.950048734588606L273.9662109375,44.026759160186764L274.78893229166664,53.76227845753779L275.6116536458333,46.07322355035279L276.43437500000005,55.76220421077804L277.25709635416666,33.67481171275377L278.07981770833334,49.550570072085875L278.90253906249995,43.71095105204059L280.54798177083336,66.41031159802118L281.370703125,54.05179288532637L282.19342447916665,32.7850744933266L283.0161458333333,20.08564538683762L283.8388671875,26.55390331486625L284.6615885416667,16.107278937696L285.48430989583335,23.42004936945352L286.30703124999997,14.428868688177545L287.12975260416664,23.12184913649049L287.95247395833337,40.599850387656055L288.7751953125,53.92091438298423L289.59791666666666,59.81127226260303L290.42063802083334,80.00339568178059L291.243359375,62.435274042369144L292.0660807291667,51.01446239905428L293.7115234375,57.86174604294825L294.53424479166665,49.14237315677475L295.3569661458334,56.34107178224848L296.1796875,48.04997885426116L297.0024088541667,29.485861799479892L297.82513020833335,31.8923510335454L298.64785156249997,33.58169229737334L299.4705729166667,34.37982372803337L300.2932942708333,20.93273026396543L301.116015625,50.509334813652686L301.93873697916666,56.885511593758004L302.76145833333334,48.358140727006756L303.5841796875,43.60039584977831L304.4069010416667,26.494716551920167L305.2296223958333,56.96039804638651L306.8750651041667,48.12897091401353L307.6977864583333,43.49817930133782L308.5205078125,39.75299577660347L309.3432291666667,38.28276227919446L310.1659505208333,49.494228412438574L310.988671875,30.1548767739112L311.8113932291667,45.19397123036232L312.6341145833333,55.30789268694787L313.4568359375,60.61117585875078L314.27955729166666,50.39015165172508L315.10227864583334,58.358480029121L315.925,63.36527490712102L316.7477213541667,52.441686764340965L317.5704427083333,46.24794083057725L318.39316406250003,70.21963266240883L319.21588541666665,56.54373440091213L320.0386067708333,34.20344328871013L320.861328125,34.188816003743604L321.6840494791666,35.25336531635752L322.50677083333335,35.45041131017581L323.3294921875,49.58868483542193L324.15221354166664,44.573520715706266L324.9749348958333,40.2633092067675L325.79765625,38.31379460609173L326.62037760416666,37.63884082005154L327.44309895833334,22.867993576083954L328.2658203125,40.37121911928315L329.08854166666663,38.28702434876716L329.91126302083336,37.557599466438035L330.73398437500003,49.644757616874536L331.55670572916665,57.39309517071069L332.3794270833333,79.18849638465298L333.2021484375,62.10325023557692L334.0248697916667,37.82248357716765L334.84759114583335,36.20602280010919L335.6703125,74.25080179041711L336.49303385416664,58.48853704348854L337.3157552083333,63.35594095167908L338.13847656250005,52.22148302803871L338.96119791666666,59.04707328850288L339.78391927083334,87.58985224946892L340.60664062499995,66.70238901081414L341.4293619791667,79.78317339672292L342.25208333333336,61.762067825875555L343.0748046875,51.65748221163861L343.89752604166665,71.14118378499096L344.7202473958333,56.97783304321137L345.54296875,48.50509228198149L346.3656901041667,43.55776145439399L347.18841145833335,40.028227826005505L348.01113281249997,51.04116124394319L348.83385416666664,30.882692027585424L349.65657552083337,32.8401240056137L350.479296875,34.24075628813385L351.30201822916666,20.757581727840147L352.12473958333334,27.18719332381347L352.9474609375,31.06105683901464L353.7701822916667,33.259433633438086L354.59290364583336,33.754066033334375L355.415625,34.28343134973692L356.23834635416665,35.17568384035977L357.0610677083334,47.99488857570021L357.8837890625,56.82165946377953L358.7065104166667,47.94555793412708L359.52923177083335,29.06809080963241L360.35195312499997,18.052073592453613L361.1746744791667,24.682202773636263L361.9973958333333,42.26622217687704L362.8201171875,39.106932494358624L363.64283854166666,23.666018165896187L364.46555989583334,29.04995971545573L365.28828125,31.895259551197263L366.1110026041667,59.76302987622617L366.9337239583333,63.64328539399743L367.7564453125,51.71560316388869L368.5791666666667,45.686922841936706L369.4018880208333,55.41114216951751L370.224609375,47.76873709004058L371.0473307291667,42.7600682122763L371.8700520833333,26.05910612435675L372.6927734375,43.04402318389136L373.5154947916667,39.99093060345008L374.3382161458333,66.92682105738253L375.1609375,54.425310407867016L375.98365885416666,46.71824541830414L376.80638020833334,42.85725212158799L377.6291015625,39.63694346655634L378.4518229166667,51.43997619956268L379.2745442708333,45.10399109083138L380.09726562500003,55.09307177852231L380.91998697916665,47.8428703193106L381.7427083333333,57.69710042644964L382.5654296875,49.366324953135425L383.3881510416666,29.931052657542537L384.21087239583335,32.6383531826603L385.03359375,19.985642151943903L385.85631510416664,26.42774689394955L386.6790364583333,30.38259485267832L387.5017578125,18.527717531342724L388.32447916666666,46.74201540650093L389.14720052083334,41.506377700931786L389.969921875,25.1690679468912L390.79264322916663,29.78177743805658L391.61536458333336,18.271495171864107L392.43808593750003,25.18047013168288L393.26080729166665,42.142765660552726L394.0835286458333,65.99520590512071L394.90625,53.93338257627551L395.7289713541667,72.59117163560906L396.55169270833335,58.163456521404484L397.3744140625,49.61049130175872L398.19713541666664,30.031335016574666L399.0198567708333,31.907789382747524L399.84257812500005,33.77291862476571L400.66529947916666,68.05708930962506L401.48802083333334,67.97549058528672L402.31074218749995,69.94352170712905L403.1334635416667,56.202958025498134L403.95618489583336,48.3318302047032L404.77890625,57.06720230983363L405.60162760416665,61.46431387857592L406.4243489583333,51.5453914277315L407.2470703125,59.69374273017404L408.0697916666667,63.96492111417864L408.89251302083335,52.23507000859504L409.71523437499997,31.884498237227962L410.53795572916664,33.711326872024294L411.36067708333337,34.51035282487474L412.1833984375,35.17639748594048L413.00611979166666,35.37317915928889L413.82884114583334,21.49610488803702L414.6515625,26.799237914511657L415.4742838541667,45.56772298552342L416.29700520833336,56.237246950493756L417.1197265625,60.46160543347983L417.94244791666665,50.210954379472675L418.7651692708334,44.22403301586721L419.587890625,53.660965646922634L420.4106119791667,46.71167853976494L421.23333333333335,42.2731403025699L422.05605468749997,53.52448073915913L422.8787760416667,46.46630682118098L423.7014973958333,55.74679636077506L424.52421875,33.69854102847828L425.34694010416666,61.439038557516646L426.16966145833334,51.4643425681037L426.9923828125,45.40613376962202L427.8151041666667,41.86044048516186L428.6378255208333,39.39671018343115L429.460546875,50.4283921378907L430.2832682291667,57.01142743361331L431.1059895833333,72.79682228048048L431.9287109375,87.22852830481175L432.7514322916667,65.92053803391246L433.5741536458333,68.42132190482012L434.396875,55.5256224580776L435.2195963541667,47.69591662670203L436.0423177083333,29.027928395897302L436.8650390625,31.42310921038992L437.68776041666666,45.96070042613633L438.51048177083334,42.084749967595805L439.333203125,39.68007486459077L440.1559244791667,51.038836056449746L440.9786458333333,45.18646212581317L441.80136718750003,41.617069627782804L442.62408854166665,52.51900276299784L443.4468098958333,45.85983931038656L444.26953125,54.98422072490388L445.0922526041666,59.53694021082121L445.91497395833335,50.25211639700053L446.7376953125,30.57868262182308L447.56041666666664,18.72640110618254L448.3831380208333,38.0726997945689L449.205859375,23.223558247445997L450.02858072916666,58.26619280979573L450.85130208333334,35.42617911056006L451.6740234375,49.98941687795708L452.49674479166663,30.211947866280088L453.31946614583336,32.907730090617655L454.14218750000003,34.64253313493696L454.96490885416665,35.15941749448758L455.7876302083333,35.05510600206362L456.6103515625,34.51980795548626L457.4330729166667,21.027646190680663L458.25579427083335,12.924674105857356L459.078515625,22.127305531629673L459.90123697916664,41.11096882923166L460.7239583333333,38.56947317375974L461.54667968750005,37.82879974898239L462.36940104166666,50.0933164704832L463.19212239583334,44.327314863979346L464.01484374999995,41.22290017937391L464.8375651041667,38.380726100055995L465.66028645833336,36.883479483275764L466.4830078125,36.39751597365688L467.30572916666665,36.599101594692186L468.1284505208333,36.54870003152237L468.951171875,36.060394854118464L469.7738932291667,35.29349786828166L470.59661458333335,35.260048550070564L471.41933593749997,35.37086482340169L472.24205729166664,21.63688906749531L473.06477864583337,57.10390590143466L473.8875,48.23912488241356L474.71022135416666,57.07761677515122L475.53294270833334,48.40253225381146L476.3556640625,42.7571891826091L477.1783854166667,40.205340517622105L478.00110677083336,38.42303899685262L478.823828125,37.65556677579711L479.64654947916665,36.52802326249975L480.4692708333334,36.609952293681516L481.2919921875,35.80202642991979L482.1147135416667,35.920836066692154L482.93743489583335,21.890633283310603L483.76015624999997,27.782833278091815L484.5828776041667,31.132973831601188L485.4055989583333,45.488547909800566L486.2283203125,41.78945861038226L487.05104166666666,53.760824214080976L487.87376302083334,59.0680282198548L488.696484375,50.057243506619905L489.5192057291667,44.94046292526103L490.3419270833333,41.423137191191785L491.1646484375,38.99808803370919L491.9873697916667,65.2068628299911L492.8100911458333,67.84942128686185L493.6328125,82.05700103871868L494.4555338541667,49.686257444100605L495.27825520833335,57.602388621733866L496.10097656249997,48.80654151044263L496.92369791666664,43.740904581558524L498.569140625,40.026660882480066L499.39186197916666,38.5157009362263L500.2145833333334,36.942503752653764L501.03730468749995,36.558501915898894L501.86002604166663,36.05766926477374L502.6827473958333,35.67629128664742L503.50546875000003,35.06080727320915L504.3281901041667,49.44024089468718L505.1509114583334,57.993581487495916L505.97363281249994,49.08223583707762L506.7963541666666,43.99836042314503L507.61907552083335,61.67712684959009L508.441796875,51.39990678602364L509.2645182291667,70.88112412532513L510.08723958333337,42.849566709043614L510.9099609375,39.614678929234785L511.73268229166666,37.82002687048034L512.5554036458333,36.84368247360656L513.3781250000001,22.448360897127763L514.2008463541667,42.201594907417295L515.0235677083333,25.633390144332918L515.8462890625,15.619259499922173L516.6690104166667,36.84919907153535L517.4917317708333,36.11010666215948L518.314453125,48.99699221995194L519.1371744791667,66.65696132318213L519.9598958333332,69.57483170113584L520.7826171875,56.30174231291787L521.6053385416667,48.31268802691084L522.4280598958334,43.7005594409024L523.25078125,40.72160034349651L524.0735026041667,38.45280435282639L524.8962239583333,51.628379450074746L525.7189453125,45.397829916138654L526.5416666666666,42.156865063940955L527.3643880208333,53.43528609158723L528.187109375,74.22037477995237L529.0098307291668,72.38208387676046L529.8325520833333,57.92686433972814L530.6552734375,48.646928326737296L531.4779947916667,56.824693250925165L532.3007161458333,34.50719330326968L533.1234375,48.039718813993005L533.9461588541667,42.83126848322001L534.7688802083333,39.57861881698277L535.5916015624999,37.74800719717211L536.4143229166667,49.10694299017826L537.2370442708334,29.915359979363927L538.0597656250001,32.36910755866327L538.8824869791666,46.904754269084705L539.7052083333333,28.452411083675223L540.5279296875,58.28065905254886L541.3506510416667,49.60790483094343L542.1733723958333,43.69533115540197L542.99609375,41.003462182010686L543.8188151041667,24.928474193170977L544.6415364583333,29.487723553988555L545.4642578125,31.440616554268136L546.2869791666667,33.37494314423074L547.1097005208334,34.100208104556074L547.932421875,34.93111335760665L548.7551432291666,49.34622709659526L549.5778645833333,44.37317458193178L550.4005859375,54.538686304334874L551.2233072916666,47.06137535681964L552.0460286458334,28.721942432109365L552.8687500000001,30.908875328650407L553.6914713541667,32.63769058415312L554.5141927083333,33.723159669095345L555.3369140625,64.65428117743377L556.1596354166667,53.16687342447783L556.9823567708333,71.88068093945233L557.8050781249999,71.40950097089795L558.6277994791666,43.15109383395788L559.4505208333334,40.517344563314126L560.2732421875,52.65703942841815L561.0959635416667,31.871560356536705L561.9186848958334,47.72001781792592L562.74140625,42.950581918782895L563.5641276041666,54.22911611904314L564.3868489583333,46.63767093485365L565.2095703125,42.52435466662513L566.0322916666667,40.26092960295357L566.8550130208333,38.66169701348112L567.677734375,37.38810643440702L568.5004557291667,36.905873717821976L569.3231770833333,36.62053344700177L570.1458984375,65.85254504378702L570.9686197916667,53.557294879055405L571.7913411458334,46.4675941820719L572.6140624999999,28.274918575512068L573.4367838541666,60.237404514447896L574.2595052083333,50.498925985035875L575.0822265625001,44.80767556782821L575.9049479166667,27.231175164915697L576.7276692708333,30.846248037181798L577.550390625,59.51333109769971L578.3731119791667,78.27950659319012L579.1958333333333,61.00186667564061L580.0185546875,63.516978647962475L580.8412760416667,64.55229125371895L581.6639973958332,39.13484633464403L582.48671875,38.119234827153676L583.3094401041667,51.26696771513981L584.1321614583334,31.163010966608308L584.9548828125,32.4204467472013L585.7776041666667,46.21071000388718L586.6003255208333,55.33570926649244L587.423046875,46.605562217610355L588.2457682291666,28.168556810603853L589.0684895833333,31.352033744565446L589.8912109375,46.7031225294541L590.7139322916668,28.370705177943144L591.5366536458333,44.84218824348463L592.359375,41.06129460502633L593.1820963541667,51.81680020051582L594.0048177083333,58.202947246774286L594.8275390625,49.0268469003107L595.6502604166667,72.40734434624112L596.4729817708333,58.28469374763722L597.2957031249999,49.34464483134605L598.1184244791667,44.20288745422755L598.9411458333334,55.144074025270875L599.7638671875001,47.67583659655902L600.5865885416666,43.01592392448818L601.4093098958333,40.818688082720215L602.23203125,39.12144557668295L603.0547526041667,37.82663541241597L603.8774739583333,71.42417643787932L604.7001953125,43.07383676816507L605.5229166666667,40.254478879746664L606.3456380208333,52.86507331417615L607.168359375,45.39920634202128L607.9910807291667,53.98533490140415L608.8138020833334,60.62764637541286L609.6365234375,50.43405108208363L610.4592447916666,57.662164963215005L611.2819661458333,35.08647739513481L612.1046875,35.80153972687583L612.9274088541666,21.951753290547497L613.7501302083334,27.710748202355834L614.5728515625001,17.09298591253289L615.3955729166667,38.491438703281446L616.2182942708333,36.5626878374474L617.041015625,35.56689584455828L617.8637369791667,61.82449859071936L618.6864583333333,50.54544131141398L619.5091796874999,43.93881587327419L620.3319010416666,39.85544305790002L621.1546223958334,37.759595851829864L621.97734375,37.19584402843192L622.8000651041667,36.423904518865825L623.6227864583334,35.70148428236441L624.4455078125,34.9941525933444L625.2682291666666,34.917674814063254L626.0909505208333,21.196119208811485L626.913671875,53.47970265321659L627.7363932291667,46.48474096448854L628.5591145833333,28.249291206310012L629.3818359375,58.192513078278225L630.2045572916667,49.21948349393958L631.0272786458333,57.613618135914535L631.85,61.78326548604092L632.6727213541667,51.15819168298196L633.4954427083334,31.014529566101732L634.3181640624999,45.52863857706339L635.1408854166666,41.454642435788855L635.9636067708333,51.880955932664655L636.7863281250001,58.698250866727726L637.6090494791667,49.79343117189208L638.4317708333333,30.07440778322103L639.2544921875,44.558914201182645L640.0772135416667,40.971971384479104L640.8999348958333,39.661111907835945L641.72265625,37.35714520256283L642.5453776041667,50.751444897416626L643.3680989583332,57.180271723606246L644.1908203125,49.0493211152184L645.0135416666667,43.52552199042014L645.8362630208334,53.211037681556746L646.658984375,80.14547697905125L647.4817057291667,75.53015398528231L648.3044270833333,73.12787461773189L649.1271484375,58.25724668226022L649.9498697916666,61.68013310457098L650.7725911458333,78.00468813910972L651.5953125,47.271705272763356L652.4180338541668,55.2307832954939L653.2407552083333,59.798311224854956L654.0634765625,50.3056026101571L654.8861979166667,57.339066705254425L655.7089192708333,48.56180766841636L656.531640625,57.0147010561279L657.3543619791667,47.71445109632321L658.1770833333333,28.891192902247397L658.9998046874999,31.533651349258538L659.8225260416667,33.53902726585397L660.6452473958334,46.289947853653054L661.4679687500001,42.410772636752384L662.2906901041666,51.756920674336556L663.1134114583333,45.36455676251214L663.9361328125,54.28064055164787L664.7588541666667,59.65147441887935L665.5815755208333,65.80402259078075L666.404296875,66.49805173806222L667.2270182291667,40.174078400205765L668.0497395833333,38.52910704378555L668.8724609375,36.813171776320175L669.6951822916667,36.78235918151478L670.5179036458334,22.311205874128017L671.340625,27.262428785707222L672.1633463541666,43.94945275482276L672.9860677083333,54.58121468267883L673.8087890625,46.990108600867096L674.6315104166666,42.13906491637963L675.4542317708334,39.85988255334337L676.2769531250001,63.93109029860762L677.0996744791667,52.739330967494595L677.9223958333333,45.59298975481322L678.7451171875,41.69636465366916L679.5678385416667,25.331417632914974L680.3905598958333,29.856338952551763L681.2132812499999,47.59986825190215L682.0360026041666,71.18606230856317L682.8587239583334,56.847222224005094L683.6814453125,48.453386709647184L684.5041666666667,57.19157121035861L685.3268880208334,48.984453956683936L686.149609375,43.212526561022116L686.9723307291666,40.61002088046091L687.7950520833333,52.48138331685075L688.6177734375,45.72652637072568L689.4404947916667,27.732197013307605L690.2632161458333,44.581759858375165L691.0859375,41.35682089915596L691.9086588541667,51.921430124942795L692.7313802083333,45.49651844483876L693.5541015625,41.003712153329026L694.3768229166667,38.68742675488806L695.1995442708334,37.77505544868477L696.0222656249999,37.220327794357324L696.8449869791666,49.55064723813786L697.6677083333333,30.02571018316897L698.4904296875001,32.71020790921778L699.3131510416667,46.91485393254239L700.1358723958333,54.48315851431061L700.95859375,61.22217275751214L701.7813151041667,37.105912595585465L702.6040364583333,60.09846552610131L703.4267578125,63.4564682316764L704.2494791666667,52.67325868558784L705.0722005208332,32.01381260938588L705.894921875,48.32376540986983L706.7176432291667,43.32447808747461L707.5403645833334,39.69025811102973L708.3630859375,37.867924092692085L709.1858072916667,36.783233947802756L710.0085286458333,49.822064209013675L710.83125,43.83497259523245L711.6539713541666,41.09741403809647L712.4766927083333,52.89984460205708L713.2994140625,59.64004671484753L714.1221354166668,50.30720200962147L714.9448567708333,44.65739389864393L715.767578125,40.698204375075015L716.5902994791667,51.17142970512313L717.4130208333333,44.304107395827806L718.2357421875,26.860955079090594L719.0584635416667,16.34917120342968L719.8811848958333,24.483936376842983L720.7039062499999,29.296080667658522L721.5266276041667,32.46337282686463L722.3493489583334,34.10737672346253L723.1720703125001,47.52787067519081L723.9947916666666,55.83610302034888L724.8175130208333,47.80649060859601L725.640234375,43.167457078780664L726.4629557291667,40.52218964033482L728.1083984375,24.777173178274403L728.9311197916667,29.42087891917166L729.7538411458333,45.72230420697176L730.5765625,27.61598248212598L731.3992838541667,43.96844575148264L732.2220052083334,41.0128754953232L733.0447265625,53.39403614924469L733.8674479166666,46.80691253427337L734.6901692708333,42.075256285212475L735.512890625,38.81820339270952L736.3356119791666,53.80998111765694L737.1583333333334,46.766960960633206L737.9810546875001,42.86741391158499L738.8037760416667,40.169075300076L739.6264973958333,64.53227379332682L740.44921875,77.89042042833985L741.2719401041667,60.7273779589082L742.0946614583333,36.73702371633917L742.9173828124999,50.73578136847539L743.7401041666666,30.938564148462557L744.5628255208334,33.31671502716347L745.385546875,20.23540845565201L746.2082682291667,25.846227525783764L747.0309895833334,44.311221867032735L747.8537109375,72.89341769053217L748.6764322916666,72.21099202056931L749.4991536458333,43.581964531303626L750.321875,41.02701947805957L751.1445963541667,25.004036047683194L751.9673177083333,43.555930661813036L752.7900390625,40.83185014513471L753.6127604166667,38.55834690348708L754.4354817708333,38.00475991211179L755.258203125,51.02952556396626L756.0809244791667,45.39340296045007L756.9036458333334,41.421611966699736L757.7263671874999,53.16858558822296L758.5490885416666,72.65212693887125L759.3718098958333,57.7574947302173L760.1945312500001,34.95225759939135L761.0172526041667,63.0121610781895L761.8399739583333,52.52422758563438L762.6626953125,31.94039639177373L763.4854166666667,48.25423624815013L764.3081380208333,43.27514154137058L765.130859375,40.3164997502618L765.9535807291667,62.51585309722741L766.7763020833332,37.86436559521388L767.5990234375,50.988704012890054L768.4217447916667,45.01764080373012L769.2444661458334,55.77714368633961L770.0671875,48.00115825159867L770.8899088541667,74.9324024704905L771.7126302083333,103.21146394323179L772.5353515625,89.55552387375158L773.3580729166666,81.255084282747L774.1807942708333,62.87796838581029L775.003515625,51.9731956433026L775.8262369791668,59.47021896068862L776.6489583333333,36.626680727151644L777.4716796875,64.69062953004101L778.2944010416667,53.20177350049529L779.1171223958333,32.26778526118584L779.93984375,47.466765272922444L780.7625651041667,57.35097871941752L781.5852864583333,48.79389515401381L782.4080078124999,72.08333550549423L783.2307291666667,56.77117076740784L784.0534505208334,48.32073813549357L784.8761718750001,69.38279822797584L785.6988932291666,56.29029050905111L786.5216145833333,60.9707509655869L787.3443359375,64.54545631665682L788.1670572916667,52.525125627152306L788.9897786458333,45.52437109162343L789.8125,69.4988219957944L790.6352213541667,56.17171806319925L791.4579427083333,48.33653102102504L792.2806640625,58.22458175958767L793.9261067708334,63.684356782803405L794.748828125,65.58131109116641L795.5715494791666,53.42267303775648L796.3942708333333,59.711576784079696L797.2169921875,36.09349806858626L798.0397135416666,36.093244562587294L798.8624348958334,21.851349371219353L799.6851562500001,26.988666342702327L800.5078776041667,30.780928168658516L801.3305989583333,46.93630671808961L802.1533203125,42.48945492929133L802.9760416666667,53.746914107477146L803.7987630208333,46.683895870492165L804.6214843749999,42.45904147126989L805.4442057291666,39.978594987742426L806.2669270833334,37.79360227462788L807.0896484375,36.81074437258924L807.9123697916667,50.289944914569176L808.7350911458334,43.62591891407355L809.5578125,54.089290362116L810.3805338541666,45.921528929183694L811.2032552083333,54.14421990877977L812.0259765625,46.40569915107838L812.8486979166667,66.87614507658452L813.6714192708333,53.81654474248392L814.494140625,46.493100765168094L815.3168619791667,42.647630692255134L816.1395833333333,52.824350388009364L816.9623046875,46.29179669520798L817.7850260416667,55.35341071976148L818.6077473958334,60.005727706270946L819.4304687499999,49.89218338889925L820.2531901041666,43.45074994422823L821.0759114583333,40.37578675852912L821.8986328125001,38.62723243109403L822.7213541666667,37.49579746646893L823.5440755208333,22.799256825943072L824.366796875,56.81731251841744L826.0122395833333,34.45773205450749L826.8349609375,35.2257379265521L827.6576822916667,35.344109046214484L828.4804036458332,50.402661472650564L829.303125,44.31433540898098L830.1258463541667,41.36784218166787L830.9485677083334,38.69937977799487L831.7712890625,23.81546152120062L832.5940104166667,28.003518337280923L833.4167317708333,43.552871073169335L834.239453125,39.890312792827395L835.0621744791666,38.225934257727694L835.8848958333333,50.91683820356236L836.7076171875,58.14077443092647L837.5303385416668,76.24355523472778L838.3530598958333,60.15882692745779L839.17578125,65.15511927659185L839.9985026041667,53.32942538675589L840.8212239583333,46.36195579968047L841.6439453125,55.72512452961303L842.4666666666667,74.50562733007249L843.2893880208333,58.95449218173489L844.1121093749999,78.8584431117753L844.9348307291667,47.65241878473639L845.7575520833334,42.81467154672075L846.5802734375001,39.437952677788296L847.4029947916666,38.50883697532536L848.2257161458333,37.20998071302722L849.0484375,50.01868209236711L849.8711588541667,57.472274624072625L850.6938802083333,49.06930807278339L851.5166015625,43.253781804119285L852.3393229166667,53.39980442182703L853.1620442708333,60.172095177510265L853.984765625,51.00333639117413L854.8074869791667,45.25550412352287L855.6302083333334,41.28780671605707L856.4529296875,39.10755802255415L857.2756510416666,52.20691024077859L858.0983723958333,45.748862788754295L858.92109375,54.12461296133849L859.7438151041666,59.59264051850231L860.5665364583334,64.59301332721465L861.3892578125001,53.07932465892645L862.2119791666667,72.91385334027773L863.0347005208333,57.16100936134435L863.857421875,34.53831140828L864.6801432291667,35.172403226803965L865.5028645833333,21.31713160950612L866.3255859374999,39.80744290613338L867.1483072916666,37.74850480618005L867.9710286458334,37.4424411405439L868.79375,22.75257211287707L869.6164713541667,52.25869951772628L870.4391927083334,45.24346998529398L871.2619140625,55.00466011617639L872.0846354166666,60.8965303226355L872.9073567708333,36.886297613861785L873.730078125,36.83169873433268L874.5527994791667,64.33365705798244L875.3755208333333,53.430231191576546L876.1982421875,46.71681211582482L877.0209635416667,71.26286388082309L877.8436848958333,43.1263351841152L878.66640625,26.122903304301477L879.4891276041667,29.63355326187773L880.3118489583334,32.09435424716571L881.1345703124999,46.708496825643195L881.9572916666666,56.33242750212418L882.7800130208333,47.883620502739404L883.6027343750001,42.844937285774485L884.4254557291667,55.38207437097643L885.2481770833333,61.73833501565224L886.0708984375,37.35656483690602L886.8936197916667,37.05375716996588L887.7163411458333,36.43613799948928L888.5390625,36.48624526917601L889.3617838541667,22.201475080130447L890.1845052083332,28.02009455125213L891.0072265625,46.266785368446584L892.6526692708334,42.20314473791362L893.475390625,25.743631166478714L894.2981119791667,43.1976494030122L895.1208333333333,55.50285361885812L895.9435546875,62.264676282642995L896.7662760416666,51.942751600884584L897.5889973958333,72.20020491560891L898.41171875,70.36704799819344L899.2344401041668,56.49539118294931L900.0571614583333,47.96855721953515L900.8798828125,42.95599944402579L901.7026041666667,54.340015682040494L902.5253255208333,47.24630747440986L903.348046875,56.433525146267L904.1707682291667,48.41398828722308L904.9934895833333,69.1161870397167L905.8162109374999,55.58205847627139L906.6389322916667,33.70775536278617L907.4616536458334,33.95203969228109L908.2843750000001,49.41595220892337L909.1070963541666,43.413558263830545L909.9298177083333,52.910907175095254L910.7525390625,58.739549248904765L911.5752604166667,76.63322552102255L912.3979817708333,81.79928602062138L913.220703125,76.94909376813455L914.0434244791667,73.95640523549012" style="fill: none;" fill="none"></path></g></g></g></g><g opacity="0.2"><g><g><g><path stroke="rgb(255, 112, 67)" stroke-width="2px" d="M82.27213541666666,393.95756591796874L83.09485677083333,348.7168225097656L83.917578125,322.3260791015625L84.74029947916667,477.1134020996094L85.56302083333334,276.4651739501953L86.3857421875,475.51567626953124L88.03118489583333,469.5631359863281L88.85390625,345.2757629394531L89.67662760416667,384.8240881347656L90.49934895833333,342.0092980957031L91.3220703125,358.8437768554687L92.14479166666668,461.66127319335936L92.96751302083332,410.27746459960935L93.790234375,334.57482666015625L94.61295572916667,486.84521728515625L95.43567708333333,382.61981201171875L96.2583984375,372.89252807617186L97.08111979166667,288.26954040527346L97.90384114583334,397.2563159179688L98.7265625,418.52058715820317L99.54928385416666,352.0805676269531L100.37200520833333,349.02377929687503L101.1947265625,434.53752929687505L102.84016927083334,309.1053076171875L103.662890625,309.38734252929686L104.48561197916666,378.8285009765625L105.30833333333334,313.08774536132813L106.1310546875,305.4086218261719L106.95377604166667,347.6481201171875L107.77649739583333,369.4079968261719L108.59921875,249.36309509277342L109.42194010416667,310.8104736328125L110.24466145833333,328.26923828125L111.0673828125,382.5389929199219L111.89010416666666,317.30156005859374L112.71282552083333,348.71126464843746L113.53554687500001,339.53997924804685L114.35826822916667,403.17809326171874L116.00371093749999,486.29587402343753L116.82643229166666,375.51633422851563L117.64915364583334,336.33164184570313L118.471875,307.7308874511719L119.29459635416667,451.97501831054683L120.11731770833335,248.01352600097658L120.94003906249999,460.15491577148435L121.76276041666667,289.5186608886719L122.58548177083333,440.5266735839844L123.408203125,341.1988061523437L124.23092447916666,350.44953002929685L125.05364583333335,372.5499230957031L125.87636718750001,484.0144958496094L129.16725260416666,394.93107666015624L129.9899739583333,284.57786376953123L130.8126953125,255.6379205322266L131.63541666666666,345.82659301757815L132.45813802083333,267.2184680175782L133.280859375,319.33467529296877L134.10358072916668,298.5727001953125L134.92630208333333,340.47932861328127L135.7490234375,331.05121337890625L136.57174479166667,338.54490966796874L137.39446614583332,341.3125830078125L138.21718750000002,282.12629821777347L139.03990885416667,313.8037890625L139.86263020833334,344.4524206542969L140.6853515625,352.03798095703127L141.50807291666666,333.7363330078125L142.33079427083334,217.01701477050784L143.15351562499998,266.95091186523433L143.97623697916669,290.4518682861328L144.79895833333333,255.0328924560547L145.6216796875,146.50106506347655L146.44440104166668,188.65149597167968L147.26712239583333,177.84936767578125L148.08984375,171.50053771972657L148.91256510416667,73.71035263061525L149.73528645833335,145.90759521484372L150.5580078125,127.3385238647461L151.38072916666667,36.67180229187014L152.20345052083334,70.03179626464843L153.026171875,37.52418838500976L153.84889322916666,34.50260795593261L154.67161458333334,36.60552833557128L155.4943359375,35.466381378173814L156.31705729166666,109.31856567382812L157.9625,35.433001022338864L158.78522135416665,35.47270698547365L159.60794270833333,0.8934434938430772L160.4306640625,70.52316696166994L161.25338541666667,35.40069816589356L162.07610677083332,35.94576240539552L162.898828125,36.529019241333025L163.72154947916667,140.32524566650392L164.54427083333331,68.8218020629883L165.36699218750002,34.76326324462889L166.18971354166666,118.88493713378905L167.01243489583334,0.5883974289894063L167.83515625,34.32615470886228L168.65787760416666,0.4623278570175269L169.48059895833333,1.2537814426422047L170.30332031249998,71.38732589721678L171.12604166666668,107.52554473876955L171.94876302083333,35.33040405273438L172.771484375,36.7429902648926L173.59420572916667,34.733343276977536L174.41692708333332,100.53860504150393L176.06236979166667,0.5125309693813136L176.88509114583334,105.023586730957L177.7078125,100.98800415039062L178.5305338541667,67.38002822875976L179.35325520833334,0.6246712827682298L180.17597656249998,70.03225646972658L180.99869791666666,33.93130096435546L181.82141927083333,35.195984344482426L182.644140625,65.81725585937502L183.46686197916665,0.500498673915866L184.28958333333335,35.50144546508788L185.1123046875,35.526307601928714L185.93502604166665,34.90251068115234L186.75774739583335,69.53740768432618L187.58046875,0.526271022558224L188.40319010416667,0.7428079867362843L189.22591145833334,0.700199260711674L190.04863281250002,70.66967590332033L190.87135416666666,34.38969177246095L191.6940755208333,36.62433258056642L192.516796875,100.04673431396483L193.33951822916666,35.712451705932615L194.16223958333333,70.42655487060546L194.9849609375,34.713264617919926L195.80768229166668,71.14997955322264L196.63040364583333,66.0040460205078L197.453125,34.91469284057617L198.27584635416667,112.91667907714846L199.09856770833332,36.106278839111326L199.92128906250002,35.94787979125979L200.74401041666667,34.48923545837403L201.56673177083334,67.36748764038084L202.389453125,93.73065856933594L203.21217447916666,36.12647918701174L204.03489583333334,101.34111419677734L204.85761718749998,35.436302108764664L205.68033854166669,36.228162384033205L206.50305989583333,98.37434020996096L207.32578125,67.91720260620119L208.14850260416668,0.6193676543235787L208.97122395833333,111.31106781005859L209.7939453125,35.47614082336425L210.61666666666667,100.7426351928711L211.43938802083335,73.08864654541014L212.262109375,35.48856636047365L213.08483072916667,103.6489895629883L213.90755208333334,34.893357467651384L214.7302734375,72.20499969482421L215.55299479166666,35.561528778076166L216.37571614583334,1.0009692764282025L217.1984375,35.26071617126467L218.02115885416666,35.712088851928705L218.84388020833333,69.13361755371092L219.6666015625,34.8928441619873L220.48932291666665,67.9243490600586L221.31204427083333,36.40447402954102L222.134765625,70.8866847229004L222.95748697916667,72.89116104125975L223.78020833333332,35.82206901550293L224.6029296875,36.276594543457016L225.42565104166667,35.89370391845703L226.24837239583331,36.057975006103526L227.07109375000002,35.652421493530284L227.89381510416666,35.975908050537114L228.71653645833334,36.7395962524414L229.5392578125,34.81998573303222L230.36197916666666,35.91256790161132L231.18470052083333,69.5359828186035L232.00742187499998,36.56084419250486L232.83014322916668,36.86817710876465L233.65286458333333,103.36810516357424L234.4755859375,36.829858398437516L235.29830729166667,35.448470993042L236.94375,36.54454452514648L237.76647135416667,34.44115730285647L238.58919270833334,68.96857650756837L239.4119140625,85.3452795410156L240.2346354166667,34.46163200378418L241.05735677083334,1.172708601951594L241.88007812499998,112.37351318359377L242.70279947916666,69.66217636108397L243.52552083333333,33.880797882080074L244.3482421875,1.1862593460083173L245.17096354166665,34.050173263549794L245.99368489583335,70.45157852172849L246.81640625,35.42120605468752L247.63912760416667,0.6487485957145596L248.46184895833332,36.53661705017092L249.2845703125,34.69355987548827L250.1072916666667,35.99448883056639L250.93001302083331,35.91532913208009L251.75273437500002,35.643215179443374L252.5754557291667,36.59692825317384L253.3981770833333,34.34971588134765L254.2208984375,0.6373988986015416L255.04361979166669,35.21956985473632L255.86634114583333,0.5922396850585894L256.68906250000003,36.70423568725586L257.51178385416665,37.29046173095704L258.3345052083333,68.06638870239257L259.1572265625,35.18435089111329L259.9799479166666,36.40058219909666L260.80266927083335,36.32003303527833L261.625390625,35.500806045532215L262.44811197916664,114.04755340576173L263.2708333333333,71.59355529785155L264.0935546875,35.47496154785154L264.91627604166666,35.277119827270525L265.73899739583334,36.74283538818359L266.56171875,69.7118962097168L267.38444010416663,0.9735565829277063L268.20716145833336,35.06747428894041L269.02988281250003,35.53284561157225L269.85260416666665,1.1034148263931285L270.6753255208333,35.15775413513185L271.498046875,0.9381990599632397L272.3207682291667,67.6193702697754L273.14348958333335,67.04174652099607L273.9662109375,36.641824798584004L274.78893229166664,68.36555740356444L275.6116536458333,34.539641189575185L276.43437500000005,70.29567520141599L277.25709635416666,0.5437229657173095L278.07981770833334,73.364207611084L278.90253906249995,34.951522521972635L280.54798177083336,100.45935241699219L281.370703125,35.51401481628416L282.19342447916665,0.8849969053268442L283.0161458333333,1.0365017271041932L283.8388671875,36.25629020690918L284.6615885416667,0.43734237194062464L285.48430989583335,34.389205017089864L286.30703124999997,0.9420976662635832L287.12975260416664,36.161319808959945L287.95247395833337,66.81685226440432L288.7751953125,73.90251037597656L289.59791666666666,68.64680908203124L290.42063802083334,110.29158081054689L291.243359375,36.08309158325196L292.0660807291667,33.88324493408205L293.7115234375,68.13267150878904L294.53424479166665,36.06331382751465L295.3569661458334,67.139119720459L296.1796875,35.61333946228026L297.0024088541667,1.6396862173080267L297.82513020833335,35.50208488464356L298.64785156249997,36.11570419311522L299.4705729166667,35.57702087402346L300.2932942708333,0.7620900678634739L301.116015625,94.87424163818359L301.93873697916666,66.449776763916L302.76145833333334,35.5670844268799L303.5841796875,36.46377853393553L304.4069010416667,0.8361976051330646L305.2296223958333,102.65892028808595L306.8750651041667,34.881830215454094L307.6977864583333,36.5519918823242L308.5205078125,34.135220489501954L309.3432291666667,36.07741203308104L310.1659505208333,66.3114276123047L310.988671875,1.1458493161201366L311.8113932291667,67.75261291503907L312.6341145833333,70.47877487182616L313.4568359375,68.56610061645507L314.27955729166666,35.058615341186545L315.10227864583334,70.31097259521484L315.925,70.87546722412111L316.7477213541667,36.0563045501709L317.5704427083333,36.957321929931624L318.39316406250003,106.17717041015625L319.21588541666665,36.029887008667004L320.0386067708333,0.6930066204071068L320.861328125,34.16687507629396L321.6840494791666,36.850189285278304L322.50677083333335,35.74598030090332L323.3294921875,70.79609512329102L324.15221354166664,37.050774536132806L324.9749348958333,33.79799194335939L325.79765625,35.38952270507814L326.62037760416666,36.626410140991226L327.44309895833334,0.7117227101325991L328.2658203125,66.62605743408203L329.08854166666663,35.16073219299315L329.91126302083336,36.46346214294432L330.73398437500003,67.7754948425293L331.55670572916665,69.01560150146483L332.3794270833333,111.8815982055664L333.2021484375,36.47538101196289L334.0248697916667,1.401333589553833L334.84759114583335,33.78133163452147L335.6703125,131.31797027587888L336.49303385416664,34.84513992309572L337.3157552083333,70.65704681396485L338.13847656250005,35.51979614257813L338.96119791666666,69.28545867919922L339.78391927083334,130.40402069091797L340.60664062499995,35.37119415283202L341.4293619791667,99.40434997558594L342.25208333333336,34.730409469604474L343.0748046875,36.50060379028321L343.89752604166665,100.36673614501954L344.7202473958333,35.73280693054199L345.54296875,35.7959811401367L346.3656901041667,36.13676521301271L347.18841145833335,34.733927383422845L348.01113281249997,67.5605613708496L348.83385416666664,0.6449882030486893L349.65657552083337,35.776271972656254L350.479296875,36.34170471191408L351.30201822916666,0.5328198873996943L352.12473958333334,36.83161071777345L352.9474609375,36.871852111816395L353.7701822916667,36.55699882507324L354.59290364583336,34.49601463317872L355.415625,35.07747932434083L356.23834635416665,36.514062576293924L357.0610677083334,67.22369567871094L357.8837890625,70.06181579589844L358.7065104166667,34.63140563964842L359.52923177083335,0.7518901228904628L360.35195312499997,1.5280477666854655L361.1746744791667,34.62739654541018L361.9973958333333,68.6422512817383L362.8201171875,34.36799797058104L363.64283854166666,0.5046466732025091L364.46555989583334,37.12587203979492L365.28828125,36.16320930480956L366.1110026041667,101.56468536376951L366.9337239583333,69.46366867065429L367.7564453125,33.82407981872558L368.5791666666667,36.64390235900877L369.4018880208333,69.99747116088868L370.224609375,36.30512947082518L371.0473307291667,35.24706489562987L371.8700520833333,1.007662992477436L372.6927734375,68.52139877319337L373.5154947916667,35.41129173278808L374.3382161458333,107.33065673828125L375.1609375,35.67304443359375L375.98365885416666,35.157647933959964L376.80638020833334,37.06576217651369L377.6291015625,34.8064804840088L378.4518229166667,69.14452529907228L379.2745442708333,35.60001342773438L380.09726562500003,70.07669281005859L380.91998697916665,36.967568130493184L381.7427083333333,72.47844558715822L382.5654296875,36.87016174316407L383.3881510416666,0.7781442141532876L384.21087239583335,36.69930397033693L385.03359375,1.0065756058692834L385.85631510416664,36.090904006958006L386.6790364583333,36.3148667907715L387.5017578125,0.7454015493392899L388.32447916666666,89.06346221923826L389.14720052083334,33.652921142578144L389.969921875,0.6631033158302382L390.79264322916663,36.70084167480467L391.61536458333336,1.0060717725753805L392.43808593750003,35.54393257141114L393.26080729166665,67.58620895385744L394.0835286458333,101.77386627197266L394.90625,35.84064758300783L395.7289713541667,100.57785522460937L396.55169270833335,36.52188385009764L397.3744140625,36.781043472290044L398.19713541666664,0.6626005887985436L399.0198567708333,34.722470932006836L399.84257812500005,36.570612487792964L400.66529947916666,119.48334533691406L401.48802083333334,67.85309249877929L402.31074218749995,72.89556838989256L403.1334635416667,35.59211250305177L403.95618489583336,36.525138473510744L404.77890625,70.17026046752929L405.60162760416665,68.05998123168946L406.4243489583333,36.66700775146483L407.2470703125,71.9162696838379L408.0697916666667,70.37168869018554L408.89251302083335,34.64029335021974L409.71523437499997,1.358640580177309L410.53795572916664,36.45156982421875L411.36067708333337,35.70889175415038L412.1833984375,36.17546447753908L413.00611979166666,35.66835166931151L413.82884114583334,0.6804934811592155L414.6515625,34.75393745422364L415.4742838541667,73.72045059204102L416.29700520833336,72.24153289794921L417.1197265625,66.79814315795899L417.94244791666665,34.83497779846193L418.7651692708334,35.24365097045897L419.587890625,67.81636459350584L420.4106119791667,36.287747879028316L421.23333333333335,35.61533294677734L422.05605468749997,70.40149139404296L422.8787760416667,35.879045944213864L423.7014973958333,69.667530670166L424.52421875,0.6261580300331162L425.34694010416666,103.04978485107421L426.16966145833334,36.50229858398437L426.9923828125,36.31882057189942L427.8151041666667,36.54190055847168L428.6378255208333,35.701114730834945L429.460546875,66.97591506958007L430.2832682291667,66.88598037719724L431.1059895833333,96.47491455078126L431.9287109375,108.8760873413086L432.7514322916667,33.95855262756348L433.5741536458333,72.17249771118162L434.396875,36.18207328796389L435.2195963541667,35.951357879638664L436.0423177083333,1.025946049690258L436.8650390625,35.01588043212889L437.68776041666666,67.76708724975586L438.51048177083334,36.27082427978517L439.333203125,36.073062210083L440.1559244791667,68.0769778442383L440.9786458333333,36.40790122985842L441.80136718750003,36.262980880737295L442.62408854166665,68.87190246582033L443.4468098958333,35.871094131469725L444.26953125,68.6707928466797L445.0922526041666,66.36601943969727L445.91497395833335,36.32488067626954L446.7376953125,1.068531959056869L447.56041666666664,0.9479788327217072L448.3831380208333,67.09214782714844L449.205859375,0.949845926761647L450.02858072916666,110.83014465332032L450.85130208333334,1.1661585617065486L451.6740234375,71.83427352905272L452.49674479166663,0.5457443487644229L453.31946614583336,36.95140342712401L454.14218750000003,37.24473770141601L454.96490885416665,35.93474403381349L455.7876302083333,34.898638763427726L456.6103515625,33.71686088562012L457.4330729166667,0.7894035434722891L458.25579427083335,0.7702159786224381L459.078515625,35.9312526702881L459.90123697916664,69.58646377563475L460.7239583333333,34.757229690551775L461.54667968750005,36.71778961181639L462.36940104166666,68.49009155273436L463.19212239583334,35.678312454223644L464.01484374999995,36.566278152465834L464.8375651041667,34.1174649810791L465.66028645833336,34.63760955810545L466.4830078125,35.6685707092285L467.30572916666665,36.90148002624512L468.1284505208333,36.47309768676758L468.951171875,35.3279370880127L469.7738932291667,34.14315238952635L470.59661458333335,35.20987457275391L471.41933593749997,35.53708923339844L472.24205729166664,1.0359254336357044L473.06477864583337,110.30443115234377L473.8875,34.94195335388182L474.71022135416666,70.33535461425782L475.53294270833334,35.38990547180176L476.3556640625,34.28917457580565L477.1783854166667,36.37756752014162L478.00110677083336,35.74958671569825L478.823828125,36.50435844421385L479.64654947916665,34.836707992553706L480.4692708333334,36.73284584045409L481.2919921875,34.59013763427736L482.1147135416667,36.09905052185059L482.93743489583335,0.8453291082382359L483.76015624999997,36.62113327026367L484.5828776041667,36.158184661865235L485.4055989583333,67.02190902709961L486.2283203125,36.24082466125487L487.05104166666666,71.71787261962889L487.87376302083334,67.02883422851563L488.696484375,36.54106643676759L489.5192057291667,37.26529205322266L490.3419270833333,36.14714859008791L491.1646484375,35.36051429748535L491.9873697916667,104.52002502441405L492.8100911458333,71.81325897216797L493.6328125,103.36837066650392L494.4555338541667,1.1301420521736243L495.27825520833335,69.4765853881836L496.10097656249997,35.61277084350586L496.92369791666664,36.14244918823241L498.569140625,34.45529533386231L499.39186197916666,36.24926101684572L500.2145833333334,34.58270797729492L501.03730468749995,35.982499160766594L501.86002604166663,35.30642028808595L502.6827473958333,35.10422431945802L503.50546875000003,34.13758125305174L504.3281901041667,71.00939132690431L505.1509114583334,70.82359237670899L505.97363281249994,35.71521736145017L506.7963541666666,36.37254730224608L507.61907552083335,88.1952764892578L508.441796875,35.984076690673824L509.2645182291667,100.10295013427734L510.08723958333337,0.8022305846214249L510.9099609375,34.7623472595215L511.73268229166666,35.12804878234865L512.5554036458333,35.3791658782959L513.3781250000001,0.8553785324096673L514.2008463541667,71.83144592285156L515.0235677083333,0.7810829997062825L515.8462890625,0.598063533306121L516.6690104166667,68.69410842895509L517.4917317708333,35.0014680480957L518.314453125,68.32732055664061L519.1371744791667,93.14691497802735L519.9598958333332,73.9516372680664L520.7826171875,36.39210823059082L521.6053385416667,36.3291065979004L522.4280598958334,36.78236656188963L523.25078125,36.253161697387704L524.0735026041667,35.04961036682129L524.8962239583333,71.39174209594727L525.7189453125,36.05200561523439L526.5416666666666,37.29541778564455L527.3643880208333,70.35291763305665L528.187109375,105.39800781249998L529.0098307291668,69.62464752197263L529.8325520833333,36.244035034179696L530.6552734375,34.727024307250986L531.4779947916667,69.09134063720703L532.3007161458333,1.0309433817863451L533.1234375,68.33850708007812L533.9461588541667,35.01859298706054L534.7688802083333,34.699644317626955L535.5916015624999,35.00208976745604L536.4143229166667,66.14534667968749L537.2370442708334,1.1279854631423845L538.0597656250001,36.04972892761229L538.8824869791666,68.7082243347168L539.7052083333333,0.7738963055610836L540.5279296875,103.02303100585938L541.3506510416667,36.598773498535174L542.1733723958333,34.826470642089845L542.99609375,36.96565872192383L543.8188151041667,0.8159922099113507L544.6415364583333,36.32659759521486L545.4642578125,34.369956054687506L546.2869791666667,36.27643302917481L547.1097005208334,35.18810554504393L547.932421875,36.17747123718262L548.7551432291666,70.96889770507813L549.5778645833333,36.9135958099365L550.4005859375,69.78695388793945L551.2233072916666,35.84540893554689L552.0460286458334,1.2127930450439368L552.8687500000001,34.18927467346191L553.6914713541667,35.23091346740724L554.5141927083333,35.35136329650881L555.3369140625,111.05096343994143L556.1596354166667,35.93576179504394L556.9823567708333,99.95139221191408L557.8050781249999,70.7027310180664L558.6277994791666,0.7634831285476779L559.4505208333334,36.56672065734865L560.2732421875,70.8665817260742L561.0959635416667,0.6933417487144475L561.9186848958334,71.49270401000975L562.74140625,35.79642807006834L563.5641276041666,71.14691741943362L564.3868489583333,35.250503158569344L565.2095703125,36.35438026428225L566.0322916666667,36.86579200744628L566.8550130208333,36.262848129272456L567.677734375,35.4777205657959L568.5004557291667,36.182524642944315L569.3231770833333,36.19252304077148L570.1458984375,109.70056243896484L570.9686197916667,35.114419631958015L571.7913411458334,35.83304313659669L572.6140624999999,0.9859051656723159L573.4367838541666,108.18113342285156L574.2595052083333,35.891208190917986L575.0822265625001,36.27079994201659L575.9049479166667,0.8664245605468653L576.7276692708333,36.26885734558103L577.550390625,102.51395568847656L578.3731119791667,106.42876983642579L579.1958333333333,35.08540679931639L580.0185546875,67.28964660644529L580.8412760416667,66.1052601623535L581.6639973958332,1.008678956031802L582.48671875,36.595817565917955L583.3094401041667,70.98856704711915L584.1321614583334,1.0070758438110516L584.9548828125,34.30660041809084L585.7776041666667,66.89610488891601L586.6003255208333,69.02320816040039L587.423046875,33.51034164428711L588.2457682291666,0.513048700094226L589.0684895833333,36.1272491455078L589.8912109375,69.72975570678712L590.7139322916668,0.872079150676731L591.5366536458333,69.5494128417969L592.359375,35.38995414733887L593.1820963541667,67.95005859375001L594.0048177083333,67.78216781616209L594.8275390625,35.26269638061525L595.6502604166667,107.4780905151367L596.4729817708333,37.10071784973145L597.2957031249999,35.9345714569092L598.1184244791667,36.490251388549794L598.9411458333334,71.55585388183593L599.7638671875001,36.47348045349119L600.5865885416666,36.02605491638183L601.4093098958333,37.52283432006835L602.23203125,36.57558181762697L603.0547526041667,35.884420166015644L603.8774739583333,121.8204879760742L604.7001953125,0.5483272635936759L605.5229166666667,36.02544204711916L606.3456380208333,71.7809649658203L607.168359375,34.200405883789045L607.9910807291667,66.86452774047852L608.8138020833334,70.59111358642579L609.6365234375,35.14365814208983L610.4592447916666,68.50433578491209L611.2819661458333,1.2229460430145143L612.1046875,36.87413322448732L612.9274088541666,1.177073636054993L613.7501302083334,36.34924057006837L614.5728515625001,1.1663424777984714L615.3955729166667,70.58911788940429L616.2182942708333,33.66956153869628L617.041015625,34.07320785522462L617.8637369791667,101.21090270996092L618.6864583333333,33.62685539245607L619.5091796874999,34.02887771606445L620.3319010416666,33.73038383483887L621.1546223958334,34.61582504272461L621.97734375,36.35021629333495L622.8000651041667,35.265995254516596L623.6227864583334,34.61785392761231L624.4455078125,33.93315505981445L625.2682291666666,34.802958145141595L626.0909505208333,0.6137858009338512L626.913671875,101.90507781982421L627.7363932291667,35.99229843139648L628.5591145833333,0.8961165690422035L629.3818359375,103.10734588623049L630.2045572916667,35.75993911743162L631.0272786458333,70.20482009887695L631.85,68.03773651123048L632.6727213541667,35.22058097839357L633.4954427083334,0.799036390781395L634.3181640624999,67.29980209350583L635.1408854166666,35.34364822387694L635.9636067708333,67.52042617797849L636.7863281250001,68.92419326782226L637.6090494791667,36.436201629638674L638.4317708333333,0.4958727002143918L639.2544921875,66.28567382812501L640.0772135416667,35.59155715942383L640.8999348958333,37.69482269287108L641.72265625,33.901195144653315L642.5453776041667,70.84289443969725L643.3680989583332,66.8235119628906L644.1908203125,36.85289520263672L645.0135416666667,35.239823303222636L645.8362630208334,67.73931121826172L646.658984375,120.54713592529298L647.4817057291667,68.60716949462889L648.3044270833333,69.52445556640626L649.1271484375,35.95130477905272L649.9498697916666,66.81446273803712L650.7725911458333,102.49152069091795L651.5953125,1.172230973243724L652.4180338541668,67.16940032958985L653.2407552083333,66.64960311889648L654.0634765625,36.06653968811034L654.8861979166667,67.88926284790037L655.7089192708333,35.395919113159174L656.531640625,69.6940411376953L657.3543619791667,33.7640761566162L658.1770833333333,0.6563056111335722L658.9998046874999,35.49733901977537L659.8225260416667,36.54709114074709L660.6452473958334,65.41632873535158L661.4679687500001,36.59200981140137L662.2906901041666,65.77614273071288L663.1134114583333,35.776010894775396L663.9361328125,67.65476623535156L664.7588541666667,67.70772521972657L665.5815755208333,75.03284484863282L666.404296875,67.53909545898438L667.2270182291667,0.6881183934211642L668.0497395833333,36.06165000915527L668.8724609375,34.23926887512208L669.6951822916667,36.73614028930664L670.5179036458334,0.6044759130477974L671.340625,34.689263153076176L672.1633463541666,68.97998870849611L672.9860677083333,70.52885757446289L673.8087890625,35.60344947814939L674.6315104166666,34.86249938964843L675.4542317708334,36.44110900878908L676.2769531250001,100.03790191650391L677.0996744791667,35.95169197082521L677.9223958333333,34.873477935791016L678.7451171875,35.85142700195314L679.5678385416667,0.783997101783739L680.3905598958333,36.64372093200682L681.2132812499999,74.21516220092772L682.0360026041666,106.5653533935547L682.8587239583334,35.338962097167986L683.6814453125,35.862633438110336L684.5041666666667,70.29884796142579L685.3268880208334,36.67377807617189L686.149609375,34.554635467529316L686.9723307291666,36.706262359619146L687.7950520833333,70.28842697143556L688.6177734375,35.59424095153807L689.4404947916667,0.7407029771804954L690.2632161458333,69.85610412597654L691.0859375,36.51941246032713L691.9086588541667,67.76834396362305L692.7313802083333,35.85915092468262L693.5541015625,34.26450271606444L694.3768229166667,35.21299865722655L695.1995442708334,36.40649848937989L696.0222656249999,36.388236312866205L696.8449869791666,68.04612640380859L697.6677083333333,0.7383046007156363L698.4904296875001,36.73695449829102L699.3131510416667,68.2218229675293L700.1358723958333,65.83561538696289L700.95859375,71.33069412231444L701.7813151041667,0.9315223526954549L702.6040364583333,94.587294921875L703.4267578125,68.49347229003905L704.2494791666667,36.49844436645508L705.0722005208332,1.0246434950828465L705.894921875,72.78869461059568L706.7176432291667,35.82554710388185L707.5403645833334,34.23892814636229L708.3630859375,35.13442306518556L709.1858072916667,35.156198730468745L710.0085286458333,69.38030960083007L710.83125,34.854335174560546L711.6539713541666,36.99107620239256L712.4766927083333,70.60349044799804L713.2994140625,69.75034988403318L714.1221354166668,36.30793495178223L714.9448567708333,36.182681732177734L715.767578125,34.75942008972169L716.5902994791667,66.8812677001953L717.4130208333333,34.00312393188476L718.2357421875,0.6962266039848413L719.0584635416667,0.5814953899383472L719.8811848958333,36.6860841369629L720.7039062499999,36.51429710388183L721.5266276041667,37.21431106567382L722.3493489583334,36.57338256835939L723.1720703125001,67.65861160278322L723.9947916666666,68.29845153808596L724.8175130208333,35.7620719909668L725.640234375,36.208906784057596L726.4629557291667,36.554288482666L728.1083984375,1.1596484851837277L728.9311197916667,36.38643753051757L729.7538411458333,70.17444213867188L730.5765625,0.4564998948573985L731.3992838541667,68.4971406555176L732.2220052083334,36.57952011108399L733.0447265625,71.96577713012695L733.8674479166666,36.92622711181639L734.6901692708333,34.977771911621076L735.512890625,33.93262405395508L736.3356119791666,76.29764770507813L737.1583333333334,36.20243072509768L737.9810546875001,37.01809333801268L738.8037760416667,36.12156738281251L739.6264973958333,101.07707153320312L740.44921875,97.92764038085937L741.2719401041667,34.98281425476073L742.0946614583333,0.7514923524856743L742.9173828124999,71.73391784667967L743.7401041666666,1.242738318443303L744.5628255208334,36.88394134521483L745.385546875,0.6134485983848703L746.2082682291667,34.262456130981455L747.0309895833334,72.00871337890626L747.8537109375,115.76671142578127L748.6764322916666,71.187353515625L749.4991536458333,0.638423297405244L750.321875,37.19460189819337L751.1445963541667,0.9695609021186892L751.9673177083333,71.3837725830078L752.7900390625,36.7457293701172L753.6127604166667,35.148092041015644L754.4354817708333,37.17437942504884L755.258203125,70.56667404174803L756.0809244791667,36.93921905517577L756.9036458333334,35.463925476074216L757.7263671874999,70.78904602050784L758.5490885416666,101.87743896484373L759.3718098958333,35.41554641723631L760.1945312500001,0.7444019031524511L761.0172526041667,105.10201629638671L761.8399739583333,36.79232734680177L762.6626953125,1.0646496009826856L763.4854166666667,72.72499603271486L764.3081380208333,35.80649948120116L765.130859375,35.878537063598614L765.9535807291667,95.81488311767579L766.7763020833332,0.887134342193586L767.5990234375,70.67521163940428L768.4217447916667,36.06104598999021L769.2444661458334,71.91639801025391L770.0671875,36.33718009948729L770.8899088541667,115.32926879882811L771.7126302083333,145.63005615234374L772.5353515625,69.07161376953125L773.3580729166666,68.80442489624022L774.1807942708333,35.312294540405276L775.003515625,35.616036529541L775.8262369791668,70.71575393676757L776.6489583333333,2.361373376846305L777.4716796875,106.78655273437501L778.2944010416667,35.96848945617676L779.1171223958333,0.8668029022216875L779.93984375,70.26523529052736L780.7625651041667,72.17729888916017L781.5852864583333,35.95826980590819L782.4080078124999,107.01749603271485L783.2307291666667,33.802923660278324L784.0534505208334,35.64508918762208L784.8761718750001,100.97588836669924L785.6988932291666,36.65152893066408L786.5216145833333,67.99144165039063L787.3443359375,69.9075143432617L788.1670572916667,34.49462959289552L788.9897786458333,35.02323928833009L789.8125,105.46049835205079L790.6352213541667,36.18106216430664L791.4579427083333,36.58375045776368L792.2806640625,73.05665786743164L793.9261067708334,71.87401931762696L794.748828125,68.42674255371094L795.5715494791666,35.184715957641615L796.3942708333333,69.14493240356447L797.2169921875,0.6663799953460521L798.0397135416666,36.09286430358885L798.8624348958334,0.4885065841674694L799.6851562500001,34.69464179992675L800.5078776041667,36.469320907592774L801.3305989583333,71.16937454223634L802.1533203125,35.81917724609374L802.9760416666667,70.63310287475585L803.7987630208333,36.089368515014634L804.6214843749999,36.12175987243654L805.4442057291666,36.25792526245118L806.2669270833334,34.51611320495607L807.0896484375,35.33645751953124L807.9123697916667,70.50874572753905L808.7350911458334,33.629879913330065L809.5578125,69.78434753417969L810.3805338541666,33.66988677978515L811.2032552083333,66.47825637817384L812.0259765625,34.79791801452635L812.8486979166667,97.58181396484375L813.6714192708333,34.22714424133303L814.494140625,35.507934799194345L815.3168619791667,36.87942558288575L816.1395833333333,68.08942993164065L816.9623046875,36.49296615600586L817.7850260416667,68.9458317565918L818.6077473958334,66.98420318603516L819.4304687499999,34.721866912841776L820.2531901041666,33.7885997772217L821.0759114583333,35.76334197998048L821.8986328125001,36.00440093994141L822.7213541666667,35.79864501953124L823.5440755208333,0.7544458651542512L824.366796875,107.84439605712892L826.0122395833333,0.9183613586425954L826.8349609375,36.37774673461916L827.6576822916667,35.521665725708L828.4804036458332,72.99049011230467L829.303125,35.18184631347658L830.1258463541667,36.948102340698256L830.9485677083334,34.69668617248536L831.7712890625,1.4895841360092021L832.5940104166667,34.28560356140138L833.4167317708333,66.87690017700193L834.239453125,34.39647537231446L835.0621744791666,35.729366455078136L835.8848958333333,69.95319412231446L836.7076171875,68.97667877197264L837.5303385416668,103.39772644042966L838.3530598958333,36.03173446655275L839.17578125,72.64955780029295L839.9985026041667,35.59088455200195L840.8212239583333,35.910751419067395L841.6439453125,69.76987762451172L842.4666666666667,102.67638153076172L843.2893880208333,35.627789459228524L844.1121093749999,108.71436950683594L844.9348307291667,0.8433822941779905L845.7575520833334,35.55805068969728L846.5802734375001,34.37287437438965L847.4029947916666,37.11516342163085L848.2257161458333,35.26169631958009L849.0484375,69.23173416137695L849.8711588541667,68.65266342163086L850.6938802083333,36.4648582458496L851.5166015625,34.530492401123055L852.3393229166667,68.61883834838868L853.1620442708333,70.33053131103516L853.984765625,37.25019821166993L854.8074869791667,36.63375572204589L855.6302083333334,35.33626060485841L856.4529296875,35.837184982299824L857.2756510416666,71.85593856811523L858.0983723958333,36.061791610717776L858.92109375,66.68823822021483L859.7438151041666,67.79468185424805L860.5665364583334,72.09357254028322L861.3892578125001,35.80879165649412L862.2119791666667,102.6656463623047L863.0347005208333,33.53174339294434L863.857421875,0.6042644786834909L864.6801432291667,36.12354095458985L865.5028645833333,0.5342241835594385L866.3255859374999,67.54290985107421L867.1483072916666,34.66009765625L867.9710286458334,36.98334564208982L868.79375,0.717768571376781L869.6164713541667,96.51789062499999L870.4391927083334,34.720625686645505L871.2619140625,69.64644531249998L872.0846354166666,69.73433563232423L872.9073567708333,0.8709485507011385L873.730078125,36.74980041503906L874.5527994791667,105.58659454345702L875.3755208333333,37.07509239196777L876.1982421875,36.64668350219725L877.0209635416667,108.0819415283203L877.8436848958333,0.9215421390533526L878.66640625,0.6177554845809788L879.4891276041667,34.89952819824217L880.3118489583334,35.78555572509764L881.1345703124999,68.62971069335939L881.9572916666666,70.76832351684573L882.7800130208333,35.21041000366211L883.6027343750001,35.28691246032716L884.4254557291667,74.18777999877928L885.2481770833333,71.272725982666L886.0708984375,0.7839095687866099L886.8936197916667,36.59954566955565L887.7163411458333,35.5097092437744L888.5390625,36.561406173706054L889.3617838541667,0.7743197965622095L890.1845052083332,36.74802375793459L891.0072265625,73.63682159423828L892.6526692708334,36.107683792114265L893.475390625,1.0543608093261523L894.2981119791667,69.37867675781251L895.1208333333333,73.96065994262695L895.9435546875,72.4074102783203L896.7662760416666,36.45986457824706L897.5889973958333,102.58638488769533L898.41171875,67.61731262207033L899.2344401041668,35.687905960083L900.0571614583333,35.17830627441405L900.8798828125,35.437162780761696L901.7026041666667,71.4160400390625L902.5253255208333,36.60574516296385L903.348046875,70.21435165405273L904.1707682291667,36.38468299865722L904.9934895833333,100.16948516845704L905.8162109374999,35.2808656311035L906.6389322916667,0.8963006925582694L907.4616536458334,34.31846618652346L908.2843750000001,72.61182098388672L909.1070963541666,34.40996734619142L909.9298177083333,67.15693054199221L910.7525390625,67.48251235961914L911.5752604166667,103.47373992919921L912.3979817708333,89.54837677001954L913.220703125,69.67380538940431L914.0434244791667,69.46737243652343" style="fill: none;" fill="none"></path></g></g></g></g></g></g><g transform="translate(82, 377)" clip-path="url(#clip_1)"><clipPath id="clip_1"><rect width="987" height="23"></rect></clipPath><g><g><line x1="0" y1="0" x2="0" y2="5" style="visibility: inherit;" fill="rgb(0, 0, 0)" stroke="rgb(204, 204, 204)" stroke-width="1px"></line><line x1="82.27213541666666" y1="0" x2="82.27213541666666" y2="5" style="visibility: inherit;" fill="rgb(0, 0, 0)" stroke="rgb(204, 204, 204)" stroke-width="1px"></line><line x1="164.54427083333331" y1="0" x2="164.54427083333331" y2="5" style="visibility: inherit;" fill="rgb(0, 0, 0)" stroke="rgb(204, 204, 204)" stroke-width="1px"></line><line x1="246.81640625" y1="0" x2="246.81640625" y2="5" style="visibility: inherit;" fill="rgb(0, 0, 0)" stroke="rgb(204, 204, 204)" stroke-width="1px"></line><line x1="329.08854166666663" y1="0" x2="329.08854166666663" y2="5" style="visibility: inherit;" fill="rgb(0, 0, 0)" stroke="rgb(204, 204, 204)" stroke-width="1px"></line><line x1="411.36067708333337" y1="0" x2="411.36067708333337" y2="5" style="visibility: inherit;" fill="rgb(0, 0, 0)" stroke="rgb(204, 204, 204)" stroke-width="1px"></line><line x1="493.6328125" y1="0" x2="493.6328125" y2="5" style="visibility: inherit;" fill="rgb(0, 0, 0)" stroke="rgb(204, 204, 204)" stroke-width="1px"></line><line x1="575.9049479166667" y1="0" x2="575.9049479166667" y2="5" style="visibility: inherit;" fill="rgb(0, 0, 0)" stroke="rgb(204, 204, 204)" stroke-width="1px"></line><line x1="658.1770833333333" y1="0" x2="658.1770833333333" y2="5" style="visibility: inherit;" fill="rgb(0, 0, 0)" stroke="rgb(204, 204, 204)" stroke-width="1px"></line><line x1="740.44921875" y1="0" x2="740.44921875" y2="5" style="visibility: inherit;" fill="rgb(0, 0, 0)" stroke="rgb(204, 204, 204)" stroke-width="1px"></line><line x1="822.7213541666667" y1="0" x2="822.7213541666667" y2="5" style="visibility: inherit;" fill="rgb(0, 0, 0)" stroke="rgb(204, 204, 204)" stroke-width="1px"></line><line x1="904.9934895833333" y1="0" x2="904.9934895833333" y2="5" style="visibility: inherit;" fill="rgb(0, 0, 0)" stroke="rgb(204, 204, 204)" stroke-width="1px"></line><line x1="987.265625" y1="0" x2="987.265625" y2="5" style="visibility: inherit;" fill="rgb(0, 0, 0)" stroke="rgb(204, 204, 204)" stroke-width="1px"></line></g><g transform="translate(0, 8)"><text x="0" y="0" dx="0em" dy="0.95em" style="text-anchor: middle; visibility: hidden; font-family: Roboto, sans-serif; font-size: 12px; font-weight: 200;" fill="rgb(33, 33, 33)" stroke="none" stroke-width="1px">-100</text><text x="82.27213541666666" y="0" dx="0em" dy="0.95em" style="text-anchor: middle; visibility: inherit; font-family: Roboto, sans-serif; font-size: 12px; font-weight: 200;" fill="rgb(33, 33, 33)" stroke="none" stroke-width="1px">0</text><text x="164.54427083333331" y="0" dx="0em" dy="0.95em" style="text-anchor: middle; visibility: inherit; font-family: Roboto, sans-serif; font-size: 12px; font-weight: 200;" fill="rgb(33, 33, 33)" stroke="none" stroke-width="1px">100</text><text x="246.81640625" y="0" dx="0em" dy="0.95em" style="text-anchor: middle; visibility: inherit; font-family: Roboto, sans-serif; font-size: 12px; font-weight: 200;" fill="rgb(33, 33, 33)" stroke="none" stroke-width="1px">200</text><text x="329.08854166666663" y="0" dx="0em" dy="0.95em" style="text-anchor: middle; visibility: inherit; font-family: Roboto, sans-serif; font-size: 12px; font-weight: 200;" fill="rgb(33, 33, 33)" stroke="none" stroke-width="1px">300</text><text x="411.36067708333337" y="0" dx="0em" dy="0.95em" style="text-anchor: middle; visibility: inherit; font-family: Roboto, sans-serif; font-size: 12px; font-weight: 200;" fill="rgb(33, 33, 33)" stroke="none" stroke-width="1px">400</text><text x="493.6328125" y="0" dx="0em" dy="0.95em" style="text-anchor: middle; visibility: inherit; font-family: Roboto, sans-serif; font-size: 12px; font-weight: 200;" fill="rgb(33, 33, 33)" stroke="none" stroke-width="1px">500</text><text x="575.9049479166667" y="0" dx="0em" dy="0.95em" style="text-anchor: middle; visibility: inherit; font-family: Roboto, sans-serif; font-size: 12px; font-weight: 200;" fill="rgb(33, 33, 33)" stroke="none" stroke-width="1px">600</text><text x="658.1770833333333" y="0" dx="0em" dy="0.95em" style="text-anchor: middle; visibility: inherit; font-family: Roboto, sans-serif; font-size: 12px; font-weight: 200;" fill="rgb(33, 33, 33)" stroke="none" stroke-width="1px">700</text><text x="740.44921875" y="0" dx="0em" dy="0.95em" style="text-anchor: middle; visibility: inherit; font-family: Roboto, sans-serif; font-size: 12px; font-weight: 200;" fill="rgb(33, 33, 33)" stroke="none" stroke-width="1px">800</text><text x="822.7213541666667" y="0" dx="0em" dy="0.95em" style="text-anchor: middle; visibility: inherit; font-family: Roboto, sans-serif; font-size: 12px; font-weight: 200;" fill="rgb(33, 33, 33)" stroke="none" stroke-width="1px">900</text><text x="904.9934895833333" y="0" dx="0em" dy="0.95em" style="text-anchor: middle; visibility: inherit; font-family: Roboto, sans-serif; font-size: 12px; font-weight: 200;" fill="rgb(33, 33, 33)" stroke="none" stroke-width="1px">1k</text><text x="987.265625" y="0" dx="0em" dy="0.95em" style="text-anchor: middle; visibility: hidden; font-family: Roboto, sans-serif; font-size: 12px; font-weight: 200;" fill="rgb(33, 33, 33)" stroke="none" stroke-width="1px">1.1k</text></g><line x1="0" y1="0" x2="987.265625" y2="0" fill="rgb(0, 0, 0)" stroke="rgb(204, 204, 204)" stroke-width="1px"></line></g></g></g></g></svg>