<svg viewBox="0 0 330 200" xmlns="http://www.w3.org/2000/svg"><g><g><g><g><g><line x1="80" y1="177" x2="75" y2="177" style="visibility: inherit;" fill="rgb(0, 0, 0)" stroke="rgb(204, 204, 204)" stroke-width="1px"></line><line x1="80" y1="157.33333333333331" x2="75" y2="157.33333333333331" style="visibility: inherit;" fill="rgb(0, 0, 0)" stroke="rgb(204, 204, 204)" stroke-width="1px"></line><line x1="80" y1="137.66666666666666" x2="75" y2="137.66666666666666" style="visibility: inherit;" fill="rgb(0, 0, 0)" stroke="rgb(204, 204, 204)" stroke-width="1px"></line><line x1="80" y1="118.00000000000001" x2="75" y2="118.00000000000001" style="visibility: inherit;" fill="rgb(0, 0, 0)" stroke="rgb(204, 204, 204)" stroke-width="1px"></line><line x1="80" y1="98.33333333333334" x2="75" y2="98.33333333333334" style="visibility: inherit;" fill="rgb(0, 0, 0)" stroke="rgb(204, 204, 204)" stroke-width="1px"></line><line x1="80" y1="78.66666666666666" x2="75" y2="78.66666666666666" style="visibility: inherit;" fill="rgb(0, 0, 0)" stroke="rgb(204, 204, 204)" stroke-width="1px"></line><line x1="80" y1="59.00000000000001" x2="75" y2="59.00000000000001" style="visibility: inherit;" fill="rgb(0, 0, 0)" stroke="rgb(204, 204, 204)" stroke-width="1px"></line><line x1="80" y1="39.33333333333333" x2="75" y2="39.33333333333333" style="visibility: inherit;" fill="rgb(0, 0, 0)" stroke="rgb(204, 204, 204)" stroke-width="1px"></line><line x1="80" y1="19.666666666666675" x2="75" y2="19.666666666666675" style="visibility: inherit;" fill="rgb(0, 0, 0)" stroke="rgb(204, 204, 204)" stroke-width="1px"></line><line x1="80" y1="0" x2="75" y2="0" style="visibility: inherit;" fill="rgb(0, 0, 0)" stroke="rgb(204, 204, 204)" stroke-width="1px"></line></g><g transform="translate(70, 0)"><text x="0" y="177" dx="0em" dy="0.3em" style="text-anchor: end; visibility: hidden; font-family: Roboto, sans-serif; font-size: 12px; font-weight: 200;" fill="rgb(33, 33, 33)" stroke="none" stroke-width="1px">-1.6e+3</text><text x="0" y="157.33333333333331" dx="0em" dy="0.3em" style="text-anchor: end; visibility: inherit; font-family: Roboto, sans-serif; font-size: 12px; font-weight: 200;" fill="rgb(33, 33, 33)" stroke="none" stroke-width="1px">-1.5e+3</text><text x="0" y="137.66666666666666" dx="0em" dy="0.3em" style="text-anchor: end; visibility: hidden; font-family: Roboto, sans-serif; font-size: 12px; font-weight: 200;" fill="rgb(33, 33, 33)" stroke="none" stroke-width="1px">-1.4e+3</text><text x="0" y="118.00000000000001" dx="0em" dy="0.3em" style="text-anchor: end; visibility: inherit; font-family: Roboto, sans-serif; font-size: 12px; font-weight: 200;" fill="rgb(33, 33, 33)" stroke="none" stroke-width="1px">-1.3e+3</text><text x="0" y="98.33333333333334" dx="0em" dy="0.3em" style="text-anchor: end; visibility: hidden; font-family: Roboto, sans-serif; font-size: 12px; font-weight: 200;" fill="rgb(33, 33, 33)" stroke="none" stroke-width="1px">-1.2e+3</text><text x="0" y="78.66666666666666" dx="0em" dy="0.3em" style="text-anchor: end; visibility: inherit; font-family: Roboto, sans-serif; font-size: 12px; font-weight: 200;" fill="rgb(33, 33, 33)" stroke="none" stroke-width="1px">-1.1e+3</text><text x="0" y="59.00000000000001" dx="0em" dy="0.3em" style="text-anchor: end; visibility: hidden; font-family: Roboto, sans-serif; font-size: 12px; font-weight: 200;" fill="rgb(33, 33, 33)" stroke="none" stroke-width="1px">-1e+3</text><text x="0" y="39.33333333333333" dx="0em" dy="0.3em" style="text-anchor: end; visibility: inherit; font-family: Roboto, sans-serif; font-size: 12px; font-weight: 200;" fill="rgb(33, 33, 33)" stroke="none" stroke-width="1px">-900</text><text x="0" y="19.666666666666675" dx="0em" dy="0.3em" style="text-anchor: end; visibility: hidden; font-family: Roboto, sans-serif; font-size: 12px; font-weight: 200;" fill="rgb(33, 33, 33)" stroke="none" stroke-width="1px">-800</text><text x="0" y="0" dx="0em" dy="0.3em" style="text-anchor: end; visibility: hidden; font-family: Roboto, sans-serif; font-size: 12px; font-weight: 200;" fill="rgb(33, 33, 33)" stroke="none" stroke-width="1px">-700</text></g><line x1="80" y1="0" x2="80" y2="177" fill="rgb(0, 0, 0)" stroke="rgb(204, 204, 204)" stroke-width="1px"></line></g></g><g transform="translate(80, 0)" clip-path="url(#clip_0)"><clipPath id="clip_0"><rect width="250" height="177"></rect></clipPath><g><g><g><line x1="0" y1="0" x2="0" y2="177" fill="rgb(0, 0, 0)" stroke="rgb(66, 66, 66)" stroke-width="1px" opacity="0.25"></line><line x1="31.25" y1="0" x2="31.25" y2="177" fill="rgb(0, 0, 0)" stroke="rgb(66, 66, 66)" stroke-width="1px" opacity="0.25"></line><line x1="62.5" y1="0" x2="62.5" y2="177" fill="rgb(0, 0, 0)" stroke="rgb(66, 66, 66)" stroke-width="1px" opacity="0.25"></line><line x1="93.75" y1="0" x2="93.75" y2="177" fill="rgb(0, 0, 0)" stroke="rgb(66, 66, 66)" stroke-width="1px" opacity="0.25"></line><line x1="125" y1="0" x2="125" y2="177" fill="rgb(0, 0, 0)" stroke="rgb(66, 66, 66)" stroke-width="1px" opacity="0.25"></line><line x1="156.25" y1="0" x2="156.25" y2="177" fill="rgb(0, 0, 0)" stroke="rgb(66, 66, 66)" stroke-width="1px" opacity="0.25"></line><line x1="187.5" y1="0" x2="187.5" y2="177" fill="rgb(0, 0, 0)" stroke="rgb(66, 66, 66)" stroke-width="1px" opacity="0.25"></line><line x1="218.75" y1="0" x2="218.75" y2="177" fill="rgb(0, 0, 0)" stroke="rgb(66, 66, 66)" stroke-width="1px" opacity="0.25"></line><line x1="250" y1="0" x2="250" y2="177" fill="rgb(0, 0, 0)" stroke="rgb(66, 66, 66)" stroke-width="1px" opacity="0.25"></line></g><g><line x1="0" y1="177" x2="250" y2="177" fill="rgb(0, 0, 0)" stroke="rgb(66, 66, 66)" stroke-width="1px" opacity="0.25"></line><line x1="0" y1="157.33333333333331" x2="250" y2="157.33333333333331" fill="rgb(0, 0, 0)" stroke="rgb(66, 66, 66)" stroke-width="1px" opacity="0.25"></line><line x1="0" y1="137.66666666666666" x2="250" y2="137.66666666666666" fill="rgb(0, 0, 0)" stroke="rgb(66, 66, 66)" stroke-width="1px" opacity="0.25"></line><line x1="0" y1="118.00000000000001" x2="250" y2="118.00000000000001" fill="rgb(0, 0, 0)" stroke="rgb(66, 66, 66)" stroke-width="1px" opacity="0.25"></line><line x1="0" y1="98.33333333333334" x2="250" y2="98.33333333333334" fill="rgb(0, 0, 0)" stroke="rgb(66, 66, 66)" stroke-width="1px" opacity="0.25"></line><line x1="0" y1="78.66666666666666" x2="250" y2="78.66666666666666" fill="rgb(0, 0, 0)" stroke="rgb(66, 66, 66)" stroke-width="1px" opacity="0.25"></line><line x1="0" y1="59.00000000000001" x2="250" y2="59.00000000000001" fill="rgb(0, 0, 0)" stroke="rgb(66, 66, 66)" stroke-width="1px" opacity="0.25"></line><line x1="0" y1="39.33333333333333" x2="250" y2="39.33333333333333" fill="rgb(0, 0, 0)" stroke="rgb(66, 66, 66)" stroke-width="1px" opacity="0.25"></line><line x1="0" y1="19.666666666666675" x2="250" y2="19.666666666666675" fill="rgb(0, 0, 0)" stroke="rgb(66, 66, 66)" stroke-width="1px" opacity="0.25"></line><line x1="0" y1="0" x2="250" y2="0" fill="rgb(0, 0, 0)" stroke="rgb(66, 66, 66)" stroke-width="1px" opacity="0.25"></line></g></g></g><g><g><line x1="0" y1="-137.66666666666666" x2="250" y2="-137.66666666666666" fill="rgb(0, 0, 0)" stroke="rgb(153, 153, 153)" stroke-width="1.5px"></line></g></g><g><g><line x1="31.25" y1="0" x2="31.25" y2="177" fill="rgb(0, 0, 0)" stroke="rgb(153, 153, 153)" stroke-width="1.5px"></line></g></g><g><g><g><g><g><path stroke="rgb(255, 112, 67)" stroke-width="2px" d="M31.4375,121.11204833984375L31.5,106.58529993693034L31.875,115.98635278818556L32.125,107.31822224785296L32.1875,116.40243077910168L32.375,123.18191883785084L32.4375,118.61480994679964L32.5,132.67527053276578L32.625,114.99693774773172L32.6875,105.14019059752934L32.875,111.70256569132823L32.9375,135.80822475274363L33.625,131.2724372306431L33.75,128.52073828417468L34.1875,124.65774139346506L34.25,122.73578948127927L34.3125,119.72873210977154L34.4375,128.26474013429095L34.625,129.97264720954533L34.8125,136.4348288250966L35,139.77407992304444L35.0625,141.96946106204686L35.125,142.73544326584815L35.1875,99.17825618352977L35.3125,109.60823922223508L35.375,102.01755932851768L35.4375,119.09784995362355L35.5,128.78270875813158L35.625,139.7665988657671L35.6875,134.0966239188413L36.0625,143.84644634768867L36.1875,144.74685892845105L36.375,150.58337458759866L36.5625,141.67281274595896L36.8125,142.65838395358057L37.4375,146.63706996396743L37.6875,149.48455644912755L37.875,151.1290452362599L37.9375,154.4172378587172L38.0625,155.95932090739586L38.5,157.91921217491569L38.8125,153.97526444497854L39.0625,158.62693812796567L39.125,156.5727882019444L39.25,156.9102321659934L39.375,146.73920407760752L39.75,146.27544692571377L39.8125,151.07681991334863L40.25,153.64531053528333L40.375,156.8296182873416L40.4375,158.03736927970246L40.625,158.20942303266574L41.0625,159.07157927533018L41.25,159.4813497461881L41.375,163.6606125820905L41.5,157.9507013708667L41.875,160.4181286675727L41.9375,150.30382707033394L42,159.75136264845116L42.3125,160.93804463985194L42.5625,160.77557857427576L42.75,161.5470909596696L42.8125,160.68218149637462L42.875,168.31476186006444L43.125,169.75378924494493L43.1875,161.73577550009202L43.25,162.9655916021385L43.6875,162.21667934279353L43.875,162.39480236479073L43.9375,167.91900739543698L44,166.19907501017886L44.0625,173.36328533813855L44.1875,170.17216293465398L44.4375,170.75900690792776L44.5625,168.1221448674129L44.6875,169.07230303372896L44.9375,166.89011131242486L45,170.85587066115286L45.0625,172.28729306726464L45.25,169.04841213593167L45.5625,169.70446378546524L46.1875,165.08774256164372L46.5,167.08591620755914L46.5625,166.04229223755627L46.625,164.4345610521692L47.125,166.3140219503119L47.375,167.28232934857257L47.4375,173.03307355315397L47.5,175.7579276279861L48.1875,179.41070921351042L49.0625,179.9075657755239L49.25,175.33885473224137L49.375,179.0551416153865L49.6875,172.0063186931902L49.8125,169.11388773284125L49.875,158.8821506735589L50.375,163.05517337939574L50.5,162.98366197034574L50.75,159.08105655720746L51,160.76687709838697L51.125,168.2587857642405L51.1875,171.43075225281515L51.375,175.54024790116827L52.3125,172.9814000427843L52.375,173.34884132775392L52.6875,172.58511811045443L52.8125,170.56694684283516L52.875,165.83964792340942L53.25,165.51205535560814L53.375,163.23014174201072L53.625,157.38133406864392L53.875,163.88978660655093L53.9375,161.8400737868472L54,168.4117957369521L54.0625,163.45566224034832L54.125,159.12861202519858L54.1875,163.9016393830879L54.875,155.9417886428736L55.375,164.91086159718247L55.625,169.29445250518447L55.75,162.50184419191277L55.875,163.79389639144975L56.0625,160.09932074502612L56.375,163.98702034415106L56.5,161.4927218093552L56.8125,159.91540180306103L57.0625,163.6642728201179L57.125,159.24357052800823L57.1875,160.08060927644038L57.5625,156.25191178982257L57.625,161.95278476920606L57.8125,165.60694625214862L57.875,164.17733864972664L58.125,170.82288756483595L58.4375,169.0753861847349L58.5,165.25385654808053L58.5625,172.05910559551504L58.6875,173.4123334744965L58.9375,166.79300701829163L59,172.29590463415207L59.125,166.74687497450165L59.375,166.972101547201L59.5,161.93953273821646L59.75,163.70737475360696L60,162.15625444200793L60.0625,159.6339746704131L60.3125,158.62897285563326L60.375,161.61229598551537L60.5,154.46831281266344L60.625,157.2014440678064L60.875,156.60891608261093L60.9375,157.97049711050406L61.25,161.2503212155212L61.3125,159.37643605613565L61.5,157.94122182248344L61.6875,157.10096030703173L61.75,154.80131739515656L61.8125,162.00534984464602L61.9375,159.19628835730845L62.125,155.47949990240588L62.375,158.65973835290185L62.625,159.35949535549113L62.68749999999999,157.47544949194054L63.06249999999999,158.34447282016436L63.125,160.02640260485902L63.18749999999999,160.4564405212487L63.25,160.58762863566588L63.31249999999999,155.30430358113912L63.375,155.05903380883976L63.56249999999999,156.50804089077258L63.625,156.06633722977605L63.68749999999999,156.73601946026147L64.5625,159.89505129204233L64.625,159.0853050265275L64.75,156.13721556799985L64.8125,155.14499356606035L64.875,154.72262716177158L65,155.8948197866463L65.125,159.13808344099823L65.25,160.18465654246353L65.375,157.26771254526977L65.4375,153.23824862091192L65.625,150.86485867775548L65.75,152.94358480300744L65.9375,151.68922623987737L66,153.68648740408267L66.375,155.16997235781417L66.4375,154.48795916338642L66.5,157.39174913084437L66.75,156.23197981704826L66.9375,153.7605965816352L67.0625,154.6384004294499L67.25,156.99321848032616L67.5,155.42725270277904L67.75,158.20350168677157L67.8125,154.07067653289627L68,152.8743082634878L68.125,155.45365006225933L68.1875,157.50133391756393L68.375,158.8770793218925L68.5,158.13855602412505L68.625,152.76625324338124L68.6875,153.12428872988295L68.875,156.31850439027352L68.9375,157.51969719796617L69.25,155.27054455575887L69.5625,159.22162295741364L69.625,149.12706036298985L69.75,153.33894438836683L70,155.35089072156174L70.125,157.1325114837183L70.1875,154.76514686418932L70.375,147.75991331382608L70.5,149.07719115235815L70.5625,152.0745746198003L70.8125,146.02818455052602L71.0625,151.17845386182603L71.25,151.62357361917898L71.3125,155.1148072574449L71.375,153.1454519000399L71.4375,154.58039841866974L71.5,155.46594966318102L71.8125,150.9426301820232L71.9375,152.96817071989105L72,143.6688288642263L72.125,149.7544859578587L72.1875,143.96244238851733L72.375,147.05164805029793L72.5,149.8056704708038L72.9375,155.09025221737812L73.125,150.6698311806873L73.4375,149.53672292716234L73.5,145.14874062478697L73.75,158.30089037096593L74,153.5645765402879L74.1875,152.93912938771442L74.5,139.18589918210782L74.625,124.60869820067097L74.75,134.31720117951716L74.8125,145.9480316452103L74.9375,149.45500795196995L75.125,151.85277251206736L75.3125,156.47554908666748L75.625,149.88352199757338L75.9375,151.6336748847419L76.0625,149.7963388826681L76.25,148.68685997022584L76.3125,141.80846494046884L76.4375,141.7595244395417L76.5625,133.16387677310001L76.625,133.45642111594336L76.75,142.51107320993063L76.8125,146.59203080746877L76.9375,141.7064463490646L77,144.8755458693346L77.0625,149.35131271040282L77.375,148.32370038665834L77.625,148.49880275152628L77.75,147.27525023815534L78.5,144.7671527470599L78.625,147.6563538227151L79,142.66513244336863L79.0625,132.78630765612536L79.25,142.6673829009669L79.3125,135.86471343198642L79.5,142.91263974538978L79.6875,145.33333938108805L79.75,144.80610942292364L79.875,148.5062175743271L79.9375,145.25294734147127L80,137.4079376757161L80.0625,143.2986340247005L80.125,139.1232671661224L80.5,132.6052500132151L80.6875,126.16452663553319L81.5,129.09843098783037L81.5625,122.35103889868779L81.625,124.72824524676474L81.6875,134.0867368616005L81.875,132.29050419378325L82.375,125.72007009439496L82.4375,126.42336822851196L82.9375,135.32115228476337L83,124.75404114299344L83.25,134.6434990673065L83.3125,139.56039371121724L83.4375,141.05585015902201L83.5,132.75164958109028L83.6875,131.68301676688336L83.75,130.37234456533832L83.9375,136.08480468842174L84.0625,142.2201157232093L84.375,148.36516692741515L84.4375,147.0499022397824L84.8125,110.24558392199441L85,105.30744800944663L85.125,97.76821571322004L85.3125,102.78192454511952L85.375,99.88212184946751L85.625,110.90145116957636L85.6875,106.87681992049585L86.5,114.27247167234958L86.625,130.96916773648272L86.875,131.78442414449378L87,130.25784068461294L87.1875,132.41748647456984L87.3125,132.80208693682525L87.375,132.554797409491L87.5625,121.53274481939252L87.625,123.56357023147926L87.9375,123.94883452170009L88,112.5840347624992L88.125,113.52504732234328L88.1875,117.38267878403096L88.375,118.04652523916862L88.625,119.94363861355325L88.6875,126.19590256917361L88.8125,127.00694063004586L89.25,136.85480077125666L89.375,135.07589559947274L89.4375,134.15577401332948L89.5,119.20312049523724L89.9375,117.1323197255278L90.125,123.41484561135833L90.3125,127.51070489285664L90.5625,109.40624992139108L90.75,115.30079650231382L90.9375,122.76019860451329L91.25,79.1294446835413L91.4375,76.26733331403103L91.5625,85.66025431784571L91.6875,99.14303572872822L91.75,97.93153318853902L92.375,121.2176316644255L92.4375,102.9088005155824L92.625,117.27771471690151L92.875,122.07883244342219L93.125,128.08511066396997L93.25,125.98829068223614L93.375,131.83445552913332L93.5,121.55966224977168L93.625,123.52833576132136L93.6875,133.24051350106365L93.875,135.4359207308465L93.9375,133.1434194632475L94,129.28355200346934L94.125,128.23996307057118L94.4375,105.42498907281146L94.5625,100.79139074186399L94.6875,94.40817933444131L95.125,102.24111398087311L95.375,102.43417359685719L95.5,110.71742814899972L95.9375,108.8094731654415L96,104.88768617791072L96.0625,114.19817648539227L96.125,119.28975029227705L96.1875,112.00107462198079L96.4375,107.48456567162596L96.625,93.5568243639131L97.25,94.75887098553534L97.375,101.17245621762333L97.5,113.775587011824L97.625,105.9477898698548L97.8125,80.92910222594936L97.9375,88.40405817801755L98.0625,71.51938347451888L98.125,81.210658079503L98.1875,83.44029898181641L98.25,80.90403827580862L98.3125,85.81037218423518L98.375,102.63869515298902L98.5625,112.9323459980434L98.75,108.13999093215942L99.0625,103.84470793820188L99.125,109.47321473687946L99.1875,117.14640035905477L99.4375,120.07847221413078L99.875,123.84337922691597L100,124.47812372755587L100.125,133.61107882637725L100.1875,125.83765038827426L100.25,126.28676341004788L100.4375,124.9429211645183L100.5625,116.8340790333464L100.6875,108.93713019995576L100.75,108.7929905223172L100.875,105.71751908552571L101.1875,104.648589413555L101.3125,101.73497298407051L101.375,99.65059723445272L101.5625,94.1987185294737L101.625,105.95192594190297L101.75,91.25027958857929L101.8125,91.80116905523091L102,98.2282829761073L102.125,87.0249357687373L102.25,77.32095470668511L102.4375,93.07735993338605L102.875,108.3809032647191L103.125,114.8765510734148L103.1875,121.73547279899681L103.25,116.88928856221058L103.75,120.8605228443576L103.875,113.94802659723958L104,113.71594323698959L104.1875,108.6559837481833L104.5625,81.2245259585454L104.625,101.65737947486684L104.75,109.8084771640868L104.8125,108.12325735965001L104.875,108.03701577646707L105.125,106.65371841770316L105.25,103.43689039306979L105.375,104.4138687736023L105.5625,104.89342559358849L105.625,112.96513608531978L105.8125,106.73675092202521L105.875,99.56522649722554L106.0625,109.91591828765826L106.5625,102.59281464446998L106.625,98.81686798590069L106.6875,87.36550702200918L107.125,68.69284189224199L107.375,69.18656418482438L107.6875,55.503009718576926L107.8125,63.07116618270865L108.0625,79.72203092707309L108.25,96.16164157056681L108.625,102.05283731864215L109,115.88380379092489L109.125,107.11876551023202L109.3125,109.24658287384754L109.375,112.72326075946474L109.4375,111.92760147521008L109.5,113.43652003226144L109.625,115.44434724071104L109.75,119.49691710093704L109.8125,104.84880406915595L110,112.75370968758735L110.0625,105.52115110552116L110.4375,101.01153962164602L110.6875,87.23268077168555L111,79.53658225858423L111.0625,83.33100371712972L111.125,78.82738120163201L111.375,86.6856219175938L111.5625,92.87626735628545L111.875,102.51913671585461L112.0625,113.84623935373153L112.375,120.2101703700514L112.4375,110.66555713739544L112.625,113.52916615092684L112.875,111.11471957987901L113.125,102.45812227527112L113.4375,103.16945507089186L113.75,111.76747626519135L113.875,103.39321199609401L114.0625,99.11504568723977L114.125,96.0906654331772L114.25,77.10210140834384L114.6875,78.20990488797506L115.3125,79.97180068018086L115.5,85.92373909951479L115.75,98.10728886986517L115.875,95.22666677895035L116.25,99.11020758690144L116.5,109.55358109510959L116.5625,100.14473410628449L116.625,86.6674736017915L116.6875,90.43691954518953L116.75,94.11947496930121L117.1875,86.5732372276745L117.25,84.03939497332345L117.5,88.69936842930659L117.8125,94.51839189091729L117.875,84.21633770616495L118.125,60.49630848307396L118.3125,63.54239869661523L118.5625,86.5690774015629L119.8125,91.87000373260442L120.0625,104.17799589190642L120.6875,90.2893156015501L120.75,78.29832829322173L121,64.54725047528201L121.125,62.99665204298169L121.1875,76.29825685078902L121.25,60.0888788337807L121.3125,72.47127896042463L121.5,76.7030323502131L121.8125,82.9412710702841L121.9375,87.6198694130038L122,89.44916871811478L122.1875,79.07553117878554L122.3125,75.43412551065671L122.375,62.11407882201901L122.5,63.69201597810725L122.5625,65.89641743191643L123.125,81.77066312191027L123.3125,59.13889494345866L123.375,77.32318120435644L123.5,63.04045047066074L123.9375,65.92496966390686L124.1875,63.31500873519309L124.375,76.03710078148045L124.5625,70.32117868177889L124.625,70.03544483927564L124.875,71.84900306892997L124.9375,65.66450454318093L125.12499999999999,39.35754004687209L125.5625,19.399356222133672L125.62499999999999,39.89780969682187L125.68750000000001,48.008232286192055L125.8125,57.211307535777706L125.93750000000001,66.26844728188331L126,78.5511964615779L126.43750000000001,97.52951849543632L126.75,94.57124364934513L127.12499999999999,80.78772372866958L127.3125,99.55168257704548L127.37499999999999,95.92723106315437L127.5625,83.42563958190304L128,89.55511551997516L128.1875,94.7080987716205L128.25,92.68369373562855L128.3125,89.94116773877299L128.875,95.88611161331585L129.0625,96.67364401877077L129.125,84.85445838391871L129.25,88.35753782331997L129.4375,92.929866443992L129.5,93.19013568670768L129.5625,91.78771389900379L129.75,73.77687191036578L130,68.60433375819865L130.3125,67.84302636169004L130.9375,67.02205328446193L131,84.67181579229178L131.0625,80.56078234646883L131.3125,74.91835091829797L131.375,88.82460706790587L131.4375,93.75782657798311L131.9375,100.1185743647586L132.125,109.0535035055739L132.75,104.41498849657351L132.9375,93.77117620341284L133.1875,77.30602465108416L133.4375,71.54058484273382L133.5625,43.64155044991114L133.75,53.33306389624877L133.8125,57.943446247905506L134.125,41.28541410290998L134.1875,29.928999845209542L134.4375,33.734988041891356L134.5,26.336358303650446L134.5625,37.86379138192986L134.625,19.25287468267354L134.75,36.62484264814577L135.125,52.536281402689525L135.375,66.40641190801996L135.625,56.71986854780675L135.875,67.84651699456947L136.0625,77.98226452616876L136.1875,84.15906949044084L136.5625,82.09497359530617L136.625,80.75899896838163L136.6875,59.720361376471686L136.75,68.07809833629966L137.0625,68.38894054474859L137.125,52.735453519557495L137.1875,60.411137508869906L137.4375,70.46850704959274L137.625,50.46567372845356L137.75,63.073542095145065L137.9375,60.130122083258904L138.0625,63.26317790490328L138.125,50.01906624815031L138.1875,59.01095765253602L138.25,71.6936007959487L138.625,68.14944506415777L138.875,71.60658044995299L138.9375,78.96163056163844L139,55.71632680703515L139.0625,72.54169696312734L139.375,70.8178765763139L139.875,70.21284199396544L139.9375,79.80475565210843L140.1875,78.95969177017128L140.3125,80.62914269882151L140.5,87.20408539142834L140.625,84.20791803173199L140.8125,88.76616162633086L140.875,92.84285843413184L141.375,91.99195383001039L141.5625,91.95477467430831L142.1875,82.01677007802246L142.3125,86.54559622650098L142.5,89.62672524892146L142.75,100.2476194592487L142.8125,95.65735292554922L142.875,63.00318087967849L143.0625,77.58586588457796L143.25,86.80152311147597L143.5,89.76668372365639L143.75,86.31023110007922L143.875,79.22342414181837L144.25,72.67080090436184L144.375,61.583546786106666L144.9375,87.0260035599453L145.1875,82.05536108779012L145.375,85.99116733626782L145.4375,94.91425964655235L145.5625,97.3319335548585L145.625,76.13873353786306L145.75,79.26217208886366L146,83.10783775852653L146.125,75.72377654834507L146.5625,50.0984060657258L146.625,15.08058909028184L146.6875,38.886479919012864L146.75,50.20609026260564L146.9375,57.30191197006336L147.5,76.34708663516301L147.8125,73.5672430292749L147.875,49.71115001678367L147.9375,35.1540807978306L148.1875,46.374145337422306L148.25,46.486521382140864L148.375,43.0367250037637L148.5625,32.16707495994049L148.75,30.334992697318466L148.9375,43.99477003245356L149,52.274882364524224L149.125,47.11376657691764L149.25,54.04129217271309L149.375,55.75020059659663L149.6875,45.38532388985899L149.9375,57.081593259696646L150.125,56.67263385295341L150.5,60.13105427010538L150.5625,67.13714867534448L150.625,61.34279726184732L150.8125,69.66188913184796L151.125,71.51047071869212L151.5,73.97882832965279L151.5625,73.05883866445835L151.8125,77.61121872601876L152.1875,81.4540246926425L152.25,78.16358131949175L152.5,75.89618785419502L152.5625,81.15529441824616L152.625,81.59014198297895L152.8125,64.3985787607509L152.9375,73.42449670306512L153.125,71.35479698017241L153.3125,68.78336451622845L153.5,67.84808788291416L153.75,68.22972154485264L153.8125,56.12285709683347L153.875,61.03175690132926L153.9375,59.5436414617611L154,52.39033347731708L154.125,48.164555636520454L154.1875,53.47026959610497L154.25,58.22530759099631L154.8125,43.45058714248844L154.9375,52.006373932628456L155.0625,70.34849981530623L155.3125,80.03486030585043L155.4375,76.48190544132277L155.5,90.98642321271033L155.6875,71.29780379741787L157.3125,37.78964842428403L157.5625,25.657562329309986L157.625,40.729194054487024L157.875,21.027303948968267L158,39.40744307901637L158.1875,53.91707392032649L158.4375,28.085789843732353L158.5,26.34451532876548L158.75,41.42866915819678L158.9375,16.554319903121172L159.1875,35.94747231296646L159.625,57.218935698977795L159.6875,59.74823780285023L159.75,63.94497507103305L160.4375,62.80290960316669L160.5,54.1113347918479L160.625,50.7803230919056L160.875,55.41974422949235L161.1875,35.36047235149749L161.5,46.240349817148505L161.625,45.839804698231816L161.6875,31.636398769459905L161.8125,17.58001308980094L161.875,36.64692289294306L161.9375,47.9515243412346L162.1875,24.990487684167842L162.3125,32.81443404930279L162.375,25.279352161352502L162.5,38.146757292905264L162.6875,32.22112647860774L162.8125,23.02727720552399L163.0625,40.5861182764394L163.125,39.05383909737405L163.375,49.09692894670568L163.4375,17.005685932476513L163.6875,34.847761494381764L163.75,45.42022322149882L163.9375,24.612551331987838L164,21.2971090055729L164.1875,30.62840619110417L164.6875,34.93376987026146L164.75,16.880220825151657L164.9375,8.294969653294109L165.1875,21.128558289372304L165.5625,19.13798547818067L165.875,38.03016970487717L166.1875,39.49773504232735L166.375,59.46378995117765L166.8125,50.25418844010764L167.25,64.9189928817729L167.9375,72.16037733713665L168.0625,71.80140804290701L168.375,63.130982683817116L168.6875,54.166637217712136L168.8125,59.695544505106454L168.875,66.83238985410553L168.9375,76.86764045543205L169.3125,75.26362659096756L169.4375,60.53175717202846L169.5,64.75918613915458L169.625,55.30916069065421L169.6875,59.97184211751755L170.0625,61.62682532259386L170.3125,63.01511716621255L170.4375,64.12009341170668L171,66.39845383348235L171.1875,51.132665236287316L171.375,47.06082814567864L171.5,53.41452122008948L172.125,59.1475164429912L172.3125,66.62405055589888L172.375,70.53096630359143L172.75,60.14398359074861L172.9375,56.12624814598562L173.5,59.65218899175806L173.75,61.82316202786734L173.8125,55.093511393152696L174.0625,51.26278758133433L174.5,57.301641949842264L175,70.03927341860329L175.3125,75.08100285324532L175.375,81.82039012340555L175.5625,65.02032310399123L175.6875,76.84311101734265L176,74.33516755441599L176.1875,59.748419054785L176.5,68.25669319719394L176.875,72.17215084670178L177,49.487448873906466L177.1875,44.41755949361473L177.5,52.552380748252176L177.625,56.94120831548777L177.6875,57.81523605700098L177.75,50.099770703211L177.875,47.1874356641141L177.9375,55.679329074249715L178.1875,57.80201362293527L178.25,51.72219718743303L178.3125,48.53552811063691L178.5625,45.625016003751945L178.6875,51.47243318623554L179.0625,53.06237999637674L179.25,47.958164895612505L179.4375,46.811344900909184L179.5625,43.56822352583194L179.875,55.44549661549916L180.25,59.517141231018236L180.5625,62.80506484928803L180.6875,62.765961272854064L180.8125,55.77378192321766L180.875,56.41055414742018L180.9375,51.709437143400024L181.0625,52.21119963955563L181.125,53.8120384686292L181.75,47.27122568534419L182,55.405189512769L182.1875,51.4377476594843L182.4375,57.82273892772184L183,58.15913123098204L183.1875,45.259759256167364L183.4375,21.40635164745041L183.5,29.90531652232441L183.6875,44.39291680141547L183.8125,44.53963810168264L183.875,54.29465379199915L184.25,59.544689736137L184.625,62.28839489636969L184.875,63.26158202245723L185.125,62.01967764771913L185.25,62.739572050871054L185.3125,65.03794065890803L185.5625,64.27977709065732L185.8125,54.6114873481444L185.9375,48.716875970084544L186.0625,39.90439617124342L186.5,39.81124658946479L186.5625,29.90445506630907L186.8125,34.42757456973336L187.0625,14.960101463845211L187.25,29.007242681692546L187.375,36.19394904326031L187.4375,28.484468384289517L187.5,22.431170125625783L187.6875,35.999645353370255L187.8125,44.31645330902737L187.875,49.89727270156224L188,24.30177979932276L188.125,30.523100268916583L188.3125,13.710294894422859L188.4375,24.044217138476654L188.5625,30.442135019414117L188.625,33.27898527597139L188.6875,35.875016491103665L188.8125,17.414057176563237L188.9375,14.891132385365037L189.25,4.627256905177338L189.375,-1.5481038647060865L189.4375,3.346510646671125L189.875,7.453858943341228L190,11.538924171343277L190.125,-7.303255767376335L190.875,-1.432562961672126L191.5625,4.63729555633008L191.625,11.671484999813666L191.75,10.943162402882974L191.9375,20.2738281871725L192.1875,6.400969682485786L192.3125,18.444954368085238L192.375,18.09694649780426L192.6875,17.05479558422943L192.75,4.827784984001207L192.8125,9.318120941572591L193,13.75977499007377L193.0625,12.702922773992182L193.25,13.375050702155724L193.625,19.69272215306428L193.6875,0.743362377125036L193.8125,-2.4217532442979035L193.9375,11.24828252607752L194.0625,2.3334283372610836L194.125,1.7674481970180964L194.8125,5.521666916257734L194.875,-0.9333625618339145L194.9375,4.8344348554778L195.125,9.064922143755426L195.4375,9.987527749143876L195.5,21.809087613028L195.8125,20.90234758734805L195.875,27.25587795345049L195.9375,19.793901853450503L196,19.542432746184872L196.125,17.187175305263004L196.1875,15.234253425345296L196.25,14.504169649608214L196.4375,20.771420409556594L197.125,35.02319331018709L197.5,36.98868454079977L197.625,38.54777257343817L198.125,18.866211232864977L198.1875,27.217077000135635L198.25,12.70395966036785L198.375,12.399608869137385L198.8125,6.273593446482407L199,0.36406980486862695L199.125,-4.098261811740298L199.3125,13.840998072461048L199.4375,17.008361620169346L199.5625,30.303289188898486L200.125,24.09508622492765L200.1875,12.341343808524273L200.25,18.701280080687486L200.375,27.091446352448948L200.5,15.666898817328743L200.625,10.26538619794933L200.75,30.48939513022793L200.8125,18.290098422537778L201.0625,34.866375052871625L201.125,38.330087401514625L201.1875,47.630922151195236L201.5,51.192406318060904L201.5625,34.42139089370114L201.6875,25.930525698330065L201.8125,23.39503555246158L201.875,19.535395924575905L202.125,17.934521408912214L202.1875,17.24154210967024L202.4375,16.464955702000076L202.5,24.369167919897958L202.5625,28.654464456365844L202.625,23.733132124340344L202.75,33.53711893931773L202.8125,19.391152467106252L202.875,16.733404452268974L203.3125,5.084916532038456L203.375,21.18123507547307L203.4375,28.193129717158836L203.75,36.21243569162342L203.8125,10.46489533424491L204.0625,22.95023993492196L204.25,19.067636229833386L204.4375,35.6576186031344L204.5625,36.69744168596917L204.6875,27.274736984237734L204.8125,20.89182941384994L204.875,37.15788435078391L204.9375,28.111238504350553L205.25,32.88049928750619L205.3125,35.66140609919641L206.0625,26.477311188814724L206.1875,22.9225544378982L206.625,19.533208769509727L207,17.39260625128918L207.0625,15.771169789184963L207.75,15.486890919734924L207.8125,15.75080040470554L208.375,15.397462257797269L208.5,18.961147276553362L208.625,27.0988103548643L208.6875,14.102602863309198L208.8125,14.211992300667799L208.9375,25.93211375605172L209,19.466025659229988L209.1875,26.91989444827237L209.4375,21.954544416359255L209.5,10.9847571673937L209.8125,17.893675589498734L209.9375,13.530086782735692L210.0625,20.115237290995584L210.125,-2.6579115804807767L210.375,12.406556111607365L210.5,12.442988110323801L210.6875,1.7927997835119784L211.1875,2.8731968785707487L211.25,-0.7470909874408873L213.8125,-4.931222105046286L213.875,1.1238910045503396L214,4.600360156115614L214.0625,18.977068063070416L214.375,15.029466830680802L214.625,13.099608158304322L214.6875,13.886196210086771L215.5625,31.318205112119774L215.75,37.57780408940727L215.9375,42.79582047447769L216.125,44.04842042596265L216.375,31.474128427452605L216.4375,43.03510531167988L216.5625,29.15220568375271L216.625,42.91263631715269L216.6875,48.34655517896349L217.0625,24.026274253211426L217.375,40.55044065869768L217.4375,51.22036905016653L217.5,48.97135025496971L217.5625,51.637088717434935L217.75,46.27434453905474L217.875,34.19994241679219L217.9375,15.837354203330515L218.3125,28.780427251816022L218.5,44.011408369318794L218.625,54.23874101768504L218.6875,39.96818430787664L218.8125,51.34387949748643L218.875,53.11582273429914L219,59.245906563756556L219.1875,63.33275080674352" style="fill: none;" fill="none"></path></g></g></g></g><g opacity="0.2"><g><g><g><path stroke="rgb(255, 112, 67)" stroke-width="2px" d="M31.4375,121.11204833984375L31.5,97.86925089518229L31.875,125.0113635253906L32.125,97.1245007324219L32.1875,128.2627734375L32.375,132.56039143880207L32.4375,112.08377115885418L32.5,153.17555704752604L32.625,88.92483072916667L32.6875,90.50406982421876L32.875,121.48660807291667L32.9375,171.83553141276042L33.625,124.48356608072918L33.75,124.39858072916667L34.1875,118.86778686523436L34.25,119.85421712239584L34.3125,115.21941853841146L34.4375,141.0665848795573L34.625,132.53424763997396L34.8125,146.12751057942708L35,144.7827734375L35.0625,145.26246053059896L35.125,143.8844014485677L35.1875,33.842991536458335L35.3125,125.2531396484375L35.375,90.63157185872396L35.4375,144.7182421875L35.5,143.30998209635416L35.625,156.2424239095052L35.6875,125.59166463216145L36.0625,158.47117675781251L36.1875,146.0974776204427L36.375,159.33814737955728L36.5625,128.3069706217448L36.8125,144.13674072265624L37.4375,152.60509887695312L37.6875,153.7557861328125L37.875,153.5957784016927L37.9375,159.34952677408856L38.0625,158.2724454752604L38.5,160.85904907226563L38.8125,148.0593428548177L39.0625,165.60444864908854L39.125,153.4915633138021L39.25,157.41639811197916L39.375,131.4826619466146L39.75,145.57981119791665L39.8125,158.27887939453126L40.25,157.49804646809895L40.375,161.6060799153646L40.4375,159.84899576822914L40.625,158.46750366210938L41.0625,160.36481363932293L41.25,160.09600545247395L41.375,169.9295068359375L41.5,149.38583455403645L41.875,164.1192696126302L41.9375,135.13237467447917L42,173.922666015625L42.3125,162.71806762695314L42.5625,160.53187947591147L42.75,162.7043595377604L42.8125,159.3848173014323L42.875,179.76363240559897L43.125,171.91233032226563L43.1875,149.7087548828125L43.25,164.81031575520834L43.6875,161.09331095377604L43.875,162.66198689778645L43.9375,176.20531494140624L44,163.61917643229165L44.0625,184.1096008300781L44.1875,165.38547932942708L44.4375,171.63927286783854L44.5625,164.16685180664064L44.6875,170.49754028320314L44.9375,163.61682373046875L45,176.80450968424478L45.0625,174.43442667643228L45.25,164.1900907389323L45.5625,170.68854125976563L46.1875,158.16266072591148L46.5,170.0831766764323L46.5625,164.4768562825521L46.625,162.02296427408854L47.125,169.13321329752603L47.375,168.73479044596354L47.4375,181.65918986002603L48.1875,184.8898815917969L48.375,175.58499389648438L48.5,184.00833862304685L48.625,185.1311775716146L48.75,169.13604614257812L48.875,178.01571899414063L49.0625,183.6547371419271L49.25,168.4857881673177L49.375,184.62957194010417L49.6875,161.43308430989583L49.8125,164.7752412923177L49.875,143.53454508463543L50.375,169.31470743815103L50.5,162.87639485677084L50.75,153.2271484375L51,163.29560791015624L51.125,179.49664876302086L51.1875,176.18870198567708L51.375,181.70449137369792L52.3125,169.14312825520832L52.375,173.90000325520833L52.6875,171.43953328450522L52.8125,167.53968994140627L52.875,158.74869954427083L53.25,165.02066650390626L53.375,159.80727132161456L53.625,148.60812255859375L53.875,173.65246541341148L53.9375,158.76550455729165L54,178.26937866210938L54.0625,156.0214619954427L54.125,152.63803670247395L54.1875,171.06118041992187L54.875,144.00201253255207L55.375,178.36447102864582L55.625,175.8698388671875L55.75,152.3129317220052L55.875,165.7319746907552L56.0625,154.55745727539062L56.375,169.81856974283855L56.5,157.75127400716147L56.8125,157.54942179361979L57.0625,169.28757934570314L57.125,152.61251708984375L57.1875,161.33616739908854L57.5625,150.50886555989584L57.625,170.50409423828125L57.8125,171.0881884765625L57.875,162.03292724609375L58.125,180.7912109375L58.4375,166.45413411458335L58.5,159.52156209309894L58.5625,182.2669791666667L58.6875,175.44217529296876L58.9375,156.86401733398438L59,180.55025105794272L59.125,158.42333048502604L59.375,167.30994140625L59.5,154.3906795247396L59.75,166.3591377766927L60,159.82957397460936L60.0625,155.85055501302082L60.3125,157.12147013346356L60.375,166.08728068033852L60.5,143.75233805338542L60.625,161.30114095052082L60.875,155.7201241048177L60.9375,160.01286865234374L61.25,166.1700573730469L61.3125,156.5656083170573L61.5,155.7884004720052L61.6875,155.84056803385417L61.75,151.35185302734376L61.8125,172.8113985188802L61.9375,154.98269612630207L62.125,149.9043172200521L62.375,163.43009602864583L62.625,160.409130859375L62.68749999999999,154.6493806966146L63.06249999999999,159.6480078125L63.125,162.54929728190103L63.18749999999999,161.10149739583335L63.25,160.78441080729166L63.31249999999999,147.37931599934896L63.375,154.69112915039062L63.56249999999999,158.68155151367188L63.625,155.40378173828125L63.68749999999999,157.74054280598958L64.5625,164.63359903971354L64.625,157.87068562825522L64.75,151.71508138020832L64.8125,153.65666056315104L64.875,154.08907755533855L65,157.65310872395833L65.125,164.00297892252604L65.25,161.75451619466145L65.375,152.89229654947917L65.4375,147.194052734375L65.625,147.30477376302082L65.75,156.06167399088542L65.9375,149.8076883951823L66,156.68237915039063L66.375,157.39519978841145L66.4375,153.4649393717448L66.5,161.74743408203125L66.75,154.49232584635416L66.9375,150.05352172851562L67.0625,155.95510620117187L67.25,160.52544555664062L67.5,153.07830403645835L67.75,162.3678751627604L67.8125,147.87143880208333L68,151.07975585937498L68.125,159.32266276041668L68.1875,160.57285970052084L68.375,160.94069742838542L68.5,157.03077107747396L68.625,144.70779907226563L68.6875,153.66134195963542L68.875,161.10982788085937L68.9375,159.3214864095052L69.25,151.89681559244792L69.5625,165.14824055989584L69.625,133.98521647135416L69.75,159.65677042643227L70,158.36881022135415L70.125,159.80494262695314L70.1875,151.21409993489584L70.375,137.25206298828124L70.5,151.05310791015623L70.5625,156.57064982096355L70.8125,136.95859944661458L71.0625,158.90385782877604L71.25,152.29125325520832L71.3125,160.35165771484375L71.375,150.19141886393228L71.4375,156.73281819661457L71.5,156.79427652994792L71.8125,144.15765096028645L71.9375,156.0064815266927L72,129.71981608072917L72.125,158.8829715983073L72.1875,135.27437703450522L72.375,151.68545654296875L72.5,153.9367041015625L72.9375,163.01712483723958L73.125,144.03919962565104L73.4375,147.837060546875L73.5,138.56676717122397L73.75,178.02911499023435L74,146.46010579427082L74.1875,152.00095865885416L74.5,118.55605387369792L74.625,102.74289672851563L74.75,148.87995564778646L74.8125,163.39427734375L74.9375,154.71547241210936L75.125,155.44941935221354L75.3125,163.4097139485677L75.625,139.9954813639323L75.9375,154.2589042154948L76.0625,147.0403348795573L76.25,147.0226416015625L76.3125,131.49087239583332L76.4375,141.68611368815104L76.5625,120.27040527343752L76.625,133.89523763020833L76.75,156.09305135091145L76.8125,152.71346720377602L76.9375,134.37806966145834L77,149.6291951497396L77.0625,156.06496297200522L77.375,146.78228190104167L77.625,148.76145629882814L77.75,145.43992146809896L78.5,141.00500651041668L78.625,151.9901554361979L79,135.17830037434896L79.0625,117.96807047526042L79.25,157.48899576822916L79.3125,125.66070922851561L79.5,153.4845292154948L79.6875,148.9643888346354L79.75,144.01526448567708L79.875,154.05637980143229L79.9375,140.3730419921875L80,125.64042317708333L80.0625,152.13467854817708L80.125,132.86021687825522L80.5,122.82822428385417L80.6875,116.50344156901042L81.5,133.49928751627604L81.5625,112.22995076497396L81.625,128.2940547688802L81.6875,148.12447428385417L81.875,129.5961551920573L82.375,115.86441894531251L82.4375,127.4783154296875L82.9375,148.66782836914064L83,108.90337443033854L83.25,149.47768595377605L83.3125,146.93573567708333L83.4375,143.29903483072917L83.5,120.29534871419271L83.6875,130.08006754557294L83.75,128.40633626302082L83.9375,144.65349487304687L84.0625,151.4230822753906L84.375,157.58274373372396L84.4375,145.07700520833333L84.8125,55.03910644531249L85,97.900244140625L85.125,86.4593672688802L85.3125,110.30248779296876L85.375,95.5324178059896L85.625,127.43044514973958L85.6875,100.839873046875L86.5,125.36594930013021L86.625,156.0142118326823L86.875,133.0073087565104L87,127.96796549479167L87.1875,135.65695515950523L87.3125,133.37898763020834L87.375,132.1838631184896L87.5625,104.99966593424477L87.625,126.60980834960938L87.9375,124.52673095703125L88,95.53683512369791L88.125,114.93656616210937L88.1875,123.16912597656251L88.375,119.04229492187501L88.625,122.78930867513021L88.6875,135.57429850260417L88.8125,128.22349772135416L89.25,151.6265909830729L89.375,132.40753784179688L89.4375,132.7755916341146L89.5,96.77414021809895L89.9375,114.02611857096355L90.125,132.83863444010416L90.3125,133.65449381510416L90.5625,82.24956746419272L90.75,124.1426163736979L90.9375,133.9493017578125L91.25,13.683313802083333L91.4375,71.97416625976562L91.5625,99.7496358235677L91.6875,119.36720784505209L91.75,96.11427937825522L92.375,156.14677937825522L92.4375,75.44555379231771L92.625,138.8310860188802L92.875,129.28050903320312L93.125,137.09452799479166L93.25,122.84306070963542L93.375,140.60370279947918L93.5,106.14747233072916L93.625,126.48134602864585L93.6875,147.80878011067708L93.875,138.72903157552082L93.9375,129.70466756184894L94,123.4937508138021L94.125,126.67457967122395L94.4375,71.20252807617189L94.5625,93.8409932454427L94.6875,84.83336222330729L95.125,113.99051595052084L95.375,102.72376302083333L95.5,123.14230997721354L95.9375,105.94754069010418L96,99.00500569661457L96.0625,128.16391194661458L96.125,126.92711100260416L96.1875,101.06806111653646L96.4375,100.70980224609376L96.625,72.66521240234376L97.25,96.56194091796876L97.375,110.7928340657552L97.5,132.68028320312501L97.625,94.20609415690103L97.8125,43.40107076009115L97.9375,99.6164921061198L98.0625,46.19237141927084L98.125,95.74756998697917L98.1875,86.78476033528646L98.25,77.09964721679688L98.3125,93.169873046875L98.375,127.8811796061198L98.5625,128.37282226562502L98.75,100.95145833333333L99.0625,97.40178344726561L99.125,117.91597493489583L99.1875,128.6561787923177L99.4375,124.47657999674479L99.875,129.49073974609377L100,125.43024047851563L100.125,147.31051147460937L100.1875,114.1775077311198L100.25,126.96043294270832L100.4375,122.92715779622397L100.5625,104.67081583658855L100.6875,97.09170694986977L100.75,108.57678100585936L100.875,101.10431193033854L101.1875,103.04519490559895L101.3125,97.36454833984375L101.375,96.52403361002604L101.5625,86.02090047200521L101.625,123.58173706054687L101.75,69.19781005859375L101.8125,92.62750325520834L102,107.86895385742186L102.125,70.21991495768229L102.25,62.764983113606775L102.4375,116.71196777343748L102.875,131.33621826171876L103.125,124.62002278645832L103.1875,132.0238553873698L103.25,109.62001220703125L103.75,126.81737426757812L103.875,103.5792822265625L104,113.36781819661458L104.1875,101.06604451497395L104.5625,40.07733927408853L104.625,132.30665974934897L104.75,122.03512369791667L104.8125,105.59542765299479L104.875,107.9076534016927L105.125,104.5787723795573L105.25,98.61164835611979L105.375,105.87933634440104L105.5625,105.61276082356771L105.625,125.07270182291667L105.8125,97.39417317708333L105.875,88.80793986002604L106.0625,125.4419559733073L106.5625,91.6081591796875L106.625,93.15294799804688L106.6875,70.18846557617188L107.125,40.68384419759115L107.375,69.9271476236979L107.6875,34.977678019205726L107.8125,74.42340087890625L108.0625,104.6983280436198L108.25,120.8210575358073L108.625,110.88963094075521L109,136.63025349934895L109.125,93.9712080891927L109.3125,112.43830891927084L109.375,117.93827758789062L109.4375,110.73411254882812L109.5,115.69989786783853L109.625,118.45608805338541L109.75,125.57577189127603L109.8125,82.87663452148438L110,124.61106811523436L110.0625,94.67231323242187L110.4375,94.24712239583332L110.6875,66.5643924967448L111,67.99243448893229L111.0625,89.02263590494792L111.125,72.07194742838543L111.375,98.47298299153645L111.5625,102.16223551432292L111.875,116.98344075520833L112.0625,130.83689331054688L112.375,129.75606689453124L112.4375,96.34863728841147L112.625,117.82457967122394L112.875,107.4930497233073L113.125,89.47322631835937L113.4375,104.23645426432292L113.75,124.66450805664061L113.875,90.83181559244792L114.0625,92.69779622395833L114.125,91.55409505208333L114.25,48.61925537109376L114.6875,79.87161010742187L115.3125,82.61464436848959L115.5,94.8516467285156L115.75,116.38261352539062L115.875,90.90573364257813L116.25,104.93551879882811L116.5,125.21864135742189L116.5625,86.03146362304688L116.625,66.45158284505209L116.6875,96.09108846028646L116.75,99.64330810546875L117.1875,75.25388061523437L117.25,80.23863159179687L117.5,95.68932861328125L117.8125,103.24692708333333L117.875,68.76325642903646L118.125,24.916264648437497L118.3125,68.1115340169271L118.5625,121.10909545898437L119.8125,99.82139322916667L120.0625,122.63998413085939L120.6875,69.45629516601562L120.75,60.31184733072917L121,43.92063374837239L121.125,60.670754394531244L121.1875,96.25066406249998L121.25,35.77481180826823L121.3125,91.04487915039061L121.5,83.05066243489583L121.8125,92.29862915039061L121.9375,94.63776692708332L122,92.19311767578124L122.1875,63.51507486979167L122.3125,69.97201700846354L122.375,42.1340087890625L122.5,66.0589217122396L122.5625,69.20301961263021L123.125,105.58203165690104L123.3125,25.191242675781243L123.375,104.59961059570313L123.5,41.61635437011719L123.9375,70.25174845377605L124.1875,59.4000673421224L124.375,95.12023885091146L124.5625,61.747295532226566L124.625,69.60684407552083L124.875,74.56934041341147L124.9375,56.387756754557294L125.12499999999999,-0.10290669759114968L125.5625,-10.537919514973975L125.62499999999999,70.64548990885417L125.68750000000001,60.17386617024741L125.8125,71.01592041015624L125.93750000000001,79.85415690104166L126,96.97532023111981L126.43750000000001,125.99700154622396L126.75,90.13383138020833L127.12499999999999,60.11244384765626L127.3125,127.6976208496094L127.37499999999999,90.49055379231771L127.5625,64.67325236002604L128,98.74932942708334L128.1875,102.43757364908853L128.25,89.64708618164063L128.3125,85.82737874348958L128.875,104.80352742513021L129.0625,97.8549426269531L129.125,67.12567993164062L129.25,93.61215698242188L129.4375,99.78835937499998L129.5,93.58053955078124L129.5625,89.68408121744793L129.75,46.76060892740885L130,60.84552652994792L130.3125,66.70106526692707L130.9375,65.79059366861979L131,111.14645955403645L131.0625,74.39423217773437L131.3125,66.45470377604167L131.375,109.6839912923177L131.4375,101.15765584309895L131.9375,109.65969604492189L132.125,122.45589721679688L132.75,97.45721598307293L132.9375,77.80545776367187L133.1875,52.60829732259115L133.4375,62.89242513020832L133.5625,1.7929988606770804L133.75,67.8703340657552L133.8125,64.85901977539064L134.125,16.298365885416672L134.1875,12.89437845865886L134.4375,39.443970336914056L134.5,15.23841369628906L134.5625,55.15494099934896L134.625,-8.663500366210956L134.75,62.68279459635416L135.125,76.40343953450521L135.375,87.21160766601562L135.625,42.19005350748697L135.875,84.53648966471354L136.0625,93.18588582356772L136.1875,93.42427693684897L136.5625,78.99882975260418L136.625,78.75503702799479L136.6875,28.162404988606767L136.75,80.61470377604167L137.0625,68.85520385742187L137.125,29.25522298177084L137.1875,71.92466349283853L137.4375,85.55456136067708L137.625,20.46142374674479L137.75,81.9853446451823L137.9375,55.71499206542968L138.0625,67.9627616373698L138.125,30.15289876302083L138.1875,72.49879475911459L138.25,90.7175655110677L138.625,62.833211466471354L138.875,76.79228352864584L138.9375,89.99420572916665L139,20.84837117513021L139.0625,97.77975219726562L139.375,68.23214599609373L139.875,69.30529012044272L139.9375,94.19262613932291L140.1875,77.69209594726563L140.3125,83.13331909179688L140.5,97.06649943033854L140.625,79.7136669921875L140.8125,95.60352701822916L140.875,98.95790364583333L141.375,90.71559692382812L141.5625,91.8990059407552L142.1875,67.10976318359376L142.3125,93.33883544921873L142.5,94.24841878255208L142.75,116.17896077473958L142.8125,88.77195312499998L142.875,14.021922810872406L143.0625,99.45989339192708L143.25,100.62500895182292L143.5,94.2144246419271L143.75,81.12555216471354L143.875,68.59321370442709L144.25,62.84186604817709L144.375,44.95266560872396L144.9375,125.18968872070313L145.1875,74.5993973795573L145.375,91.89487670898437L145.4375,108.29889811197916L145.5625,100.9584444173177L145.625,44.3489335123698L145.75,83.94732991536458L146,88.87633626302083L146.125,64.64768473307292L146.5625,11.660350341796876L146.625,-37.44613637288411L146.6875,74.59531616210938L146.75,67.1855057779948L146.9375,67.94564453125001L147.5,104.91484863281248L147.8125,69.39747762044271L147.875,13.927010498046878L147.9375,13.318476969401042L148.1875,63.2042421468099L148.25,46.65508544921875L148.375,37.86203043619791L148.5625,15.862599894205722L148.75,27.586869303385424L148.9375,64.48443603515625L149,64.69505086263021L149.125,39.37209289550782L149.25,64.43258056640626L149.375,58.31356323242187L149.6875,29.838008829752596L149.9375,74.62599731445313L150.125,56.05919474283854L150.5,65.31868489583334L150.5625,77.64629028320311L150.625,52.65127014160157L150.8125,82.14052693684896L151.125,74.28334309895834L151.5,77.68136474609375L151.5625,71.67885416666667L151.8125,84.43978881835938L152.1875,87.21823364257811L152.25,73.22791625976562L152.5,72.49509765625L152.5625,89.04395426432292L152.625,82.24241333007812L152.8125,38.611233927408854L152.9375,86.96337361653646L153.125,68.25024739583333L153.3125,64.9262158203125L153.5,66.44517293294271L153.75,68.80217203776041L153.8125,37.96256042480469L153.875,68.39510660807291L153.9375,57.31146830240885L154,41.660371500651046L154.125,41.82588887532552L154.1875,61.428840535481775L154.25,65.35786458333334L154.8125,21.28850646972656L154.9375,64.84005411783855L155.0625,97.86168863932292L155.3125,94.56440104166667L155.4375,71.15247314453126L155.5,112.74319986979168L155.6875,41.76487467447916L157.3125,-12.472584635416656L157.5625,7.459433186848965L157.625,63.33664164225261L157.875,-8.525531209309893L158,66.97765177408853L158.1875,75.68152018229166L158.4375,-10.661136271158847L158.5,23.732603556315105L158.75,64.05489990234375L158.9375,-20.757203979492182L159.1875,65.03720092773438L159.625,89.12613077799479L159.6875,63.54219095865886L159.75,70.24008097330729L160.4375,61.089811401367186L160.5,41.07397257486979L160.625,45.783805541992194L160.875,62.3788759358724L161.1875,5.2715645345052105L161.5,62.56016601562499L161.625,45.23898701985678L161.6875,10.331289876302076L161.8125,-3.5045654296875157L161.875,65.24728759765624L161.9375,64.90842651367187L162.1875,-9.451067301432301L162.3125,44.55035359700521L162.375,13.976729329427082L162.5,57.44786499023437L162.6875,23.332680257161453L162.8125,9.236503295898444L163.0625,66.92437988281249L163.125,36.75542032877605L163.375,64.16156372070311L163.4375,-31.13117858886718L163.6875,61.61087483723959L163.75,61.27891581217448L163.9375,-6.598956502278656L164,16.323945515950523L164.1875,44.625351969401045L164.6875,41.391815388997394L164.75,-10.200102742513034L164.9375,-4.582907104492193L165.1875,40.378941243489585L165.5625,16.152126261393235L165.875,66.36844604492188L166.1875,41.699083048502594L166.375,89.41287231445312L166.8125,36.439786173502604L167.25,86.91619954427082L167.9375,83.0224540201823L168.0625,71.2629541015625L168.375,50.12534464518229L168.6875,40.72011901855468L168.8125,67.98890543619792L168.875,77.53765787760416L168.9375,91.92051635742186L169.3125,72.85760579427084L169.4375,38.433953043619795L169.5,71.10032958984375L169.625,41.13412251790365L169.6875,66.9658642578125L170.0625,64.10930013020834L170.3125,65.09755493164063L170.4375,65.77755777994791L171,69.81599446614584L171.1875,28.233982340494794L171.375,40.95307250976562L171.5,62.94506083170572L172.125,67.74700927734375L172.3125,77.83885172526041L172.375,76.3913399251302L172.75,44.56350952148438L172.9375,50.09964497884115L173.5,64.94110026041666L173.75,65.07962158203127L173.8125,44.99903544108073L174.0625,45.51670186360676L174.5,66.35992350260418L175,89.14572062174479L175.3125,82.64359700520833L175.375,91.92947102864582L175.5625,39.82022257486979L175.6875,94.57729288736978L176,70.57325236002605L176.1875,37.86829630533854L176.5,81.0191044108073L176.875,78.04533732096354L177,15.460395914713539L177.1875,36.812725423177085L177.5,64.75461263020834L177.625,63.52444966634114L177.6875,59.12627766927083L177.75,38.52657267252605L177.875,42.818933105468744L177.9375,68.41716918945312L178.1875,60.98604044596354L178.25,42.60247253417968L178.3125,43.75552449544271L178.5625,41.259247843424475L178.6875,60.24355895996093L179.0625,55.44730021158855L179.25,40.30184224446614L179.4375,45.09111490885416L179.5625,38.70354146321614L179.875,73.26140625000001L180.25,65.62460815429688L180.5625,67.73695027669271L180.6875,62.707305908203125L180.8125,45.28551289876302L180.875,57.36571248372395L180.9375,44.657761637369795L181.0625,52.96384338378906L181.125,56.21329671223958L181.75,37.46000651041666L182,67.60613525390625L182.1875,45.486584879557284L182.4375,67.40022583007813L183,58.6637196858724L183.1875,25.91070129394532L183.4375,-14.373759765625014L183.5,42.65376383463542L183.6875,66.12431722005209L183.8125,44.75972005208333L183.875,68.92717732747397L184.25,67.41974365234375L184.625,66.40395263671876L184.875,64.72136271158854L185.125,60.15682108561198L185.25,63.81941365559896L185.3125,68.48549357096354L185.5625,63.14253173828125L185.8125,40.10905273437499L185.9375,39.8749589029948L186.0625,26.685676472981772L186.5,39.671522216796866L186.5625,15.04426778157553L186.8125,41.212253824869784L187.0625,-14.241108194986982L187.25,50.077954508463534L187.375,46.97400858561198L187.4375,16.92024739583334L187.5,13.351222737630211L187.6875,56.352358194986984L187.8125,56.79166524251303L187.875,58.26850179036458L188,-14.091459554036447L188.125,39.855080973307295L188.3125,-11.508913167317697L188.4375,39.54510050455728L188.5625,40.0390118408203L188.625,37.534260660807284L188.6875,39.769063313802086L188.8125,-10.277381795247392L188.9375,11.106745198567708L189.25,-10.768556315104153L189.375,-10.811145019531253L189.4375,10.68843241373697L189.875,13.614881388346353L190,17.666522013346363L190.125,-35.56652567545574L190.1875,-9.5062117513021L190.875,8.695249837239592L191.5625,13.742083333333339L191.625,22.222769165039054L191.75,9.850678507486986L191.9375,34.269826863606774L192.1875,-14.408318074544278L192.3125,36.510931396484374L192.375,17.57493469238282L192.6875,15.491569213867194L192.75,-13.512730916341138L192.8125,16.053624877929696L193,20.42225606282551L193.0625,11.117644449869799L193.25,14.383242594401036L193.625,29.16922932942708L193.6875,-27.68067728678385L193.8125,-7.169426676432294L193.9375,31.753336181640616L194.0625,-11.038852945963532L194.125,0.9184779866536547L194.8125,11.152994995117192L194.875,-10.615906778971368L194.9375,13.48613098144532L195.125,15.410653076171865L195.4375,11.37143615722656L195.5,39.54142740885416L195.8125,19.54223754882812L195.875,36.78617350260417L195.9375,8.600937703450514L196,19.165229085286448L196.125,13.654289143880211L196.1875,12.30487060546875L196.25,13.409043986002603L196.4375,30.17229654947917L197.125,56.40085266113282L197.5,39.93692138671875L197.625,40.88640462239584L198.125,-10.656130777994786L198.1875,39.743375651041674L198.25,-9.065716349283843L198.375,11.943082682291665L198.8125,-2.915429687499982L199.125,-10.791759236653656L199.3125,40.74988789876301L199.4375,21.759406941731772L199.5625,50.245680541992186L200.125,14.782781778971351L200.1875,-5.289269816080729L200.25,28.241184488932287L200.375,39.676695760091135L200.5,-1.4699224853515447L200.625,2.1631172688802076L200.75,60.82540852864584L200.8125,-0.008846638997377143L201.0625,59.730789998372394L201.125,43.52565592447917L201.1875,61.58217427571614L201.5,56.53463256835938L201.5625,9.264867757161454L201.6875,13.194227905273442L201.8125,19.59180033365886L201.875,13.745936482747402L202.125,15.53320963541666L202.1875,16.20207316080729L202.4375,15.300076090494787L202.5,36.2254862467448L202.5625,35.08240926106772L202.625,16.351133626302083L202.75,48.24309916178386L202.8125,-1.8277972412109234L202.875,12.746782430013017L203.3125,-12.387815348307303L203.375,45.325712890625006L203.4375,38.71097167968751L203.75,48.24139465332031L203.8125,-28.156415201822917L204.0625,41.6782568359375L204.25,13.243730672200517L204.4375,60.542592163085935L204.5625,38.25717631022136L204.6875,13.140679931640626L204.8125,11.31746805826823L204.875,61.556966756184906L204.9375,14.541269734700515L205.25,40.034390462239585L205.3125,39.832766316731764L206.0625,12.701168823242178L206.1875,17.590419311523434L206.625,14.449190266927085L207,14.181702473958333L207.0625,13.339015096028637L207.75,15.060472615559904L207.8125,16.146664632161464L208.375,14.867455037434903L208.5,24.3066748046875L208.625,39.305304972330724L208.6875,-5.391708374023424L208.8125,14.376076456705738L208.9375,43.5122959391276L209,9.766893513997404L209.1875,38.10069763183595L209.4375,14.506519368489592L209.5,-5.469923706054692L209.8125,28.257053222656243L209.9375,6.9847035725911395L210.0625,29.992963053385417L210.125,-36.81763488769533L210.375,35.00325764973958L210.5,12.497636108398446L210.6875,-14.182482706705738L211.1875,4.493792521158856L211.25,-6.177522786458322L212.4375,-12.111528930664054L212.6875,17.155145467122406L212.75,8.510706787109372L213.1875,-32.511986490885405L213.25,9.57076700846355L213.375,-30.737065022786478L213.4375,-11.468725179036474L213.625,13.6609511311849L213.75,-5.74623413085939L213.8125,-6.4934570312499895L213.875,10.206560668945317L214,9.815063883463544L214.0625,40.54212992350261L214.375,9.108064982096364L214.625,10.204820149739573L214.6875,15.066078287760414L215.5625,57.46621846516926L215.75,46.96720255533854L215.9375,50.62284505208334L216.125,45.927320353190105L216.375,12.612690429687506L216.4375,60.37657063802083L216.5625,8.327856241861976L216.625,63.553282267252605L216.6875,56.49743347167968L217.0625,-12.454147135416672L217.375,65.33669026692708L217.4375,67.22526163736978L217.5,45.59782206217448L217.5625,55.635696411132805L217.75,38.230228271484386L217.875,16.088339233398443L217.9375,-11.70652811686197L218.3125,48.19503682454426L218.5,66.85788004557291L218.625,69.57973999023439L218.6875,18.562349243164064L218.8125,68.40742228190105L218.875,55.77373758951824L219,68.44103230794272L219.1875,69.46301717122395" style="fill: none;" fill="none"></path></g></g></g></g></g></g><g transform="translate(80, 177)" clip-path="url(#clip_1)"><clipPath id="clip_1"><rect width="250" height="23"></rect></clipPath><g><g><line x1="0" y1="0" x2="0" y2="5" style="visibility: inherit;" fill="rgb(0, 0, 0)" stroke="rgb(204, 204, 204)" stroke-width="1px"></line><line x1="31.25" y1="0" x2="31.25" y2="5" style="visibility: inherit;" fill="rgb(0, 0, 0)" stroke="rgb(204, 204, 204)" stroke-width="1px"></line><line x1="62.5" y1="0" x2="62.5" y2="5" style="visibility: inherit;" fill="rgb(0, 0, 0)" stroke="rgb(204, 204, 204)" stroke-width="1px"></line><line x1="93.75" y1="0" x2="93.75" y2="5" style="visibility: inherit;" fill="rgb(0, 0, 0)" stroke="rgb(204, 204, 204)" stroke-width="1px"></line><line x1="125" y1="0" x2="125" y2="5" style="visibility: inherit;" fill="rgb(0, 0, 0)" stroke="rgb(204, 204, 204)" stroke-width="1px"></line><line x1="156.25" y1="0" x2="156.25" y2="5" style="visibility: inherit;" fill="rgb(0, 0, 0)" stroke="rgb(204, 204, 204)" stroke-width="1px"></line><line x1="187.5" y1="0" x2="187.5" y2="5" style="visibility: inherit;" fill="rgb(0, 0, 0)" stroke="rgb(204, 204, 204)" stroke-width="1px"></line><line x1="218.75" y1="0" x2="218.75" y2="5" style="visibility: inherit;" fill="rgb(0, 0, 0)" stroke="rgb(204, 204, 204)" stroke-width="1px"></line><line x1="250" y1="0" x2="250" y2="5" style="visibility: inherit;" fill="rgb(0, 0, 0)" stroke="rgb(204, 204, 204)" stroke-width="1px"></line></g><g transform="translate(0, 8)"><text x="0" y="0" dx="0em" dy="0.95em" style="text-anchor: middle; visibility: hidden; font-family: Roboto, sans-serif; font-size: 12px; font-weight: 200;" fill="rgb(33, 33, 33)" stroke="none" stroke-width="1px">-500</text><text x="31.25" y="0" dx="0em" dy="0.95em" style="text-anchor: middle; visibility: inherit; font-family: Roboto, sans-serif; font-size: 12px; font-weight: 200;" fill="rgb(33, 33, 33)" stroke="none" stroke-width="1px">0</text><text x="62.5" y="0" dx="0em" dy="0.95em" style="text-anchor: middle; visibility: inherit; font-family: Roboto, sans-serif; font-size: 12px; font-weight: 200;" fill="rgb(33, 33, 33)" stroke="none" stroke-width="1px">500</text><text x="93.75" y="0" dx="0em" dy="0.95em" style="text-anchor: middle; visibility: inherit; font-family: Roboto, sans-serif; font-size: 12px; font-weight: 200;" fill="rgb(33, 33, 33)" stroke="none" stroke-width="1px">1k</text><text x="125" y="0" dx="0em" dy="0.95em" style="text-anchor: middle; visibility: inherit; font-family: Roboto, sans-serif; font-size: 12px; font-weight: 200;" fill="rgb(33, 33, 33)" stroke="none" stroke-width="1px">1.5k</text><text x="156.25" y="0" dx="0em" dy="0.95em" style="text-anchor: middle; visibility: inherit; font-family: Roboto, sans-serif; font-size: 12px; font-weight: 200;" fill="rgb(33, 33, 33)" stroke="none" stroke-width="1px">2k</text><text x="187.5" y="0" dx="0em" dy="0.95em" style="text-anchor: middle; visibility: inherit; font-family: Roboto, sans-serif; font-size: 12px; font-weight: 200;" fill="rgb(33, 33, 33)" stroke="none" stroke-width="1px">2.5k</text><text x="218.75" y="0" dx="0em" dy="0.95em" style="text-anchor: middle; visibility: inherit; font-family: Roboto, sans-serif; font-size: 12px; font-weight: 200;" fill="rgb(33, 33, 33)" stroke="none" stroke-width="1px">3k</text><text x="250" y="0" dx="0em" dy="0.95em" style="text-anchor: middle; visibility: hidden; font-family: Roboto, sans-serif; font-size: 12px; font-weight: 200;" fill="rgb(33, 33, 33)" stroke="none" stroke-width="1px">3.5k</text></g><line x1="0" y1="0" x2="250" y2="0" fill="rgb(0, 0, 0)" stroke="rgb(204, 204, 204)" stroke-width="1px"></line></g></g></g></g></svg>