<svg viewBox="0 0 330 200" xmlns="http://www.w3.org/2000/svg"><g><g><g><g><g><line x1="40" y1="177" x2="35" y2="177" style="visibility: inherit;" fill="rgb(0, 0, 0)" stroke="rgb(204, 204, 204)" stroke-width="1px"></line><line x1="40" y1="160.9090909090909" x2="35" y2="160.9090909090909" style="visibility: inherit;" fill="rgb(0, 0, 0)" stroke="rgb(204, 204, 204)" stroke-width="1px"></line><line x1="40" y1="144.8181818181818" x2="35" y2="144.8181818181818" style="visibility: inherit;" fill="rgb(0, 0, 0)" stroke="rgb(204, 204, 204)" stroke-width="1px"></line><line x1="40" y1="128.72727272727272" x2="35" y2="128.72727272727272" style="visibility: inherit;" fill="rgb(0, 0, 0)" stroke="rgb(204, 204, 204)" stroke-width="1px"></line><line x1="40" y1="112.63636363636364" x2="35" y2="112.63636363636364" style="visibility: inherit;" fill="rgb(0, 0, 0)" stroke="rgb(204, 204, 204)" stroke-width="1px"></line><line x1="40" y1="96.54545454545453" x2="35" y2="96.54545454545453" style="visibility: inherit;" fill="rgb(0, 0, 0)" stroke="rgb(204, 204, 204)" stroke-width="1px"></line><line x1="40" y1="80.45454545454547" x2="35" y2="80.45454545454547" style="visibility: inherit;" fill="rgb(0, 0, 0)" stroke="rgb(204, 204, 204)" stroke-width="1px"></line><line x1="40" y1="64.36363636363636" x2="35" y2="64.36363636363636" style="visibility: inherit;" fill="rgb(0, 0, 0)" stroke="rgb(204, 204, 204)" stroke-width="1px"></line><line x1="40" y1="48.272727272727266" x2="35" y2="48.272727272727266" style="visibility: inherit;" fill="rgb(0, 0, 0)" stroke="rgb(204, 204, 204)" stroke-width="1px"></line><line x1="40" y1="32.18181818181817" x2="35" y2="32.18181818181817" style="visibility: inherit;" fill="rgb(0, 0, 0)" stroke="rgb(204, 204, 204)" stroke-width="1px"></line><line x1="40" y1="16.090909090909097" x2="35" y2="16.090909090909097" style="visibility: inherit;" fill="rgb(0, 0, 0)" stroke="rgb(204, 204, 204)" stroke-width="1px"></line><line x1="40" y1="0" x2="35" y2="0" style="visibility: inherit;" fill="rgb(0, 0, 0)" stroke="rgb(204, 204, 204)" stroke-width="1px"></line></g><g transform="translate(30, 0)"><text x="0" y="177" dx="0em" dy="0.3em" style="text-anchor: end; visibility: hidden; font-family: Roboto, sans-serif; font-size: 12px; font-weight: 200;" fill="rgb(33, 33, 33)" stroke="none" stroke-width="1px">2</text><text x="0" y="160.9090909090909" dx="0em" dy="0.3em" style="text-anchor: end; visibility: inherit; font-family: Roboto, sans-serif; font-size: 12px; font-weight: 200;" fill="rgb(33, 33, 33)" stroke="none" stroke-width="1px">2.5</text><text x="0" y="144.8181818181818" dx="0em" dy="0.3em" style="text-anchor: end; visibility: hidden; font-family: Roboto, sans-serif; font-size: 12px; font-weight: 200;" fill="rgb(33, 33, 33)" stroke="none" stroke-width="1px">3</text><text x="0" y="128.72727272727272" dx="0em" dy="0.3em" style="text-anchor: end; visibility: inherit; font-family: Roboto, sans-serif; font-size: 12px; font-weight: 200;" fill="rgb(33, 33, 33)" stroke="none" stroke-width="1px">3.5</text><text x="0" y="112.63636363636364" dx="0em" dy="0.3em" style="text-anchor: end; visibility: hidden; font-family: Roboto, sans-serif; font-size: 12px; font-weight: 200;" fill="rgb(33, 33, 33)" stroke="none" stroke-width="1px">4</text><text x="0" y="96.54545454545453" dx="0em" dy="0.3em" style="text-anchor: end; visibility: inherit; font-family: Roboto, sans-serif; font-size: 12px; font-weight: 200;" fill="rgb(33, 33, 33)" stroke="none" stroke-width="1px">4.5</text><text x="0" y="80.45454545454547" dx="0em" dy="0.3em" style="text-anchor: end; visibility: hidden; font-family: Roboto, sans-serif; font-size: 12px; font-weight: 200;" fill="rgb(33, 33, 33)" stroke="none" stroke-width="1px">5</text><text x="0" y="64.36363636363636" dx="0em" dy="0.3em" style="text-anchor: end; visibility: inherit; font-family: Roboto, sans-serif; font-size: 12px; font-weight: 200;" fill="rgb(33, 33, 33)" stroke="none" stroke-width="1px">5.5</text><text x="0" y="48.272727272727266" dx="0em" dy="0.3em" style="text-anchor: end; visibility: hidden; font-family: Roboto, sans-serif; font-size: 12px; font-weight: 200;" fill="rgb(33, 33, 33)" stroke="none" stroke-width="1px">6</text><text x="0" y="32.18181818181817" dx="0em" dy="0.3em" style="text-anchor: end; visibility: inherit; font-family: Roboto, sans-serif; font-size: 12px; font-weight: 200;" fill="rgb(33, 33, 33)" stroke="none" stroke-width="1px">6.5</text><text x="0" y="16.090909090909097" dx="0em" dy="0.3em" style="text-anchor: end; visibility: hidden; font-family: Roboto, sans-serif; font-size: 12px; font-weight: 200;" fill="rgb(33, 33, 33)" stroke="none" stroke-width="1px">7</text><text x="0" y="0" dx="0em" dy="0.3em" style="text-anchor: end; visibility: hidden; font-family: Roboto, sans-serif; font-size: 12px; font-weight: 200;" fill="rgb(33, 33, 33)" stroke="none" stroke-width="1px">7.5</text></g><line x1="40" y1="0" x2="40" y2="177" fill="rgb(0, 0, 0)" stroke="rgb(204, 204, 204)" stroke-width="1px"></line></g></g><g transform="translate(40, 0)" clip-path="url(#clip_0)"><clipPath id="clip_0"><rect width="290" height="177"></rect></clipPath><g><g><g><line x1="0" y1="0" x2="0" y2="177" fill="rgb(0, 0, 0)" stroke="rgb(66, 66, 66)" stroke-width="1px" opacity="0.25"></line><line x1="32.22222222222222" y1="0" x2="32.22222222222222" y2="177" fill="rgb(0, 0, 0)" stroke="rgb(66, 66, 66)" stroke-width="1px" opacity="0.25"></line><line x1="64.44444444444444" y1="0" x2="64.44444444444444" y2="177" fill="rgb(0, 0, 0)" stroke="rgb(66, 66, 66)" stroke-width="1px" opacity="0.25"></line><line x1="96.66666666666666" y1="0" x2="96.66666666666666" y2="177" fill="rgb(0, 0, 0)" stroke="rgb(66, 66, 66)" stroke-width="1px" opacity="0.25"></line><line x1="128.88888888888889" y1="0" x2="128.88888888888889" y2="177" fill="rgb(0, 0, 0)" stroke="rgb(66, 66, 66)" stroke-width="1px" opacity="0.25"></line><line x1="161.11111111111111" y1="0" x2="161.11111111111111" y2="177" fill="rgb(0, 0, 0)" stroke="rgb(66, 66, 66)" stroke-width="1px" opacity="0.25"></line><line x1="193.33333333333331" y1="0" x2="193.33333333333331" y2="177" fill="rgb(0, 0, 0)" stroke="rgb(66, 66, 66)" stroke-width="1px" opacity="0.25"></line><line x1="225.55555555555557" y1="0" x2="225.55555555555557" y2="177" fill="rgb(0, 0, 0)" stroke="rgb(66, 66, 66)" stroke-width="1px" opacity="0.25"></line><line x1="257.77777777777777" y1="0" x2="257.77777777777777" y2="177" fill="rgb(0, 0, 0)" stroke="rgb(66, 66, 66)" stroke-width="1px" opacity="0.25"></line><line x1="290" y1="0" x2="290" y2="177" fill="rgb(0, 0, 0)" stroke="rgb(66, 66, 66)" stroke-width="1px" opacity="0.25"></line></g><g><line x1="0" y1="177" x2="290" y2="177" fill="rgb(0, 0, 0)" stroke="rgb(66, 66, 66)" stroke-width="1px" opacity="0.25"></line><line x1="0" y1="160.9090909090909" x2="290" y2="160.9090909090909" fill="rgb(0, 0, 0)" stroke="rgb(66, 66, 66)" stroke-width="1px" opacity="0.25"></line><line x1="0" y1="144.8181818181818" x2="290" y2="144.8181818181818" fill="rgb(0, 0, 0)" stroke="rgb(66, 66, 66)" stroke-width="1px" opacity="0.25"></line><line x1="0" y1="128.72727272727272" x2="290" y2="128.72727272727272" fill="rgb(0, 0, 0)" stroke="rgb(66, 66, 66)" stroke-width="1px" opacity="0.25"></line><line x1="0" y1="112.63636363636364" x2="290" y2="112.63636363636364" fill="rgb(0, 0, 0)" stroke="rgb(66, 66, 66)" stroke-width="1px" opacity="0.25"></line><line x1="0" y1="96.54545454545453" x2="290" y2="96.54545454545453" fill="rgb(0, 0, 0)" stroke="rgb(66, 66, 66)" stroke-width="1px" opacity="0.25"></line><line x1="0" y1="80.45454545454547" x2="290" y2="80.45454545454547" fill="rgb(0, 0, 0)" stroke="rgb(66, 66, 66)" stroke-width="1px" opacity="0.25"></line><line x1="0" y1="64.36363636363636" x2="290" y2="64.36363636363636" fill="rgb(0, 0, 0)" stroke="rgb(66, 66, 66)" stroke-width="1px" opacity="0.25"></line><line x1="0" y1="48.272727272727266" x2="290" y2="48.272727272727266" fill="rgb(0, 0, 0)" stroke="rgb(66, 66, 66)" stroke-width="1px" opacity="0.25"></line><line x1="0" y1="32.18181818181817" x2="290" y2="32.18181818181817" fill="rgb(0, 0, 0)" stroke="rgb(66, 66, 66)" stroke-width="1px" opacity="0.25"></line><line x1="0" y1="16.090909090909097" x2="290" y2="16.090909090909097" fill="rgb(0, 0, 0)" stroke="rgb(66, 66, 66)" stroke-width="1px" opacity="0.25"></line><line x1="0" y1="0" x2="290" y2="0" fill="rgb(0, 0, 0)" stroke="rgb(66, 66, 66)" stroke-width="1px" opacity="0.25"></line></g></g></g><g><g><line x1="0" y1="241.36363636363637" x2="290" y2="241.36363636363637" fill="rgb(0, 0, 0)" stroke="rgb(153, 153, 153)" stroke-width="1.5px"></line></g></g><g><g><line x1="32.22222222222222" y1="0" x2="32.22222222222222" y2="177" fill="rgb(0, 0, 0)" stroke="rgb(153, 153, 153)" stroke-width="1.5px"></line></g></g><g><g><g><g><g><path stroke="rgb(255, 112, 67)" stroke-width="2px" d="M39.05333333333333,186.8263868201409L39.11777777777778,169.99038600845353L39.24666666666667,164.1083142883218L39.69777777777778,167.89852840464022L40.02,167.8001278168314L40.27777777777778,165.4361063160135L40.34222222222222,163.62215430975542L40.47111111111111,158.38406577870063L40.6,163.87709406747322L40.98666666666667,142.58542685591632L41.051111111111105,142.62510494200527L41.50222222222222,154.96791253315268L41.63111111111111,156.64687626881303L41.69555555555556,155.42092761446057L41.888888888888886,166.0825711114558L42.339999999999996,169.02449324951016L42.53333333333333,170.10013391516625L42.66222222222222,169.10484946277657L42.79111111111111,168.040872154199L43.17777777777778,167.93302221261183L43.242222222222225,173.00415202209382L43.30666666666667,177.73092341778582L44.53111111111111,180.9332740303804L44.595555555555556,176.78146228338434L45.04666666666667,177.4278827605447L45.24,175.70582576380963L45.30444444444445,170.0358729544848L45.36888888888889,174.67000427473286L45.43333333333334,169.81800932933828L45.562222222222225,168.99986309341372L45.82,165.10789988466263L45.94888888888889,172.69603133760245L46.077777777777776,167.04152211177666L46.33555555555555,165.3256240492038L46.4,169.14606312109498L46.46444444444444,169.75338598334147L46.657777777777774,166.13882082520664L46.980000000000004,168.99927037196056L47.62444444444444,163.07639107574315L47.946666666666665,157.87123132194293L48.01111111111111,167.4548936306874L48.07555555555555,163.7300708760665L48.848888888888894,164.20548174364083L48.913333333333334,150.39472017147855L48.97777777777778,156.47549052240953L49.68666666666667,157.20066820232844L49.879999999999995,148.7341096255652L50.00888888888889,143.83391309645063L50.13777777777778,150.81003949508295L50.39555555555555,143.5559925795238L50.588888888888896,137.8647535788311L50.782222222222224,131.3662210638969L50.91111111111111,138.41621375350593L51.233333333333334,130.99668618709003L51.36222222222222,137.9409853866814L51.42666666666667,136.39778858294434L51.94222222222222,126.20256121406437L52.07111111111111,124.59849867926094L52.32888888888888,134.4629005187027L52.58666666666667,139.2620975728793L52.71555555555556,135.21922377518953L52.78,138.63923069427963L52.973333333333336,135.6264815040589L53.94,131.61068090086505L54.004444444444445,134.7870712644071L54.32666666666666,127.92984994123371L54.45555555555555,127.35739666254408L54.52,127.47394248915909L54.906666666666666,122.87623635628287L55.035555555555554,119.64084068031912L55.29333333333334,96.78489260565685L55.55111111111111,99.22248537085592L55.61555555555555,89.25848470284913L55.68,90.20691424700244L55.74444444444444,98.60893449513416L55.80888888888889,103.41585175265578L55.873333333333335,101.2666763223121L56.58222222222223,89.90315366076341L57.09777777777778,93.4245650785381L57.355555555555554,99.23131611233059L57.48444444444444,95.5661499939919L57.61333333333333,98.92206741283246L57.806666666666665,91.95271981088085L58.128888888888895,92.18009669976095L58.25777777777778,102.92043523862321L58.580000000000005,93.16067907030904L58.90222222222222,107.63947970919759L58.96666666666667,106.71527407374298L59.35333333333333,96.98996863791592L59.41777777777778,88.13366416059932L59.675555555555555,80.4228612036017L59.93333333333333,47.237747289676996L60.25555555555556,66.2068757380862L60.32,74.34728166094696L60.38444444444445,98.0559811001171L60.513333333333335,86.4029156850503L60.77111111111111,106.27736840114801L60.83555555555556,91.14968096999901L60.964444444444446,83.35019971331377L61.22222222222222,54.37641413396305L61.35111111111111,27.91682193563353L61.608888888888885,50.86753579526906L61.93111111111111,39.44510668085241L62.18888888888889,67.71863458873382L62.25333333333334,75.77797408403974L62.382222222222225,101.92398410196859L62.51111111111111,102.05602367179685L62.76888888888889,80.31480008148499L62.833333333333336,71.64104367582189L63.15555555555555,75.57504559331053L63.22,61.70564258342553L63.60666666666666,84.21181914519245L63.73555555555555,102.47923373440221L64.05777777777777,96.42615669849377L64.31555555555555,96.55417570022641L65.02444444444444,102.567763071725L65.08888888888889,81.42062541117242L65.15333333333334,86.47928158964335L65.21777777777778,112.94907754864573L65.28222222222223,116.40920101527142L65.34666666666666,102.87274006939012L65.54,104.12448219998146L65.60444444444444,99.18511408999734L65.66888888888889,99.22859480315277L66.57111111111111,102.73156540267689L66.63555555555556,96.49372637456293L66.76444444444444,96.15968523352903L66.8288888888889,87.57570196348166L66.89333333333333,86.00368308410596L67.02222222222223,83.08889589810428L67.1511111111111,80.50022647984711L67.28,75.85672615890435L67.4088888888889,90.66224079358146L67.66666666666667,91.40997712357655L67.79555555555555,75.34980925970834L68.05333333333333,90.44177880048166L68.44,102.84027251100188L68.56888888888889,105.2586753571316L68.82666666666667,115.99411403399773L69.02,106.161460943592L69.14888888888889,97.97792050314472L69.85777777777778,103.13649796561641L69.92222222222222,104.21943373586844L70.11555555555556,114.60870861257597L70.24444444444444,118.23235612332836L70.30888888888889,95.99324713263738L70.50222222222222,107.52436149730035L70.63111111111111,100.73602397374201L71.08222222222223,86.64825604961719L71.40444444444445,101.77342004378843L71.72666666666666,121.20389534278475L71.7911111111111,131.61400318453605L71.92,115.90670102044064L72.30666666666666,121.05702106586656L72.3711111111111,108.75375637398372L72.56444444444445,119.83309636270367L72.69333333333333,115.27990376044889L72.75777777777778,116.74710570356272L73.01555555555555,130.39012086412646L73.27333333333333,125.76304087868319L73.59555555555555,103.27834489353184L73.66,111.08958260930912L73.72444444444444,127.0777299143459L74.04666666666667,134.92176990245386L74.17555555555555,130.1785352413658L74.43333333333332,116.79278013724003L74.62666666666668,122.53680784799676L74.75555555555556,112.61454641617333L75.20666666666668,119.72063764321096L75.4,119.65016221363987L75.72222222222223,130.63412170895452L75.78666666666666,133.2242175114012L76.04444444444445,132.91757334519744L76.30222222222223,91.20528078607133L76.81777777777778,101.3371284256445L76.94666666666666,105.67629206587365L77.07555555555555,123.70688120695915L77.14,110.02242390128842L77.26888888888888,105.88036593412355L77.46222222222222,104.67566291568765L77.97777777777777,102.30270408763612L78.30000000000001,98.87706094162864L78.42888888888889,117.60603195155167L78.62222222222223,106.88373455511957L78.68666666666667,98.0610331427952L78.81555555555556,99.92445523224583L78.94444444444444,105.46317492046431L79.00888888888889,108.64792292297064L79.13777777777779,116.84607544096056L79.20222222222223,125.43711430379975L79.33111111111111,122.64981600590266L79.39555555555556,127.37412644214244L79.46000000000001,122.25951425847948L79.78222222222222,124.975556563677L80.04,120.52925617178772L80.16888888888889,109.32090540012743L80.94222222222221,108.12091466951982L81.45777777777778,103.16206098516138L81.52222222222221,120.21012912344545L81.77999999999999,110.15583967277554L81.97333333333334,119.90128675710105L82.16666666666667,115.84132463049912L82.23111111111112,120.15482337118941L82.36,113.28897643265904L82.42444444444445,120.3198426647379L82.4888888888889,111.4439910591588L82.61777777777779,76.67868555540605L83.00444444444445,78.47772108777131L84.03555555555556,53.931873713786715L84.1,71.75217332966807L84.16444444444444,91.34237219626498L84.22888888888889,84.9772098514615L84.42222222222222,118.84838337131502L84.93777777777777,130.22628306622383L85.00222222222222,135.17456957645084L85.58222222222221,134.14898852349168L85.83999999999999,123.54291165213655L85.90444444444445,126.06881698681526L86.03333333333335,124.59760979297471L86.09777777777778,138.4202720546234L86.29111111111112,147.98838881177574L86.35555555555555,149.9767195781532L86.5488888888889,136.23973798537847L86.67777777777778,146.04380459223583L87.06444444444445,147.87504219845118L87.45111111111112,127.74814384102119L87.64444444444445,133.81336250853116L87.77333333333333,138.77281938708225L88.03111111111112,119.17570914240336L88.28888888888889,129.04478886101907L88.35333333333332,131.31516176251765L89.19111111111111,139.6794175406316L89.32,138.19482074380036L89.57777777777777,131.7431498398571L89.70666666666668,133.769954938954L89.9,95.2088269131793L90.0288888888889,112.67200817363668L90.09333333333333,116.96976767814661L90.28666666666668,127.65031862649137L90.35111111111111,113.20215316486409L90.67333333333333,115.63617083083098L90.73777777777778,101.59492982255087L90.86666666666667,101.19804155885815L90.93111111111111,121.3784383018754L91.38222222222223,127.82689561995248L91.44666666666667,132.27474038821796L91.57555555555555,145.93545929044254L92.02666666666667,131.52679480311406L92.15555555555555,124.24714186905105L92.22,131.40858001833672L92.28444444444445,146.1981864693927L92.73555555555555,147.6792713162836L92.92888888888888,143.96613301002384L93.12222222222222,151.5900463672104L93.38,133.02284488963997L93.57333333333332,117.50701626689167L93.76666666666667,123.61690047765875L94.08888888888889,135.469955083043L94.28222222222223,116.20784047730496L94.41111111111111,121.41801113993742L94.54,131.31050028054227L94.60444444444445,110.27040817419584L95.24888888888889,93.87251101779876L95.31333333333333,100.803940577576L95.50666666666666,95.55079134572439L95.76444444444444,107.10460143249567L96.02222222222223,112.64373212650399L96.1511111111111,105.68844444835447L96.28,105.3597520785586L96.40888888888888,118.66480331511723L96.60222222222222,117.73411652706194L96.79555555555555,135.4844967418819L96.86,141.3870215612813L96.92444444444443,144.44538687239887L97.05333333333333,133.21691597173367L97.37555555555556,140.08416292199615L97.50444444444443,140.54385750966742L97.63333333333334,140.0284087919388L98.08444444444444,111.70648449385781L98.34222222222222,114.34308011476062L98.47111111111111,112.65647336709634L98.92222222222222,110.37478077929102L98.98666666666666,133.39006896112707L99.05111111111111,122.61110096640903L99.43777777777778,124.67211252783791L99.63111111111111,108.08416628712179L100.27555555555556,122.5281505360448L100.40444444444444,98.25870706773173L100.53333333333333,107.83948143585167L100.66222222222221,109.16812055484817L100.98444444444443,93.89572516188841L101.11333333333334,88.64105961440046L101.17777777777779,83.80335653418759L101.24222222222221,98.20960585124874L101.30666666666667,104.49529736167919L101.37111111111112,116.05477696450951L101.6288888888889,113.70612300077157L101.82222222222222,102.22880588608975L102.14444444444445,113.7888845427567L102.2088888888889,123.16044462627214L102.27333333333334,111.29980421389583L102.53111111111112,111.20143893175768L102.98222222222222,119.214136573915L103.24,95.19422405555507L103.30444444444444,90.9533510823365L103.36888888888889,97.74111753167065L103.56222222222222,98.15506348830725L103.69111111111111,107.05153049341381L103.82,123.12394695413488L103.88444444444444,123.39920429655432L104.01333333333334,118.89914966006371L104.46444444444444,107.74493222462708L104.52888888888889,103.74694033064806L104.72222222222221,81.9025776644089L104.78666666666666,100.65505345330955L104.91555555555554,99.4128482451924L104.97999999999999,108.18914489973548L105.17333333333335,115.51791488437145L105.30222222222223,118.28656650694455L105.62444444444445,100.65454301196591L106.07555555555555,97.90076600992725L106.39777777777778,110.68391630775521L106.46222222222222,116.35024142644335L107.10666666666667,117.04127573327413L107.23555555555555,129.6792210063707L107.42888888888889,138.62750630668666L107.88,108.12632553361252L108.00888888888889,117.1725542319939L108.07333333333332,76.05165723402057L108.13777777777777,95.20124696700482L108.39555555555555,100.85909282353563L108.52444444444444,98.37372287135638L108.84666666666668,105.25047460915526L109.10444444444445,97.69825423681775L109.1688888888889,99.76637748272007L109.36222222222223,79.18740564113239L109.87777777777778,69.16935693392927L109.94222222222223,85.65889059135453L110.00666666666667,68.5586842693635L110.45777777777778,87.30726960342163L110.71555555555555,26.639214126332963L111.03777777777778,36.39955072450142L111.16666666666667,53.24990388551764L111.42444444444445,71.46266781459806L112.3911111111111,86.85927564603423L112.52000000000001,58.60251388643311L112.71333333333334,28.630149994457497L112.77777777777779,32.47854692804878L112.84222222222223,38.1200969207009L112.90666666666667,-2.8744521625208623L113.03555555555556,-22.233030408951606L113.16444444444446,16.258212815974925L113.22888888888889,15.343981068990555L113.42222222222223,28.01703972698784L113.48666666666666,49.662259219937376L113.87333333333333,67.84017367077857L114.13111111111111,66.13656606243029L114.45333333333333,68.82594071389637L114.51777777777778,82.32871459840395L114.58222222222223,59.971693175546264L114.84,33.43502673629368L115.03333333333333,-51.62648097582412L115.35555555555555,19.182897217173316L115.54888888888888,41.28264655839791L115.8711111111111,51.80435799895921L115.93555555555555,56.43996357090428L116.12888888888888,42.374634187242506L116.38666666666666,43.21705599313608L116.64444444444445,29.60130983295328L116.96666666666667,10.892673925229174L117.28888888888889,30.12475407298862L117.41777777777779,23.919794883479344L117.61111111111111,15.857655884333424L117.67555555555556,-26.314613594976983L119.09333333333333,-15.89314631701041L119.47999999999999,11.37759217084223L119.86666666666666,42.464790914854426L120.12444444444444,25.024936636925368L120.1888888888889,46.784238236982524L120.25333333333334,70.611190761015L120.38222222222223,82.2877526507452L120.83333333333334,84.67388189967343L120.89777777777778,80.89445313133685L121.15555555555557,95.51094079207115L121.54222222222222,100.08604331130228L121.8,66.59841574563701L121.99333333333334,51.61576352264409L122.25111111111111,63.75046844656099L123.53999999999999,39.94842490560526L123.79777777777777,73.57630553845593L124.44222222222223,74.91926639136635L124.76444444444445,69.03134773071604L124.89333333333333,44.69383013945058L124.95777777777778,74.76797935947157L125.02222222222223,47.93901859490877L125.08666666666667,36.93212678999079L125.60222222222222,51.938825828744115L125.9888888888889,-104.92200307564062L126.11777777777777,-27.08984794274095L126.18222222222222,15.897181613550199L126.3111111111111,-1.8429597585655701L126.37555555555555,15.68364751522199L127.14888888888889,19.723736683904573L127.21333333333332,33.87060034080928L127.34222222222222,-60.05510180112969L127.79333333333332,-7.931159731523381L128.0511111111111,20.231202183824347L128.24444444444444,-9.274113065260284L128.50222222222223,10.38592569888536L128.76,-11.93951419403879L128.82444444444445,9.464986225952874L129.01777777777778,1.5693353496297782L129.46888888888887,-14.672480641141004L129.53333333333333,22.086786113994815L129.59777777777776,-31.715949793783544L130.69333333333333,-9.47722629614886L131.08,33.966260748023146L131.27333333333334,10.198639824501933L131.33777777777777,-0.0412003701581396L131.5311111111111,14.985191401773225L131.98222222222222,32.74084587022762L132.17555555555555,16.027232561532003L132.24,32.62967748719222L132.88444444444443,42.65593922574706L133.07777777777778,19.64451731380184L133.14222222222222,41.67392407791177L133.2711111111111,23.14473925953561L133.52888888888887,44.24766193312947L133.59333333333333,68.98637497387584L133.78666666666666,68.45336985348833L134.04444444444445,60.89618101409939L134.36666666666667,64.95788149053973L135.01111111111112,81.3001409163076L135.07555555555555,81.75454622664226L135.14000000000001,84.81254257058006L135.39777777777778,70.77415918991994L135.52666666666667,55.574255312868864L136.04222222222222,54.527450790149416L137.07333333333332,74.94355475531746L137.3311111111111,44.54272018340176L137.5888888888889,54.67224940990126L137.7177777777778,39.6294456778233L137.91111111111113,49.567138946278064L137.97555555555556,62.889904568328355L138.29777777777778,55.167999317812516L138.36222222222221,66.67372911172798L138.62,48.126695664890576L138.81333333333333,33.498654991596815L138.94222222222223,55.54812668303516L139.32888888888888,58.79501814405407L139.58666666666667,71.20115133110129L139.84444444444443,50.32988543283825L140.10222222222222,63.41736828668049L140.29555555555555,70.55353067854017L140.42444444444445,62.17041990969865L140.8111111111111,52.07765384151566L140.87555555555554,61.08259503623265L140.94,85.78349756240009L141.00444444444443,89.05611222734817L141.32666666666668,85.91577214070799L141.39111111111112,90.23272224272114L141.45555555555555,79.56167255101042L141.90666666666667,93.0101822727549L142.03555555555556,67.67079161324233L142.2288888888889,50.85910980154135L142.35777777777778,60.62121771614098L142.42222222222222,78.37498511576857L142.48666666666668,89.68326511315124L142.5511111111111,83.77413344255783L142.93777777777777,78.79237826444273L143.19555555555556,62.52270257123669L143.26,39.6495659785552L143.38888888888889,-45.60317749105848L143.7111111111111,-2.837406393372219L144.22666666666666,35.21701101599415L144.2911111111111,35.52968090963422L144.54888888888888,55.066272020401L144.67777777777778,8.587626288190549L145,-7.650188356724307L145.19333333333336,-11.019380897335381L145.2577777777778,4.543779176442545L145.96666666666667,29.296873425443426L146.61111111111111,47.18277209048892L146.74,51.80722496915929L146.93333333333334,63.11399959331196L147.1911111111111,35.95161956161794L147.25555555555556,5.1845822300238495L147.32,-102.33605734422558L147.96444444444444,-3.2208672490458303L148.2222222222222,43.803990811683114L148.3511111111111,38.54113042118067L149.44666666666666,65.17375488789571L149.70444444444445,-13.887321996239855L149.89777777777778,22.655853026399363L149.9622222222222,41.100382709838186L150.15555555555557,68.5102157542765L150.28444444444446,88.5917437436703L150.54222222222222,76.13580879724978L150.67111111111112,81.40793288660404L151.2511111111111,79.08034666128373L151.5088888888889,66.58291893288305L152.0888888888889,67.1243617751018L152.4111111111111,68.33846774532563L152.47555555555556,70.07093741849108L152.54000000000002,56.85083437936167L152.9911111111111,66.06305109952973L153.37777777777777,74.14595097110812L153.57111111111112,71.0322058005049L153.76444444444445,73.18585731458693L153.89333333333332,95.09551374510869L154.34444444444446,77.40830859940452L154.60222222222222,71.18099517356981L154.79555555555555,70.07927987253011L155.1822222222222,68.27956647115879L155.24666666666667,92.02837687124844L155.3111111111111,75.18404556799497L155.50444444444446,71.41147444051734L155.82666666666665,84.1541727474736L156.2133333333333,81.33984761349436L156.27777777777777,80.34507109362043L156.92222222222222,94.51501667392242L156.98666666666668,66.22982874935964L157.24444444444447,52.18049666756231L157.30888888888887,73.53441244700399L157.37333333333333,43.26047155517197L157.56666666666666,43.83136266027602L157.69555555555556,63.27288396634938L157.88888888888889,73.74323040477856L158.0822222222222,85.83628917420815L158.27555555555557,75.03679048339562L158.53333333333333,85.63721953983762L158.59777777777776,61.93169706231476L158.72666666666666,48.07139027163513L158.79111111111112,46.71185549199388L158.92000000000002,71.48651995718363L158.98444444444445,81.70842500115457L159.62888888888887,60.11522598235999L159.75777777777776,60.00744423587816L159.88666666666666,80.39234267067728L160.2733333333333,86.11622450693628L160.33777777777777,77.00126009062527L160.53111111111113,88.77963868793118L162.20666666666668,52.81653996824076L162.46444444444444,77.13450260254868L162.78666666666666,74.89953097659047L162.91555555555556,91.6185930179112L163.10888888888888,84.08889769029658L163.36666666666667,75.16351910484512L163.4311111111111,81.20924587064414L163.68888888888887,102.86177606644831L163.88222222222223,79.92582990683674L164.14,97.50682958555933L164.59111111111113,120.35818539019058L164.65555555555557,88.54521605616911L164.72,74.38809893440504L165.42888888888888,90.62457824242348L165.49333333333334,49.31795484229356L165.62222222222223,81.32157185210355L165.88,73.75324889739494L166.20222222222222,74.83965380621039L166.71777777777777,90.90322073803866L166.84666666666666,95.86842079897995L166.97555555555556,108.99048402707311L167.23333333333332,100.0883673357995L167.36222222222221,104.19611760274036L167.42666666666668,98.33600694442342L167.55555555555554,92.58398036932407L167.74888888888887,109.55695354100249L167.8777777777778,101.28532516886864L168.13555555555553,111.92866518022299L168.2,82.3362425485191L168.45777777777778,81.42513076775892L168.52222222222224,55.46046342603176L168.78,72.90558013247896L168.84444444444443,92.57929154428673L169.0377777777778,82.38858059868008L169.10222222222222,85.46853744445752L169.29555555555555,64.45170563678502L169.87555555555554,31.488513075452584L170.0688888888889,62.898218429877375L170.71333333333334,63.4972021538959L171.35777777777778,58.80009491849165L171.55111111111108,78.27354394505807L172.00222222222223,88.85602225076842L172.45333333333335,95.29479541417065L173.16222222222223,75.74835357795907L173.2911111111111,57.82885466220066L173.61333333333334,51.50696151918875L173.93555555555554,67.50475868752534L174.06444444444443,57.485686959396865L174.19333333333333,82.68383651631972L174.57999999999998,75.62162008189988L174.70888888888888,68.39353465456429L174.90222222222224,65.54688975247757L174.96666666666667,65.20263166393104L175.35333333333335,75.45351654552218L175.6111111111111,105.95452361805374L176.32,92.92610748276626L176.51333333333335,68.71877054101805L176.70666666666665,-3.8552999534431587L176.83555555555554,33.26525120940825L177.67333333333335,31.024357669503686L178.12444444444444,32.884186287493236L178.3177777777778,62.79569288045048L178.89777777777778,56.70093326755475L179.22,75.47230431755523L179.9288888888889,87.7489909792605L180.44444444444446,102.62145036952762L180.76666666666665,53.604732376590476L180.8311111111111,64.6782807656205L181.15333333333334,75.00246007674843L181.47555555555556,70.57741206872086L181.6688888888889,36.03205567157475L181.9911111111111,63.095622611651805L182.50666666666666,64.33533571409691L182.7,83.59699208342089L183.0222222222222,55.57135252239139L183.1511111111111,80.94769092738636L183.21555555555557,91.52849493446138L183.28,103.20555028820259L183.4088888888889,63.92579956517784L183.79555555555555,68.68879286610421L184.11777777777777,50.7071539281697L184.24666666666667,58.11541957913639L185.02,-10.141798459482832L185.1488888888889,38.68019167765057L185.4711111111111,11.696237773258513L185.85777777777776,36.59870954405988L186.18,72.21482620486832L186.3088888888889,92.93505065026139L186.43777777777777,92.94459948334087L186.5022222222222,60.63791437112357L186.69555555555556,67.37920161311936L186.76,69.97313798475061L187.85555555555555,89.76495908340851L188.69333333333333,106.12027708023864L188.88666666666666,119.38416451141553L189.14444444444445,108.78766128647247L189.2088888888889,109.05126321614175L189.4022222222222,113.79531873318514L189.5311111111111,120.15614779189637L189.59555555555556,125.10940205473764L190.3688888888889,124.09739924648117L190.88444444444445,81.78981949034917L191.01333333333332,110.60685967780213L191.07777777777778,114.20242462653879L191.33555555555557,128.0915600685036L191.59333333333333,135.84744642054665L191.85111111111112,114.01986412169278L192.3022222222222,109.82429858748435L192.36666666666667,89.97459416159039L192.62444444444446,90.32115651165816L192.88222222222223,98.28466608467377L193.20444444444445,108.59335583435919L193.33333333333331,110.59055003570518L193.52666666666667,61.42845333463331L193.65555555555557,96.81972712024246L193.72,105.71149338981571L193.84888888888887,103.2728395541753L193.97777777777776,110.44899054918885L194.17111111111112,88.62765186596795L194.42888888888888,95.15682176311324L194.4933333333333,122.64519080636425L194.55777777777777,120.91162878615899L194.68666666666667,128.5832072549385L194.81555555555556,120.18513265624122L195.13777777777779,125.20603399770869L195.26666666666668,118.3734936466388L195.3311111111111,122.46231501566439L195.78222222222223,125.21646531166691L195.91111111111113,115.51710712972697L196.10444444444443,101.63765588494734L197.5222222222222,116.29692271298633L197.58666666666667,133.76294368419383L197.71555555555557,129.19969174485138L198.16666666666666,114.69549655991685L198.29555555555558,127.1229934350235L198.36,121.29318807456391L198.68222222222224,110.68145025928912L198.74666666666667,113.77778202011426L198.81111111111113,107.05606369476787L199.00444444444443,88.62055068412367L199.0688888888889,67.14333416829781L199.26222222222222,88.19201667737582L199.71333333333334,55.8080122622294L199.84222222222223,87.08213616759598L199.97111111111113,92.39592310236867L200.1,103.92409593891921L200.16444444444443,97.62642096029086L200.87333333333333,104.68670767871359L200.93777777777777,94.67129907261568L201.00222222222223,67.63232881684931L201.51777777777778,87.08793068119512L201.5822222222222,70.82413652705871L201.90444444444444,66.18935589944502L201.96888888888887,77.12371270792428L202.03333333333333,69.58739797110134L202.09777777777776,34.9697213726599L202.2266666666667,29.208112446454166L202.29111111111112,58.30549844654348L202.35555555555558,77.72121618773258L202.54888888888888,89.39165173467879L203.2577777777778,91.13677028497008L203.64444444444445,70.66330013734613L203.77333333333334,82.67165756154476L204.2888888888889,83.47361422409395L204.35333333333332,94.9160878057521L204.4177777777778,82.26415071784177L204.54666666666668,30.73286294768394L204.99777777777777,28.771097398959267L205.19111111111113,29.705515661499145L205.32,12.494693480040494L205.51333333333332,38.749397528342996L205.64222222222222,57.74621902237689L205.77111111111114,74.69918783016308L206.35111111111112,87.93938512074968L206.60888888888888,41.94007871538303L206.73777777777778,25.091628808264826L206.86666666666667,48.546986985387264L206.99555555555554,59.612652224302295L207.06,44.325364161729794L207.3177777777778,45.169199209928486L207.38222222222223,42.49116442619235L207.4466666666667,28.594787746236097L207.76888888888888,32.19835300690579L208.0911111111111,19.04631636679883L208.15555555555554,39.583394234585676L208.41333333333333,58.43795071283727L208.73555555555555,56.094306287243796L208.79999999999998,33.20415585625295L208.86444444444444,36.71250615080345L208.92888888888888,45.16665007914283L209.05777777777777,-9.311793136219016L209.12222222222223,30.122933641140094L209.63777777777779,34.291907913343934L209.70222222222225,56.62923691247947L209.76666666666668,36.08913636496147L210.0888888888889,67.99710954058999L210.15333333333334,54.943422341952086L210.4111111111111,54.262759275366136L210.60444444444445,76.33284165308811L210.79777777777778,91.98204244066656L210.92666666666668,81.29545854101572L211.05555555555554,77.39897107659141L211.18444444444444,91.22111603745654L211.2488888888889,78.35527250139124L211.31333333333333,85.33968899827126L211.63555555555556,45.926310229296114L211.7,41.66196521888759L212.47333333333333,82.51876015688964L212.60222222222222,68.83882910743945L213.05333333333334,86.51270036377231L213.44,104.23902003182872L213.50444444444443,88.45740911437863L214.21333333333334,101.31413390842991L214.2777777777778,102.76960102682062L214.85777777777778,119.31461921150697L214.98666666666665,119.36807695029397L215.11555555555555,117.16005733933254L215.3088888888889,77.28057565504218L215.5022222222222,76.44967335156578L215.69555555555556,81.64465742252727L215.95333333333335,84.77381990517652L216.01777777777778,89.93757179207164L216.34,83.623453803004L216.4688888888889,78.30610602869517L216.5977777777778,93.37135743851725L216.6622222222222,115.01258413862527L216.92,92.86205435752045L217.04888888888888,99.07955758926589L217.2422222222222,89.80785931496756L217.7577777777778,84.8126847412577L217.88666666666666,73.22914793887084L217.95111111111112,100.86526083446732L218.08,64.46316142649495L218.4022222222222,83.2071969907292L218.5311111111111,58.17039349517437L218.66,86.78566125482503L218.7888888888889,97.16140255817066L219.30444444444444,77.73520282418686L219.82,79.60770806758119L219.88444444444445,85.18956002537428L220.01333333333335,89.44968977970655L220.07777777777775,82.15554266920441L220.2711111111111,110.13189189610605L220.4,110.20549962019649L220.46444444444444,121.80405155531548L220.65777777777777,104.47846812163255L221.04444444444445,61.457318119406224L221.3022222222222,60.00111355424984L221.36666666666665,80.47900283686229L222.2688888888889,98.92382498647461L222.4622222222222,87.85675651199307L222.65555555555557,80.22655966392081L222.8488888888889,93.58123872693025L223.10666666666665,73.3338530508887L223.3,61.195242756769446L223.36444444444444,70.4104881403565L223.4288888888889,73.0423338179963L223.81555555555556,84.17399443613913L224.13777777777776,71.27442087460739L224.20222222222222,80.09358634462194L224.26666666666665,84.45403811769735L224.52444444444444,88.98157727707927L224.6533333333333,97.33207346086314L224.71777777777777,101.65270203023104L225.10444444444445,106.71102829974261L225.29777777777775,90.57333304568587L225.42666666666668,90.78685455264234L225.4911111111111,69.61248554541706L225.62,34.0492271116075L225.68444444444447,19.52407275350347L225.81333333333333,26.194770252610336L226.00666666666666,40.594553975352135L226.20000000000002,53.243039772129784L226.71555555555557,45.25321511666257L226.78,79.8184773827916L227.10222222222222,51.107856463077816L227.36,57.321948139099355L227.42444444444445,47.4650621593274L227.74666666666667,45.27005659657741L228.58444444444447,41.10014926861538L228.64888888888888,70.96865591470704L228.7133333333333,56.77736470249966L228.77777777777777,55.20988466123257L229.35777777777778,41.34271463241069L229.80888888888887,43.98055716717502L230.00222222222223,52.05256825360756L230.32444444444445,69.9125165020358L230.51777777777778,23.296089724108544L230.90444444444447,12.053992723847205L230.96888888888887,11.2340504846612L231.03333333333333,38.34582902376235L231.35555555555555,51.874610666377L231.61333333333332,45.32537546826326L231.7422222222222,76.73602378032543L231.93555555555557,69.04835365917538L232.19333333333333,73.99339949963785L232.25777777777776,77.41461044369031L232.32222222222222,63.8063532135686L232.45111111111112,72.5166342076378L232.70888888888888,77.22503994369444L232.7733333333333,78.01811996758161L232.90222222222224,94.20282048976529L232.96666666666667,96.22063218948904L233.22444444444443,87.71313909041572L233.2888888888889,98.87082329924789L233.35333333333332,106.00102160350556L233.67555555555558,79.72588366689293L233.80444444444444,29.10320861699477L234.4488888888889,65.32188647182706L234.51333333333332,73.0193846990364L234.7711111111111,79.10606000893043L234.9,95.66610243255441L235.22222222222223,73.91844568777084L235.35111111111112,74.58259699529299L235.54444444444442,66.32393144241506L235.67333333333332,74.11789752428469L236.31777777777776,81.8921626520331L236.51111111111112,81.1293361210494L236.70444444444442,60.43587831724967L237.02666666666667,56.587348468066416L237.22,78.87275518485487L237.60666666666668,96.48287073731117L237.79999999999998,101.84968660503986L237.92888888888888,52.28260921810648L238.25111111111113,67.87843040180228L238.38,76.35514741760612L238.63777777777779,34.239424149471716L238.70222222222222,43.045294115925934L239.21777777777777,36.515252731596156L239.47555555555556,34.17416694629746L239.54,47.591291431705585L239.73333333333332,8.109221755663107L239.86222222222221,25.830549297072405L239.99111111111114,71.8553324087488L240.31333333333333,81.08936906611L240.57111111111112,61.29711783165595L240.82888888888888,54.434652687518955L241.08666666666667,79.1398217708144L241.21555555555554,66.40797184777806L241.60222222222222,59.210449758225145L242.37555555555554,9.43781299014462L242.50444444444443,-49.776823730460485L242.63333333333333,-10.63668323446989L242.82666666666668,5.43846503074252L243.01999999999998,35.35569695501334L243.21333333333334,65.83975702771106L243.27777777777777,43.3309019807979L243.6,56.317926751722254L244.11555555555555,72.49664653315561L244.50222222222223,34.2178355123339L244.69555555555556,40.86660783899435L244.76,68.06129171173072L245.27555555555554,84.19789077743792L245.7911111111111,83.90090117289475L246.3711111111111,85.04711498768349L246.6288888888889,81.36356475649282L247.07999999999998,68.36510322184888L247.46666666666667,73.06746645331752L247.59555555555553,73.19332688459706L247.7888888888889,80.42096938626251L247.9177777777778,79.19013864414208L248.30444444444444,81.66874783298073L248.43333333333334,75.2998221070483L248.4977777777778,75.27166843013362L248.88444444444445,66.747416389834L249.01333333333335,63.98405153650382L249.07777777777778,97.05734076395996L249.14222222222224,65.40773202573659L249.4,64.71327959491417L249.46444444444444,41.07756086746652L249.5288888888889,34.43590128321962L249.6577777777778,59.96518092745797L249.8511111111111,40.98952659874439L249.98,60.20790212479618L250.30222222222224,54.801892764135495L250.36666666666665,63.511494441162846L250.56,35.6696896334477L250.88222222222223,39.33800537358557L250.94666666666666,51.76461335349039L251.07555555555555,73.90596341198547L251.14,62.8132278649181L251.46222222222224,80.68731637981733L251.5911111111111,62.09881460344747L251.78444444444443,60.374121761558015L251.8488888888889,84.04048181547974L251.91333333333336,96.03110940386857L252.10666666666665,98.52297510582211L252.3,53.5742914680232L252.49333333333334,66.05938343156187L252.7511111111111,87.03587740737572L253.0088888888889,84.30028433738084L253.13777777777779,53.855805922918556L253.46,56.13821718384479L253.52444444444444,79.14585906494L253.65333333333334,86.24982820668639L253.84666666666666,111.94082229674244L254.1688888888889,93.1954230821914L254.29777777777778,92.61875368424246L254.81333333333333,89.15887656967634L254.8777777777778,55.65512340218844L255.13555555555556,57.82026534213869L255.26444444444445,84.96482693405409L255.58666666666664,90.75719677522292L255.71555555555557,69.09973141185785L255.84444444444446,67.73112184077817L255.97333333333336,82.16851371254353L256.1666666666667,49.38766291086461L256.4888888888889,48.34458962884298L256.55333333333334,47.787499578364454L256.61777777777775,65.92152654838807L256.6822222222222,67.50214196163671L256.74666666666667,80.57374649595175L256.81111111111113,57.10359903837361L257.0688888888889,72.49497310211241L257.1977777777778,95.4427976298277L257.32666666666665,108.73091466951037L257.52,101.92157267061381L257.71333333333337,114.04032267646495" style="fill: none;" fill="none"></path></g></g></g></g><g opacity="0.2"><g><g><g><path stroke="rgb(255, 112, 67)" stroke-width="2px" d="M39.05333333333333,186.92024334994227L39.11777777777778,144.73639037392357L39.24666666666667,155.28520787845957L39.69777777777778,173.5838491266424L40.02,167.65252694216642L40.27777777777778,161.8900741663846L40.34222222222222,160.901226347143L40.47111111111111,150.5269330631603L40.6,172.11663644964045L40.98666666666667,110.64792615717107L41.051111111111105,142.6846220710061L41.50222222222222,173.48212389512494L41.63111111111111,159.16532187028363L41.69555555555556,153.5820046338168L41.888888888888886,182.07503635233098L42.339999999999996,173.4373764558272L42.53333333333333,171.71359491348267L42.66222222222222,167.6119227842851L42.79111111111111,166.4449061913924L43.17777777777778,167.7712473002347L43.242222222222225,180.61084673621437L44.08,185.75409761342138L44.144444444444446,171.42450896176425L44.208888888888886,191.99574006687513L44.46666666666666,187.8441644148393L44.53111111111111,173.9999266537753L44.595555555555556,170.55374466289175L45.04666666666667,178.39751347628504L45.24,173.12274026870728L45.30444444444445,161.53094374049795L45.36888888888889,181.62120125510475L45.43333333333334,162.54001691124657L45.562222222222225,167.77264373952693L45.82,159.26995507153597L45.94888888888889,184.07822851701215L46.077777777777776,158.559758273038L46.33555555555555,162.75177695534447L46.4,174.87672172893178L46.46444444444444,170.6643702767112L46.657777777777774,160.71697308800438L46.980000000000004,173.2899446920915L47.62444444444444,154.192072131417L47.946666666666665,150.06349169124258L48.01111111111111,181.8303870938041L48.07555555555555,158.14283674413508L48.848888888888894,164.91859804500234L48.913333333333334,129.67857781323522L48.97777777777778,165.59664604880592L49.68666666666667,158.2884347222068L49.879999999999995,136.03427176042035L50.00888888888889,136.48361830277875L50.13777777777778,161.27422909303144L50.39555555555555,132.67492220618507L50.588888888888896,129.3278950777921L50.782222222222224,121.61842229149558L50.91111111111111,148.9912027879195L51.233333333333334,119.86739483746616L51.36222222222222,148.35743418606845L51.42666666666667,134.08299337733877L51.94222222222222,110.90972016074441L52.07111111111111,122.19240487705578L52.32888888888888,149.25950327786532L52.58666666666667,146.4608931541443L52.71555555555556,129.1549130786549L52.78,143.7692410729148L52.973333333333336,131.1073577187278L53.94,125.58697999607433L54.004444444444445,139.55165680972013L54.32666666666666,117.6440179564736L54.45555555555555,126.49871674450962L54.52,127.6487612290816L54.906666666666666,115.97967715696856L55.035555555555554,114.7877471663735L55.29333333333334,62.50097049366344L55.55111111111111,102.87887451865457L55.61555555555555,74.31248370083895L55.68,91.62955856323242L55.74444444444444,111.21196486733176L55.80888888888889,110.6262276389382L55.873333333333335,98.04291317679666L56.58222222222223,72.85786966844037L57.09777777777778,98.7066822052002L57.355555555555554,107.94144266301936L57.48444444444444,90.06840081648394L57.61333333333333,103.95594354109332L57.806666666666665,81.49869840795343L58.128888888888895,92.52116203308105L58.25777777777778,119.03094304691662L58.580000000000005,78.5210448178378L58.90222222222222,129.35768066753042L58.96666666666667,105.32896562056109L59.35333333333333,82.40201048417524L59.41777777777778,74.84920744462445L59.675555555555555,68.85665676810525L59.93333333333333,-2.539923581210064L60.25555555555556,94.66056841070002L60.32,86.55789054523815L60.38444444444445,133.6190302588723L60.513333333333335,68.92331756245007L60.77111111111111,136.08904747529462L60.83555555555556,68.45814982327548L60.964444444444446,71.65097782828592L61.22222222222222,10.91573576493696L61.35111111111111,-11.772566361860788L61.608888888888885,85.29360658472235L61.93111111111111,22.311463009227403L62.18888888888889,110.12892645055598L62.25333333333334,87.86698332699862L62.382222222222225,141.14299912886187L62.51111111111111,102.25408302653919L62.76888888888889,47.702964696017176L62.833333333333336,58.630409067327335L63.15555555555555,81.47604846954346L63.22,40.90153806859796L63.60666666666666,117.9710839878429L63.73555555555555,129.88035561821678L64.05777777777777,87.34654114463113L64.31555555555555,96.74620420282537L65.02444444444444,111.58814412897283L65.08888888888889,49.69991892034356L65.15333333333334,94.06726585734974L65.21777777777778,152.65377148714933L65.28222222222223,121.59938621520996L65.34666666666666,82.56804865056817L65.54,106.00209539586848L65.60444444444444,91.7760619250211L65.66888888888889,99.29381587288596L66.57111111111111,107.9860213019631L66.63555555555556,87.1369678323919L66.76444444444444,95.6586235219782L66.8288888888889,74.69972705841064L66.89333333333333,83.6456547650424L67.02222222222223,78.71671511910178L67.1511111111111,76.61722235246137L67.28,68.89147567749023L67.4088888888889,112.87051274559714L67.66666666666667,92.53158161856912L67.79555555555555,51.259557463906035L68.05333333333333,113.07973311164163L68.44,121.43801307678223L68.56888888888889,108.88627962632611L68.82666666666667,132.09727204929698L69.02,91.4124813079834L69.14888888888889,85.70260984247382L69.85777777777778,110.87436415932395L69.92222222222222,105.84383739124645L70.11555555555556,130.19262092763728L70.24444444444444,123.667827389457L70.30888888888889,62.63458364660089L70.50222222222222,124.82103304429486L70.63111111111111,90.55351768840443L71.08222222222223,65.51660416342996L71.40444444444445,124.46116603504528L71.72666666666666,150.3496082912792L71.7911111111111,147.22916494716299L71.92,92.34574777429754L72.30666666666666,128.78250113400549L72.3711111111111,90.29885933615945L72.56444444444445,136.4521063457836L72.69333333333333,108.45011485706677L72.75777777777778,118.94790861823343L73.01555555555555,150.85464360497215L73.27333333333333,118.82242090051824L73.59555555555555,69.55130091580477L73.66,122.80643918297507L73.72444444444444,151.05995087190107L74.04666666666667,146.6878298846158L74.17555555555555,123.06368324973367L74.43333333333332,96.71414748105137L74.62666666666668,131.15284941413185L74.75555555555556,97.73115426843816L75.20666666666668,130.37977448376745L75.4,119.54444906928323L75.72222222222223,147.1100609519265L75.78666666666666,137.10936121507123L76.04444444444445,132.45760709589177L76.30222222222223,28.636841947382138L76.81777777777778,116.53489988500422L76.94666666666666,112.18503752621739L77.07555555555555,150.75276491858742L77.14,89.49573794278233L77.26888888888888,99.66727898337625L77.46222222222222,102.86860838803379L77.97777777777777,98.74326584555887L78.30000000000001,93.7385962226174L78.42888888888889,145.6994884664362L78.62222222222223,90.8002884604714L78.68666666666667,84.82698102430865L78.81555555555556,102.71958836642177L78.94444444444444,113.77125445279209L79.00888888888889,113.42504492673008L79.13777777777779,129.14330421794546L79.20222222222223,138.32367259805852L79.33111111111111,118.46886855905706L79.39555555555556,134.46059209650213L79.46000000000001,114.58759598298505L79.78222222222222,129.0496200214733L80.04,113.85980558395386L80.16888888888889,92.50837924263693L80.94222222222221,106.3209285736084L81.45777777777778,95.72378045862371L81.52222222222221,145.78223133087158L81.77999999999999,95.07440549677068L81.97333333333334,134.5194573835893L82.16666666666667,109.75138144059613L82.23111111111112,126.62507148222491L82.36,102.9902060248635L82.42444444444445,130.86614201285622L82.4888888888889,98.13021365079014L82.61777777777779,24.530727299776938L83.00444444444445,81.17627438631925L84.03555555555556,17.11310265280984L84.1,98.4826227534901L84.16444444444444,120.72767049616033L84.22888888888889,75.42946633425626L84.42222222222222,169.6551436510953L84.93777777777777,147.2931326085871L85.00222222222222,142.59699934179133L85.58222222222221,132.61061694405296L85.83999999999999,107.63379634510387L85.90444444444445,129.85767498883337L86.03333333333335,122.39079900221392L86.09777777777778,159.15426544709638L86.29111111111112,162.34056394750422L86.35555555555555,152.9592157277194L86.5488888888889,115.63426559621638L86.67777777777778,160.74990450252187L87.06444444444445,150.62189860777423L87.45111111111112,97.55779630487615L87.64444444444445,142.91119050979614L87.77333333333333,146.21200470490888L88.03111111111112,89.78004377538508L88.28888888888889,143.84840843894264L88.35333333333332,134.72072111476552L89.19111111111111,152.2258012078025L89.32,135.96792554855347L89.57777777777777,122.06564348394221L89.70666666666668,136.8101625875993L89.9,37.367134874517276L90.0288888888889,138.86678006432274L90.09333333333333,123.41640693491155L90.28666666666668,143.67114504900846L90.35111111111111,91.52990497242321L90.67333333333333,119.28719732978128L90.73777777777778,80.53306831013073L90.86666666666667,100.60270916331898L90.93111111111111,151.64903341640127L91.38222222222223,137.4995815970681L91.44666666666667,138.94650754061612L91.57555555555555,166.4265376437794L92.02666666666667,109.91379807212137L92.15555555555555,113.32766246795654L92.22,142.1507372422652L92.28444444444445,168.38259614597666L92.73555555555555,149.90089858661997L92.92888888888888,138.3964255506342L93.12222222222222,163.02591640299016L93.38,105.17204267328435L93.57333333333332,94.23327333276922L93.76666666666667,132.78172679380938L94.08888888888889,153.24953699111938L94.28222222222223,87.31466856869784L94.41111111111111,129.23326713388616L94.54,146.14923399144953L94.60444444444445,78.71027001467618L95.24888888888889,69.27566528320312L95.31333333333333,111.20108491724187L95.50666666666666,87.67106749794699L95.76444444444444,124.43531656265259L96.02222222222223,120.95242816751653L96.1511111111111,95.25551293113016L96.28,104.86671352386475L96.40888888888888,138.62238016995516L96.60222222222222,116.33808634497903L96.79555555555555,162.1100670641119L96.86,150.2408087903803L96.92444444444443,149.03293483907527L97.05333333333333,116.37420962073587L97.37555555555556,150.3850333473899L97.50444444444443,141.23339939117432L97.63333333333334,139.2552357153459L98.08444444444444,69.22359804673627L98.34222222222222,118.29797354611485L98.47111111111111,110.12656324559993L98.92222222222222,106.95224189758301L98.98666666666666,167.91300123388118L99.05111111111111,106.44264897433193L99.43777777777778,127.76362986998126L99.63111111111111,83.20224692604758L100.27555555555556,144.19412690942937L100.40444444444444,61.85454186526212L100.53333333333333,122.21064298803157L100.66222222222221,111.16107923334295L100.98444444444443,70.98713207244873L101.11333333333334,80.75906129316851L101.17777777777779,76.5468019138683L101.24222222222221,119.81897982684048L101.30666666666667,113.92383462732488L101.37111111111112,133.39399636875498L101.6288888888889,110.18314205516468L101.82222222222222,85.01283021406695L102.14444444444445,131.12900252775714L102.2088888888889,137.2177847515453L102.27333333333334,93.50884359533137L102.53111111111112,111.05389100855047L102.98222222222222,131.23318303715098L103.24,59.16435527801514L103.30444444444444,84.59204162250866L103.36888888888889,107.92276720567182L103.56222222222222,98.77598242326215L103.69111111111111,120.39623100107366L103.82,147.2325716452165L103.88444444444444,123.81209031018345L104.01333333333334,112.14906770532781L104.46444444444444,91.01360607147217L104.52888888888889,97.74995248967952L104.72222222222221,49.13603366505016L104.78666666666666,128.78376713666052L104.91555555555554,97.5495404330167L104.97999999999999,121.35358988155018L105.17333333333335,126.51106986132534L105.30222222222223,122.43954394080423L105.62444444444445,74.20650776949796L106.07555555555555,93.77010050686924L106.39777777777778,129.85864175449717L106.46222222222222,124.84972910447553L107.10666666666667,118.07782719352029L107.23555555555555,148.63613891601562L107.42888888888889,152.04993425716054L107.88,62.37455437400125L108.00888888888889,130.741897279566L108.07333333333332,14.370311737060547L108.13777777777777,123.92563156648114L108.39555555555555,109.34586160833186L108.52444444444444,94.6456679430875L108.84666666666668,115.56560221585362L109.10444444444445,86.36992367831144L109.1688888888889,102.8685623515736L109.36222222222223,48.31894787875089L109.87777777777778,54.14228387312456L109.94222222222223,110.39319107749246L110.00666666666667,42.90837478637695L110.45777777777778,115.43014760450885L110.71555555555555,-64.36286908929998L111.03777777777778,51.04005562175404L111.16666666666667,78.5254336270419L111.42444444444445,98.78181370821865L112.3911111111111,109.95418739318848L112.52000000000001,16.21737124703147L112.71333333333334,-16.32839584350586L112.77777777777779,38.25114232843573L112.84222222222223,46.58242190967906L112.90666666666667,-64.36627578735352L113.03555555555556,-51.27089777859776L113.16444444444446,73.99507765336469L113.22888888888889,13.972633448514078L113.42222222222223,47.0266277139837L113.48666666666666,82.13008845936169L113.87333333333333,95.10704534704035L114.13111111111111,63.5811546499079L114.45333333333333,72.86000269109552L114.51777777777778,102.58287542516535L114.58222222222223,26.436161041259766L114.84,-6.369972922585231L115.03333333333333,-179.21874254400078L115.35555555555555,125.39696450666949L115.54888888888888,74.4322705702348L115.8711111111111,67.58692515980114L115.93555555555555,63.393371928821914L116.12888888888888,21.276640111749813L116.38666666666666,44.480688701976426L116.64444444444445,9.177690592679117L116.96666666666667,-17.170279936356984L117.28888888888889,58.97287429462779L117.41777777777779,14.612356099215415L117.61111111111111,3.7644473856145595L117.67555555555556,-89.57301781394266L118.89999999999999,-133.58292232860217L119.09333333333333,57.115134325894445L119.47999999999999,52.28369990262118L119.86666666666666,89.09558903087269L120.12444444444444,-1.1348447799682617L120.1888888888889,79.4231906370683L120.25333333333334,106.35161954706365L120.38222222222223,99.80259548534046L120.83333333333334,88.25307577306573L120.89777777777778,75.2253099788319L121.15555555555557,117.43567228317261L121.54222222222222,106.94869709014893L121.8,16.36697439713911L121.99333333333334,29.141785188154735L122.25111111111111,81.95252583243631L123.53999999999999,4.245359594171688L123.79777777777777,124.01812648773193L124.44222222222223,76.93370767073199L124.76444444444445,60.199469739740536L124.89333333333333,8.18755375255238L124.95777777777778,119.87920318950306L125.02222222222223,7.69557744806464L125.08666666666667,20.421789082613852L125.60222222222222,74.44887438687411L125.9888888888889,-340.21324643221766L126.11777777777777,89.65838475660846L126.18222222222222,80.37772594798695L126.3111111111111,-28.453171816739154L126.37555555555555,41.97355842590332L127.14888888888889,25.783870436928492L127.21333333333332,55.09089582616632L127.34222222222222,-200.9436550140381L127.79333333333332,70.25475337288596L128.0511111111111,62.47474505684592L128.24444444444444,-53.53208593888716L128.50222222222223,39.87598384510387L128.76,-45.42767403342508L128.82444444444445,41.57173685594038L129.01777777777778,-10.274140964854865L129.46888888888887,-39.03520462729715L129.53333333333333,77.22568624669854L129.59777777777776,-112.420053655451L129.92000000000002,-77.82205789739436L130.69333333333333,43.5265984101729L131.08,99.13149131428112L131.27333333333334,-25.4527915607799L131.33777777777777,-15.400960662148218L131.5311111111111,37.524779059670195L131.98222222222222,59.374327572909266L132.17555555555555,-9.04318740151145L132.24,57.53334487568248L132.88444444444443,57.69533183357932L133.07777777777778,-14.872615554115992L133.14222222222222,74.71803422407672L133.2711111111111,-4.6490379680286935L133.52888888888887,75.90204594352029L133.59333333333333,106.09444453499533L133.78666666666666,67.65386217290704L134.04444444444445,49.56039775501598L134.36666666666667,71.0504322052002L135.01111111111112,105.81353005495937L135.07555555555555,82.43615419214423L135.14000000000001,89.39953708648682L135.39777777777778,49.716584118929774L135.52666666666667,32.774399497292265L136.04222222222222,52.957244006070226L137.07333333333332,105.56771070306951L137.3311111111111,-1.0585316744717828L137.5888888888889,69.86654324965045L137.7177777777778,17.065240079706356L137.91111111111113,64.47367884896018L137.97555555555556,82.87405300140381L138.29777777777778,43.58514144203879L138.36222222222221,83.9323238026012L138.62,20.306145494634464L138.81333333333333,11.556593981656167L138.94222222222223,88.62233422019266L139.32888888888888,63.66535533558238L139.58666666666667,89.81035111167215L139.84444444444443,19.02298658544366L140.10222222222222,83.04859256744385L140.29555555555555,81.25777426632968L140.42444444444445,49.59575375643644L140.8111111111111,36.93850473924116L140.87555555555554,74.5900068283081L140.94,122.83485135165127L141.00444444444443,93.96503422477029L141.32666666666668,81.20526201074775L141.39111111111112,96.70814739574085L141.45555555555555,63.555098013444386L141.90666666666667,113.18294685537165L142.03555555555556,29.661705623973496L142.2288888888889,25.641587083989933L142.35777777777778,75.26437958804044L142.42222222222222,105.00563621520996L142.48666666666668,106.6456851092252L142.5511111111111,74.9104359366677L142.93777777777777,71.31974549727008L143.19555555555556,38.11818903142755L143.26,5.3398610895330165L143.38888888888889,-173.48229269547895L143.7111111111111,61.311250253157176L144.22666666666666,92.29863713004373L144.2911111111111,35.998685750094324L144.54888888888888,84.37115868655118L144.67777777777778,-61.130342310125165L145.19333333333336,-16.073169708251953L145.2577777777778,27.888519287109375L145.96666666666667,66.42651479894464L146.61111111111111,74.01162008805707L146.74,58.74390428716485L146.93333333333334,80.07416152954102L147.1911111111111,-4.79195048592307L147.32,-263.6170167055997L147.51333333333335,82.39668560028076L147.70666666666665,-36.045259302312665L147.96444444444444,39.1736516085538L148.2222222222222,114.34127790277654L148.3511111111111,30.646839835427027L149.44666666666666,105.12269158796832L149.70444444444445,-132.4789373224432L149.89777777777778,77.47061556035821L149.9622222222222,68.76717723499645L150.15555555555557,109.62496532093395L150.28444444444446,118.71403572776101L150.54222222222222,57.451906377618954L150.67111111111112,89.31611902063543L151.2511111111111,75.58896732330322L151.5088888888889,47.83677734028209L152.0888888888889,67.93652603842996L152.4111111111111,70.1596267006614L152.47555555555556,72.66964192823932L152.54000000000002,37.02067982066762L152.9911111111111,79.88137617978182L153.37777777777777,86.27030077847567L153.57111111111112,66.36158804460004L153.76444444444445,76.41633458571002L153.89333333333332,127.95999839089133L154.34444444444446,50.87750088084828L154.60222222222222,61.840025034817785L154.79555555555555,68.42670692097057L155.1822222222222,65.57999636910178L155.24666666666667,127.65159247138284L155.3111111111111,49.917548613114796L155.50444444444446,65.75261774930087L155.82666666666665,103.26822020790793L156.2133333333333,77.11835991252552L156.27777777777777,78.85290631380948L156.92222222222222,115.76993504437534L156.98666666666668,23.802046862515542L157.24444444444447,31.106498544866398L157.30888888888887,105.56528611616656L157.37333333333333,-2.1504397825761203L157.56666666666666,44.68769931793213L157.69555555555556,92.43516592545942L157.88888888888889,89.4487500624223L158.0822222222222,103.97587732835248L158.27555555555557,58.837542447176844L158.53333333333333,101.53786312450062L158.59777777777776,26.373413346030492L158.72666666666666,27.280930085615672L158.79111111111112,44.672553322531954L158.92000000000002,108.64851665496826L158.98444444444445,97.04128256711094L159.62888888888887,27.725427454168155L159.75777777777776,59.84577161615546L159.88666666666666,110.96969032287598L160.2733333333333,94.70204726132481L160.33777777777777,63.32881346615878L160.53111111111113,106.44720658389004L162.20666666666668,-1.1281081112948188L162.46444444444444,113.61144655401057L162.78666666666666,71.54707353765313L162.91555555555556,116.69718607989223L163.10888888888888,72.79435469887473L163.36666666666667,61.77545122666792L163.4311111111111,90.2778360193426L163.68888888888887,135.3405713601546L163.88222222222223,45.521910667419434L164.14,123.87832910364324L164.59111111111113,154.63521909713745L164.65555555555557,40.825762055136934L164.72,53.152423251758925L165.42888888888888,114.97929720445111L165.49333333333334,-12.641980257901263L165.62222222222223,129.3269973668185L165.88,62.40076446533203L166.20222222222222,76.4692611694336L166.71777777777777,114.99857113578103L166.84666666666666,103.31622089039196L166.97555555555556,128.67357886921275L167.23333333333332,86.73519229888916L167.36222222222221,110.35774300315164L167.42666666666668,89.54584095694803L167.55555555555554,83.95594050667502L167.74888888888887,135.01641329852018L167.8777777777778,88.87788261066784L168.13555555555553,127.89367519725452L168.2,37.94760860096324L168.45777777777778,80.05846309661865L168.52222222222224,16.513462413441054L168.78,99.07325519214977L168.84444444444443,122.0898586619984L169.0377777777778,67.1025141802701L169.10222222222222,90.08847271312366L169.29555555555555,32.92645792527632L169.87555555555554,-17.956275766546064L170.0688888888889,110.01277646151455L170.71333333333334,64.39567773992364L171.35777777777778,51.754434065385304L171.55111111111108,107.48371748490766L172.00222222222223,104.72973970933393L172.45333333333335,104.95295515927403L173.16222222222223,46.42869082364169L173.2911111111111,30.949606288563125L173.61333333333334,42.02412180467085L173.93555555555554,91.50145444003017L174.06444444444443,42.45707936720415L174.19333333333333,120.48106085170399L174.57999999999998,65.0282954302701L174.70888888888888,57.5514065135609L174.90222222222224,61.27692239934747L174.96666666666667,64.68624453111127L175.35333333333335,90.82984386790882L175.6111111111111,151.70603422685102L176.32,73.38348327983509L176.51333333333335,32.40776512839578L176.70666666666665,-112.71640569513494L176.83555555555554,88.94607795368542L177.67333333333335,27.66301735964689L178.12444444444444,35.67392921447754L178.3177777777778,107.66295276988636L178.89777777777778,47.558793848211124L179.22,103.62936089255594L179.9288888888889,106.16402097181842L180.44444444444446,124.93013945492832L180.76666666666665,-19.92034461281516L180.8311111111111,81.28860334916547L181.15333333333334,90.48872904344037L181.47555555555556,63.93984005667947L181.6688888888889,-15.785978924144416L181.9911111111111,103.69097302176736L182.50666666666666,66.19490536776456L182.7,112.4894766374068L183.0222222222222,13.532893180847168L183.1511111111111,119.0121985348788L183.21555555555557,107.3997009450739L183.28,120.72113331881435L183.4088888888889,5.00617348064076L183.79555555555555,75.83328281749378L184.11777777777777,23.734695521267984L184.24666666666667,69.22781805558637L185.02,-112.52762551741168L185.1488888888889,111.91317688335072L185.4711111111111,-28.77969308332964L185.85777777777776,73.9524172002619L186.18,125.63900119608098L186.3088888888889,124.01538731835105L186.43777777777777,92.95892273296009L186.5022222222222,12.177886702797633L186.69555555555556,77.49113247611307L186.76,73.86404254219748L187.85555555555555,119.45269073139538L188.69333333333333,130.65325407548383L188.88666666666666,139.27999565818092L189.14444444444445,92.89290644905783L189.2088888888889,109.44666611064564L189.4022222222222,120.91140200875022L189.5311111111111,129.69739137996328L189.59555555555556,132.53928344899958L190.3688888888889,122.57939503409646L190.88444444444445,18.32844985615123L191.01333333333332,153.8324199589816L191.07777777777778,119.59577204964377L191.33555555555557,148.92526323145086L191.59333333333333,147.48127594861117L191.85111111111112,81.27849067341198L192.3022222222222,103.53095028617166L192.36666666666667,60.20003752274946L192.62444444444446,90.84100003675982L192.88222222222223,110.22993044419721L193.20444444444445,124.05639045888728L193.33333333333331,113.58634133772418L193.52666666666667,-12.314691716974442L193.65555555555557,149.9066377986561L193.72,119.0491427941756L193.84888888888887,99.61485880071467L193.97777777777776,121.2132170417092L194.17111111111112,55.89564384113658L194.42888888888888,104.95057660883123L194.4933333333333,163.8777443712408L194.55777777777777,118.31128575585105L194.68666666666667,140.09057495810768L194.81555555555556,107.58802075819537L195.13777777777779,132.7373860099099L195.26666666666668,108.12468312003396L195.3311111111111,128.59554706920278L195.78222222222223,129.34769075567073L195.91111111111113,100.96806985681707L196.10444444444443,80.81847901777789L197.5222222222222,138.28582295504484L197.58666666666667,159.96197514100507L197.71555555555557,122.35481383583762L198.16666666666666,92.93920378251508L198.29555555555558,145.76423874768344L198.36,112.54848003387451L198.68222222222224,94.76384353637695L198.74666666666667,118.42227966135198L198.81111111111113,96.97348620674826L199.00444444444443,60.96728116815741L199.0688888888889,34.927509394558996L199.26222222222222,119.76504044099286L199.71333333333334,7.232005639509714L199.84222222222223,133.99332202564585L199.97111111111113,100.3666035045277L200.1,121.216355193745L200.16444444444443,88.17990849234842L200.87333333333333,115.27713775634766L200.93777777777777,79.64818616346881L201.00222222222223,27.07387343319979L201.51777777777778,116.27133347771384L201.5822222222222,46.428445295854054L201.90444444444444,59.237184958024464L201.96888888888887,93.5252479206432L202.03333333333333,58.282925865866915L202.09777777777776,-16.956793525002222L202.2266666666667,20.565699057145558L202.29111111111112,101.95157744667746L202.35555555555558,106.84479279951617L202.54888888888888,106.89730505509809L203.2577777777778,93.75444811040705L203.64444444444445,39.95309491591021L203.77333333333334,100.68419369784267L204.2888888888889,84.6765492179177L204.35333333333332,112.07979817823932L204.4177777777778,63.28624508597635L204.54666666666668,-46.564068707552835L204.99777777777777,25.828449075872257L205.19111111111113,31.107143055308946L205.32,-13.321539792147565L205.51333333333332,78.13145360079679L205.64222222222222,86.24145126342773L205.77111111111114,100.12864104184239L206.35111111111112,107.79968105662952L206.60888888888888,-27.05888089266689L206.73777777777778,-0.18104605241254612L206.86666666666667,83.73002425107089L206.99555555555554,76.21115008267489L207.06,21.394432067871094L207.3177777777778,46.43495178222656L207.38222222222223,38.47411225058816L207.4466666666667,7.750222726301706L207.76888888888888,37.60370089791037L208.0911111111111,-0.681738593361598L208.15555555555554,70.38901103626598L208.41333333333333,86.71978543021463L208.73555555555555,52.57883964885365L208.79999999999998,-1.1310697902332831L208.86444444444444,41.97503159262918L208.92888888888888,57.84786597165194L209.05777777777777,-91.02945795926182L209.12222222222223,89.27502380717884L209.63777777777779,40.545369321649716L209.70222222222225,90.13523041118275L209.76666666666668,5.278985543684518L210.0888888888889,115.85906930403277L210.15333333333334,35.362891543995254L210.4111111111111,53.24176467548717L210.60444444444445,109.43796521967107L210.79777777777778,115.45584362203425L210.92666666666668,65.26558269153942L211.05555555555554,71.55423987995495L211.18444444444444,111.95433347875422L211.2488888888889,59.05650719729337L211.31333333333333,95.81631374359131L211.63555555555556,-13.193757924166608L211.7,35.265447703274816L212.47333333333333,143.80395256389272L212.60222222222222,48.31893253326416L213.05333333333334,113.0235072482716L213.44,130.82849953391334L213.50444444444443,64.78499273820356L214.21333333333334,120.59922109950672L214.2777777777778,104.95280170440674L214.85777777777778,144.13214648853648L214.98666666666665,119.44826355847447L215.11555555555555,113.84802792289041L215.3088888888889,17.461353128606632L215.5022222222222,75.2033198963512L215.69555555555556,89.43713352896951L215.95333333333335,89.46756362915039L216.01777777777778,97.68319962241434L216.34,74.15227681940253L216.4688888888889,70.33008436723188L216.5977777777778,115.96923455325039L216.6622222222222,147.47442418878728L216.92,59.636259685863145L217.04888888888888,108.4058124368841L217.2422222222222,75.90031190352008L217.7577777777778,77.31992288069293L217.88666666666666,55.85384273529053L217.95111111111112,142.319430177862L218.08,9.860012314536352L218.4022222222222,111.32325033708051L218.5311111111111,20.61518825184215L218.66,129.70856289430097L218.7888888888889,112.72501451318914L219.30444444444444,48.595903223211124L219.82,82.41646593267266L219.88444444444445,93.56233796206386L220.01333333333335,95.83988441120495L220.07777777777775,71.21432200345126L220.2711111111111,152.0964157364585L220.4,110.31591120633213L220.46444444444444,139.20187945799395L220.65777777777777,78.49009297110818L221.04444444444445,-3.0744068839333236L221.3022222222222,57.81680670651522L221.36666666666665,111.19583676078103L222.2688888888889,126.59105821089312L222.4622222222222,71.25615380027078L222.65555555555557,68.78126439181241L222.8488888888889,113.61325732144444L223.10666666666665,42.96277453682639L223.3,42.987327315590605L223.36444444444444,84.23335621573709L223.4288888888889,76.990102334456L223.81555555555556,100.87148536335339L224.13777777777776,51.925060532309786L224.20222222222222,93.32233454964377L224.26666666666665,90.99471577731045L224.52444444444444,95.77288601615213L224.6533333333333,109.85781773653896L224.71777777777777,108.13364488428289L225.10444444444445,114.29851770401001L225.29777777777775,66.36679016460072L225.42666666666668,91.10713681307705L225.4911111111111,37.85093203457919L225.62,-19.295660539106883L225.68444444444447,-2.263658783652562L225.81333333333333,36.200816501270644L226.00666666666666,62.194229559464894L226.20000000000002,72.21576846729626L226.71555555555557,33.2684781334617L226.78,131.66637078198522L227.10222222222222,8.04192508350719L227.36,66.64308565313165L227.42444444444445,32.67973318966952L227.74666666666667,41.9775482524525L228.58444444444447,34.84528827667236L228.64888888888888,115.77141588384455L228.7133333333333,35.49042788418856L228.77777777777777,52.858664599331945L229.35777777777778,20.54195958917792L229.80888888888887,47.937320969321505L230.00222222222223,64.1605848832564L230.32444444444445,96.70243887467817L230.51777777777778,-46.62855044278233L230.90444444444447,-4.809152776544755L230.96888888888887,10.004137125882242L231.03333333333333,79.01349683241412L231.35555555555555,72.16778313029896L231.61333333333332,35.50152267109264L231.7422222222222,123.85199624841863L231.93555555555557,57.51684847745028L232.19333333333333,81.4109682603316L232.25777777777776,82.54642685976896L232.32222222222222,43.393967368386015L232.45111111111112,85.58205569874157L232.70888888888888,84.28764854777943L232.7733333333333,79.20774000341241L232.90222222222224,118.47987127304077L232.96666666666667,99.2473497390747L233.22444444444443,74.95189944180575L233.2888888888889,115.60734961249612L233.35333333333332,116.69631905989215L233.67555555555558,40.313176761973985L233.80444444444444,-46.83080395785244L234.4488888888889,119.6499032540755L234.51333333333332,84.5656320398504L234.7711111111111,88.23607297377154L234.9,120.50616606799038L235.22222222222223,41.29696057059549L235.35111111111112,75.57882395657626L235.54444444444442,53.935933113098145L235.67333333333332,85.80884664708917L236.31777777777776,93.55356034365566L236.51111111111112,79.98509632457386L236.70444444444442,29.395691611550074L237.02666666666667,50.814553694291554L237.22,112.3008652600375L237.60666666666668,122.89804406599566L237.79999999999998,109.89991040663287L237.92888888888888,-22.068006862293572L238.25111111111113,91.27216217734598L238.38,89.07022294131191L238.63777777777779,-28.93416075272993L238.70222222222222,56.254099065607235L239.21777777777777,26.720190655101426L239.47555555555556,30.66253826834939L239.54,67.71697815981778L239.73333333333332,-51.11388275840066L239.86222222222221,52.41254060918634L239.99111111111114,140.89250707626343L240.31333333333333,94.94042405215176L240.57111111111112,31.60874097997491L240.82888888888888,44.14095497131348L241.08666666666667,116.1975753957575L241.21555555555554,47.31019696322355L241.60222222222222,48.41416662389581L242.37555555555554,-65.22114216197619L242.50444444444443,-138.59877881136805L242.63333333333333,48.07352750951593L242.82666666666668,29.551187428561118L243.01999999999998,80.23154484141956L243.21333333333334,111.5658471367576L243.27777777777777,9.56761941042814L243.6,75.7984639081088L244.11555555555555,96.7647262053056L244.50222222222223,-23.200381018898707L244.69555555555556,50.83976632898505L244.76,108.85331752083518L245.27555555555554,108.40278937599875L245.7911111111111,83.45541676607999L246.3711111111111,86.76643570986661L246.6288888888889,75.83823940970682L247.07999999999998,48.86741091988303L247.46666666666667,80.12101130052045L247.59555555555553,73.38211753151633L247.7888888888889,91.26243313876064L247.9177777777778,77.34389253096148L248.30444444444444,85.38666161623868L248.43333333333334,65.74643351814963L248.4977777777778,75.22943791476163L248.88444444444445,53.96103832938455L249.01333333333335,59.839004256508574L249.07777777777778,146.66727460514414L249.14222222222224,17.933318918401554L249.4,63.67160094868053L249.46444444444444,5.6239827762950565L249.5288888888889,24.473411906849257L249.6577777777778,98.25910039381549L249.8511111111111,12.526045105674047L249.98,89.03546541387385L250.30222222222224,46.69287872314453L250.36666666666665,76.57589695670389L250.56,-6.093017578125L250.88222222222223,44.840478983792394L250.94666666666666,70.4045253233476L251.07555555555555,107.11798849972813L251.14,46.17412454431708L251.46222222222224,107.49844915216619L251.5911111111111,34.216061938892715L251.78444444444443,57.78708249872382L251.8488888888889,119.5400218963623L251.91333333333336,114.01705078645185L252.10666666666665,102.26077365875244L252.3,-13.848733988675189L252.49333333333334,84.7870213768699L252.7511111111111,118.50061837109654L253.0088888888889,80.19689473238859L253.13777777777779,8.18908830122515L253.46,59.56183407523416L253.52444444444444,113.65732188658282L253.65333333333334,96.90578191930598L253.84666666666666,150.4773134318265L254.1688888888889,65.07732426036488L254.29777777777778,91.75374958731912L254.81333333333333,83.96906089782715L254.8777777777778,5.399493650956595L255.13555555555556,61.0679782520641L255.26444444444445,125.68166932192715L255.58666666666664,99.4457515369762L255.71555555555557,36.613533366810195L255.84444444444446,65.6782074841586L255.97333333333336,103.82460152019154L256.1666666666667,0.21638670834627483L256.4888888888889,46.77997970581055L256.55333333333334,46.9518645026467L256.61777777777775,93.12256700342351L256.6822222222222,69.87306508150968L256.74666666666667,100.18115329742432L256.81111111111113,21.898377852006398L257.0688888888889,95.5820341977206L257.1977777777778,129.86453442140058L257.32666666666665,128.66309022903442L257.52,91.70755967226894L257.71333333333337,132.2184476852417" style="fill: none;" fill="none"></path></g></g></g></g></g></g><g transform="translate(40, 177)" clip-path="url(#clip_1)"><clipPath id="clip_1"><rect width="290" height="23"></rect></clipPath><g><g><line x1="0" y1="0" x2="0" y2="5" style="visibility: inherit;" fill="rgb(0, 0, 0)" stroke="rgb(204, 204, 204)" stroke-width="1px"></line><line x1="32.22222222222222" y1="0" x2="32.22222222222222" y2="5" style="visibility: inherit;" fill="rgb(0, 0, 0)" stroke="rgb(204, 204, 204)" stroke-width="1px"></line><line x1="64.44444444444444" y1="0" x2="64.44444444444444" y2="5" style="visibility: inherit;" fill="rgb(0, 0, 0)" stroke="rgb(204, 204, 204)" stroke-width="1px"></line><line x1="96.66666666666666" y1="0" x2="96.66666666666666" y2="5" style="visibility: inherit;" fill="rgb(0, 0, 0)" stroke="rgb(204, 204, 204)" stroke-width="1px"></line><line x1="128.88888888888889" y1="0" x2="128.88888888888889" y2="5" style="visibility: inherit;" fill="rgb(0, 0, 0)" stroke="rgb(204, 204, 204)" stroke-width="1px"></line><line x1="161.11111111111111" y1="0" x2="161.11111111111111" y2="5" style="visibility: inherit;" fill="rgb(0, 0, 0)" stroke="rgb(204, 204, 204)" stroke-width="1px"></line><line x1="193.33333333333331" y1="0" x2="193.33333333333331" y2="5" style="visibility: inherit;" fill="rgb(0, 0, 0)" stroke="rgb(204, 204, 204)" stroke-width="1px"></line><line x1="225.55555555555557" y1="0" x2="225.55555555555557" y2="5" style="visibility: inherit;" fill="rgb(0, 0, 0)" stroke="rgb(204, 204, 204)" stroke-width="1px"></line><line x1="257.77777777777777" y1="0" x2="257.77777777777777" y2="5" style="visibility: inherit;" fill="rgb(0, 0, 0)" stroke="rgb(204, 204, 204)" stroke-width="1px"></line><line x1="290" y1="0" x2="290" y2="5" style="visibility: inherit;" fill="rgb(0, 0, 0)" stroke="rgb(204, 204, 204)" stroke-width="1px"></line></g><g transform="translate(0, 8)"><text x="0" y="0" dx="0em" dy="0.95em" style="text-anchor: middle; visibility: hidden; font-family: Roboto, sans-serif; font-size: 12px; font-weight: 200;" fill="rgb(33, 33, 33)" stroke="none" stroke-width="1px">-500</text><text x="32.22222222222222" y="0" dx="0em" dy="0.95em" style="text-anchor: middle; visibility: inherit; font-family: Roboto, sans-serif; font-size: 12px; font-weight: 200;" fill="rgb(33, 33, 33)" stroke="none" stroke-width="1px">0</text><text x="64.44444444444444" y="0" dx="0em" dy="0.95em" style="text-anchor: middle; visibility: inherit; font-family: Roboto, sans-serif; font-size: 12px; font-weight: 200;" fill="rgb(33, 33, 33)" stroke="none" stroke-width="1px">500</text><text x="96.66666666666666" y="0" dx="0em" dy="0.95em" style="text-anchor: middle; visibility: inherit; font-family: Roboto, sans-serif; font-size: 12px; font-weight: 200;" fill="rgb(33, 33, 33)" stroke="none" stroke-width="1px">1k</text><text x="128.88888888888889" y="0" dx="0em" dy="0.95em" style="text-anchor: middle; visibility: inherit; font-family: Roboto, sans-serif; font-size: 12px; font-weight: 200;" fill="rgb(33, 33, 33)" stroke="none" stroke-width="1px">1.5k</text><text x="161.11111111111111" y="0" dx="0em" dy="0.95em" style="text-anchor: middle; visibility: inherit; font-family: Roboto, sans-serif; font-size: 12px; font-weight: 200;" fill="rgb(33, 33, 33)" stroke="none" stroke-width="1px">2k</text><text x="193.33333333333331" y="0" dx="0em" dy="0.95em" style="text-anchor: middle; visibility: inherit; font-family: Roboto, sans-serif; font-size: 12px; font-weight: 200;" fill="rgb(33, 33, 33)" stroke="none" stroke-width="1px">2.5k</text><text x="225.55555555555557" y="0" dx="0em" dy="0.95em" style="text-anchor: middle; visibility: inherit; font-family: Roboto, sans-serif; font-size: 12px; font-weight: 200;" fill="rgb(33, 33, 33)" stroke="none" stroke-width="1px">3k</text><text x="257.77777777777777" y="0" dx="0em" dy="0.95em" style="text-anchor: middle; visibility: inherit; font-family: Roboto, sans-serif; font-size: 12px; font-weight: 200;" fill="rgb(33, 33, 33)" stroke="none" stroke-width="1px">3.5k</text><text x="290" y="0" dx="0em" dy="0.95em" style="text-anchor: middle; visibility: hidden; font-family: Roboto, sans-serif; font-size: 12px; font-weight: 200;" fill="rgb(33, 33, 33)" stroke="none" stroke-width="1px">4k</text></g><line x1="0" y1="0" x2="290" y2="0" fill="rgb(0, 0, 0)" stroke="rgb(204, 204, 204)" stroke-width="1px"></line></g></g></g></g></svg>