<svg viewBox="0 0 330 200" xmlns="http://www.w3.org/2000/svg"><g><g><g><g><g><line x1="30" y1="177" x2="25" y2="177" style="visibility: inherit;" fill="rgb(0, 0, 0)" stroke="rgb(204, 204, 204)" stroke-width="1px"></line><line x1="30" y1="154.875" x2="25" y2="154.875" style="visibility: inherit;" fill="rgb(0, 0, 0)" stroke="rgb(204, 204, 204)" stroke-width="1px"></line><line x1="30" y1="132.75" x2="25" y2="132.75" style="visibility: inherit;" fill="rgb(0, 0, 0)" stroke="rgb(204, 204, 204)" stroke-width="1px"></line><line x1="30" y1="110.625" x2="25" y2="110.625" style="visibility: inherit;" fill="rgb(0, 0, 0)" stroke="rgb(204, 204, 204)" stroke-width="1px"></line><line x1="30" y1="88.5" x2="25" y2="88.5" style="visibility: inherit;" fill="rgb(0, 0, 0)" stroke="rgb(204, 204, 204)" stroke-width="1px"></line><line x1="30" y1="66.375" x2="25" y2="66.375" style="visibility: inherit;" fill="rgb(0, 0, 0)" stroke="rgb(204, 204, 204)" stroke-width="1px"></line><line x1="30" y1="44.25" x2="25" y2="44.25" style="visibility: inherit;" fill="rgb(0, 0, 0)" stroke="rgb(204, 204, 204)" stroke-width="1px"></line><line x1="30" y1="22.125" x2="25" y2="22.125" style="visibility: inherit;" fill="rgb(0, 0, 0)" stroke="rgb(204, 204, 204)" stroke-width="1px"></line><line x1="30" y1="0" x2="25" y2="0" style="visibility: inherit;" fill="rgb(0, 0, 0)" stroke="rgb(204, 204, 204)" stroke-width="1px"></line></g><g transform="translate(20, 0)"><text x="0" y="177" dx="0em" dy="0.3em" style="text-anchor: end; visibility: hidden; font-family: Roboto, sans-serif; font-size: 12px; font-weight: 200;" fill="rgb(33, 33, 33)" stroke="none" stroke-width="1px">5</text><text x="0" y="154.875" dx="0em" dy="0.3em" style="text-anchor: end; visibility: inherit; font-family: Roboto, sans-serif; font-size: 12px; font-weight: 200;" fill="rgb(33, 33, 33)" stroke="none" stroke-width="1px">10</text><text x="0" y="132.75" dx="0em" dy="0.3em" style="text-anchor: end; visibility: hidden; font-family: Roboto, sans-serif; font-size: 12px; font-weight: 200;" fill="rgb(33, 33, 33)" stroke="none" stroke-width="1px">15</text><text x="0" y="110.625" dx="0em" dy="0.3em" style="text-anchor: end; visibility: inherit; font-family: Roboto, sans-serif; font-size: 12px; font-weight: 200;" fill="rgb(33, 33, 33)" stroke="none" stroke-width="1px">20</text><text x="0" y="88.5" dx="0em" dy="0.3em" style="text-anchor: end; visibility: hidden; font-family: Roboto, sans-serif; font-size: 12px; font-weight: 200;" fill="rgb(33, 33, 33)" stroke="none" stroke-width="1px">25</text><text x="0" y="66.375" dx="0em" dy="0.3em" style="text-anchor: end; visibility: inherit; font-family: Roboto, sans-serif; font-size: 12px; font-weight: 200;" fill="rgb(33, 33, 33)" stroke="none" stroke-width="1px">30</text><text x="0" y="44.25" dx="0em" dy="0.3em" style="text-anchor: end; visibility: hidden; font-family: Roboto, sans-serif; font-size: 12px; font-weight: 200;" fill="rgb(33, 33, 33)" stroke="none" stroke-width="1px">35</text><text x="0" y="22.125" dx="0em" dy="0.3em" style="text-anchor: end; visibility: inherit; font-family: Roboto, sans-serif; font-size: 12px; font-weight: 200;" fill="rgb(33, 33, 33)" stroke="none" stroke-width="1px">40</text><text x="0" y="0" dx="0em" dy="0.3em" style="text-anchor: end; visibility: hidden; font-family: Roboto, sans-serif; font-size: 12px; font-weight: 200;" fill="rgb(33, 33, 33)" stroke="none" stroke-width="1px">45</text></g><line x1="30" y1="0" x2="30" y2="177" fill="rgb(0, 0, 0)" stroke="rgb(204, 204, 204)" stroke-width="1px"></line></g></g><g transform="translate(30, 0)" clip-path="url(#clip_0)"><clipPath id="clip_0"><rect width="300" height="177"></rect></clipPath><g><g><g><line x1="0" y1="0" x2="0" y2="177" fill="rgb(0, 0, 0)" stroke="rgb(66, 66, 66)" stroke-width="1px" opacity="0.25"></line><line x1="33.33333333333333" y1="0" x2="33.33333333333333" y2="177" fill="rgb(0, 0, 0)" stroke="rgb(66, 66, 66)" stroke-width="1px" opacity="0.25"></line><line x1="66.66666666666666" y1="0" x2="66.66666666666666" y2="177" fill="rgb(0, 0, 0)" stroke="rgb(66, 66, 66)" stroke-width="1px" opacity="0.25"></line><line x1="100" y1="0" x2="100" y2="177" fill="rgb(0, 0, 0)" stroke="rgb(66, 66, 66)" stroke-width="1px" opacity="0.25"></line><line x1="133.33333333333331" y1="0" x2="133.33333333333331" y2="177" fill="rgb(0, 0, 0)" stroke="rgb(66, 66, 66)" stroke-width="1px" opacity="0.25"></line><line x1="166.66666666666669" y1="0" x2="166.66666666666669" y2="177" fill="rgb(0, 0, 0)" stroke="rgb(66, 66, 66)" stroke-width="1px" opacity="0.25"></line><line x1="200" y1="0" x2="200" y2="177" fill="rgb(0, 0, 0)" stroke="rgb(66, 66, 66)" stroke-width="1px" opacity="0.25"></line><line x1="233.33333333333334" y1="0" x2="233.33333333333334" y2="177" fill="rgb(0, 0, 0)" stroke="rgb(66, 66, 66)" stroke-width="1px" opacity="0.25"></line><line x1="266.66666666666663" y1="0" x2="266.66666666666663" y2="177" fill="rgb(0, 0, 0)" stroke="rgb(66, 66, 66)" stroke-width="1px" opacity="0.25"></line><line x1="300" y1="0" x2="300" y2="177" fill="rgb(0, 0, 0)" stroke="rgb(66, 66, 66)" stroke-width="1px" opacity="0.25"></line></g><g><line x1="0" y1="177" x2="300" y2="177" fill="rgb(0, 0, 0)" stroke="rgb(66, 66, 66)" stroke-width="1px" opacity="0.25"></line><line x1="0" y1="154.875" x2="300" y2="154.875" fill="rgb(0, 0, 0)" stroke="rgb(66, 66, 66)" stroke-width="1px" opacity="0.25"></line><line x1="0" y1="132.75" x2="300" y2="132.75" fill="rgb(0, 0, 0)" stroke="rgb(66, 66, 66)" stroke-width="1px" opacity="0.25"></line><line x1="0" y1="110.625" x2="300" y2="110.625" fill="rgb(0, 0, 0)" stroke="rgb(66, 66, 66)" stroke-width="1px" opacity="0.25"></line><line x1="0" y1="88.5" x2="300" y2="88.5" fill="rgb(0, 0, 0)" stroke="rgb(66, 66, 66)" stroke-width="1px" opacity="0.25"></line><line x1="0" y1="66.375" x2="300" y2="66.375" fill="rgb(0, 0, 0)" stroke="rgb(66, 66, 66)" stroke-width="1px" opacity="0.25"></line><line x1="0" y1="44.25" x2="300" y2="44.25" fill="rgb(0, 0, 0)" stroke="rgb(66, 66, 66)" stroke-width="1px" opacity="0.25"></line><line x1="0" y1="22.125" x2="300" y2="22.125" fill="rgb(0, 0, 0)" stroke="rgb(66, 66, 66)" stroke-width="1px" opacity="0.25"></line><line x1="0" y1="0" x2="300" y2="0" fill="rgb(0, 0, 0)" stroke="rgb(66, 66, 66)" stroke-width="1px" opacity="0.25"></line></g></g></g><g><g><line x1="0" y1="199.125" x2="300" y2="199.125" fill="rgb(0, 0, 0)" stroke="rgb(153, 153, 153)" stroke-width="1.5px"></line></g></g><g><g><line x1="33.33333333333333" y1="0" x2="33.33333333333333" y2="177" fill="rgb(0, 0, 0)" stroke="rgb(153, 153, 153)" stroke-width="1.5px"></line></g></g><g><g><g><g><g><path stroke="rgb(255, 112, 67)" stroke-width="2px" d="M33.6,146.26382718086242L34.266666666666666,93.53366664648055L34.333333333333336,73.49319449054953L34.53333333333333,54.27147228472373L34.6,40.382057942821305L34.666666666666664,29.504840693886127L34.800000000000004,16.973716768037583L35.06666666666667,0.40704424961712693L35.13333333333333,-11.183963343025427L44.733333333333334,-0.6369993821871982L44.800000000000004,3.610570184245885L45.13333333333333,5.497914185443187L45.6,8.38932830710838L45.66666666666667,9.67392546784791L45.733333333333334,10.457012942147246L46,12.642410432525468L46.06666666666667,12.453067795770126L46.13333333333334,12.165672121248681L46.599999999999994,13.46121037113799L46.8,16.44860259597395L46.86666666666667,18.709972066312474L46.93333333333333,18.15301635898914L47,17.392784089075125L47.13333333333333,18.62037424220242L47.4,21.088698429903975L47.53333333333333,21.578747088337877L47.666666666666664,20.95095755018288L47.93333333333333,22.764947813495997L48,23.588487464037534L48.06666666666666,25.903339136747697L48.266666666666666,26.8173674804617L48.6,25.84583182708317L49.266666666666666,29.992817890500373L49.6,34.204515159043915L49.66666666666667,32.01338132137847L49.733333333333334,30.90725048014399L50.53333333333334,34.10087612884566L50.599999999999994,32.65726952801541L50.66666666666667,35.35623656422136L51.4,38.95457812017344L51.599999999999994,38.69505209366167L51.733333333333334,40.492586142061256L51.86666666666667,44.654656909846125L52.13333333333333,45.658205293978966L52.333333333333336,46.55765926800117L52.53333333333333,45.19929320789543L52.666666666666664,44.74584393010836L53,46.95652373019636L53.13333333333333,46.52077069868912L53.2,47.24491038674279L53.733333333333334,46.65189294072487L53.86666666666667,46.37702561886606L54.13333333333333,48.36536980552377L54.400000000000006,47.68376061012089L54.53333333333334,47.722926272688724L54.6,49.13400509222653L54.800000000000004,50.47211123862449L55.8,49.00747301911461L55.86666666666667,51.07047513684719L56.199999999999996,50.40625427461321L56.33333333333333,51.7796393292943L56.4,51.19603070603604L56.8,48.88004361740826L56.93333333333333,49.72771100015686L57.2,51.26675656682997L57.46666666666667,52.084069252292814L57.53333333333333,54.19180057542356L57.6,56.126492374520474L57.666666666666664,57.53832370840368L57.733333333333334,57.19398909808907L57.800000000000004,58.503910968313896L58.53333333333334,61.49313071108478L59.06666666666667,68.6097108241118L59.333333333333336,69.97465881563407L59.46666666666666,71.47225904975642L59.599999999999994,73.73206913300936L59.8,75.39243050949923L60.13333333333333,78.15740834079475L60.266666666666666,80.74744715215142L60.6,84.23421086026057L60.93333333333333,85.45377381535067L61,86.35730983669575L61.4,89.33283372077355L61.46666666666667,89.78844351859695L61.733333333333334,90.41688094193819L62,93.29432227167536L62.333333333333336,94.0882292577806L62.4,94.97219929630654L62.46666666666667,96.23460093459543L62.6,97.32123636794721L62.86666666666667,99.53261217828177L62.93333333333334,98.41748734328496L63.06666666666667,101.21436310299246L63.333333333333336,100.63221805863387L63.46666666666667,99.47752039893156L63.733333333333334,101.22833675184063L64.06666666666666,101.25724344514734L64.33333333333333,103.90141130604103L64.4,106.43277538012123L64.53333333333333,108.27339819544943L64.66666666666667,111.03072234317297L64.93333333333334,110.57528458311937L65,108.66702507421243L65.33333333333333,110.63864718487781L65.4,113.70689421302627L65.8,114.27056053523155L65.93333333333332,115.43599684741457L66.26666666666667,114.5443085462234L66.53333333333333,113.59078209581267L67.26666666666667,115.54221463788922L67.33333333333333,114.91530650490151L67.39999999999999,115.09907915135399L67.46666666666667,115.11081734860046L67.53333333333333,113.88630638816419L67.6,114.0385849040655L67.8,115.10792387258456L67.86666666666666,114.59420699078707L67.93333333333334,113.4489161622457L68.86666666666667,112.74870352577759L68.93333333333334,114.11825131315942L69.06666666666666,113.25891414009904L69.13333333333334,114.96490004732236L69.2,113.48801818772567L69.33333333333333,114.80697198441275L69.46666666666667,111.70494046527534L69.60000000000001,111.84090995024675L69.73333333333333,115.15311772841831L70,115.23175602447164L70.13333333333334,115.10670862490637L70.4,113.59788322624387L70.8,113.22504169569507L70.93333333333334,110.7758155180579L71.2,112.75358140907082L71.39999999999999,114.19675333763L71.53333333333333,112.39885186830067L72.26666666666667,114.3035559635097L72.33333333333333,113.3488584697684L72.53333333333333,114.51241494300606L72.66666666666667,113.29297680546429L72.73333333333333,116.17546791845315L72.93333333333334,116.69869162448498L73.06666666666666,114.57616153841168L73.53333333333333,116.12775035551161L73.86666666666667,115.68102605254037L74.2,114.59555212444415L74.26666666666667,114.21618825785131L74.4,113.03605992431528L74.8,112.52747793456965L74.86666666666667,111.51187843478353L75.06666666666668,110.63738064287084L75.19999999999999,109.9154016179918L75.26666666666667,109.26612611788983L75.53333333333333,111.77761771785305L75.8,112.17113592688492L76.13333333333333,112.698900103952L76.2,110.78316042446227L76.26666666666667,111.40278821482141L76.60000000000001,111.02903449352907L76.73333333333333,110.91598455796435L77,108.57580474310991L77.2,108.17107935007738L77.33333333333333,107.40174905810552L77.80000000000001,108.8028459093201L78,109.24759629376098L78.33333333333334,110.0764065349541L78.39999999999999,109.15117833640825L78.66666666666667,110.49894468800218L78.93333333333334,110.56810365209573L79.46666666666667,110.65035081201549L79.6,110.77367417510604L79.73333333333333,111.34861362753065L79.80000000000001,110.21587536798567L79.93333333333332,111.65294833938272L80.13333333333334,112.53356435275073L80.66666666666667,114.12529179081915L81,117.31424901858328L81.13333333333333,119.23593170866585L81.33333333333334,118.79845037117727L81.39999999999999,119.99515622887093L81.53333333333333,121.218787443835L81.66666666666666,120.79076560747532L81.73333333333333,120.43985306031651L81.86666666666667,122.3329765677878L81.93333333333334,123.95607939007454L82.06666666666666,123.16489706184015L82.13333333333334,124.38249561396565L82.2,125.9594602323015L82.53333333333333,125.56130285599467L82.80000000000001,129.15043247424742L82.93333333333334,129.22071300436963L83.73333333333332,131.06525216633025L84.26666666666668,131.33096841176717L84.33333333333333,131.47263023376684L84.6,131.3237915725721L84.8,133.312510197831L85,134.87374302475024L85.06666666666666,133.732079410126L85.19999999999999,134.54723193143022L85.26666666666667,135.06520518478283L85.33333333333333,132.88085995207146L85.46666666666667,133.6834019880886L85.86666666666666,135.62792831786842L86.93333333333334,134.65012001829368L87,133.79780911348476L87.06666666666666,133.94431013430486L87.13333333333334,134.10934575656253L87.33333333333333,133.6825422111702L87.86666666666666,133.07293137452317L87.93333333333334,132.60493937815016L88.53333333333333,134.04642600825304L88.8,136.13872444040103L88.86666666666666,134.79198696259573L89,134.5319463851685L89.06666666666666,133.43602985159367L89.26666666666667,132.84164839992408L89.33333333333333,133.40816840892722L89.53333333333333,131.62275566915088L89.66666666666666,132.27549811279425L90.06666666666666,131.7754422049263L90.46666666666667,130.91577471855516L90.66666666666667,130.44698174931546L90.8,130.21907388769353L91.06666666666668,131.21876236201982L91.33333333333334,131.0528362727264L91.39999999999999,131.4390120778143L92.26666666666668,130.78705445967077L92.4,129.8912495424864L92.66666666666666,128.3102107316564L92.80000000000001,128.2234550446457L93,126.99891437352814L93.13333333333334,126.18539058960151L93.19999999999999,127.19465361950797L93.4,124.97588780235054L93.46666666666665,125.92851735777141L93.8,126.8104007817893L93.86666666666666,126.27881979570321L94,123.68198469892461L94.06666666666666,125.2922426534612L94.53333333333333,126.48504566150422L94.60000000000001,127.05338838933416L94.73333333333333,124.04831862472598L95.2,123.06541691793863L95.33333333333333,122.5752208386294L95.4,121.17720289197158L95.46666666666667,121.14032884577864L95.93333333333334,122.05073522174331L96.13333333333333,120.71436220314486L96.33333333333334,120.27488185588349L96.60000000000001,121.17198979391948L96.8,120.72982834061561L96.99999999999999,121.16134270596851L97.33333333333333,118.01554818492143L97.53333333333333,118.63038480008251L97.66666666666666,120.1560958512104L97.8,121.06800468250967L97.86666666666667,119.5854945247463L98.53333333333333,119.99843170553991L98.6,122.33111808246701L98.8,121.01639320818381L99.06666666666666,119.01262448768495L99.33333333333334,118.00201917732166L99.46666666666667,116.34973861363179L99.60000000000001,117.41250853530553L99.73333333333333,117.94608143801682L99.93333333333334,117.0283851756763L100.13333333333334,116.53701971853444L100.2,115.34505357077522L100.26666666666667,114.96974326688529L100.4,115.80822550725031L100.73333333333333,115.57625007790976L100.86666666666666,114.23350141622217L101,116.9554352651691L101.46666666666665,117.80567590061757L101.73333333333332,116.07718998708684L101.86666666666666,116.07672504495595L102.33333333333333,113.79060907787691L102.39999999999999,112.47987980143195L102.46666666666667,111.73124001083355L102.86666666666667,112.88141585861193L103.06666666666666,112.15776101037589L103.73333333333333,110.78230356743768L103.86666666666666,112.52406723720334L104,110.8028117336184L104.13333333333333,110.39309716208876L104.46666666666667,111.78010800352156L104.60000000000001,109.5289869861034L104.66666666666667,108.48866057850289L104.73333333333333,107.88814404760222L104.8,107.1184156224395L104.86666666666667,106.75531664641292L105.13333333333334,103.73238699407334L105.33333333333333,105.69994281274649L105.66666666666666,104.31523082818134L105.73333333333333,104.12254662373985L105.80000000000001,104.07835553085401L106.06666666666668,104.5593020033574L106.53333333333333,104.78378652046536L106.8,102.75675912922868L106.86666666666666,102.78261621133238L106.93333333333334,101.964033895348L107.13333333333333,100.60064918852717L107.26666666666667,100.29288833056016L107.39999999999999,101.08292219587638L107.46666666666667,102.08952451198384L107.60000000000001,102.44415089874914L108.06666666666666,100.7922499882546L108.13333333333334,99.42903970166246L108.33333333333333,98.60569166233661L108.4,97.94500599319053L108.53333333333333,99.40514190920779L108.6,98.51280005412454L108.80000000000001,99.09778703473303L108.93333333333334,98.9290733171838L109.26666666666667,98.3132707115017L109.73333333333332,98.28164305663125L110.06666666666666,97.16926892266282L110.13333333333334,97.67732959548L110.8,95.60088927721597L110.93333333333332,97.23272001728783L111.13333333333334,95.08721250048501L111.6,94.61603069395554L111.73333333333333,95.93615524346075L111.8,94.7872993586924L111.86666666666666,97.21438471546568L112.13333333333333,95.44343986553429L112.26666666666667,93.63931274439382L112.60000000000001,95.31640829101497L112.86666666666667,93.76608297738606L112.93333333333334,91.80348794408543L113.13333333333334,93.04895197360459L113.66666666666667,92.96110751991715L113.73333333333333,93.235988318713L113.80000000000001,91.97489140736549L114.26666666666667,91.9922672838419L114.53333333333333,93.94003810468013L114.86666666666666,94.41822274913011L115.00000000000001,97.31115442508231L115.26666666666668,98.79689647432427L116.26666666666667,97.25365992591537L116.4,98.26287226322744L116.6,99.36984474923285L116.66666666666667,99.73943786302848L116.73333333333333,100.78388952064303L116.8,101.43190025596493L116.93333333333334,101.11308886115953L117.06666666666668,101.69218658390763L117.13333333333333,102.92071216930822L117.33333333333334,102.57261342066451L117.39999999999999,103.859919485199L117.8,102.52075586363527L118.06666666666666,104.29715166118653L118.4,106.42480751053638L118.46666666666667,107.1517971955308L118.53333333333335,106.38294891134314L118.80000000000001,107.88147957095751L119,107.56426650386602L119.33333333333334,106.28164845288724L119.53333333333333,106.95580004203875L119.86666666666666,108.97760094731187L119.93333333333334,108.30818280654631L120.13333333333333,108.68193998025347L120.39999999999999,110.12826495937401L120.66666666666666,108.45410891992981L121,107.96880129708728L121.33333333333333,106.36336079915691L121.46666666666667,106.84636105346878L121.66666666666667,107.85132779388545L121.73333333333333,106.93146869247506L122.33333333333334,107.42320193234296L122.99999999999999,108.81938060154445L123.2,107.3311573411818L123.6,105.64967928324914L124,106.40874996420607L124.26666666666667,107.24218700550118L124.33333333333333,107.69838477028681L124.4,108.49823725255294L124.53333333333333,110.28326919097879L125,110.18849571716297L125.06666666666666,109.20165309054559L125.33333333333334,109.89512763466182L125.73333333333333,110.17916659620847L126,108.72729703490404L126.2,108.81196679058354L126.46666666666667,110.26718083728957L127.8,110.73505337542062L128.06666666666666,110.86948438349822L128.73333333333332,111.38796046652472L129.06666666666666,112.93177822159574L129.2,113.29625065640717L129.26666666666665,113.46280519197053L129.33333333333334,113.43757245081464L129.4,112.76236602984548L129.93333333333334,114.61762070967364L130.33333333333334,115.58487261959081L130.46666666666667,117.75902320401767L130.53333333333333,119.58809779081881L130.66666666666666,117.38194406267488L130.73333333333332,114.89271576545526L131.53333333333333,117.05865567768747L131.6,118.66503790047844L131.73333333333335,120.39624714748311L132.2,121.05105992255359L132.46666666666667,123.45710787354557L132.66666666666669,123.30750437485366L132.93333333333334,123.25794714395516L133.2,123.33605597558208L133.26666666666668,122.69069803084484L133.46666666666667,124.32065087035626L133.93333333333334,124.96667330190738L134,125.4810355706525L134.06666666666666,125.25419120094253L134.20000000000002,124.10444182933017L134.4,124.25283788431075L135.2,124.06741289370291L135.6,124.4556955389561L135.8,125.02599912955654L135.86666666666667,126.79367832943376L136.06666666666666,126.46606329801425L136.53333333333333,126.15637103392329L136.73333333333335,124.74420084758786L136.8,124.85695074918381L137.46666666666667,124.31930625273294L137.66666666666666,123.06411110301914L137.73333333333335,122.7336498435742L137.86666666666667,122.1864526281599L138.13333333333333,121.58583231984638L138.2,122.48197958599962L138.4,121.11101871091984L138.66666666666666,120.08926789616861L139,120.34487078103612L139.66666666666666,119.58848300405259L139.73333333333335,119.35780102984855L139.8,118.59411819801777L140.06666666666666,117.39332535759239L140.2,116.75213855561988L140.73333333333332,119.11522615705356L141.8,117.86237690898434L142.06666666666666,115.99798606665523L142.33333333333334,116.96287796277755L142.46666666666667,115.7918530784783L142.66666666666666,117.13055770890338L142.73333333333335,115.8579074936892L143.06666666666666,118.02009338842544L143.13333333333333,119.36911184970566L143.4,117.75249723067301L143.6,118.24059553307544L143.73333333333332,116.62845811940582L144.13333333333333,119.72493616162153L144.4,121.45650630604273L144.66666666666666,122.60388911611464L144.93333333333334,121.25170145062582L145.13333333333333,119.11151144044386L145.26666666666668,119.10716069422237L145.66666666666669,119.20852113653464L145.73333333333332,119.21560487323548L145.79999999999998,121.7117298291537L145.86666666666667,119.66882412948685L146.2,119.49391355346725L146.26666666666668,120.61349223989896L146.33333333333331,122.5432072099367L146.8,119.74351526834481L146.93333333333334,118.71614385567852L147.13333333333333,119.90849782540053L147.26666666666665,120.29758536287338L147.33333333333334,122.0171663300287L147.4,120.28644310093469L147.46666666666667,119.87423146877616L147.86666666666667,118.61446359821515L148.13333333333333,118.81477923314783L148.2,117.60917687368996L148.33333333333334,119.36302479715711L148.66666666666669,121.03950662023762L149.20000000000002,122.3523321497854L149.26666666666665,122.9084671418915L149.53333333333333,122.5603094912201L149.66666666666666,123.00358182052553L150,122.33907040274013L150.20000000000002,122.13521992871684L150.26666666666668,120.3887734062047L151,120.77804469863005L151.66666666666666,123.39116580843583L151.8,123.52329355931077L152,125.81438656840201L152.26666666666665,123.26905758496211L152.33333333333334,122.97481511662058L152.4,121.96017250197919L152.60000000000002,123.34051342474096L152.79999999999998,123.0757795743148L153.06666666666666,122.09212334227566L153.33333333333331,121.11388122124674L153.46666666666667,121.57333947112086L154.6,122.4185636954899L154.86666666666667,121.09057167752954L155.06666666666666,119.48754546394571L155.13333333333333,121.67604736656322L155.33333333333334,121.24983641249163L155.46666666666667,123.98564035381212L155.73333333333332,122.46313225916226L155.86666666666667,120.14687620455742L156.46666666666667,118.87754812034798L156.73333333333335,119.2622305857708L157.33333333333334,119.35473180696783L157.66666666666666,121.77971349290263L157.73333333333335,121.47584332782776L157.8,122.31278503035756L158.26666666666668,122.21910505828411L158.66666666666666,121.3003407701084L158.86666666666667,120.08906943704064L159.0666666666667,116.25201157036646L159.2,119.87487183632389L159.66666666666669,119.46042280806263L159.93333333333334,119.19359384902215L160.13333333333333,118.40228442983566L160.53333333333333,118.05915967843974L160.6,118.39099497927452L160.66666666666666,116.6846811397864L160.86666666666667,115.60845669412575L161.2,117.17550561132408L161.6,117.2568652564429L161.66666666666666,115.06703724468603L162.33333333333334,113.22448136094125L162.4,113.39473753024883L162.66666666666669,112.27882787734119L162.73333333333332,111.79146155565888L162.79999999999998,112.32905673533624L163,113.26538205832212L163.13333333333335,113.13296891623716L163.33333333333331,114.36725029810655L163.53333333333333,115.08369755664103L163.73333333333335,113.39368328999659L164,110.5732577416371L164.06666666666666,110.56760828572934L164.2,109.0932484393026L164.26666666666668,110.19072004823121L164.4,112.10081375043531L164.4666666666667,112.24951983213984L165.13333333333333,111.1599059529338L165.26666666666665,109.28201096220218L165.4,107.77856559373977L165.79999999999998,107.45153028260493L165.86666666666667,107.95442952210205L166.06666666666666,108.58231835779247L167.8,108.17138869533954L168.06666666666666,106.01406153064978L168.4,104.64099413884885L168.53333333333336,104.13549766739132L168.73333333333332,105.32190004467918L169,105.70561383891079L169.06666666666666,105.12628236966117L169.33333333333331,104.92665387843124L169.53333333333333,103.19227438958927L169.79999999999998,103.62775515194205L170.26666666666668,106.46445424244087L170.33333333333334,104.9620893125849L170.39999999999998,105.23404887945156L171.13333333333333,105.63298807400884L171.2,103.19258182679665L171.33333333333334,102.54105439087779L171.6,102.21374865472932L171.93333333333334,101.92430895388495L172.46666666666667,102.41610001695379L172.60000000000002,104.24517487986222L172.73333333333335,106.29478208245834L173,106.27975520147085L173.13333333333333,106.27831820877314L173.20000000000002,109.6875303806777L173.33333333333331,110.66228614222497L173.53333333333333,111.6821752474993L173.66666666666666,112.87578122653301L173.9333333333333,115.37862566493592L174,116.97445202936315L174.26666666666668,114.45875227612008L174.33333333333334,115.84779655076117L174.6,115.07808901749284L174.66666666666666,116.09393942047495L174.86666666666667,117.10159230523905L174.93333333333334,118.74342507537366L175.13333333333333,120.17010308752155L175.73333333333332,117.3625547876936L175.93333333333334,117.80170981353412L176.6,118.27010957876378L177.26666666666668,118.00128566074095L177.46666666666664,118.97185507564379L177.93333333333334,118.87186518161673L178.4,121.17904976158844L179.13333333333335,120.71238360374872L179.26666666666665,119.35541401845039L179.6,120.33327421749723L179.93333333333334,119.97105889084992L180.06666666666666,118.23331114627752L180.20000000000002,119.05919126616617L180.6,120.36023800341309L180.73333333333335,115.91533374290478L180.93333333333334,117.00681209266669L181.00000000000003,116.279946668747L181.4,117.33833173263248L181.66666666666666,119.22312345593082L182.4,118.70384674125258L182.6,117.06182670625056L182.79999999999998,115.56812725086216L182.93333333333334,115.1316758538437L183.8,115.60650040061189L184.26666666666668,115.01433549732513L184.46666666666667,111.41748908526033L185.0666666666667,110.08872100929217L185.4,109.28524155866978L186.13333333333333,107.87313145787644L186.66666666666666,108.08127610678153L187,108.85224287506745L187.06666666666666,107.02034673212054L187.4,109.3917308206444L187.73333333333332,110.10652481288226L187.93333333333334,109.36772813541L188.26666666666665,109.27364742125454L188.79999999999998,109.34265479186406L189,109.75407634222049L189.33333333333331,106.18658818509304L189.46666666666667,104.85492244306877L189.53333333333333,105.63383157100482L189.6,105.68435495761754L189.73333333333335,106.03410002748801L190.13333333333333,107.18564035630604L190.46666666666664,105.95329383216131L190.6,105.98543857575552L191.4,105.8197506179875L191.53333333333333,104.94388322296537L191.86666666666667,105.42339671768424L192.26666666666665,105.37715019415423L192.6,104.72144133109215L192.73333333333335,105.090801180949L192.86666666666665,104.75542318674931L192.93333333333334,103.94904374511844L193.13333333333333,102.2900651516426L193.20000000000002,102.61260701548508L194.33333333333334,102.15403611023099L195.2,100.50720838641446L195.4,101.84035631618097L195.66666666666669,102.31001081348178L195.73333333333335,100.9694835655732L195.93333333333334,102.10797826724308L196.06666666666666,102.51662934468423L196.13333333333333,99.9845713987722L196.93333333333334,101.29818806021058L197.46666666666667,101.44026119809534L197.6,99.95879134715312L197.66666666666666,97.5366080449862L197.93333333333334,96.90209456484573L198.2,97.25096523881588L198.46666666666667,96.08379840445895L198.93333333333334,95.7953441595577L199,96.70326907965796L199.26666666666668,95.83972943027769L199.53333333333333,94.50985486626595L199.86666666666667,94.73162268233283L200,94.80189639229765L200.2,96.09730534255021L200.33333333333334,94.76779400646396L200.4,95.23080978476827L200.53333333333333,94.37000347187414L200.66666666666666,95.42336972838817L200.86666666666667,92.93938896349775L201.13333333333333,92.89062642390554L201.2,95.97961108765021L201.26666666666665,94.72932716894755L201.4,95.38714757852917L201.53333333333333,95.05334813650349L201.86666666666667,94.0977375272268L202,93.2869332077118L202.06666666666666,92.79384714615418L202.53333333333333,92.02801818759484L202.66666666666669,93.68783964104202L202.86666666666665,91.91451881758421L204.33333333333334,93.238301859093L204.4,93.7834088574602L204.53333333333333,93.38711289946757L205,93.12343122234657L205.13333333333335,92.65173632663914L205.20000000000002,91.1700241873409L205.53333333333333,92.83616499839697L205.6,90.8167640014796L205.66666666666669,91.53697593476228L205.86666666666665,92.72284056345137L205.93333333333334,91.2664631462068L206.13333333333333,90.34683778381172L206.6,90.94267878112689L206.73333333333335,91.50825344787536L206.86666666666667,92.37478538552818L206.99999999999997,91.03070975899634L207.06666666666666,93.57595746016466L207.79999999999998,93.44431175408339L207.86666666666667,93.30738867293344L207.93333333333334,93.64760031801788L208.46666666666667,95.66233391822773L208.53333333333333,96.16441374815344L208.86666666666665,96.77570063231491L208.93333333333334,96.32283563588919L209,97.18619773849761L209.06666666666666,99.10682102957317L209.20000000000002,96.51459884714454L209.26666666666668,98.08091074032409L209.33333333333334,98.52224393488659L209.53333333333333,102.86673571945246L210.26666666666668,106.13108372140536L210.66666666666666,110.20303244262105L210.8,114.81576561730604L211.33333333333331,123.88209789157808L211.4,131.73341287351192L211.46666666666667,135.05602995143258L211.60000000000002,135.78961696377945L212.06666666666666,142.04646225781173L212.26666666666668,142.9090328741725L212.39999999999998,147.27422064117528L212.6,151.40254688246213L212.73333333333335,153.69870343198275L212.86666666666667,155.86105061525043L213.46666666666667,157.72532427402697L213.73333333333332,157.88047564084744L213.86666666666667,161.25533989939342L214,162.50494492455275L214.13333333333333,163.77519961121052L214.2,165.18368560267908L214.46666666666667,164.24041509505165L214.53333333333333,168.42938489840063L214.60000000000002,168.44407422021408L214.93333333333334,168.1916211573802L215.26666666666665,170.7467541199042L215.33333333333331,171.63728015787086L215.6,174.57001080254722L215.9333333333333,175.29723499619965L216,174.47989350321296L216.06666666666666,175.12995359517578L216.13333333333333,176.00621569405462L216.26666666666668,175.24567121178188L216.33333333333334,173.98341398424077L216.86666666666667,174.6094004928241L216.93333333333334,175.82986348981677L217.00000000000003,173.45215428182493L217.33333333333334,174.2013931721986L217.4,177.97092381301766L217.86666666666667,177.1150778273937L218.06666666666666,175.2867529666541L218.20000000000002,174.9319597027372L218.33333333333331,175.13494451651997L218.46666666666667,173.50522410756363L218.53333333333333,172.28423664025078L218.6,172.3197963348127L218.93333333333334,172.8924206036983L219,171.50576790444003L219.8,169.74111634893384L219.93333333333334,169.77290821077327L220.4,165.18035428048313L220.79999999999998,164.97446602535928L220.86666666666667,163.89322822781017L221.6,160.4525698941446L221.66666666666669,159.48644401320794L222.26666666666668,159.49501239829647L222.39999999999998,159.29510151131979L222.53333333333333,159.05322035541553L222.73333333333335,156.7180961250688L222.9333333333333,155.61735624071508L223.13333333333333,154.89193261382908L223.4,154.12641548107823L223.46666666666667,151.65585742348884L223.8,150.43415708753142L223.93333333333334,150.65744828350944L224.0666666666667,148.67228647689583L224.13333333333333,148.37052418601849L224.4,149.15100595600805L224.53333333333333,148.60458713798167L224.73333333333332,147.06961581962372L225.26666666666668,144.69686896000545L225.39999999999998,143.6545762920036L225.46666666666667,145.87558653257219L225.6,145.204323162448L225.9333333333333,146.03201000083183L226.06666666666666,143.75600370519575L226.2,143.5672827479435L226.33333333333334,141.03738783342797L226.86666666666667,139.21398132409547L227.4,139.31339643338856L227.46666666666667,138.89236961090288L227.60000000000002,137.47845265796016L227.66666666666666,136.34828185516733L227.86666666666667,138.10849204706037L228,139.72846198467542L228.06666666666666,139.5259867882021L228.26666666666665,138.9759563955836L228.66666666666669,140.40213197905854L228.9333333333333,142.3352764847221L229,142.00191136850967L229.93333333333334,148.1143351450804L230.13333333333333,153.1140884050872L230.33333333333334,156.0842838268963L230.53333333333336,159.47433332809732L230.79999999999998,160.71589178686693L231,163.05851377275798L231.06666666666666,163.74975931422242L231.13333333333335,165.4310798393269L231.53333333333333,166.7668013040173L231.86666666666665,168.98721722268746L231.93333333333334,169.64817561807445L232,170.61696444333919L232.26666666666668,172.06105652798013L232.39999999999998,172.77710813134192L232.46666666666667,168.93836387782858L232.86666666666667,168.46925386422612L233.06666666666666,170.9785936488732L233.2,169.16090088212636L233.26666666666668,169.749570223833L233.4,169.9530416948467L233.46666666666667,171.54567274945197L233.6,172.3286589282585L233.79999999999998,171.99857243405776L234,171.5264866668403L234.53333333333333,170.24899690141794L234.60000000000002,172.0922763633163L234.93333333333334,173.02323098942227L235.20000000000002,171.58480611303202L235.26666666666668,171.95789137160034L235.6,172.7742781893924L236.46666666666667,169.58729674914568L236.53333333333333,170.0498739772981L236.6,171.26734963738593L236.66666666666666,170.22834143450066L237.26666666666665,169.45241188889864L237.73333333333332,169.40496335438561L237.93333333333334,168.71128748662278L238.26666666666668,167.7953054738462L238.46666666666667,167.57242935135486L238.86666666666667,165.0457071473272L238.9333333333333,163.68096451819366L239,162.23022663152474L239.33333333333334,160.81485415671025L239.6,159.52679532750696L239.73333333333332,157.6502470993057L239.93333333333334,158.55675038475127L240.2,157.1623195789953L240.26666666666665,156.19746735469695L240.33333333333334,155.49752785430073L240.46666666666667,156.79854621926378L240.73333333333332,155.29649199509282L240.79999999999998,155.1175072232703L240.93333333333334,154.7432176804435L241,154.16250221585582L241.26666666666665,153.83100698861688L241.33333333333331,154.10092245145563L241.4,153.8630309546228L241.73333333333335,152.7810436227462L241.86666666666665,153.4630496393765L242.53333333333333,152.41717562980205L242.6,150.92866307441443L242.86666666666667,148.10830281939536L243.00000000000003,147.54632150868434L243.33333333333334,148.50866081559576L243.46666666666667,147.8006361999745L243.66666666666666,146.55536393395872L243.79999999999998,145.12936995072252L244.46666666666667,145.87273322607925L244.66666666666669,144.285140742456L244.86666666666665,143.97573148107236L245.20000000000002,142.3217676049215L245.39999999999998,141.27078010831727L245.8,139.04548171397718L245.99999999999997,138.56406279585764L246.13333333333333,135.39578124631646L246.46666666666667,135.03588190048458L246.6,133.9825625608535L246.86666666666667,135.52827445210048L246.93333333333334,134.91337106431143L247.46666666666667,132.97470558765303L247.73333333333335,131.3104190747903L247.79999999999998,131.13513713365592L248,131.91008288673044L248.13333333333333,132.26023571378872L248.26666666666668,132.05116912297538L248.6,132.49679595811446L248.86666666666667,131.93296535601186L249.13333333333333,129.25107832783442L249.4,125.76553436776389L249.53333333333333,126.11239744103187L249.93333333333334,126.53948310420652L250.73333333333332,123.96561088684643L250.86666666666667,120.51949499203828L251,118.78804875227252L251.20000000000002,119.22085339076781L251.39999999999998,117.80418661026634L251.6,117.36070843451309L251.66666666666669,117.74715980954818L252,118.3533960596791L252.53333333333333,118.7304156456036L252.93333333333334,116.51259407959239L253.13333333333333,116.62853030182038L253.2,115.73344527612394L253.73333333333332,114.01850201445978L254.26666666666665,113.98779434298373L254.86666666666665,113.76933794459639L255.13333333333333,111.57753587985597L255.6,109.9138076378379L256,109.33281478366101L256.1333333333333,108.16359952617195L256.3333333333333,108.94292211728398L256.4666666666667,107.20002439616385L256.8666666666667,107.0226049125091L257,108.29150474666926L257.06666666666666,108.26664011835679L257.46666666666664,110.3995032856442L257.6,108.38645968851908L257.6666666666667,108.20855876217762L257.73333333333335,109.14653710133122L258,107.70615342382364L258.06666666666666,109.16379909469946L258.1333333333333,109.69751781436362L258.26666666666665,109.7738933027539L258.46666666666664,109.82030602102004L258.6,110.52244354608371L258.93333333333334,108.27788570238776L259,108.02552757926958L259.2,109.26571632783518L259.53333333333336,108.0692770752961L259.59999999999997,108.72989798269596L259.73333333333335,108.68781160761074L259.8,108.29644531875346L260.1333333333333,107.74227553170618L260.26666666666665,107.9460220000845L260.4666666666667,107.25547592054019L260.53333333333336,109.17327708369619L260.6,109.46665454367474L260.8,110.52700244223878L261,110.73440089008693L261.2,110.06611298430852L261.46666666666664,110.11787967031535L261.73333333333335,111.58931310263476L261.8666666666667,110.86854279093266L262.2,110.79502780468657L262.26666666666665,110.07780376929875L262.40000000000003,109.45906114494107L262.59999999999997,110.06261060664237L262.93333333333334,110.25819172638165L263.06666666666666,109.39590079174941L263.6,109.45593147388999L263.6666666666667,110.72673122472705L263.93333333333334,110.37838996164288L264.06666666666666,110.87677009530239L264.4,110.24883440749271L264.5333333333333,109.91166342983499L264.6666666666667,109.77209043079527L264.8,110.49434468969054L265,111.41269442215173L265.33333333333337,110.41447486862307L265.40000000000003,110.70643089285352L265.46666666666664,109.64053366464888L265.5333333333333,109.33009862591337L265.59999999999997,108.57989925199455L265.6666666666667,106.81522323878828L265.93333333333334,107.36460561151637L266.06666666666666,108.27324725744327L266.2,108.34611872647525L266.4,110.34963059791518L266.6,110.26758902769443" style="fill: none;" fill="none"></path></g></g></g></g><g opacity="0.2"><g><g><g><path stroke="rgb(255, 112, 67)" stroke-width="2px" d="M33.6,146.26382718086242L34.266666666666666,61.895570325851445L34.333333333333336,54.25434122085572L34.53333333333333,31.6667269706726L34.6,22.24803857803345L34.666666666666664,14.457733440399174L34.800000000000004,-0.9459909439086835L44.13333333333333,-5.1400045394897385L44.266666666666666,0.48236389160155857L44.666666666666664,4.0805459976196365L44.733333333333334,0.6861565589904824L44.800000000000004,9.981924533843994L45.13333333333333,8.328930187225346L45.6,12.726449489593506L45.66666666666667,11.600821208953853L45.733333333333334,11.631644153594962L46,15.920506668090816L46.06666666666667,12.169053840637211L46.13333333333334,11.734578609466553L46.599999999999994,15.404517745971688L46.8,20.929690933227548L46.86666666666667,22.102026271820073L46.93333333333333,17.317582798004146L47,16.2524356842041L47.13333333333333,20.461759471893302L47.4,24.791184711456303L47.53333333333333,22.313820075988765L47.666666666666664,20.009273242950435L47.93333333333333,25.485933208465568L48,24.82379693984985L48.06666666666666,29.375616645812997L48.266666666666666,28.18840999603271L48.6,24.38852834701538L49.266666666666666,36.21329698562623L49.6,40.52206106185913L49.66666666666667,28.726680564880375L49.733333333333334,29.248054218292232L50.53333333333334,38.8913146018982L50.599999999999994,30.491859626770015L50.66666666666667,39.40468711853027L51.4,44.35209045410157L51.599999999999994,38.30576305389405L51.733333333333334,43.18888721466065L51.86666666666667,50.89776306152344L52.13333333333333,47.163527870178214L52.333333333333336,47.906840229034415L52.53333333333333,43.161744117736816L52.666666666666664,44.065670013427734L53,50.27254343032837L53.13333333333333,45.867141151428214L53.2,48.331119918823234L53.733333333333334,45.762366771698L53.86666666666667,45.96472463607789L54.13333333333333,51.347886085510254L54.400000000000006,46.66134681701659L54.53333333333334,47.78167476654052L54.6,51.25062332153321L54.800000000000004,52.479270458221436L55.8,46.81051568984986L55.86666666666667,54.16497831344605L56.199999999999996,49.4099229812622L56.33333333333333,53.83971691131592L56.4,50.32061777114869L56.8,45.406062984466544L56.93333333333333,50.99921207427979L57.2,53.57532491683959L57.46666666666667,53.310038280487056L57.53333333333333,57.353397560119625L57.6,59.02853007316589L57.666666666666664,59.656070709228516L57.733333333333334,56.67748718261719L57.800000000000004,60.468793773651115L58.53333333333334,65.97696032524108L59.06666666666667,79.28458099365234L59.333333333333336,72.02208080291747L59.46666666666666,73.71865940093994L59.599999999999994,77.12178425788879L59.8,77.88297257423402L60.13333333333333,82.30487508773804L60.266666666666666,84.6325053691864L60.6,89.46435642242432L60.93333333333333,87.28311824798584L61,87.71261386871338L61.4,93.79611954689027L61.46666666666667,90.47185821533203L61.733333333333334,91.35953707695008L62,97.61048426628112L62.333333333333336,95.27908973693847L62.4,96.29815435409546L62.46666666666667,98.12820339202881L62.6,98.95118951797485L62.86666666666667,102.84967589378357L62.93333333333334,96.7448000907898L63.06666666666667,105.40967674255371L63.333333333333336,99.75900049209595L63.46666666666667,97.74547390937805L63.733333333333334,103.85456128120423L64.06666666666666,101.30060348510743L64.33333333333333,107.8676630973816L64.4,110.22982149124145L64.53333333333333,111.03433241844176L64.66666666666667,115.16670856475831L64.93333333333334,109.89212794303894L65,105.80463581085205L65.33333333333333,113.59608035087585L65.4,118.30926475524903L65.8,115.11606001853943L65.93333333333332,117.18415131568908L66.26666666666667,113.20677609443665L66.53333333333333,112.16049242019653L67.26666666666667,118.46936345100403L67.33333333333333,113.97494430541992L67.39999999999999,115.3747381210327L67.46666666666667,115.12842464447021L67.53333333333333,112.04953994750976L67.6,114.26700267791749L67.8,116.71193232536315L67.86666666666666,113.82363166809081L67.93333333333334,111.7309799194336L68.86666666666667,111.69838457107544L68.93333333333334,116.17257299423217L69.06666666666666,111.96990838050841L69.13333333333334,117.52387890815736L69.2,111.2726953983307L69.33333333333333,116.78540267944335L69.46666666666667,107.05189318656922L69.60000000000001,112.04486417770386L69.73333333333333,120.12142939567566L70,115.34971346855163L70.13333333333334,114.91913752555847L70.4,111.33464512825013L70.8,112.66577939987182L70.93333333333334,107.10197625160218L71.2,115.7202302455902L71.39999999999999,116.36151123046875L71.53333333333333,109.70199966430664L72.26666666666667,117.16061210632324L72.33333333333333,111.91681222915649L72.53333333333333,116.25774965286256L72.66666666666667,111.46381959915162L72.73333333333333,120.4992045879364L72.93333333333334,117.48352718353271L73.06666666666666,111.39236640930176L73.53333333333333,118.45513358116149L73.86666666666667,115.0109395980835L74.2,112.9673412322998L74.26666666666667,113.64714245796203L74.4,111.26586742401123L74.8,111.76460494995116L74.86666666666667,109.98847918510437L75.06666666666668,109.32563395500183L75.19999999999999,108.83243308067323L75.26666666666667,108.29221286773681L75.53333333333333,115.54485511779785L75.8,112.76141324043273L76.13333333333333,113.4905463695526L76.2,107.90955090522766L76.26666666666667,112.3322299003601L76.60000000000001,110.46840391159058L76.73333333333333,110.74640965461731L77,105.06553502082825L77.2,107.56399126052857L77.33333333333333,106.2477536201477L77.80000000000001,110.90449118614197L78,109.91472187042235L78.33333333333334,111.31962189674378L78.39999999999999,107.76333603858949L78.66666666666667,112.52059421539307L78.93333333333334,110.67184209823608L79.46666666666667,110.77372155189515L79.6,110.95865921974182L79.73333333333333,112.2110228061676L79.80000000000001,108.51676797866821L79.93333333333332,113.80855779647827L80.13333333333334,113.85448837280273L80.66666666666667,116.51288294792175L81,122.09768486022949L81.13333333333333,122.11845574378968L81.33333333333334,118.14222836494446L81.39999999999999,121.79021501541138L81.53333333333333,123.05423426628113L81.66666666666666,120.1487328529358L81.73333333333333,119.91348423957824L81.86666666666667,125.17266182899475L81.93333333333334,126.39073362350463L82.06666666666666,121.97812356948852L82.13333333333334,126.20889344215392L82.2,128.3249071598053L82.53333333333333,124.96406679153442L82.80000000000001,134.5341269016266L82.93333333333334,129.3261337995529L83.73333333333332,133.83206090927123L84.26666666666668,131.7295427799225L84.33333333333333,131.68512296676636L84.6,131.10053358078002L84.8,136.2955881357193L85,137.2155922651291L85.06666666666666,132.0195839881897L85.19999999999999,135.76996071338652L85.26666666666667,135.8421650648117L85.33333333333333,129.60434210300446L85.46666666666667,134.88721504211426L85.86666666666666,138.54471781253815L86.93333333333334,133.18340756893159L87,132.51934275627136L87.06666666666666,134.16406166553497L87.13333333333334,134.35689918994905L87.33333333333333,133.04233689308165L87.86666666666666,132.15851511955262L87.93333333333334,131.9029513835907L88.53333333333333,136.2086559534073L88.8,139.27717208862305L88.86666666666666,132.77188074588776L89,134.1418855190277L89.06666666666666,131.7921550512314L89.26666666666667,131.95007622241974L89.33333333333333,134.25794842243195L89.53333333333333,128.94463655948638L89.66666666666666,133.2546117782593L90.06666666666666,131.0253583431244L90.46666666666667,129.6262734889984L90.66666666666667,129.74379229545593L90.8,129.87721209526063L91.06666666666668,132.7182950735092L91.33333333333334,130.80394713878633L91.39999999999999,132.01827578544618L92.26666666666668,129.80911803245544L92.4,128.5475421667099L92.66666666666666,125.93865251541138L92.80000000000001,128.09332151412963L93,125.16210336685181L93.13333333333334,124.96510491371156L93.19999999999999,128.70854816436767L93.4,121.64773907661437L93.46666666666665,127.35746169090271L93.8,128.13322591781616L93.86666666666666,125.48144831657409L94,119.78673205375672L94.06666666666666,127.7076295852661L94.53333333333333,128.27425017356873L94.60000000000001,127.90590248107911L94.73333333333333,119.54071397781372L95.2,121.59106435775756L95.33333333333333,121.83992671966553L95.4,119.08017597198487L95.46666666666667,121.08501777648927L95.93333333333334,123.4163447856903L96.13333333333333,118.70980267524719L96.33333333333334,119.61566133499146L96.60000000000001,122.5176517009735L96.8,120.06658616065978L96.99999999999999,121.8086142539978L97.33333333333333,113.29685640335083L97.53333333333333,119.5526397228241L97.66666666666666,122.44466242790223L97.8,122.43586792945861L97.86666666666667,117.36172928810119L98.53333333333333,120.61783747673034L98.6,125.83014764785766L98.8,119.04430589675904L99.06666666666666,116.00697140693664L99.33333333333334,116.48611121177673L99.46666666666667,113.87131776809692L99.60000000000001,119.00666341781617L99.73333333333333,118.74644079208373L99.93333333333334,115.65184078216554L100.13333333333334,115.79997153282166L100.2,113.55710434913635L100.26666666666667,114.40677781105042L100.4,117.06594886779784L100.73333333333333,115.22828693389893L100.86666666666666,112.2193784236908L101,121.03833603858948L101.46666666666665,119.08103685379028L101.73333333333332,113.48446111679077L101.86666666666666,116.07602763175964L102.33333333333333,110.3614351272583L102.39999999999999,110.51378588676452L102.46666666666667,110.6082803249359L102.86666666666667,114.60667963027954L103.06666666666666,111.07227873802185L103.73333333333333,108.7191174030304L103.86666666666666,115.13671274185181L104,108.22092847824096L104.13333333333333,109.77852530479431L104.46666666666667,113.86062426567078L104.60000000000001,106.1523054599762L104.66666666666667,106.92817096710205L104.73333333333333,106.98736925125122L104.8,105.96382298469543L104.86666666666667,106.21066818237306L105.13333333333334,99.19799251556397L105.33333333333333,108.65127654075623L105.66666666666666,102.23816285133363L105.73333333333333,103.83352031707763L105.80000000000001,104.01206889152526L106.06666666666668,105.28072171211242L106.53333333333333,105.12051329612733L106.8,99.71621804237365L106.86666666666666,102.82140183448792L106.93333333333334,100.73616042137145L107.13333333333333,98.5555721282959L107.26666666666667,99.83124704360962L107.39999999999999,102.2679729938507L107.46666666666667,103.59942798614502L107.60000000000001,102.97609047889709L108.06666666666666,98.31439862251283L108.13333333333334,97.3842242717743L108.33333333333333,97.37066960334778L108.4,96.95397748947143L108.53333333333333,101.59534578323364L108.6,97.17428727149964L108.80000000000001,99.97526750564576L108.93333333333334,98.67600274085999L109.26666666666667,97.3895668029785L109.73333333333332,98.23420157432555L110.06666666666666,95.50070772171021L110.13333333333334,98.4394206047058L110.8,92.48622879981995L110.93333333333332,99.68046612739563L111.13333333333334,91.86895122528075L111.6,93.90925798416139L111.73333333333333,97.9163420677185L111.8,93.06401553153991L111.86666666666666,100.85501275062562L112.13333333333333,92.7870225906372L112.26666666666667,90.9331220626831L112.60000000000001,97.83205161094666L112.86666666666667,91.44059500694276L112.93333333333334,88.85959539413453L113.13333333333334,94.91714801788329L113.66666666666667,92.82934083938598L113.73333333333333,93.64830951690674L113.80000000000001,90.08324604034424L114.26666666666667,92.01833109855652L114.53333333333333,96.8616943359375L114.86666666666666,95.13549971580505L115.00000000000001,101.65055193901061L115.26666666666668,101.02550954818726L116.26666666666667,94.938805103302L116.4,99.77669076919555L116.6,101.03030347824097L116.66666666666667,100.29382753372192L116.73333333333333,102.35056700706481L116.8,102.40391635894775L116.93333333333334,100.63487176895141L117.06666666666668,102.56083316802979L117.13333333333333,104.76350054740907L117.33333333333334,102.05046529769898L117.39999999999999,105.79087858200073L117.8,100.51201043128968L118.06666666666666,106.96174535751344L118.4,109.61629128456116L118.46666666666667,108.24228172302246L118.53333333333335,105.22967648506165L118.80000000000001,110.12927556037903L119,107.08844690322876L119.33333333333334,104.35772137641906L119.53333333333333,107.96702742576599L119.86666666666666,112.01030230522156L119.93333333333334,107.30405559539794L120.13333333333333,109.24257574081422L120.39999999999999,112.2977524280548L120.66666666666666,105.94287486076355L121,107.24083986282348L121.33333333333333,103.95520005226136L121.46666666666667,107.57086143493653L121.66666666666667,109.35877790451049L121.73333333333333,105.5516800403595L122.33333333333334,108.16080179214477L122.99999999999999,110.91364860534668L123.2,105.09882245063783L123.6,103.1274621963501L124,107.54735598564149L124.26666666666667,108.49234256744386L124.33333333333333,108.38268141746521L124.4,109.69801597595215L124.53333333333333,112.96081709861755L125,110.0463355064392L125.06666666666666,107.72138915061952L125.33333333333334,110.93533945083618L125.73333333333333,110.60522503852845L126,106.5494926929474L126.2,108.93897142410277L126.46666666666667,112.45000190734864L127.8,111.43686218261719L128.06666666666666,111.07113089561462L128.73333333333332,112.16567459106444L129.06666666666666,115.24750485420226L129.2,113.84295930862426L129.26666666666665,113.71263699531555L129.33333333333334,113.39972333908081L129.4,111.74955639839173L129.93333333333334,117.40050272941589L130.33333333333334,117.03575048446656L130.46666666666667,121.02024908065796L130.53333333333333,122.3317096710205L130.66666666666666,114.072713470459L130.73333333333332,111.15887331962585L131.53333333333333,120.30756554603578L131.6,121.07461123466491L131.73333333333335,122.99306101799012L132.2,122.0332790851593L132.46666666666667,127.06617980003357L132.66666666666669,123.0830991268158L132.93333333333334,123.18361129760741L133.2,123.45321922302246L133.26666666666668,121.72266111373902L133.46666666666667,126.76558012962342L133.93333333333334,125.93570694923402L134,126.25257897377014L134.06666666666666,124.91392464637757L134.20000000000002,122.37981777191162L134.4,124.47543196678161L135.2,123.78927540779114L135.6,125.03811950683594L135.8,125.88145451545715L135.86666666666667,129.44519712924958L136.06666666666666,125.974640750885L136.53333333333333,125.69183263778687L136.73333333333335,122.62594556808472L136.8,125.02607560157776L137.46666666666667,123.51283950805664L137.66666666666666,121.1813183784485L137.73333333333335,122.23795795440674L137.86666666666667,121.36565680503845L138.13333333333333,120.68490185737609L138.2,123.82620048522949L138.4,119.05457739830017L138.66666666666666,118.55664167404176L139,120.7282751083374L139.66666666666666,118.45390133857727L139.73333333333335,119.01177806854248L139.8,117.44859395027161L140.06666666666666,115.59213609695435L140.2,115.79035835266113L140.73333333333332,122.6598575592041L141.8,115.9831030368805L142.06666666666666,113.20139980316162L142.33333333333334,118.41021580696106L142.46666666666667,114.03531575202942L142.66666666666666,119.13861465454102L142.73333333333335,113.94893217086792L143.06666666666666,121.26337223052978L143.13333333333333,121.39263954162597L143.4,115.32757530212403L143.6,118.97274298667908L143.73333333333332,114.21025199890137L144.13333333333333,124.36965322494507L144.4,124.05386152267455L144.66666666666666,124.32496333122253L144.93333333333334,119.22341995239258L145.13333333333333,115.90122642517089L145.26666666666668,119.10063457489014L145.66666666666669,119.36056180000305L145.73333333333332,119.22623047828675L145.79999999999998,125.455917263031L145.86666666666667,116.60446557998658L146.2,119.23154768943787L146.26666666666668,122.29286026954651L146.33333333333331,125.43777966499329L146.8,115.54397735595704L146.93333333333334,117.17508673667908L147.13333333333333,121.69702877998351L147.26666666666665,120.88121666908263L147.33333333333334,124.59653778076172L147.4,117.69035825729371L147.46666666666667,119.25591402053833L147.86666666666667,116.72481179237366L148.13333333333333,119.11525268554688L148.2,115.80077333450318L148.33333333333334,121.9937966823578L148.66666666666669,123.5542293548584L149.20000000000002,124.32157044410705L149.26666666666665,123.74266963005066L149.53333333333333,122.03807301521302L149.66666666666666,123.66849031448363L150,121.34230327606201L150.20000000000002,121.82944421768188L150.26666666666668,117.76910362243653L151,121.36195163726806L151.66666666666666,127.31084747314453L151.8,123.72148518562317L152,129.2510260820389L152.26666666666665,119.45106410980225L152.33333333333334,122.53345141410828L152.4,120.43820858001709L152.60000000000002,125.41102480888367L152.79999999999998,122.67867879867553L153.06666666666666,120.61663899421693L153.33333333333331,119.64651803970337L153.46666666666667,122.26252684593202L154.6,123.68640003204347L154.86666666666667,119.09858365058899L155.06666666666666,117.08300614356995L155.13333333333333,124.9588002204895L155.33333333333334,120.61051998138429L155.46666666666667,128.08934626579284L155.73333333333332,120.1793701171875L155.86666666666667,116.67249212265016L156.46666666666667,116.97355599403382L156.73333333333335,119.83925428390502L157.33333333333334,119.49348363876344L157.66666666666666,125.41718602180481L157.73333333333335,121.02003808021546L157.8,123.56819758415223L158.26666666666668,122.07858510017395L158.66666666666666,119.92219433784486L158.86666666666667,118.27216243743896L159.0666666666667,110.49642477035523L159.2,125.30916223526002L159.66666666666669,118.83874926567078L159.93333333333334,118.79335041046143L160.13333333333333,117.21532030105591L160.53333333333333,117.54447255134583L160.6,118.88874793052673L160.66666666666666,114.12521038055421L160.86666666666667,113.99412002563476L161.2,119.52607898712158L161.6,117.37890472412109L161.66666666666666,111.78229522705078L162.33333333333334,110.4606475353241L162.4,113.65012178421021L162.66666666666669,110.60496339797974L162.73333333333332,111.06041207313537L162.79999999999998,113.1354495048523L163,114.6698700428009L163.13333333333335,112.93434920310973L163.33333333333331,116.21867237091065L163.53333333333333,116.15836844444276L163.73333333333335,110.85866189002991L164,106.3426194190979L164.06666666666666,110.55913410186768L164.2,106.88170866966247L164.26666666666668,111.83692746162414L164.4,114.96595430374146L164.4666666666667,112.47257895469666L165.13333333333333,109.52548513412476L165.26666666666665,106.46516847610474L165.4,105.52339754104615L165.79999999999998,106.96097731590271L165.86666666666667,108.70877838134766L166.06666666666666,109.52415161132812L167.8,107.55499420166016L168.06666666666666,102.77807078361512L168.4,102.58139305114746L168.53333333333336,103.37725296020507L168.73333333333332,107.10150361061096L169,106.28118453025819L169.06666666666666,104.25728516578674L169.33333333333331,104.6272111415863L169.53333333333333,100.5907051563263L169.79999999999998,104.28097629547119L170.26666666666668,110.71950287818909L170.33333333333334,102.7085419178009L170.39999999999998,105.64198822975159L171.13333333333333,106.23139686584473L171.2,99.53197245597839L171.33333333333334,101.56376323699952L171.6,101.72279005050659L171.93333333333334,101.4901494026184L172.46666666666667,103.15378661155701L172.60000000000002,106.98878717422485L172.73333333333335,109.36919288635254L173,106.25721487998963L173.13333333333333,106.27616271972657L173.20000000000002,114.80134863853455L173.33333333333331,112.1244197845459L173.53333333333333,113.21200890541077L173.66666666666666,114.66619019508362L173.9333333333333,119.13289232254029L174,119.36819157600404L174.26666666666668,110.68520264625549L174.33333333333334,117.93136296272279L174.6,113.92352771759033L174.66666666666666,117.61771502494811L174.86666666666667,118.61307163238526L174.93333333333334,121.20617423057557L175.13333333333333,122.31012010574341L175.73333333333332,113.15123233795167L175.93333333333334,118.46044235229492L176.6,118.97270922660827L177.26666666666668,117.59804978370666L177.46666666666664,120.42770919799806L177.93333333333334,118.72188034057616L178.4,124.63982663154603L179.13333333333335,120.01238436698914L179.26666666666665,117.31995964050293L179.6,121.80006451606751L179.93333333333334,119.42773590087891L180.06666666666666,115.62668952941895L180.20000000000002,120.29801144599914L180.6,122.31180810928345L180.73333333333335,109.24797735214234L180.93333333333334,118.64402961730957L181.00000000000003,115.18964853286742L181.4,118.92590932846069L181.66666666666666,122.0503110408783L182.4,117.92493166923522L182.6,114.59879665374756L182.79999999999998,113.32757806777954L182.93333333333334,114.47699875831604L183.8,116.31873722076416L184.26666666666668,114.12608814239502L184.46666666666667,106.02221946716308L185.0666666666667,108.09556889533997L185.4,108.0800223827362L186.13333333333333,105.7549663066864L186.66666666666666,108.39349308013915L187,110.00869302749634L187.06666666666666,104.2725025177002L187.4,112.94880695343018L187.73333333333332,111.17871580123902L187.93333333333334,108.25953311920166L188.26666666666665,109.13252635002137L188.79999999999998,109.44616584777832L189,110.37120866775513L189.33333333333331,100.83535594940186L189.46666666666667,102.85742383003235L189.53333333333333,106.80219526290894L189.6,105.76014003753663L189.73333333333335,106.55871763229369L190.13333333333333,108.91295084953309L190.46666666666664,104.10477404594421L190.6,106.03365569114685L191.4,105.57121868133545L191.53333333333333,103.63008213043213L191.86666666666667,106.14266695976256L192.26666666666665,105.30778040885924L192.6,103.73787803649903L192.73333333333335,105.64484095573425L192.86666666666665,104.25235619544982L192.93333333333334,102.73947458267212L193.13333333333333,99.80159726142882L193.20000000000002,103.09641981124878L194.33333333333334,101.46617975234984L195.2,98.0369668006897L195.4,103.8400782108307L195.66666666666669,103.01449255943298L195.73333333333335,98.95869269371032L195.93333333333334,103.81572031974792L196.06666666666666,103.12960596084595L196.13333333333333,96.18648447990417L196.93333333333334,103.26861305236817L197.46666666666667,101.65337090492248L197.6,97.73658657073975L197.66666666666666,93.90333309173583L197.93333333333334,95.950324344635L198.2,97.77427124977112L198.46666666666667,94.33304815292358L198.93333333333334,95.36266279220581L199,98.06515645980835L199.26666666666668,94.54441995620728L199.53333333333333,92.51504302024841L199.86666666666667,95.06427440643311L200,94.90730695724487L200.2,98.04041876792907L200.33333333333334,92.7735270023346L200.4,95.92533345222473L200.53333333333333,93.07879400253296L200.66666666666666,97.00341911315918L200.86666666666667,89.2134178161621L201.13333333333333,92.8174826145172L201.2,100.61308808326721L201.26666666666665,92.85390129089355L201.4,96.37387819290161L201.53333333333333,94.55264897346497L201.86666666666667,92.66432161331177L202,92.07072672843934L202.06666666666666,92.05421805381775L202.53333333333333,90.87927474975585L202.66666666666669,96.17757182121277L202.86666666666665,89.25453758239746L204.33333333333334,95.2239764213562L204.4,94.60106935501098L204.53333333333333,92.79266896247863L205,92.72790870666505L205.13333333333335,91.944193983078L205.20000000000002,88.94745597839356L205.53333333333333,95.33537621498108L205.6,87.78766250610352L205.66666666666669,92.61729383468628L205.86666666666665,94.50163750648498L205.93333333333334,89.08189702033997L206.13333333333333,88.96739974021911L206.6,91.83644027709961L206.73333333333335,92.35661544799804L206.86666666666667,93.67458329200745L206.99999999999997,89.01459631919862L207.06666666666666,97.3938290119171L207.79999999999998,93.24684319496156L207.86666666666667,93.1020040512085L207.93333333333334,94.15791778564453L208.46666666666667,98.68443431854247L208.53333333333333,96.917533493042L208.86666666666665,97.69263095855713L208.93333333333334,95.6435381412506L209,98.48124089241027L209.06666666666666,101.98775596618653L209.20000000000002,92.62626557350158L209.26666666666668,100.43037858009338L209.33333333333334,99.18424372673034L209.53333333333333,109.38347339630127L210.26666666666668,111.02760572433472L210.66666666666666,116.31095552444458L210.8,121.7348653793335L211.33333333333331,137.48159630298613L211.4,143.51038534641265L211.46666666666667,140.0399555683136L211.60000000000002,136.8899974822998L212.06666666666666,151.43173019886018L212.26666666666668,144.20288879871367L212.39999999999998,153.82200229167938L212.6,157.5950362443924L212.73333333333335,157.14293825626373L212.86666666666667,159.104571390152L213.46666666666667,160.52173476219178L213.73333333333332,158.1132026910782L213.86666666666667,166.31763628721237L214,164.3793524622917L214.13333333333333,165.6805816411972L214.2,167.2964145898819L214.46666666666667,162.82550933361054L214.53333333333333,174.71283960342407L214.60000000000002,168.46610820293427L214.93333333333334,167.8129415631294L215.26666666666665,174.57945356369018L215.33333333333331,172.97306921482087L215.6,178.96910676956176L215.9333333333333,176.38807128667833L216,173.25388126373292L216.06666666666666,176.10504373311997L216.13333333333333,177.32060884237288L216.26666666666668,174.1048544883728L216.33333333333334,172.09002814292907L216.86666666666667,175.54838025569916L216.93333333333334,177.6605579853058L217.00000000000003,169.88559046983718L217.33333333333334,175.3252515077591L217.4,183.62521977424623L217.66666666666666,175.78060945272446L217.86666666666667,177.14549746513367L218.06666666666666,172.54426567554475L218.20000000000002,174.39976980686188L218.33333333333331,175.43942173719407L218.46666666666667,171.06064349412918L218.53333333333333,170.45275543928147L218.6,172.37313587665557L218.93333333333334,173.75135700702668L219,169.42578885555267L219.8,167.09413901567459L219.93333333333334,169.82059600353242L220.4,158.29152338504792L220.79999999999998,164.6656336426735L220.86666666666667,162.27137153148652L221.6,155.29158239364625L221.66666666666669,158.03725519180298L222.26666666666668,159.50786497592927L222.39999999999998,158.9952351808548L222.53333333333333,158.69039862155915L222.73333333333335,153.21540977954865L222.9333333333333,153.96624641418458L223.13333333333333,153.80379717350007L223.4,152.9781397819519L223.46666666666667,147.9500203371048L223.8,148.60160658359527L223.93333333333334,150.9923850774765L224.0666666666667,145.6945437669754L224.13333333333333,147.91788074970245L224.4,150.32172861099244L224.53333333333333,147.78495891094207L224.73333333333332,144.7671588420868L225.26666666666668,141.137748670578L225.39999999999998,142.09113729000092L225.46666666666667,149.20710189342498L225.6,144.19742810726166L225.9333333333333,147.2735402584076L226.06666666666666,140.34199426174163L226.2,143.28420131206514L226.33333333333334,137.24254546165466L226.86666666666667,136.47887156009674L227.4,139.4625190973282L227.46666666666667,138.2608293771744L227.60000000000002,135.35757722854615L227.66666666666666,134.6530256509781L227.86666666666667,140.7488073348999L228,142.15841689109803L228.06666666666666,139.22227399349214L228.26666666666665,138.15091080665587L228.66666666666669,142.54139535427095L228.9333333333333,145.23499324321747L229,141.50186369419097L229.93333333333334,157.28297080993653L230.13333333333333,160.61371829509736L230.33333333333334,160.53957695960997L230.53333333333336,164.55940757989885L230.79999999999998,162.57822947502137L231,166.57244675159455L231.06666666666666,164.78662762641906L231.13333333333335,167.95306062698364L231.53333333333333,168.77038350105286L231.86666666666665,172.31784110069276L231.93333333333334,170.63961321115494L232,172.07014768123628L232.26666666666668,174.22719465494157L232.39999999999998,173.85118553638458L232.46666666666667,163.18024749755858L232.86666666666667,167.76558884382248L233.06666666666666,174.74260332584382L233.2,166.43436173200607L233.26666666666668,170.63257423639297L233.4,170.25824890136718L233.46666666666667,173.93461933135987L233.6,173.50313819646834L233.79999999999998,171.50344269275666L234,170.8183580160141L234.53333333333333,168.33276225328444L234.60000000000002,174.8571955561638L234.93333333333334,174.41966292858123L235.20000000000002,169.42716879844664L235.26666666666668,172.51751925945283L235.6,173.99885841608048L236.46666666666667,164.80682458877564L236.53333333333333,170.74373981952667L236.6,173.0935631275177L236.66666666666666,168.66982913017273L237.26666666666665,168.2885175704956L237.73333333333332,169.3337905526161L237.93333333333334,167.67077368497849L238.26666666666668,166.4213324546814L238.46666666666667,167.2381151676178L238.86666666666667,161.2556238412857L238.9333333333333,161.6338505744934L239,160.0541198015213L239.33333333333334,158.69179544448852L239.6,157.59470708370208L239.73333333333332,154.83542475700378L239.93333333333334,159.9165053129196L240.2,155.07067337036133L240.26666666666665,154.7501890182495L240.33333333333334,154.44761860370636L240.46666666666667,158.75007376670837L240.73333333333332,153.04341065883636L240.79999999999998,154.8490300655365L240.93333333333334,154.18178336620332L241,153.2914290189743L241.26666666666665,153.33376414775847L241.33333333333331,154.50579564571382L241.4,153.50619370937346L241.73333333333335,151.15806262493135L241.86666666666665,154.4860586643219L242.53333333333333,150.84836461544037L242.6,148.695894241333L242.86666666666667,143.87776243686676L243.00000000000003,146.7033495426178L243.33333333333334,149.95216977596283L243.46666666666667,146.73859927654266L243.66666666666666,144.687455534935L243.79999999999998,142.99037897586823L244.46666666666667,146.98777813911437L244.66666666666669,141.9037520170212L244.86666666666665,143.5116175889969L245.20000000000002,139.8408217906952L245.39999999999998,139.69429886341095L245.8,135.70753412246705L245.99999999999997,137.84193441867828L246.13333333333333,130.6433589220047L246.46666666666667,134.49603288173677L246.6,132.40258355140685L246.86666666666667,137.84684228897095L246.93333333333334,133.99101598262786L247.46666666666667,130.0667073726654L247.73333333333335,128.81398930549622L247.79999999999998,130.87221422195435L248,133.07250151634216L248.13333333333333,132.7854649543762L248.26666666666668,131.73756923675538L248.6,133.16523621082305L248.86666666666667,131.08721945285797L249.13333333333333,125.22824778556823L249.4,120.53721842765809L249.53333333333333,126.63269205093384L249.93333333333334,127.18011159896851L250.73333333333332,120.10480256080628L250.86666666666667,115.35032114982606L251,116.1908793926239L251.20000000000002,119.87006034851073L251.39999999999998,115.67918643951417L251.6,116.69549117088319L251.66666666666669,118.32683687210083L252,119.26275043487549L252.53333333333333,119.29594502449036L252.93333333333334,113.18586173057555L253.13333333333333,116.80243463516236L253.2,114.39081773757935L253.73333333333332,111.4460871219635L254.26666666666665,113.94173283576966L254.86666666666665,113.44165334701539L255.13333333333333,108.28983278274536L255.6,107.41821527481079L256,108.46132550239564L256.1333333333333,106.40977663993836L256.3333333333333,110.11190600395203L256.4666666666667,104.58567781448365L256.8666666666667,106.75647568702698L257,110.19485449790955L257.06666666666666,108.22934317588806L257.46666666666664,113.59879803657532L257.6,105.36689429283142L257.6666666666667,107.9417073726654L257.73333333333335,110.55350461006164L258,105.54557790756225L258.06666666666666,111.35026760101319L258.1333333333333,110.49809589385985L258.26666666666665,109.88845653533936L258.46666666666664,109.8899250984192L258.6,111.57564983367921L258.93333333333334,104.91104893684387L259,107.6469903945923L259.2,111.1259994506836L259.53333333333336,106.27461819648742L259.59999999999997,109.72082934379578L259.73333333333335,108.62468204498292L259.8,107.70939588546753L260.1333333333333,106.91102085113526L260.26666666666665,108.25164170265198L260.4666666666667,106.21965680122376L260.53333333333336,112.04997882843018L260.6,109.90672073364259L260.8,112.11752429008483L261,111.04549856185913L261.2,109.06368112564087L261.46666666666664,110.19552969932556L261.73333333333335,113.79646325111389L261.8666666666667,109.78738732337952L262.2,110.68475532531738L262.26666666666665,109.00196771621704L262.40000000000003,108.53094720840454L262.59999999999997,110.96793479919434L262.93333333333334,110.55156340599059L263.06666666666666,108.10246438980103L263.6,109.54597749710082L263.6666666666667,112.63293085098267L263.93333333333334,109.8558780670166L264.06666666666666,111.62434029579163L264.4,109.3069308757782L264.5333333333333,109.40590696334839L264.6666666666667,109.56273093223571L264.8,111.57772607803345L265,112.79021902084351L265.33333333333337,108.91714553833008L265.40000000000003,111.14436492919923L265.46666666666664,108.04168782234193L265.5333333333333,108.86444606781005L265.59999999999997,107.45460019111634L265.6666666666667,104.16820921897887L265.93333333333334,108.18867917060852L266.06666666666666,109.63620972633362L266.2,108.4554259300232L266.4,113.35489840507508L266.6,110.14452667236328" style="fill: none;" fill="none"></path></g></g></g></g></g></g><g transform="translate(30, 177)" clip-path="url(#clip_1)"><clipPath id="clip_1"><rect width="300" height="23"></rect></clipPath><g><g><line x1="0" y1="0" x2="0" y2="5" style="visibility: inherit;" fill="rgb(0, 0, 0)" stroke="rgb(204, 204, 204)" stroke-width="1px"></line><line x1="33.33333333333333" y1="0" x2="33.33333333333333" y2="5" style="visibility: inherit;" fill="rgb(0, 0, 0)" stroke="rgb(204, 204, 204)" stroke-width="1px"></line><line x1="66.66666666666666" y1="0" x2="66.66666666666666" y2="5" style="visibility: inherit;" fill="rgb(0, 0, 0)" stroke="rgb(204, 204, 204)" stroke-width="1px"></line><line x1="100" y1="0" x2="100" y2="5" style="visibility: inherit;" fill="rgb(0, 0, 0)" stroke="rgb(204, 204, 204)" stroke-width="1px"></line><line x1="133.33333333333331" y1="0" x2="133.33333333333331" y2="5" style="visibility: inherit;" fill="rgb(0, 0, 0)" stroke="rgb(204, 204, 204)" stroke-width="1px"></line><line x1="166.66666666666669" y1="0" x2="166.66666666666669" y2="5" style="visibility: inherit;" fill="rgb(0, 0, 0)" stroke="rgb(204, 204, 204)" stroke-width="1px"></line><line x1="200" y1="0" x2="200" y2="5" style="visibility: inherit;" fill="rgb(0, 0, 0)" stroke="rgb(204, 204, 204)" stroke-width="1px"></line><line x1="233.33333333333334" y1="0" x2="233.33333333333334" y2="5" style="visibility: inherit;" fill="rgb(0, 0, 0)" stroke="rgb(204, 204, 204)" stroke-width="1px"></line><line x1="266.66666666666663" y1="0" x2="266.66666666666663" y2="5" style="visibility: inherit;" fill="rgb(0, 0, 0)" stroke="rgb(204, 204, 204)" stroke-width="1px"></line><line x1="300" y1="0" x2="300" y2="5" style="visibility: inherit;" fill="rgb(0, 0, 0)" stroke="rgb(204, 204, 204)" stroke-width="1px"></line></g><g transform="translate(0, 8)"><text x="0" y="0" dx="0em" dy="0.95em" style="text-anchor: middle; visibility: hidden; font-family: Roboto, sans-serif; font-size: 12px; font-weight: 200;" fill="rgb(33, 33, 33)" stroke="none" stroke-width="1px">-500</text><text x="33.33333333333333" y="0" dx="0em" dy="0.95em" style="text-anchor: middle; visibility: inherit; font-family: Roboto, sans-serif; font-size: 12px; font-weight: 200;" fill="rgb(33, 33, 33)" stroke="none" stroke-width="1px">0</text><text x="66.66666666666666" y="0" dx="0em" dy="0.95em" style="text-anchor: middle; visibility: inherit; font-family: Roboto, sans-serif; font-size: 12px; font-weight: 200;" fill="rgb(33, 33, 33)" stroke="none" stroke-width="1px">500</text><text x="100" y="0" dx="0em" dy="0.95em" style="text-anchor: middle; visibility: inherit; font-family: Roboto, sans-serif; font-size: 12px; font-weight: 200;" fill="rgb(33, 33, 33)" stroke="none" stroke-width="1px">1k</text><text x="133.33333333333331" y="0" dx="0em" dy="0.95em" style="text-anchor: middle; visibility: inherit; font-family: Roboto, sans-serif; font-size: 12px; font-weight: 200;" fill="rgb(33, 33, 33)" stroke="none" stroke-width="1px">1.5k</text><text x="166.66666666666669" y="0" dx="0em" dy="0.95em" style="text-anchor: middle; visibility: inherit; font-family: Roboto, sans-serif; font-size: 12px; font-weight: 200;" fill="rgb(33, 33, 33)" stroke="none" stroke-width="1px">2k</text><text x="200" y="0" dx="0em" dy="0.95em" style="text-anchor: middle; visibility: inherit; font-family: Roboto, sans-serif; font-size: 12px; font-weight: 200;" fill="rgb(33, 33, 33)" stroke="none" stroke-width="1px">2.5k</text><text x="233.33333333333334" y="0" dx="0em" dy="0.95em" style="text-anchor: middle; visibility: inherit; font-family: Roboto, sans-serif; font-size: 12px; font-weight: 200;" fill="rgb(33, 33, 33)" stroke="none" stroke-width="1px">3k</text><text x="266.66666666666663" y="0" dx="0em" dy="0.95em" style="text-anchor: middle; visibility: inherit; font-family: Roboto, sans-serif; font-size: 12px; font-weight: 200;" fill="rgb(33, 33, 33)" stroke="none" stroke-width="1px">3.5k</text><text x="300" y="0" dx="0em" dy="0.95em" style="text-anchor: middle; visibility: hidden; font-family: Roboto, sans-serif; font-size: 12px; font-weight: 200;" fill="rgb(33, 33, 33)" stroke="none" stroke-width="1px">4k</text></g><line x1="0" y1="0" x2="300" y2="0" fill="rgb(0, 0, 0)" stroke="rgb(204, 204, 204)" stroke-width="1px"></line></g></g></g></g></svg>