<svg viewBox="0 0 330 200" xmlns="http://www.w3.org/2000/svg"><g><g><g><g><g><line x1="51.5625" y1="177" x2="46.5625" y2="177" style="visibility: inherit;" fill="rgb(0, 0, 0)" stroke="rgb(204, 204, 204)" stroke-width="1px"></line><line x1="51.5625" y1="163.3846153846154" x2="46.5625" y2="163.3846153846154" style="visibility: inherit;" fill="rgb(0, 0, 0)" stroke="rgb(204, 204, 204)" stroke-width="1px"></line><line x1="51.5625" y1="149.76923076923077" x2="46.5625" y2="149.76923076923077" style="visibility: inherit;" fill="rgb(0, 0, 0)" stroke="rgb(204, 204, 204)" stroke-width="1px"></line><line x1="51.5625" y1="136.15384615384613" x2="46.5625" y2="136.15384615384613" style="visibility: inherit;" fill="rgb(0, 0, 0)" stroke="rgb(204, 204, 204)" stroke-width="1px"></line><line x1="51.5625" y1="122.53846153846153" x2="46.5625" y2="122.53846153846153" style="visibility: inherit;" fill="rgb(0, 0, 0)" stroke="rgb(204, 204, 204)" stroke-width="1px"></line><line x1="51.5625" y1="108.92307692307693" x2="46.5625" y2="108.92307692307693" style="visibility: inherit;" fill="rgb(0, 0, 0)" stroke="rgb(204, 204, 204)" stroke-width="1px"></line><line x1="51.5625" y1="95.3076923076923" x2="46.5625" y2="95.3076923076923" style="visibility: inherit;" fill="rgb(0, 0, 0)" stroke="rgb(204, 204, 204)" stroke-width="1px"></line><line x1="51.5625" y1="81.6923076923077" x2="46.5625" y2="81.6923076923077" style="visibility: inherit;" fill="rgb(0, 0, 0)" stroke="rgb(204, 204, 204)" stroke-width="1px"></line><line x1="51.5625" y1="68.07692307692307" x2="46.5625" y2="68.07692307692307" style="visibility: inherit;" fill="rgb(0, 0, 0)" stroke="rgb(204, 204, 204)" stroke-width="1px"></line><line x1="51.5625" y1="54.46153846153847" x2="46.5625" y2="54.46153846153847" style="visibility: inherit;" fill="rgb(0, 0, 0)" stroke="rgb(204, 204, 204)" stroke-width="1px"></line><line x1="51.5625" y1="40.84615384615384" x2="46.5625" y2="40.84615384615384" style="visibility: inherit;" fill="rgb(0, 0, 0)" stroke="rgb(204, 204, 204)" stroke-width="1px"></line><line x1="51.5625" y1="27.230769230769234" x2="46.5625" y2="27.230769230769234" style="visibility: inherit;" fill="rgb(0, 0, 0)" stroke="rgb(204, 204, 204)" stroke-width="1px"></line><line x1="51.5625" y1="13.615384615384606" x2="46.5625" y2="13.615384615384606" style="visibility: inherit;" fill="rgb(0, 0, 0)" stroke="rgb(204, 204, 204)" stroke-width="1px"></line><line x1="51.5625" y1="0" x2="46.5625" y2="0" style="visibility: inherit;" fill="rgb(0, 0, 0)" stroke="rgb(204, 204, 204)" stroke-width="1px"></line></g><g transform="translate(41.5625, 0)"><text x="0" y="177" dx="0em" dy="0.3em" style="text-anchor: end; visibility: hidden; font-family: Roboto, sans-serif; font-size: 12px; font-weight: 200;" fill="rgb(33, 33, 33)" stroke="none" stroke-width="1px">-340</text><text x="0" y="163.3846153846154" dx="0em" dy="0.3em" style="text-anchor: end; visibility: inherit; font-family: Roboto, sans-serif; font-size: 12px; font-weight: 200;" fill="rgb(33, 33, 33)" stroke="none" stroke-width="1px">-320</text><text x="0" y="149.76923076923077" dx="0em" dy="0.3em" style="text-anchor: end; visibility: hidden; font-family: Roboto, sans-serif; font-size: 12px; font-weight: 200;" fill="rgb(33, 33, 33)" stroke="none" stroke-width="1px">-300</text><text x="0" y="136.15384615384613" dx="0em" dy="0.3em" style="text-anchor: end; visibility: inherit; font-family: Roboto, sans-serif; font-size: 12px; font-weight: 200;" fill="rgb(33, 33, 33)" stroke="none" stroke-width="1px">-280</text><text x="0" y="122.53846153846153" dx="0em" dy="0.3em" style="text-anchor: end; visibility: hidden; font-family: Roboto, sans-serif; font-size: 12px; font-weight: 200;" fill="rgb(33, 33, 33)" stroke="none" stroke-width="1px">-260</text><text x="0" y="108.92307692307693" dx="0em" dy="0.3em" style="text-anchor: end; visibility: inherit; font-family: Roboto, sans-serif; font-size: 12px; font-weight: 200;" fill="rgb(33, 33, 33)" stroke="none" stroke-width="1px">-240</text><text x="0" y="95.3076923076923" dx="0em" dy="0.3em" style="text-anchor: end; visibility: hidden; font-family: Roboto, sans-serif; font-size: 12px; font-weight: 200;" fill="rgb(33, 33, 33)" stroke="none" stroke-width="1px">-220</text><text x="0" y="81.6923076923077" dx="0em" dy="0.3em" style="text-anchor: end; visibility: inherit; font-family: Roboto, sans-serif; font-size: 12px; font-weight: 200;" fill="rgb(33, 33, 33)" stroke="none" stroke-width="1px">-200</text><text x="0" y="68.07692307692307" dx="0em" dy="0.3em" style="text-anchor: end; visibility: hidden; font-family: Roboto, sans-serif; font-size: 12px; font-weight: 200;" fill="rgb(33, 33, 33)" stroke="none" stroke-width="1px">-180</text><text x="0" y="54.46153846153847" dx="0em" dy="0.3em" style="text-anchor: end; visibility: inherit; font-family: Roboto, sans-serif; font-size: 12px; font-weight: 200;" fill="rgb(33, 33, 33)" stroke="none" stroke-width="1px">-160</text><text x="0" y="40.84615384615384" dx="0em" dy="0.3em" style="text-anchor: end; visibility: hidden; font-family: Roboto, sans-serif; font-size: 12px; font-weight: 200;" fill="rgb(33, 33, 33)" stroke="none" stroke-width="1px">-140</text><text x="0" y="27.230769230769234" dx="0em" dy="0.3em" style="text-anchor: end; visibility: inherit; font-family: Roboto, sans-serif; font-size: 12px; font-weight: 200;" fill="rgb(33, 33, 33)" stroke="none" stroke-width="1px">-120</text><text x="0" y="13.615384615384606" dx="0em" dy="0.3em" style="text-anchor: end; visibility: hidden; font-family: Roboto, sans-serif; font-size: 12px; font-weight: 200;" fill="rgb(33, 33, 33)" stroke="none" stroke-width="1px">-100</text><text x="0" y="0" dx="0em" dy="0.3em" style="text-anchor: end; visibility: hidden; font-family: Roboto, sans-serif; font-size: 12px; font-weight: 200;" fill="rgb(33, 33, 33)" stroke="none" stroke-width="1px">-80</text></g><line x1="51.5625" y1="0" x2="51.5625" y2="177" fill="rgb(0, 0, 0)" stroke="rgb(204, 204, 204)" stroke-width="1px"></line></g></g><g transform="translate(51, 0)" clip-path="url(#clip_0)"><clipPath id="clip_0"><rect width="278" height="177"></rect></clipPath><g><g><g><line x1="0" y1="0" x2="0" y2="177" fill="rgb(0, 0, 0)" stroke="rgb(66, 66, 66)" stroke-width="1px" opacity="0.25"></line><line x1="30.9375" y1="0" x2="30.9375" y2="177" fill="rgb(0, 0, 0)" stroke="rgb(66, 66, 66)" stroke-width="1px" opacity="0.25"></line><line x1="61.875" y1="0" x2="61.875" y2="177" fill="rgb(0, 0, 0)" stroke="rgb(66, 66, 66)" stroke-width="1px" opacity="0.25"></line><line x1="92.8125" y1="0" x2="92.8125" y2="177" fill="rgb(0, 0, 0)" stroke="rgb(66, 66, 66)" stroke-width="1px" opacity="0.25"></line><line x1="123.75" y1="0" x2="123.75" y2="177" fill="rgb(0, 0, 0)" stroke="rgb(66, 66, 66)" stroke-width="1px" opacity="0.25"></line><line x1="154.6875" y1="0" x2="154.6875" y2="177" fill="rgb(0, 0, 0)" stroke="rgb(66, 66, 66)" stroke-width="1px" opacity="0.25"></line><line x1="185.625" y1="0" x2="185.625" y2="177" fill="rgb(0, 0, 0)" stroke="rgb(66, 66, 66)" stroke-width="1px" opacity="0.25"></line><line x1="216.5625" y1="0" x2="216.5625" y2="177" fill="rgb(0, 0, 0)" stroke="rgb(66, 66, 66)" stroke-width="1px" opacity="0.25"></line><line x1="247.5" y1="0" x2="247.5" y2="177" fill="rgb(0, 0, 0)" stroke="rgb(66, 66, 66)" stroke-width="1px" opacity="0.25"></line><line x1="278.4375" y1="0" x2="278.4375" y2="177" fill="rgb(0, 0, 0)" stroke="rgb(66, 66, 66)" stroke-width="1px" opacity="0.25"></line></g><g><line x1="0" y1="177" x2="278.4375" y2="177" fill="rgb(0, 0, 0)" stroke="rgb(66, 66, 66)" stroke-width="1px" opacity="0.25"></line><line x1="0" y1="163.3846153846154" x2="278.4375" y2="163.3846153846154" fill="rgb(0, 0, 0)" stroke="rgb(66, 66, 66)" stroke-width="1px" opacity="0.25"></line><line x1="0" y1="149.76923076923077" x2="278.4375" y2="149.76923076923077" fill="rgb(0, 0, 0)" stroke="rgb(66, 66, 66)" stroke-width="1px" opacity="0.25"></line><line x1="0" y1="136.15384615384613" x2="278.4375" y2="136.15384615384613" fill="rgb(0, 0, 0)" stroke="rgb(66, 66, 66)" stroke-width="1px" opacity="0.25"></line><line x1="0" y1="122.53846153846153" x2="278.4375" y2="122.53846153846153" fill="rgb(0, 0, 0)" stroke="rgb(66, 66, 66)" stroke-width="1px" opacity="0.25"></line><line x1="0" y1="108.92307692307693" x2="278.4375" y2="108.92307692307693" fill="rgb(0, 0, 0)" stroke="rgb(66, 66, 66)" stroke-width="1px" opacity="0.25"></line><line x1="0" y1="95.3076923076923" x2="278.4375" y2="95.3076923076923" fill="rgb(0, 0, 0)" stroke="rgb(66, 66, 66)" stroke-width="1px" opacity="0.25"></line><line x1="0" y1="81.6923076923077" x2="278.4375" y2="81.6923076923077" fill="rgb(0, 0, 0)" stroke="rgb(66, 66, 66)" stroke-width="1px" opacity="0.25"></line><line x1="0" y1="68.07692307692307" x2="278.4375" y2="68.07692307692307" fill="rgb(0, 0, 0)" stroke="rgb(66, 66, 66)" stroke-width="1px" opacity="0.25"></line><line x1="0" y1="54.46153846153847" x2="278.4375" y2="54.46153846153847" fill="rgb(0, 0, 0)" stroke="rgb(66, 66, 66)" stroke-width="1px" opacity="0.25"></line><line x1="0" y1="40.84615384615384" x2="278.4375" y2="40.84615384615384" fill="rgb(0, 0, 0)" stroke="rgb(66, 66, 66)" stroke-width="1px" opacity="0.25"></line><line x1="0" y1="27.230769230769234" x2="278.4375" y2="27.230769230769234" fill="rgb(0, 0, 0)" stroke="rgb(66, 66, 66)" stroke-width="1px" opacity="0.25"></line><line x1="0" y1="13.615384615384606" x2="278.4375" y2="13.615384615384606" fill="rgb(0, 0, 0)" stroke="rgb(66, 66, 66)" stroke-width="1px" opacity="0.25"></line><line x1="0" y1="0" x2="278.4375" y2="0" fill="rgb(0, 0, 0)" stroke="rgb(66, 66, 66)" stroke-width="1px" opacity="0.25"></line></g></g></g><g><g><line x1="0" y1="-54.46153846153847" x2="278.4375" y2="-54.46153846153847" fill="rgb(0, 0, 0)" stroke="rgb(153, 153, 153)" stroke-width="1.5px"></line></g></g><g><g><line x1="30.9375" y1="0" x2="30.9375" y2="177" fill="rgb(0, 0, 0)" stroke="rgb(153, 153, 153)" stroke-width="1.5px"></line></g></g><g><g><g><g><g><path stroke="rgb(255, 112, 67)" stroke-width="2px" d="M33.9075,183.70694800735845L33.969375,89.58172840247934L34.093125,103.1744769524239L34.27875,111.90855044514437L34.65,78.67820333024287L34.711875,59.575036290693205L34.77375,47.939970054398266L34.835625,74.59570644703005L35.021249999999995,55.62027213071736L35.083125,42.801464580675635L35.145,38.11463451513469L35.268750000000004,69.23063265208421L35.330625,80.3964069533867L35.701874999999994,60.55830642971862L36.01125,49.33662032951095L36.444375,8.238044502515557L37.06312500000001,55.477755143985206L37.310625,12.12617856680112L37.496249999999996,19.136450501768007L37.558125000000004,21.264184543441438L37.681875,23.129492437206196L38.115,25.78813014785387L38.424375000000005,61.26274553200997L38.671875,80.15803235331418L38.73375,93.16304731994086L38.857499999999995,66.67934263940542L38.98125,50.370833695975726L39.3525,42.992036110945534L39.414375,4.432397218669244L39.8475,62.22034723797703L39.97125,48.27370808723904L40.033125,75.81702036435274L40.21874999999999,56.15996728816669L40.651875,46.28140235955348L40.8375,40.03887162774509L40.96125,34.038496245841095L41.085,-0.9867219341925975L41.45625,10.725404196444362L41.518125,59.953119480779534L41.580000000000005,47.430879045490826L41.889375,41.5878625901005L42.3225,36.94394359775336L42.384375000000006,66.28891306185282L42.44625,50.31404387263351L42.693749999999994,75.91336122724813L42.755625,60.25661269300098L42.8175,86.56846928722844L43.250625,95.32304678699373L43.43625,100.68052637541916L43.498125,104.02317358986248L43.56,74.50133705045769L43.621875,56.079576961250226L43.745625000000004,76.1240564607046L43.993125,57.92626481373489L44.116875,80.56296864259795L44.240625,128.3344482904266L44.488125,55.61177203230062L44.550000000000004,80.4619423228209L44.611875,61.808604813952456L44.7975,49.568976411884094L45.106875,75.546929412147L45.725625,56.3845517489446L46.035,46.787968797732894L46.096875000000004,105.95726877112772L46.15875,74.13063055917603L46.901250000000005,57.49889388303793L46.963125,95.24769387376809L47.025,71.07411160107874L47.705625,88.08395579121365L47.89125,98.60888978050495L48.015,72.50860608040482L48.13875,86.70861807376123L48.386250000000004,96.32747921734116L48.571875000000006,71.14659901346509L48.7575,145.98487586503518L48.88125,100.39820622674723L49.190625,166.60555929043537L49.314375,158.63739957666505L49.376250000000006,179.14194498563242L49.871249999999996,154.64511058081004L49.995,136.73014679282196L50.2425,113.09943075523043L50.49,146.36234789687325L50.61375,156.22569158442806L50.675625,139.1698844377737L50.86125,125.24626444045869L51.789375,117.84089793711176L51.85125,115.0753935831054L52.160624999999996,82.52543505404742L52.284375,93.18433435443116L52.34625,129.7096417034039L52.7175,177.8503804059065L52.841249999999995,151.54657315321188L53.088750000000005,137.4981354014674L53.33625,126.46710826349162L53.398125,121.75784108771488L53.46,117.66771370930712L53.521874999999994,114.82814505720235L53.58375,110.68243095146386L53.645625,134.4409083905898L54.32625,123.2956696540579L54.82125,85.11367326037721L55.06875,62.8957840296563L55.192499999999995,18.278800816940215L55.31625,22.41168895386231L55.501875,54.097387893426166L55.81125,43.76796919751904L55.935,38.39228948594683L56.244375000000005,63.27555815859033L56.55375,82.0787821607792L56.615625,61.090056983329L56.986875,47.96854221142545L57.048750000000005,133.73599574452354L57.29625,90.6939397412604L57.54375,98.73495599845212L57.853125,70.92788117071716L57.915,52.65899048925797L57.976875,44.14959081267287L58.100625,67.56408901660012L58.348124999999996,50.33210659881224L58.410000000000004,40.59499944465769L58.533750000000005,36.71042244793192L58.78125,93.53423851045088L58.905,67.93062819162583L59.152499999999996,107.57562760983727L59.461875,78.00232776594744L59.709375,87.42689468296838L59.77125,63.674556398310166L59.895,50.35746598385539L60.01875,10.035562510974572L60.26625,51.82735059627825L60.328125,71.28493464506414L60.637499999999996,22.407809677636475L60.699374999999996,24.72575162126037L61.070625,89.01261316664147L61.194374999999994,63.45713281322106L61.50375,51.25214625099602L61.75125,42.194520325060516L62.431875,38.2832594127722L62.49375,67.99706469401247L62.555625,52.015135566050674L62.6175,71.20195510953725L62.679375,84.11574004476384L62.74125,62.280522177680865L62.926875,17.157762132004546L62.988749999999996,57.09987705271535L63.050625000000004,46.00098495683955L63.916875000000005,38.27278300479032L63.97875,65.82720498259924L64.10249999999999,115.2620741445325L64.164375,81.0923207806648L64.22625,62.53559315668764L64.35,49.164925922464356L64.47375,98.61916246265831L64.5975,71.42014769685206L64.72125,86.10742759797903L64.96875,91.23890073978951L65.0925,99.21330236732625L65.34,38.87036250821242L65.71124999999999,63.17668121717957L65.83500000000001,50.12803316080278L66.0825,42.08621612967354L66.268125,99.8649348686094L66.391875,70.28513504977141L67.0725,54.45083829774145L67.134375,11.278307872542L67.32000000000001,51.992062825050134L67.44375000000001,41.803665781530995L67.505625,37.159086758112544L67.69125,34.32364174039563L67.815,33.53862512884148L68.248125,63.87559110701493L68.5575,50.88460584500447L68.866875,78.38935150561296L68.92875,92.75432008493331L69.0525,65.66259016121762L69.42375,49.2045160248781L69.485625,68.62806540293771L69.67125,52.78950166570341L69.795,10.18814663752847L69.856875,18.364180836239303L70.10437499999999,22.37437416805968L70.35187499999999,24.549706323157782L70.66125,27.29321759507031L70.723125,-4.5913509814809625L70.78500000000001,9.031598818506998L71.094375,43.22337438650684L71.218125,36.197063302370616L71.465625,32.840887001103866L71.65125,30.069187645467753L71.77499999999999,30.87245443016676L72.20812500000001,30.158522683453114L72.39375,30.016581998555946L72.703125,28.05303425631882L72.76499999999999,28.69592382997068L73.0125,56.097600567325856L73.26,46.991581956230846L73.755,73.24755382555641L73.87875,86.76904571837322L74.0025,63.816773418197144L74.064375,81.9735388997389L74.188125,59.419129725059705L74.37375,75.46891557917644L74.86875,87.80587524519215L75.17812500000001,66.71428120837581L75.301875,88.35065237135964L75.48750000000001,65.76731872524967L75.549375,49.849443265273L75.673125,8.773741115889184L75.796875,16.525116768016066L75.85875,22.647540529184056L75.9825,26.109575718502008L76.044375,25.684371576684125L76.168125,26.63264499378693L76.23,28.68234236971343L76.291875,-4.368393529210878L76.60125,8.296787955678099L76.84875000000001,18.08563113240626L76.9725,23.58515176716536L77.71499999999999,-7.151365719914363L78.21000000000001,36.800197765880405L78.271875,32.707446153049126L78.519375,57.62835182832288L78.705,45.17532986013977L78.890625,41.12222557439968L78.9525,34.24848920018367L79.07624999999999,30.738670276514203L79.138125,31.262727911006927L79.2,84.03958329858733L79.32375,28.975418627322L79.695,27.75161851648108L80.685,60.29903631891058L80.74687499999999,15.114863140816055L80.80875,50.90736019687695L80.870625,41.05839703055481L81.05624999999999,35.67235008920128L81.55125,0.09341344841792365L81.613125,10.28329483183997L82.17,16.24483589615552L82.41749999999999,19.242227887978775L82.479375,61.161264185461555L82.603125,47.26712809088556L82.66499999999999,6.796272268421607L82.85062500000001,15.465392579521266L82.9125,19.964838117292846L83.09812500000001,95.18088613735287L83.221875,35.928659537125746L83.593125,67.10058246919552L83.964375,71.33559923268169L84.15,53.15513489267392L84.27374999999999,77.31345221715485L84.52125000000001,57.852631959330616L84.76875000000001,45.436208387024145L84.830625,71.68000600051377L85.635,55.30152874444512L85.75874999999999,80.34951172439395L86.00625,59.79879973530118L86.13000000000001,89.72902349352444L86.315625,97.03076750844939L86.43937500000001,136.16994459836891L86.50125,148.09470066452016L86.686875,136.02092322886534L86.74874999999999,93.53145448287958L87.05812499999999,69.24468018484494L87.12,83.53621299465846L87.24375,122.66981387514544L87.30562499999999,91.56957140708094L87.73875,100.72133374437627L87.80062500000001,74.55315241947731L87.924375,90.73989156436667L88.3575,68.82287471100582L88.48125,60.10595814992081L88.543125,49.28871386230823L88.605,11.114488904637035L89.038125,20.47936698310674L89.22375,26.03517392427661L89.409375,61.69035042953592L89.656875,16.67457628379294L89.8425,89.61677659772471L90.02812499999999,65.81108654861004L90.33749999999999,18.149397507821845L90.52312500000001,23.72695840403206L90.646875,25.234109166705583L90.77062500000001,55.36257949961019L90.83250000000001,43.96187617219701L91.45125,106.21080541898827L91.513125,74.26150551748748L91.69874999999999,56.84119169925826L91.94624999999999,13.186894841376311L92.19375000000001,20.65194109934952L92.3175,21.656619207198347L92.44125000000001,95.65130616599569L92.565,155.05893029665273L92.75062500000001,137.48883272163644L92.93625,126.51496936705638L92.998125,87.57419964485446L93.05999999999999,128.41576025603825L93.18375,88.16878525988045L93.493125,97.35398947398716L93.616875,36.95144940780269L93.740625,99.77388332594663L94.17375,71.17685604114716L94.42124999999999,89.33986132413239L94.545,65.01358458716649L94.97812499999999,105.52191399223379L95.03999999999999,106.70122574096828L95.101875,75.55690689702988L95.47312500000001,25.516960893806168L95.65875,72.57725375045136L96.2775,89.64614651484413L96.40124999999999,65.34844292552683L96.525,84.4638942700021L96.64874999999999,95.6949249315175L96.958125,100.1778262827161L97.08187500000001,132.5783199620876L97.14375000000001,121.77612037174625L97.205625,117.86860193402283L97.2675,117.76467509520937L97.329375,152.52836039253728L97.576875,104.8927355113637L97.7625,135.17282725746426L98.07187499999999,156.65326671392867L98.13375,160.58547598200806L98.195625,142.29927380002965L98.44312500000001,159.2688039697714L98.87625,141.8223272098376L99.12375,161.58710186413873L99.185625,169.23374028201994L99.2475,146.00084468472426L99.433125,168.45042075126426L99.556875,178.51460003188834L99.68062499999999,120.61297116321354L99.74249999999999,180.26419613129653L99.86625000000001,185.258383730085L100.299375,156.8808127791793L100.36125,140.80716846303045L100.546875,161.3204272234012L100.60875,160.31201444702148L100.73249999999999,172.5922612992976L100.794375,178.91675162069936L100.98,153.93045983754135L101.10375,162.14374526287637L101.413125,140.35049790423275L101.84625,162.66217979910513L102.155625,133.06901219230113L102.2175,93.68039370923584L102.83625,102.44198214088107L102.96,147.8045447532786L103.14562500000001,132.4556731598097L103.57875,124.73903147814244L103.7025,148.28331099550925L103.764375,102.33994276936835L103.82625,137.2637131638746L104.07374999999999,151.20049281907293L104.1975,137.42595545800773L104.50687500000001,159.5325614245943L104.75437500000001,142.38477179315802L104.81625000000001,134.05616825167607L105.001875,158.10931228852064L105.496875,172.1273106303239L105.55875,150.81226965080552L105.620625,137.2078385924289L106.05375,158.65985062578488L106.30125,141.11577281161877L106.610625,131.15859363081893L106.73437500000001,156.726193541397L106.981875,138.28560809261165L107.91,184.9235210867869L108.03375,157.00350572786843L108.219375,140.90707761415493L108.28125,161.70984607457768L108.343125,205.76412480783253L108.6525,195.87937412555914L108.71437499999999,161.54652692237573L108.9,142.84898771949364L108.96187499999999,130.85223327829323L109.333125,151.02897757777822L109.580625,136.2870878969524L109.89,133.16520228557226L109.951875,164.6766216999942L110.01375,145.2345882966266L110.26125,161.90552738264844L110.446875,147.8411783211155L110.75625000000001,134.27828874691357L110.941875,125.83531410132574L111.25125,114.96552287241656L111.313125,143.32571255533094L111.49875,97.26485079792214L111.74624999999999,101.60503347867815L111.99374999999999,104.44758683149774L112.303125,41.55037284730118L112.6125,35.78233094715023L112.73625000000001,32.77300987763509L112.921875,96.10283053783405L112.98375,68.85165141953037L113.540625,52.53438823284052L114.159375,75.02034081605647L114.345,24.276898200988065L114.71624999999999,59.706474050550774L115.0875,47.22201562774634L115.335,71.86757066721272L115.396875,84.60294788973569L115.45875000000001,61.548200689032214L115.5825,47.435966487919785L116.015625,39.120751962594866L116.07749999999999,63.50316115727447L116.325,110.84163194263692L116.69624999999999,106.33145837606894L116.94375,106.08199875798815L117.12937500000001,111.13301099420092L117.376875,137.11508148947425L118.614375,126.19369322304902L118.861875,88.5409230707172L119.480625,66.30539544680981L119.79,82.54737033411654L119.91375,61.47566458516042L119.975625,16.47530595124931L120.0375,85.51223796715885L120.09937500000001,91.80491402710271L120.594375,65.97338216494703L120.965625,110.52541024285343L121.089375,77.6922383449496L121.15125,56.93769136981906L121.27499999999999,12.917047396677122L121.33687499999999,18.255994746130526L122.07937500000001,55.88159879141329L122.14125,43.35821739252376L122.265,36.33726217802102L122.69812499999999,62.6160433137988L122.94562499999999,110.23544226306893L123.13125000000001,107.4000856891214L123.37875,122.46619629215373L123.62625,84.29809195131762L123.688125,93.46535135374579L123.87375,66.69032100652709L124.30687499999999,80.11600856414012L124.36874999999999,60.77290690568659L124.430625,47.494366326404744L124.55437500000001,38.14761227443359L124.74000000000001,2.3701177221853076L125.4825,10.938018673613168L125.85375,47.54767842922802L126.03937499999999,40.536013004708536L126.10125000000001,39.08739020310308L126.286875,33.37167685163574L126.72000000000001,-1.4370958843032828L126.905625,11.587162271570213L126.9675,51.999629211086656L127.58624999999999,41.923955911286164L127.77187500000001,98.77507005180473L127.83375000000001,134.19415838287068L127.9575,92.5834662070436L128.20499999999998,66.40781710403385L128.266875,51.81657022739553L128.4525,71.60374314774292L128.7,82.41100288421366L129.009375,60.413613707503835L129.628125,47.14103062074255L129.69,40.799054877102975L129.751875,35.971651882842316L129.99937500000001,32.67568821457242L130.123125,138.2290857427459L130.618125,126.3245149503801L131.608125,86.338220076279L131.855625,64.21869149917411L132.103125,114.73437191948645L132.226875,80.9124910974363L132.4125,110.05150438652669L132.474375,46.700235378275025L132.78375,39.874627557437535L132.84562499999998,36.272425824107195L133.093125,2.3034715880852095L133.27875,13.745685693799148L133.4025,19.11676641552828L133.77375,53.95400718067215L134.02125,44.10192643834246L134.26875,38.267262453863324L134.51624999999999,35.646164251445846L134.701875,33.81463102955215L134.825625,32.087883889290794L135.196875,29.75581661146284L135.25875,61.62307896552554L135.320625,47.71407478222248L135.3825,68.53073777235333L135.691875,51.784603587296466L135.75375,71.01088295503715L135.81562499999998,22.120546930943707L136.24875,54.90031538343853L136.3725,44.218456594565055L136.55812500000002,39.29003101850661L136.681875,67.44691965903066L136.74375,52.63463727374621L136.805625,12.201853011854212L136.8675,-12.320049933997451L137.23875,5.541606901549385L137.48624999999998,14.592314017920318L137.548125,20.786058682405592L137.671875,125.03437601660981L137.98125000000002,54.62185853479405L138.47625,75.05489676056244L138.53812499999998,55.69062052797959L138.785625,43.21197283699507L138.909375,36.53543519755838L139.21875,33.03267063156837L139.40437500000002,30.70226196239956L139.46625,28.760188765011105L140.146875,27.619104592014477L140.765625,55.90891331673213L140.889375,47.034625756340354L141.07500000000002,38.55212996477177L141.3225,34.544309313373276L141.384375,60.1572056347863L141.44625,14.806620173599022L141.631875,-12.36963122421529L141.8175,4.2389746505745L142.065,40.50434273712205L142.3125,35.31282635478824L142.43625,61.17140761895018L143.488125,74.26333120936592L143.735625,23.567396574188972L143.92125,25.195878454016068L143.983125,56.09283760050461L144.16875,44.65880561112156L144.29250000000002,38.18528721658277L144.54,2.0181718416684116L144.66375,11.89103134925434L145.220625,17.91506951896893L145.46812500000001,50.13840591285371L146.025,9.471483759815264L146.334375,-15.287753006607216L146.39625,-30.615952385859725L146.458125,25.723291539863393L146.89125,26.449547386733542L147.2625,26.969809104084153L147.448125,26.694115006283134L147.63375000000002,27.544830972764004L147.7575,27.846313761223776L148.190625,26.70468538197841L148.43812499999999,-5.387591624485257L148.62375,6.880223333883796L148.995,50.432732435952275L149.056875,40.184772025235745L149.11875,36.04154966111124L149.30437500000002,33.64809598365969L149.61375,101.83490255902092L149.98499999999999,105.14238532203366L150.046875,75.35003901886624L150.665625,58.056160402380435L150.7275,77.64609478221853L150.97500000000002,90.88762592920192L151.03687499999998,67.82565433512782L151.09875,85.98445486632608L151.284375,63.07504499715066L151.408125,79.03726623732285L151.59375,90.34858685421014L151.779375,129.40988641240585L151.965,90.8239313732473L152.21249999999998,99.36847346205687L152.274375,101.22780141873051L152.398125,71.76911049648317L152.46,53.581987315111206L152.58375,69.65892465600635L152.64562500000002,54.16912087401998L153.264375,76.68377371412807L153.388125,57.32887747451423L153.511875,75.43297301133866L153.88312499999998,55.84770239059976L153.945,12.210888921592355L154.130625,19.066274916018816L155.739375,51.54476370543313L155.986875,86.03470363529415L156.29625000000001,89.75521755752865L156.42000000000002,64.55143727843246L156.605625,17.351832162873414L156.853125,84.49193829637188L156.91500000000002,91.75616799209595L157.1625,130.67964993888734L157.348125,123.15699026193515L157.59562499999998,85.63248767287999L158.02875,64.78888053848608L158.09062500000002,83.5803918982494L158.15249999999997,61.18276517998405L158.833125,83.1196388255385L158.895,95.87740254393339L159.01875,103.81272434449404L159.26624999999999,109.20811645577996L159.575625,79.70027693101004L160.070625,123.12455322478691L160.194375,149.2060024051245L160.318125,137.66473942008795L160.565625,130.56333231829376L160.689375,129.67859485935065L160.75125,154.7982511351116L160.87499999999997,139.32211706759793L161.060625,156.7690651060936L161.184375,142.56094486669102L161.431875,129.38011644300136L161.49374999999998,124.29993632087893L161.74125,125.25104000203757L161.803125,146.60593086720814L162.050625,161.335805834778L162.11249999999998,110.04167219339986L162.298125,113.91220738943233L162.36,163.04977034712095L162.54562499999997,145.78897419369926L163.1025,135.13426938513481L163.288125,159.5140356582744L163.906875,106.89947558948839L164.52562500000002,74.97915489949756L164.71124999999998,23.556507187629492L165.144375,53.74003102156207L165.57750000000001,43.62057037309725L166.258125,64.6173967329479L166.38187499999998,48.697872520876004L166.69125,40.59543108839701L167.00062499999999,66.07183786258598L167.124375,50.41345241378433L167.24812500000002,69.3486987488265L167.619375,87.86113535412612L167.743125,64.13953516943181L167.92875,17.22641900045047L167.99062500000002,22.339418048313398L168.361875,-7.8670282133513L168.609375,87.75882604073925L169.29,99.00392965764667L169.475625,69.16479590259205L169.66125,53.307427322767666L169.785,71.43217046273361L170.58937500000002,81.59775569373093L171.0225,58.94195717882119L171.20812500000002,48.03853452739488L171.76500000000001,72.83998301642941L172.074375,56.666398562299065L172.755,75.95969720716609L173.25,57.35627141643457L173.559375,45.24239385478112L173.62125,39.32852551340202L173.93062500000002,2.610438543919791L174.24,-18.534195288752926L174.425625,2.235565167869049L174.73499999999999,77.77323358502133L175.23,58.547659586484535L175.415625,48.42998885585708L175.725,73.98302852610438L175.84875,117.39677423142284L175.910625,113.94198151695619L175.9725,142.2454453047801L176.09625,202.42223154772682L176.4675,136.94639843321843L176.776875,97.4138205521937L176.900625,72.46075770560257L177.643125,83.08426414202891L177.766875,91.46963305139822L178.07625,64.6814475061507L178.4475,78.15364863627757L178.756875,123.03628581450391L178.880625,151.25602221173423L179.00437499999998,101.10257501339494L179.06625,73.46621839952586L179.251875,90.46324286175577L179.31375,98.45444225213461L180.365625,40.42798429811913L181.17,67.20390946127083L181.355625,86.15957592484692L181.603125,125.67589020822847L181.66500000000002,89.80568145441426L181.85062499999998,125.84955027702053L181.974375,99.2759640623211L182.03625,69.74877713734382L182.77875,85.30010619658148L183.27375,64.02297844009806L183.39749999999998,113.82853320475897L183.459375,113.31547420376732L183.706875,140.98766554126584L183.954375,128.63487412850796L184.201875,122.90552281882653L184.635,182.72408813352848L184.696875,187.59029981333524L184.944375,154.68927869452912L185.191875,139.90677182064624L185.50125000000003,131.34044351982163L185.625,149.8241033827764L185.810625,134.63814437454263L185.93437500000002,105.33278213723311L185.99625,110.23581209521546L186.11999999999998,111.71936952500788L186.24375,113.28623031532774L186.429375,82.05555053895625L186.676875,95.62478251406638L186.73874999999998,76.2982638378043L186.800625,40.42038950667146L186.924375,98.15205224178831L187.048125,103.74352762850147L187.3575,79.8779108463692L187.48125,122.82328698821516L187.543125,87.97924802488521L187.97625,97.88307965646507L188.1,72.70186340948902L188.28562499999998,110.31869396403776L189.646875,111.36660796590013L189.70875,116.1815345098586L189.8325,116.01953570553957L190.265625,117.35367201301726L190.389375,89.57972959377788L190.45125000000002,131.244539416423L190.760625,125.2743795477279L190.8225,121.8950642708543L190.884375,120.33126576353422L191.07,118.44994011279303L191.13187499999998,116.99977377883867L191.3175,151.3961627667774L191.75062499999999,138.43346402687834L191.87437500000001,162.41245794211858L191.99812500000002,197.44661609452297L192.92625,183.2884587584253L192.988125,155.2376058947036L193.483125,138.06357247143004L193.54500000000002,158.21462128484117L193.85437499999998,154.94121478750628L193.91625,171.2096201829755L193.978125,149.36088683240396L194.04,137.0546046561581L194.16375000000002,155.6125640538361L194.225625,171.15183849990984L194.28750000000002,180.8615934470012L194.47312499999998,163.98497261342308L195.15375,166.32619329424074L195.525,177.55538469649636L196.39125,192.3097372230891L196.824375,162.73645449299556L197.01000000000002,145.31464941980576L197.13375,134.13896374292912L197.319375,154.06942964674906L197.443125,107.1560376239118L197.566875,102.23793524806253L198.12375,99.42078032326658L198.37125,106.85113302644194L198.495,75.00256161189505L198.61875,56.311162762941564L198.74249999999998,13.53978831521921L198.804375,19.005433552439065L199.051875,54.92862566162419L199.11375,45.865333273796196L199.17562500000003,79.07507041950609L199.48499999999999,128.7695500735937L199.79437499999997,151.168138547762L199.85625,135.33711080387505L200.10375,94.05709591253837L200.41312499999998,68.80199044359424L200.475,80.144001085192L200.536875,60.46567845262888L200.59875,76.21816916123328L200.7225,107.37869380818827L200.784375,105.02804556488593L201.27937500000002,74.04036717845604L201.34125,81.59318984583564L201.40312500000002,59.410379450808165L201.7125,45.74118689430551L201.774375,67.89544310300458L202.021875,81.7211275561387L202.2075,124.7094673051676L202.393125,87.03747914784293L202.51687500000003,64.8258760666805L202.640625,51.34437411788541L202.764375,42.00246116882319L202.82625,35.873926347289995L202.888125,33.52951800930175L203.1975,30.086542404889947L203.259375,27.913206805614244L204.001875,26.808238203147685L204.125625,54.07207375309354L204.55875,43.75488941928025L204.93,69.92203190408469L204.991875,20.726657403556285L205.6725,24.006486901944466L205.734375,55.712806184886624L206.29125000000002,45.830568631492376L206.415,72.38769251603486L206.53875,55.01421035825373L206.724375,44.08021103175287L206.91,68.92461557168845L207.09562499999998,87.79936923408879L207.34312500000001,64.78488806454807L207.405,48.23700901764637L207.714375,7.96412077925483L207.83812500000002,16.822144002164524L207.96187500000002,56.00288993100874L208.02374999999998,78.41900287011366L208.27125,62.36842271346694L208.395,81.44475104394556L208.580625,123.56947326008125L209.075625,110.16888166769989L209.199375,111.65225307288554L209.26125,111.56282666438189L209.385,146.66670079693145L209.69437499999998,102.8306097491174L209.81812499999998,107.63820593736108L209.941875,138.5765888643998L210.065625,159.7438351639674L210.56062500000002,110.42719049798231L211.055625,112.20130669286993L211.1175,149.27335796216127L211.24125,166.33648501092057L211.303125,173.02377408197304L211.48874999999998,168.24371208101977L211.6125,146.2017122668285L211.674375,134.8577232453886L211.85999999999999,155.2498140478942L212.23125000000002,137.91288776673983L212.47875,130.99613001769114L212.540625,127.33360818639592L213.406875,123.65752448402806L213.5925,121.14126083581199L213.778125,123.28444202958215L213.96375,121.15958221932681L214.21125,125.90605023491638L214.396875,123.80606337787891L214.45875,149.277764848392L214.52062500000002,134.33823018870766L214.891875,127.4527170251086L215.20125,122.925558273396L215.263125,153.66983940551896L215.325,134.38500199911817L215.57250000000002,91.47258983895033L215.69625,33.50617693634354L215.75812499999998,32.685816546233696L216.129375,-1.7449640081763622L216.315,8.653927039899617L216.43875,80.26025243600407L216.500625,59.4581235896636L216.62437500000001,14.165526083543464L216.68625,80.00998487713929L216.80999999999997,126.44961998277395L216.995625,87.0562805205012L217.18125,65.1701433756834L217.67625,49.14579642298364L217.738125,40.718682640824454L218.04749999999999,35.64250527869915L218.29500000000002,32.81987709910425L218.356875,29.89325152050523L218.66625,59.754889252710306L219.470625,79.13191912385427L219.5325,59.208931219561194L219.59437499999999,112.88780957496091L219.65625,78.12430769556623L220.213125,57.957290798792556L220.64624999999998,117.47581119990355L220.831875,125.61778065586458L221.14125,121.24052437402509L221.326875,117.84036485165363L221.698125,119.76082197589602L221.76,84.14250177975711L221.82187499999998,95.7205679952506L222.13125,99.44671774558036L222.37875,105.74738604567301L222.5025,73.55447661970399L222.688125,56.086879814783636L222.935625,47.121639912795956L222.9975,39.09561293139526L223.059375,63.90488684406101L223.18312500000002,52.70887061586417L223.430625,186.88672871341873L223.49249999999998,116.00099328039124L223.61625,115.52568965719956L223.678125,113.02797008751384L223.925625,109.18746144422256L223.98749999999998,45.3710724197116L224.049375,71.99979085642431L224.35875000000001,55.04031665487395L224.4825,12.792362572469607L225.10125,47.883021984024154L225.163125,7.917132130577133L225.410625,18.13342784730662L225.534375,56.68885370545429L225.84375,47.45815965885702L225.9675,86.52807366114955L226.153125,64.79551135320266L226.276875,49.46196573103592L226.895625,134.70652561124774L227.08125,91.05515932192067L227.266875,131.29900450052924L227.57625000000002,118.22995469288064L227.76187499999997,115.2148562197999L228.133125,111.28890150137363L228.31875,121.53225884140413L228.4425,111.26195371229441L228.751875,77.5878454568876L228.87562499999999,89.03082917542463L229.123125,63.41886412700584L229.185,48.25758413406858L229.68,71.99408262249342L229.9275,21.858610713387762L229.989375,-8.009098465865923L230.175,5.571210795405324L230.29875,15.635655366591152L230.4225,89.00101954394808L230.731875,96.68123024725224L230.979375,197.10239049210136L231.474375,227.5825194845333L231.59812499999998,148.91774319706764L231.969375,101.51137660296112L232.711875,104.74705141625384L232.835625,139.8501532224236L232.959375,95.02747230454789L233.145,69.01883466822301L233.330625,53.290946174938476L233.51625,73.42822415684861L233.578125,54.27976855595187L233.8875,75.57369968619281L234.3825,84.1759424351006L234.75375,92.32334453257478L234.93937499999998,34.16648587002352L235.00125,32.474756916019516L235.49625,63.03824988747982L235.99124999999998,83.38340577120486L236.548125,30.171724870504654L236.795625,63.611169922678414L237.22875,50.55291043796326L237.60000000000002,40.72162931002856L237.72375,36.87757748883039L237.909375,32.9339512432419L238.033125,32.00694757746933L238.404375,82.69026215563125L238.52812500000002,88.97768932744576L238.59,65.10643567898698L238.96125,49.77173523598669L239.085,40.39816728482743L239.14687500000002,86.37686813494393L239.20875,91.3109107791785L239.45624999999998,65.98339285140885L239.518125,19.033281112961348L239.58,23.86148757459021L239.70375,27.234960300820084L239.889375,28.81110700700197L240.013125,60.641741859699955L240.32250000000002,76.00251936367906L240.38437499999998,58.82717413135345L240.57,46.38187766935445L240.879375,73.34283772691316L240.94125,57.73393937743394L241.065,77.10939420037865L241.12687499999998,58.1117067247419L241.43625,46.27772644385581L241.56,6.796868353038329L241.745625,85.1823760542659L241.8075,63.43667137418363L241.86937500000002,49.701606823721406L242.05499999999998,41.30619835185755L242.240625,4.075605355804139L242.42625,13.98790648975577L242.67374999999998,20.081298956954406L242.92125000000001,22.84902491156374L243.04500000000002,25.640639476498034L243.354375,56.104281099886194L243.41625,71.23985846424361L243.54000000000002,55.17797560664114L243.72562499999998,75.8043539581103L244.035,57.8208171548579L244.15875000000003,111.70324637765034L244.65375,107.61070658278761L244.71562500000002,75.27621327274575L244.963125,55.928199617512384L245.086875,45.68279759690468L245.39624999999998,67.76929265162987L245.52,81.51584847446651L245.64375,27.339294057622702L245.7675,56.693202265590756L245.953125,88.30954450012968L246.26250000000002,65.04714460544514L246.324375,51.891947828001896L246.38625,43.422629493450785L246.44812499999998,37.81403443857723L246.51,63.00279418421756L246.571875,80.70267394235897L246.819375,90.48098504637991L246.94312499999998,66.39127516619934L247.06687499999998,79.33730136868746L247.2525,60.02477594638148L247.438125,48.42894636663823" style="fill: none;" fill="none"></path></g></g></g></g><g opacity="0.2"><g><g><g><path stroke="rgb(255, 112, 67)" stroke-width="2px" d="M33.4125,195.76864647498496L33.845625,114.66148910522462L33.9075,165.50472705547625L33.969375,-51.29876583172725L34.093125,123.53697016789364L34.27875,124.99939410869891L34.65,28.856119273259083L34.711875,30.92836955143856L34.77375,30.490324842012846L34.835625,114.57525030282827L35.021249999999995,27.158855086106517L35.083125,23.573956269484295L35.145,31.084543638962966L35.268750000000004,115.90401552640475L35.330625,97.144936136099L35.701874999999994,30.80129664494441L36.01125,32.50413903456469L36.444375,-53.40971407798619L37.06312500000001,126.33724858210637L37.310625,-52.90114636604601L37.496249999999996,29.6518545297476L37.558125000000004,24.455784900371835L37.681875,25.927453906719496L38.115,29.776086396437424L38.424375000000005,114.47466606727014L38.671875,108.50096177321214L38.73375,112.67056943453275L38.857499999999995,26.953786028348482L38.98125,25.908070432222807L39.3525,31.923839774498575L39.414375,-53.407060990883764L39.8475,148.9022721510667L39.97125,27.353749377910898L40.033125,117.13198876014121L40.21874999999999,26.674387682401225L40.651875,31.463554969200715L40.8375,30.67507553100586L40.96125,25.03793317354643L41.085,-53.52454920227713L41.45625,28.29359339200533L41.518125,133.79469240628754L41.580000000000005,28.647518392709593L41.889375,32.82333790705754L42.3225,29.978065109252938L42.384375000000006,110.30636725792517L42.44625,26.35174008882963L42.693749999999994,114.31233725914588L42.755625,36.77148989163912L42.8175,126.0362541785607L43.250625,108.45491303663988L43.43625,108.71674575805663L43.498125,109.0371444115272L43.56,30.218582241351793L43.621875,28.446936827439533L43.745625000000004,106.19077570988581L43.993125,30.62957734328049L44.116875,114.51802438589243L44.240625,199.99166776216947L44.488125,-53.47224235488819L44.550000000000004,117.73719775860127L44.611875,33.82859855064979L44.7975,31.209533808781543L45.106875,114.51385891254131L45.725625,27.640985254140993L46.035,32.39309437091533L46.096875000000004,194.71121873121996L46.15875,26.3906732412485L46.901250000000005,32.55128886883075L46.963125,151.8708938598633L47.025,34.81373819204477L47.705625,113.59872207641602L47.89125,114.39629076444186L48.015,33.35818053025466L48.13875,108.00863606379582L48.386250000000004,110.75577093271109L48.571875000000006,33.375278707651L48.7575,258.2422911423903L48.88125,32.01820176931528L49.190625,265.91658888596754L49.314375,146.6851600060096L49.376250000000006,209.89876309908354L49.871249999999996,117.89985897357646L49.995,109.85770111083984L50.2425,77.65335669884315L50.49,196.25672360933743L50.61375,171.02070711576022L50.675625,113.5861737177922L50.86125,104.36083444448619L51.789375,106.73284818209135L51.85125,110.92713705209584L52.160624999999996,33.70049726046048L52.284375,109.17268330500676L52.34625,184.49760272686297L52.7175,250.06148845966047L52.841249999999995,112.09086227416992L53.088750000000005,116.42547877385066L53.33625,109.92056755652796L53.398125,114.69394032404973L53.46,111.53252264169546L53.521874999999994,110.56879207904522L53.58375,104.46385979285606L53.645625,170.07862454927886L54.32625,106.57781154926008L54.82125,27.84067866985614L55.06875,29.568950183574973L55.192499999999995,-48.6466740021339L55.31625,28.61102115924541L55.501875,101.62593630277193L55.81125,28.273841153658346L55.935,30.3287699185885L56.244375000000005,100.6004611675556L56.55375,110.2836181640625L56.615625,29.606969217153694L56.986875,28.28627005357008L57.048750000000005,262.3871760441707L57.29625,26.130855736365678L57.54375,110.79648038423979L57.853125,29.217268929114706L57.915,25.255654467069185L57.976875,31.38549129779522L58.100625,102.68583632249099L58.348124999999996,24.48413297213041L58.410000000000004,25.98933871342585L58.533750000000005,30.883556952843293L58.78125,178.76996260422928L58.905,29.5252127133883L59.152499999999996,167.04312673715447L59.461875,33.642378000112686L59.709375,101.56374505849985L59.77125,28.046048971322865L59.895,30.38183036217323L60.01875,-50.44729269834665L60.26625,114.51503272423376L60.328125,100.47131071824293L60.637499999999996,-50.907877773504985L60.699374999999996,28.202664536696222L61.070625,185.44290548471307L61.194374999999994,25.123912283090448L61.50375,32.94466640765851L61.75125,28.608081436157235L62.431875,32.416368044339684L62.49375,112.5677726158729L62.555625,28.042241874107955L62.6175,99.98218442476713L62.679375,103.48641744760366L62.74125,29.527695377056414L62.926875,-50.526377936509924L62.988749999999996,117.01304943378156L63.050625000000004,29.35264681302584L63.916875000000005,26.6804800767165L63.97875,107.15883794931264L64.10249999999999,189.41437788743238L64.164375,29.837690734863273L64.22625,34.70050172072191L64.35,29.108925071129434L64.47375,172.8005172729492L64.5975,30.62162554814265L64.72125,108.13834744966945L64.96875,98.93611045250525L65.0925,111.17490480863131L65.34,-51.64404728045829L65.71124999999999,99.63615928063025L65.83500000000001,30.555061076237607L66.0825,30.023490582979647L66.268125,186.53301297701324L66.391875,25.915435321514426L67.0725,30.699393169696524L67.134375,-53.48048776525719L67.32000000000001,113.06269525381235L67.44375000000001,26.521070216252255L67.505625,30.1922182229849L67.69125,30.070474213820237L67.815,32.3611002115103L68.248125,109.3810400742751L68.5575,31.398127951988805L68.866875,119.6464699965257L68.92875,114.30177295391377L69.0525,25.02499527564416L69.42375,24.51740482036884L69.485625,97.76338947002705L69.67125,29.03165605985201L69.795,-53.713885904733964L69.856875,30.628232134305513L70.10437499999999,28.38966416579026L70.35187499999999,27.81270455580491L70.66125,31.40848450293907L70.723125,-52.41820384630789L70.78500000000001,29.46602351848896L71.094375,94.51103773850663L71.218125,25.657596676166246L71.465625,27.80662254920372L71.65125,25.9116386120136L71.77499999999999,32.077354607215284L72.20812500000001,29.087625063382653L72.39375,29.80367097121019L72.703125,25.107712642963126L72.76499999999999,29.660258190448477L73.0125,97.20011567335862L73.26,33.33255403958833L73.755,112.63151162954478L73.87875,107.05128355759841L74.0025,29.38836496793306L74.064375,109.20868712205154L74.188125,25.587515963040865L74.37375,99.54359436035156L74.86875,106.31131474421575L75.17812500000001,35.0768901531513L75.301875,120.80520911583532L75.48750000000001,31.89231825608474L75.549375,25.97263007530799L75.673125,-52.83981210818658L75.796875,28.152180246206427L75.85875,31.831176170936004L75.9825,31.302628502478964L76.044375,25.046565363957324L76.168125,28.0550551194411L76.23,31.756888433603134L76.291875,-53.94449737759735L76.60125,27.294560183011576L76.84875000000001,32.768895897498496L76.9725,31.834432719304004L77.71499999999999,-53.25614195053393L78.21000000000001,102.72754299457256L78.271875,26.568318733802215L78.519375,95.00971034123349L78.705,26.495796907865092L78.890625,35.04256914578951L78.9525,23.937884638859668L79.07624999999999,25.473941891009996L79.138125,32.048814362746015L79.2,163.20486637995793L79.32375,-53.62082837957602L79.695,25.915918350219727L80.685,109.12016302255483L80.74687499999999,-52.66139662632577L80.80875,104.5961057809683L80.870625,26.284952281071583L81.05624999999999,27.593279677170965L81.55125,-53.274991512757076L81.613125,25.568116906973025L82.17,25.187147492628835L82.41749999999999,23.73831587571365L82.479375,124.0398186316857L82.603125,26.425923949021556L82.66499999999999,-53.91001146527439L82.85062500000001,28.469073046170756L82.9125,26.714006423950195L83.09812500000001,208.0049581674429L83.221875,-52.94968036321492L83.593125,113.8584668673002L83.964375,77.68812437791091L84.15,25.88443838266226L84.27374999999999,113.55092820387618L84.52125000000001,28.661401572594283L84.76875000000001,26.811573028564453L84.830625,111.0457024207482L85.635,30.73381286034217L85.75874999999999,117.92148619431717L86.00625,28.972731751662042L86.13000000000001,134.62435913085938L86.315625,107.98338353083685L86.43937500000001,194.8787102332482L86.50125,165.981834763747L86.686875,117.91025707538311L86.74874999999999,29.797251363900994L87.05812499999999,32.81451873779297L87.12,104.97351220937875L87.24375,181.37021519587591L87.30562499999999,44.919207704984224L87.73875,114.44897725031926L87.80062500000001,35.300880432128906L87.924375,115.0200002817007L88.3575,35.94734943096455L88.48125,47.03058330829327L88.543125,33.06284743088943L88.605,-46.146848531869736L89.038125,34.5266841008113L89.22375,34.36888433603139L89.409375,115.17311518742488L89.656875,-50.8490849348215L89.8425,199.0300770686223L90.02812499999999,30.10255147493803L90.33749999999999,-53.34313605336042L90.52312500000001,32.09329974834736L90.646875,27.494835310715896L90.77062500000001,100.55528499896708L90.83250000000001,26.860821181077224L91.45125,199.58419928917516L91.513125,26.33755566523625L91.69874999999999,30.710720971914444L91.94624999999999,-52.29455044544658L92.19375000000001,31.849510486309352L92.3175,23.163636368971613L92.44125000000001,206.64333660419172L92.565,244.1703664926382L92.75062500000001,111.13368635911209L92.93625,110.05417433518632L92.998125,29.163045061551607L93.05999999999999,189.67810117281402L93.18375,27.798322765643785L93.493125,111.13179579514726L93.616875,-53.652360691474016L93.740625,194.00753420316258L94.17375,28.28131511394794L94.42124999999999,116.58436924861027L94.545,28.524169481717614L94.97812499999999,166.28440809983474L95.03999999999999,108.47019336407003L95.101875,28.840428631122297L95.47312500000001,-49.5429581110294L95.65875,143.16769303541918L96.2775,115.24948566143328L96.40124999999999,28.901887541550852L96.525,113.13707128671498L96.64874999999999,112.54147092379056L96.958125,106.90217830951396L97.08187500000001,181.17906048114483L97.14375000000001,105.57282098623423L97.205625,112.00732427743765L97.2675,117.60878483698919L97.329375,204.67388833852914L97.576875,33.439298189603356L97.7625,180.5929648766151L98.07187499999999,188.87392589862532L98.13375,166.4837898841271L98.195625,114.86997052706205L98.44312500000001,184.72309922438404L98.87625,115.6526120699369L99.12375,191.23426384559045L99.185625,180.70369790884166L99.2475,111.1515012887808L99.433125,202.12478485107422L99.556875,193.61086895282452L99.68062499999999,33.760527860201314L99.74249999999999,269.741033583421L99.86625000000001,192.74966512826774L100.299375,114.31445635282076L100.36125,116.69670198880709L100.546875,192.09031536395733L100.60875,158.7993952824519L100.73249999999999,191.01263157771186L100.794375,188.403487102802L100.98,116.45102216280424L101.10375,174.46367340087892L101.413125,107.6606268662673L101.84625,196.12970264141376L102.155625,88.6792607820951L102.2175,34.59746598463792L102.83625,115.58436478834886L102.96,215.848388671875L103.14562500000001,109.43236576960638L103.57875,113.16406895564153L103.7025,183.5997302715595L103.764375,33.42489043015699L103.82625,189.64936875563404L104.07374999999999,172.1056623018705L104.1975,116.76414941641L104.50687500000001,192.69247037447414L104.75437500000001,116.66308734600362L104.81625000000001,121.56326293945312L105.001875,194.18902834378756L105.496875,193.15430814302883L105.55875,118.83970818152794L105.620625,116.80119200486403L106.05375,190.8378686758188L106.30125,114.79965609036961L106.610625,116.22282485961914L106.73437500000001,195.07759340726412L106.981875,110.62472991943359L107.91,254.88039057804988L108.03375,115.12348268949069L108.219375,116.76243544358474L108.28125,192.91399876521186L108.6525,187.98174591064455L108.71437499999999,110.04725611760065L108.9,114.80267891517052L108.96187499999999,112.85710161649266L109.333125,181.29409402700568L109.580625,114.17425337571366L109.89,128.4823738685021L109.951875,211.9437508216271L110.01375,116.07153819157527L110.26125,186.91193601168118L110.446875,126.7446547288161L110.75625000000001,113.93395438561073L110.941875,113.17085213294396L111.25125,98.66083602905273L111.313125,185.86599707970254L111.49875,28.17355816180889L111.74624999999999,108.11530749981219L111.99374999999999,108.71141686072717L112.303125,-52.79544812899369L112.6125,27.130268096923828L112.73625000000001,28.25902827336237L112.921875,191.0975615281325L112.98375,27.974882742074822L113.540625,28.05849345280573L114.159375,108.74926969088041L114.345,-51.83826572161454L114.71624999999999,112.85083782489482L115.0875,28.495327993539657L115.335,108.83590322641226L115.396875,103.70601372352014L115.45875000000001,26.966079887977006L115.5825,26.267615186251128L116.015625,26.647930174607506L116.07749999999999,100.07677494929388L116.325,181.84933812068059L116.69624999999999,99.56619802621694L116.94375,105.7078093308669L117.12937500000001,118.70952934852014L117.376875,176.0881872323843L118.614375,109.8116108234112L118.861875,32.061767842219425L119.480625,32.952104010948766L119.79,106.91033266507662L119.91375,29.868105961726265L119.975625,-51.02523199961736L120.0375,189.06763599102314L120.09937500000001,101.24392811701848L120.594375,27.226084371713494L120.965625,177.35345235971303L121.089375,28.442480498093826L121.15125,25.805870907123282L121.27499999999999,-53.1139185630358L121.33687499999999,26.26441577031063L122.07937500000001,112.32000485933743L122.14125,24.573145294189445L122.265,25.805829356266894L122.69812499999999,102.03421501746546L122.94562499999999,181.66454068697416L123.13125000000001,103.14705082820011L123.37875,145.06536219670224L123.62625,27.04593544006348L123.688125,107.21624045738807L123.87375,26.527775485698992L124.30687499999999,100.25453990055965L124.36874999999999,31.758254418006317L124.430625,27.576555457481973L124.55437500000001,24.127481196476865L124.74000000000001,-51.2961241061871L125.4825,23.78987010075495L125.85375,102.46216806265025L126.03937499999999,30.01851486792932L126.10125000000001,36.914456000694855L126.286875,24.798106824434726L126.72000000000001,-53.650254988211856L126.905625,31.123549505380478L126.9675,112.61832962036134L127.58624999999999,26.810445961585405L127.77187500000001,184.05174126258262L127.83375000000001,187.32279087946966L127.9575,30.167427943303032L128.20499999999998,27.144343449519234L128.266875,29.92969991243803L128.4525,101.28450252826396L128.7,98.62189248891977L129.009375,27.41752994243916L129.628125,27.23215599060058L129.69,31.28609126164363L129.751875,28.73054739145133L129.99937500000001,27.73174271216759L130.123125,296.559182035006L130.618125,108.46765876183144L131.608125,26.35877776512732L131.855625,31.03939863351676L132.103125,190.5078925499549L132.226875,30.179669864361106L132.4125,153.76002432016224L132.474375,-48.32666813410247L132.78375,29.636215826181267L132.84562499999998,30.869123224111696L133.093125,-48.64995976594779L133.27875,30.909006852370037L133.4025,27.173387498121986L133.77375,106.20986832838793L134.02125,29.32380532484788L134.26875,29.515266477144678L134.51624999999999,31.71451694781963L134.701875,31.06733119671162L134.825625,29.497763178898744L135.196875,26.257715694720925L135.25875,109.42397249661958L135.320625,26.85056850726788L135.3825,99.75573225754958L135.691875,26.665402309711173L135.75375,99.85030200664814L135.81562499999998,-51.21495710519644L136.24875,104.06996806218073L136.3725,28.19566841125488L136.55812500000002,31.897392654418937L136.681875,109.68225261981671L136.74375,30.416213695819554L136.805625,-48.44732338098381L136.8675,-49.102904352775006L137.23875,32.33409215486967L137.48624999999998,28.168374692476718L137.548125,30.076675679133487L137.671875,281.40685201791615L137.98125000000002,-50.9969176879296L138.47625,105.70445409921498L138.53812499999998,26.644206179105318L138.785625,24.494001300518324L138.909375,26.520628738403325L139.21875,27.77852378258338L139.40437500000002,27.206648958646333L139.46625,25.847078968928418L140.146875,25.90747833251953L140.765625,98.34362640380859L140.889375,33.72319441575271L141.07500000000002,25.82838627741886L141.3225,28.53257833627554L141.384375,98.5765501169058L141.44625,-53.21925801818189L141.631875,-53.13400832093678L141.8175,29.151883462759162L142.065,94.90239486694337L142.3125,27.525551781287557L142.43625,99.95927951519307L143.488125,93.90121659498946L143.735625,-52.47650537857644L143.92125,27.638601273756752L143.983125,102.43827632023739L144.16875,27.507757627047035L144.29250000000002,28.475009624774632L144.54,-52.23250122070314L144.66375,26.70032061063327L145.220625,26.95112677354079L145.46812500000001,98.4734105036809L146.025,-51.528899469742406L146.39625,-53.608251454738465L146.458125,110.23215742844802L146.89125,27.53893115703876L147.2625,27.750201680110045L147.448125,26.280573859581583L147.63375000000002,28.820904922485347L147.7575,28.298537943913388L148.190625,24.99224281311035L148.43812499999999,-53.526007134180816L148.62375,25.281945771437424L148.995,115.76149608905497L149.056875,24.81283140916091L149.11875,29.826716114924512L149.30437500000002,30.057915467482342L149.61375,204.1151124220628L149.98499999999999,110.10360946655273L150.046875,30.661519564115075L150.665625,32.115342477651744L150.7275,107.03099635197567L150.97500000000002,110.74992264967699L151.03687499999998,33.23269694401668L151.09875,113.22265566312349L151.284375,28.71093019338754L151.408125,102.98059809758112L151.59375,107.31556777954101L151.779375,188.00183574969952L151.965,32.94499881450947L152.21249999999998,112.18528659527118L152.274375,104.01679335374098L152.398125,27.581074113112233L152.46,26.301302543053254L152.58375,93.774330667349L152.64562500000002,30.934415201040412L153.264375,110.4557529742901L153.388125,28.296533115093528L153.511875,102.58911631657527L153.88312499999998,26.469796459491437L153.945,-53.24433128191873L154.130625,29.349353907658497L155.739375,100.26249688955454L155.986875,137.76961353008562L156.29625000000001,95.3359884408804L156.42000000000002,26.745766859788166L156.605625,-53.447575510465164L156.853125,185.2020974966196L156.91500000000002,102.65251253568209L157.1625,189.0648728590745L157.348125,111.8730007465069L157.59562499999998,29.345733789297253L158.02875,33.52346983689527L158.09062500000002,111.76765893789438L158.15249999999997,27.586325102586013L158.833125,116.0249492938702L158.895,115.01404812152568L159.01875,115.71570704533504L159.26624999999999,117.30120462270884L159.575625,35.43851764385517L160.070625,188.26096766545223L160.194375,188.328176175631L160.318125,120.35284494253305L160.565625,119.91122166560247L160.689375,128.351488670936L160.75125,192.477735548753L160.87499999999997,116.10791596632735L161.060625,182.93948716383713L161.184375,121.24876450758714L161.431875,109.60887380746695L161.49374999999998,116.67966613769532L161.74125,126.67769552377554L161.803125,178.63826716496396L162.050625,183.4306182861328L162.11249999999998,33.10047173133264L162.298125,119.71801018348106L162.36,236.75611478365383L162.54562499999997,119.89777996356669L163.1025,119.15221217228817L163.288125,196.08368506798377L163.906875,27.977635486309335L164.52562500000002,27.098673864511337L164.71124999999998,-53.577464380172586L165.144375,99.01531677246093L165.57750000000001,28.441379400400013L166.258125,96.11263627272385L166.38187499999998,24.818586202768177L166.69125,28.441768939678493L167.00062499999999,104.28644802386943L167.124375,26.92587424058181L167.24812500000002,97.75156825138973L167.619375,115.62979026207556L167.743125,28.557134892390323L167.92875,-53.14325525302153L167.99062500000002,30.00891662010779L168.361875,-53.176697605848304L168.609375,231.197607421875L169.29,115.87158508300782L169.475625,24.406095270010134L169.66125,29.521374453031108L169.785,98.61928517268254L170.58937500000002,96.84613354022687L171.0225,24.958259406456587L171.20812500000002,31.683400550255406L171.76500000000001,110.04215574998122L172.074375,32.40602188110352L172.755,104.89964517446666L173.25,29.451132730337296L173.559375,27.07157751230094L173.62125,30.45772300133338L173.93062500000002,-52.466691910303574L174.24,-50.25114603776198L174.425625,33.390205852801984L174.73499999999999,191.0797362107497L175.23,29.70929858867938L175.415625,33.25348275991587L175.725,112.31258803147537L175.84875,182.51739278940053L175.910625,108.75979244525615L175.9725,184.70064098651594L176.09625,292.68741091214696L176.4675,38.73264876145582L176.776875,38.11495373065655L176.900625,35.0311634357159L177.643125,99.01952379666844L177.766875,104.04768641545222L178.07625,24.499169188279364L178.4475,98.36195033146785L178.756875,190.36024158184344L178.880625,193.58562680757962L179.00437499999998,25.872404215886036L179.06625,32.01168347872221L179.251875,115.95877955510066L179.31375,110.44124133770282L180.365625,-46.61170263290407L181.17,107.36779720599836L181.355625,114.5930756202111L181.603125,184.9503616333008L181.66500000000002,36.00036832369291L181.85062499999998,179.91535351093L181.974375,59.415584740271925L182.03625,25.45799674987792L182.77875,108.62709978543795L183.27375,32.10728680537297L183.39749999999998,188.5368653517503L183.459375,112.5458857022799L183.706875,182.4959525475135L183.954375,110.10568700937125L184.201875,114.31149585430438L184.635,272.4519361055814L184.696875,194.88961733304535L184.944375,105.33774701631985L185.191875,117.73301150982196L185.50125000000003,118.49095106858474L185.625,177.54959317720852L185.810625,111.85920586219201L185.93437500000002,61.37473878126879L185.99625,117.590357032189L186.11999999999998,113.9447056696965L186.24375,115.63652150080755L186.429375,35.20953087439903L186.676875,115.97863047673152L186.73874999999998,47.3084858234112L186.800625,-13.396421990027799L186.924375,184.74954634446365L187.048125,112.13074070857121L187.3575,44.07948567317082L187.48125,187.24135120098407L187.543125,35.71318957989032L187.97625,112.7388271038349L188.1,34.93003903902493L188.28562499999998,166.74393979586088L189.646875,112.93847896869364L189.70875,123.40392432579627L189.8325,115.776537499061L190.265625,119.35487647423376L190.389375,47.91881596491887L190.45125000000002,193.74175415039062L190.760625,116.31913974468524L190.8225,116.82609135554387L190.884375,117.98556800255407L191.07,115.62795163668119L191.13187499999998,114.82452427790716L191.3175,202.9907462486854L191.75062499999999,118.98941591702975L191.87437500000001,198.38094881497898L192.121875,185.09801260141225L192.18374999999997,176.3467997624324L192.864375,190.83930218036357L192.92625,176.27884333683895L192.988125,113.1613265991211L193.483125,112.30252233651967L193.54500000000002,188.44119450495793L193.85437499999998,150.0311050415039L193.91625,195.6122282761794L193.978125,116.58778680654672L194.04,118.59518139178937L194.16375000000002,183.44950315035305L194.28750000000002,195.4262258676382L194.47312499999998,138.6700413630559L195.15375,169.83802431546724L195.525,194.3991717998798L196.39125,194.66187708928035L196.824375,118.37653039785532L197.01000000000002,119.18194181002102L197.13375,117.37543522761419L197.319375,183.96512850247896L197.443125,36.78594958965596L197.566875,94.86078168428861L198.12375,95.19504793607273L198.37125,117.99666208120493L198.495,27.229704490074738L198.61875,28.274064489511346L198.74249999999998,-50.61727335636432L198.804375,27.203901408268848L199.051875,108.8134138254019L199.11375,32.27039469205417L199.17562500000003,128.88967613807094L199.48499999999999,203.31126955472507L199.79437499999997,184.7660212590144L199.85625,111.59056918804461L200.10375,32.13707357553335L200.41312499999998,30.919332240178036L200.475,97.15701704758865L200.536875,30.94819450378418L200.59875,99.84690522413987L200.7225,154.11948077862078L200.784375,101.50207319993241L201.27937500000002,27.55884959881122L201.34125,92.92242384690505L201.40312500000002,26.13616385826698L201.7125,25.237398059551527L201.774375,101.1268274160532L202.021875,102.45965423583984L202.2075,189.19197692871094L202.393125,30.529496911855837L202.51687500000003,31.508471444936905L202.640625,31.122121194692756L202.764375,27.98959174522987L202.82625,26.681124114990226L202.888125,30.012905502319327L203.1975,24.92207899827223L203.259375,24.65320340670072L204.001875,25.150785299447865L204.125625,94.9678270780123L204.55875,28.279112918560312L204.93,109.17274563129132L204.991875,-53.066404347236336L205.6725,28.926231149526735L205.734375,103.27228510929987L206.29125000000002,31.007212301400994L206.415,112.22337834284856L206.53875,28.95398712158203L206.724375,27.67921204200158L206.91,106.1912223815918L207.09562499999998,116.1114997276893L207.34312500000001,30.26316631023701L207.405,23.415190447293803L207.714375,-52.44521157833247L207.83812500000002,30.10917883652908L207.96187500000002,114.77400882427509L208.02374999999998,112.04317227877102L208.27125,38.292552478496845L208.395,110.05924353966346L208.580625,186.75655658428485L209.075625,90.06799427912786L209.199375,113.87731018066405L209.26125,111.42868705162634L209.385,199.32251199575572L209.69437499999998,37.07647317739634L209.81812499999998,114.84960021972655L209.941875,184.98416325495793L210.065625,191.4947046133188L210.56062500000002,36.45222349900465L211.055625,114.86248098520133L211.1175,204.88143486609826L211.303125,183.0547076885517L211.48874999999998,161.07361907958983L211.6125,113.13871254554162L211.674375,117.84173971322866L211.85999999999999,185.83795025165264L212.23125000000002,111.90749834500826L212.47875,120.62099339411809L212.540625,121.83982543945312L213.406875,118.14339893047625L213.5925,117.36686536348783L213.778125,126.49921382023737L213.96375,117.97229250394382L214.21125,133.02575225830077L214.396875,120.65608309232272L214.45875,187.48531705416164L214.52062500000002,111.92892819918117L214.891875,117.12444727971004L215.20125,116.13482014582708L215.263125,199.78626110370342L215.325,105.45774588951697L215.57250000000002,27.103971598698536L215.69625,-53.44344241756659L215.75812499999998,31.455275961068963L216.129375,-53.391134839791505L216.315,24.252263612013596L216.43875,187.66974053016077L216.500625,28.254930320152877L216.62437500000001,-53.77337017563675L216.80999999999997,196.10907264122594L216.995625,27.966271327092095L217.18125,32.340937658456646L217.67625,25.109275993934038L217.738125,28.07801196758563L218.04749999999999,28.02823923551119L218.29500000000002,28.58593482971191L218.356875,25.503313152606676L218.66625,104.54734585101788L219.470625,108.19746393057017L219.5325,29.324449363121627L219.59437499999999,193.4061271080604L219.65625,25.979054876474237L220.213125,27.706765453632062L220.64624999999998,206.75359180157L220.831875,137.8307348398062L221.14125,114.67463995126577L221.326875,112.74012556809647L221.698125,122.64150766225961L221.76,30.715021485548757L221.82187499999998,113.08766731849083L222.13125,105.03594237107498L222.37875,115.19838849581204L222.5025,25.265112480750453L222.688125,29.88548460740309L222.935625,33.67378005981446L222.9975,27.05657245929425L223.059375,101.11879771305965L223.18312500000002,35.914846273568955L223.430625,388.1535158597506L223.49249999999998,9.672390130849989L223.61625,114.81273422241212L223.678125,109.28139073298527L223.925625,103.4266984792856L223.98749999999998,-50.35351111705485L224.049375,111.94286851149339L224.35875000000001,29.601105352548455L224.4825,-50.579568551136916L225.10125,100.51901110135593L225.163125,-52.03170264959337L225.410625,33.457871422400835L225.534375,114.52199249267578L225.84375,33.61211858896109L225.9675,145.13294466458834L226.153125,32.1966678912823L226.276875,26.46164729778583L226.895625,262.57336543156555L227.08125,25.578109887930065L227.266875,191.664772268442L227.57625000000002,98.62637998140775L227.76187499999997,110.69220851017879L228.133125,105.39996942373423L228.31875,136.89729485144983L228.4425,95.85649601862981L228.751875,27.076683073777428L228.87562499999999,106.19530475323018L229.123125,25.000916554377632L229.185,25.515664144662704L229.68,107.5988303551307L229.9275,-53.34459715027075L229.989375,-52.81066223474651L230.175,25.941674687312194L230.29875,30.732322223369895L230.4225,199.04906580998346L230.731875,108.20154630220854L230.979375,347.734130859375L231.474375,276.75456883357117L231.59812499999998,30.920578765869145L231.969375,30.40182671180138L232.711875,109.60056363619292L232.835625,192.50480593167816L232.959375,27.793450927734384L233.145,30.00587821373572L233.330625,29.699113435011643L233.51625,103.6341411297138L233.578125,25.55708515460674L233.8875,107.51459638155423L234.3825,97.07930655846228L234.75375,104.54444767878606L234.93937499999998,-53.06880212380337L235.00125,29.93716348501352L235.49625,108.88348934467022L235.99124999999998,113.90113959679236L236.548125,-49.64579648054562L236.795625,113.770337500939L237.22875,30.965521210890554L237.60000000000002,25.974707618126505L237.72375,31.11149975703312L237.909375,27.01851187485914L238.033125,30.616442078810476L238.404375,158.7152340228741L238.52812500000002,98.40883008516751L238.59,29.29955520629882L238.96125,26.76968457148625L239.085,26.33781535808857L239.14687500000002,155.34491941011868L239.20875,98.71197474553034L239.45624999999998,27.992115959754354L239.518125,-51.39188649470988L239.58,31.103797267033496L239.70375,32.29516939016488L239.889375,31.175327066274782L240.013125,108.387694138747L240.32250000000002,99.04368561964768L240.38437499999998,33.06415628286509L240.57,27.713932976355917L240.879375,113.78427781325121L240.94125,34.32059185321514L241.065,106.17257643479567L241.12687499999998,29.615175511286807L241.43625,28.52675602252667L241.56,-52.424418783187875L241.745625,202.76063760610728L241.8075,30.81811435406025L241.86937500000002,29.099009998028098L242.05499999999998,28.713085644061746L242.240625,-51.77028413827601L242.42625,28.85635819068322L242.67374999999998,29.221387657752402L242.92125000000001,27.000613843477694L243.04500000000002,29.828061323899494L243.354375,101.79974353496846L243.41625,93.94322451077976L243.54000000000002,31.085151320237376L243.72562499999998,106.743921485314L244.035,30.845511949979333L244.15875000000003,192.52689021183895L244.65375,101.47189689049355L244.71562500000002,26.77447330768291L244.963125,26.906179134662327L245.086875,30.314694565993097L245.39624999999998,100.8990352337177L245.52,102.13568220872145L245.64375,-53.925537567643005L245.7675,100.72406457754282L245.953125,135.7340578519381L246.26250000000002,30.153544763418342L246.324375,32.15915266183707L246.38625,30.718651991624103L246.44812499999998,29.401141856266904L246.51,100.78593380267804L246.571875,107.25249357957107L246.819375,105.14845170241136L246.94312499999998,30.256710345928493L247.06687499999998,98.75634067241961L247.2525,31.055987812922545L247.438125,31.035201997023353" style="fill: none;" fill="none"></path></g></g></g></g></g></g><g transform="translate(51, 177)" clip-path="url(#clip_1)"><clipPath id="clip_1"><rect width="278" height="23"></rect></clipPath><g><g><line x1="0" y1="0" x2="0" y2="5" style="visibility: inherit;" fill="rgb(0, 0, 0)" stroke="rgb(204, 204, 204)" stroke-width="1px"></line><line x1="30.9375" y1="0" x2="30.9375" y2="5" style="visibility: inherit;" fill="rgb(0, 0, 0)" stroke="rgb(204, 204, 204)" stroke-width="1px"></line><line x1="61.875" y1="0" x2="61.875" y2="5" style="visibility: inherit;" fill="rgb(0, 0, 0)" stroke="rgb(204, 204, 204)" stroke-width="1px"></line><line x1="92.8125" y1="0" x2="92.8125" y2="5" style="visibility: inherit;" fill="rgb(0, 0, 0)" stroke="rgb(204, 204, 204)" stroke-width="1px"></line><line x1="123.75" y1="0" x2="123.75" y2="5" style="visibility: inherit;" fill="rgb(0, 0, 0)" stroke="rgb(204, 204, 204)" stroke-width="1px"></line><line x1="154.6875" y1="0" x2="154.6875" y2="5" style="visibility: inherit;" fill="rgb(0, 0, 0)" stroke="rgb(204, 204, 204)" stroke-width="1px"></line><line x1="185.625" y1="0" x2="185.625" y2="5" style="visibility: inherit;" fill="rgb(0, 0, 0)" stroke="rgb(204, 204, 204)" stroke-width="1px"></line><line x1="216.5625" y1="0" x2="216.5625" y2="5" style="visibility: inherit;" fill="rgb(0, 0, 0)" stroke="rgb(204, 204, 204)" stroke-width="1px"></line><line x1="247.5" y1="0" x2="247.5" y2="5" style="visibility: inherit;" fill="rgb(0, 0, 0)" stroke="rgb(204, 204, 204)" stroke-width="1px"></line><line x1="278.4375" y1="0" x2="278.4375" y2="5" style="visibility: inherit;" fill="rgb(0, 0, 0)" stroke="rgb(204, 204, 204)" stroke-width="1px"></line></g><g transform="translate(0, 8)"><text x="0" y="0" dx="0em" dy="0.95em" style="text-anchor: middle; visibility: hidden; font-family: Roboto, sans-serif; font-size: 12px; font-weight: 200;" fill="rgb(33, 33, 33)" stroke="none" stroke-width="1px">-500</text><text x="30.9375" y="0" dx="0em" dy="0.95em" style="text-anchor: middle; visibility: inherit; font-family: Roboto, sans-serif; font-size: 12px; font-weight: 200;" fill="rgb(33, 33, 33)" stroke="none" stroke-width="1px">0</text><text x="61.875" y="0" dx="0em" dy="0.95em" style="text-anchor: middle; visibility: inherit; font-family: Roboto, sans-serif; font-size: 12px; font-weight: 200;" fill="rgb(33, 33, 33)" stroke="none" stroke-width="1px">500</text><text x="92.8125" y="0" dx="0em" dy="0.95em" style="text-anchor: middle; visibility: inherit; font-family: Roboto, sans-serif; font-size: 12px; font-weight: 200;" fill="rgb(33, 33, 33)" stroke="none" stroke-width="1px">1k</text><text x="123.75" y="0" dx="0em" dy="0.95em" style="text-anchor: middle; visibility: inherit; font-family: Roboto, sans-serif; font-size: 12px; font-weight: 200;" fill="rgb(33, 33, 33)" stroke="none" stroke-width="1px">1.5k</text><text x="154.6875" y="0" dx="0em" dy="0.95em" style="text-anchor: middle; visibility: inherit; font-family: Roboto, sans-serif; font-size: 12px; font-weight: 200;" fill="rgb(33, 33, 33)" stroke="none" stroke-width="1px">2k</text><text x="185.625" y="0" dx="0em" dy="0.95em" style="text-anchor: middle; visibility: inherit; font-family: Roboto, sans-serif; font-size: 12px; font-weight: 200;" fill="rgb(33, 33, 33)" stroke="none" stroke-width="1px">2.5k</text><text x="216.5625" y="0" dx="0em" dy="0.95em" style="text-anchor: middle; visibility: inherit; font-family: Roboto, sans-serif; font-size: 12px; font-weight: 200;" fill="rgb(33, 33, 33)" stroke="none" stroke-width="1px">3k</text><text x="247.5" y="0" dx="0em" dy="0.95em" style="text-anchor: middle; visibility: inherit; font-family: Roboto, sans-serif; font-size: 12px; font-weight: 200;" fill="rgb(33, 33, 33)" stroke="none" stroke-width="1px">3.5k</text><text x="278.4375" y="0" dx="0em" dy="0.95em" style="text-anchor: middle; visibility: hidden; font-family: Roboto, sans-serif; font-size: 12px; font-weight: 200;" fill="rgb(33, 33, 33)" stroke="none" stroke-width="1px">4k</text></g><line x1="0" y1="0" x2="278.4375" y2="0" fill="rgb(0, 0, 0)" stroke="rgb(204, 204, 204)" stroke-width="1px"></line></g></g></g></g></svg>