<svg viewBox="0 0 330 200" xmlns="http://www.w3.org/2000/svg"><g><g><g><g><g><line x1="41.171875" y1="177" x2="36.171875" y2="177" style="visibility: inherit;" fill="rgb(0, 0, 0)" stroke="rgb(204, 204, 204)" stroke-width="1px"></line><line x1="41.171875" y1="165.2" x2="36.171875" y2="165.2" style="visibility: inherit;" fill="rgb(0, 0, 0)" stroke="rgb(204, 204, 204)" stroke-width="1px"></line><line x1="41.171875" y1="153.4" x2="36.171875" y2="153.4" style="visibility: inherit;" fill="rgb(0, 0, 0)" stroke="rgb(204, 204, 204)" stroke-width="1px"></line><line x1="41.171875" y1="141.6" x2="36.171875" y2="141.6" style="visibility: inherit;" fill="rgb(0, 0, 0)" stroke="rgb(204, 204, 204)" stroke-width="1px"></line><line x1="41.171875" y1="129.8" x2="36.171875" y2="129.8" style="visibility: inherit;" fill="rgb(0, 0, 0)" stroke="rgb(204, 204, 204)" stroke-width="1px"></line><line x1="41.171875" y1="118.00000000000001" x2="36.171875" y2="118.00000000000001" style="visibility: inherit;" fill="rgb(0, 0, 0)" stroke="rgb(204, 204, 204)" stroke-width="1px"></line><line x1="41.171875" y1="106.19999999999997" x2="36.171875" y2="106.19999999999997" style="visibility: inherit;" fill="rgb(0, 0, 0)" stroke="rgb(204, 204, 204)" stroke-width="1px"></line><line x1="41.171875" y1="94.40000000000002" x2="36.171875" y2="94.40000000000002" style="visibility: inherit;" fill="rgb(0, 0, 0)" stroke="rgb(204, 204, 204)" stroke-width="1px"></line><line x1="41.171875" y1="82.6" x2="36.171875" y2="82.6" style="visibility: inherit;" fill="rgb(0, 0, 0)" stroke="rgb(204, 204, 204)" stroke-width="1px"></line><line x1="41.171875" y1="70.8" x2="36.171875" y2="70.8" style="visibility: inherit;" fill="rgb(0, 0, 0)" stroke="rgb(204, 204, 204)" stroke-width="1px"></line><line x1="41.171875" y1="59.00000000000001" x2="36.171875" y2="59.00000000000001" style="visibility: inherit;" fill="rgb(0, 0, 0)" stroke="rgb(204, 204, 204)" stroke-width="1px"></line><line x1="41.171875" y1="47.20000000000001" x2="36.171875" y2="47.20000000000001" style="visibility: inherit;" fill="rgb(0, 0, 0)" stroke="rgb(204, 204, 204)" stroke-width="1px"></line><line x1="41.171875" y1="35.40000000000001" x2="36.171875" y2="35.40000000000001" style="visibility: inherit;" fill="rgb(0, 0, 0)" stroke="rgb(204, 204, 204)" stroke-width="1px"></line><line x1="41.171875" y1="23.599999999999994" x2="36.171875" y2="23.599999999999994" style="visibility: inherit;" fill="rgb(0, 0, 0)" stroke="rgb(204, 204, 204)" stroke-width="1px"></line><line x1="41.171875" y1="11.800000000000017" x2="36.171875" y2="11.800000000000017" style="visibility: inherit;" fill="rgb(0, 0, 0)" stroke="rgb(204, 204, 204)" stroke-width="1px"></line><line x1="41.171875" y1="0" x2="36.171875" y2="0" style="visibility: inherit;" fill="rgb(0, 0, 0)" stroke="rgb(204, 204, 204)" stroke-width="1px"></line></g><g transform="translate(31.171875, 0)"><text x="0" y="177" dx="0em" dy="0.3em" style="text-anchor: end; visibility: hidden; font-family: Roboto, sans-serif; font-size: 12px; font-weight: 200;" fill="rgb(33, 33, 33)" stroke="none" stroke-width="1px">0.6</text><text x="0" y="165.2" dx="0em" dy="0.3em" style="text-anchor: end; visibility: inherit; font-family: Roboto, sans-serif; font-size: 12px; font-weight: 200;" fill="rgb(33, 33, 33)" stroke="none" stroke-width="1px">0.8</text><text x="0" y="153.4" dx="0em" dy="0.3em" style="text-anchor: end; visibility: hidden; font-family: Roboto, sans-serif; font-size: 12px; font-weight: 200;" fill="rgb(33, 33, 33)" stroke="none" stroke-width="1px">1</text><text x="0" y="141.6" dx="0em" dy="0.3em" style="text-anchor: end; visibility: inherit; font-family: Roboto, sans-serif; font-size: 12px; font-weight: 200;" fill="rgb(33, 33, 33)" stroke="none" stroke-width="1px">1.2</text><text x="0" y="129.8" dx="0em" dy="0.3em" style="text-anchor: end; visibility: hidden; font-family: Roboto, sans-serif; font-size: 12px; font-weight: 200;" fill="rgb(33, 33, 33)" stroke="none" stroke-width="1px">1.4</text><text x="0" y="118.00000000000001" dx="0em" dy="0.3em" style="text-anchor: end; visibility: inherit; font-family: Roboto, sans-serif; font-size: 12px; font-weight: 200;" fill="rgb(33, 33, 33)" stroke="none" stroke-width="1px">1.6</text><text x="0" y="106.19999999999997" dx="0em" dy="0.3em" style="text-anchor: end; visibility: hidden; font-family: Roboto, sans-serif; font-size: 12px; font-weight: 200;" fill="rgb(33, 33, 33)" stroke="none" stroke-width="1px">1.8</text><text x="0" y="94.40000000000002" dx="0em" dy="0.3em" style="text-anchor: end; visibility: inherit; font-family: Roboto, sans-serif; font-size: 12px; font-weight: 200;" fill="rgb(33, 33, 33)" stroke="none" stroke-width="1px">2</text><text x="0" y="82.6" dx="0em" dy="0.3em" style="text-anchor: end; visibility: hidden; font-family: Roboto, sans-serif; font-size: 12px; font-weight: 200;" fill="rgb(33, 33, 33)" stroke="none" stroke-width="1px">2.2</text><text x="0" y="70.8" dx="0em" dy="0.3em" style="text-anchor: end; visibility: inherit; font-family: Roboto, sans-serif; font-size: 12px; font-weight: 200;" fill="rgb(33, 33, 33)" stroke="none" stroke-width="1px">2.4</text><text x="0" y="59.00000000000001" dx="0em" dy="0.3em" style="text-anchor: end; visibility: hidden; font-family: Roboto, sans-serif; font-size: 12px; font-weight: 200;" fill="rgb(33, 33, 33)" stroke="none" stroke-width="1px">2.6</text><text x="0" y="47.20000000000001" dx="0em" dy="0.3em" style="text-anchor: end; visibility: inherit; font-family: Roboto, sans-serif; font-size: 12px; font-weight: 200;" fill="rgb(33, 33, 33)" stroke="none" stroke-width="1px">2.8</text><text x="0" y="35.40000000000001" dx="0em" dy="0.3em" style="text-anchor: end; visibility: hidden; font-family: Roboto, sans-serif; font-size: 12px; font-weight: 200;" fill="rgb(33, 33, 33)" stroke="none" stroke-width="1px">3</text><text x="0" y="23.599999999999994" dx="0em" dy="0.3em" style="text-anchor: end; visibility: inherit; font-family: Roboto, sans-serif; font-size: 12px; font-weight: 200;" fill="rgb(33, 33, 33)" stroke="none" stroke-width="1px">3.2</text><text x="0" y="11.800000000000017" dx="0em" dy="0.3em" style="text-anchor: end; visibility: hidden; font-family: Roboto, sans-serif; font-size: 12px; font-weight: 200;" fill="rgb(33, 33, 33)" stroke="none" stroke-width="1px">3.4</text><text x="0" y="0" dx="0em" dy="0.3em" style="text-anchor: end; visibility: hidden; font-family: Roboto, sans-serif; font-size: 12px; font-weight: 200;" fill="rgb(33, 33, 33)" stroke="none" stroke-width="1px">3.6</text></g><line x1="41.171875" y1="0" x2="41.171875" y2="177" fill="rgb(0, 0, 0)" stroke="rgb(204, 204, 204)" stroke-width="1px"></line></g></g><g transform="translate(41, 0)" clip-path="url(#clip_0)"><clipPath id="clip_0"><rect width="288" height="177"></rect></clipPath><g><g><g><line x1="0" y1="0" x2="0" y2="177" fill="rgb(0, 0, 0)" stroke="rgb(66, 66, 66)" stroke-width="1px" opacity="0.25"></line><line x1="32.092013888888886" y1="0" x2="32.092013888888886" y2="177" fill="rgb(0, 0, 0)" stroke="rgb(66, 66, 66)" stroke-width="1px" opacity="0.25"></line><line x1="64.18402777777777" y1="0" x2="64.18402777777777" y2="177" fill="rgb(0, 0, 0)" stroke="rgb(66, 66, 66)" stroke-width="1px" opacity="0.25"></line><line x1="96.27604166666666" y1="0" x2="96.27604166666666" y2="177" fill="rgb(0, 0, 0)" stroke="rgb(66, 66, 66)" stroke-width="1px" opacity="0.25"></line><line x1="128.36805555555554" y1="0" x2="128.36805555555554" y2="177" fill="rgb(0, 0, 0)" stroke="rgb(66, 66, 66)" stroke-width="1px" opacity="0.25"></line><line x1="160.46006944444446" y1="0" x2="160.46006944444446" y2="177" fill="rgb(0, 0, 0)" stroke="rgb(66, 66, 66)" stroke-width="1px" opacity="0.25"></line><line x1="192.55208333333331" y1="0" x2="192.55208333333331" y2="177" fill="rgb(0, 0, 0)" stroke="rgb(66, 66, 66)" stroke-width="1px" opacity="0.25"></line><line x1="224.64409722222223" y1="0" x2="224.64409722222223" y2="177" fill="rgb(0, 0, 0)" stroke="rgb(66, 66, 66)" stroke-width="1px" opacity="0.25"></line><line x1="256.7361111111111" y1="0" x2="256.7361111111111" y2="177" fill="rgb(0, 0, 0)" stroke="rgb(66, 66, 66)" stroke-width="1px" opacity="0.25"></line><line x1="288.828125" y1="0" x2="288.828125" y2="177" fill="rgb(0, 0, 0)" stroke="rgb(66, 66, 66)" stroke-width="1px" opacity="0.25"></line></g><g><line x1="0" y1="177" x2="288.828125" y2="177" fill="rgb(0, 0, 0)" stroke="rgb(66, 66, 66)" stroke-width="1px" opacity="0.25"></line><line x1="0" y1="165.2" x2="288.828125" y2="165.2" fill="rgb(0, 0, 0)" stroke="rgb(66, 66, 66)" stroke-width="1px" opacity="0.25"></line><line x1="0" y1="153.4" x2="288.828125" y2="153.4" fill="rgb(0, 0, 0)" stroke="rgb(66, 66, 66)" stroke-width="1px" opacity="0.25"></line><line x1="0" y1="141.6" x2="288.828125" y2="141.6" fill="rgb(0, 0, 0)" stroke="rgb(66, 66, 66)" stroke-width="1px" opacity="0.25"></line><line x1="0" y1="129.8" x2="288.828125" y2="129.8" fill="rgb(0, 0, 0)" stroke="rgb(66, 66, 66)" stroke-width="1px" opacity="0.25"></line><line x1="0" y1="118.00000000000001" x2="288.828125" y2="118.00000000000001" fill="rgb(0, 0, 0)" stroke="rgb(66, 66, 66)" stroke-width="1px" opacity="0.25"></line><line x1="0" y1="106.19999999999997" x2="288.828125" y2="106.19999999999997" fill="rgb(0, 0, 0)" stroke="rgb(66, 66, 66)" stroke-width="1px" opacity="0.25"></line><line x1="0" y1="94.40000000000002" x2="288.828125" y2="94.40000000000002" fill="rgb(0, 0, 0)" stroke="rgb(66, 66, 66)" stroke-width="1px" opacity="0.25"></line><line x1="0" y1="82.6" x2="288.828125" y2="82.6" fill="rgb(0, 0, 0)" stroke="rgb(66, 66, 66)" stroke-width="1px" opacity="0.25"></line><line x1="0" y1="70.8" x2="288.828125" y2="70.8" fill="rgb(0, 0, 0)" stroke="rgb(66, 66, 66)" stroke-width="1px" opacity="0.25"></line><line x1="0" y1="59.00000000000001" x2="288.828125" y2="59.00000000000001" fill="rgb(0, 0, 0)" stroke="rgb(66, 66, 66)" stroke-width="1px" opacity="0.25"></line><line x1="0" y1="47.20000000000001" x2="288.828125" y2="47.20000000000001" fill="rgb(0, 0, 0)" stroke="rgb(66, 66, 66)" stroke-width="1px" opacity="0.25"></line><line x1="0" y1="35.40000000000001" x2="288.828125" y2="35.40000000000001" fill="rgb(0, 0, 0)" stroke="rgb(66, 66, 66)" stroke-width="1px" opacity="0.25"></line><line x1="0" y1="23.599999999999994" x2="288.828125" y2="23.599999999999994" fill="rgb(0, 0, 0)" stroke="rgb(66, 66, 66)" stroke-width="1px" opacity="0.25"></line><line x1="0" y1="11.800000000000017" x2="288.828125" y2="11.800000000000017" fill="rgb(0, 0, 0)" stroke="rgb(66, 66, 66)" stroke-width="1px" opacity="0.25"></line><line x1="0" y1="0" x2="288.828125" y2="0" fill="rgb(0, 0, 0)" stroke="rgb(66, 66, 66)" stroke-width="1px" opacity="0.25"></line></g></g></g><g><g><line x1="0" y1="212.4" x2="288.828125" y2="212.4" fill="rgb(0, 0, 0)" stroke="rgb(153, 153, 153)" stroke-width="1.5px"></line></g></g><g><g><line x1="32.092013888888886" y1="0" x2="32.092013888888886" y2="177" fill="rgb(0, 0, 0)" stroke="rgb(153, 153, 153)" stroke-width="1.5px"></line></g></g><g><g><g><g><g><path stroke="rgb(255, 112, 67)" stroke-width="2px" d="M32.45561640625,186.28230544328687L32.71491987847222,136.2678353354335L32.95657274305555,108.35010729833527L33.41484670138889,96.26162619796746L33.791606944444446,96.76149043713406L33.842633246527775,48.517436458413705L33.963941059027775,48.89758657064506L34.01689288194444,71.73398281104079L34.034864409722225,39.95149050209658L34.10739236111111,36.665293908482205L34.12504296875,3.701996254048186L34.25212734375,-112.39162349086882L35.362831944444444,-24.73716590839755L35.444345659722224,18.932144904924126L35.5085296875,17.1067749116418L35.6298375,-88.85932252151133L36.79221024305556,-13.384359017325199L37.304398784722224,28.92160376906902L37.50497387152778,51.742526246891785L37.51042951388889,91.88157701936103L38.023259895833334,114.98133984816229L38.256889756944446,126.12566106786205L38.29219097222222,128.47085211474214L38.350598437500004,125.8009064579042L38.38782517361111,127.07540401057098L38.78063142361111,124.50960966044924L39.204566927083334,113.10669229491724L39.37786380208333,129.2015452411404L40.03767560763889,108.45272775449294L40.09544123263889,85.45766890738562L40.25782682291667,118.00427564760868L40.85602196180555,136.05434195097774L41.04408116319445,137.49387737215704L41.49850407986111,152.44585341057146L41.55626970486111,108.40877921212461L41.580338715277776,131.06622228888978L41.60312404513889,148.06803581402664L41.61628177083333,133.546722548495L41.81621501736112,144.48560709554522L42.17243637152777,151.776391389366L42.94039826388889,156.49013379716814L42.95997439236111,144.92786491574944L43.30881458333334,145.4204762355215L43.47761857638889,134.17072056148714L43.50136666666666,134.48817787178913L43.55046744791667,123.88910524373358L43.86817838541667,138.63385559275835L43.93139965277778,134.29073616716315L43.965096267361105,137.30117301018865L43.98723975694444,126.82824185771838L44.18268012152778,132.80871789981782L44.20674913194444,136.2694579775921L44.41149618055556,135.01237355326364L44.55655208333333,94.48986513766496L44.61624322916666,89.00413213344122L44.836715364583334,104.90883176190678L45.10243723958333,130.2198805943908L45.12714809027778,136.47079307411798L45.23144713541667,137.40073728665524L45.40185572916666,148.09682212892062L45.57483168402778,114.57748525275524L45.613021180555556,131.10610012134157L45.96603333333333,129.9437919468894L46.29465555555556,142.45134926862804L46.30364131944444,138.56647926942878L46.32482204861111,139.81427106843216L46.44709262152778,151.18080913535252L47.14028012152778,-20.083815925648846L47.19579930555555,29.91030725399789L47.202217708333336,29.796314681530845L47.23270512152778,69.79932264146854L47.27314105902778,98.6055343464473L47.376156423611114,110.23176558467502L47.57576875,138.0990801409051L47.8703734375,148.96202344388755L47.918190538194445,144.22494142228956L48.05875355902778,156.455417386142L48.36202309027777,162.29456873383972L48.77087534722222,157.40978477744375L48.784353993055554,161.58298420875138L48.86458402777778,134.80639496784727L48.908229166666665,142.11054378116918L49.127417621527776,133.8329193053531L49.43518003472222,131.51065843211933L49.667847135416665,138.61630689208104L49.790438628472224,139.4352515977883L49.903081597222226,127.11408637775563L49.94480121527778,132.43242244966973L49.97336310763888,106.58186897425742L50.05808602430555,126.7596565865808L50.21822517361111,134.79774547477564L50.36296015625,138.33215977227687L50.687731336805555,105.13960267946719L50.98329878472222,118.77755572465419L51.43740078125,120.04951164524174L51.485859722222216,120.55892199874172L51.65498463541667,107.74022815346869L51.90658602430556,131.55968288970084L52.50991588541667,145.3186963676935L52.929037586805556,154.98113980528862L53.08596753472222,160.57767858646602L53.183848177083334,154.76253767098362L53.22749331597222,120.55089405110702L53.25156232638889,135.48437075931565L53.36677265625,133.60815066527564L53.48615494791667,132.49092896003273L53.49128967013889,140.39838004600253L53.861631510416665,143.6411971216872L53.88217039930555,140.3490208223745L53.97523723958333,134.96400415869263L54.103284374999994,130.15027421457594L54.11355381944444,116.02776500787155L54.17998428819445,113.89966172460207L54.257005121527776,137.90818407585317L54.383447656250006,135.45228025943095L54.67227578125,88.04332551497255L54.74544557291667,118.49889921389837L55.66488177083333,129.3850630810429L56.08304071180556,140.11367554966026L56.32084253472222,145.68239334287293L56.34266510416666,139.97129710115223L56.80703654513889,126.52400046108502L57.108059635416666,124.924409336557L57.15266753472223,137.00631771249175L57.19759635416667,112.41750328160882L57.46428098958334,139.38717907677628L57.51883741319444,123.22606446510873L58.31824947916667,123.2810878024478L58.56246970486111,139.0400857583272L59.018818142361106,125.81923602912352L59.13980503472222,144.18330903347447L59.56470329861111,150.46718846020767L59.76271102430556,123.69425537501375L59.820476649305554,129.01855537840487L59.82657413194444,145.8382512280271L59.902632204861106,63.28219531231672L59.97836935763888,103.832570218167L60.30410329861111,100.62034192032891L60.60031258680556,128.84599504439402L60.895880034722225,149.41675855617743L60.989267795138886,154.455135318643L61.03034557291667,114.90142301857838L61.23894366319444,117.07749546611525L61.43085390625,136.9702706017746L61.69818038194445,145.5850827120932L61.70235234374999,159.47039825816105L61.85799861111111,152.64276156842203L62.262999826388885,149.71499259245093L64.43980112847223,75.38739605290708L64.60635868055556,108.4869290181578L64.87785711805556,137.43624823979025L64.87946171875,146.60421599919488L65.08485060763888,150.95245034441288L65.44139288194445,159.7012210878428L65.57714210069445,36.37909691051817L65.60056927083333,42.91768609354602L65.61629435763889,84.11492021363799L65.81366024305555,-11.436527341116522L66.39901857638888,54.44798083692252L66.42019930555556,92.24781535380758L66.46801640625,128.21903483816192L66.63136475694444,114.13979259936934L66.70934835069444,127.45396638756348L67.3659509548611,93.12109347847318L67.40189401041667,119.05929957787521L67.7995140625,128.15405109262662L67.81491822916666,105.15064747533916L69.11432387152777,138.6599164784057L69.13518368055556,136.18855572581907L69.37009722222221,148.70789040589702L69.40058463541666,126.36902932563049L69.50969748263888,131.95939296387803L70.14544027777778,146.13094832601055L70.28985434027778,124.45094063104334L70.34697812499999,133.54438273800102L70.44485876736111,134.7141737597745L70.92174609375,107.23606151447063L71.65601137152778,130.24291503253798L71.71120963541667,140.72037588014138L72.23430946180555,141.72555210622508L72.35625911458334,149.32883665580962L73.04527465277776,150.65272988807808L73.58249496527777,155.93836779315262L73.58891336805554,146.52263167213792L74.13351484375,142.69764611906646L74.1999453125,108.30863222710393L74.45507682291667,117.45836679239332L74.66335399305555,97.23731127798119L74.8321579861111,128.30768252026772L75.41815815972222,118.95771442777952L75.44928741319444,131.47244651631738L75.47078906249999,143.28919459054603L75.53946597222222,154.94886313837608L76.37064913194445,150.70350315905714L76.44638628472222,139.60953419409455L76.9665978298611,148.9662746107713L77.09753324652779,160.96846979118203L77.13090894097222,117.23313786302099L77.44284331597223,139.0031481940394L77.80965503472223,143.84412701838284L78.54777135416667,153.8450755686347L78.87414713541666,161.11188508098033L78.90816467013889,145.47935673370782L79.21432248263889,154.70110701545968L79.22812204861111,155.27433154955443L80.20596571180556,160.23598704084716L80.52335572916667,153.74291474190332L80.93381258680556,153.64409887890207L80.97168116319445,128.14668181955926L81.27687621527778,135.90748527658053L81.68251927083332,147.16310606367628L81.81923124999999,108.55197841863179L82.35869800347223,115.6775859864971L82.71973315972221,136.48961506083137L83.21748029513888,124.19398371812419L83.3846796875,130.4423157813353L83.46362604166667,133.56045464290398L83.59905434027777,117.29712718256243L83.67126137152778,111.30007011370618L83.89975651041667,73.62467360661479L83.98833046875,107.5307220564249L84.04705885416666,94.36730642950316L84.05572369791668,125.0245239104973L84.39397352430555,138.88160497702043L84.87150269097222,133.34841504309702L85.04030668402777,146.37180762418586L85.22676128472222,141.9842783840208L85.66963107638888,147.47934033821278L85.80858949652777,140.02221105069074L86.18438697916667,109.90509190064759L86.20781414930555,115.51176523865514L86.73476501736111,134.7731699544266L86.76910347222223,141.8588374470517L86.80793480902777,151.27028330414564L87.86632942708334,140.80983420520468L88.03256605902779,155.16755684560206L88.06850911458334,128.7345161553959L88.23153654513888,129.91140763024927L88.26170303819444,144.8766949991014L88.55919600694443,146.14278141138712L88.61150598958334,126.86964331315613L89.2074546875,127.57867996601257L89.29602864583333,138.4210742372751L89.40225321180556,148.28356582036494L89.40546241319446,161.73461353606507L89.56945260416667,156.91441067115383L89.61855338541667,164.798028097486L89.69910434027778,167.4262093317124L89.75141432291666,116.78711708614902L89.8685501736111,101.64322215217157L90.27419322916667,107.08683705030563L90.33227977430556,30.7348586159866L90.40641232638889,68.39418060767183L90.42021189236111,100.2019349621983L91.62302057291667,80.68074250502895L91.72058029513889,105.80251775910564L91.80466137152777,131.9549432535774L91.99785529513888,149.1617193281535L92.04631423611112,152.87178479551577L92.12076770833333,131.49573657822194L92.7080515625,144.1427731484865L92.73276241319444,157.44956847016184L92.9275609375,155.686564621831L93.37010980902778,148.51175820440352L93.53121171875,126.94550488716543L93.66888645833333,137.0548363681208L93.86881970486111,131.87128145191497L94.07485043402778,136.52565531905546L94.17112647569444,119.11982058630022L94.42240694444445,127.50486827341099L94.64833472222222,144.06269351272215L94.73402039930555,146.20484972732322L95.39575772569444,152.82990774117147L95.74299331597221,164.9902644288673L95.82771623263889,170.09551877332532L96.03631432291667,159.49338386149887L96.13740416666667,144.20726809079457L96.16724973958334,142.61201402410867L96.1707798611111,158.87932918348912L96.19484887152778,127.65824103044869L96.3614064236111,116.94643798641803L96.44580842013889,129.11789451105858L96.67205711805556,123.53625147142093L96.8957384548611,114.43740512250709L97.1389959201389,132.03725957226067L97.80041232638888,137.49568935007636L98.26863480902777,150.7423130355524L98.42556475694444,157.78881739629787L98.5629185763889,134.81096158417157L98.64122309027778,138.11285884137206L99.0106021701389,102.54012718531644L99.2532177951389,121.62587223251553L99.6514796875,121.4049857819074L99.68902734375,140.97782181048353L99.76219713541667,150.74925727810836L99.8562267361111,131.4824694440745L100.20827612847224,110.1553100470294L100.29203628472222,99.56686114571032L100.31642621527777,124.90894194186652L100.59691041666667,135.59937456453397L100.61327734375,131.62141221049166L100.62322586805556,142.88746625711164L100.8533256076389,145.77928333359742L100.87161805555556,158.41487587975135L100.97206605902778,149.8630137865941L101.12033116319445,162.16823319108488L101.13477256944445,166.38452671236516L101.45537178819444,154.88099818150235L101.76955260416668,149.15685714674015L101.80902578125001,156.069016951275L101.82314626736111,165.86071533796317L101.90690642361112,169.12603447697833L101.95376076388888,144.50636391319202L102.3433578125,121.16381644056656L102.49547395833333,123.45261707571993L102.49964592013889,146.29685797850996L102.56479270833334,152.2946279535336L102.68963064236111,144.52673830089822L102.69123524305556,149.22239713131103L102.87415972222222,134.27711967145632L103.28012369791666,142.8757850475027L103.42999340277777,150.44342491071902L103.51985104166666,145.78830289030958L103.62639652777777,150.69587932100825L104.06669895833333,141.92592255873043L104.21496406249999,147.76605609776115L104.60199374999999,151.61575775934182L104.95179670138889,142.96448416228844L105.09043420138889,154.02001135537478L105.37252300347221,145.54105397814186L105.66969505208333,155.6113535067658L105.91616171874999,157.84247699148776L106.04838081597222,155.1241147540052L106.33849262152778,152.65007468354938L106.38342144097221,141.79518288309714L106.63566467013888,111.46053979119863L106.81826822916668,117.80965542150261L106.91743255208333,70.07909327121214L107.20048411458335,99.82832578999779L107.48546119791666,119.33662136663784L107.76305711805556,120.26334162872904L107.77364748263888,143.4359598035924L107.79932109375,138.61109485836698L108.09970234375,147.92461226112766L108.39077690972222,160.96662280158475L108.41484592013889,149.35102342841788L108.5072709201389,151.46197922752955L108.56856666666667,109.96083503560219L108.57466414930555,136.63049377915854L108.58108255208333,146.66999888132568L108.61221180555556,154.4302130777273L109.13338611111111,150.74894888392888L109.48094262152779,137.21303391928555L109.56438185763889,93.0221690301602L109.72227456597221,128.9577675655189L109.73639505208332,120.5775097939195L109.8756743923611,130.9650221403135L110.07592855902779,141.58531188343127L110.10192309027778,144.49429326638077L110.15294939236111,104.0209749161273L110.28773585069445,48.63734172457872L110.58587065972222,102.14521246119986L110.68150486111111,110.55598625281245L110.78708758680555,135.02927392923112L110.78869218749999,145.74929516198202L110.88207994791667,158.93898390699604L111.00082039930555,151.93833637576807L111.12758385416667,166.5722609158844L111.33297274305555,163.2030188534552L111.56788628472222,167.54849496208993L111.94560928819445,161.6037793655596L112.09066519097222,160.69741238709702L112.14008689236111,170.09954889509925L112.21325668402777,138.10899964269308L112.59322612847222,135.327837472536L112.87724045138889,127.04402872406115L113.20810911458334,140.210148656861L113.59513880208334,145.70754963189125L113.83967994791666,153.80059547203638L113.86406987847222,-12.19196884287683L113.99179609375001,67.31418779579826L114.35122664930556,97.42831237726229L114.53286744791667,131.22077642210016L114.68915555555556,137.99450533346945L114.84897378472222,147.04125789616475L115.0055828125,145.70074580558517L115.47733541666668,146.01407694845426L115.58131354166666,77.4116916753592L115.78060494791667,106.40104028330695L115.84414713541668,125.44630605188877L116.27674748263888,131.27055272941513L116.30883949652778,149.35894634178115L116.31814618055556,157.50074920326966L116.36403776041666,167.33164049905835L116.4725087673611,163.51422102047383L116.67853949652778,157.02078681226598L116.86274765625001,159.72287048480527L117.18783975694446,129.74513048637877L117.58706440972223,139.83149190133196L117.70516302083333,154.04404767146934L117.76485416666667,149.66943298215406L117.85342812500001,148.8819716217204L117.86433940972222,153.49316222680116L118.16953446180557,159.65378354080025L118.1997009548611,160.52611937336624L118.99847118055555,168.14621832259002L119.15026640625,169.55026218824088L119.74525234375001,158.40167121370138L119.771246875,164.40164998697938L119.88645720486112,62.53073661999524L120.37971145833335,87.60032765314948L120.48657786458334,124.99007598069889L120.87681675347221,147.53890615169752L120.89607196180556,149.22561873832078L120.94132170138889,149.25227985047536L121.01128229166666,129.96544400968097L121.35819696180556,133.49157482217515L121.78020694444444,147.91932887691715L121.80363411458333,149.16116693293128L122.03951041666666,157.1347594992821L122.09567144097221,133.99482107737686L122.151190625,151.0596489559354L122.52281614583333,116.92861303155074L122.65054236111112,18.972570193198035L122.83731788194444,55.3289385011117L122.94450520833334,59.71432549538138L123.07479878472222,103.9669282459135L123.3469390625,125.33096805709096L123.768628125,126.008505255565L124.34339609375,140.8455532113224L124.82188802083333,139.51492728468833L125.21052230902778,130.72361020610964L125.37643802083333,145.92885488251588L125.7034556423611,155.25091602551782L125.72559913194443,153.46303088514713L126.46275269097222,91.59294176488343L126.8131974826389,121.54305766814483L128.3837806423611,-91.47991246942564L128.42903038194444,16.791400519824744L128.5403896701389,76.62006646622226L128.66907864583334,111.57871215241553L128.84173368055556,125.0496730464542L129.01470963541666,140.30838025914696L129.11162751736111,136.96704429928698L129.2011642361111,152.3632635363593L130.0686113715278,147.66108485750286L130.13632552083334,152.79514562065557L130.3044876736111,158.48870017871354L130.32342196180554,152.85530808177646L130.60936180555555,119.67580974225434L130.63310989583334,133.6940124137654L130.71398177083333,132.11174346586787L130.88663680555555,140.14393946636153L130.93060286458334,146.90859674637576L131.38470486111112,121.45622778430617L131.39208602430557,137.66504837331198L131.4777717013889,127.20371176515233L131.60646067708333,146.3151948172701L131.77975755208334,162.76829518549755L131.91069296875,146.98781880899142L132.32435902777777,154.13725263335627L132.6584368923611,149.98595838581517L132.89912699652777,144.84443391820787L133.09071631944445,156.98994473851323L133.42864522569445,156.152686225394L133.62248098958332,161.46320622147297L133.63018307291665,150.49231411565052L134.12311640625,135.98211805313053L134.13595321180557,130.2037075155331L134.43665538194446,140.75989970882853L134.51592265624998,138.49291064095567L134.57368828125,66.92560875029606L134.73639479166667,87.55662534958867L134.80828090277777,121.49985470728126L135.1709206597222,145.42174198601276L135.41963376736112,137.39476778491513L135.51526796875,141.15749270906554L135.61122309027778,147.37969093793933L135.82688142361113,146.77683824821892L135.97161640625,128.382457710055L136.03676319444443,112.88358921572416L136.42443472222223,128.8021013520053L136.54606345486113,88.9757572139437L136.61923324652778,120.71961957723705L136.66416206597222,129.83853497571235L136.82141293402776,142.63104815522723L137.06563315972224,155.88746994042333L137.14810963541666,162.89777685942613L137.44752812500002,164.9684958657167L137.60253255208332,158.67199961903938L137.60863003472224,140.69746319152864L137.62563880208333,146.70538597880574L137.66607473958334,113.74504303442701L137.83648333333335,113.87107139293707L138.10413072916666,139.2029012147448L138.27453932291667,144.70330187462935L139.26874991319443,130.73981241216165L139.28672144097223,147.607918867051L139.67856493055555,156.6361155418035L140.02580052083334,124.26849503919341L140.40031432291667,148.0556944918922L140.47540963541667,119.23046904041121L140.57457395833333,135.98020734091847L140.59928480902778,148.08301710665373L141.03701987847222,-142.3002944875947L141.19138246527777,-31.75776547963568L141.54150633680555,50.02801317468198L141.88938376736112,-19.559032320410562L141.95806067708335,60.252110228877946L141.97795772569444,92.91354398843151L142.3081845486111,119.05767764160932L142.3232677951389,136.78920225566566L142.40060954861113,144.41345523515903L142.85214418402776,143.70918951225022L142.8656228298611,134.1613898479446L143.06042135416666,79.3055220343771L143.22280694444444,118.63057141650333L143.7696548611111,106.84590491502648L143.82934600694443,118.8618505623887L144.76418637152776,88.37821450155677L145.16052274305554,109.21643600417198L145.20641432291666,134.08360659571304L145.68779453125,143.70709450895674L145.8065349826389,135.04622779759816L146.20800607638887,151.02194793267876L146.3922142361111,135.9902340939273L147.00260434027777,116.73273847881734L147.10273142361112,-163.51379609117637L147.14701840277777,-43.23867377286987L147.32320355902777,31.661674314464097L147.52345772569444,87.07192487104236L148.25996944444444,110.11727287878692L148.41304835069445,93.33852145737471L148.5786431423611,116.57873701611794L148.67877022569445,122.85531845783972L149.25257543402776,124.03096681055894L149.61393151041668,133.04338979016225L150.34948046875,103.13759570652533L150.44030086805557,126.16876360734872L150.49389453125,141.422303930286L150.61776970486113,137.2238716789266L150.84305564236112,130.47151326347472L151.14504149305557,152.01266401296306L151.18964939236113,154.53051020434765L151.49741180555557,158.97180306512874L151.58373932291667,162.28278029679515L151.59336692708334,139.3752727885202L151.80228593750002,149.3221342884991L151.91910086805555,138.12423985502085L151.9470209201389,128.03897144139384L152.34624557291664,146.52844473922593L152.4839203125,159.83673028233255L152.93352942708333,135.63569129516247L152.9659423611111,145.0556732571695L153.10939366319445,158.1051438281878L153.6280006076389,106.44879649817612L153.6880126736111,132.6090985556821L153.77337743055557,115.83937457682967L154.05065243055554,134.2819500749247L154.57856605902776,129.12207055955747L155.07342491319443,137.0866256861068L155.7069212673611,131.19222491193872L155.89433862847224,142.0473225761L155.9466486111111,151.45188059857747L156.19664539930557,161.27548508674658L157.67704999999998,149.4025665189669L158.0557357638889,141.86593815242324L158.05894496527776,131.8282435784046L158.42030104166668,153.6675600653472L158.73480277777776,149.7638812902917L158.73640737847222,103.53174487372335L158.7595136284722,128.39033542406617L158.78197803819447,150.11069431264437L158.88595616319444,154.44117121672176L159.50501111111112,52.474409761283056L159.7678447048611,89.28799989119366L159.90295208333333,122.62889618811127L160.0765698784722,124.45226996384332L160.6141111111111,139.43390447403354L160.63304539930553,151.19315218988277L160.88079574652778,164.80430662431252L160.91032039930556,156.35763257383067L160.9751462673611,162.00132443451142L161.48829756944446,151.60360085691963L161.64715303819443,161.85259614781114L163.0787777777778,161.5966768026088L163.22190815972223,147.29015235422457L163.25079097222223,128.95192636202816L163.2540001736111,128.10067781657602L163.34867161458334,123.34874664813651L163.37049418402776,140.1143159667872L163.5932127604167,145.8447204327716L163.96002447916666,160.57152898646197L164.32779895833335,93.88241816244603L164.73183741319446,128.4822698252325L165.27611796875001,142.52500142913607L165.59029878472222,151.14087839044063L165.91731640625,167.1664891643341L166.19876336805555,164.8835526325116L166.2902256076389,149.8593669043666L166.65864192708332,160.3500458399466L167.58642204861113,161.26122704505988L167.6031098958333,161.6485840139393L167.69617673611108,164.32082303867364L167.81074522569443,168.20064319435133L167.87685477430557,166.50744499482735L168.08705746527778,134.78384956907047L168.12011223958334,151.5695916342188L168.6464212673611,152.61124480291895L168.72600946180555,118.357261503486L168.8280620659722,130.3402029161144L169.0186886284722,145.06139083173804L169.29275442708334,150.11941960493883L169.87233619791667,159.89595983409976L169.9268926215278,169.25774914970455L170.36398585069443,176.02472732395205L170.68522690972222,170.39959864336416L171.20800581597223,174.837985981215L171.36172656250002,176.0627662209922L171.3713541666667,170.80625007320964L172.50195581597222,131.07677673917723L172.57608836805554,80.57600775493214L172.63160755208332,111.7587064786734L172.64636987847223,107.98057937884222L172.74328776041665,137.18774870552951L173.07447734375,149.4243918723961L173.32639965277778,148.28780044478776L173.36170086805555,151.2348084387934L173.40662968750001,158.96623178111054L173.53435590277778,160.1330045782717L173.63576666666665,168.41130388278913L173.70701093749997,170.04923664390537L173.92844583333334,160.2413675574034L174.0128478298611,166.78007645294483L174.12998368055557,154.00007069400203L174.24968689236113,161.15904582674057L174.54108237847223,158.86086963853091L175.05776380208331,167.0799422075799L175.29973758680555,155.37668337645835L175.30423046875,161.44162118329228L175.85428758680555,161.0325305312492L175.884775,106.59249868450269L176.52148055555554,4.3775628093344245L176.7403480902778,75.985260715691L176.8526701388889,112.29934666550619L176.93578845486113,128.13458814380445L176.94798342013888,144.00823054169342L176.95696918402777,155.45244123372274L177.60266050347224,168.07319939990543L177.62897595486112,166.34495946442902L177.86517317708334,134.8755947010268L177.98006258680553,124.51209184029992L177.99739227430555,124.73734439670618L178.01857300347223,135.52380670821412L178.07986875,140.92673897335376L178.15368038194444,156.92884433978466L178.27145807291666,161.36562274881402L178.54969583333335,166.47221150748848L179.02818776041667,161.91106171818328L179.05321953125,120.0425167382464L179.09879019097224,124.23853958014875L179.1430771701389,129.42685340621608L179.1453236111111,148.27164504753674L179.2233072048611,156.3631954158969L179.24801805555555,159.79787321839495L179.84236215277778,159.7179073903189L179.87509600694443,157.10042499144234L180.13696684027778,164.87519860410305L180.4225857638889,167.18785515870817L180.83978194444444,153.0096651139627L180.9049287326389,162.3520746936065L181.51275147569444,149.19253368792903L181.56153133680556,154.5730244470714L181.6465751736111,163.4956567712473L182.4825721354167,170.47554036306423L182.64688324652778,158.38057059006144L182.7701165798611,151.4693199846521L182.7996412326389,149.01394354184717L183.03583845486114,145.23528745460658L183.1407793402778,129.20721323661894L183.2161955729167,143.30348041637475L183.26529635416668,144.30167034020266L183.49475425347222,156.3229061624422L183.5794771701389,137.9475635064253L183.86060321180557,140.97893449858478L183.87279817708335,145.1696974682549L184.04513229166665,-277.99652121020927L185.05025416666666,-43.25480650885186L185.25821041666666,40.435065332512394L185.30731119791665,-55.9618556979535L185.36218854166665,35.36012347202075L185.46520390625,48.83070016658647L185.72322369791664,94.91258007500377L185.9125665798611,115.2410954941142L185.96134644097222,-178.69863211698367L186.53675625,-52.214014637392964L186.83553289930555,30.48733810667863L187.1773128472222,88.98803304245871L187.17891744791666,69.91033058292152L187.28642569444443,90.32969645575572L187.5784630208333,111.84345611045293L187.59290442708334,134.97034798687417L187.83263177083336,143.08386972085069L187.95522326388888,127.99474785408636L188.02197465277777,119.45607080031192L188.68980946180554,105.10795898180457L188.8817197048611,128.05684979284558L189.1503298611111,140.8992734022424L189.19108671875,152.42883206769736L189.31752925347223,161.94666101315565L189.3387099826389,166.68065702545016L190.28702899305554,152.14505847231965L190.33645069444444,164.9476062031771L190.73792178819446,154.0814736206642L191.01198758680556,145.59222028728195L191.44490885416667,-45.44840035631737L192.1454775173611,20.441231440338587L192.29759366319445,78.6496764223773L192.41505043402776,109.25162989860765L192.70452039930555,125.80253353456254L192.85727838541666,143.43608575069663L193.364653125,155.41684786441184L193.56362361111113,106.18899570442589L193.99590303819443,115.73043005548332L194.11175520833334,134.27533010531909L194.21830069444445,140.28421104842093L194.25039270833332,48.618135920129234L194.44711675347222,87.59758434710623L194.66983532986112,120.61449491749836L195.53214774305556,140.34555829388282L197.01351510416666,149.87153862966525L197.04336067708334,157.90916982086557L197.11781414930556,163.14825918908153L197.34374192708333,156.04552428862593L197.3909171875,115.1420416506597L197.4310322048611,139.93486579850128L197.45253385416666,132.11229740497356L197.51607604166665,127.25716378996898L197.70445616319446,142.79821608251413L198.21889114583334,141.99108728996563L198.41689887152776,149.16447886724262L198.51445859375,146.60561610757702L198.95764930555558,153.46018807351228L199.39827265625001,163.13098674928926L199.40629565972222,159.4785515994774L199.87355538194447,146.4677291328279L199.9034009548611,150.19137874690102L200.1485839409722,154.42664747862463L200.157890625,149.88587989228037L200.29845364583335,140.69426421771686L200.30198376736112,149.56364792615318L200.31353689236113,142.8318244196781L200.34177786458335,-448.1747516311522L201.06737829861112,-48.106875539683635L201.1925371527778,32.38748796888393L201.41012100694445,72.91676903789164L201.43996657986114,106.75153373852325L201.94252751736113,62.84077024921749L202.21916067708332,99.52085610666856L202.23488576388888,86.81196669363368L202.32570616319447,122.44551192059153L202.61742256944444,104.16617453058976L202.78430104166668,121.14233973956358L202.97877864583333,138.35962298474462L203.03622335069443,131.22407119608968L203.25701640625,140.50144147120147L204.07825104166668,149.71981850172418L204.17324340277779,135.30868649783932L204.19474505208333,154.3805052393866L204.90205303819442,134.4690601416941L205.17002135416666,131.25767610958312L205.2842689236111,139.34758811051304L205.40076293402777,-53.956587514551586L205.40461397569445,33.4278065530824L205.52720546875,70.07402035763069L205.85486493055558,103.0685051367891L206.12732612847222,98.68552996195628L206.37283003472223,123.55163452075287L206.4171170138889,134.87835921434382L206.47873368055556,145.06740211956392L206.71653550347224,133.1290844983619L206.73803715277776,140.5461429158903L207.4251271701389,156.91804644823412L207.83622586805555,151.85452217436043L207.84777899305556,141.8732523690236L208.14687656249998,118.92037844244076L208.6154199652778,-51.827612106898826L208.9068154513889,31.26947440570629L208.97196223958335,52.512901302969674L209.0050170138889,93.22226231860891L209.21746614583336,-502.49945495624684L210.4844588541667,-16.755296426890848L210.6962661458333,15.150039516759778L211.09067699652778,80.62956563167147L211.38271432291666,108.83861866672261L211.44625651041665,125.52546244072569L212.06563237847223,148.02612504248413L212.28000703125,157.41401988556737L212.35028854166669,136.7377783768818L212.51459965277778,140.1153560920623L212.52454817708335,146.6159096839468L212.69912873263888,162.99584613099339L212.96292508680554,166.23525306853438L213.0633730902778,170.77167629523746L213.33069956597222,173.37775850846572L213.4561793402778,164.8006590494764L213.86438975694443,154.06922328765702L214.11214010416668,158.3943032377691L214.12337230902776,108.31994543753447L214.17632413194443,132.8429907553338L214.56014461805555,144.9728305669393L214.69236371527776,159.62949026177918L214.7090515625,136.65637916416284L214.85860034722222,150.90050308519815L214.9346584201389,158.81588777431378L214.9924240451389,167.9719373829873L215.1134109375,153.98530014799306L216.08483619791667,161.64319306639595L216.52449678819445,146.6447765804992L216.64901380208332,147.0208814703027L216.95645529513888,153.58009686008688L217.18623411458336,158.0035688372588L217.2568365451389,162.68465168786858L217.42499869791666,155.24012876220235L217.44938862847224,141.18370653550437L217.8373810763889,155.876818340782L218.59122248263887,150.89671126470785L218.84956319444444,150.02524309793603L218.97022916666666,161.48929030322725L219.2125238715278,168.2907948984128L219.24622048611113,125.13073824962505L219.39288098958335,147.52662873697597L219.53119756944443,158.4613362671871L219.62073428819443,151.32773269903296L219.87554487847223,152.1751556115844L220.06938064236112,162.6288296626507L220.44132708333336,171.28891625443094L220.9682779513889,168.25371294044848L221.36076328125,118.16454328550932L221.41564062499998,114.978794092262L221.41692430555554,108.437361866429L221.51673046875,129.26679873835715L222.0337328125,148.23644648773475L222.03630017361112,160.8724105142534L222.04881605902779,165.72580666202188L222.12647873263887,148.11752522264646L222.43905494791665,109.0748281829043L222.55522803819446,127.02295602038406L223.08667178819445,141.45689634248558L223.33474305555555,153.90995972970094L223.36330494791667,150.1800937367616L223.45380442708333,145.52543415267095L223.7727990451389,157.96692239784497L224.44673133680556,154.61375654425203L224.5035342013889,110.54879645279632L224.53273793402778,141.06507840974086L225.0144390625,154.66532755388587L225.42040303819442,164.06021224316223L225.62996388888888,160.42889938626448L225.64023333333333,159.1904238907919L225.99164088541667,156.98467367937715L226.50062022569446,168.1605219224128L226.71274843749998,163.37724456423717L226.76281197916666,158.24038926860212L227.02917569444446,164.32025149882148L227.2063236111111,165.43654192102142L227.2666565972222,140.82410248644462L227.43802795138888,151.4955498822171L227.4576040798611,134.04388426587812L227.83083420138888,140.60228047636647L228.19636223958332,155.0072051731795L228.27691319444446,95.51184898662866L228.33499973958334,126.1494017103213L228.48166024305556,147.0845013510524L228.62543246527775,132.77531873055332L228.8388443576389,151.41453230659982L229.16072725694443,160.9795463912536L230.18542526041668,164.58452168660457L230.82854921875,138.37456150744612L231.2784792534722,150.3698572963134L231.58046510416668,163.24552369175288L231.77526362847223,162.0013453582402L231.84361961805556,168.03997536775327L231.85228446180554,173.343054496508L232.14945651041668,170.08616017059154L232.47839965277777,163.34064522001543L232.57499661458334,163.7261601460779L232.72229895833334,156.81035239295983L232.87120590277777,162.8650573277284L232.95881710069443,164.55581252239998L233.07017638888888,161.4761410597733L233.12858385416666,151.04959894441194L233.71201666666667,165.4988608409323L233.84070564236112,167.47475317772376L233.89975494791668,164.30977032933322L233.9395490451389,151.3748835560899L234.59647256944444,157.9136652944816L234.9738746527778,149.46865106572704L235.38625703124998,164.78494992583987L235.51943888888889,168.48165555197L235.54318697916665,163.2736759006858L235.5967806423611,169.35846381067515L236.18342265624997,160.57126277851629L236.55440633680556,149.37633697848062L236.61826944444445,154.4352036610874L237.0736551215278,162.45245230529503L237.8669697048611,168.46043437679884L237.92537717013892,174.51554221844836L237.9539390625,167.1175277026663L238.08519539930555,170.46667217923223L238.12145937499997,155.87059565373076L238.25303663194447,155.1989621495474L238.37498628472224,159.70231062980108L238.56529192708334,140.8440272355772L238.62145295138887,158.07822309164385L238.77324817708333,162.54517333405124L238.80662387152776,166.76356905875747L238.89776519097222,155.4169821964392L238.91669947916668,140.32637088219457L239.1118189236111,145.80739554357606L239.35026258680554,161.48208446617173L239.55821883680557,170.92750766822843L239.5906317708333,163.67284128993242L240.11822447916668,169.4701924295991L240.17213906249998,157.278992851482L240.63394314236112,167.15104547495017L240.9208457465278,174.5609116134308L241.08708237847225,173.73160360677613L241.38617994791665,179.10199315561994L241.57552282986111,170.62673371323433L241.8935546875,163.17622510724357L241.90960069444446,162.4265723331755L242.01775078125,171.5759110131255L242.16729956597223,162.04834827413507L242.3736512152778,150.50638662713973L243.14353862847221,151.8017812522543L243.20002057291666,161.18118253423526L243.61400755208334,169.83804130955787L243.84121901041667,167.51093889477403L243.9102168402778,169.18320061446758L244.32035277777777,163.36723012495955L244.34410086805556,170.48153696280073L244.37009539930557,166.09757809294075L244.87329817708334,161.22600389750488L244.95320729166667,160.75083753366283L245.07772430555553,164.48574346601376L245.10660711805554,158.4821373218263L245.2176454861111,166.22431677305485L245.59280112847222,159.88458411290517L245.95608272569444,168.98440343138142L246.28149574652775,172.3284247851167L246.48688463541666,173.83461181496344L246.82738090277778,172.55287710293985L246.99233385416667,149.34139877000365L247.24810720486113,157.228958505624L247.58507335069444,126.16547746314615L247.7426451388889,137.81128220828776L247.87037135416668,144.83522874517683L248.06998368055557,138.81163153650428L248.37036493055558,156.05454060555735L248.45925980902777,165.02441686821723L248.83473637152778,169.23766744156327L249.07350095486112,169.99573763382224L249.0911515625,175.61745027167672L249.1514845486111,179.0390571896021L249.4775394097222,176.65701007269527L249.49101805555557,174.7786631406707L249.74839600694443,163.65863604434503L249.92490208333334,140.88516757898435L250.38798984374998,156.39564223058764L250.93676328125,144.60557668547477L251.05133177083334,156.5667678519526L251.5757152777778,149.34276143100493L251.8992027777778,132.7370079099335L251.90497934027778,151.0693579852103L252.22076475694445,155.23290651437753L252.73808802083332,162.2789222895927L253.23615607638888,167.48862206100387L253.26471796875,164.9699142262874L253.44058220486113,155.78941705498323L253.5272306423611,161.95590405627027" style="fill: none;" fill="none"></path></g></g></g></g><g opacity="0.2"><g><g><g><path stroke="rgb(255, 112, 67)" stroke-width="2px" d="M32.45561640625,186.28230544328687L32.71491987847222,106.25915327072146L32.95657274305555,81.54908838272095L33.41484670138889,82.04557242393494L33.791606944444446,97.41411318778992L33.842633246527775,-18.221458053588876L33.963941059027775,49.441207313537596L34.01689288194444,105.02966775894166L34.034864409722225,-6.921512222290033L34.10739236111111,31.7856749534607L34.12504296875,-45.44397554397584L34.25212734375,-285.90027675628664L34.3358875,4.480304622650145L34.48768272569445,-177.22373924255373L35.285169270833336,-69.47684154510499L35.294796875,21.108658695220946L35.362831944444444,41.472649002075194L35.444345659722224,84.43467416763306L35.5085296875,14.368755960464476L35.6298375,-247.80721340179443L36.096134461805555,-32.86083755493165L36.233809201388894,33.6148096561432L36.36185633680556,-24.13487205505372L36.43181692708333,-38.99746189117431L36.79221024305556,17.390549564361578L37.304398784722224,92.38054289817809L37.50497387152778,85.97390832901002L37.51042951388889,152.0901514530182L38.023259895833334,149.6309834957123L38.256889756944446,142.84214272499085L38.29219097222222,131.98863866329194L38.350598437500004,121.7959879875183L38.38782517361111,128.9871503353119L38.78063142361111,120.66091814041138L39.204566927083334,96.00231626033785L39.37786380208333,153.34382464885712L40.03767560763889,77.3295015335083L40.09544123263889,50.96508064270021L40.25782682291667,166.82418575286866L40.85602196180555,163.12944140434266L41.04408116319445,139.65318050384522L41.49850407986111,174.87381746768952L41.55626970486111,42.353167915344244L41.580338715277776,165.05238690376282L41.60312404513889,173.57075610160828L41.61628177083333,111.76475265026092L41.81621501736112,160.89393391609192L42.17243637152777,162.71256783008576L42.94039826388889,163.5607474088669L42.95997439236111,127.58446159362794L43.30881458333334,146.15939321517945L43.47761857638889,117.29608705043792L43.50136666666666,134.96436383724213L43.55046744791667,107.99049630165102L43.86817838541667,160.75098111629487L43.93139965277778,127.77605702877044L43.965096267361105,141.81682827472687L43.98723975694444,111.11884512901307L44.18268012152778,141.77943196296692L44.20674913194444,141.46056809425355L44.41149618055556,133.12674691677094L44.55655208333333,33.706102514266966L44.61624322916666,80.77553262710572L44.836715364583334,128.7658812046051L45.10243723958333,168.18645384311677L45.12714809027778,145.8471617937088L45.23144713541667,138.79565360546113L45.40185572916666,164.14094939231873L45.57483168402778,64.29847993850709L45.613021180555556,155.89902242422104L45.96603333333333,128.2003296852112L46.29465555555556,161.21268525123597L46.30364131944444,132.7391742706299L46.32482204861111,141.68595876693726L46.44709262152778,168.23061623573304L47.14028012152778,-276.9807535171509L47.19579930555555,104.90149202346804L47.202217708333336,29.625325822830206L47.23270512152778,129.80383458137513L47.27314105902778,141.8148519039154L47.376156423611114,127.67111244201661L47.57576875,179.90005197525025L47.8703734375,165.2564383983612L47.918190538194445,137.11931838989258L48.05875355902778,174.80113133192063L48.36202309027777,171.05329575538636L48.77087534722222,150.08260884284974L48.784353993055554,167.8427833557129L48.86458402777778,94.64151110649111L48.908229166666665,153.06676700115204L49.127417621527776,121.41648259162902L49.43518003472222,128.02726712226868L49.667847135416665,149.27477958202363L49.790438628472224,140.6636686563492L49.903081597222226,108.63233854770662L49.94480121527778,140.4099265575409L49.97336310763888,67.80603876113892L50.05808602430555,157.02633800506592L50.21822517361111,146.85487880706788L50.36296015625,143.63378121852875L50.687731336805555,55.3507670402527L50.98329878472222,139.2344852924347L51.43740078125,121.95744552612304L51.485859722222216,121.3230375289917L51.65498463541667,88.51218738555907L51.90658602430556,167.28886499404908L52.50991588541667,165.95721658468247L52.929037586805556,169.47480496168137L53.08596753472222,168.97248675823212L53.183848177083334,146.03982629776002L53.22749331597222,69.23342862129212L53.25156232638889,157.88458582162858L53.36677265625,130.7938205242157L53.48615494791667,130.81509640216828L53.49128967013889,152.25955667495728L53.861631510416665,148.50542273521424L53.88217039930555,135.41075637340546L53.97523723958333,126.88647916316985L54.103284374999994,122.92967929840088L54.11355381944444,94.84400119781495L54.17998428819445,110.7075067996979L54.257005121527776,173.9209676027298L54.383447656250006,131.76842453479767L54.67227578125,16.929893398284918L54.74544557291667,164.18225976228715L55.66488177083333,145.71430888175965L56.08304071180556,156.20659425258637L56.32084253472222,154.03547003269196L56.34266510416666,131.40465273857117L56.80703654513889,106.35305550098418L57.108059635416666,122.52502264976502L57.15266753472223,155.1291802763939L57.19759635416667,75.53428163528443L57.46428098958334,179.84169276952744L57.51883741319444,98.98439254760741L58.31824947916667,123.36362280845643L58.56246970486111,162.6785826921463L59.018818142361106,105.98796143531798L59.13980503472222,171.72941854000092L59.56470329861111,159.89300760030747L59.76271102430556,83.5348557472229L59.820476649305554,137.00500538349152L59.82657413194444,171.06779500246049L59.902632204861106,-60.5518885612488L59.97836935763888,164.65813257694245L60.30410329861111,95.80199947357177L60.60031258680556,171.18447473049164L60.895880034722225,180.27290382385254L60.989267795138886,162.01270046234131L61.03034557291667,55.570854568481444L61.23894366319444,120.34160413742065L61.43085390625,166.80943330526352L61.69818038194445,158.5073008775711L61.70235234374999,180.29837157726288L61.85799861111111,142.40130653381348L62.262999826388885,145.32333912849427L64.43980112847223,-36.1039987564087L64.60635868055556,158.13622846603394L64.87785711805556,180.8602270722389L64.87946171875,160.35616763830186L65.08485060763888,157.47480186223984L65.44139288194445,172.82437720298768L65.57714210069445,-148.60408935546877L65.60056927083333,52.725569868087774L65.61629435763889,145.91077139377595L65.81366024305555,-154.7636986732483L66.39901857638888,153.27474310398102L66.42019930555556,148.94756712913514L66.46801640625,182.17586406469346L66.63136475694444,93.02092924118041L66.70934835069444,147.42522706985474L67.3659509548611,41.621784114837645L67.40189401041667,157.9666087269783L67.7995140625,141.79617836475373L67.81491822916666,70.64554204940796L69.11432387152777,188.9238199830055L69.13518368055556,132.4815145969391L69.37009722222221,167.48689242601395L69.40058463541666,92.8607377052307L69.50969748263888,140.3449384212494L70.14544027777778,167.3882813692093L70.28985434027778,91.93092908859253L70.34697812499999,147.1845458984375L70.44485876736111,136.4688602924347L70.92174609375,66.0188931465149L71.65601137152778,164.75319530963898L71.71120963541667,156.43656715154648L72.23430946180555,143.23331644535065L72.35625911458334,160.73376348018647L73.04527465277776,152.63856973648072L73.58249496527777,163.86682465076447L73.58891336805554,132.39902749061585L74.13351484375,136.96016778945923L74.1999453125,56.725111389160155L74.45507682291667,131.18296864032746L74.66335399305555,66.90572800636292L74.8321579861111,174.91323938369752L75.41815815972222,104.93276228904726L75.44928741319444,150.24454464912415L75.47078906249999,161.01431670188904L75.53946597222222,172.43836596012116L76.37064913194445,144.33546319007874L76.44638628472222,122.96858074665069L76.9665978298611,163.00138523578644L77.09753324652779,178.97176256179807L77.13090894097222,51.630139970779425L77.44284331597223,171.65816369056702L77.80965503472223,151.10559525489808L78.54777135416667,168.84649839401246L78.87414713541666,172.01209934949875L78.90816467013889,122.03056421279908L79.21432248263889,168.53373243808747L79.22812204861111,156.13416835069657L80.20596571180556,167.67847027778626L80.52335572916667,144.00330629348755L80.93381258680556,153.49587508440018L80.97168116319445,89.90055623054505L81.27687621527778,147.54869046211243L81.68251927083332,164.04653724431992L81.81923124999999,50.635286951065076L82.35869800347223,126.36599733829499L82.71973315972221,167.70765867233277L83.21748029513888,105.75053670406344L83.3846796875,139.81481387615204L83.46362604166667,138.23766293525696L83.59905434027777,92.90213599205016L83.67126137152778,102.30448451042174L83.89975651041667,17.111578845977796L83.98833046875,158.38979473114014L84.04705885416666,74.62218298912049L84.05572369791668,171.01035013198853L84.39397352430555,159.66722657680512L84.87150269097222,125.04863014221192L85.04030668402777,165.9068964958191L85.22676128472222,135.4029845237732L85.66963107638888,155.72193326950074L85.80858949652777,128.83651711940766L86.18438697916667,64.72941317558289L86.20781414930555,123.9217752456665L86.73476501736111,163.6652770280838L86.76910347222223,152.48733868598939L86.80793480902777,165.38745208978654L87.86632942708334,125.1191605567932L88.03256605902779,176.70414080619813L88.06850911458334,89.08495512008668L88.23153654513888,131.6767448425293L88.26170303819444,167.3246260523796L88.55919600694443,148.04191102981568L88.61150598958334,97.95993616580965L89.2074546875,128.64223494529725L89.29602864583333,154.68466564416886L89.40225321180556,163.0773031949997L89.40546241319446,181.91118510961533L89.56945260416667,149.68410637378693L89.61855338541667,176.62345423698426L89.69910434027778,171.36848118305207L89.75141432291666,40.82847871780396L89.8685501736111,78.92737975120545L90.27419322916667,115.25225939750672L90.33227977430556,-83.79310903549198L90.40641232638889,124.88316359519959L90.42021189236111,147.91356649398804L91.62302057291667,51.3989538192749L91.72058029513889,143.48518064022065L91.80466137152777,171.18358149528504L91.99785529513888,174.9718834400177L92.04631423611112,158.43688299655915L92.12076770833333,99.43166425228121L92.7080515625,163.11332800388337L92.73276241319444,177.40976145267487L92.9275609375,153.04205884933472L93.37010980902778,137.74954857826233L93.53121171875,94.59612491130831L93.66888645833333,152.21883358955384L93.86881970486111,124.0959490776062L94.07485043402778,143.50721611976624L94.17112647569444,93.01106848716738L94.42240694444445,140.08243980407715L94.64833472222222,168.89943137168885L94.73402039930555,149.41808404922486L95.39575772569444,162.76749476194382L95.74299331597221,183.23079946041108L95.82771623263889,177.75340029001237L96.03631432291667,143.59018149375916L96.13740416666667,121.27809443473816L96.16724973958334,140.2191329240799L96.1707798611111,183.28030192255972L96.19484887152778,80.82660880088807L96.3614064236111,100.878733420372L96.44580842013889,147.37507929801941L96.67205711805556,115.16378691196442L96.8957384548611,100.78913559913637L97.1389959201389,158.43704124689103L97.80041232638888,145.68333401679993L98.26863480902777,170.61224856376649L98.42556475694444,168.35857393741608L98.5629185763889,100.34417786598208L98.64122309027778,143.06570472717286L99.0106021701389,49.18102970123292L99.2532177951389,150.25448980331421L99.6514796875,121.07365610599518L99.68902734375,170.33707585334778L99.76219713541667,165.4064104795456L99.8562267361111,102.58228769302367L100.20827612847224,78.1645709514618L100.29203628472222,83.6841877937317L100.31642621527777,162.92206313610077L100.59691041666667,151.63502349853516L100.61327734375,125.65446867942809L100.62322586805556,159.78654732704163L100.8533256076389,150.11700894832612L100.87161805555556,177.36826469898222L100.97206605902778,137.03522064685822L101.12033116319445,180.62606229782105L101.13477256944445,172.7089669942856L101.45537178819444,137.62570538520814L101.76955260416668,140.57064559459687L101.80902578125001,166.43725665807725L101.82314626736111,180.54826291799543L101.90690642361112,174.0240131855011L101.95376076388888,107.5768580675125L102.3433578125,86.14999523162842L102.49547395833333,126.88581802845002L102.49964592013889,180.563219332695L102.56479270833334,161.29128291606904L102.68963064236111,132.8749038219452L102.69123524305556,156.26588537693024L102.87415972222222,111.8592034816742L103.28012369791666,155.77378311157227L103.42999340277777,161.79488470554352L103.51985104166666,138.80561985969544L103.62639652777777,158.05724396705628L104.06669895833333,128.77098741531373L104.21496406249999,156.52625640630723L104.60199374999999,157.3903102517128L104.95179670138889,129.98757376670838L105.09043420138889,170.60330214500428L105.37252300347221,132.8226179122925L105.66969505208333,170.7168027997017L105.91616171874999,161.18916221857071L106.04838081597222,151.04657139778138L106.33849262152778,148.9390145778656L106.38342144097221,125.51284518241881L106.63566467013888,65.95857515335084L106.81826822916668,127.33332886695862L106.91743255208333,-1.5167499542236145L107.20048411458335,144.45217456817628L107.48546119791666,148.5990647315979L107.76305711805556,121.65342202186585L107.77364748263888,178.19488706588746L107.79932109375,131.37379744052888L108.09970234375,161.8948883652687L108.39077690972222,180.52963861227036L108.41484592013889,131.9276243686676L108.5072709201389,154.62841292619706L108.56856666666667,47.70911874771119L108.57466414930555,176.6349818944931L108.58108255208333,161.72925653457642L108.61221180555556,166.07053437232972L109.13338611111111,145.2270525932312L109.48094262152779,116.90916147232056L109.56438185763889,26.735871696472167L109.72227456597221,182.86116536855695L109.73639505208332,108.0071231365204L109.8756743923611,146.54629065990449L110.07592855902779,157.51574649810792L110.10192309027778,148.85776534080506L110.15294939236111,43.31099739074708L110.28773585069445,-34.43810806274415L110.58587065972222,182.40701856613157L110.68150486111111,123.17214694023133L110.78708758680555,171.7392054438591L110.78869218749999,161.8293270111084L110.88207994791667,178.72351702451707L111.00082039930555,141.4373650789261L111.12758385416667,188.52314772605897L111.33297274305555,158.1491557598114L111.56788628472222,174.06670912504197L111.94560928819445,152.68670597076417L112.09066519097222,159.33786191940308L112.14008689236111,184.20275365710256L112.21325668402777,90.12317576408385L112.59322612847222,131.15609421730042L112.87724045138889,114.6183156013489L113.20810911458334,159.9593285560608L113.59513880208334,153.95365109443665L113.83967994791666,165.94016423225403L113.86406987847222,-261.1808153152466L113.99179609375001,186.57342275381086L114.35122664930556,142.59949924945832L114.53286744791667,181.909472489357L114.68915555555556,148.15509870052338L114.84897378472222,160.61138674020768L115.0055828125,143.6899776697159L115.47733541666668,146.48407366275788L115.58131354166666,-25.491886234283427L115.78060494791667,149.88506319522858L115.84414713541668,154.0142047047615L116.27674748263888,140.00692274570466L116.30883949652778,176.4915367603302L116.31814618055556,169.71345349550248L116.36403776041666,182.0779774427414L116.4725087673611,157.78809180259705L116.67853949652778,147.28063549995423L116.86274765625001,163.7759959936142L117.18783975694446,84.77852048873902L117.58706440972223,154.96103402376175L117.70516302083333,175.36288132667542L117.76485416666667,143.10751094818116L117.85342812500001,147.70077958106995L117.86433940972222,160.4099481344223L118.16953446180557,168.89471551179886L118.1997009548611,161.83462312221528L118.99847118055555,179.57636674642563L119.15026640625,171.65632798671723L119.74525234375001,141.6787847518921L119.771246875,173.40161814689637L119.88645720486112,-90.275633430481L120.37971145833335,125.20471420288087L120.48657786458334,181.074698472023L120.87681675347221,181.3621514081955L120.89607196180556,151.75568761825562L120.94132170138889,149.29227151870728L121.01128229166666,101.03519024848937L121.35819696180556,138.78077104091645L121.78020694444444,169.56095995903016L121.80363411458333,151.02392401695252L122.03951041666666,169.0951483488083L122.09567144097221,99.28491344451906L122.151190625,176.6568907737732L122.52281614583333,65.73205914497376L122.65054236111112,-127.96149406433109L122.83731788194444,109.86349096298217L122.94450520833334,66.2924059867859L123.07479878472222,170.34583237171174L123.3469390625,157.37702777385712L123.768628125,127.02481105327605L124.34339609375,163.1011251449585L124.82188802083333,137.51898839473725L125.21052230902778,117.53663458824158L125.37643802083333,168.73672189712525L125.7034556423611,169.23400774002076L125.72559913194443,150.78120317459107L126.46275269097222,-1.2121919155120666L126.8131974826389,166.46823152303696L128.3837806423611,-411.0143676757813L128.42903038194444,179.19837000370026L128.5403896701389,166.3630653858185L128.66907864583334,164.01668068170548L128.84173368055556,145.2561143875122L129.01470963541666,163.19644107818604L129.11162751736111,131.95504035949708L129.2011642361111,175.45759239196778L130.0686113715278,140.60781683921815L130.13632552083334,160.49623676538468L130.3044876736111,167.02903201580048L130.32342196180554,144.40521993637086L130.60936180555555,69.9065622329712L130.63310989583334,154.72131642103196L130.71398177083333,129.7383400440216L130.88663680555555,152.19223346710206L130.93060286458334,157.0555826663971L131.38470486111112,83.27767434120179L131.39208602430557,161.97827925682068L131.4777717013889,111.51170685291291L131.60646067708333,174.98241939544678L131.77975755208334,187.44794573783872L131.91069296875,123.31710424423218L132.32435902777777,164.86140336990357L132.6584368923611,143.75901701450348L132.89912699652777,137.13214721679688L133.09071631944445,175.20821096897126L133.42864522569445,154.89679845571519L133.62248098958332,169.42898621559144L133.63018307291665,134.03597595691681L134.12311640625,114.2168239593506L134.13595321180557,121.53609170913697L134.43665538194446,156.59418799877167L134.51592265624998,135.09242703914643L134.57368828125,-40.425344085693354L134.73639479166667,118.50315024852753L134.80828090277777,172.4146987438202L135.1709206597222,181.30457290410993L135.41963376736112,125.35430648326874L135.51526796875,146.80158009529114L135.61122309027778,156.71298828125L135.82688142361113,145.8725592136383L135.97161640625,100.79088690280916L136.03676319444443,89.63528647422791L136.42443472222223,152.679869556427L136.54606345486113,29.236241006851202L136.61923324652778,168.33541312217713L136.66416206597222,143.5169080734253L136.82141293402776,161.81981792449952L137.06563315972224,175.77210261821747L137.14810963541666,173.4132372379303L137.44752812500002,168.0745743751526L137.60253255208332,149.22725524902344L137.60863003472224,113.73565855026247L137.62563880208333,155.71727015972138L137.66607473958334,64.30452861785889L137.83648333333335,114.06011393070223L138.10413072916666,177.20064594745634L138.27453932291667,152.95390286445618L139.26874991319443,109.79457821846007L139.28672144097223,172.91007854938508L139.67856493055555,170.1784105539322L140.02580052083334,75.71706428527833L140.40031432291667,183.7364936709404L140.47540963541667,75.9926308631897L140.57457395833333,161.1048147916794L140.59928480902778,166.23723175525666L141.03701987847222,-577.8752618789673L141.19138246527777,134.05602803230286L141.54150633680555,172.70668115615845L141.88938376736112,-123.93960056304932L141.95806067708335,179.96882405281065L141.97795772569444,141.90569462776185L142.3081845486111,158.27387812137604L142.3232677951389,163.3864891767502L142.40060954861113,155.84983470439911L142.85214418402776,142.65279092788697L142.8656228298611,119.83969035148621L143.06042135416666,-2.9782796859741287L143.22280694444444,177.6181454896927L143.7696548611111,89.16890516281127L143.82934600694443,136.885769033432L144.76418637152776,42.65276041030885L145.16052274305554,140.4737682580948L145.20641432291666,171.3843624830246L145.68779453125,158.14232637882233L145.8065349826389,122.0549277305603L146.20800607638887,174.9855281352997L146.3922142361111,113.44266333580019L147.00260434027777,87.84649505615235L147.10273142361112,-583.883597946167L147.14701840277777,137.17400970458985L147.32320355902777,144.0121964454651L147.52345772569444,170.18730070590973L148.25996944444444,144.68529489040375L148.41304835069445,68.17039432525635L148.5786431423611,151.4390603542328L148.67877022569445,132.27019062042237L149.25257543402776,125.79443933963776L149.61393151041668,146.56202425956727L150.34948046875,58.27890458106996L150.44030086805557,160.71551545858384L150.49389453125,164.30261441469193L150.61776970486113,130.92622330188752L150.84305564236112,120.34297564029693L151.14504149305557,184.32439013719556L151.18964939236113,158.30727949142457L151.49741180555557,165.63374235630036L151.58373932291667,167.24924614429474L151.59336692708334,105.0140115261078L151.80228593750002,164.2424265384674L151.91910086805555,121.32739820480346L151.9470209201389,112.91106882095339L152.34624557291664,174.26265468597413L152.4839203125,179.79915859699247L152.93352942708333,99.33413281440735L152.9659423611111,159.18564620018006L153.10939366319445,177.67934968471528L153.6280006076389,28.964275503158582L153.6880126736111,171.84955164194108L153.77337743055557,90.68478860855105L154.05065243055554,161.94581332206727L154.57856605902776,121.38225128650666L155.07342491319443,149.0334583759308L155.7069212673611,122.35062375068664L155.89433862847224,158.32996907234192L155.9466486111111,165.5587176322937L156.19664539930557,176.01089181900025L157.67704999999998,131.59318866729737L158.0557357638889,130.56099560260773L158.05894496527776,116.77170171737673L158.42030104166668,186.42653479576109L158.73480277777776,143.90836312770844L158.73640737847222,34.18354024887086L158.7595136284722,165.6782212495804L158.78197803819447,182.69123264551163L158.88595616319444,160.93688657283784L159.50501111111112,-100.47573242187504L159.7678447048611,144.50838508605958L159.90295208333333,172.6402406334877L160.0765698784722,127.18733062744141L160.6141111111111,161.90635623931885L160.63304539930553,168.83202376365662L160.88079574652778,185.2210382759571L160.91032039930556,143.68762149810792L160.9751462673611,170.46686222553254L161.48829756944446,136.00701549053193L161.64715303819443,177.2260890841484L163.0787777777778,161.2127977848053L163.22190815972223,125.83036568164826L163.25079097222223,101.44458737373354L163.2540001736111,126.82380499839783L163.34867161458334,116.22084989547729L163.37049418402776,165.2626699447632L163.5932127604167,154.4403271317482L163.96002447916666,182.66174181699753L164.73183741319446,180.3820473194122L165.27611796875001,163.58909883499146L165.59029878472222,164.06469383239747L165.91731640625,191.20490532517434L166.19876336805555,161.45914783477784L166.2902256076389,127.32308831214905L166.65864192708332,176.08606424331666L167.58642204861113,162.6279988527298L167.6031098958333,162.22961946725846L167.69617673611108,168.32918157577515L167.81074522569443,174.0203734278679L167.87685477430557,163.9676476955414L168.08705746527778,87.19845643043519L168.12011223958334,176.74820473194123L168.6464212673611,154.17372455596924L168.72600946180555,66.97628655433655L168.8280620659722,148.31461503505707L169.0186886284722,167.1431727051735L169.29275442708334,157.70646276474L169.87233619791667,174.5607701778412L169.9268926215278,183.30043312311173L170.36398585069443,186.17519458532334L170.68522690972222,161.9619056224823L171.20800581597223,181.49556698799134L171.36172656250002,177.89993658065796L171.3713541666667,162.9214758515358L172.50195581597222,71.48256673812867L172.57608836805554,4.824854278564465L172.63160755208332,158.53275456428528L172.64636987847223,102.31338872909545L172.74328776041665,180.99850269556046L173.07447734375,167.77935662269593L173.32639965277778,146.58291330337525L173.36170086805555,155.65532042980195L173.40662968750001,170.5633667945862L173.53435590277778,161.88316377401352L173.63576666666665,180.82875283956528L173.70701093749997,172.5061357855797L173.92844583333334,145.52956392765046L174.0128478298611,176.58813979625702L174.12998368055557,134.83006205558777L174.24968689236113,171.8975085258484L174.54108237847223,155.41360535621644L175.05776380208331,179.40855106115342L175.29973758680555,137.821795129776L175.30423046875,170.53902789354325L175.85428758680555,160.41889455318451L175.884775,24.932450914382933L176.52148055555554,-148.94484100341796L176.7403480902778,183.39680757522584L176.8526701388889,166.77047559022904L176.93578845486113,151.88745036125184L176.94798342013888,167.81869413852692L176.95696918402777,172.61875727176667L177.60266050347224,187.00433664917946L177.62897595486112,163.75259956121445L177.86517317708334,87.67154755592347L177.98006258680553,108.96683754920961L177.99739227430555,125.07522323131562L178.01857300347223,151.70350017547608L178.07986875,149.03113737106324L178.15368038194444,180.932002389431L178.27145807291666,168.0207903623581L178.54969583333335,174.1320946455002L179.02818776041667,155.06933703422547L179.05321953125,57.23969926834106L179.09879019097224,130.53257384300233L179.1430771701389,137.20932414531708L179.1453236111111,176.53883250951768L179.2233072048611,168.5005209684372L179.24801805555555,164.94988992214203L179.84236215277778,159.5979586482048L179.87509600694443,153.17420139312745L180.13696684027778,176.53735902309418L180.4225857638889,170.65683999061585L180.83978194444444,131.7423800468445L180.9049287326389,176.3656890630722L181.51275147569444,129.45322217941285L181.56153133680556,162.64376058578492L181.6465751736111,176.87960525751114L182.4825721354167,180.94536575078962L182.64688324652778,140.23811593055726L182.7701165798611,141.1024440765381L182.7996412326389,145.33087887763978L183.03583845486114,139.56730332374573L183.1407793402778,105.16510190963744L183.2161955729167,164.44788118600846L183.26529635416668,145.79895522594452L183.49475425347222,174.35475989580155L183.5794771701389,110.38454952239992L183.86060321180557,145.52599098682404L183.87279817708335,151.45584192276002L184.04513229166665,-912.7458492279053L185.02682699652777,-46.22715291976927L185.05025416666666,169.79614456892014L185.25821041666666,165.96987309455872L185.30731119791665,-200.5572372436524L185.36218854166665,172.34309222698212L185.46520390625,69.03656520843506L185.72322369791664,164.0353999376297L185.9125665798611,145.73386862277985L185.96134644097222,-619.6082235336304L186.53675625,137.5129115819931L186.83553289930555,154.53936722278596L187.1773128472222,176.73907544612885L187.17891744791666,41.29377689361573L187.28642569444443,120.95874526500702L187.5784630208333,144.11409559249878L187.59290442708334,169.66068580150605L187.83263177083336,155.2541523218155L187.95522326388888,105.36106505393983L188.02197465277777,106.64805521965026L188.68980946180554,83.58579125404358L188.8817197048611,162.48018600940705L189.1503298611111,160.1629088163376L189.19108671875,169.72317006587983L189.31752925347223,176.22340443134308L189.3387099826389,173.7816510438919L190.28702899305554,130.3416606426239L190.33645069444444,184.15142779946325L190.73792178819446,137.78227474689484L191.01198758680556,132.85834028720856L191.44490885416667,-332.00933132171633L192.1454775173611,119.27567913532258L192.29759366319445,165.96234389543534L192.41505043402776,155.1545601129532L192.70452039930555,150.62888898849488L192.85727838541666,169.88641407489777L193.364653125,173.3879910349846L193.56362361111113,32.34721746444702L193.99590303819443,130.0425815820694L194.11175520833334,162.0926801800728L194.21830069444445,149.29753246307374L194.25039270833332,-88.88097677230837L194.44711675347222,146.06675698757172L194.66983532986112,170.13986077308655L195.53214774305556,169.94215335845948L197.01351510416666,164.16050913333893L197.04336067708334,169.96561660766602L197.11781414930556,171.0068932414055L197.34374192708333,145.3914219379425L197.3909171875,53.78681769371033L197.4310322048611,177.12410202026368L197.45253385416666,120.378444814682L197.51607604166665,119.97446336746215L197.70445616319446,166.1097945213318L198.21889114583334,140.7803941011429L198.41689887152776,159.92456623315812L198.51445859375,142.76732196807862L198.95764930555558,163.74204602241517L199.39827265625001,177.6371847629547L199.40629565972222,153.99989887475968L199.87355538194447,126.9514954328537L199.9034009548611,155.77685316801072L200.1485839409722,160.77955057621003L200.157890625,143.07472851276398L200.29845364583335,126.90684070587157L200.30198376736112,162.86772348880768L200.31353689236113,132.73408915996552L200.34177786458335,-1334.6846157073974L200.90723914930555,183.51908584833143L201.06737829861112,172.97863610982895L201.1925371527778,153.12903323173524L201.41012100694445,133.7106906414032L201.43996657986114,157.50368078947068L201.94252751736113,-3.0253749847412186L202.21916067708332,154.54098489284516L202.23488576388888,67.74863257408143L202.32570616319447,175.8958297610283L202.61742256944444,76.74716844558716L202.78430104166668,146.6065875530243L202.97877864583333,164.18554785251618L203.03622335069443,120.52074351310729L203.25701640625,154.41749688386918L204.07825104166668,163.54738404750825L204.17324340277779,113.69198849201202L204.19474505208333,182.98823335170746L204.90205303819442,104.60189249515535L205.17002135416666,126.44060006141663L205.2842689236111,151.48245611190796L205.40076293402777,-343.91285095214846L205.40461397569445,164.5043976545334L205.52720546875,125.04334106445313L205.85486493055558,152.56023230552674L206.12732612847222,92.11106719970705L206.37283003472223,160.85079135894776L206.4171170138889,151.86844625473023L206.47873368055556,160.3509664773941L206.71653550347224,115.22160806655886L206.73803715277776,151.67173054218293L207.4251271701389,181.47590174674988L207.83622586805555,144.2592357635498L207.84777899305556,126.90134766101838L208.14687656249998,84.49106755256653L208.6154199652778,-307.9495979309082L208.9068154513889,155.91510417461396L208.97196223958335,84.37804164886475L209.0050170138889,154.28630384206772L209.21746614583336,-1396.0820308685302L210.07689027777778,-20.2793875694275L210.17798012152775,172.47370150089264L210.4844588541667,133.27782323360444L210.6962661458333,63.00804343223572L211.09067699652778,178.84885480403898L211.38271432291666,151.15219821929932L211.44625651041665,150.55572810173035L212.06563237847223,181.77711894512174L212.28000703125,171.49586215019227L212.35028854166669,105.72341611385346L212.51459965277778,145.18172266483307L212.52454817708335,156.36674007177353L212.69912873263888,187.56575080156327L212.96292508680554,171.0943634748459L213.0633730902778,177.57631113529203L213.33069956597222,177.28688182830808L213.4561793402778,151.93500986099244L213.86438975694443,137.97206964492798L214.11214010416668,164.88192316293717L214.12337230902776,33.20840873718262L214.17632413194443,169.62755873203278L214.56014461805555,163.16759028434754L214.69236371527776,181.61447980403898L214.7090515625,102.19671251773835L214.85860034722222,172.2666889667511L214.9346584201389,170.68896480798722L214.9924240451389,181.7060117959976L215.1134109375,133.00534429550171L216.08483619791667,173.13003244400025L216.52449678819445,124.14715185165406L216.64901380208332,147.58503880500794L216.95645529513888,163.4189199447632L217.18623411458336,164.63877680301667L217.2568365451389,169.70627596378327L217.42499869791666,144.073344373703L217.44938862847224,120.09907319545746L217.8373810763889,177.9164860486984L218.59122248263887,143.42655065059662L218.84956319444444,148.71804084777833L218.97022916666666,178.68536111116407L219.2125238715278,178.4930517911911L219.24622048611113,60.39065327644348L219.39288098958335,181.1204644680023L219.53119756944443,174.86339756250382L219.62073428819443,140.62732734680176L219.87554487847223,153.44628998041154L220.06938064236112,178.3093407392502L220.44132708333336,184.27904614210127L220.9682779513889,163.7009079694748L221.36076328125,43.0307888031006L221.41564062499998,110.20017030239106L221.41692430555554,98.62521352767945L221.51673046875,160.5109540462494L222.0337328125,176.69091811180115L222.03630017361112,179.82635655403135L222.04881605902779,173.00590088367463L222.12647873263887,121.70510306358338L222.43905494791665,50.51078262329102L222.55522803819446,153.9451477766037L223.08667178819445,163.10780682563782L223.33474305555555,172.589554810524L223.36330494791667,144.5852947473526L223.45380442708333,138.54344477653504L223.7727990451389,176.62915476560593L224.44673133680556,149.58400776386262L224.5035342013889,44.4513563156128L224.53273793402778,186.83950134515763L225.0144390625,175.06570127010346L225.42040303819442,178.15253927707673L225.62996388888888,154.98193010091782L225.64023333333333,157.332710647583L225.99164088541667,153.6760483622551L226.50062022569446,184.92429428696633L226.71274843749998,156.20232852697373L226.76281197916666,150.53510632514954L227.02917569444446,173.44004484415055L227.2063236111111,167.1109775543213L227.2666565972222,103.90544333457949L227.43802795138888,167.50272097587586L227.4576040798611,107.86638584136965L227.83083420138888,150.439874792099L228.19636223958332,176.61459221839905L228.27691319444446,6.26881470680238L228.33499973958334,172.1057307958603L228.48166024305556,178.48715081214905L228.62543246527775,111.31154479980468L228.8388443576389,179.37335267066956L229.16072725694443,175.32706751823426L230.18542526041668,169.99198462963105L230.82854921875,99.0596212387085L231.2784792534722,168.36280097961426L231.58046510416668,182.5590232849121L231.77526362847223,160.1350778579712L231.84361961805556,177.09792038202283L231.85228446180554,181.29767318964002L232.14945651041668,165.20081868171692L232.47839965277777,153.2223727941513L232.57499661458334,164.30443253517151L232.72229895833334,146.43664076328278L232.87120590277777,171.9471147298813L232.95881710069443,167.09194531440735L233.07017638888888,156.8566338658333L233.12858385416666,135.40978577136994L233.71201666666667,187.1727536857128L233.84070564236112,170.43859168291092L233.89975494791668,159.56229605674744L233.9395490451389,131.97255339622498L234.59647256944444,167.7218379020691L234.9738746527778,136.80112972259522L235.38625703124998,187.75939821600912L235.51943888888889,174.02671399116517L235.54318697916665,155.46170642375947L235.5967806423611,178.48564567565919L236.18342265624997,147.39046123027802L236.55440633680556,132.58394827842713L236.61826944444445,162.02350368499756L237.0736551215278,174.47832527160645L237.8669697048611,177.47240748405457L237.92537717013892,183.5982039809227L237.9539390625,156.02050592899323L238.08519539930555,175.49038889408112L238.12145937499997,133.97648086547852L238.25303663194447,154.1915118932724L238.37498628472224,166.45733335018159L238.56529192708334,112.55660214424134L238.62145295138887,183.92951687574387L238.77324817708333,169.24559869766236L238.80662387152776,173.0911626458168L238.89776519097222,138.39710190296174L238.91669947916668,117.69045391082764L239.1118189236111,154.02893253564835L239.35026258680554,184.99411785006524L239.55821883680557,185.09564247131348L239.5906317708333,152.7908417224884L240.11822447916668,178.16621913909913L240.17213906249998,138.99219348430634L240.63394314236112,181.95912441015244L240.9208457465278,185.6757108211517L241.08708237847225,172.48764159679413L241.38617994791665,187.15757747888563L241.57552282986111,157.91384454965592L241.8935546875,152.00046219825745L241.90960069444446,161.30209317207337L242.01775078125,185.29991903305051L242.16729956597223,147.75700416564942L242.3736512152778,133.19344415664673L243.14353862847221,153.74487318992615L243.20002057291666,175.25028445720673L243.61400755208334,182.82332947254181L243.84121901041667,164.02028527259827L243.9102168402778,171.69159319400788L244.32035277777777,154.64327439069748L244.34410086805556,181.15299721956254L244.37009539930557,159.5216397881508L244.87329817708334,153.91864260435105L244.95320729166667,160.0380879878998L245.07772430555553,170.0881023645401L245.10660711805554,149.47672810554505L245.2176454861111,177.83758594989777L245.59280112847222,150.37498512268067L245.95608272569444,182.63413240909577L246.28149574652775,177.3444568157196L246.48688463541666,176.0938923597336L246.82738090277778,170.63027503490449L246.99233385416667,114.52418127059937L247.24810720486113,169.06029810905457L247.58507335069444,79.57025589942933L247.7426451388889,155.27998932600022L247.87037135416668,155.3711485505104L248.06998368055557,129.7762357234955L248.37036493055558,181.91890420913697L248.45925980902777,178.47923126220704L248.83473637152778,175.55754330158234L249.07350095486112,171.1328429222107L249.0911515625,184.0500192284584L249.1514845486111,184.17146756649015L249.4775394097222,173.08393939733506L249.49101805555557,171.96114274263383L249.74839600694443,146.97859539985657L249.92490208333334,106.72496488094329L250.38798984374998,179.66135420799253L250.93676328125,126.92047836780549L251.05133177083334,174.50855460166932L251.5757152777778,138.50675179958344L251.8992027777778,107.82837762832642L251.90497934027778,178.56788309812546L252.22076475694445,161.47822930812836L252.73808802083332,172.84794595241547L253.23615607638888,175.30317171812058L253.26471796875,161.19185247421265L253.44058220486113,142.01867129802704L253.5272306423611,171.20563455820084" style="fill: none;" fill="none"></path></g></g></g></g></g></g><g transform="translate(41, 177)" clip-path="url(#clip_1)"><clipPath id="clip_1"><rect width="288" height="23"></rect></clipPath><g><g><line x1="0" y1="0" x2="0" y2="5" style="visibility: inherit;" fill="rgb(0, 0, 0)" stroke="rgb(204, 204, 204)" stroke-width="1px"></line><line x1="32.092013888888886" y1="0" x2="32.092013888888886" y2="5" style="visibility: inherit;" fill="rgb(0, 0, 0)" stroke="rgb(204, 204, 204)" stroke-width="1px"></line><line x1="64.18402777777777" y1="0" x2="64.18402777777777" y2="5" style="visibility: inherit;" fill="rgb(0, 0, 0)" stroke="rgb(204, 204, 204)" stroke-width="1px"></line><line x1="96.27604166666666" y1="0" x2="96.27604166666666" y2="5" style="visibility: inherit;" fill="rgb(0, 0, 0)" stroke="rgb(204, 204, 204)" stroke-width="1px"></line><line x1="128.36805555555554" y1="0" x2="128.36805555555554" y2="5" style="visibility: inherit;" fill="rgb(0, 0, 0)" stroke="rgb(204, 204, 204)" stroke-width="1px"></line><line x1="160.46006944444446" y1="0" x2="160.46006944444446" y2="5" style="visibility: inherit;" fill="rgb(0, 0, 0)" stroke="rgb(204, 204, 204)" stroke-width="1px"></line><line x1="192.55208333333331" y1="0" x2="192.55208333333331" y2="5" style="visibility: inherit;" fill="rgb(0, 0, 0)" stroke="rgb(204, 204, 204)" stroke-width="1px"></line><line x1="224.64409722222223" y1="0" x2="224.64409722222223" y2="5" style="visibility: inherit;" fill="rgb(0, 0, 0)" stroke="rgb(204, 204, 204)" stroke-width="1px"></line><line x1="256.7361111111111" y1="0" x2="256.7361111111111" y2="5" style="visibility: inherit;" fill="rgb(0, 0, 0)" stroke="rgb(204, 204, 204)" stroke-width="1px"></line><line x1="288.828125" y1="0" x2="288.828125" y2="5" style="visibility: inherit;" fill="rgb(0, 0, 0)" stroke="rgb(204, 204, 204)" stroke-width="1px"></line></g><g transform="translate(0, 8)"><text x="0" y="0" dx="0em" dy="0.95em" style="text-anchor: middle; visibility: hidden; font-family: Roboto, sans-serif; font-size: 12px; font-weight: 200;" fill="rgb(33, 33, 33)" stroke="none" stroke-width="1px">-100k</text><text x="32.092013888888886" y="0" dx="0em" dy="0.95em" style="text-anchor: middle; visibility: inherit; font-family: Roboto, sans-serif; font-size: 12px; font-weight: 200;" fill="rgb(33, 33, 33)" stroke="none" stroke-width="1px">0</text><text x="64.18402777777777" y="0" dx="0em" dy="0.95em" style="text-anchor: middle; visibility: inherit; font-family: Roboto, sans-serif; font-size: 12px; font-weight: 200;" fill="rgb(33, 33, 33)" stroke="none" stroke-width="1px">100k</text><text x="96.27604166666666" y="0" dx="0em" dy="0.95em" style="text-anchor: middle; visibility: inherit; font-family: Roboto, sans-serif; font-size: 12px; font-weight: 200;" fill="rgb(33, 33, 33)" stroke="none" stroke-width="1px">200k</text><text x="128.36805555555554" y="0" dx="0em" dy="0.95em" style="text-anchor: middle; visibility: inherit; font-family: Roboto, sans-serif; font-size: 12px; font-weight: 200;" fill="rgb(33, 33, 33)" stroke="none" stroke-width="1px">300k</text><text x="160.46006944444446" y="0" dx="0em" dy="0.95em" style="text-anchor: middle; visibility: inherit; font-family: Roboto, sans-serif; font-size: 12px; font-weight: 200;" fill="rgb(33, 33, 33)" stroke="none" stroke-width="1px">400k</text><text x="192.55208333333331" y="0" dx="0em" dy="0.95em" style="text-anchor: middle; visibility: inherit; font-family: Roboto, sans-serif; font-size: 12px; font-weight: 200;" fill="rgb(33, 33, 33)" stroke="none" stroke-width="1px">500k</text><text x="224.64409722222223" y="0" dx="0em" dy="0.95em" style="text-anchor: middle; visibility: inherit; font-family: Roboto, sans-serif; font-size: 12px; font-weight: 200;" fill="rgb(33, 33, 33)" stroke="none" stroke-width="1px">600k</text><text x="256.7361111111111" y="0" dx="0em" dy="0.95em" style="text-anchor: middle; visibility: inherit; font-family: Roboto, sans-serif; font-size: 12px; font-weight: 200;" fill="rgb(33, 33, 33)" stroke="none" stroke-width="1px">700k</text><text x="288.828125" y="0" dx="0em" dy="0.95em" style="text-anchor: middle; visibility: hidden; font-family: Roboto, sans-serif; font-size: 12px; font-weight: 200;" fill="rgb(33, 33, 33)" stroke="none" stroke-width="1px">800k</text></g><line x1="0" y1="0" x2="288.828125" y2="0" fill="rgb(0, 0, 0)" stroke="rgb(204, 204, 204)" stroke-width="1px"></line></g></g></g></g></svg>