<svg viewBox="0 0 330 200" xmlns="http://www.w3.org/2000/svg"><g><g><g><g><g><line x1="51.5625" y1="177" x2="46.5625" y2="177" style="visibility: inherit;" fill="rgb(0, 0, 0)" stroke="rgb(204, 204, 204)" stroke-width="1px"></line><line x1="51.5625" y1="160.9090909090909" x2="46.5625" y2="160.9090909090909" style="visibility: inherit;" fill="rgb(0, 0, 0)" stroke="rgb(204, 204, 204)" stroke-width="1px"></line><line x1="51.5625" y1="144.8181818181818" x2="46.5625" y2="144.8181818181818" style="visibility: inherit;" fill="rgb(0, 0, 0)" stroke="rgb(204, 204, 204)" stroke-width="1px"></line><line x1="51.5625" y1="128.72727272727272" x2="46.5625" y2="128.72727272727272" style="visibility: inherit;" fill="rgb(0, 0, 0)" stroke="rgb(204, 204, 204)" stroke-width="1px"></line><line x1="51.5625" y1="112.63636363636364" x2="46.5625" y2="112.63636363636364" style="visibility: inherit;" fill="rgb(0, 0, 0)" stroke="rgb(204, 204, 204)" stroke-width="1px"></line><line x1="51.5625" y1="96.54545454545453" x2="46.5625" y2="96.54545454545453" style="visibility: inherit;" fill="rgb(0, 0, 0)" stroke="rgb(204, 204, 204)" stroke-width="1px"></line><line x1="51.5625" y1="80.45454545454547" x2="46.5625" y2="80.45454545454547" style="visibility: inherit;" fill="rgb(0, 0, 0)" stroke="rgb(204, 204, 204)" stroke-width="1px"></line><line x1="51.5625" y1="64.36363636363636" x2="46.5625" y2="64.36363636363636" style="visibility: inherit;" fill="rgb(0, 0, 0)" stroke="rgb(204, 204, 204)" stroke-width="1px"></line><line x1="51.5625" y1="48.272727272727266" x2="46.5625" y2="48.272727272727266" style="visibility: inherit;" fill="rgb(0, 0, 0)" stroke="rgb(204, 204, 204)" stroke-width="1px"></line><line x1="51.5625" y1="32.18181818181817" x2="46.5625" y2="32.18181818181817" style="visibility: inherit;" fill="rgb(0, 0, 0)" stroke="rgb(204, 204, 204)" stroke-width="1px"></line><line x1="51.5625" y1="16.090909090909097" x2="46.5625" y2="16.090909090909097" style="visibility: inherit;" fill="rgb(0, 0, 0)" stroke="rgb(204, 204, 204)" stroke-width="1px"></line><line x1="51.5625" y1="0" x2="46.5625" y2="0" style="visibility: inherit;" fill="rgb(0, 0, 0)" stroke="rgb(204, 204, 204)" stroke-width="1px"></line></g><g transform="translate(41.5625, 0)"><text x="0" y="177" dx="0em" dy="0.3em" style="text-anchor: end; visibility: hidden; font-family: Roboto, sans-serif; font-size: 12px; font-weight: 200;" fill="rgb(33, 33, 33)" stroke="none" stroke-width="1px">-280</text><text x="0" y="160.9090909090909" dx="0em" dy="0.3em" style="text-anchor: end; visibility: inherit; font-family: Roboto, sans-serif; font-size: 12px; font-weight: 200;" fill="rgb(33, 33, 33)" stroke="none" stroke-width="1px">-260</text><text x="0" y="144.8181818181818" dx="0em" dy="0.3em" style="text-anchor: end; visibility: hidden; font-family: Roboto, sans-serif; font-size: 12px; font-weight: 200;" fill="rgb(33, 33, 33)" stroke="none" stroke-width="1px">-240</text><text x="0" y="128.72727272727272" dx="0em" dy="0.3em" style="text-anchor: end; visibility: inherit; font-family: Roboto, sans-serif; font-size: 12px; font-weight: 200;" fill="rgb(33, 33, 33)" stroke="none" stroke-width="1px">-220</text><text x="0" y="112.63636363636364" dx="0em" dy="0.3em" style="text-anchor: end; visibility: hidden; font-family: Roboto, sans-serif; font-size: 12px; font-weight: 200;" fill="rgb(33, 33, 33)" stroke="none" stroke-width="1px">-200</text><text x="0" y="96.54545454545453" dx="0em" dy="0.3em" style="text-anchor: end; visibility: inherit; font-family: Roboto, sans-serif; font-size: 12px; font-weight: 200;" fill="rgb(33, 33, 33)" stroke="none" stroke-width="1px">-180</text><text x="0" y="80.45454545454547" dx="0em" dy="0.3em" style="text-anchor: end; visibility: hidden; font-family: Roboto, sans-serif; font-size: 12px; font-weight: 200;" fill="rgb(33, 33, 33)" stroke="none" stroke-width="1px">-160</text><text x="0" y="64.36363636363636" dx="0em" dy="0.3em" style="text-anchor: end; visibility: inherit; font-family: Roboto, sans-serif; font-size: 12px; font-weight: 200;" fill="rgb(33, 33, 33)" stroke="none" stroke-width="1px">-140</text><text x="0" y="48.272727272727266" dx="0em" dy="0.3em" style="text-anchor: end; visibility: hidden; font-family: Roboto, sans-serif; font-size: 12px; font-weight: 200;" fill="rgb(33, 33, 33)" stroke="none" stroke-width="1px">-120</text><text x="0" y="32.18181818181817" dx="0em" dy="0.3em" style="text-anchor: end; visibility: inherit; font-family: Roboto, sans-serif; font-size: 12px; font-weight: 200;" fill="rgb(33, 33, 33)" stroke="none" stroke-width="1px">-100</text><text x="0" y="16.090909090909097" dx="0em" dy="0.3em" style="text-anchor: end; visibility: hidden; font-family: Roboto, sans-serif; font-size: 12px; font-weight: 200;" fill="rgb(33, 33, 33)" stroke="none" stroke-width="1px">-80</text><text x="0" y="0" dx="0em" dy="0.3em" style="text-anchor: end; visibility: hidden; font-family: Roboto, sans-serif; font-size: 12px; font-weight: 200;" fill="rgb(33, 33, 33)" stroke="none" stroke-width="1px">-60</text></g><line x1="51.5625" y1="0" x2="51.5625" y2="177" fill="rgb(0, 0, 0)" stroke="rgb(204, 204, 204)" stroke-width="1px"></line></g></g><g transform="translate(51, 0)" clip-path="url(#clip_0)"><clipPath id="clip_0"><rect width="278" height="177"></rect></clipPath><g><g><g><line x1="0" y1="0" x2="0" y2="177" fill="rgb(0, 0, 0)" stroke="rgb(66, 66, 66)" stroke-width="1px" opacity="0.25"></line><line x1="30.9375" y1="0" x2="30.9375" y2="177" fill="rgb(0, 0, 0)" stroke="rgb(66, 66, 66)" stroke-width="1px" opacity="0.25"></line><line x1="61.875" y1="0" x2="61.875" y2="177" fill="rgb(0, 0, 0)" stroke="rgb(66, 66, 66)" stroke-width="1px" opacity="0.25"></line><line x1="92.8125" y1="0" x2="92.8125" y2="177" fill="rgb(0, 0, 0)" stroke="rgb(66, 66, 66)" stroke-width="1px" opacity="0.25"></line><line x1="123.75" y1="0" x2="123.75" y2="177" fill="rgb(0, 0, 0)" stroke="rgb(66, 66, 66)" stroke-width="1px" opacity="0.25"></line><line x1="154.6875" y1="0" x2="154.6875" y2="177" fill="rgb(0, 0, 0)" stroke="rgb(66, 66, 66)" stroke-width="1px" opacity="0.25"></line><line x1="185.625" y1="0" x2="185.625" y2="177" fill="rgb(0, 0, 0)" stroke="rgb(66, 66, 66)" stroke-width="1px" opacity="0.25"></line><line x1="216.5625" y1="0" x2="216.5625" y2="177" fill="rgb(0, 0, 0)" stroke="rgb(66, 66, 66)" stroke-width="1px" opacity="0.25"></line><line x1="247.5" y1="0" x2="247.5" y2="177" fill="rgb(0, 0, 0)" stroke="rgb(66, 66, 66)" stroke-width="1px" opacity="0.25"></line><line x1="278.4375" y1="0" x2="278.4375" y2="177" fill="rgb(0, 0, 0)" stroke="rgb(66, 66, 66)" stroke-width="1px" opacity="0.25"></line></g><g><line x1="0" y1="177" x2="278.4375" y2="177" fill="rgb(0, 0, 0)" stroke="rgb(66, 66, 66)" stroke-width="1px" opacity="0.25"></line><line x1="0" y1="160.9090909090909" x2="278.4375" y2="160.9090909090909" fill="rgb(0, 0, 0)" stroke="rgb(66, 66, 66)" stroke-width="1px" opacity="0.25"></line><line x1="0" y1="144.8181818181818" x2="278.4375" y2="144.8181818181818" fill="rgb(0, 0, 0)" stroke="rgb(66, 66, 66)" stroke-width="1px" opacity="0.25"></line><line x1="0" y1="128.72727272727272" x2="278.4375" y2="128.72727272727272" fill="rgb(0, 0, 0)" stroke="rgb(66, 66, 66)" stroke-width="1px" opacity="0.25"></line><line x1="0" y1="112.63636363636364" x2="278.4375" y2="112.63636363636364" fill="rgb(0, 0, 0)" stroke="rgb(66, 66, 66)" stroke-width="1px" opacity="0.25"></line><line x1="0" y1="96.54545454545453" x2="278.4375" y2="96.54545454545453" fill="rgb(0, 0, 0)" stroke="rgb(66, 66, 66)" stroke-width="1px" opacity="0.25"></line><line x1="0" y1="80.45454545454547" x2="278.4375" y2="80.45454545454547" fill="rgb(0, 0, 0)" stroke="rgb(66, 66, 66)" stroke-width="1px" opacity="0.25"></line><line x1="0" y1="64.36363636363636" x2="278.4375" y2="64.36363636363636" fill="rgb(0, 0, 0)" stroke="rgb(66, 66, 66)" stroke-width="1px" opacity="0.25"></line><line x1="0" y1="48.272727272727266" x2="278.4375" y2="48.272727272727266" fill="rgb(0, 0, 0)" stroke="rgb(66, 66, 66)" stroke-width="1px" opacity="0.25"></line><line x1="0" y1="32.18181818181817" x2="278.4375" y2="32.18181818181817" fill="rgb(0, 0, 0)" stroke="rgb(66, 66, 66)" stroke-width="1px" opacity="0.25"></line><line x1="0" y1="16.090909090909097" x2="278.4375" y2="16.090909090909097" fill="rgb(0, 0, 0)" stroke="rgb(66, 66, 66)" stroke-width="1px" opacity="0.25"></line><line x1="0" y1="0" x2="278.4375" y2="0" fill="rgb(0, 0, 0)" stroke="rgb(66, 66, 66)" stroke-width="1px" opacity="0.25"></line></g></g></g><g><g><line x1="0" y1="-48.272727272727266" x2="278.4375" y2="-48.272727272727266" fill="rgb(0, 0, 0)" stroke="rgb(153, 153, 153)" stroke-width="1.5px"></line></g></g><g><g><line x1="30.9375" y1="0" x2="30.9375" y2="177" fill="rgb(0, 0, 0)" stroke="rgb(153, 153, 153)" stroke-width="1.5px"></line></g></g><g><g><g><g><g><path stroke="rgb(255, 112, 67)" stroke-width="2px" d="M37.310625,188.51242331787617L37.496249999999996,95.18968612030284L37.558125000000004,117.02451478040685L37.681875,90.11239649024924L38.115,146.8265423868076L38.424375000000005,107.84444612694686L38.671875,84.82175471325307L38.73375,70.31590152199352L38.857499999999995,23.464462071479467L38.98125,-4.453390138858387L39.3525,56.17248148810016L39.414375,52.91632799428692L39.8475,50.71402673920831L39.97125,115.13391179096752L40.033125,89.86145563218042L40.21874999999999,74.81082160224238L40.651875,106.68517909969061L40.8375,83.42379881745006L40.96125,70.20845229135159L41.085,61.945427251201245L41.45625,96.52238610638008L41.518125,119.49296460635217L41.580000000000005,92.13907792194834L41.889375,75.89746383741685L42.3225,140.93882070979026L42.384375000000006,106.12495346987176L42.44625,83.70368283907781L42.693749999999994,107.44878049868825L42.755625,139.86935907514356L42.8175,102.85521334269741L43.250625,120.58541263474811L43.43625,93.5874934609745L43.498125,75.34346847759623L43.56,65.84071759445885L43.621875,60.05122213271396L43.745625000000004,57.33390757938866L43.993125,15.748472599390857L44.116875,31.521884351981843L44.240625,38.64874257186028L44.488125,130.4407624886951L44.550000000000004,138.40401415603665L44.611875,103.10051629280524L44.7975,119.91175572627799L45.106875,91.65315050108549L45.725625,74.46912845983098L46.035,26.522610653938944L46.096875000000004,36.83872856554785L46.15875,3.279472874961874L46.901250000000005,22.678696561780203L46.963125,68.80360784629222L47.025,61.49383295118353L47.705625,131.50964704965187L47.89125,100.1590958358813L48.015,80.82211536896043L48.13875,30.45574777280738L48.386250000000004,37.8695296379165L48.571875000000006,43.42495229924049L48.7575,46.72888987819041L48.88125,46.64383479527805L49.190625,46.18344554158443L49.314375,49.04595820241427L49.376250000000006,10.90829542109416L49.871249999999996,-11.209028732603539L49.995,119.69138990044145L50.2425,129.39305454351415L50.49,96.86769778015235L50.61375,150.19028824595011L50.675625,110.45841637519345L50.86125,85.51081877098343L51.789375,32.831786257897974L51.85125,2.085682756013574L52.160624999999996,23.14156232472853L52.284375,107.28399262610489L52.34625,122.14637899074638L52.7175,55.0969581133726L52.841249999999995,53.04562713575707L53.088750000000005,53.650823963228014L53.33625,90.6467616342401L53.398125,76.10253697488443L53.46,106.7830574133131L53.521874999999994,85.67622083381883L53.58375,32.96016212979055L53.645625,41.19287974025447L54.32625,80.40826066442081L54.82125,69.51892762335063L55.06875,61.8994688814722L55.192499999999995,95.69978228658042L55.31625,78.8008121431663L55.501875,66.41234887203701L55.81125,60.12012559574974L55.935,55.33004983643155L56.244375000000005,52.99944822017392L56.55375,52.306196406247636L56.615625,89.38593056236542L56.986875,73.9406323647408L57.048750000000005,99.37965821079229L57.29625,78.00311665110695L57.54375,28.631289744865896L57.853125,73.41592167406796L57.915,65.1429606388291L57.976875,60.01836331678025L58.100625,56.50872119552359L58.348124999999996,15.781910816079412L58.410000000000004,-8.787955369965228L58.78125,-32.82015053410669L58.905,2.32996969928917L59.152499999999996,-17.0350938719964L59.461875,11.216239985839803L59.709375,25.281413594331465L59.77125,34.29773149067202L59.895,42.21977973857493L60.01875,45.226819972162154L60.26625,8.976586038178308L60.328125,108.48365892049222L60.637499999999996,86.14994112699792L60.699374999999996,72.05282893123693L61.070625,24.860683265689914L61.194374999999994,35.732702656280054L61.50375,42.680805037704474L61.75125,122.28713148231729L62.431875,93.99361024647935L62.49375,76.26724069955664L62.555625,65.40703849211059L62.6175,57.81821608454637L62.679375,94.18222911694764L62.74125,115.7944525214381L62.926875,148.03945482696088L62.988749999999996,109.44675486639136L63.050625000000004,157.44499444815514L63.916875000000005,115.5428785297995L63.97875,90.33169494125505L64.10249999999999,75.12070737502026L64.164375,64.65851241828717L64.22625,98.7107083975721L64.35,81.30472565333375L64.47375,146.43579703972753L64.5975,108.77304061286353L64.72125,122.62662871120177L64.96875,92.77370164189328L65.0925,109.75780319394279L65.34,47.40439756579708L65.71124999999999,49.445822077741745L65.83500000000001,50.61500826961647L66.0825,52.02359090759287L66.268125,13.250921748146808L66.391875,27.737836332468497L67.0725,37.05754674244098L67.134375,81.87844267392694L67.32000000000001,70.72860281638121L67.44375000000001,62.49833122052387L67.505625,58.34230194109893L67.69125,54.6633891574905L67.815,14.583019164237212L68.248125,107.54662818222486L68.5575,85.82991865960123L68.866875,108.78514771231792L68.92875,83.14902261509494L69.0525,70.67137657065499L69.42375,98.3128178136199L69.485625,78.81024403844715L69.67125,67.85429155079825L69.795,100.81029365828435L69.856875,81.65235826561604L70.10437499999999,69.50390630347475L70.35187499999999,102.04987230214878L70.66125,117.9413179513798L70.723125,52.81282493768414L70.78500000000001,53.29848857222963L71.094375,50.033716292862806L71.218125,123.02668607454581L71.465625,92.92072031282942L71.65125,74.85939234561226L71.77499999999999,64.22800902297904L72.20812500000001,97.1352578119142L72.39375,39.85876873836048L72.703125,45.040074336721894L72.76499999999999,8.265232488791407L73.0125,23.2708105942381L73.26,33.759657044131615L73.755,2.2475489742165173L73.87875,56.00169397415172L74.0025,89.62985352604821L74.064375,73.74830511267704L74.188125,62.40849077745621L74.37375,58.69296363206765L74.86875,90.85602831240821L75.17812500000001,35.87532380004339L75.301875,78.76442939854523L75.48750000000001,66.63710523767118L75.549375,61.11252204263822L75.673125,57.254657293520594L75.796875,54.828672616524294L75.85875,14.45812825339875L75.9825,71.72367763896219L76.044375,141.982592480927L76.168125,105.6778697114122L76.23,122.10951862416621L76.291875,94.65416709601963L76.60125,38.305380677429625L76.84875000000001,43.4676780219363L76.9725,45.84800971177681L77.71499999999999,48.702690797991174L78.21000000000001,48.59100210197474L78.271875,50.895168582962185L78.519375,51.380578683291155L78.705,49.25313050742676L78.890625,50.9539904815246L78.9525,51.78387132582438L79.07624999999999,52.34736802809405L79.138125,87.18130015035254L79.2,108.79170123278965L79.32375,86.14760068185684L79.695,32.88605559024115L80.685,1.8016313626993337L80.74687499999999,22.702656674064915L80.80875,-5.006742033717064L80.870625,15.708523652394948L81.05624999999999,69.11390147836879L81.55125,100.46834907128084L81.613125,81.9640299616783L82.17,110.57355464027047L82.41749999999999,48.01951070622038L82.479375,87.9321607194975L82.603125,113.25711742113387L82.66499999999999,88.96919758502673L82.85062500000001,110.72243163695356L82.9125,123.47786780119733L83.09812500000001,133.2521654882912L83.221875,179.14515405149749L84.15,207.18082712322362L84.27374999999999,145.59704693866252L84.52125000000001,143.98351613816197L84.76875000000001,107.13391521101775L84.830625,45.51336270277144L85.635,85.43986410159893L85.75874999999999,105.72693651071965L86.00625,83.53086071180732L86.13000000000001,106.36948255812136L86.315625,118.8461657977457L86.43937500000001,89.49442148847962L86.50125,74.07478161068364L86.686875,25.97300011457513L86.74874999999999,115.95156246443045L87.05812499999999,131.26069766598073L87.12,98.4892511857035L87.24375,78.28799242007356L87.30562499999999,29.316722675076317L87.73875,113.02324727248184L87.80062500000001,88.48991701916205L87.924375,73.28069983973764L88.3575,64.11873320839692L88.48125,60.34950905123666L88.543125,56.031148995417055L88.605,91.13729094310429L89.038125,76.0264169658759L89.22375,106.04657824570985L89.409375,119.55182587032186L89.656875,89.63277941279591L89.8425,35.0634148607811L90.02812499999999,42.77003749734578L90.33749999999999,83.73836987722494L90.52312500000001,148.10526163913678L90.646875,110.22154557212733L90.77062500000001,47.846488212319905L90.83250000000001,10.084336317804702L91.45125,27.35668068417092L91.513125,36.51067634873498L91.69874999999999,43.377253490459935L91.94624999999999,7.887304214970204L92.19375000000001,25.883454819576055L92.3175,71.25712200840046L92.44125000000001,62.48317734655306L92.565,97.43247121617046L92.75062500000001,79.52712467805544L92.93625,29.401824791678496L92.998125,36.415819107073865L93.05999999999999,83.11903575357314L93.18375,105.08757634827317L93.493125,120.83263935921246L93.616875,165.33653735087904L93.740625,120.04691976104677L94.17375,132.48615314946366L94.42124999999999,134.80809087094593L94.545,102.32266398468138L94.97812499999999,82.8261240949326L95.03999999999999,68.6675034863896L95.101875,61.17769375332169L95.47312500000001,93.44905535555303L95.65875,37.64660055742514L96.2775,44.43666054918786L96.40124999999999,47.374632104992116L96.525,47.71383019405884L96.64874999999999,48.3439462126933L96.958125,90.75397426170689L97.08187500000001,110.32043537156603L97.14375000000001,47.73909337868748L97.205625,120.83236371986162L97.2675,91.63103920082234L97.329375,76.25001424814343L97.576875,65.67505501883457L97.7625,21.24090868849621L98.07187499999999,33.52204206423853L98.13375,38.634751394881896L98.195625,43.41413780203922L98.44312500000001,45.86398447343767L98.87625,48.593602254108774L99.12375,84.43027062758955L99.185625,114.4199610271219L99.2475,89.63383361090204L99.433125,35.47984254982189L99.556875,118.31713820700608L99.68062499999999,92.38719727800779L99.74249999999999,76.31238690651082L99.86625000000001,105.78947851397928L100.299375,44.932486273333L100.36125,45.468935497908696L100.546875,47.99575259790626L100.60875,50.06675530019883L100.73249999999999,130.8057866562379L100.794375,136.0127883722495L100.98,63.3549782340701L101.10375,58.134494924950225L101.413125,89.63414491417645L101.84625,75.57763369366745L102.155625,105.54620279698884L102.2175,190.7672208015065L102.83625,134.83569164505516L102.96,99.57318941774156L103.14562500000001,80.45977566125394L103.57875,131.86099817596048L103.7025,100.25172662164073L103.764375,79.98162544774918L103.82625,103.55938256734446L104.07374999999999,83.63559681723994L104.1975,70.28069491562808L104.50687500000001,97.35554555045107L104.75437500000001,78.48140601291004L104.81625000000001,67.88626503885396L105.001875,139.367146097176L105.496875,103.1864682585586L105.55875,82.8185966256341L105.620625,105.65986045118835L106.05375,82.91801481197277L106.30125,68.52589158982039L106.610625,23.673387622654445L106.73437500000001,34.887322867893104L106.981875,42.291167788007705L107.91,46.3548733468103L108.03375,9.6872979820193L108.219375,-12.796413390502966L108.28125,13.11717704559879L108.343125,29.442095292633596L108.40499999999999,37.59307565425113L108.52875,81.49145163811176L108.6525,107.7096530041295L108.71437499999999,46.78209620439559L108.9,49.079686785914156L108.96187499999999,51.07315320258543L109.333125,12.18197784041126L109.580625,28.168893624523747L109.89,35.34352002647652L109.951875,39.19568748863093L110.01375,44.82238405634441L110.26125,84.5224998418766L110.446875,70.88248805320833L110.75625000000001,62.91522308982627L110.941875,133.43346352142063L111.25125,62.65900880812604L111.313125,94.98800688066754L111.49875,117.98503951325493L111.74624999999999,126.86714459085424L111.99374999999999,97.01654048598006L112.303125,77.99871511578459L112.6125,104.01359713365754L112.73625000000001,158.15266189791473L112.921875,114.41821093602333L112.98375,163.22531349121272L113.540625,153.28026472159198L114.159375,113.16201188526789L114.345,125.09610203417033L114.71624999999999,95.24307517757784L115.0875,114.97469556486524L115.335,126.16764490350545L115.396875,161.99949907367284L115.45875000000001,118.95188023033653L115.5825,130.91436655261953L116.015625,98.79263646100176L116.07749999999999,40.79086877564751L116.325,83.90651594978127L116.69624999999999,31.664798270137247L116.94375,38.15464267834654L117.12937500000001,80.46059092150543L117.376875,67.56707016236703L118.614375,62.51870129264393L118.861875,94.25819232210625L119.480625,39.08031542669438L119.79,43.73455687353704L119.91375,46.719629901044264L119.975625,48.58173928040373L120.0375,110.10207917948158L120.09937500000001,126.7994058273356L120.594375,97.37158735515492L120.965625,149.7472290910049L121.089375,146.43394813908446L121.15125,69.27722399934116L121.27499999999999,61.06125792532824L121.33687499999999,93.3100385020897L122.07937500000001,75.94965671830816L122.14125,66.76861902099732L122.265,60.0856934657101L122.69812499999999,96.79881115444381L122.94562499999999,39.55597232675913L123.13125000000001,5.718938768917869L123.37875,22.250535388814306L123.62625,34.951617828081744L123.688125,41.78386528913421L123.87375,85.75734387607285L124.30687499999999,71.92918705684488L124.36874999999999,63.40855085826353L124.430625,19.56510760856801L124.55437500000001,32.31496100512658L124.74000000000001,1.4854024554180527L125.4825,-16.88986909176134L125.85375,-28.148852582431616L126.03937499999999,4.3049171603688094L126.10125000000001,23.304665689287692L126.286875,34.922865123466956L126.72000000000001,79.2126900213458L126.905625,68.4315380323609L126.9675,62.00048870409339L127.58624999999999,18.662718449187782L127.77187500000001,99.97502836399066L127.83375000000001,119.16106862639332L127.9575,90.58754136116093L128.20499999999998,110.16076015161309L128.266875,85.81248475529671L128.4525,72.90560162088931L128.7,99.42795833470511L129.009375,80.61627914566505L129.628125,66.53041444618366L129.69,59.60200515963134L129.751875,17.05864899470181L129.99937500000001,-8.311089413246497L130.123125,57.227298544878806L130.618125,54.48462999806543L131.608125,131.50011659969152L131.855625,137.8538452616615L132.103125,141.56955075385414L132.226875,105.7999985797539L132.4125,84.58313704846492L132.474375,110.85698502892802L132.78375,163.9637083402439L132.84562499999998,118.89148485022676L133.093125,91.9994891739633L133.27875,36.88175093317146L133.4025,4.100274964584692L133.77375,-15.723414045217279L134.02125,12.099197686039908L134.26875,66.16542581599187L134.51624999999999,96.34182371025383L134.701875,78.25058840284355L134.825625,68.60889444018802L135.196875,62.60907071174241L135.25875,124.16080480941403L135.320625,95.93392160080289L135.3825,78.94905932034501L135.691875,28.86916577390105L135.75375,38.239617445297654L135.81562499999998,44.351372645578806L136.24875,47.97329530310101L136.3725,10.548573533570817L136.55812500000002,26.711306859289333L136.681875,73.24064639251786L136.74375,65.48185457135057L136.805625,97.579255897995L136.8675,79.69136557271035L137.23875,105.2901097877402L137.48624999999998,118.82958783420308L137.548125,91.74871969159965L137.671875,156.31857224686672L137.98125000000002,187.20997829796028L138.47625,206.76976294646082L138.53812499999998,145.08163161875098L138.785625,193.6493071184452L138.909375,137.98546163756654L139.21875,201.65455923129704L139.40437500000002,141.2648649998933L139.46625,106.56627233522984L140.146875,121.72377557487725L140.765625,54.25553766719092L140.889375,132.34764011629468L141.07500000000002,98.30365620223422L141.3225,79.92185431038527L141.384375,116.68485525091512L141.44625,90.87126089835179L141.631875,75.76543524717425L141.8175,65.57791855519818L142.065,59.53752741707665L142.3125,90.46762137522825L142.43625,109.38027880214337L143.488125,164.2116497808421L143.735625,119.1155850056679L143.92125,90.38361604301811L143.983125,75.69565743542556L144.16875,27.091938202654898L144.29250000000002,37.14486351640829L144.54,120.86014736898915L144.66375,91.43888064107566L145.220625,112.49840340240108L145.46812500000001,125.59206075703901L146.025,130.19778153700926L146.334375,99.02711556360738L146.39625,151.15426033825318L146.458125,110.95942400357781L146.89125,87.31837469744585L147.2625,72.1100587429171L147.448125,24.740035803302938L147.63375000000002,35.368946353253065L147.7575,77.3941235215133L148.190625,66.83684519278634L148.43812499999999,60.31277606098432L148.62375,55.56754711741445L148.995,129.35114472552678L149.056875,98.2210553766868L149.11875,78.81524267314452L149.30437500000002,148.58781187474966L149.61375,109.53637213628001L149.98499999999999,86.1316029864688L150.046875,73.13764357122255L150.665625,63.823368488592024L150.7275,59.846732649329745L150.97500000000002,96.94189193445757L151.03687499999998,115.17163939984358L151.09875,154.95999485927757L151.284375,112.45076997575829L151.408125,124.77930423177068L151.59375,94.22979092973179L151.779375,38.282001564803316L151.965,5.1243076255608L152.21249999999998,-15.44875342262026L152.274375,12.014891387368014L152.398125,26.734893070502324L152.46,37.021081508250425L152.58375,3.8864952707054887L152.64562500000002,23.726670513919203L153.264375,35.34031628706691L153.388125,41.609987016225396L153.511875,45.230711642219255L153.88312499999998,47.15529593730244L153.945,49.09053270098675L154.130625,50.18704939021208L155.739375,51.0167380098153L155.986875,50.97146090225812L156.29625000000001,51.48133265707754L156.42000000000002,87.65320852424476L156.605625,150.5021704203885L156.853125,190.03152719452711L156.91500000000002,169.9845447846229L157.1625,120.60682787563434L157.348125,160.47857881433657L157.59562499999998,77.7048825448837L158.02875,68.0308066964526L158.09062500000002,98.48619949971636L158.15249999999997,117.12020389172437L158.833125,52.28626154426177L158.895,89.07527527039585L159.01875,126.81883653785896L159.26624999999999,57.53037193246711L159.575625,56.13103746279172L160.070625,55.443838334053744L160.194375,53.98266834300593L160.318125,89.21064337529928L160.565625,74.18291133534916L160.689375,65.20264214256247L160.75125,95.43064820168628L160.87499999999997,39.10421361434479L161.060625,46.149889923977966L161.184375,89.60463196907959L161.431875,114.89560377750598L161.49374999999998,89.5221198043454L161.74125,192.62642201799432L161.803125,168.02289170178554L162.050625,178.64453125242787L162.11249999999998,163.64644733921412L162.298125,116.76785472610482L162.36,89.50321126816911L162.54562499999997,74.45844817314399L163.1025,65.20219861469076L163.288125,58.919830438123746L163.906875,56.74656603742147L164.52562500000002,92.90837508054946L164.71124999999998,74.07393219998539L165.144375,63.80061120653244L165.57750000000001,59.75846484070745L166.258125,94.68827059920432L166.38187499999998,38.16951078675759L166.69125,4.575428462639856L167.00062499999999,23.88341460654788L167.124375,69.86614600957859L167.24812500000002,63.05742773747212L167.619375,92.27579949915054L167.743125,76.77762905251767L167.92875,28.578273178019106L167.99062500000002,37.91312228471896L168.361875,44.188081639430465L168.609375,46.99515023099492L169.29,49.38472397204866L169.475625,11.126618319556338L169.66125,65.6282583951873L169.785,60.44167520479259L170.58937500000002,55.56246538066588L171.0225,88.57810833440094L171.20812500000002,72.74667308668904L171.76500000000001,64.22757338770235L172.074375,102.81319481165194L172.755,156.9312197212419L173.25,113.58294090034991L173.559375,86.29169737102049L173.62125,33.396466549751985L173.93062500000002,76.89961116431499L174.24,67.03126701208774L174.425625,95.1141428699391L174.73499999999999,78.39039379192084L175.23,65.97520246167595L175.415625,60.8845441121707L175.725,92.19582892313515L175.84875,144.37346065510624L175.910625,144.58644486230205L175.9725,107.343300355769L176.09625,85.35614448126148L176.4675,72.78341577589289L176.776875,25.024872676425375L176.900625,35.74846852773022L177.643125,41.040838346529824L177.766875,6.264203056971439L178.07625,24.632673154206834L178.4475,35.41228599923575L178.756875,40.95474049880015L178.880625,5.987052625619801L179.00437499999998,62.28577688565243L179.06625,94.57427474733605L179.251875,39.200633052067644L179.31375,41.949121036629435L180.365625,46.907078878636035L181.17,48.33161323016902L181.355625,49.44484759341924L181.603125,51.08243391615896L181.66500000000002,51.93281810171508L181.85062499999998,87.34081415759334L181.974375,73.49763095893368L182.03625,119.18831240659247L182.77875,52.83150545834312L183.27375,52.401101664232606L183.39749999999998,51.784209582523935L183.459375,88.36879556929419L183.706875,71.18156091923541L183.954375,64.57925303269805L184.201875,21.172857846771134L184.635,33.75139279200266L184.696875,1.863884296726066L184.944375,20.54764662362335L185.191875,110.75920487314418L185.50125000000003,124.68726483950265L185.625,139.54692882779605L185.810625,103.76842259153293L185.93437500000002,83.59564559038672L185.99625,31.541841702536082L186.11999999999998,0.4897992470930259L186.24375,53.73485380806583L186.429375,53.40843984776118L186.676875,129.83033557058852L186.73874999999998,97.11559744387124L186.800625,116.18832744381743L186.924375,144.9439873443089L187.048125,107.11934513485684L187.3575,83.74285927263108L187.48125,70.3525311652743L187.543125,61.77958249754882L187.97625,136.36264385222248L188.1,100.96498980642848L188.28562499999998,120.2454037682232L189.646875,53.78205024554612L189.70875,90.98163199169913L189.8325,73.57324666217147L190.265625,64.11719893779915L190.389375,60.12823957585865L190.45125000000002,57.21467160085077L190.760625,53.643069595364864L190.8225,53.707349186862025L190.884375,53.48265713729478L191.07,86.87347786613928L191.13187499999998,73.59285969109693L191.3175,25.76386055571649L191.75062499999999,37.07098086479087L191.87437500000001,80.61693297355315L191.99812500000002,68.90680860726309L192.121875,136.0481696925006L192.18374999999997,139.25333565893962L192.864375,102.94670293344971L192.92625,83.21934998217122L192.988125,70.88294542464986L193.483125,64.155363734726L193.54500000000002,93.5883623115476L193.85437499999998,75.88001132225348L193.91625,65.33961205957635L193.978125,59.18807429251961L194.04,56.180065076111006L194.16375000000002,55.20397721150467L194.225625,53.59599589055692L194.28750000000002,53.37596899152076L194.47312499999998,89.8802564659352L195.15375,115.10326327120708L195.525,89.63337352058558L195.64875,73.42000545501381L196.14374999999998,103.04860844213115L196.205625,119.91942895909973L196.2675,53.50699077739992L196.39125,52.72404038041367L196.824375,86.00892460000779L197.01000000000002,110.02005907241592L197.13375,84.91631486794351L197.319375,71.79007704831847L197.443125,98.03933065281922L197.566875,80.62800539353368L198.12375,67.4706227468402L198.37125,59.36913220967195L198.495,95.26454933867605L198.61875,77.7287554737889L198.74249999999998,28.131336173396743L198.804375,37.661906409848584L199.051875,78.07432424363644L199.11375,29.3839304299293L199.17562500000003,39.028338202360096L199.48499999999999,78.06788901316857L199.79437499999997,67.18074393646559L199.85625,104.71469652833885L200.10375,85.27242459535915L200.41312499999998,71.58661327106493L200.475,63.79118067848147L200.536875,58.21772996637066L200.59875,54.02078685011713L200.7225,53.304144293020386L200.784375,51.99005002463147L201.27937500000002,51.61528077771833L201.34125,86.78910074535082L201.40312500000002,71.84870795864072L201.7125,63.99712565131636L201.774375,127.55912816289565L202.021875,97.53163097544068L202.2075,79.52897060907921L202.393125,29.199585085656135L202.51687500000003,73.94309733157834L202.640625,65.68246061341345L202.764375,60.31863749531192L202.82625,89.95261471487183L202.888125,113.95762151890891L203.1975,136.54758272135953L203.259375,102.81518849611915L204.001875,82.56952783155822L204.125625,69.82920392316699L204.55875,62.344357112311954L204.93,131.98313237818263L204.991875,166.85058687985702L205.6725,161.68044698209565L205.734375,118.29401983720662L206.29125000000002,132.39651874159068L206.415,170.67145067366536L206.53875,122.84025479806462L206.724375,91.7454880644966L206.91,115.88219401723134L207.09562499999998,89.79494184035921L207.34312500000001,111.09385719405928L207.405,86.95016316564544L207.714375,73.07218291581125L207.83812500000002,63.77417768328026L207.96187500000002,98.36172937164251L208.02374999999998,114.69197592199119L208.27125,89.13791338078703L208.395,74.3723921518964L208.580625,106.41316457247663L209.075625,155.51959724091142L209.199375,74.78238749866547L209.26125,65.94157988245567L209.385,21.131553435416706L209.69437499999998,72.9609046620135L209.81812499999998,65.74695359155292L209.941875,60.361436051527086L210.065625,56.20166465382109L210.56062500000002,89.5516017086634L211.055625,72.30390315554695L211.1175,186.41187342076068L211.24125,133.52486081337616L211.303125,99.43168259575829L211.48874999999998,80.8838162979557L211.6125,109.0454892250181L211.674375,84.12603428263603L211.85999999999999,71.16517673302265L212.23125000000002,98.58647989124293L212.47875,142.2790721055554L212.540625,104.65873095254226L213.406875,120.16835999264572L213.5925,128.75512893282107L213.778125,58.838730988128646L213.96375,56.18073154609097L214.21125,15.706041840384007L214.396875,-8.392236082750783L214.45875,17.0458660141457L214.52062500000002,29.113207668901122L214.891875,37.46710573148981L215.20125,43.19909388045551L215.263125,48.070398794315565L215.325,49.62759301693468L215.57250000000002,51.02580975247704L215.69625,85.6660666287412L215.75812499999998,71.82445580366074L216.129375,65.43122022402882L216.315,60.57165634262486L216.43875,91.23193872966937L216.500625,75.80995285239233L216.62437500000001,64.46278741023247L216.68625,58.30835810676181L216.80999999999997,56.508970205743005L216.995625,55.2469569691933L217.18125,88.05366276794176L217.67625,72.60456513124626L217.738125,62.338671307529715L218.04749999999999,57.304089320162355L218.29500000000002,90.73512715388719L218.356875,36.09619172680551L218.66625,42.51808733666481L219.470625,45.0141312383359L219.5325,84.47012766323415L219.59437499999999,69.4281501924673L219.65625,62.45225156845002L220.213125,97.04112108822024L220.64624999999998,40.11553259016652L220.831875,45.14683663007203L221.14125,8.495069076105914L221.326875,26.042862326900227L221.698125,34.96355960916391L221.76,75.80677415439217L221.82187499999998,107.1034318632408L222.13125,122.05524420983011L222.37875,93.05661078426544L222.5025,148.74045367537107L222.688125,110.49065838297918L222.935625,87.46220986022074L222.9975,73.21714652825959L223.059375,66.1749139656507L223.18312500000002,61.35304502578601L223.430625,57.10882598619693L223.49249999999998,55.29810205756066L223.61625,14.512921963519847L223.678125,29.389135721502335L223.925625,37.93987184150403L223.98749999999998,77.80835586635483L224.049375,67.68718302831343L224.35875000000001,96.82604411430695L224.4825,77.95466033754725L225.10125,28.626739118704887L225.163125,104.22725274412774L225.410625,155.34038501606116L225.534375,113.9099085276143L225.84375,89.30910762544642L225.9675,74.63892238332892L226.153125,63.76191728664243L226.276875,57.96924568115626L226.895625,92.81180922177082L227.08125,37.370638609719876L227.266875,43.50102966962721L227.57625000000002,8.143886734639032L227.76187499999997,24.187237053434345L228.133125,35.10886300620834L228.31875,109.35789592872499L228.4425,86.96996865853116L228.751875,72.5875967485411L228.87562499999999,61.40939137875889L229.123125,57.804093023721954L229.185,54.29998118543789L229.68,89.3209448269854L229.9275,35.288140322784685L229.989375,78.84907529474502L230.175,67.90844332637207L230.29875,95.07489013134345L230.4225,77.66021317592964L230.731875,28.036096777194608L230.979375,101.62073915429617L231.226875,80.68327433364215L231.474375,67.83206212881635L231.59812499999998,101.35766781373334L231.969375,122.57155200992858L232.711875,128.48720336171888L232.835625,97.4227594171556L232.959375,79.08906802600357L233.145,69.0100341660993L233.330625,62.430972531575414L233.51625,58.841691845250296L233.578125,94.17954386025744L233.8875,152.6779161909769L234.3825,113.11408528032656L234.75375,125.25110888858833L234.93937499999998,95.5586453191704L235.00125,38.73684421406512L235.49625,80.395338173503L235.99124999999998,70.08391434375469L236.548125,62.76405979344211L236.795625,58.849109343528L237.22875,17.19239077580145L237.60000000000002,30.274960402647974L237.72375,38.24426326773401L237.909375,4.948638993306699L238.033125,61.94235048249859L238.404375,57.94240380867529L238.52812500000002,118.00003995255246L238.59,93.17960191342603L238.96125,75.77572486265522L239.085,65.9710588494779L239.14687500000002,60.539487754422154L239.20875,96.82185738099137L239.45624999999998,121.1645380458711L239.518125,191.43898583355957L239.58,136.42694556341257L239.70375,100.22134139921586L239.889375,41.90735711284634L240.013125,80.80079066596775L240.32250000000002,69.10043325633669L240.38437499999998,134.26490223229987L240.57,101.16897596295945L240.879375,81.89248135303312L240.94125,70.15334509067284L241.065,62.1468714315122L241.12687499999998,95.38519769355756L241.43625,78.8511858102929L241.56,131.40453855693212L241.745625,60.45275452608334L241.8075,94.07490935738474L241.86937500000002,115.82366567946102L242.05499999999998,88.34089274485702L242.240625,73.93995842634425L242.42625,65.27435154561923L242.67374999999998,20.588964692078918L242.92125000000001,34.47960154362979L243.04500000000002,83.29642359041794L243.354375,107.42198712211297L243.41625,46.21367979417924L243.54000000000002,49.06162137859385L243.72562499999998,50.25766783725487L244.035,11.726045637718066L244.15875000000003,28.242414838796506L244.65375,36.68946773539792L244.71562500000002,43.48431962383818L244.963125,7.94044742008953L245.086875,-13.450551067249318L245.39624999999998,-26.826616042474175L245.52,3.68160057881682L245.64375,60.53767591791331L245.7675,56.74384649257593L245.953125,89.40331226233354L246.26250000000002,115.04796652776588L246.324375,130.17743614446493L246.38625,59.436218735545935L246.44812499999998,94.5786380905818L246.51,38.14837797776146L246.571875,81.31919443913381L246.819375,116.29435346656976L246.94312499999998,91.07799648213023L247.06687499999998,76.44585975118332L247.2525,65.0371592528096L247.438125,97.20080704294108" style="fill: none;" fill="none"></path></g></g></g></g><g opacity="0.2"><g><g><g><path stroke="rgb(255, 112, 67)" stroke-width="2px" d="M36.01125,356.51793656782667L36.444375,50.12146557894621L37.06312500000001,341.0308539650657L37.496249999999996,-44.79436809799886L37.558125000000004,149.7767505298961L37.681875,49.74422440962358L38.115,231.89775446111508L38.424375000000005,49.371304529363464L38.671875,50.287718582153325L38.73375,48.557122109153056L38.857499999999995,-46.81269637942316L38.98125,-46.33016819520429L39.3525,147.1112885908647L39.414375,48.03209776444869L39.8475,47.41057486100631L39.97125,211.7637392911044L40.033125,51.95277141224255L40.21874999999999,52.23487056385387L40.651875,154.4967153375799L40.8375,48.53172839771617L40.96125,50.38543250344016L41.085,49.550889691439544L41.45625,148.38782438798384L41.518125,153.94883235584606L41.580000000000005,51.108247895674275L41.889375,51.535042710737756L42.3225,238.5008560180664L42.384375000000006,53.904152610085234L42.44625,50.07177689292215L42.693749999999994,143.0664269880815L42.755625,188.50022693980821L42.8175,47.33399474404075L43.250625,147.18071157282048L43.43625,53.090614700317374L43.498125,47.97743100253018L43.56,51.58659126975321L43.621875,51.36697894009677L43.745625000000004,53.25793574940075L43.993125,-46.629679870605486L44.116875,55.18200198086825L44.240625,49.339029901677904L44.488125,268.12879236394707L44.550000000000004,150.348891657049L44.611875,50.14526949795809L44.7975,145.12861487648706L45.106875,49.26524266329679L45.725625,48.693095397949214L46.035,-45.39716605489904L46.096875000000004,52.3129054329612L46.15875,-47.05941066091709L46.901250000000005,51.77753209200772L46.963125,137.9909747730602L47.025,50.529170608520516L47.705625,236.53336819735438L47.89125,53.133269015225494L48.015,51.8166446685791L48.13875,-45.09380362142217L48.386250000000004,48.99020243558017L48.571875000000006,51.758086291226476L48.7575,51.68479624661532L48.88125,46.51625217090953L49.190625,45.49286166104403L49.314375,53.339727193659L49.376250000000006,-46.298198750886066L49.995,316.0420178500089L50.2425,143.94555150812323L50.49,48.079662635109635L50.61375,230.17417394464667L50.675625,50.8606085690585L50.86125,48.089422364668415L51.789375,-46.186762511730194L51.85125,-44.033472496813L52.160624999999996,54.72538167780097L52.284375,233.49763807816936L52.34625,144.4399585377086L52.7175,-45.47717320268806L52.841249999999995,49.96863066933372L53.088750000000005,54.55861920443448L53.33625,146.14066814075818L53.398125,54.28619998585094L53.46,152.80383807095615L53.521874999999994,54.015965964577425L53.58375,-46.11392592625186L53.645625,53.54195615595037L54.32625,139.2313320506703L54.82125,53.18492806174538L55.06875,50.47028076865456L55.192499999999995,146.40025239424273L55.31625,53.45235692804509L55.501875,47.829653965343134L55.81125,50.6817906813188L55.935,48.14493619745427L56.244375000000005,49.50354579578745L56.55375,51.26631868535823L56.615625,145.00553179654207L56.986875,50.77268506830389L57.048750000000005,137.5381969798695L57.29625,45.93830431157893L57.54375,-45.4264506144957L57.853125,140.5928695678711L57.915,52.7335190859708L57.976875,52.33146733370694L58.100625,51.244258013638586L58.348124999999996,-45.30830475308677L58.78125,-46.7586716343056L58.905,55.055150049382995L59.152499999999996,-46.082689228924835L59.461875,53.59324077259409L59.709375,46.379174007068976L59.77125,47.822208335182886L59.895,54.10285211042923L60.01875,49.73738032254306L60.26625,-45.39876486279749L60.328125,257.74426824396306L60.637499999999996,52.64936443675649L60.699374999999996,50.90716063759544L61.070625,-45.927535232630646L61.194374999999994,52.0407317421653L61.50375,53.10295860984109L61.75125,241.69662114923648L62.431875,51.55332839272239L62.49375,49.67768637917259L62.555625,49.1167351809415L62.6175,46.43498247320001L62.679375,148.72824866554953L62.74125,148.21278762817383L62.926875,196.40695828524503L62.988749999999996,51.55770492553711L63.050625000000004,229.44235382080078L63.916875000000005,52.68970465226608L63.97875,52.514919558438386L64.10249999999999,52.30422602566805L64.164375,48.965219983187595L64.22625,149.78900236649946L64.35,55.19575153697621L64.47375,244.1324041193182L64.5975,52.278905972567465L64.72125,143.40701085870916L64.96875,47.99431103793057L65.0925,135.23395552201706L65.34,-46.125710876421515L65.71124999999999,52.50795884565874L65.83500000000001,52.36878755742853L66.0825,54.13646486455744L66.268125,-44.90808199102228L66.391875,49.46820820895109L67.0725,51.03711235739968L67.134375,149.1097865711559L67.32000000000001,54.00384303006259L67.44375000000001,50.152923826737826L67.505625,52.108258021961554L67.69125,49.14501998207785L67.815,-45.53753582564267L68.248125,246.99204170920632L68.5575,53.25485437566583L68.866875,143.21799129139293L68.92875,44.69483496926047L69.0525,51.95490750399503L69.42375,139.7749796780673L69.485625,49.55638337568802L69.67125,51.42036281932484L69.795,150.2442968195135L69.856875,52.91545517661354L70.10437499999999,51.28122836026279L70.35187499999999,150.8688213001598L70.66125,141.7784864252264L70.723125,-44.879914582859385L70.78500000000001,54.026984024047856L71.094375,45.13655787381259L71.218125,232.5161407470703L71.465625,47.76177167025479L71.65125,47.767400394786485L71.77499999999999,48.280934039029205L72.20812500000001,146.49613099531695L72.39375,-46.05596487197008L72.703125,52.812032734264015L72.76499999999999,-46.89703028310427L73.0125,45.77917775240812L73.26,49.492926718971944L73.755,-45.02061313065616L73.87875,136.6329114740545L74.0025,140.07209285389294L74.064375,49.9259824926203L74.188125,45.39876927462492L74.37375,53.11967291398482L74.86875,139.10062533291904L75.17812500000001,-46.595732968503775L75.301875,143.09808779629793L75.48750000000001,48.44611899636009L75.549375,52.825647250088785L75.673125,51.4678601698442L75.796875,51.18969560102982L75.85875,-46.0976882912896L75.9825,157.62200171730734L76.044375,247.37096474387428L76.168125,51.220785557140005L76.23,146.75699199329722L76.291875,53.47113980379972L76.60125,-46.2177989504554L76.84875000000001,51.2111240386963L76.9725,49.418507246537644L77.71499999999999,52.98471242731269L78.21000000000001,48.4234690579501L78.271875,54.351418304443364L78.519375,52.108693833784635L78.705,46.06195824363015L78.890625,53.50528044267135L78.9525,53.02869259227406L79.07624999999999,53.192613081498585L79.138125,139.43219833374025L79.2,141.20730285644532L79.32375,52.181449855457664L79.695,-47.006262047182446L80.685,-44.825004978613414L80.74687499999999,54.05419464111328L80.80875,-46.57084009538998L80.870625,46.78142218156294L81.05624999999999,149.22196821732953L81.55125,147.50002046064898L81.613125,54.207551297274506L82.17,153.48784165815874L82.41749999999999,-45.81155519485472L82.479375,147.80113573941318L82.603125,151.2445524735884L82.66499999999999,52.53731783086604L82.85062500000001,143.35228271484374L82.9125,142.61102204756304L83.09812500000001,147.91361201893199L83.221875,247.98463689630682L83.593125,248.62534165815873L83.964375,145.67131722190163L84.15,244.30577129017223L84.27374999999999,53.221376661820834L84.52125000000001,141.56321993741122L84.76875000000001,51.8595138203014L84.830625,-46.91746605959806L85.635,145.3296161998402L85.75874999999999,136.15754512440077L86.00625,50.23674701343884L86.13000000000001,140.62741532759233L86.315625,137.56119065718218L86.43937500000001,45.466805024580516L86.50125,50.94532179398971L86.686875,-46.17967212958768L86.74874999999999,250.9194059892134L87.05812499999999,154.2244004683061L87.12,49.332081465287644L87.24375,47.98610427162863L87.30562499999999,-44.14018194241957L87.73875,238.5830341685902L87.80062500000001,51.689921639182344L87.924375,50.46687407060104L88.3575,50.375783261385834L88.48125,54.69567281549628L88.543125,49.55360891168768L88.605,143.79650386463513L89.038125,53.3601060000333L89.22375,151.07682016546076L89.409375,139.80969730723987L89.656875,44.754209726507014L89.8425,-46.79063196724112L90.02812499999999,54.32997145219283L90.33749999999999,145.19086844704367L90.52312500000001,244.6555992820046L90.646875,53.395971471613095L90.77062500000001,-45.7160978273912L90.83250000000001,-46.55889152396807L91.45125,53.265197233720265L91.513125,50.24166984558105L91.69874999999999,53.677119203047326L91.94624999999999,-45.34761969826437L92.19375000000001,52.877680726484826L92.3175,139.31762279163706L92.44125000000001,49.32226035378195L92.565,149.8564120205966L92.75062500000001,52.669104870882904L92.93625,-45.78612503788689L92.998125,46.936810580166906L93.05999999999999,153.1738607233221L93.18375,138.04038724032316L93.493125,144.45023387562145L93.616875,232.0923843383789L93.740625,52.11249337629838L94.17375,151.14500323208895L94.42124999999999,138.29099745316938L94.545,53.59452365528454L94.97812499999999,53.581314260309384L95.03999999999999,47.4295725735751L95.101875,49.94297915371982L95.47312500000001,141.85609775890003L95.65875,-46.05708163976669L96.2775,54.62175053683194L96.40124999999999,51.78158943869851L96.525,48.22262732765892L96.64874999999999,49.28912024064497L96.958125,154.36901633522726L97.08187500000001,139.67012703635476L97.14375000000001,-46.13291961063038L97.205625,230.47226923162287L97.2675,47.829052422263395L97.329375,53.178476819125095L97.576875,49.81261617487128L97.7625,-45.41031080701134L98.07187499999999,51.943742127852005L98.13375,46.30381539084696L98.195625,50.58321741277521L98.44312500000001,49.53875448053534L98.87625,52.688028925115404L99.12375,138.18527318781074L99.185625,159.40449662642047L99.2475,52.45464248657226L99.433125,-45.75114404179835L99.556875,242.57308169278232L99.68062499999999,53.492285884510395L99.74249999999999,52.20017134926536L99.86625000000001,150.005115925182L100.299375,-46.35300208763643L100.36125,46.273609334772274L100.546875,51.78597824790261L100.60875,53.173259353637704L100.73249999999999,251.91433369029653L100.794375,143.82329094626687L100.98,-45.631736973198976L101.10375,50.303769961270426L101.413125,136.8836198980158L101.84625,54.492866862903945L102.155625,150.4990564519709L102.2175,318.598747808283L102.83625,50.93839791037821L102.96,46.67943607677113L103.14562500000001,51.78965502652255L103.57875,208.96283194802027L103.7025,52.83781929016113L103.764375,49.57647368691183L103.82625,138.92601824673739L104.07374999999999,53.749918192083186L104.1975,50.24834206321024L104.50687500000001,137.96782150268555L104.75437500000001,50.170196706598446L104.81625000000001,51.99355357776989L105.001875,246.58846768465907L105.496875,48.915451500632535L105.55875,52.26678917624734L105.620625,139.9217561895197L106.05375,48.805246353149414L106.30125,46.9377067565918L106.610625,-43.6053683280945L106.73437500000001,51.70822573575107L106.981875,53.396935168179596L107.91,52.4504316850142L108.03375,-45.314065065167156L108.219375,-46.52198044928637L108.28125,51.987562699751415L108.343125,53.92947266318582L108.40499999999999,49.81954619667746L108.52875,147.3390156139027L108.6525,147.03695505315608L108.71437499999999,-44.60923899520529L108.9,52.526072658192035L108.96187499999999,54.06335282759232L109.333125,-46.15478520284998L109.580625,52.149267300692465L109.89,46.10545962940563L109.951875,44.97393868186258L110.01375,53.2624289079146L110.26125,144.0726735201749L110.446875,50.422470370205964L110.75625000000001,50.9643256447532L110.941875,239.21082416881214L111.25125,-43.502673261815865L111.313125,143.48150398947973L111.49875,152.48058846213598L111.74624999999999,140.1903022072532L111.99374999999999,52.240634328668776L112.303125,49.4719770604914L112.6125,143.035920160467L112.73625000000001,239.36125904430043L112.921875,48.816534493186246L112.98375,236.4359673239968L113.540625,138.36269156716085L114.159375,52.9846326307817L114.345,142.99723725752398L114.71624999999999,50.4635348926891L115.0875,144.57212614579635L115.335,142.95706891146574L115.396875,215.74728032892398L115.45875000000001,54.380451965332036L115.5825,148.85809603604403L116.015625,50.6100413235751L116.07749999999999,-46.21178275238384L116.325,148.5799867109819L116.69624999999999,-46.6977782493288L116.94375,47.88940929066052L117.12937500000001,143.91951328624378L117.376875,48.22678902365946L118.614375,54.9461479880593L118.861875,141.86742886629972L119.480625,-43.68649991642344L119.79,50.71591904380106L119.91375,51.197239442305126L119.975625,51.37490334944292L120.0375,202.38258902809835L120.09937500000001,151.84539579911666L120.594375,53.22985964688388L120.965625,228.31069169477982L121.089375,141.46402671120384L121.15125,-46.45786221027376L121.27499999999999,48.737308814308854L121.33687499999999,141.68320936723188L122.07937500000001,49.90908404263583L122.14125,52.99706247503107L122.265,50.06130513277921L122.69812499999999,151.8684876875444L122.94562499999999,-46.308285914767865L123.13125000000001,-45.03661156784406L123.37875,47.047930318659006L123.62625,54.00324148698287L123.688125,52.03223648071288L123.87375,151.71756175648085L124.30687499999999,51.186951828002925L124.36874999999999,50.62759656039151L124.430625,-46.20005726597526L124.55437500000001,51.4397410999645L124.74000000000001,-44.758935369144794L125.85375,-45.03732781843707L126.03937499999999,52.98557177456942L126.10125000000001,51.804288482666024L126.286875,52.35016427473588L126.72000000000001,145.64742736816407L126.905625,52.259810048883615L126.9675,52.353914711692106L127.58624999999999,-46.34393693317068L127.77187500000001,221.94349323619497L127.83375000000001,147.94012901999733L127.9575,47.72725046331233L128.20499999999998,139.52058833729137L128.266875,49.29007166082208L128.4525,53.54527691927823L128.7,139.2114934054288L129.009375,52.39876036210493L129.628125,45.40161739696156L129.69,49.209391229802904L129.751875,-46.75638525269247L129.99937500000001,-46.36569702516903L130.123125,155.53488048206677L130.618125,50.37062717784534L131.608125,247.0233465021307L131.855625,147.38443825461647L132.103125,147.1431089921431L132.226875,52.14567031860351L132.4125,52.75784475153144L132.474375,150.2677569996227L132.78375,243.62379330721768L132.84562499999998,51.28314961520109L133.093125,51.66149565956808L133.27875,-45.79485642801632L133.77375,-45.458947559920226L134.02125,53.83311528292569L134.26875,147.26476801091974L134.51624999999999,141.60642055164686L134.701875,51.11373544172806L134.825625,54.14635349620472L135.196875,53.60933511907403L135.25875,216.48840595592154L135.320625,53.593596787886185L135.3825,53.471765899658195L135.691875,-46.25067454576492L135.75375,52.295294952392574L135.81562499999998,53.519005446000534L136.24875,53.40617928938432L136.3725,-45.588509120724424L136.55812500000002,50.955406847867096L136.681875,143.03465569236062L136.74375,53.843666839599614L136.805625,145.72535788796165L136.8675,52.85953008478337L137.23875,143.68822611028497L137.48624999999998,139.13880490389738L137.548125,51.12741747769442L137.671875,253.17335107976743L138.47625,236.10943991921167L138.53812499999998,52.54943462718618L138.785625,266.5008203679865L138.909375,54.48969341624866L139.21875,297.15820562189276L139.40437500000002,50.680323652787635L139.46625,54.518383338234635L140.146875,144.46003043434837L140.765625,-46.946819194338545L140.889375,249.4857937899503L141.07500000000002,47.23768033114347L141.3225,52.34915147261186L141.384375,171.82935666170988L141.44625,52.150869369506836L141.631875,53.10669677040794L141.8175,50.2966435172341L142.065,50.47694070989436L142.3125,136.8627623124556L142.43625,137.749264942516L143.488125,246.45870624889028L143.735625,51.4714878429066L143.92125,47.28566259904342L143.983125,53.66371952403676L144.16875,-45.813640646501035L144.29250000000002,52.22425148703836L144.54,246.43307314786043L144.66375,47.306980549205434L145.220625,144.0876875443892L145.46812500000001,145.2325467889959L146.025,137.10636270696466L146.334375,52.27111660350453L146.39625,229.34497750022194L146.458125,50.66716950156472L146.89125,51.856800738247955L147.2625,49.29758481112393L147.448125,-46.31499860611829L147.63375000000002,51.31231217817826L147.7575,140.43188927390358L148.190625,51.00092769969593L148.43812499999999,50.52667236328125L148.62375,48.449703702059665L148.995,240.02654113769532L149.056875,51.52592135342685L149.11875,49.706523617831145L149.30437500000002,253.24666567715732L149.61375,50.959212528575556L149.98499999999999,51.02444926175204L150.046875,53.646704448353155L150.665625,49.85195586464621L150.7275,53.88177889043634L150.97500000000002,152.58463086214934L151.03687499999998,142.5162605979226L151.09875,214.64252804842863L151.284375,48.686932650479406L151.408125,143.27210561578923L151.59375,48.40552097667347L151.779375,-45.63968248258939L152.21249999999998,-46.30834499489178L152.274375,53.210358602350404L152.398125,48.81489559520376L152.46,52.450364164872596L152.58375,-45.815384085611875L152.64562500000002,53.48693337873979L153.264375,52.760784946788434L153.388125,51.014493109963155L153.511875,50.66179858121004L153.88312499999998,50.04217237992721L153.945,51.99338784651323L154.130625,51.83182442405007L155.739375,52.26127093922008L155.986875,50.903545240922405L156.29625000000001,52.246140289306645L156.42000000000002,141.91102232499557L156.605625,244.77561326460406L156.853125,249.3255623557351L156.91500000000002,139.91407116976652L157.1625,46.540252512151554L157.348125,220.2862052223899L157.59562499999998,-46.455661859295574L158.02875,53.51969292380594L158.09062500000002,144.16928870461203L158.15249999999997,145.07121047973632L158.833125,-44.96465197693219L158.895,144.25879585959694L159.01875,183.4341784390536L159.26624999999999,-46.402324975620616L159.575625,54.03203575827859L160.070625,54.41303964094683L160.194375,51.79091335643421L160.318125,142.05260592373935L160.565625,51.64131327542392L160.689375,51.732238353382456L160.75125,140.772657290372L160.87499999999997,-45.38543826666745L161.060625,56.71840438842774L161.184375,154.78674503673204L161.431875,152.8320614901456L161.49374999999998,51.4618938446045L161.74125,347.2828753384677L161.803125,131.1175962274725L162.050625,194.57699057839136L162.11249999999998,141.14932146939364L162.298125,46.44996580644087L162.36,48.60624608126554L162.54562499999997,51.89130353060635L163.1025,51.31782427701083L163.288125,49.49627817327327L163.906875,53.48666943636808L164.52562500000002,147.1510886452415L164.71124999999998,45.8222678791393L165.144375,48.39062971635299L165.57750000000001,53.695245291970004L166.258125,147.0829792369496L166.38187499999998,-46.608628931912506L166.69125,-45.81569502353669L167.00062499999999,52.845393822409896L167.124375,138.84024311412463L167.24812500000002,52.844350329312405L167.619375,136.10335714166814L167.743125,53.530373382568364L167.92875,-43.72076063372874L167.99062500000002,51.91539594476873L168.361875,53.60052067149769L168.609375,51.20575311834162L169.29,52.969084583629254L169.475625,-46.260540159182135L169.66125,147.3807185086337L169.785,52.66180041920054L170.58937500000002,48.243650644475764L171.0225,138.10157276500354L171.20812500000002,48.99952021512118L171.76500000000001,51.448923839222296L172.074375,160.69162694757634L172.755,238.1082570856268L173.25,48.56052266901189L173.559375,45.35483207702636L173.62125,-45.946379682150756L173.93062500000002,142.15432808615944L174.24,52.2287507837469L174.425625,137.2384566567161L174.73499999999999,53.30477017489346L175.23,47.352415466308585L175.415625,53.24855658791281L175.725,139.16275613958186L175.84875,222.63990825306286L175.910625,144.9059211730957L175.9725,51.478583595969454L176.09625,52.37541066950017L176.4675,53.92432271784001L176.776875,-46.61294197277591L176.900625,51.8338623046875L177.643125,48.979393074729224L177.766875,-45.90074987736616L178.07625,52.18537830005993L178.4475,51.58170526677911L178.756875,49.26842224814675L178.880625,-46.464479184150704L179.00437499999998,146.73386327570134L179.06625,143.0070215398615L179.251875,-43.859829490835004L179.31375,46.07185301347212L180.365625,54.344015641645946L181.17,50.46841475746847L181.355625,51.11469913829456L181.603125,53.53881340026856L181.66500000000002,53.20839438004927L181.85062499999998,140.45280824141068L181.974375,52.732856160944166L182.03625,187.7243345780806L182.77875,-46.70370496403089L183.27375,51.75549597306686L183.39749999999998,50.85887145996094L183.459375,143.24567454944957L183.706875,45.40070894414728L183.954375,54.67579120289196L184.201875,-43.9367349321192L184.635,52.61919520984997L184.696875,-45.967378446188825L184.944375,48.57329011396927L185.191875,246.07654224742544L185.50125000000003,145.57935478904028L185.625,161.83642481023614L185.810625,50.10066323713822L185.93437500000002,53.33648008866744L185.99625,-46.538864129239876L186.11999999999998,-46.08826443607159L186.24375,133.60243564952503L186.429375,52.91881890730425L186.676875,244.46317915482953L186.73874999999998,48.04349025379527L186.800625,144.7974224437367L186.924375,188.07747719504616L187.048125,50.3823818206787L187.3575,48.678130479292435L187.48125,50.267039004239166L187.543125,48.92015949596059L187.97625,248.23723588423294L188.1,47.86850873773748L188.28562499999998,149.16602471091528L189.646875,-45.91298003846949L189.70875,146.78100461092862L189.8325,47.460668667879965L190.265625,49.933127351240685L190.389375,54.14480053294789L190.45125000000002,52.84431963833896L190.760625,48.28566658713601L190.8225,53.80376857410778L190.884375,53.145619062943894L191.07,136.95970895940607L191.13187499999998,53.67193242853338L191.3175,-45.97963814735411L191.75062499999999,54.031661328402436L191.87437500000001,145.93586113669653L191.99812500000002,51.34162205782803L192.121875,236.76021132035686L192.18374999999997,144.06108460859818L192.864375,48.486753845214835L192.92625,53.62832055525346L192.988125,52.378338588367804L193.483125,54.063991199840196L193.54500000000002,137.73786017678003L193.85437499999998,49.31748483831232L193.91625,49.52901316556064L193.978125,49.96076764193449L194.04,51.66805125149814L194.16375000000002,53.73984541459517L194.225625,51.18402390913529L194.28750000000002,53.04592864296654L194.47312499999998,144.6366876775568L195.15375,152.93777347911487L195.525,51.42853889465333L195.64875,49.09995335665616L196.14374999999998,147.49151292280717L196.205625,145.22565973455255L196.2675,-46.1116664951498L196.39125,51.549614784934306L196.824375,135.93625092939897L197.01000000000002,146.03676078102808L197.13375,47.260698561234896L197.319375,52.100720318880946L197.443125,137.4132110595703L197.566875,54.51101750460538L198.12375,47.73454877679998L198.37125,47.21689640391957L198.495,149.1076750321822L198.61875,51.42506467645818L198.74249999999998,-46.264792777191516L198.804375,51.95776176452637L199.051875,138.69295099431818L199.11375,-43.65166029063137L199.17562500000003,53.4949498610063L199.48499999999999,136.62721522938122L199.79437499999997,50.85002632141113L199.85625,161.0156254161488L200.10375,56.10901669588956L200.41312499999998,51.05789628462358L200.475,52.09803178960627L200.536875,49.85755389820446L200.59875,47.72537217573686L200.7225,52.229180457375264L200.784375,50.018908622048116L201.27937500000002,51.05312690734864L201.34125,139.54983069679955L201.40312500000002,49.43811877857554L201.7125,52.219752190329814L201.774375,222.90213193026457L202.021875,52.49038519425826L202.2075,52.524980059537015L202.393125,-46.294493199478495L202.51687500000003,141.05836570046165L202.640625,53.291505536166106L202.764375,52.27290281815962L202.82625,134.40358054421165L202.888125,149.96513172496446L203.1975,170.43252452503552L203.259375,52.216597158258615L204.001875,52.20103683471679L204.125625,50.71871806058017L204.55875,51.11708689602939L204.93,236.44129527698863L204.991875,219.1517686323686L205.6725,153.92523713545367L205.734375,53.21437911987305L206.29125000000002,153.55026709816673L206.415,228.08384857177734L206.53875,51.09346098466354L206.724375,45.10333796414462L206.91,152.08725294633345L207.09562499999998,50.664063575051046L207.34312500000001,143.04223022460937L207.405,50.73462212302468L207.714375,52.255212541060025L207.83812500000002,49.827169834483755L207.96187500000002,150.2430569041859L208.02374999999998,139.1873457475142L208.27125,50.80681956898082L208.395,52.224110308560455L208.580625,154.47432320334696L209.075625,229.17924624356357L209.199375,-46.32342711470345L209.26125,52.68036845814097L209.385,-46.08348623514176L209.69437499999998,150.70493150190873L209.81812499999998,54.926026985862045L209.941875,52.283159741488376L210.065625,49.96200755726206L210.56062500000002,139.57650729092686L211.055625,46.432355325872244L211.1175,357.5738288185813L211.24125,54.19434190229935L211.303125,48.2919152693315L211.48874999999998,53.062016851251784L211.6125,151.28799861561168L211.674375,46.74685186906295L211.85999999999999,51.72389040860262L212.23125000000002,139.71843462857333L212.47875,207.81796042702413L212.540625,48.22821922302246L213.406875,143.43280355280095L213.5925,141.63528234308416L213.778125,-46.035865928909985L213.96375,52.193732383034444L214.21125,-45.005992718176394L214.396875,-44.539652967452994L214.45875,55.20301915949042L214.52062500000002,47.21422015103426L214.891875,49.99795282537288L215.20125,51.79707610390403L215.263125,55.37735616510564L215.325,51.96338435086337L215.57250000000002,53.12313485579056L215.69625,137.62645194313745L215.75812499999998,51.062039566040035L216.129375,55.84136685458097L216.315,53.2823105205189L216.43875,137.22236231023615L216.500625,52.676974036476835L216.62437500000001,47.44203924699264L216.68625,49.076714151555834L216.80999999999997,53.80988835421475L216.995625,53.3539371143688L217.18125,137.26372146606445L217.67625,49.43091867620294L217.738125,46.9398305719549L218.04749999999999,49.75221633911133L218.29500000000002,140.88168390447444L218.356875,-45.86221141381696L218.66625,52.15093075145375L219.470625,48.7581970908425L219.5325,143.6541223005815L219.59437499999999,46.865183986317035L219.65625,51.98840363242409L220.213125,148.92442536787553L220.64624999999998,-45.2728501569141L220.831875,52.69379268993031L221.14125,-46.48258225484327L221.326875,52.364552203091705L221.698125,48.344605532559484L221.76,137.07159597223455L221.82187499999998,154.04841842651368L222.13125,144.48296272971413L222.37875,49.558660645918415L222.5025,232.26621801202947L222.688125,53.11596544439143L222.935625,52.9195370760831L222.9975,51.849551530317825L223.059375,55.6115651217374L223.18312500000002,54.12024161598898L223.430625,50.742497426813294L223.49249999999998,52.58201616460626L223.61625,-46.66484817754139L223.678125,51.703456358476124L223.925625,50.76597602150657L223.98749999999998,137.61108190363103L224.049375,52.50542377125134L224.35875000000001,140.53433574329722L224.4825,49.64758467240768L225.10125,-45.36514270955865L225.410625,232.01008342396128L225.534375,51.76419379494406L225.84375,52.40790627219461L225.9675,52.6336445201527L226.153125,47.44640964161266L226.276875,49.28023827292702L226.895625,145.07565453269262L227.08125,-45.79111730835655L227.266875,52.696616259488195L227.57625000000002,-44.8918276678432L227.76187499999997,48.25226253162731L228.133125,51.491301935369314L228.31875,220.7314453125L228.4425,53.38807775324042L228.751875,51.01403888355601L228.87562499999999,44.64208332408559L229.123125,52.39614549116655L229.185,49.04381342801181L229.68,141.85239028930664L229.9275,-45.76106643351642L229.989375,144.19047775268555L230.175,51.49749537381259L230.29875,135.8245603388006L230.4225,51.538197742808954L230.731875,-46.40007782090794L230.979375,211.9977027199485L231.226875,49.277077102661124L231.474375,48.55524382157759L231.59812499999998,151.64607634110885L231.969375,154.39237830422144L232.711875,137.3606803894043L232.835625,50.82609350031073L232.959375,51.588530939275564L233.145,53.891483376242896L233.330625,52.562380079789584L233.51625,53.4577708157626L233.578125,147.1863218827681L233.8875,240.4254746870561L234.3825,53.76833891435104L234.75375,143.456644300981L234.93937499999998,51.019949965043494L235.00125,-46.495857443592755L235.49625,142.8830791126598L235.99124999999998,54.616778599132196L236.548125,51.78427796797318L236.795625,52.976683668656776L237.22875,-45.29268707578833L237.60000000000002,49.89881484291771L237.72375,50.198217565363095L237.909375,-44.99479741833425L238.033125,147.4329177162864L238.404375,51.94248379794035L238.52812500000002,208.08649416836826L238.59,55.94894485473633L238.96125,49.66990928649903L239.085,51.26405982971192L239.14687500000002,52.392131111838594L239.20875,151.24541182084516L239.45624999999998,157.6785590431907L239.518125,296.8506575150923L239.58,53.908885158192035L239.70375,45.91293515292082L239.889375,-45.56361931670796L240.013125,139.14094099564986L240.32250000000002,51.5498971418901L240.38437499999998,232.0116056962447L240.57,51.52508655894887L240.879375,52.97773943814364L240.94125,52.544640697132465L241.065,50.137160942771224L241.12687499999998,145.24268708662552L241.43625,54.05016798539596L241.56,210.234567676891L241.745625,-45.97492152018982L241.8075,144.50814160433683L241.86937500000002,148.44680016257547L242.05499999999998,47.116733342950994L242.240625,52.3385569485751L242.42625,52.27594122453169L242.67374999999998,-46.43911558823151L242.92125000000001,55.31555682095615L243.04500000000002,156.52165666060014L243.354375,143.61033241965555L243.41625,-45.59878119772129L243.54000000000002,53.333533755215726L243.72562499999998,52.05173752524637L244.035,-46.071387661587124L244.15875000000003,53.01696864041415L244.65375,49.36004708030008L244.71562500000002,53.67659745649858L244.963125,-45.37536088553342L245.39624999999998,-46.89071350531146L245.52,49.44392551075328L245.64375,145.82178892655807L245.7675,51.053102354569866L245.953125,138.39251091696997L246.26250000000002,153.51494792591444L246.324375,152.8716405695135L246.38625,-46.6756073778326L246.44812499999998,147.29226712313564L246.51,-46.49701219146903L246.571875,146.0754191311923L246.819375,168.7570920077237L246.94312499999998,53.25346100547097L247.06687499999998,54.49765465476297L247.2525,47.92410850524902L247.438125,145.4462787281383" style="fill: none;" fill="none"></path></g></g></g></g></g></g><g transform="translate(51, 177)" clip-path="url(#clip_1)"><clipPath id="clip_1"><rect width="278" height="23"></rect></clipPath><g><g><line x1="0" y1="0" x2="0" y2="5" style="visibility: inherit;" fill="rgb(0, 0, 0)" stroke="rgb(204, 204, 204)" stroke-width="1px"></line><line x1="30.9375" y1="0" x2="30.9375" y2="5" style="visibility: inherit;" fill="rgb(0, 0, 0)" stroke="rgb(204, 204, 204)" stroke-width="1px"></line><line x1="61.875" y1="0" x2="61.875" y2="5" style="visibility: inherit;" fill="rgb(0, 0, 0)" stroke="rgb(204, 204, 204)" stroke-width="1px"></line><line x1="92.8125" y1="0" x2="92.8125" y2="5" style="visibility: inherit;" fill="rgb(0, 0, 0)" stroke="rgb(204, 204, 204)" stroke-width="1px"></line><line x1="123.75" y1="0" x2="123.75" y2="5" style="visibility: inherit;" fill="rgb(0, 0, 0)" stroke="rgb(204, 204, 204)" stroke-width="1px"></line><line x1="154.6875" y1="0" x2="154.6875" y2="5" style="visibility: inherit;" fill="rgb(0, 0, 0)" stroke="rgb(204, 204, 204)" stroke-width="1px"></line><line x1="185.625" y1="0" x2="185.625" y2="5" style="visibility: inherit;" fill="rgb(0, 0, 0)" stroke="rgb(204, 204, 204)" stroke-width="1px"></line><line x1="216.5625" y1="0" x2="216.5625" y2="5" style="visibility: inherit;" fill="rgb(0, 0, 0)" stroke="rgb(204, 204, 204)" stroke-width="1px"></line><line x1="247.5" y1="0" x2="247.5" y2="5" style="visibility: inherit;" fill="rgb(0, 0, 0)" stroke="rgb(204, 204, 204)" stroke-width="1px"></line><line x1="278.4375" y1="0" x2="278.4375" y2="5" style="visibility: inherit;" fill="rgb(0, 0, 0)" stroke="rgb(204, 204, 204)" stroke-width="1px"></line></g><g transform="translate(0, 8)"><text x="0" y="0" dx="0em" dy="0.95em" style="text-anchor: middle; visibility: hidden; font-family: Roboto, sans-serif; font-size: 12px; font-weight: 200;" fill="rgb(33, 33, 33)" stroke="none" stroke-width="1px">-500</text><text x="30.9375" y="0" dx="0em" dy="0.95em" style="text-anchor: middle; visibility: inherit; font-family: Roboto, sans-serif; font-size: 12px; font-weight: 200;" fill="rgb(33, 33, 33)" stroke="none" stroke-width="1px">0</text><text x="61.875" y="0" dx="0em" dy="0.95em" style="text-anchor: middle; visibility: inherit; font-family: Roboto, sans-serif; font-size: 12px; font-weight: 200;" fill="rgb(33, 33, 33)" stroke="none" stroke-width="1px">500</text><text x="92.8125" y="0" dx="0em" dy="0.95em" style="text-anchor: middle; visibility: inherit; font-family: Roboto, sans-serif; font-size: 12px; font-weight: 200;" fill="rgb(33, 33, 33)" stroke="none" stroke-width="1px">1k</text><text x="123.75" y="0" dx="0em" dy="0.95em" style="text-anchor: middle; visibility: inherit; font-family: Roboto, sans-serif; font-size: 12px; font-weight: 200;" fill="rgb(33, 33, 33)" stroke="none" stroke-width="1px">1.5k</text><text x="154.6875" y="0" dx="0em" dy="0.95em" style="text-anchor: middle; visibility: inherit; font-family: Roboto, sans-serif; font-size: 12px; font-weight: 200;" fill="rgb(33, 33, 33)" stroke="none" stroke-width="1px">2k</text><text x="185.625" y="0" dx="0em" dy="0.95em" style="text-anchor: middle; visibility: inherit; font-family: Roboto, sans-serif; font-size: 12px; font-weight: 200;" fill="rgb(33, 33, 33)" stroke="none" stroke-width="1px">2.5k</text><text x="216.5625" y="0" dx="0em" dy="0.95em" style="text-anchor: middle; visibility: inherit; font-family: Roboto, sans-serif; font-size: 12px; font-weight: 200;" fill="rgb(33, 33, 33)" stroke="none" stroke-width="1px">3k</text><text x="247.5" y="0" dx="0em" dy="0.95em" style="text-anchor: middle; visibility: inherit; font-family: Roboto, sans-serif; font-size: 12px; font-weight: 200;" fill="rgb(33, 33, 33)" stroke="none" stroke-width="1px">3.5k</text><text x="278.4375" y="0" dx="0em" dy="0.95em" style="text-anchor: middle; visibility: hidden; font-family: Roboto, sans-serif; font-size: 12px; font-weight: 200;" fill="rgb(33, 33, 33)" stroke="none" stroke-width="1px">4k</text></g><line x1="0" y1="0" x2="278.4375" y2="0" fill="rgb(0, 0, 0)" stroke="rgb(204, 204, 204)" stroke-width="1px"></line></g></g></g></g></svg>