<svg viewBox="0 0 330 200" xmlns="http://www.w3.org/2000/svg"><g><g><g><g><g><line x1="41.171875" y1="177" x2="36.171875" y2="177" style="visibility: inherit;" fill="rgb(0, 0, 0)" stroke="rgb(204, 204, 204)" stroke-width="1px"></line><line x1="41.171875" y1="162.25" x2="36.171875" y2="162.25" style="visibility: inherit;" fill="rgb(0, 0, 0)" stroke="rgb(204, 204, 204)" stroke-width="1px"></line><line x1="41.171875" y1="147.5" x2="36.171875" y2="147.5" style="visibility: inherit;" fill="rgb(0, 0, 0)" stroke="rgb(204, 204, 204)" stroke-width="1px"></line><line x1="41.171875" y1="132.75" x2="36.171875" y2="132.75" style="visibility: inherit;" fill="rgb(0, 0, 0)" stroke="rgb(204, 204, 204)" stroke-width="1px"></line><line x1="41.171875" y1="118.00000000000001" x2="36.171875" y2="118.00000000000001" style="visibility: inherit;" fill="rgb(0, 0, 0)" stroke="rgb(204, 204, 204)" stroke-width="1px"></line><line x1="41.171875" y1="103.24999999999999" x2="36.171875" y2="103.24999999999999" style="visibility: inherit;" fill="rgb(0, 0, 0)" stroke="rgb(204, 204, 204)" stroke-width="1px"></line><line x1="41.171875" y1="88.5" x2="36.171875" y2="88.5" style="visibility: inherit;" fill="rgb(0, 0, 0)" stroke="rgb(204, 204, 204)" stroke-width="1px"></line><line x1="41.171875" y1="73.75" x2="36.171875" y2="73.75" style="visibility: inherit;" fill="rgb(0, 0, 0)" stroke="rgb(204, 204, 204)" stroke-width="1px"></line><line x1="41.171875" y1="59.00000000000001" x2="36.171875" y2="59.00000000000001" style="visibility: inherit;" fill="rgb(0, 0, 0)" stroke="rgb(204, 204, 204)" stroke-width="1px"></line><line x1="41.171875" y1="44.25" x2="36.171875" y2="44.25" style="visibility: inherit;" fill="rgb(0, 0, 0)" stroke="rgb(204, 204, 204)" stroke-width="1px"></line><line x1="41.171875" y1="29.499999999999993" x2="36.171875" y2="29.499999999999993" style="visibility: inherit;" fill="rgb(0, 0, 0)" stroke="rgb(204, 204, 204)" stroke-width="1px"></line><line x1="41.171875" y1="14.750000000000007" x2="36.171875" y2="14.750000000000007" style="visibility: inherit;" fill="rgb(0, 0, 0)" stroke="rgb(204, 204, 204)" stroke-width="1px"></line><line x1="41.171875" y1="0" x2="36.171875" y2="0" style="visibility: inherit;" fill="rgb(0, 0, 0)" stroke="rgb(204, 204, 204)" stroke-width="1px"></line></g><g transform="translate(31.171875, 0)"><text x="0" y="177" dx="0em" dy="0.3em" style="text-anchor: end; visibility: hidden; font-family: Roboto, sans-serif; font-size: 12px; font-weight: 200;" fill="rgb(33, 33, 33)" stroke="none" stroke-width="1px">0</text><text x="0" y="162.25" dx="0em" dy="0.3em" style="text-anchor: end; visibility: inherit; font-family: Roboto, sans-serif; font-size: 12px; font-weight: 200;" fill="rgb(33, 33, 33)" stroke="none" stroke-width="1px">0.5</text><text x="0" y="147.5" dx="0em" dy="0.3em" style="text-anchor: end; visibility: hidden; font-family: Roboto, sans-serif; font-size: 12px; font-weight: 200;" fill="rgb(33, 33, 33)" stroke="none" stroke-width="1px">1</text><text x="0" y="132.75" dx="0em" dy="0.3em" style="text-anchor: end; visibility: inherit; font-family: Roboto, sans-serif; font-size: 12px; font-weight: 200;" fill="rgb(33, 33, 33)" stroke="none" stroke-width="1px">1.5</text><text x="0" y="118.00000000000001" dx="0em" dy="0.3em" style="text-anchor: end; visibility: hidden; font-family: Roboto, sans-serif; font-size: 12px; font-weight: 200;" fill="rgb(33, 33, 33)" stroke="none" stroke-width="1px">2</text><text x="0" y="103.24999999999999" dx="0em" dy="0.3em" style="text-anchor: end; visibility: inherit; font-family: Roboto, sans-serif; font-size: 12px; font-weight: 200;" fill="rgb(33, 33, 33)" stroke="none" stroke-width="1px">2.5</text><text x="0" y="88.5" dx="0em" dy="0.3em" style="text-anchor: end; visibility: hidden; font-family: Roboto, sans-serif; font-size: 12px; font-weight: 200;" fill="rgb(33, 33, 33)" stroke="none" stroke-width="1px">3</text><text x="0" y="73.75" dx="0em" dy="0.3em" style="text-anchor: end; visibility: inherit; font-family: Roboto, sans-serif; font-size: 12px; font-weight: 200;" fill="rgb(33, 33, 33)" stroke="none" stroke-width="1px">3.5</text><text x="0" y="59.00000000000001" dx="0em" dy="0.3em" style="text-anchor: end; visibility: hidden; font-family: Roboto, sans-serif; font-size: 12px; font-weight: 200;" fill="rgb(33, 33, 33)" stroke="none" stroke-width="1px">4</text><text x="0" y="44.25" dx="0em" dy="0.3em" style="text-anchor: end; visibility: inherit; font-family: Roboto, sans-serif; font-size: 12px; font-weight: 200;" fill="rgb(33, 33, 33)" stroke="none" stroke-width="1px">4.5</text><text x="0" y="29.499999999999993" dx="0em" dy="0.3em" style="text-anchor: end; visibility: hidden; font-family: Roboto, sans-serif; font-size: 12px; font-weight: 200;" fill="rgb(33, 33, 33)" stroke="none" stroke-width="1px">5</text><text x="0" y="14.750000000000007" dx="0em" dy="0.3em" style="text-anchor: end; visibility: inherit; font-family: Roboto, sans-serif; font-size: 12px; font-weight: 200;" fill="rgb(33, 33, 33)" stroke="none" stroke-width="1px">5.5</text><text x="0" y="0" dx="0em" dy="0.3em" style="text-anchor: end; visibility: hidden; font-family: Roboto, sans-serif; font-size: 12px; font-weight: 200;" fill="rgb(33, 33, 33)" stroke="none" stroke-width="1px">6</text></g><line x1="41.171875" y1="0" x2="41.171875" y2="177" fill="rgb(0, 0, 0)" stroke="rgb(204, 204, 204)" stroke-width="1px"></line></g></g><g transform="translate(41, 0)" clip-path="url(#clip_0)"><clipPath id="clip_0"><rect width="288" height="177"></rect></clipPath><g><g><g><line x1="0" y1="0" x2="0" y2="177" fill="rgb(0, 0, 0)" stroke="rgb(66, 66, 66)" stroke-width="1px" opacity="0.25"></line><line x1="32.092013888888886" y1="0" x2="32.092013888888886" y2="177" fill="rgb(0, 0, 0)" stroke="rgb(66, 66, 66)" stroke-width="1px" opacity="0.25"></line><line x1="64.18402777777777" y1="0" x2="64.18402777777777" y2="177" fill="rgb(0, 0, 0)" stroke="rgb(66, 66, 66)" stroke-width="1px" opacity="0.25"></line><line x1="96.27604166666666" y1="0" x2="96.27604166666666" y2="177" fill="rgb(0, 0, 0)" stroke="rgb(66, 66, 66)" stroke-width="1px" opacity="0.25"></line><line x1="128.36805555555554" y1="0" x2="128.36805555555554" y2="177" fill="rgb(0, 0, 0)" stroke="rgb(66, 66, 66)" stroke-width="1px" opacity="0.25"></line><line x1="160.46006944444446" y1="0" x2="160.46006944444446" y2="177" fill="rgb(0, 0, 0)" stroke="rgb(66, 66, 66)" stroke-width="1px" opacity="0.25"></line><line x1="192.55208333333331" y1="0" x2="192.55208333333331" y2="177" fill="rgb(0, 0, 0)" stroke="rgb(66, 66, 66)" stroke-width="1px" opacity="0.25"></line><line x1="224.64409722222223" y1="0" x2="224.64409722222223" y2="177" fill="rgb(0, 0, 0)" stroke="rgb(66, 66, 66)" stroke-width="1px" opacity="0.25"></line><line x1="256.7361111111111" y1="0" x2="256.7361111111111" y2="177" fill="rgb(0, 0, 0)" stroke="rgb(66, 66, 66)" stroke-width="1px" opacity="0.25"></line><line x1="288.828125" y1="0" x2="288.828125" y2="177" fill="rgb(0, 0, 0)" stroke="rgb(66, 66, 66)" stroke-width="1px" opacity="0.25"></line></g><g><line x1="0" y1="177" x2="288.828125" y2="177" fill="rgb(0, 0, 0)" stroke="rgb(66, 66, 66)" stroke-width="1px" opacity="0.25"></line><line x1="0" y1="162.25" x2="288.828125" y2="162.25" fill="rgb(0, 0, 0)" stroke="rgb(66, 66, 66)" stroke-width="1px" opacity="0.25"></line><line x1="0" y1="147.5" x2="288.828125" y2="147.5" fill="rgb(0, 0, 0)" stroke="rgb(66, 66, 66)" stroke-width="1px" opacity="0.25"></line><line x1="0" y1="132.75" x2="288.828125" y2="132.75" fill="rgb(0, 0, 0)" stroke="rgb(66, 66, 66)" stroke-width="1px" opacity="0.25"></line><line x1="0" y1="118.00000000000001" x2="288.828125" y2="118.00000000000001" fill="rgb(0, 0, 0)" stroke="rgb(66, 66, 66)" stroke-width="1px" opacity="0.25"></line><line x1="0" y1="103.24999999999999" x2="288.828125" y2="103.24999999999999" fill="rgb(0, 0, 0)" stroke="rgb(66, 66, 66)" stroke-width="1px" opacity="0.25"></line><line x1="0" y1="88.5" x2="288.828125" y2="88.5" fill="rgb(0, 0, 0)" stroke="rgb(66, 66, 66)" stroke-width="1px" opacity="0.25"></line><line x1="0" y1="73.75" x2="288.828125" y2="73.75" fill="rgb(0, 0, 0)" stroke="rgb(66, 66, 66)" stroke-width="1px" opacity="0.25"></line><line x1="0" y1="59.00000000000001" x2="288.828125" y2="59.00000000000001" fill="rgb(0, 0, 0)" stroke="rgb(66, 66, 66)" stroke-width="1px" opacity="0.25"></line><line x1="0" y1="44.25" x2="288.828125" y2="44.25" fill="rgb(0, 0, 0)" stroke="rgb(66, 66, 66)" stroke-width="1px" opacity="0.25"></line><line x1="0" y1="29.499999999999993" x2="288.828125" y2="29.499999999999993" fill="rgb(0, 0, 0)" stroke="rgb(66, 66, 66)" stroke-width="1px" opacity="0.25"></line><line x1="0" y1="14.750000000000007" x2="288.828125" y2="14.750000000000007" fill="rgb(0, 0, 0)" stroke="rgb(66, 66, 66)" stroke-width="1px" opacity="0.25"></line><line x1="0" y1="0" x2="288.828125" y2="0" fill="rgb(0, 0, 0)" stroke="rgb(66, 66, 66)" stroke-width="1px" opacity="0.25"></line></g></g></g><g><g><line x1="0" y1="177" x2="288.828125" y2="177" fill="rgb(0, 0, 0)" stroke="rgb(153, 153, 153)" stroke-width="1.5px"></line></g></g><g><g><line x1="32.092013888888886" y1="0" x2="32.092013888888886" y2="177" fill="rgb(0, 0, 0)" stroke="rgb(153, 153, 153)" stroke-width="1.5px"></line></g></g><g><g><g><g><g><path stroke="rgb(255, 112, 67)" stroke-width="2px" d="M32.45561640625,164.04167333245277L32.71491987847222,158.9848466180265L32.95657274305555,-1334.1494254938193L37.50497387152778,-13.130354344037158L37.51042951388889,57.86665337589592L38.023259895833334,97.30571355554731L38.256889756944446,122.0576226224469L38.29219097222222,140.61756671465616L38.350598437500004,148.3362448566096L38.38782517361111,153.31582823184812L38.78063142361111,155.77187261055812L39.204566927083334,160.40697724488453L39.37786380208333,160.234811013095L40.03767560763889,157.55527745745994L40.09544123263889,159.18756055290032L40.25782682291667,164.30380227272548L40.85602196180555,165.76588007279645L41.04408116319445,166.26882955116216L41.49850407986111,169.70670373851033L41.55626970486111,168.4524056411521L41.580338715277776,168.5374173043217L41.60312404513889,167.19257127153756L41.61628177083333,165.63362501804485L41.81621501736112,163.5731814548021L42.17243637152777,153.67237485912688L42.94039826388889,142.95000334660153L42.95997439236111,140.30453774976635L43.30881458333334,148.05159162073184L43.47761857638889,102.90662006490368L43.50136666666666,90.80787351103329L43.55046744791667,91.79717585069959L43.86817838541667,115.30183447970805L43.93139965277778,131.48250152810743L43.965096267361105,126.91626254406171L43.98723975694444,145.13202933184272L44.18268012152778,154.48832865781765L44.20674913194444,155.58351900712958L44.41149618055556,160.64571160993762L44.55655208333333,140.24928461862675L44.61624322916666,128.63113672347706L44.836715364583334,146.1570600021591L45.10243723958333,152.61388998918L45.12714809027778,160.01896679814018L45.23144713541667,162.85248603472328L45.40185572916666,140.11155508785973L45.57483168402778,148.2764087845655L45.613021180555556,156.97876187740397L45.96603333333333,131.44655645238538L46.29465555555556,146.4759803673457L46.30364131944444,130.78601813678924L46.32482204861111,147.0213966629802L46.44709262152778,124.6375011600196L47.14028012152778,137.85869797451136L47.19579930555555,150.48344134320521L47.202217708333336,88.6740039767605L47.23270512152778,53.646017872201334L47.27314105902778,101.37541718060191L47.376156423611114,61.80300947889337L47.57576875,105.41415023723036L47.8703734375,131.2964827592301L47.918190538194445,146.4064693078475L48.05875355902778,128.69683916718225L48.36202309027777,145.777809115353L48.77087534722222,154.71345911747383L48.784353993055554,126.47191878751616L48.86458402777778,142.34701551554022L48.908229166666665,153.0017678115214L49.127417621527776,131.93632699092896L49.43518003472222,146.4508480014841L49.667847135416665,96.8854042400384L49.790438628472224,125.15699322876121L49.903081597222226,78.82717075262538L49.94480121527778,114.48469157406136L49.97336310763888,29.1044198714998L50.05808602430555,84.8604765679423L50.21822517361111,119.33435575044062L50.36296015625,103.35289969370307L50.687731336805555,106.23668703034843L50.98329878472222,94.38864207622602L51.43740078125,124.34220108006713L51.485859722222216,108.63416099914502L51.65498463541667,96.66116619329803L51.90658602430556,125.54217684400768L52.50991588541667,110.20281837065633L52.929037586805556,134.52430047797927L53.08596753472222,148.74228485946517L53.183848177083334,157.7674685151855L53.22749331597222,159.5304008860278L53.25156232638889,51.44799574249314L53.36677265625,95.3320785762866L53.48615494791667,83.34569332611558L53.49128967013889,117.89248690671921L53.861631510416665,138.72253183226107L53.88217039930555,114.59439952194879L53.97523723958333,137.52792391193026L54.103284374999994,109.64630222923822L54.11355381944444,86.77403164271871L54.17998428819445,113.00828658559539L54.257005121527776,135.1443431438125L54.383447656250006,150.52821000582676L54.67227578125,117.2416852960986L54.74544557291667,135.32892710864556L55.66488177083333,150.2753489488364L56.08304071180556,156.7922539695502L56.32084253472222,161.0528873553515L56.34266510416666,163.15064772669317L56.80703654513889,167.4562349152794L57.108059635416666,130.42954973174514L57.15266753472223,65.6906222569548L57.19759635416667,108.09927748844642L57.46428098958334,45.52975968841085L57.51883741319444,97.15494931532962L58.31824947916667,90.49175808902994L58.56246970486111,6.294502294519011L59.018818142361106,44.88491885450988L59.13980503472222,96.30533974669878L59.56470329861111,127.21729283513132L59.76271102430556,100.15680168260037L59.820476649305554,123.91306033247055L59.82657413194444,102.93411144324148L59.902632204861106,124.8871804637194L59.97836935763888,102.39257825389386L60.30410329861111,120.96593313798238L60.60031258680556,99.04960478177624L60.895880034722225,87.62262638110492L60.989267795138886,117.9180918675576L61.03034557291667,96.63154483687369L61.23894366319444,123.22034531147173L61.43085390625,135.81278100795086L61.69818038194445,149.9819268058928L61.70235234374999,117.00420949883411L61.85799861111111,99.12978047148674L62.262999826388885,83.7455243230837L64.43980112847223,117.95034504896269L64.60635868055556,52.151854330097805L64.87785711805556,98.01282325017165L64.87946171875,40.74202174322432L65.08485060763888,36.05153714642898L65.44139288194445,49.13362867251621L65.57714210069445,94.76446035275211L65.60056927083333,125.52986391049238L65.61629435763889,101.97838692463404L65.81366024305555,79.9199271476088L66.39901857638888,8.914421193350455L66.42019930555556,-6.050862817436999L66.46801640625,65.01075805814831L66.63136475694444,69.51318858618599L66.70934835069444,26.16110233399309L67.3659509548611,4.6165949102225134L67.40189401041667,34.75119273638618L67.7995140625,47.99769778714116L67.81491822916666,91.27923203507386L69.11432387152777,122.23131873607231L69.13518368055556,97.27267834186311L69.37009722222221,127.83838962548825L69.40058463541666,145.77452729364546L69.50969748263888,75.83600934875196L70.14544027777778,40.7428760560285L70.28985434027778,54.25858020972793L70.34697812499999,60.089546776959814L70.44485876736111,18.20738941261142L70.92174609375,78.10001715319736L71.65601137152778,29.212377788408887L71.71120963541667,39.602754355540455L72.23430946180555,92.19503085677061L72.35625911458334,84.70418110408923L73.04527465277776,102.59314960788808L73.58249496527777,87.83605958551837L73.58891336805554,79.59073034245178L74.13351484375,115.90241654705052L74.1999453125,42.39648494715119L74.45507682291667,94.50499075409547L74.66335399305555,85.02115002725586L74.8321579861111,119.17468546899596L75.41815815972222,99.63209304256704L75.44928741319444,52.62430959369817L75.47078906249999,100.51034268990803L75.53946597222222,45.685562951896465L76.37064913194445,96.2374537757241L76.44638628472222,125.23013140387556L76.9665978298611,108.83403082863819L77.09753324652779,133.90495994792184L77.13090894097222,147.51759520236135L77.44284331597223,46.82375673689531L77.80965503472223,19.098410536277814L78.54777135416667,80.99442651088748L78.87414713541666,114.48324228057693L78.90816467013889,129.41947098213095L79.21432248263889,104.51379163049255L79.22812204861111,131.11011744727253L80.20596571180556,147.2447604965541L80.52335572916667,116.03748249002535L80.93381258680556,-31.03899083740568L80.97168116319445,48.28814304943648L81.27687621527778,95.52206388161042L81.68251927083332,125.5862899961797L81.81923124999999,117.96260721342134L82.35869800347223,97.38210653577069L82.71973315972221,126.37960025855195L83.21748029513888,143.56237174980816L83.3846796875,151.69964442201243L83.46362604166667,160.42519698767535L83.59905434027777,161.29449945824547L83.67126137152778,121.890087688787L83.89975651041667,135.7945480733056L83.98833046875,149.67511026793358L84.04705885416666,157.70147043307801L84.05572369791668,163.51807903850187L84.39397352430555,166.26780137183732L84.87150269097222,157.74662394978085L85.04030668402777,122.03858887945103L85.22676128472222,97.167776130405L85.66963107638888,39.07478362486775L85.80858949652777,57.70087922910459L86.18438697916667,101.38923326313264L86.20781414930555,127.20920249926904L86.73476501736111,145.44268747036372L86.76910347222223,154.59966154017874L86.80793480902777,125.25737049054402L87.86632942708334,59.16034117860375L88.03256605902779,20.047044894235018L88.06850911458334,-47.23215323618853L88.23153654513888,8.94939271252273L88.26170303819444,73.97678099954676L88.55919600694443,112.592987101582L88.61150598958334,128.7209606416865L89.2074546875,105.00140496777557L89.29602864583333,91.80600164346137L89.40225321180556,81.54023469693801L89.40546241319446,117.04217098776901L89.56945260416667,135.00574059858562L89.61855338541667,150.3410220955291L89.69910434027778,159.9288345345544L89.75141432291666,159.47962045482916L89.8685501736111,123.58054251558855L90.27419322916667,138.79359381846947L90.33227977430556,108.11731716068009L90.40641232638889,131.39542286438598L90.42021189236111,145.41188194062025L91.62302057291667,153.41233107272214L91.72058029513889,160.11570040478364L91.80466137152777,164.89271974321636L91.99785529513888,168.7084423050668L92.04631423611112,135.44399462612785L92.12076770833333,148.47259574217983L92.7080515625,42.078679401179485L92.73276241319444,94.26890945047161L92.9275609375,87.35381340748084L93.37010980902778,120.88855951288944L93.53121171875,129.8529729441381L93.66888645833333,65.56322200271943L93.86881970486111,65.16528200610553L94.07485043402778,105.76870647969292L94.17112647569444,3.9848580354598053L94.42240694444445,70.15679175818843L94.64833472222222,109.50803068378498L94.73402039930555,133.21740619599183L95.39575772569444,118.50889811670396L95.74299331597221,58.07946005913982L95.82771623263889,104.79706133576255L96.03631432291667,127.88304529292596L96.13740416666667,66.40963235916622L96.16724973958334,108.84904277576163L96.1707798611111,134.74897806944344L96.19484887152778,146.9405244296902L96.3614064236111,73.39910011923989L96.44580842013889,108.3728197898667L96.67205711805556,131.21706550635105L96.8957384548611,146.75558541904215L97.1389959201389,156.0913002472539L97.80041232638888,87.44067644962188L98.26863480902777,120.85137667589495L98.42556475694444,139.14481568535035L98.5629185763889,150.93558661460796L98.64122309027778,159.8002643157239L99.0106021701389,116.42125422770948L99.2532177951389,98.51263598808747L99.6514796875,86.44198558455172L99.68902734375,80.41970118120588L99.76219713541667,48.30301222941445L99.8562267361111,51.10028601730566L100.20827612847224,92.09333727982462L100.29203628472222,96.84541057483446L100.31642621527777,84.72121605238969L100.59691041666667,119.25343606747182L100.61327734375,111.62527130768892L100.62322586805556,133.797695426501L100.8533256076389,109.61665894291232L100.87161805555556,93.24056778968234L100.97206605902778,124.54936338139093L101.12033116319445,143.9216650675089L101.13477256944445,154.6212922960729L101.45537178819444,95.18883172453705L101.76955260416668,124.59381053317345L101.80902578125001,143.4535118250177L101.82314626736111,113.07509128499778L101.90690642361112,136.35870584695786L101.95376076388888,148.77896397619995L102.3433578125,118.23930617159337L102.49547395833333,139.8579578518017L102.49964592013889,153.8067882877078L102.56479270833334,124.11045413145342L102.68963064236111,142.12473471718383L102.69123524305556,152.06476757381768L102.87415972222222,116.7278518525029L103.28012369791666,139.23024499996095L103.42999340277777,110.80377610077613L103.51985104166666,56.762459942997396L103.62639652777777,23.670486849129734L104.06669895833333,81.58747782801422L104.21496406249999,117.69234747883577L104.60199374999999,139.52823283789692L104.95179670138889,110.93969351362071L105.09043420138889,134.1311085719519L105.37252300347221,148.9413406222256L105.66969505208333,158.78467571104716L105.91616171874999,91.41486518004625L106.04838081597222,90.7745099569505L106.33849262152778,89.19581206471597L106.38342144097221,119.23180511493011L106.63566467013888,140.22417376278952L106.81826822916668,116.65032795571753L106.91743255208333,135.69173786940257L107.20048411458335,106.70048893631744L107.48546119791666,99.64626639569552L107.76305711805556,125.18093715002983L107.77364748263888,102.39654618436603L107.79932109375,57.46692188939158L108.09970234375,55.481966831449895L108.39077690972222,63.613702308037404L108.41484592013889,106.30493863278541L108.5072709201389,133.05973058851905L108.56856666666667,147.68502389140335L108.57466414930555,118.16573096959239L108.58108255208333,138.93776825754907L108.61221180555556,152.49248906188646L109.13338611111111,116.19852497704886L109.48094262152779,135.04283341484106L109.56438185763889,103.57353930900597L109.72227456597221,90.20445349949661L109.73639505208332,42.61443225823678L109.8756743923611,94.47768745590949L110.07592855902779,123.50725877147735L110.10192309027778,143.3266052565683L110.15294939236111,152.59721365342793L110.28773585069445,119.1272577689305L110.58587065972222,140.03762115217538L110.68150486111111,112.3848667453366L110.78708758680555,134.85450925294384L110.78869218749999,109.02727664627923L110.88207994791667,93.3088689632314L111.00082039930555,125.63947415572987L111.12758385416667,143.67371079458349L111.33297274305555,155.29222532888383L111.56788628472222,120.9819947527655L111.94560928819445,100.75475971977755L112.09066519097222,84.60219970393685L112.14008689236111,118.50144696860617L112.21325668402777,58.0355913676566L112.59322612847222,103.92490440534033L112.87724045138889,50.40575126365705L113.20810911458334,96.65951003763607L113.59513880208334,47.3048425086351L113.83967994791666,96.73638139772484L113.86406987847222,126.30163161222976L113.99179609375001,29.557511521964347L114.35122664930556,86.25019871508424L114.53286744791667,81.08914277145473L114.68915555555556,116.01976503842597L114.84897378472222,55.26336754508927L115.0055828125,61.60704701631136L115.47733541666668,28.865237864785588L115.58131354166666,52.236731000502836L115.78060494791667,100.60479311809534L115.84414713541668,97.63163926998136L116.27674748263888,92.77485749005888L116.30883949652778,125.29611613827714L116.31814618055556,128.6257514862881L116.36403776041666,146.00844181827702L116.4725087673611,154.78970579059123L116.67853949652778,158.57797148079393L116.86274765625001,127.55359250456524L117.18783975694446,146.0614484170105L117.58706440972223,154.67270766610062L117.70516302083333,162.5667800302157L117.76485416666667,127.57252622812089L117.85342812500001,120.51296110850033L117.86433940972222,140.79132448376095L118.16953446180557,113.14359642708821L118.1997009548611,137.18210731532886L118.99847118055555,150.70301094702907L119.15026640625,158.39350845844763L119.74525234375001,87.02950479049215L119.771246875,121.00377292906482L119.88645720486112,96.57271020099662L120.37971145833335,125.76679249098983L120.48657786458334,145.30730088645868L120.87681675347221,156.2343833034912L120.89607196180556,162.70249364886757L120.94132170138889,165.80302096375272L121.01128229166666,164.67572001796034L121.35819696180556,164.41260421384015L121.78020694444444,167.72766099636937L121.80363411458333,169.5364249036621L122.03951041666666,170.45181241845555L122.09567144097221,77.92335814962068L122.151190625,116.64480079549121L122.52281614583333,134.9634989579771L122.65054236111112,151.0708632561716L122.83731788194444,159.08595529157833L122.94450520833334,164.915350803488L123.07479878472222,124.45669949576468L123.3469390625,101.4059105189157L123.768628125,89.03168904015494L124.34339609375,120.85587279933138L124.82188802083333,140.7770317967978L125.21052230902778,117.889977680221L125.37643802083333,139.299426336035L125.7034556423611,113.92660876449635L125.72559913194443,94.27332122526582L126.46275269097222,84.35400857568989L126.8131974826389,118.05154684210545L128.3837806423611,137.00651053204967L128.42903038194444,149.0029138184478L128.5403896701389,34.58467733007014L128.66907864583334,88.71864873851145L128.84173368055556,119.78101893475537L129.01470963541666,60.89867584831048L129.11162751736111,104.8371555800827L129.2011642361111,45.12554545376252L130.0686113715278,95.93511296912163L130.13632552083334,94.7726078605898L130.3044876736111,82.61422470666454L130.32342196180554,118.7175622132867L130.60936180555555,140.3958078829914L130.63310989583334,152.33346377065595L130.71398177083333,158.21719346791994L130.88663680555555,163.473226763907L130.93060286458334,167.5146809521931L131.38470486111112,131.12076683662042L131.39208602430557,72.45458090199057L131.4777717013889,70.48179829056873L131.60646067708333,71.26601731738934L131.77975755208334,57.8457706687539L131.91069296875,102.57340102301174L132.32435902777777,131.1305603647598L132.6584368923611,107.85249526884365L132.89912699652777,133.70520378402597L133.09071631944445,148.73810686917142L133.42864522569445,158.0543618395986L133.62248098958332,161.64308474034442L133.63018307291665,126.91654776078686L134.12311640625,101.71679882134332L134.13595321180557,130.46845545724233L134.43665538194446,146.71609556290628L134.51592265624998,114.65886690386009L134.57368828125,93.78460050921362L134.73639479166667,125.58269797146751L134.80828090277777,141.11860370862743L135.1709206597222,112.8432239069239L135.41963376736112,134.640180115324L135.51526796875,106.30550623203618L135.61122309027778,94.52822885671438L135.82688142361113,125.75436621760835L135.97161640625,143.56118107948012L136.03676319444443,67.51361828513922L136.42443472222223,110.17256447951785L136.54606345486113,90.43253396320814L136.61923324652778,124.03114053081556L136.66416206597222,53.16036722940852L136.82141293402776,99.47756050755174L137.06563315972224,128.90309174793717L137.14810963541666,108.0515543457136L137.44752812500002,94.74289549805314L137.60253255208332,124.35330292235369L137.60863003472224,102.49344799906345L137.62563880208333,130.3154197781702L137.66607473958334,146.66366670724273L137.83648333333335,114.28950504181697L138.10413072916666,55.49959232639022L138.27453932291667,102.83147270518988L139.26874991319443,128.3904715003875L139.28672144097223,108.10376608504694L139.67856493055555,134.78785851975584L140.02580052083334,106.53548357117359L140.40031432291667,133.55534337000955L140.47540963541667,75.34951652310436L140.57457395833333,75.82040217651215L140.59928480902778,32.66565944631868L141.03701987847222,-31.61886299920095L141.19138246527777,5.272452990579535L141.54150633680555,71.26462122521873L141.88938376736112,30.24029090834901L141.95806067708335,86.20473839243202L141.97795772569444,120.26446309924094L142.3081845486111,140.9700618132351L142.3232677951389,71.39847623970498L142.40060954861113,111.07388654748435L142.85214418402776,14.41190948128603L142.8656228298611,76.55852642083109L143.06042135416666,113.58663476958242L143.22280694444444,136.3488775459192L143.7696548611111,149.90838863654506L143.82934600694443,74.8003779542659L144.76418637152776,113.994577294124L145.16052274305554,138.23431243183188L145.20641432291666,67.64227326918824L145.68779453125,76.05028739100207L145.8065349826389,71.49220127180521L146.20800607638887,113.00045243540586L146.3922142361111,115.08712768339623L147.00260434027777,132.45473543276495L147.10273142361112,106.41846708935562L147.14701840277777,119.14680571843422L147.32320355902777,97.14987566166664L147.52345772569444,126.47001062091317L148.25996944444444,143.9323759094246L148.41304835069445,112.52625155540512L148.5786431423611,132.90489110405568L148.67877022569445,147.51437919768884L149.25257543402776,112.83690820594548L149.61393151041668,136.57542286789368L150.34948046875,148.29849816844433L150.44030086805557,157.4905167131756L150.49389453125,163.74934527034367L150.61776970486113,163.60820572230102L150.84305564236112,131.5085412541204L151.14504149305557,148.25655009622415L151.18964939236113,158.22057683035754L151.49741180555557,163.4045078054966L151.58373932291667,82.97062798118003L151.59336692708334,86.37241084441786L151.80228593750002,45.822458881528654L151.91910086805555,96.17136000596969L151.9470209201389,123.81271434428386L152.34624557291664,108.43873668075857L152.4839203125,134.32071799851212L152.93352942708333,108.37415010223837L152.9659423611111,48.42691391998559L153.10939366319445,58.61696993287819L153.6280006076389,62.467925327875726L153.6880126736111,64.13514133564145L153.77337743055557,102.7862295405359L154.05065243055554,128.99476271249597L154.57856605902776,147.3747515492305L155.07342491319443,157.90890077726036L155.7069212673611,89.21930077061646L155.89433862847224,121.79077590635771L155.9466486111111,57.8530905552587L156.19664539930557,104.4317652230192L157.67704999999998,126.94289353160431L158.0557357638889,143.8285386363767L158.05894496527776,79.39003776312484L158.42030104166668,117.30727167904743L158.73480277777776,138.61582930076344L158.73640737847222,153.05416526459587L158.7595136284722,84.58764423169454L158.78197803819447,120.2520694866047L158.88595616319444,140.52472974564228L159.50501111111112,153.19375829521175L159.7678447048611,118.13884137048338L159.90295208333333,97.49055346235043L160.0765698784722,84.24779696693662L160.6141111111111,119.98945104587463L160.63304539930553,141.59562022541994L160.88079574652778,72.13166241082567L160.91032039930556,110.48208274980198L160.9751462673611,98.35696467482929L161.48829756944446,125.31267918779781L161.64715303819443,143.56963035842378L163.0787777777778,155.44793939221262L163.22190815972223,161.37110592203354L163.25079097222223,126.93708277509816L163.2540001736111,144.73485127548105L163.34867161458334,154.50271243727042L163.37049418402776,118.55163490102194L163.5932127604167,105.94446441725196L163.96002447916666,131.21575805065214L164.32779895833335,103.33227804015388L164.73183741319446,131.96024496680684L165.27611796875001,105.7460766752135L165.59029878472222,131.19992396352117L165.91731640625,147.92635226021662L166.19876336805555,157.0162342951921L166.2902256076389,118.4342174867527L166.65864192708332,61.78207018016196L167.58642204861113,63.33162037157068L167.6031098958333,70.88071570171743L167.69617673611108,75.9123708330025L167.81074522569443,114.90789097085178L167.87685477430557,137.8034098895465L168.08705746527778,105.55793180180041L168.12011223958334,133.0306603185084L168.6464212673611,108.53032923172394L168.72600946180555,89.10520611065914L168.8280620659722,89.05158363496237L169.0186886284722,121.34000938066825L169.29275442708334,142.18329815226187L169.87233619791667,153.8085975924575L169.9268926215278,125.7806348013546L170.36398585069443,145.0954140354792L170.68522690972222,155.4483594077587L171.20800581597223,120.51026716099737L171.36172656250002,141.15032791654204L171.3713541666667,154.5998598981496L172.50195581597222,117.74558397821166L172.57608836805554,52.087160662958475L172.63160755208332,99.41293793091147L172.64636987847223,51.111292536073734L172.74328776041665,100.25422912538873L173.07447734375,128.21886989892022L173.32639965277778,107.38510301959809L173.36170086805555,92.81363722832378L173.40662968750001,123.89609869510757L173.53435590277778,136.86713113898531L173.63576666666665,152.09190905698836L173.70701093749997,117.40098111992299L173.92844583333334,136.90154040554296L174.0128478298611,151.48568390726527L174.12998368055557,117.8008228714435L174.24968689236113,136.9896134063702L174.54108237847223,118.31007234603771L175.05776380208331,140.5026577448881L175.29973758680555,153.57572384691454L175.30423046875,161.5935782984866L175.85428758680555,163.6397994813903L175.884775,122.62469113216304L176.52148055555554,97.55005223957002L176.7403480902778,127.35108527187884L176.8526701388889,145.81188746925818L176.93578845486113,113.82459595582861L176.94798342013888,94.4227341817735L176.95696918402777,85.05386118930093L177.60266050347224,78.2342940142245L177.62897595486112,116.40550522032325L177.86517317708334,95.43632047190036L177.98006258680553,124.21639150866132L177.99739227430555,135.6228130012051L178.01857300347223,111.9228804677305L178.07986875,135.42143038329942L178.15368038194444,147.7659003461448L178.27145807291666,158.00257845968292L178.54969583333335,164.21050292104653L179.02818776041667,168.0621522969018L179.05321953125,127.38760365879597L179.09879019097224,143.80437857410945L179.1430771701389,-46.32231708466031L179.1453236111111,0.2946566814242547L179.2233072048611,68.0928550823962L179.24801805555555,110.46636667933676L179.84236215277778,134.44514645389685L179.87509600694443,111.38094528467636L180.13696684027778,135.99640577704417L180.4225857638889,113.18048816723055L180.83978194444444,132.73399542452353L180.9049287326389,149.83054267574224L181.51275147569444,158.23310457294508L181.56153133680556,125.7991529144366L181.6465751736111,104.62137898430345L182.4825721354167,53.23048711195657L182.64688324652778,19.823564007133662L182.7701165798611,82.00947379425192L182.7996412326389,74.26785263630764L183.03583845486114,110.53581404812944L183.1407793402778,95.0205701358784L183.2161955729167,95.8437888245385L183.26529635416668,50.40067865971332L183.49475425347222,99.91614039554362L183.5794771701389,128.09822155424453L183.86060321180557,144.71589207880794L183.87279817708335,154.5020212783402L184.04513229166665,117.73684571111119L185.02682699652777,138.40664978578042L185.05025416666666,109.19152481409517L185.25821041666666,52.46115588577156L185.30731119791665,60.31770257611014L185.36218854166665,27.6794938830074L185.46520390625,77.2081023328028L185.72322369791664,41.96791607573759L185.9125665798611,55.04302896520572L185.96134644097222,101.93386714137245L186.53675625,130.46805587695033L186.83553289930555,143.94136633447403L187.1773128472222,155.3642967580056L187.17891744791666,81.24366712798448L187.28642569444443,113.78800734418495L187.5784630208333,98.4705040963761L187.59290442708334,124.26055577470493L187.83263177083336,144.19975361718912L187.95522326388888,72.7026879399668L188.02197465277777,112.01302003023928L188.68980946180554,134.4644337603921L188.8817197048611,109.34818783458914L189.1503298611111,89.08405670557524L189.19108671875,123.01947018971508L189.31752925347223,142.85391092580832L189.3387099826389,33.94315729309486L190.28702899305554,11.686185799654531L190.33645069444444,76.627466221223L190.73792178819446,81.23177281592473L191.01198758680556,117.61925893172136L191.44490885416667,140.3268655293853L192.1454775173611,151.9146241935295L192.29759366319445,83.9633710737349L192.41505043402776,118.8067856046749L192.70452039930555,19.46212636311012L192.85727838541666,39.178609292979004L193.364653125,50.874060822293146L193.56362361111113,100.57990209029018L193.99590303819443,128.31073452988804L194.11175520833334,146.47365908896649L194.21830069444445,116.07434409305884L194.25039270833332,98.77982326415439L194.44711675347222,125.52234237234154L194.66983532986112,101.54368348622535L195.53214774305556,130.11653941097387L197.01351510416666,147.76364577694252L197.04336067708334,158.05204693307587L197.11781414930556,164.24839746105738L197.34374192708333,101.37868945090808L197.3909171875,46.9258912103703L197.4310322048611,97.3250477968055L197.45253385416666,86.10961045374859L197.51607604166665,84.43514498204226L197.70445616319446,120.13156827765843L198.21889114583334,68.80689239786946L198.41689887152776,69.57606506518653L198.51445859375,111.03267425699313L198.95764930555558,134.89857443215416L199.39827265625001,110.30779829050284L199.40629565972222,56.384569301755285L199.87355538194447,103.29673867049878L199.9034009548611,130.91710862292686L200.1485839409722,100.37043424113892L200.157890625,130.002178026225L200.29845364583335,147.754539686731L200.30198376736112,157.93472016351907L200.31353689236113,164.4135143786519L200.34177786458335,135.69632029711303L200.90723914930555,151.4128665472811L201.06737829861112,87.32658393059647L201.1925371527778,38.180777399983846L201.41012100694445,91.73978729799204L201.43996657986114,124.23883350941426L201.94252751736113,62.329908038693L202.21916067708332,104.4048883351787L202.23488576388888,45.53422376114749L202.32570616319447,59.06808283685816L202.61742256944444,102.42398286914334L202.78430104166668,85.45136032733622L202.97877864583333,76.0854247703153L203.03622335069443,114.7424607452153L203.25701640625,137.27921761133663L204.07825104166668,150.13517639075752L204.17324340277779,157.86546183845422L204.19474505208333,80.96398382914676L204.90205303819442,112.1615878792561L205.17002135416666,51.248247817275335L205.2842689236111,54.72726404375875L205.40076293402777,57.58987252537636L205.40461397569445,103.98489303662913L205.52720546875,5.390871162858829L205.85486493055558,32.502931425361176L206.12732612847222,88.38448012434742L206.37283003472223,122.05381923653661L206.4171170138889,99.74574345194088L206.47873368055556,128.46619840170615L206.71653550347224,99.37610766712233L206.73803715277776,127.7193075145686L207.4251271701389,24.296160085523365L207.83622586805555,84.82519038157119L207.84777899305556,120.76512529484306L208.14687656249998,99.92721687574311L208.6154199652778,57.116731183642884L208.9068154513889,21.09307232911273L208.97196223958335,80.27452572235396L209.0050170138889,115.9875442030962L209.21746614583336,139.0130874793491L210.07689027777778,151.9396575141407L210.17798012152775,160.58262130608898L210.4844588541667,98.52816641921248L210.6962661458333,84.64181750175028L211.09067699652778,120.56419862006109L211.38271432291666,105.08730423864128L211.44625651041665,130.66663139710664L212.06563237847223,71.10646439582014L212.28000703125,42.41018295878116L212.35028854166669,52.15412378665176L212.51459965277778,59.71649298880318L212.52454817708335,104.63950083740842L212.69912873263888,132.34684861355004L212.96292508680554,108.73955920131787L213.0633730902778,132.53807710881105L213.33069956597222,107.2813723997776L213.4561793402778,132.2113705525699L213.86438975694443,146.1113140553178L214.11214010416668,116.292686746713L214.12337230902776,136.14798438918382L214.17632413194443,151.24250447524662L214.56014461805555,160.688950169224L214.69236371527776,124.53830553778316L214.7090515625,67.03394714408103L214.85860034722222,30.905987259226947L214.9346584201389,88.35127855031365L214.9924240451389,123.07930231430336L215.1134109375,142.25045230888253L216.08483619791667,154.97306281568365L216.52449678819445,159.7430459334955L216.64901380208332,164.0642658069435L216.95645529513888,167.70600788263698L217.18623411458336,169.74667027275692L217.2568365451389,128.50812188792784L217.42499869791666,78.32868695264196L217.44938862847224,111.57388072016917L217.8373810763889,113.93280189515997L218.59122248263887,98.21982231904178L218.84956319444444,93.12205061417289L218.97022916666666,83.09753151596466L219.2125238715278,77.4813436261468L219.24622048611113,116.05510452339965L219.39288098958335,139.23411476880264L219.53119756944443,153.17831921738357L219.62073428819443,160.3116132269023L219.87554487847223,163.75967818794956L220.06938064236112,165.03434103905147L220.44132708333336,141.6523128162562L220.9682779513889,112.19535964791413L221.36076328125,137.10166028478403L221.41564062499998,108.14084188543951L221.41692430555554,93.15013284923549L221.51673046875,124.418428724658L222.0337328125,144.48550830820292L222.03630017361112,156.9174345972484L222.04881605902779,135.8721099759546L222.12647873263887,107.48975973519129L222.43905494791665,132.6088801335838L222.55522803819446,148.43643922576587L223.08667178819445,156.77722204309273L223.33474305555555,161.4911606525276L223.36330494791667,83.72925907462204L223.45380442708333,80.81407970243313L223.7727990451389,86.21826969417107L224.44673133680556,120.08269642789466L224.5035342013889,140.90532825588764L224.53273793402778,153.79859933674084L225.0144390625,84.5154967869505L225.42040303819442,84.37816322834401L225.62996388888888,78.16140630835956L225.64023333333333,115.1778325855414L225.99164088541667,137.15865651486396L226.50062022569446,152.1108416778927L226.71274843749998,161.38438879851012L226.76281197916666,123.26202008368676L227.02917569444446,101.20780666614834L227.2063236111111,130.02369226184643L227.2666565972222,147.08820008735157L227.43802795138888,156.58039664626298L227.4576040798611,35.255983539820754L227.83083420138888,89.31628943884435L228.19636223958332,103.78205533864536L228.27691319444446,80.9687057259228L228.33499973958334,88.6931727840034L228.48166024305556,78.96607695302534L228.62543246527775,114.65710561443069L228.8388443576389,135.75233073811947L229.16072725694443,150.66415253747238L230.18542526041668,117.92470898311572L230.82854921875,139.54390835512424L231.2784792534722,114.00108518450703L231.58046510416668,137.9290480643466L231.77526362847223,151.7804986345741L231.84361961805556,160.9087255229338L231.85228446180554,122.68046471058034L232.14945651041668,140.27252983795825L232.47839965277777,152.6756495997144L232.57499661458334,116.92337224273882L232.72229895833334,139.50557317965627L232.87120590277777,113.75000948091389L232.95881710069443,135.75036002028014L233.07017638888888,75.2869999934913L233.12858385416666,112.98125254688746L233.71201666666667,94.24090077625564L233.84070564236112,79.75962501851826L233.89975494791668,74.29990624241894L233.9395490451389,69.89443206103364L234.59647256944444,72.6159604031546L234.9738746527778,67.09300277463811L235.38625703124998,22.08621033330091L235.51943888888889,82.53351313352185L235.54318697916665,116.79440723943472L235.5967806423611,93.31981727533196L236.18342265624997,82.95335810811909L236.55440633680556,74.62865754027125L236.61826944444445,114.29080852305268L237.0736551215278,138.61810954174624L237.8669697048611,153.46207367635503L237.92537717013892,161.23954387460194L237.9539390625,122.14520590277934L238.08519539930555,142.31234097047104L238.12145937499997,154.23168702163372L238.25303663194447,117.96116420768544L238.37498628472224,141.01889775480535L238.56529192708334,110.9549774067742L238.62145295138887,134.69009049756184L238.77324817708333,150.40667600645335L238.80662387152776,114.47992999085018L238.89776519097222,137.69729588167803L238.91669947916668,150.67940452240072L239.1118189236111,113.2729447993169L239.35026258680554,96.2872115321475L239.55821883680557,78.02059333011613L239.5906317708333,76.23203234961692L240.11822447916668,71.00634797269738L240.17213906249998,68.61560854825161L240.63394314236112,110.25883764334192L240.9208457465278,67.00792442743581L241.08708237847225,109.25275292387369L241.38617994791665,135.1484785252259L241.57552282986111,66.52521201213871L241.8935546875,109.83776415729925L241.90960069444446,90.96370995846036L242.01775078125,39.11405418399955L242.16729956597223,92.95154516448964L242.3736512152778,121.17615218490594L243.14353862847221,141.24605117458245L243.20002057291666,152.9217629028448L243.61400755208334,161.83160810578397L243.84121901041667,126.88448784892874L243.9102168402778,145.90354070898962L244.32035277777777,155.93293930791063L244.34410086805556,119.41839109481717L244.37009539930557,68.35170232427922L244.87329817708334,110.34741515471225L244.95320729166667,65.12126227947283L245.07772430555553,74.67907641370421L245.10660711805554,29.716891134019654L245.2176454861111,86.0333772028899L245.59280112847222,120.42336289438104L245.95608272569444,100.47615685673053L246.28149574652775,128.1679205632895L246.48688463541666,144.28713161567984L246.82738090277778,31.206325523973323L246.99233385416667,51.77206315572311L247.24810720486113,59.077184283585844L247.58507335069444,18.046730186850723L247.7426451388889,79.29317702133115L247.87037135416668,72.32988732623252L248.06998368055557,110.87397349814886L248.37036493055558,136.0931406896729L248.45925980902777,26.582540755356455L248.83473637152778,85.21188862018892L249.07350095486112,120.08655837710565L249.0911515625,104.14219615182795L249.1514845486111,131.95518030864906L249.4775394097222,149.28844137723988L249.49101805555557,77.12648632368891L249.74839600694443,115.11769357169537L249.92490208333334,139.13576419857068L250.38798984374998,150.21699989859417L250.93676328125,157.8321894587526L251.05133177083334,118.7222739089399L251.5757152777778,141.374427195124L251.8992027777778,154.72235319062003L251.90497934027778,119.61853111412483L252.22076475694445,79.08048909083819L252.73808802083332,116.77135647044071L253.23615607638888,107.98801935139588L253.26471796875,10.351332690854635L253.44058220486113,1.9162935415147393L253.5272306423611,70.69945678110354" style="fill: none;" fill="none"></path></g></g></g></g><g opacity="0.2"><g><g><g><path stroke="rgb(255, 112, 67)" stroke-width="2px" d="M32.45561640625,164.04167333245277L32.71491987847222,155.95075058937073L32.95657274305555,-2767.5583267211914L34.01689288194444,-5775.073783874512L34.034864409722225,120.50393521785736L34.10739236111111,90.08071684837343L34.12504296875,-3081.8245239257812L34.48768272569445,-4515.932525634766L34.753083680555555,51.45386457443238L34.88241449652778,115.35927319526671L35.061487934027774,-4597.443290710449L35.20911119791667,111.92066931724548L35.285169270833336,-4994.980728149414L35.294796875,92.73567914962767L35.362831944444444,114.45277309417723L35.444345659722224,125.07013952732088L35.5085296875,-14381.158172607422L35.6298375,92.63859784603117L35.88528993055556,-4695.902961730957L35.95204131944445,-761.6697912216187L36.056982204861114,52.65856456756591L36.096134461805555,114.79834961891173L36.233809201388894,94.52429473400116L36.36185633680556,126.28870928287508L36.43181692708333,-1039.5523662567139L36.79221024305556,143.73969078063965L37.304398784722224,162.40463782846928L37.50497387152778,126.5600769519806L37.51042951388889,164.36216190457344L38.023259895833334,156.46430280804634L38.256889756944446,159.18548583984375L38.29219097222222,168.45748268067837L38.350598437500004,159.91426202654839L38.38782517361111,160.78520327806473L38.78063142361111,159.45593917369843L39.204566927083334,167.3596341907978L39.37786380208333,159.97656166553497L40.03767560763889,153.53597712516785L40.09544123263889,161.63598519563675L40.25782682291667,171.9781648516655L40.85602196180555,167.9589967727661L41.04408116319445,167.02325376868248L41.49850407986111,174.8635150194168L41.55626970486111,166.57095849514008L41.580338715277776,168.66493479907513L41.60312404513889,165.1753022223711L41.61628177083333,163.29520563781261L41.81621501736112,160.4825161099434L42.17243637152777,138.82116496562958L42.94039826388889,126.86644607782362L42.95997439236111,136.33633935451508L43.30881458333334,159.67217242717743L43.47761857638889,35.18916273117065L43.50136666666666,72.65975368022919L43.55046744791667,93.28112936019899L43.86817838541667,150.55882242321968L43.93139965277778,155.7535021007061L43.965096267361105,120.06690406799315L43.98723975694444,172.45567951351404L44.18268012152778,168.52277764678L44.20674913194444,157.2263045310974L44.41149618055556,168.23900051414967L44.55655208333333,109.65464413166045L44.61624322916666,111.20391488075255L44.836715364583334,172.44594492018223L45.10243723958333,162.2991349697113L45.12714809027778,171.12658201158047L45.23144713541667,167.1027648895979L45.40185572916666,106.00015866756438L45.57483168402778,160.52368932962418L45.613021180555556,170.03229151666164L45.96603333333333,93.14824831485747L46.29465555555556,169.02011623978615L46.30364131944444,107.25107479095458L46.32482204861111,171.3744644522667L46.44709262152778,91.06165790557863L47.14028012152778,157.690493196249L47.19579930555555,169.42055639624596L47.202217708333336,-4.040152072906494L47.23270512152778,1.1040387153625488L47.27314105902778,172.96951614320278L47.376156423611114,2.4443979263305664L47.57576875,170.83086137473583L47.8703734375,170.11998154222965L47.918190538194445,169.07144913077354L48.05875355902778,102.13239395618437L48.36202309027777,171.3992640376091L48.77087534722222,168.11693412065506L48.784353993055554,84.10960829257965L48.86458402777778,166.15966060757637L48.908229166666665,168.98389625549316L49.127417621527776,100.3381657600403L49.43518003472222,168.22262951731682L49.667847135416665,22.537238597869866L49.790438628472224,167.5643767118454L49.903081597222226,9.332437038421638L49.94480121527778,167.9709728062153L49.97336310763888,-98.96598768234254L50.05808602430555,168.49456161260605L50.21822517361111,171.04517452418804L50.36296015625,79.3807156085968L50.687731336805555,110.56236803531645L50.98329878472222,76.61657464504242L51.43740078125,169.27253958582878L51.485859722222216,85.07210087776184L51.65498463541667,78.70167398452759L51.90658602430556,168.86369282007217L52.50991588541667,87.19378066062927L52.929037586805556,171.0065236389637L53.08596753472222,170.06926143169403L53.183848177083334,171.30524399876595L53.22749331597222,162.17479944229126L53.25156232638889,-110.67561197280882L53.36677265625,161.15820282697678L53.48615494791667,65.36611545085907L53.49128967013889,169.7126772776246L53.861631510416665,169.9675992205739L53.88217039930555,78.40220105648041L53.97523723958333,171.92821049690247L54.103284374999994,67.8238697052002L54.11355381944444,52.465625762939446L54.17998428819445,152.35966899991035L54.257005121527776,168.34842798113823L54.383447656250006,173.60401029884815L54.67227578125,67.31189823150635L54.74544557291667,162.459789827466L55.66488177083333,172.69498170912266L56.08304071180556,166.56761150062084L56.32084253472222,167.44383743405342L56.34266510416666,166.2972882837057L56.80703654513889,173.91461569815874L57.108059635416666,74.88952195644379L57.15266753472223,-31.4177689552307L57.19759635416667,171.71226033568382L57.46428098958334,-48.32451701164244L57.51883741319444,174.59273375570774L58.31824947916667,80.49697124958038L58.56246970486111,-120.00138139724733L59.018818142361106,102.77054369449614L59.13980503472222,173.43597108498216L59.56470329861111,173.5852224677801L59.76271102430556,59.56606495380401L59.820476649305554,159.54744830727577L59.82657413194444,71.46568810939789L59.902632204861106,157.81678399443626L59.97836935763888,68.65067493915558L60.30410329861111,148.82596546411514L60.60031258680556,66.17511224746704L60.895880034722225,70.48215878009796L60.989267795138886,163.36129009723663L61.03034557291667,64.70172429084778L61.23894366319444,163.10354602336884L61.43085390625,154.70143455266953L61.69818038194445,171.2356455028057L61.70235234374999,67.53763353824615L61.85799861111111,72.3181369304657L62.262999826388885,60.66914010047913L64.43980112847223,169.25757613778114L64.60635868055556,-46.54588174819948L64.87785711805556,166.8042766302824L64.87946171875,-45.164180517196655L65.08485060763888,29.015810251235962L65.44139288194445,68.75676596164703L65.57714210069445,163.210707873106L65.60056927083333,171.67796924710274L65.61629435763889,66.65117144584656L65.81366024305555,46.83223748207093L66.39901857638888,-97.5938377380371L66.42019930555556,-28.49878883361815L66.46801640625,171.60318937152624L66.63136475694444,76.26683437824249L66.70934835069444,-38.86702704429628L67.3659509548611,-27.700166225433364L67.40189401041667,79.95308947563171L67.7995140625,67.86745536327362L67.81491822916666,156.20153340697289L69.11432387152777,168.65944878757L69.13518368055556,59.83471775054932L69.37009722222221,173.68695655092597L69.40058463541666,172.67873379588127L69.50969748263888,-29.071767568588257L70.14544027777778,-11.896823883056653L70.28985434027778,74.5321364402771L70.34697812499999,68.83599662780762L70.44485876736111,-44.61584663391112L70.92174609375,167.93895876407623L71.65601137152778,-44.11908125877382L71.71120963541667,55.1883192062378L72.23430946180555,171.08344560861588L72.35625911458334,73.46790647506714L73.04527465277776,129.42660236358643L73.58249496527777,65.7004245519638L73.58891336805554,67.22273647785187L74.13351484375,170.3699458539486L74.1999453125,-67.86241245269777L74.45507682291667,172.66774946451187L74.66335399305555,70.79538893699646L74.8321579861111,170.4049886316061L75.41815815972222,70.31820440292358L75.44928741319444,-17.88736557960509L75.47078906249999,172.3393923342228L75.53946597222222,-36.55160665512085L76.37064913194445,172.06529001146555L76.44638628472222,168.71914784610271L76.9665978298611,84.23987996578217L77.09753324652779,171.51135362684727L77.13090894097222,167.93654808402061L77.44284331597223,-104.21700096130371L77.80965503472223,-22.489608764648438L78.54777135416667,173.83845047280192L78.87414713541666,164.71646593511105L78.90816467013889,151.82381403446198L79.21432248263889,67.15527260303497L79.22812204861111,171.00460617244244L80.20596571180556,171.44672507047653L80.52335572916667,69.22656548023224L80.93381258680556,-251.65370082855227L80.97168116319445,167.2788438796997L81.27687621527778,166.37294512987137L81.68251927083332,170.6826291680336L81.81923124999999,106.52708303928377L82.35869800347223,66.51135551929474L82.71973315972221,169.87584084272385L83.21748029513888,169.33652898669243L83.3846796875,163.90555343031883L83.46362604166667,173.51352583616972L83.59905434027777,162.59845316410065L83.67126137152778,62.78347003459931L83.89975651041667,156.65123865008354L83.98833046875,170.4959535598755L84.04705885416666,169.74101068079472L84.05572369791668,172.24299194663763L84.39397352430555,170.39238487184048L84.87150269097222,144.96485781669617L85.04030668402777,68.4765362739563L85.22676128472222,59.861557006835945L85.66963107638888,-48.064705133438125L85.80858949652777,85.6400226354599L86.18438697916667,166.92176431417465L86.20781414930555,165.93915635347366L86.73476501736111,172.79291492700577L86.76910347222223,168.33512264490128L86.80793480902777,81.24393391609192L87.86632942708334,-39.985202789306655L88.06850911458334,-148.15095043182373L88.23153654513888,93.22171163558961L88.26170303819444,171.5178634300828L88.55919600694443,170.51729625463486L88.61150598958334,152.91292095184326L89.2074546875,69.42207145690918L89.29602864583333,72.01289665699005L89.40225321180556,66.14158427715302L89.40546241319446,170.29507542401552L89.56945260416667,161.95109501481056L89.61855338541667,173.3439443409443L89.69910434027778,174.31055319309235L89.75141432291666,158.80579933524132L89.8685501736111,69.7319256067276L90.27419322916667,161.6131707727909L90.33227977430556,62.102902173995965L90.40641232638889,166.31258141994476L90.42021189236111,166.4365705549717L91.62302057291667,165.41300477087498L91.72058029513889,170.1707544028759L91.80466137152777,172.05824875086546L91.99785529513888,174.4320261478424L92.04631423611112,85.54732310771942L92.12076770833333,168.01549741625786L92.7080515625,-117.51219511032103L92.73276241319444,172.55425452440977L92.9275609375,76.98116934299469L93.37010980902778,171.1906786710024L93.53121171875,143.29959309101105L93.66888645833333,-30.871404409408555L93.86881970486111,64.56837201118469L94.07485043402778,166.67384319007397L94.17112647569444,-148.6909146308899L94.42240694444445,169.41469234228134L94.64833472222222,168.5348890721798L94.73402039930555,168.78146946430206L95.39575772569444,96.44613599777223L95.74299331597221,-32.564697027206435L95.82771623263889,174.87346325069666L96.03631432291667,162.51202122867107L96.13740416666667,-25.800487041473403L96.16724973958334,172.5081584006548L96.1707798611111,173.59888100996614L96.19484887152778,165.22784397006035L96.3614064236111,-36.91303634643556L96.44580842013889,160.83339929580688L96.67205711805556,165.48343408107758L96.8957384548611,170.06336528807878L97.1389959201389,170.09487248957157L97.80041232638888,-15.53525924682616L98.26863480902777,170.96742701530457L98.42556475694444,166.58497419953346L98.5629185763889,168.62174300849438L98.64122309027778,173.09728086739779L99.0106021701389,51.352739095687866L99.2532177951389,71.64970862865448L99.6514796875,68.33600997924805L99.68902734375,71.38627457618713L99.76219713541667,0.12797880172728837L99.8562267361111,55.29619669914245L100.20827612847224,153.58291417360306L100.29203628472222,103.97352051734923L100.31642621527777,66.53492426872253L100.59691041666667,171.05176609009504L100.61327734375,100.18302416801451L100.62322586805556,167.05633160471916L100.8533256076389,73.3451042175293L100.87161805555556,68.67643105983734L100.97206605902778,171.5125567689538L101.12033116319445,172.9801175966859L101.13477256944445,170.67073313891888L101.45537178819444,6.040140867233276L101.76955260416668,168.70127874612808L101.80902578125001,171.743063762784L101.82314626736111,67.50746047496796L101.90690642361112,171.284127689898L101.95376076388888,167.40935117006302L102.3433578125,72.42981946468353L102.49547395833333,172.28593537211418L102.49964592013889,174.73003394156694L102.56479270833334,79.56595289707184L102.68963064236111,169.14615559577942L102.69123524305556,166.97481685876846L102.87415972222222,63.722478270530694L103.28012369791666,172.983834721148L103.42999340277777,68.1640727519989L103.51985104166666,-24.29951429367067L103.62639652777777,-25.967472791671767L104.06669895833333,168.46296429634094L104.21496406249999,171.8496519550681L104.60199374999999,172.28206087648869L104.95179670138889,68.05688452720642L105.09043420138889,168.91823115944862L105.37252300347221,171.15668869763613L105.66969505208333,173.54967834427953L105.91616171874999,-9.639850616455078L106.04838081597222,89.81397712230681L106.33849262152778,86.82776522636414L106.38342144097221,164.28579469025135L106.63566467013888,171.7127267345786L106.81826822916668,81.28955924510956L106.91743255208333,164.25385273993015L107.20048411458335,63.213615536689765L107.48546119791666,89.06493258476257L107.76305711805556,163.48294328153133L107.77364748263888,68.21995973587036L107.79932109375,-9.92751455307008L108.09970234375,52.504534244537346L108.39077690972222,75.8113055229187L108.41484592013889,170.34179311990738L108.5072709201389,173.19191852211952L108.56856666666667,169.62296384572983L108.57466414930555,73.88679158687592L108.58108255208333,170.09582418948412L108.61221180555556,172.82457026839256L109.13338611111111,61.75757884979247L109.48094262152779,163.3092960715294L109.56438185763889,56.36959815025329L109.72227456597221,70.15082478523254L109.73639505208332,-28.77059960365294L109.8756743923611,172.27257025241852L110.07592855902779,167.05161574482918L110.10192309027778,173.05562498420477L110.15294939236111,166.5031262487173L110.28773585069445,68.92232394218445L110.58587065972222,171.40316622704268L110.68150486111111,70.90573513507843L110.78708758680555,168.5589730143547L110.78869218749999,70.28642773628235L110.88207994791667,69.73125743865967L111.00082039930555,174.13538194447756L111.12758385416667,170.72506575286388L111.33297274305555,172.71999713033438L111.56788628472222,69.51664888858795L111.94560928819445,70.41390717029572L112.09066519097222,60.37335968017579L112.14008689236111,169.35031786561012L112.21325668402777,-32.663192033767714L112.59322612847222,172.7588739618659L112.87724045138889,-29.872978448867798L113.20810911458334,166.04014819860458L113.59513880208334,-26.727158784866347L113.83967994791666,170.88368973135948L113.86406987847222,170.64950693398714L113.99179609375001,-115.55866861343382L114.35122664930556,171.28922950476408L114.53286744791667,73.34755885601044L114.68915555555556,168.41569843888283L114.84897378472222,-35.87122869491576L115.0055828125,71.12256622314453L115.47733541666668,-20.24747586250305L115.58131354166666,87.29397070407867L115.78060494791667,173.15688629448414L115.84414713541668,93.17190849781036L116.27674748263888,85.48968482017517L116.30883949652778,174.07800411060452L116.31814618055556,133.6202045083046L116.36403776041666,172.08247731626034L116.4725087673611,167.96160174906254L116.67853949652778,164.26037001609802L116.86274765625001,81.01702404022217L117.18783975694446,173.8232322856784L117.58706440972223,167.5895965397358L117.70516302083333,174.40788857638836L117.76485416666667,75.08114552497864L117.85342812500001,109.92361342906952L117.86433940972222,171.20886954665184L118.16953446180557,71.67200434207916L118.1997009548611,173.23987364768982L118.99847118055555,170.9843663945794L119.15026640625,169.92925472557545L119.74525234375001,-20.016500711441054L119.771246875,171.9651751369238L119.88645720486112,59.92611610889434L120.37971145833335,169.55791592597961L120.48657786458334,174.61806347966194L120.87681675347221,172.62500692903996L120.89607196180556,172.4046591669321L120.94132170138889,170.45381193608046L121.01128229166666,162.98476859927177L121.35819696180556,164.0179305076599L121.78020694444444,172.70024617016315L121.80363411458333,172.24957076460123L122.03951041666666,171.8248936906457L122.09567144097221,-60.86932325363159L122.151190625,174.726964764297L122.52281614583333,162.44154620170593L122.65054236111112,175.23190970346332L122.83731788194444,171.10859334468842L122.94450520833334,173.65944407135248L123.07479878472222,63.76872253417969L123.3469390625,66.82972705364227L123.768628125,70.47035682201385L124.34339609375,168.59214843809605L124.82188802083333,170.65877029299736L125.21052230902778,83.55939650535583L125.37643802083333,171.41359931975603L125.7034556423611,75.86738240718842L125.72559913194443,64.79338991641998L126.46275269097222,69.47503960132599L126.8131974826389,168.59785424172878L128.3837806423611,165.43895606696606L128.42903038194444,166.99751874804497L128.5403896701389,-137.04267740249634L128.66907864583334,169.9196058511734L128.84173368055556,166.3745742291212L129.01470963541666,-27.424838781356797L129.11162751736111,170.74487517774105L129.2011642361111,-44.44186973571779L130.0686113715278,172.14946424216032L130.13632552083334,93.02885019779205L130.3044876736111,64.37664997577667L130.32342196180554,172.87256847321987L130.60936180555555,172.91317638754845L130.63310989583334,170.23994760215282L130.71398177083333,167.04278801381588L130.88663680555555,171.35727670788765L130.93060286458334,173.57686223462224L131.38470486111112,76.52989566326141L131.39208602430557,-15.544697999954224L131.4777717013889,67.52262437343597L131.60646067708333,72.44234585762024L131.77975755208334,37.71540069580078L131.91069296875,169.66484655439854L132.32435902777777,173.9662993773818L132.6584368923611,72.93539762496948L132.89912699652777,172.4842665567994L133.09071631944445,171.2874614968896L133.42864522569445,172.02874429523945L133.62248098958332,167.0261690914631L133.63018307291665,74.8267422914505L134.12311640625,63.91717541217805L134.13595321180557,173.59594041109085L134.43665538194446,171.08755572140217L134.51592265624998,66.57302391529083L134.57368828125,62.47320091724396L134.73639479166667,173.27984416484833L134.80828090277777,164.4224623143673L135.1709206597222,70.43015420436859L135.41963376736112,167.33561442792416L135.51526796875,63.80349540710449L135.61122309027778,76.86231279373169L135.82688142361113,172.59357225894928L135.97161640625,170.27140337228775L136.03676319444443,-46.557725906372056L136.42443472222223,174.16098377108574L136.54606345486113,60.822488188743584L136.61923324652778,174.4290503822267L136.66416206597222,-53.14579272270201L136.82141293402776,168.95335042476654L137.06563315972224,173.04138860851526L137.14810963541666,76.77424824237823L137.44752812500002,74.7799072265625L137.60253255208332,168.7689140588045L137.60863003472224,69.70366561412811L137.62563880208333,172.04837744683027L137.66607473958334,171.18603710085154L137.83648333333335,65.72826254367828L138.10413072916666,-32.68527674674988L138.27453932291667,173.82929327338934L139.26874991319443,166.7289696931839L139.28672144097223,77.67370796203613L139.67856493055555,174.8139971718192L140.02580052083334,64.15692114830017L140.40031432291667,174.08513306826353L140.47540963541667,-11.959223747253406L140.57457395833333,76.52673065662384L140.59928480902778,-32.06645464897156L141.03701987847222,-128.04564666748047L141.19138246527777,60.60942697525025L141.54150633680555,170.25287357717752L141.88938376736112,-31.29620456695558L141.95806067708335,170.1514096185565L141.97795772569444,171.35405015945435L142.3081845486111,172.02845988422632L142.3232677951389,-32.95890212059021L142.40060954861113,170.58700200915337L142.85214418402776,-130.58105611801147L142.8656228298611,169.7784518301487L143.06042135416666,169.12879729270935L143.22280694444444,170.49224171042442L143.7696548611111,170.24765527248383L143.82934600694443,-37.86163806915282L144.76418637152776,172.7858763039112L145.16052274305554,174.59391513839364L145.20641432291666,-38.24578547477721L145.68779453125,88.66230857372285L145.8065349826389,64.65507209300995L146.20800607638887,175.26282918080688L146.3922142361111,118.21714055538179L147.00260434027777,158.506147056818L147.10273142361112,67.36406457424164L147.14701840277777,138.23931366205215L147.32320355902777,64.1544805765152L147.52345772569444,170.45021305978298L148.25996944444444,170.1259238421917L148.41304835069445,65.41706502437592L148.5786431423611,163.47285042703152L148.67877022569445,169.42861133813858L149.25257543402776,60.82070171833039L149.61393151041668,172.183194860816L150.34948046875,165.88311111927032L150.44030086805557,171.27854453027248L150.49389453125,173.1375881060958L150.61776970486113,163.39649640023708L150.84305564236112,83.35904455184937L151.14504149305557,173.37856335937977L151.18964939236113,173.16661693155766L151.49741180555557,171.18040426820517L151.58373932291667,-37.680191755294814L151.59336692708334,91.4750851392746L151.80228593750002,-15.002469062805176L151.91910086805555,171.69471169263124L151.9470209201389,165.27474585175514L152.34624557291664,85.37777018547058L152.4839203125,173.14368997514248L152.93352942708333,69.45429825782776L152.9659423611111,-41.49394035339357L153.10939366319445,73.9020539522171L153.6280006076389,68.24435842037201L153.6880126736111,66.63596534729004L153.77337743055557,160.7628618478775L154.05065243055554,168.3075624704361L154.57856605902776,174.94473480433226L155.07342491319443,173.71012461930513L155.7069212673611,-13.815099239349353L155.89433862847224,170.64798860996962L155.9466486111111,-38.053437471389756L156.19664539930557,174.29977722465992L157.67704999999998,160.70958599448204L158.0557357638889,169.15700629353523L158.05894496527776,-17.267713546752944L158.42030104166668,174.1831225529313L158.73480277777776,170.5786657333374L158.73640737847222,174.71166921034455L158.7595136284722,-18.112137317657485L158.78197803819447,173.74870736896992L158.88595616319444,170.93372013419867L159.50501111111112,172.19730111956596L159.7678447048611,65.55646598339081L159.90295208333333,66.51812160015106L160.0765698784722,64.38366222381592L160.6141111111111,173.6019321642816L160.63304539930553,174.00487399473786L160.88079574652778,-32.06427431106566L160.91032039930556,168.00771325826645L160.9751462673611,80.1692875623703L161.48829756944446,165.7462509572506L161.64715303819443,170.95505711436272L163.0787777777778,173.2654029428959L163.22190815972223,170.25585571676493L163.25079097222223,75.28604805469513L163.2540001736111,171.43150402605534L163.34867161458334,169.15450417995453L163.37049418402776,64.62501859664917L163.5932127604167,87.03370869159698L163.96002447916666,169.12269850075245L164.32779895833335,61.507058024406426L164.73183741319446,174.90219535678625L165.27611796875001,66.42482423782349L165.59029878472222,169.38069489598274L165.91731640625,173.0159947052598L166.19876336805555,170.6510573476553L166.2902256076389,60.561192274093635L166.65864192708332,-23.196150779724135L167.58642204861113,65.65594565868378L167.6031098958333,82.20435869693756L167.69617673611108,83.45985352993011L167.81074522569443,173.40117117762566L167.87685477430557,172.14668826758862L168.08705746527778,57.18971467018127L168.12011223958334,174.23975309357047L168.6464212673611,71.77983260154724L168.72600946180555,59.9675214290619L168.8280620659722,88.97114992141725L169.0186886284722,169.77264799922705L169.29275442708334,173.44823130965233L169.87233619791667,171.24654675275087L169.9268926215278,83.73869061470032L170.36398585069443,174.06758288666606L170.68522690972222,170.97777746617794L171.20800581597223,68.10312879085541L171.36172656250002,172.11041904985905L171.3713541666667,174.77415787056088L172.50195581597222,62.46417009830475L172.57608836805554,-46.400474309921265L172.63160755208332,170.40160383284092L172.64636987847223,-21.34117555618286L172.74328776041665,173.96863400936127L173.07447734375,170.16583105921745L173.32639965277778,76.13445270061493L173.36170086805555,70.95643854141235L173.40662968750001,170.51979089528322L173.53435590277778,156.32367980480194L173.63576666666665,174.92907593399286L173.70701093749997,65.36458921432495L173.92844583333334,166.15237933397293L174.0128478298611,173.3618991598487L174.12998368055557,67.27353131771088L174.24968689236113,165.77279920876026L174.54108237847223,90.29076075553894L175.05776380208331,173.79153584316373L175.29973758680555,173.18532299995422L175.30423046875,173.62035997584462L175.85428758680555,166.7091312557459L175.884775,61.10202860832215L176.52148055555554,59.93809390068054L176.7403480902778,172.05263482034206L176.8526701388889,173.50309076532722L176.93578845486113,65.8436586856842L176.94798342013888,65.31994152069092L176.95696918402777,71.00055170059204L177.60266050347224,68.0049432516098L177.62897595486112,173.6623220294714L177.86517317708334,63.98254334926606L177.98006258680553,167.38649806380272L177.99739227430555,152.73244524002075L178.01857300347223,76.37298166751862L178.07986875,170.66925525665283L178.15368038194444,166.2826052904129L178.27145807291666,173.3575956299901L178.54969583333335,173.52238961309195L179.02818776041667,173.83962636068463L179.05321953125,66.37578070163727L179.09879019097224,168.42954094707966L179.1430771701389,-331.51236057281494L179.1453236111111,70.22011733055115L179.2233072048611,169.7901526838541L179.24801805555555,174.02663407474756L179.84236215277778,170.41331611573696L179.87509600694443,76.78464353084564L180.13696684027778,172.9195965155959L180.4225857638889,78.95661175251007L180.83978194444444,162.06425631046295L180.9049287326389,175.47536355257034L181.51275147569444,170.83694741874933L181.56153133680556,77.14822542667389L181.6465751736111,72.8547180891037L182.4825721354167,-23.855850696563706L182.64688324652778,-30.286820650100722L182.7701165798611,175.28833847492933L182.7996412326389,62.655420899391174L183.03583845486114,164.93775616586208L183.1407793402778,71.74770426750183L183.2161955729167,97.07861685752867L183.26529635416668,-17.76398658752443L183.49475425347222,174.18933299928904L183.5794771701389,170.37134329229593L183.86060321180557,169.64239786565304L183.87279817708335,169.18121507763863L184.04513229166665,62.58908236026764L185.02682699652777,169.41135589778423L185.05025416666666,65.36883735656738L185.25821041666666,-32.63439750671385L185.30731119791665,72.10252261161804L185.36218854166665,-21.277819156646743L185.46520390625,151.50101500749588L185.72322369791664,-10.892363309860217L185.9125665798611,74.65569829940796L185.96134644097222,172.27012440562248L186.53675625,173.26933898031712L186.83553289930555,164.15133202075958L187.1773128472222,172.49869239330292L187.17891744791666,-29.937277317047133L187.28642569444443,162.60451766848564L187.5784630208333,75.49424922466278L187.59290442708334,162.94563329219818L187.83263177083336,174.1085503809154L187.95522326388888,-34.54291057586671L188.02197465277777,170.97851816564798L188.68980946180554,168.14155435562134L188.8817197048611,71.6738189458847L189.1503298611111,58.687860012054436L189.19108671875,173.9225904159248L189.31752925347223,172.60557202994823L189.3387099826389,-129.42297315597534L190.28702899305554,-21.699271440505996L190.33645069444444,174.0393868535757L190.73792178819446,88.1382327079773L191.01198758680556,172.2004881054163L191.44490885416667,174.38827542588115L192.1454775173611,169.2962621897459L192.29759366319445,-17.963508605957045L192.41505043402776,171.0719074010849L192.70452039930555,-129.55486249923706L192.85727838541666,68.75333368778229L193.364653125,68.41723811626434L193.56362361111113,175.13866399228573L193.99590303819443,169.9069831892848L194.11175520833334,173.71804592758417L194.21830069444445,70.47537159919739L194.25039270833332,72.83804202079773L194.44711675347222,165.6361210346222L194.66983532986112,65.57569515705109L195.53214774305556,172.97582329809666L197.01351510416666,174.23430532589555L197.04336067708334,173.4846486672759L197.11781414930556,173.54292325302958L197.34374192708333,7.074127435684204L197.3909171875,-34.75330615043639L197.4310322048611,172.92378267645836L197.45253385416666,69.28645443916321L197.51607604166665,81.92344677448273L197.70445616319446,173.6762032210827L198.21889114583334,-8.180121421813952L198.41689887152776,70.72982406616211L198.51445859375,173.217588044703L198.95764930555558,170.69742469489574L199.39827265625001,73.42163407802582L199.40629565972222,-24.500274181365967L199.87355538194447,173.66499272361398L199.9034009548611,172.34766355156898L200.1485839409722,54.55042266845704L200.157890625,174.44979370385408L200.29845364583335,174.38308217749L200.30198376736112,173.2049908787012L200.31353689236113,174.13170570135117L200.34177786458335,92.6205291748047L200.90723914930555,174.98768592253327L201.06737829861112,-8.802839994430554L201.1925371527778,-35.537932395935044L201.41012100694445,172.07830214500427L201.43996657986114,172.98740282654762L201.94252751736113,-30.53348016738893L202.21916067708332,167.51735877990723L202.23488576388888,-42.77177309989929L202.32570616319447,79.3688714504242L202.61742256944444,167.45783291757107L202.78430104166668,59.99242651462555L202.97877864583333,62.03652143478393L203.03622335069443,172.7280147075653L203.25701640625,171.08435291051865L204.07825104166668,169.41911455988884L204.17324340277779,169.46089000999928L204.19474505208333,-34.38823318481444L204.90205303819442,158.9579939544201L205.17002135416666,-40.121762275695815L205.2842689236111,59.945788383483894L205.40076293402777,61.88378524780274L205.40461397569445,173.57742380350828L205.52720546875,-142.50016164779663L205.85486493055558,73.17102181911469L206.12732612847222,172.20680317282677L206.37283003472223,172.55782790482044L206.4171170138889,66.2836297750473L206.47873368055556,171.54688082635403L206.71653550347224,55.74097156524659L206.73803715277776,170.234107285738L207.4251271701389,-130.83856105804443L207.83622586805555,175.61873582564294L207.84777899305556,174.67502766475081L208.14687656249998,68.6703542470932L208.6154199652778,-7.098997354507433L208.9068154513889,-32.94241595268248L208.97196223958335,169.0467058122158L209.0050170138889,169.5570719242096L209.21746614583336,173.5514023937285L210.07689027777778,171.32951256632805L210.17798012152775,173.5470669940114L210.4844588541667,5.446484088897711L210.6962661458333,63.812294125556946L211.09067699652778,174.4477702975273L211.38271432291666,81.87196266651154L211.44625651041665,169.03562213480473L212.06563237847223,-18.233786106109605L212.28000703125,-0.6342391967773306L212.35028854166669,66.77003502845764L212.51459965277778,71.06004679203033L212.52454817708335,172.02401261031628L212.69912873263888,173.9078702777624L212.96292508680554,73.32862508296967L213.0633730902778,168.2358539700508L213.33069956597222,69.39631533622742L213.4561793402778,169.6063677817583L213.86438975694443,166.96122930943966L214.11214010416668,71.56474578380585L214.12337230902776,165.93093085289001L214.17632413194443,173.8842846043408L214.56014461805555,174.85861871019006L214.69236371527776,70.31233859062195L214.7090515625,-19.222590446472182L214.85860034722222,-23.285952568054213L214.9346584201389,174.51921548694372L214.9924240451389,175.17133796028793L215.1134109375,171.0071773007512L216.08483619791667,174.0569785758853L216.52449678819445,166.89802061021328L216.64901380208332,170.5460956171155L216.95645529513888,173.1686209961772L217.18623411458336,172.80766385793686L217.2568365451389,66.6502993106842L217.42499869791666,3.059534549713128L217.44938862847224,161.44167137145996L217.8373810763889,117.47118365764618L218.59122248263887,74.6503529548645L218.84956319444444,85.4753930568695L218.97022916666666,68.06075286865234L219.2125238715278,69.05706179141998L219.24622048611113,173.9157458692789L219.39288098958335,174.0026301369071L219.53119756944443,174.09462589025497L219.62073428819443,171.01155424118042L219.87554487847223,168.93177562952042L220.06938064236112,166.94633531570435L220.44132708333336,106.57927048206328L220.9682779513889,68.009929895401L221.36076328125,174.46111124008894L221.41564062499998,64.69961428642273L221.41692430555554,70.6640692949295L221.51673046875,171.32087253779173L222.0337328125,174.58612768352032L222.03630017361112,175.56532403081656L222.04881605902779,104.30412304401398L222.12647873263887,64.91623437404633L222.43905494791665,170.28756073117256L222.55522803819446,172.17777786403894L223.08667178819445,169.28839626908302L223.33474305555555,168.56206856667995L223.36330494791667,-32.913593292236314L223.45380442708333,76.44131064414978L223.7727990451389,94.32455468177794L224.44673133680556,170.87933652848005L224.5035342013889,172.13927599787712L224.53273793402778,173.1385059580207L225.0144390625,-19.409157037735L225.42040303819442,84.17216289043427L225.62996388888888,68.83627092838287L225.64023333333333,170.70247200131416L225.99164088541667,170.1298924088478L226.50062022569446,174.53911942243576L226.71274843749998,175.29470947943628L226.76281197916666,66.07846701145172L227.02917569444446,68.1264865398407L227.2063236111111,173.2475206553936L227.2666565972222,172.6849618256092L227.43802795138888,170.8186914846301L227.4576040798611,-146.73063611984253L227.83083420138888,170.40674828737974L228.19636223958332,125.48070418834688L228.27691319444446,46.748681306838996L228.33499973958334,100.27987337112425L228.48166024305556,64.37543320655823L228.62543246527775,168.19364860653877L228.8388443576389,167.39516842365265L229.16072725694443,173.0318852365017L230.18542526041668,68.81554365158081L230.82854921875,171.97270741313696L231.2784792534722,75.68685042858124L231.58046510416668,173.82099238410592L231.77526362847223,172.55767448991537L231.84361961805556,174.60106585547328L231.85228446180554,65.33807349205017L232.14945651041668,166.66062752902508L232.47839965277777,171.28032924234867L232.57499661458334,63.2949562072754L232.72229895833334,173.37887458503246L232.87120590277777,75.1166639328003L232.95881710069443,168.7508858293295L233.07017638888888,-15.408040046691907L233.12858385416666,169.52263137698174L233.71201666666667,66.13037312030792L233.84070564236112,58.03771138191224L233.89975494791668,66.11032807826996L233.9395490451389,63.286220788955696L234.59647256944444,76.69825291633606L234.9738746527778,58.8085663318634L235.38625703124998,-45.42397832870482L235.51943888888889,173.20446733385324L235.54318697916665,168.18574839830399L235.5967806423611,58.10793232917786L236.18342265624997,67.4036693572998L236.55440633680556,62.14160668849946L236.61826944444445,173.7840349972248L237.0736551215278,175.10906106978655L237.8669697048611,175.72801987826824L237.92537717013892,172.90574917197227L237.9539390625,63.50369894504548L238.08519539930555,172.5630435720086L238.12145937499997,172.1107060983777L238.25303663194447,63.555379986763L238.37498628472224,175.60549807548523L238.56529192708334,65.85909688472748L238.62145295138887,170.2927601337433L238.77324817708333,173.98155426979065L238.80662387152776,60.58981096744537L238.89776519097222,172.52334471791983L238.91669947916668,170.15256748348475L239.1118189236111,57.163255214691155L239.35026258680554,70.80861163139343L239.55821883680557,50.6206660270691L239.5906317708333,73.5491908788681L240.11822447916668,63.16782140731811L240.17213906249998,65.02949941158295L240.63394314236112,172.72368128597736L240.9208457465278,2.1315546035766535L241.08708237847225,172.61999566853046L241.38617994791665,173.9920669272542L241.57552282986111,-36.409687757492065L241.8935546875,174.80659237504005L241.90960069444446,62.65262866020203L242.01775078125,-38.66042947769165L242.16729956597223,173.70778163522482L242.3736512152778,163.5130627155304L243.14353862847221,171.3508996590972L243.20002057291666,170.4353304952383L243.61400755208334,175.19637591019273L243.84121901041667,74.46380746364594L243.9102168402778,174.4321199990809L244.32035277777777,170.97703720629215L244.34410086805556,64.646568775177L244.37009539930557,-8.248330831527722L244.87329817708334,173.34098440036178L244.95320729166667,-2.717967033386244L245.07772430555553,89.01579761505128L245.10660711805554,-37.72638678550719L245.2176454861111,170.50810630619526L245.59280112847222,172.00834143161774L245.95608272569444,70.55534780025482L246.28149574652775,169.70556612312794L246.48688463541666,168.46594819426537L246.82738090277778,-138.41488361358643L246.99233385416667,82.62066960334778L247.24810720486113,70.03486597537994L247.58507335069444,-43.49895095825197L247.7426451388889,171.16284727305174L247.87037135416668,61.884952783584595L248.06998368055557,168.6901027560234L248.37036493055558,173.921891476959L248.45925980902777,-137.68335914611816L248.83473637152778,173.15591041743755L249.07350095486112,172.39856301248074L249.0911515625,80.22565281391144L249.1514845486111,173.6746565438807L249.4775394097222,175.28833298012614L249.49101805555557,-31.116446256637573L249.74839600694443,172.10450444370508L249.92490208333334,175.1628701388836L250.38798984374998,166.83885344862938L250.93676328125,169.25497379899025L251.05133177083334,60.05740058422088L251.5757152777778,175.35265712440014L251.8992027777778,174.74424218386412L251.90497934027778,66.96279799938202L252.22076475694445,18.273426055908196L252.73808802083332,173.3076575398445L253.23615607638888,94.81301367282869L253.26471796875,-136.10369729995728L253.44058220486113,-10.736265182495105L253.5272306423611,173.87420164048672" style="fill: none;" fill="none"></path></g></g></g></g></g></g><g transform="translate(41, 177)" clip-path="url(#clip_1)"><clipPath id="clip_1"><rect width="288" height="23"></rect></clipPath><g><g><line x1="0" y1="0" x2="0" y2="5" style="visibility: inherit;" fill="rgb(0, 0, 0)" stroke="rgb(204, 204, 204)" stroke-width="1px"></line><line x1="32.092013888888886" y1="0" x2="32.092013888888886" y2="5" style="visibility: inherit;" fill="rgb(0, 0, 0)" stroke="rgb(204, 204, 204)" stroke-width="1px"></line><line x1="64.18402777777777" y1="0" x2="64.18402777777777" y2="5" style="visibility: inherit;" fill="rgb(0, 0, 0)" stroke="rgb(204, 204, 204)" stroke-width="1px"></line><line x1="96.27604166666666" y1="0" x2="96.27604166666666" y2="5" style="visibility: inherit;" fill="rgb(0, 0, 0)" stroke="rgb(204, 204, 204)" stroke-width="1px"></line><line x1="128.36805555555554" y1="0" x2="128.36805555555554" y2="5" style="visibility: inherit;" fill="rgb(0, 0, 0)" stroke="rgb(204, 204, 204)" stroke-width="1px"></line><line x1="160.46006944444446" y1="0" x2="160.46006944444446" y2="5" style="visibility: inherit;" fill="rgb(0, 0, 0)" stroke="rgb(204, 204, 204)" stroke-width="1px"></line><line x1="192.55208333333331" y1="0" x2="192.55208333333331" y2="5" style="visibility: inherit;" fill="rgb(0, 0, 0)" stroke="rgb(204, 204, 204)" stroke-width="1px"></line><line x1="224.64409722222223" y1="0" x2="224.64409722222223" y2="5" style="visibility: inherit;" fill="rgb(0, 0, 0)" stroke="rgb(204, 204, 204)" stroke-width="1px"></line><line x1="256.7361111111111" y1="0" x2="256.7361111111111" y2="5" style="visibility: inherit;" fill="rgb(0, 0, 0)" stroke="rgb(204, 204, 204)" stroke-width="1px"></line><line x1="288.828125" y1="0" x2="288.828125" y2="5" style="visibility: inherit;" fill="rgb(0, 0, 0)" stroke="rgb(204, 204, 204)" stroke-width="1px"></line></g><g transform="translate(0, 8)"><text x="0" y="0" dx="0em" dy="0.95em" style="text-anchor: middle; visibility: hidden; font-family: Roboto, sans-serif; font-size: 12px; font-weight: 200;" fill="rgb(33, 33, 33)" stroke="none" stroke-width="1px">-100k</text><text x="32.092013888888886" y="0" dx="0em" dy="0.95em" style="text-anchor: middle; visibility: inherit; font-family: Roboto, sans-serif; font-size: 12px; font-weight: 200;" fill="rgb(33, 33, 33)" stroke="none" stroke-width="1px">0</text><text x="64.18402777777777" y="0" dx="0em" dy="0.95em" style="text-anchor: middle; visibility: inherit; font-family: Roboto, sans-serif; font-size: 12px; font-weight: 200;" fill="rgb(33, 33, 33)" stroke="none" stroke-width="1px">100k</text><text x="96.27604166666666" y="0" dx="0em" dy="0.95em" style="text-anchor: middle; visibility: inherit; font-family: Roboto, sans-serif; font-size: 12px; font-weight: 200;" fill="rgb(33, 33, 33)" stroke="none" stroke-width="1px">200k</text><text x="128.36805555555554" y="0" dx="0em" dy="0.95em" style="text-anchor: middle; visibility: inherit; font-family: Roboto, sans-serif; font-size: 12px; font-weight: 200;" fill="rgb(33, 33, 33)" stroke="none" stroke-width="1px">300k</text><text x="160.46006944444446" y="0" dx="0em" dy="0.95em" style="text-anchor: middle; visibility: inherit; font-family: Roboto, sans-serif; font-size: 12px; font-weight: 200;" fill="rgb(33, 33, 33)" stroke="none" stroke-width="1px">400k</text><text x="192.55208333333331" y="0" dx="0em" dy="0.95em" style="text-anchor: middle; visibility: inherit; font-family: Roboto, sans-serif; font-size: 12px; font-weight: 200;" fill="rgb(33, 33, 33)" stroke="none" stroke-width="1px">500k</text><text x="224.64409722222223" y="0" dx="0em" dy="0.95em" style="text-anchor: middle; visibility: inherit; font-family: Roboto, sans-serif; font-size: 12px; font-weight: 200;" fill="rgb(33, 33, 33)" stroke="none" stroke-width="1px">600k</text><text x="256.7361111111111" y="0" dx="0em" dy="0.95em" style="text-anchor: middle; visibility: inherit; font-family: Roboto, sans-serif; font-size: 12px; font-weight: 200;" fill="rgb(33, 33, 33)" stroke="none" stroke-width="1px">700k</text><text x="288.828125" y="0" dx="0em" dy="0.95em" style="text-anchor: middle; visibility: hidden; font-family: Roboto, sans-serif; font-size: 12px; font-weight: 200;" fill="rgb(33, 33, 33)" stroke="none" stroke-width="1px">800k</text></g><line x1="0" y1="0" x2="288.828125" y2="0" fill="rgb(0, 0, 0)" stroke="rgb(204, 204, 204)" stroke-width="1px"></line></g></g></g></g></svg>