<svg viewBox="0 0 330 200" xmlns="http://www.w3.org/2000/svg"><g><g><g><g><g><line x1="61.953125" y1="177" x2="56.953125" y2="177" style="visibility: inherit;" fill="rgb(0, 0, 0)" stroke="rgb(204, 204, 204)" stroke-width="1px"></line><line x1="61.953125" y1="160.90909090909093" x2="56.953125" y2="160.90909090909093" style="visibility: inherit;" fill="rgb(0, 0, 0)" stroke="rgb(204, 204, 204)" stroke-width="1px"></line><line x1="61.953125" y1="144.8181818181818" x2="56.953125" y2="144.8181818181818" style="visibility: inherit;" fill="rgb(0, 0, 0)" stroke="rgb(204, 204, 204)" stroke-width="1px"></line><line x1="61.953125" y1="128.72727272727272" x2="56.953125" y2="128.72727272727272" style="visibility: inherit;" fill="rgb(0, 0, 0)" stroke="rgb(204, 204, 204)" stroke-width="1px"></line><line x1="61.953125" y1="112.63636363636365" x2="56.953125" y2="112.63636363636365" style="visibility: inherit;" fill="rgb(0, 0, 0)" stroke="rgb(204, 204, 204)" stroke-width="1px"></line><line x1="61.953125" y1="96.54545454545456" x2="56.953125" y2="96.54545454545456" style="visibility: inherit;" fill="rgb(0, 0, 0)" stroke="rgb(204, 204, 204)" stroke-width="1px"></line><line x1="61.953125" y1="80.45454545454547" x2="56.953125" y2="80.45454545454547" style="visibility: inherit;" fill="rgb(0, 0, 0)" stroke="rgb(204, 204, 204)" stroke-width="1px"></line><line x1="61.953125" y1="64.36363636363639" x2="56.953125" y2="64.36363636363639" style="visibility: inherit;" fill="rgb(0, 0, 0)" stroke="rgb(204, 204, 204)" stroke-width="1px"></line><line x1="61.953125" y1="48.27272727272729" x2="56.953125" y2="48.27272727272729" style="visibility: inherit;" fill="rgb(0, 0, 0)" stroke="rgb(204, 204, 204)" stroke-width="1px"></line><line x1="61.953125" y1="32.181818181818215" x2="56.953125" y2="32.181818181818215" style="visibility: inherit;" fill="rgb(0, 0, 0)" stroke="rgb(204, 204, 204)" stroke-width="1px"></line><line x1="61.953125" y1="16.090909090909097" x2="56.953125" y2="16.090909090909097" style="visibility: inherit;" fill="rgb(0, 0, 0)" stroke="rgb(204, 204, 204)" stroke-width="1px"></line><line x1="61.953125" y1="0" x2="56.953125" y2="0" style="visibility: inherit;" fill="rgb(0, 0, 0)" stroke="rgb(204, 204, 204)" stroke-width="1px"></line></g><g transform="translate(51.953125, 0)"><text x="0" y="177" dx="0em" dy="0.3em" style="text-anchor: end; visibility: hidden; font-family: Roboto, sans-serif; font-size: 12px; font-weight: 200;" fill="rgb(33, 33, 33)" stroke="none" stroke-width="1px">-0.35</text><text x="0" y="160.90909090909093" dx="0em" dy="0.3em" style="text-anchor: end; visibility: inherit; font-family: Roboto, sans-serif; font-size: 12px; font-weight: 200;" fill="rgb(33, 33, 33)" stroke="none" stroke-width="1px">-0.3</text><text x="0" y="144.8181818181818" dx="0em" dy="0.3em" style="text-anchor: end; visibility: hidden; font-family: Roboto, sans-serif; font-size: 12px; font-weight: 200;" fill="rgb(33, 33, 33)" stroke="none" stroke-width="1px">-0.25</text><text x="0" y="128.72727272727272" dx="0em" dy="0.3em" style="text-anchor: end; visibility: inherit; font-family: Roboto, sans-serif; font-size: 12px; font-weight: 200;" fill="rgb(33, 33, 33)" stroke="none" stroke-width="1px">-0.2</text><text x="0" y="112.63636363636365" dx="0em" dy="0.3em" style="text-anchor: end; visibility: hidden; font-family: Roboto, sans-serif; font-size: 12px; font-weight: 200;" fill="rgb(33, 33, 33)" stroke="none" stroke-width="1px">-0.15</text><text x="0" y="96.54545454545456" dx="0em" dy="0.3em" style="text-anchor: end; visibility: inherit; font-family: Roboto, sans-serif; font-size: 12px; font-weight: 200;" fill="rgb(33, 33, 33)" stroke="none" stroke-width="1px">-0.1</text><text x="0" y="80.45454545454547" dx="0em" dy="0.3em" style="text-anchor: end; visibility: hidden; font-family: Roboto, sans-serif; font-size: 12px; font-weight: 200;" fill="rgb(33, 33, 33)" stroke="none" stroke-width="1px">-0.05</text><text x="0" y="64.36363636363639" dx="0em" dy="0.3em" style="text-anchor: end; visibility: inherit; font-family: Roboto, sans-serif; font-size: 12px; font-weight: 200;" fill="rgb(33, 33, 33)" stroke="none" stroke-width="1px">0</text><text x="0" y="48.27272727272729" dx="0em" dy="0.3em" style="text-anchor: end; visibility: hidden; font-family: Roboto, sans-serif; font-size: 12px; font-weight: 200;" fill="rgb(33, 33, 33)" stroke="none" stroke-width="1px">0.05</text><text x="0" y="32.181818181818215" dx="0em" dy="0.3em" style="text-anchor: end; visibility: inherit; font-family: Roboto, sans-serif; font-size: 12px; font-weight: 200;" fill="rgb(33, 33, 33)" stroke="none" stroke-width="1px">0.1</text><text x="0" y="16.090909090909097" dx="0em" dy="0.3em" style="text-anchor: end; visibility: hidden; font-family: Roboto, sans-serif; font-size: 12px; font-weight: 200;" fill="rgb(33, 33, 33)" stroke="none" stroke-width="1px">0.15</text><text x="0" y="0" dx="0em" dy="0.3em" style="text-anchor: end; visibility: hidden; font-family: Roboto, sans-serif; font-size: 12px; font-weight: 200;" fill="rgb(33, 33, 33)" stroke="none" stroke-width="1px">0.2</text></g><line x1="61.953125" y1="0" x2="61.953125" y2="177" fill="rgb(0, 0, 0)" stroke="rgb(204, 204, 204)" stroke-width="1px"></line></g></g><g transform="translate(61, 0)" clip-path="url(#clip_0)"><clipPath id="clip_0"><rect width="268" height="177"></rect></clipPath><g><g><g><line x1="0" y1="0" x2="0" y2="177" fill="rgb(0, 0, 0)" stroke="rgb(66, 66, 66)" stroke-width="1px" opacity="0.25"></line><line x1="29.78298611111111" y1="0" x2="29.78298611111111" y2="177" fill="rgb(0, 0, 0)" stroke="rgb(66, 66, 66)" stroke-width="1px" opacity="0.25"></line><line x1="59.56597222222222" y1="0" x2="59.56597222222222" y2="177" fill="rgb(0, 0, 0)" stroke="rgb(66, 66, 66)" stroke-width="1px" opacity="0.25"></line><line x1="89.34895833333333" y1="0" x2="89.34895833333333" y2="177" fill="rgb(0, 0, 0)" stroke="rgb(66, 66, 66)" stroke-width="1px" opacity="0.25"></line><line x1="119.13194444444444" y1="0" x2="119.13194444444444" y2="177" fill="rgb(0, 0, 0)" stroke="rgb(66, 66, 66)" stroke-width="1px" opacity="0.25"></line><line x1="148.91493055555557" y1="0" x2="148.91493055555557" y2="177" fill="rgb(0, 0, 0)" stroke="rgb(66, 66, 66)" stroke-width="1px" opacity="0.25"></line><line x1="178.69791666666666" y1="0" x2="178.69791666666666" y2="177" fill="rgb(0, 0, 0)" stroke="rgb(66, 66, 66)" stroke-width="1px" opacity="0.25"></line><line x1="208.48090277777777" y1="0" x2="208.48090277777777" y2="177" fill="rgb(0, 0, 0)" stroke="rgb(66, 66, 66)" stroke-width="1px" opacity="0.25"></line><line x1="238.26388888888889" y1="0" x2="238.26388888888889" y2="177" fill="rgb(0, 0, 0)" stroke="rgb(66, 66, 66)" stroke-width="1px" opacity="0.25"></line><line x1="268.046875" y1="0" x2="268.046875" y2="177" fill="rgb(0, 0, 0)" stroke="rgb(66, 66, 66)" stroke-width="1px" opacity="0.25"></line></g><g><line x1="0" y1="177" x2="268.046875" y2="177" fill="rgb(0, 0, 0)" stroke="rgb(66, 66, 66)" stroke-width="1px" opacity="0.25"></line><line x1="0" y1="160.90909090909093" x2="268.046875" y2="160.90909090909093" fill="rgb(0, 0, 0)" stroke="rgb(66, 66, 66)" stroke-width="1px" opacity="0.25"></line><line x1="0" y1="144.8181818181818" x2="268.046875" y2="144.8181818181818" fill="rgb(0, 0, 0)" stroke="rgb(66, 66, 66)" stroke-width="1px" opacity="0.25"></line><line x1="0" y1="128.72727272727272" x2="268.046875" y2="128.72727272727272" fill="rgb(0, 0, 0)" stroke="rgb(66, 66, 66)" stroke-width="1px" opacity="0.25"></line><line x1="0" y1="112.63636363636365" x2="268.046875" y2="112.63636363636365" fill="rgb(0, 0, 0)" stroke="rgb(66, 66, 66)" stroke-width="1px" opacity="0.25"></line><line x1="0" y1="96.54545454545456" x2="268.046875" y2="96.54545454545456" fill="rgb(0, 0, 0)" stroke="rgb(66, 66, 66)" stroke-width="1px" opacity="0.25"></line><line x1="0" y1="80.45454545454547" x2="268.046875" y2="80.45454545454547" fill="rgb(0, 0, 0)" stroke="rgb(66, 66, 66)" stroke-width="1px" opacity="0.25"></line><line x1="0" y1="64.36363636363639" x2="268.046875" y2="64.36363636363639" fill="rgb(0, 0, 0)" stroke="rgb(66, 66, 66)" stroke-width="1px" opacity="0.25"></line><line x1="0" y1="48.27272727272729" x2="268.046875" y2="48.27272727272729" fill="rgb(0, 0, 0)" stroke="rgb(66, 66, 66)" stroke-width="1px" opacity="0.25"></line><line x1="0" y1="32.181818181818215" x2="268.046875" y2="32.181818181818215" fill="rgb(0, 0, 0)" stroke="rgb(66, 66, 66)" stroke-width="1px" opacity="0.25"></line><line x1="0" y1="16.090909090909097" x2="268.046875" y2="16.090909090909097" fill="rgb(0, 0, 0)" stroke="rgb(66, 66, 66)" stroke-width="1px" opacity="0.25"></line><line x1="0" y1="0" x2="268.046875" y2="0" fill="rgb(0, 0, 0)" stroke="rgb(66, 66, 66)" stroke-width="1px" opacity="0.25"></line></g></g></g><g><g><line x1="0" y1="64.36363636363639" x2="268.046875" y2="64.36363636363639" fill="rgb(0, 0, 0)" stroke="rgb(153, 153, 153)" stroke-width="1.5px"></line></g></g><g><g><line x1="29.78298611111111" y1="0" x2="29.78298611111111" y2="177" fill="rgb(0, 0, 0)" stroke="rgb(153, 153, 153)" stroke-width="1.5px"></line></g></g><g><g><g><g><g><path stroke="rgb(255, 112, 67)" stroke-width="2px" d="M30.12042734375,14.805837750434895L30.361073871527775,-61.56617403436789L31.01064079861111,-71.11041886231952L31.360293055555555,9.593021168128855L31.40764800347222,16.801655731145832L31.520227690972224,51.879439894972286L31.569369618055553,38.8500107304599L31.586048090277778,50.96463204780364L31.653357638888888,3.5949981302285874L31.66973828125,18.259588276929577L31.78767890625,78.9017554623339L31.8654125,84.94259993273292L32.00628602430555,78.9009051749226L32.25259131944444,199.28600058671222L32.37261675347222,99.60689734185833L32.538805815972225,12.900145095405982L32.675807552083334,48.934667677280146L32.74639322916667,39.56740651669554L32.755328125,-21.27503287027553L32.818468055555556,5.951513984936716L32.894116840277775,40.37551418663577L32.9536828125,26.868421265680475L33.0662625,125.98146701581408L33.303335069444444,91.47710162226346L33.36528368055556,158.53827264182667L33.46267404513889,137.22588336749516L33.49900928819444,140.71458369216523L33.626778298611114,60.359813429527115L33.74561241319444,74.91758822029736L33.81053932291667,165.95743282433108L34.145002256944444,157.04567535618474L34.62033871527778,130.3125639985983L34.806482378472225,116.05000944748116L34.81154548611111,97.3260654714633L35.28747760416667,84.9803345337557L35.50429774305555,107.60264417974918L35.53705902777777,129.24505895714591L35.5912640625,65.82472687471326L35.62581232638889,111.53872139094487L35.990356076388885,56.088246510865375L36.38378932291667,81.08012506164299L36.544617447916664,71.12577100150408L37.15695564236111,78.99353742035646L37.21056501736111,48.440054427437076L37.361266927083335,47.56593408359002L37.91642178819444,35.76967821071765L38.090950086805556,13.794604817380634L38.512677170138886,35.089551905238935L38.56628654513889,17.035658923668993L38.58862378472222,6.840469661940478L38.609769704861115,9.59959036543319L38.621980729166665,29.29004819303281L38.80752873263889,28.924534545272085L39.13811987847222,69.75728446817931L39.85082673611111,39.61177703051183L39.86899435763889,113.17895028343162L40.19273541666667,60.59174850791194L40.34939392361111,65.17930701608287L40.37143333333333,89.19933824083225L40.41700130208333,100.40680501881069L40.711852864583335,79.09602793847995L40.770525347222225,77.37701492566966L40.80179748263888,100.65703014875021L40.82234774305555,151.28732526074248L41.00372612847222,92.79721064647445L41.02606336805555,83.78290398992434L41.21607881944445,59.41518598082426L41.35069791666667,34.47405165873353L41.40609427083333,-7.128840163151646L41.61070338541666,16.22130314855128L41.85730651041666,53.51232149158384L41.88023940972222,56.06138079247645L41.97703411458333,28.633138661871993L42.135181770833334,82.66257536943378L42.295712065972225,43.91136488583512L42.331153819444445,75.25731575810643L42.658766666666665,56.263842424241574L42.963744444444444,78.91865113460837L42.97208368055555,90.31578135594565L42.991740451388885,69.34014420355084L43.10521362847222,79.41398338246992L43.74852612847222,276.4567419970334L43.800050694444444,246.57254322619497L43.80600729166667,168.13232219152223L43.83430112847222,133.49501603422289L43.87182769097222,103.08895250957393L43.96743107638889,87.24363749721539L44.15268125,59.80965907600133L44.4260890625,67.94681069498317L44.47046571180555,56.937602380024096L44.60091519097222,51.626710887940035L44.88236440972222,21.138803800566865L45.261799652777775,48.381559603152645L45.27430850694444,21.80687553233004L45.348765972222225,122.54953747663015L45.389270833333335,85.049520484103L45.592688628472224,72.23123202467106L45.87830746527778,59.919782768155L46.09423411458333,59.56920443421675L46.208005121527776,45.00142247834358L46.31254340277778,58.10951248458521L46.35126128472222,39.754351423093674L46.377768142361106,66.66652803122992L46.45639522569444,98.60405594733628L46.60501232638889,116.26965691225094L46.73933359375,129.1934501568512L47.04073741319445,90.46119718140038L47.31503871527778,77.84994991353555L47.73646796875,21.306066806232636L47.781440277777776,45.30827653496227L47.93839661458333,21.323942945749323L48.17189522569445,15.6781007587833L48.73181536458333,43.50008522564255L49.120781163194444,28.75966912943392L49.26641996527778,48.28670968945512L49.357258072916665,12.861706216602204L49.397762934027774,88.90732158932663L49.42010017361112,64.0813898600499L49.527021093749994,70.41302202143974L49.637813802083336,49.99557068672278L49.642579079861115,30.559009860857774L49.98627473958334,-11.073496624559219L50.00533585069444,40.97676798365169L50.091706510416664,59.38468881264502L50.21054062499999,74.97977902562343L50.22007118055556,144.48982333203887L50.28172196180556,67.1127552323277L50.35320112847222,85.48608532309579L50.47054609375,70.30074685289672L50.738592968750005,113.41917864637824L50.806498177083334,99.99099577325572L51.65978072916666,110.03655730888946L52.04785303819445,93.94749345739471L52.268544965277776,55.31950699088662L52.28879739583333,42.27794489360647L52.71975720486111,91.52953271652612L52.99912161458333,125.4485475163237L53.04051996527778,75.11225313352638L53.082216145833335,40.38602662437505L53.32971276041667,38.53648266352675L53.38034383680555,65.89868987946733L54.122238020833336,11.971539611620942L54.34888654513889,35.06027403338583L54.772400607638886,53.70038293898222L54.884682465277784,16.84587203703214L55.27900920138889,-11.819591355507592L55.46277022569445,20.66547961484111L55.51637960069444,-9.391106194822395L55.522038368055554,29.558594596805754L55.59262404513889,139.2002177897718L55.66291189236111,73.67921735210793L55.96520920138889,96.91817014379902L56.24010616319445,56.81892880017087L56.514407465277785,37.837690853183815L56.60107595486111,38.40662129869022L56.63919817708334,106.77121719536431L56.83278758680555,122.37633334560272L57.01088984375,82.89115095604218L57.258982118055556,78.04375493860044L57.262853906249994,54.512962254445014L57.40730138888889,44.71882082647426L57.78316267361111,25.274856939039335L59.803342621527776,107.42376965367463L59.95791631944444,75.57875717494723L60.209880381944444,64.89058486166445L60.21136953125,94.68110287133744L60.40198064236111,61.27755480212667L60.73286961805556,51.531161861652514L60.85885164930556,182.77415955540147L60.88059322916667,209.47677575525515L60.89518689236111,154.17814344966715L61.07835225694445,188.17946017376258L61.62159392361111,140.70197491808827L61.641250694444444,135.30712546576427L61.68562734375,79.89031660034604L61.837222743055555,80.01762400660614L61.90959539930556,112.99021466674084L62.51895529513889,182.1047556276313L62.55231223958334,145.5184586363874L62.9213234375,104.69292871462358L62.93561927083333,140.54147002229777L64.14153237847222,91.69401645683516L64.16089131944445,55.482342585789034L64.37890277777778,70.0034639409204L64.40719661458333,58.98910595114239L64.5084587673611,49.6325940308177L65.09845972222223,69.5201715869754L65.23248315972222,66.53807511477874L65.28549687499999,99.62776199689847L65.3763349826389,87.96959219457062L65.81891015625,134.38733657430242L66.50034487847222,112.73571223266391L66.55157161458334,109.05680864763377L67.03703428819445,67.38275061890933L67.15020963541667,75.63537305663932L67.78965034722222,13.468371368960907L68.28821753472222,38.98699287569958L68.29417413194444,4.915563711231857L68.79959140625,25.84141076997003L68.86124218750001,15.287820614113555L69.09801692708332,69.69572323040938L69.29130850694445,77.99487216594248L69.44796701388888,50.00134059978981L69.99180434027778,60.979114956816794L70.02069383680555,44.22553499063407L70.0406484375,51.051178133881166L70.10438402777777,43.53441649894046L70.87576336805556,85.08072759260992L70.94605121527778,44.74367581337846L71.42883342013889,43.171678591767076L71.55034800347222,24.791857341148116L71.58132230902778,-3.167834972717827L71.87081293402778,28.72673026382039L72.21123246527777,45.91619811288347L72.89624114583333,17.839763929708514L73.19913411458333,22.315891363019336L73.23070407986111,78.89341143454969L73.51483376736111,56.03804999944538L73.52764045138889,94.74688219478277L74.43512803819445,89.50616216602975L74.72968177083334,65.11328880752956L75.11060616319445,65.01236192444465L75.14575008680556,56.71546490336251L75.42898628472223,26.811902922279586L75.80544322916666,41.5277073730532L75.93231875,61.55606250678703L76.43297074652777,103.19299928701317L76.76802934027776,62.22190136688424L77.2299634548611,16.838868865507436L77.3851328125,64.19492058431632L77.45839895833333,39.6285042162542L77.58408315972223,66.78762032852308L77.65109487847222,138.59206401701576L77.86314973958333,194.9463127902171L77.94535078125,188.7416690401664L77.99985364583333,72.63999340283188L78.00789505208334,71.99263822914278L78.32180772569444,22.684323529055078L78.76497855902777,69.96132908388452L78.92163706597222,58.00373370071392L79.09467621527777,70.9129668218556L79.50568142361111,33.81246305362364L79.63464175347222,19.277752094602462L79.98340052083334,13.782107564779569L80.00514210069444,-1.1576083691176053L80.49417873263889,51.02253692744095L80.52604652777778,-3.752141397987125L80.56208394097222,24.247641736825095L81.54432682291667,14.868597520490033L81.69860269097222,14.844435441715873L81.73195963541667,66.57760681837564L81.88325720486111,79.18617405426906L81.91125321180556,55.00436045324611L82.18734149305556,51.50304549149702L82.23588776041666,104.18131190935718L82.7889578125,105.15163283694842L82.87115885416667,75.92689487860403L82.96974053819444,95.58254412129999L82.97271883680556,60.208223384331724L83.12490989583334,33.95601598017985L83.17047786458333,28.277651253358528L83.24523315972223,41.17840248797027L83.29377942708332,88.52868447249077L83.40248732638888,121.65332478663831L83.77894427083334,131.45976633277624L83.83285147569444,227.98288418321064L83.90165017361112,165.95468747894915L83.91445685763888,157.60695885695677L85.03072317708335,70.61209716247119L85.12126345486112,75.30556543215435L85.19929487847222,29.42772291518752L85.3785884548611,39.13118997410891L85.4235607638889,71.68845724146775L85.49265729166666,141.87511579226003L86.0376859375,98.85984749595467L86.06061883680556,53.92785260514867L86.2414015625,66.2747254023774L86.65210894097223,47.20377630400691L86.80161953125,92.51688081702771L86.92938854166667,104.53334942595147L87.11493654513889,97.26752701049277L87.30614331597222,111.00908344501663L87.39549227430555,92.76075954472938L87.62869305555556,79.19235392028371L87.83836527777777,78.92730967660225L87.91788585069443,50.40419090501517L88.53201102430556,22.33869653822756L88.85426293402777,15.146604859124295L88.93289001736112,5.950623806834059L89.12647942708332,23.421149749198744L89.22029583333334,94.6515457958L89.24799401041668,44.44307569823583L89.25127013888888,34.231895066272735L89.27360737847224,3.3716131528229587L89.42818107638888,-4.517967563975279L89.50651032986111,28.71469466452206L89.71648038194445,93.10778850111554L89.92406779513888,84.09498586639766L90.14982282986111,47.98501353384963L90.7636501736111,72.71330870397581L91.19818394097221,62.347050702726094L91.34382274305555,29.229029984783477L91.47129392361111,104.0780118707432L91.54396440972222,63.648582777325394L91.88676657986112,2.917711085101966L92.1119259548611,18.426269375531845L92.48153281249999,15.77214863277235L92.51637890625,14.716898659220806L92.58428411458334,53.46733421482098L92.67154826388888,120.87963138188667L92.99826762152779,188.90260380388563L93.07600121527777,165.6108389619773L93.09863628472222,144.37396197298244L93.35893958333334,82.98685577163364L93.37412890625,49.12395715992121L93.38336163194444,79.43835413189647L93.59690564236111,126.26264306905655L93.61388194444446,102.76785712352161L93.70710269097223,108.68734352264535L93.84470008680556,78.87778608864602L93.85810243055556,57.258726807901354L94.15563446180556,81.54178065046182L94.44720989583334,84.84476478198962L94.48384296875001,106.2522381090564L94.49694748263889,94.39951353819733L94.5746810763889,73.54880557334815L94.6181642361111,78.79726468792848L94.9797296875,76.97460194825271L95.12090104166667,83.73533560817381L95.1247728298611,93.41076746086335L95.18523229166667,55.775360969793056L95.30108810763889,107.7499188135431L95.30257725694445,82.20613146832868L95.47234027777777,86.58172422491647L95.84909505208333,52.18300295107718L95.98818159722222,68.0467143852953L96.07157395833333,33.4465057762855L96.17045347222222,29.085565184660037L96.57907604166667,71.04678618074438L96.71667343749999,60.82283225968255L97.07585625,44.606290022060286L97.4004907986111,72.59549624674835L97.52915329861112,82.88976325148155L97.79094574652777,45.88510783211314L98.06673619791667,91.1275011521335L98.29546953124999,93.1907716969973L98.41817543402777,95.56262546552087L98.68741362847223,114.7301268488177L98.72910980902778,127.16773818953521L98.9632040798611,195.78593666621802L99.13266927083333,172.22755562173037L99.22469869791666,86.69224454704946L99.48738463541667,73.42950551519841L99.75185755208334,92.53820233394372L100.00948038194444,39.20432902105633L100.01930876736111,34.424603378776986L100.04313515625,13.1668220582901L100.32190390625,11.354425213858672L100.59203559027777,1.1272305577114272L100.61437282986111,43.149595297576425L100.70014782986112,70.85571774185873L100.75703333333334,140.7504964545385L100.76269210069444,90.13286357914957L100.76864869791666,81.71909683983492L100.79753819444444,67.03157841966947L101.28121388888889,89.55258800217804L101.60376362847222,107.43148729038359L101.68119939236112,153.60845685284428L101.82773168402778,95.21503716983145L101.84083619791666,92.85173923051099L101.97009435763889,113.24038861287352L102.15594019097223,100.36996316152263L102.18006440972222,46.39640178225904L102.22741935763888,81.25910343764434L102.35250789930555,225.32237559796482L102.62919184027777,146.83425225163168L102.71794513888888,189.76700351606246L102.81593116319445,133.84233973658888L102.81742031249999,106.11501211285857L102.90408880208334,94.88976072992136L103.01428585069445,76.97230145117251L103.13192864583334,68.32045810444069L103.32253975694445,51.0945670925769L103.54055121527777,61.49427759135378L103.89109696180556,58.80542307243063L104.02571605902777,59.273098388909446L104.07158185763889,33.70505792420513L104.13948706597222,92.85112647562433L104.49211762152778,97.40742052893275L104.75569704861111,172.56410456262108L105.06275963541667,108.52743162576874L105.42194244791668,116.11572782804191L105.64888880208333,74.61188574200644L105.67152387152778,212.5240015589235L105.79006015625001,143.42003782680584L106.12362960069444,108.21572554815924L106.29220130208334,60.262469612360164L106.43724444444445,52.27736946728023L106.58556371527777,65.58282371361047L106.7309046875,59.20366587042206L107.16871458333334,92.80236458333697L107.26521145833333,165.10341852528182L107.45016380208334,104.52461241475324L107.50913411458333,69.85090753095116L107.91060876736111,65.29114638633318L107.94039175347223,51.55424453753487L107.94902881944445,73.49855372543813L107.99161848958333,40.88891932833871L108.09228498263889,49.25876334643121L108.28349175347222,61.19681780484229L108.45444609375001,17.397368662149276L108.75614774305556,44.34496428524884L109.12664809027778,24.954668249601553L109.23624947916666,19.74126286642437L109.29164583333333,11.48329631453405L109.373846875,63.10274340218963L109.38397309027778,67.66707711034108L109.66720928819446,66.12088031971672L109.69520529513889,64.62937146070135L110.43650381944444,58.63343309980516L110.57737734375,59.85520411070949L111.12955390625001,46.00299060664635L111.153678125,53.4749861796025L111.26059904513889,35.77423623384433L111.71836354166668,41.219631382007705L111.81754088541668,37.749824792145176L112.17970199652777,42.39914795702063L112.19757178819445,57.66199129408002L112.23956579861111,82.54457049231065L112.30449270833333,122.83287818391955L112.62644678819444,114.86874314262552L113.01809305555555,70.7838979446102L113.03983463541667,108.17150463361791L113.25873958333332,60.023467290776324L113.31085980902778,60.21728329236674L113.362384375,35.86559856378439L113.70727135416666,107.20485262484846L113.82580763888889,158.83819812456395L113.99914461805555,144.90103353430786L114.09861979166668,148.74890455065508L114.21953871527778,115.68282799831397L114.4720984375,51.17642885881395L114.86344687500001,78.83852211064372L115.39686015625,85.77688369625757L115.84092447916666,53.93443027421206L116.20159644097222,93.25079910545354L116.35557447916666,96.4939532336738L116.65906310763889,110.50956783201809L116.67961336805556,46.839631700825514L117.36372855902778,96.86057273189752L117.68895876736111,63.72712507683898L119.14653810763889,143.6067901065282L119.18853211805556,112.79980085824648L119.2918790798611,78.84138153893402L119.41130885416666,61.240619392790144L119.57154131944445,64.73247555481169L119.73207161458333,61.28425396190692L119.8220162326389,31.079419285477695L119.90511076388889,21.320625893345543L120.71014487847224,-3.311414556460912L120.77298697916667,6.500589973041664L120.92904982638889,-2.6071513290079302L120.94662178819443,16.173402033916464L121.21198819444444,54.7788281391634L121.23402760416667,74.46106659746339L121.30908072916667,73.86076607792913L121.46931319444444,95.52235164175397L121.51011588541667,85.26238559144716L121.9315451388889,98.55534849114731L121.93839522569445,116.24661283331712L122.01791579861111,36.02233370597452L122.13734557291666,14.770691935045171L122.29817369791667,20.881892897977032L122.41968828125,85.27151297229146L122.80359097222222,94.5313839964833L123.11363185763888,55.775525681432946L123.33700425347222,77.27076011109492L123.51480868055556,54.1241625879513L123.82842352430556,73.50065401726081L124.00831276041666,67.81862279982147L124.01546067708333,13.770557157190568L124.47292734375,-24.753885521026575L124.48484053819445,19.801212805571716L124.76390711805556,31.300490626350758L124.83747109375,42.128252077385135L124.89108046875,135.2376389877974L125.04208020833333,74.3309151874172L125.10879409722223,59.13836095770955L125.44534184027778,66.44751431532794L125.6761599826389,72.91189250559647L125.76491328125,80.40412115038603L125.85396440972222,35.23974459214258L126.05410607638889,49.506175784238756L126.18842734375,61.24856616245911L126.24888680555556,12.149704515424252L126.60866527777779,40.99957047995416L126.72154279513889,18.398751563408908L126.78944800347222,-0.36049528921905494L126.97708081597222,-1.2000951589425561L127.20372934027779,42.09689273382272L127.28027161458334,41.14325849326931L127.558146875,65.13901517674995L127.70199869791666,63.86092213974346L127.70765746527778,12.938392195942985L127.72344244791667,24.448497235356296L127.76096901041666,85.00360757954358L127.91911666666667,12.399328216271973L128.16750677083334,17.84400342962586L128.32565442708335,33.001991695531856L129.24833133680556,112.77032403350178L129.2650098090278,71.67051573352562L129.62866006944444,66.91677263884219L129.95091197916668,121.13805038202527L130.29847942708332,90.36791249793008L130.36817161458333,140.87925226227455L130.46020104166666,116.3158226393007L130.48313394097224,89.45952990600071L130.88937387152777,204.01846066411767L131.03263003472222,197.49184877236368L131.35756241319444,156.0542340160264L131.6804099826389,239.83680485101928L131.74414557291666,162.56554785616635L131.76261102430556,118.87428944366727L132.0690779513889,96.13146083876927L132.0830759548611,93.17622098195545L132.1548529513889,112.39373293440337L132.57389956597223,118.02648233724115L132.5864084201389,84.53454698913599L132.76719114583332,185.54929892351754L132.91789305555557,109.29969908618699L133.4253951388889,129.5086238016115L133.48079149305556,62.230468580526065L134.3483698784722,77.37059291944838L134.71618975694443,70.03144136678375L134.75877942708334,72.48975435968053L135.20552421875,55.50794888238144L135.3157212673611,99.46013858518837L135.6883064236111,85.06104344054796L135.8592607638889,64.90416556335154L136.42573315972223,64.51597893189478L136.5186560763889,211.66603012272552L136.55975659722222,133.74203708457796L136.72326519097223,101.94041780209885L136.90911102430556,63.2853475913892L137.59263055555556,65.43835525870534L137.73469539930556,38.464719451970595L137.8883756076389,46.88012670075754L137.98129852430557,43.1534190657759L138.5138183159722,46.400479317867045L138.84917473958333,77.03089901386588L139.53180078124998,-4.942368059609252L139.61608663194446,49.117120452263514L139.66582421875,53.492305893406225L139.7807865451389,50.98169036484603L139.9898631076389,83.63175522064364L140.27012100694444,78.7214566526235L140.3115193576389,81.69161962396247L140.59713819444445,77.23939690844027L140.67725442708334,45.29990297253235L140.68618932291665,110.20928497241212L140.88007656250002,95.35051441918125L140.98848663194445,132.92946478238613L141.0143978298611,146.0841349567175L141.38489817708333,120.38265841959391L141.5126671875,87.64693376007038L141.92992682291666,94.89116096193462L141.9600076388889,117.31471517554391L142.09313758680557,65.05274262189117L142.57443064236114,99.9541002727377L142.63012482638888,82.85578817717109L142.70934756944445,70.53186762794073L142.96667256944443,85.3471590850063L143.4566026909722,37.373500535197614L143.91585633680555,61.20912613556509L144.50377248263888,109.29421105977785L144.6777051215278,87.22535579907125L144.7262513888889,100.05145547421387L144.95826085069444,75.37448939732407L146.33214999999998,75.20406675857231L146.68358923611112,73.34639835072711L146.6865675347222,91.11313497849201L147.02192395833336,44.61597489557854L147.3137972222222,12.024192675495204L147.31528637152778,45.68633907653987L147.33673012152778,25.395812761674737L147.35757821180556,19.807668621474765L147.45407508680555,49.05880261369602L148.0285888888889,158.26645244792843L148.27251154513888,124.57021152864435L148.39789791666666,118.96831992907737L148.55902387152778,122.0167876113965L149.05788888888887,105.71560916209575L149.07546085069444,92.41493372643426L149.30538550347222,76.0640785698288L149.33278585069445,94.41792995737968L149.3929474826389,97.96547672590168L149.86917743055557,90.05519980888262L150.01660321180555,71.85856060749167L151.34522222222222,39.71695659064411L151.4780543402778,121.71679488341091L151.5048590277778,136.21872625498386L151.50783732638888,140.1892628297115L151.59569713541669,160.06759568492907L151.61594956597222,96.099343668788L151.82264348958336,50.29540072815322L152.16306302083333,20.61561113720794L152.5043760416667,120.87641482969971L152.87934383680556,61.66708478690784L153.38446328125,86.38784079929788L153.6760387152778,76.60220429192164L153.97952734375,67.66518161285572L154.24072413194443,36.54374529745102L154.32560564236113,57.778126109776245L154.66751432291665,78.16301481943297L155.5285404513889,67.7452641287883L155.54402760416664,65.49519361340913L155.63039826388888,71.9230956522568L155.73672352430555,47.91993692120304L155.79807647569447,62.68096623778579L155.99315503472224,38.851855348219985L156.02383151041667,51.03132784921341L156.51227248263888,39.13812717423794L156.58613428819444,97.78801488815955L156.68084418402776,60.31164323163648L156.85775512152776,42.07654307950561L157.11210182291666,85.84189764443273L157.64998255208334,95.77216593873261L157.70061362847224,72.69564459268037L158.10625789930555,49.649775850221054L158.4043855902778,39.77102046781724L158.88955043402777,48.55922870382038L159.03221093750003,45.92682737111398L159.04114583333333,23.628353492776288L160.0904004340278,59.99744196913227L160.15919913194443,8.788547870244463L160.21072369791668,73.51285625826145L160.22442387152776,59.10208097622562L160.31436848958333,50.48598452523809L160.62172890625,51.76269324653261L160.85552534722223,86.76921522853702L160.88828663194445,69.10600638964895L160.92998281250001,86.33363592319617L161.04851909722223,125.15785525962559L161.14263333333332,103.80649776077993L161.2087515625,71.3998884997498L161.41425416666667,108.71133028734295L161.49258342013889,102.97220658386526L161.60129131944444,85.43856687132477L161.7123818576389,68.50787693621005L161.9828113715278,39.99863652206233L162.46231744791666,15.320758265790332L162.68688116319444,46.4821657152559L162.69105078125,49.29001604929534L163.20153116319446,37.997624539009365L163.22982499999998,96.76264068264246L163.82071944444442,125.45173342691947L164.02383940972223,74.55032737923642L164.12807986111113,56.65688576080735L164.2052177951389,90.17702899822412L164.2165353298611,60.93046813603804L164.22487456597221,78.74591805466859L164.8241082465278,85.0233922217203L164.8485302951389,49.92132503960914L165.06773307291667,31.151754781830448L165.17435616319443,12.591612821140608L165.19043897569443,91.63736421728709L165.2100957465278,89.16973607080111L165.26698125,90.56109771495854L165.33548211805555,74.58670207913559L165.44478567708333,72.26480399024176L165.70300416666666,80.22029965626574L166.14706848958332,57.28855320355088L166.17029921875,58.59263894013312L166.21259105902777,68.16098576218933L166.2536915798611,21.646355093469158L166.25577638888888,36.59523991999029L166.32814904513887,46.16641553034945L166.35108194444445,52.32463159978183L166.90266284722222,55.34886852124483L166.93304149305555,96.86753465880624L167.17607065972223,99.38511735073351L167.4411392361111,65.83030906405658L167.82831805555554,79.32745244283716L167.88877751736112,86.20879821342318L168.45286727430556,35.235204570934464L168.49813741319446,46.099913449607016L168.57706232638887,55.258839613564405L169.35290911458335,55.887795957383425L169.5053980034722,20.01682709114262L169.6197646701389,29.169211965811026L169.64716501736112,70.0569415592134L169.8663677951389,39.692575632077876L169.96375815972223,118.89329005392933L170.03374817708334,88.7597408848665L170.07931614583333,104.9917197646568L170.2922644965278,56.92428595283123L170.3708915798611,66.82232914352603L170.63179053819445,28.606316257512603L170.64310807291668,25.873170235967454L170.80304270833332,218.13083297834476L171.71410425347224,248.88417403648248L171.73584583333334,150.77678738954364L171.9288395833333,112.2239945802633L171.9744075520833,133.14723172192674L172.02533645833333,102.029859984167L172.12093984375,134.97541635289647L172.3603950520833,88.97251580606995L172.5361146701389,74.06613980692194L172.58138480902778,265.49230409566775L173.11539374999998,232.14321003932648L173.39267335069445,158.51691262525205L173.70986215277776,96.69417546804425L173.71135130208333,147.889118403073L173.81112430555555,183.83759460821125L174.08214947916665,107.53471587664329L174.0955518229167,67.34167871270985L174.31803072916668,63.77330872868329L174.43180173611108,111.10586260665717L174.49375034722223,54.037156709758726L175.11353428819444,5.69838362477105L175.29163654513889,17.81270311364299L175.54092013888888,0.1558624066962242L175.57874453125,-4.3442557554971994L175.69608949652778,-10.681001761376027L175.7157462673611,31.671736988858168L176.59583350694444,84.1101689234535L176.64169930555556,53.41819281603403L177.01428446180554,84.96712356235795L177.26863116319444,53.54975082423925L177.67040364583335,211.89930572803075L178.32056623263887,172.20719634058685L178.46173758680555,104.59390516508098L178.5707433159722,67.38938493171241L178.83938585069444,45.928385171580295L178.98115286458332,33.53510101091689L179.45202187499999,51.001460284520334L179.6366763888889,115.38312279938678L180.03785321180555,93.23002559669952L180.14536979166667,62.737020851270486L180.24424930555557,64.10147963502503L180.27403229166666,127.1123646150521L180.45660199652778,138.4254191688809L180.6632959201389,71.08780666531891L181.46356475694446,56.7976276981611L182.83834739583332,11.670676432878135L182.86604557291668,6.624847038829021L182.93514210069446,18.952796310006526L183.14481432291666,50.85173234441111L183.1885953125,41.47079427571759L183.2258240451389,46.137426886693106L183.24577864583333,62.843979979162334L183.30474895833333,85.49710930210102L183.47957508680557,68.9967559690038L183.95699635416668,83.41032445031055L184.14075737847222,62.1704274131895L184.23129765625,49.60871492762159L184.64260069444447,67.29386702251797L185.05152109375,64.01948719555466L185.05896684027778,68.77557154388732L185.49260711805556,128.07661201022245L185.52030529513888,81.3931932406447L185.74784730902778,66.95996545187474L185.75648437499999,46.46356956457564L185.88693385416667,91.73517141084787L185.89020998263888,106.21667215973143L185.9009318576389,77.71035705872562L185.92714088541666,401.73099106850947L186.45191710069443,257.67534422946517L186.6005342013889,152.78812213420758L186.71668784722223,109.0955285443386L186.91861649305557,147.36994622809632L186.9463146701389,124.17322247531868L187.4127162326389,155.65138290924128L187.66944557291666,92.97395962402237L187.68403923611112,81.15531604353687L187.76832508680556,83.00556233335901L188.03905243055556,89.25773238642816L188.19392395833333,89.24640643192522L188.37440885416666,61.943988429158985L188.42772039930554,99.6213171164096L188.63262734375,50.104436946342766L189.39477395833336,40.38940132296813L189.4829315972222,-4.5393984865036385L189.50288619791667,1.0616106355203745L190.15930321180554,102.9953465429444L190.4079911458333,129.91838774053883L190.51401857638888,92.07338203227245L190.6221308159722,221.91795298922767L190.62570477430558,113.6414614136413L190.73947578124998,131.6280962888184L191.04356006944445,122.02346240228746L191.29641762152778,83.20492307392557L191.5242574652778,59.00878596984572L191.5653579861111,92.63972243802955L191.62254131944445,64.51867942620912L191.8432332465278,44.33599376825073L191.8631878472222,96.45416514311238L192.50084157986112,81.84917192869514L192.88236163194446,25.464073866792397L192.89308350694444,0.32884966633900325L193.1706609375,77.61217674142883L193.60549253472223,209.5403434351327L193.8759220486111,114.07189997688025L193.93638151041668,96.73823947863471L193.96705798611112,102.94645195588394L194.16422135416667,384.572025066741L194.96180972222223,276.72451356906265L195.0556261284722,168.3372385775199L195.34005364583334,92.6427373313181L195.53662135416664,152.66367126841976L195.90265425347224,122.21927474289373L196.17367942708333,137.2972712548438L196.23264973958334,111.29560496265508L196.80746137152778,79.01037220326499L197.00641171875,111.92334677839376L197.07163645833336,111.07168390463973L197.2241253472222,93.27908912421523L197.23335807291667,78.89273748741034L197.3953775173611,32.22453659090146L197.64019366319442,43.60040929666444L197.73341440972223,53.07048610598615L197.98150668402778,18.856535673823398L198.09795815972222,43.88321274234768L198.47679774305556,79.68988863059232L198.70672239583334,41.01983555539729L198.71714644097221,-13.753617045973028L198.76628836805554,37.63670627124541L199.12249288194445,77.71743070771575L199.24519878472222,44.213432626612125L199.2606859375,42.10996999759883L199.39947465277777,12.491468142711861L199.47006032986113,-7.024710211771124L199.5236697048611,30.00056022677686L199.6359515625,37.78771843639968L200.53748255208333,48.91110156850791L200.94550946180556,109.12108061294367L201.06106744791666,48.15609678647018L201.34638845486108,78.67861937784718L201.55963463541667,58.6231516525633L201.6251572048611,60.764934933620985L201.78122005208334,73.66821724722719L201.8038551215278,75.9366040154204L202.16393142361113,73.66643259288485L202.8635337673611,90.89501286364565L203.10328680555557,104.2466879026384L203.21527083333334,98.1261147623669L203.44013237847224,60.83150254823686L203.4714045138889,86.23252259087407L203.60751276041668,60.89494321688213L203.73587743055555,46.39241161963409L203.81897196180554,89.1699011354185L204.05544887152777,39.3311601699152L204.2353381076389,66.79166214698198L204.5805229166667,37.49712777103624L205.06955954861112,44.8029067102465L205.43380546875002,107.32786634302856L205.484734375,73.20125189591752L205.48592569444443,116.01116385831746L205.57855078125002,94.45401748826148L206.05835468749999,66.18618412500646L206.0607373263889,48.60188764471699L206.07235269097222,39.15971234469403L206.1444275173611,57.21928780854653L206.43451380208333,104.96261427261072L206.54232821180557,66.1222132748008L207.03553446180555,80.67630698985425L207.26575694444443,92.63656934270655L207.29226380208334,119.99220292885919L207.37625182291666,121.98403276330667L207.67229470486112,77.88970412047931L208.29773741319443,65.06872376287771L208.35045329861111,80.69438812804911L208.37755581597224,67.94229070782642L208.8245984375,25.246446867877673L209.20135321180555,26.079240553001878L209.3958361111111,65.76272708484386L209.40536666666665,62.79514127828718L209.73149036458335,34.32781873206576L210.20384852430556,43.9324065992307L210.4007140625,73.71187131859925L210.44717552083333,87.5210161024L210.69437430555556,72.97370390648366L210.85877638888888,94.69364720805231L210.91476840277778,70.28456006400218L211.0738095486111,39.01421315316542L211.09197717013888,76.0422406994679L211.4383532986111,92.85685509788534L211.77758151041667,32.68261065581874L211.85233680555555,106.35036132958467L211.90624401041669,93.84444667615473L212.04235225694444,67.50200774609924L212.1757800347222,111.70376970645442L212.3738368923611,74.29604133098952L212.67256024305556,99.28022188133865L213.62353098958334,39.067300978603996L214.22038203124998,52.68867553777769L214.63793949652776,43.426504936315816L214.91819739583335,41.997831929352074L215.09898012152777,14.847203128711113L215.16241788194444,32.746608880971415L215.17045928819445,62.601064152390315L215.44624973958335,74.03687732304095L215.7515253472222,20.839897490487637L215.84117213541668,5.353169559695943L215.9778760416667,45.95741256973121L216.1160690972222,55.19425834087389L216.19737664930554,35.98816514315736L216.3007236111111,65.95086571050118L216.35492864583333,64.74135550758878L216.89638333333332,51.61721351142259L217.01581310763888,16.290675910142774L217.07061380208333,18.782050498512927L217.1075447048611,2.7563614352217085L217.71720243055557,22.577677756224872L218.06745034722223,78.04074257105171L218.45016171875,64.06622739075823L218.5737611111111,73.38880009967156L218.59580052083334,62.37946699678832L218.64553810763888,62.062853292345594L219.18997109375,75.02097098897347L219.53426241319445,83.66131363108751L219.59353055555556,96.52022008882057L220.01615112847225,55.63991202259444L220.75238654513888,70.96772544968574L220.80659157986113,60.43896376776313L220.8330984375,88.80356416299331L220.95491085069446,58.158699777526344L220.98856562499998,71.2841908332884L221.11067586805558,105.88302335613956L221.2238512152778,80.09474480597208L221.40046432291666,127.93966707366616L221.4525845486111,87.48403604277536L221.59345807291666,73.74898916587732L221.62443237847222,70.1142805295427L221.7090160590278,41.665608879921834L221.72658802083333,91.14879204397735L221.9076685763889,88.0412496876818L222.12895616319443,72.8993650971387L222.32194991319446,72.85587041152539L222.35203072916667,80.62162911149765L222.84166302083335,83.8602342062549L222.8916984375,132.89306040019838L223.32027560763888,112.48981722459007L223.58653550347225,70.35682643701429L223.7408113715278,46.21281857368499L224.0183888020833,60.7336680389798L224.1941084201389,99.49802220122878L224.4892578125,101.80891358572002L224.50414930555556,99.2809595752279L224.60451796874997,87.50473806898009L224.74330668402777,57.78261637581605L224.93481128472223,90.98712784963597L225.64930512152776,87.11158779756333L225.70172317708332,82.51205448099547L226.08592369791666,84.42888068268206L226.29678723958332,72.86546603669068L226.36082065972224,55.817035645854894L226.74144722222223,50.54780656298382L226.76348663194443,42.76447609782448L226.78761085069445,72.18859684734049L227.25460807291665,28.617976279125177L227.32876770833334,19.910917694011673L227.44432569444444,15.2035933451779L227.47113038194442,6.49637596220426L227.5741795138889,38.13710485399703L227.92234262152778,20.42348779955254L228.25948602430557,19.607001189159377L228.5614855034722,36.202680633904585L228.7520966145833,49.64653181357073L229.06809409722223,78.73736851462006L229.22117864583333,41.372142886861404L229.45854904513888,48.11404121372844L229.77127039930556,-10.702197741925087L230.03604114583334,-12.376659926047708L230.22129131944445,46.631545919777125L230.50006006944446,51.068606804967644L230.5825589409722,60.68439888481486L230.93101987847223,66.01423600845234L231.1526052951389,96.85718320004487L231.1689859375,72.49680558991206L231.2249779513889,49.53379474643658L231.52757309027777,57.80599292852755L231.54008194444447,35.83758556632618L231.77894149305556,19.25854782281824L231.94274791666666,16.258554519416858L232.37251640624999,20.76707566289586L232.88180546875,92.84243458053919L232.98813072916667,91.8015084326029L233.47478472222224,109.04548973092903L233.77499722222223,104.90758049745135L233.7803581597222,78.16401750545421L234.07342274305554,85.2132247088757L234.55352447916667,81.08511453532346L235.0157564236111,100.15857242145043L235.04226328125,103.50078451664714L235.20547404513889,120.66733565132519L235.2858881076389,94.7673504191137" style="fill: none;" fill="none"></path></g></g></g></g><g opacity="0.2"><g><g><g><path stroke="rgb(255, 112, 67)" stroke-width="2px" d="M30.12042734375,14.805837750434895L30.361073871527775,-107.38938110524956L31.01064079861111,-102.25675697760146L31.360293055555555,114.95943247188224L31.40764800347222,26.773792440241046L31.520227690972224,102.04123249379074L31.569369618055553,19.85297792608089L31.586048090277778,68.83134534684098L31.653357638888888,-66.74338759075509L31.66973828125,40.12346674366432L31.78767890625,169.5349942445755L31.8654125,93.98414223302497L32.00628602430555,69.8501993471926L32.25259131944444,379.72213554382324L32.538805815972225,-117.12329188260162L32.675807552083334,102.97730238871142L32.74639322916667,25.517941783775L32.755328125,-112.53313071077515L32.818468055555556,46.789841099218904L32.894116840277775,92.01038175279444L32.9536828125,6.608048558235188L33.0662625,274.6498615524986L33.303335069444444,39.72079877419907L33.36528368055556,259.1297431859103L33.46267404513889,105.2573539885608L33.49900928819444,145.94762882319364L33.626778298611114,-60.17226794632996L33.74561241319444,96.75424236059189L33.81053932291667,302.51716954057866L34.145002256944444,143.67804092710668L34.62033871527778,90.21290015361528L34.806482378472225,94.65617864240302L34.81154548611111,69.2401503121311L35.28747760416667,66.4617384455421L35.50429774305555,141.5361082987352L35.53705902777777,161.70868092233485L35.5912640625,-29.305770895697812L35.990356076388885,-27.087465698068762L36.38378932291667,118.56794285774231L36.544617447916664,56.194239918481244L37.15695564236111,90.79518704522742L37.21056501736111,2.6098299459977707L37.361266927083335,46.25475356795573L37.91642178819444,18.07529440251266L38.090950086805556,-19.16800527139143L38.512677170138886,67.03197253630921L38.56628654513889,-10.045180548321099L38.58862378472222,-8.452314230528719L38.609769704861115,13.738271420652245L38.621980729166665,58.82573493434626L38.80752873263889,28.376264073632004L39.13811987847222,131.00640935247594L39.85082673611111,-5.606484125960936L40.19273541666667,-18.289054155349692L40.34939392361111,72.06064477833836L40.37143333333333,125.22938507795334L40.41700130208333,117.2180051857775L40.711852864583335,47.12986231798477L40.770525347222225,74.79849540645426L40.80179748263888,135.57705298337072L40.82234774305555,227.23276792873037L41.00372612847222,5.062038725072716L41.02606336805555,70.26144400509922L41.21607881944445,22.8636089671742L41.35069791666667,-2.9376498244025133L41.40609427083333,-69.5331778959794L41.61070338541666,51.246518116105705L41.85730651041666,109.44884900613266L41.88023940972222,59.88496974381535L41.97703411458333,-12.50922453403469L42.135181770833334,163.70673043077642L42.295712065972225,-14.215450839562818L42.331153819444445,122.27624206651343L42.658766666666665,27.773632423444255L42.963744444444444,112.90086420015857L42.97208368055555,107.41147668795153L42.991740451388885,37.876688474958605L43.10521362847222,94.52474215084857L43.74852612847222,572.0208799188787L43.800050694444444,201.74624506993726L43.80600729166667,50.4719906395132L43.83430112847222,81.53905679827388L43.87182769097222,57.47985722260042L43.96743107638889,63.475664978677585L44.15268125,18.658691444180253L44.4260890625,80.15253812345593L44.47046571180555,40.423789907585515L44.60091519097222,43.66037364981393L44.88236440972222,-24.593056830492863L45.261799652777775,89.2456933070313L45.27430850694444,-18.055150573903852L45.348765972222225,273.6635303930803L45.389270833333335,28.79949499531227L45.592688628472224,53.00379933552311L45.87830746527778,41.45260888338091L46.09423411458333,59.04333693330939L46.208005121527776,23.14974954453384L46.31254340277778,77.77164749394765L46.35126128472222,12.221609830856343L46.377768142361106,107.0347929434343L46.45639522569444,146.51034782149574L46.60501232638889,142.76805835962296L46.73933359375,148.5791400237517L47.04073741319445,32.36281771822411L47.31503871527778,58.93307901173832L47.73646796875,-63.50975785472173L47.781440277777776,81.3115911280567L47.93839661458333,-14.652557438070113L48.17189522569445,7.209337478334282L48.73181536458333,85.23306192593142L49.120781163194444,6.649044985120977L49.26641996527778,77.57727052948694L49.357258072916665,-40.27579899267714L49.397762934027774,202.9757446484132L49.42010017361112,26.842492266134794L49.527021093749994,79.9104702635245L49.637813802083336,19.369393684647324L49.642579079861115,1.4041686220602823L49.98627473958334,-73.52225635268468L50.00533585069444,119.05216489596802L50.091706510416664,86.99657005613501L50.21054062499999,98.37241434509104L50.22007118055556,248.75488979166204L50.28172196180556,-48.95284691723908L50.35320112847222,113.04608045924796L50.47054609375,47.5227391475981L50.738592968750005,178.09682633660057L50.806498177083334,79.84872146357192L51.65978072916666,125.10489961234009L52.04785303819445,69.81389768015256L52.268544965277776,-2.6224727088754722L52.28879739583333,22.715601747686243L52.71975720486111,165.40691445090553L52.99912161458333,176.32706971602008L53.04051996527778,-0.3921884406696452L53.082216145833335,-11.703313139351916L53.32971276041667,35.762166722254335L53.38034383680555,106.94200070337817L54.122238020833336,-68.91918579014862L54.34888654513889,69.69337566603316L54.772400607638886,81.66054629737681L54.884682465277784,-38.43589431589299L55.27900920138889,-54.81778644431719L55.46277022569445,69.39308607036418L55.51637960069444,-54.475984909317674L55.522038368055554,87.98314578424802L55.59262404513889,303.66265257922083L55.66291189236111,-24.60228330438786L55.96520920138889,131.7765993313356L56.24010616319445,-3.329933215271325L56.514407465277785,9.365833932703222L56.60107595486111,39.260016966949834L56.63919817708334,209.31811104037544L56.83278758680555,145.7840075709603L57.01088984375,23.66337737170135L57.258982118055556,70.77266091243789L57.262853906249994,19.216773228211864L57.40730138888889,30.027608684518135L57.78316267361111,-3.8910888921130606L59.803342621527776,230.64713872562754L59.95791631944444,27.81123845685614L60.209880381944444,48.858326391740306L60.21136953125,139.3668798858469L60.40198064236111,11.172232698310523L60.73286961805556,36.91157245094127L60.85885164930556,379.63865609602493L60.88059322916667,249.53070005503565L60.89518689236111,71.23019499128516L61.07835225694445,239.18143525990575L61.62159392361111,69.48574703457682L61.641250694444444,127.2148512872783L61.68562734375,-3.234896697781267L61.837222743055555,80.20858511599629L61.90959539930556,162.4491006569429L62.51895529513889,285.7765670689669L62.55231223958334,90.63901314952157L62.9213234375,43.454633831977866L62.93561927083333,194.31428198380902L64.14153237847222,18.422836108641203L64.16089131944445,1.1648317792199037L64.37890277777778,91.7851459736174L64.40719661458333,42.46756896647541L64.5084587673611,35.597826150330654L65.09845972222223,99.35153792121194L65.23248315972222,62.06493040648376L65.28549687499999,149.26229232007807L65.3763349826389,70.48233749107882L65.81891015625,204.0139531439001L66.50034487847222,80.25827572020619L66.55157161458334,103.53845327008857L67.03703428819445,4.871663575822685L67.15020963541667,88.01430671323432L67.78965034722222,-79.78213116255672L68.28821753472222,77.26492513580757L68.29417413194444,-46.19158003546971L68.79959140625,57.230181358077324L68.86124218750001,-0.5425646196711968L69.09801692708332,151.30757715485313L69.29130850694445,90.44359556924215L69.44796701388888,8.01104325056078L69.99180434027778,77.44577649235727L70.02069383680555,19.095165041360012L70.0406484375,61.28964284875178L70.10438402777777,32.25927404652944L70.87576336805556,147.40019423311406L70.94605121527778,-15.761901855468711L71.42883342013889,40.81368275935001L71.55034800347222,-2.7778745347803184L71.58132230902778,-45.107373443516806L71.87081293402778,76.56857811862773L72.21123246527777,71.7003998864781L72.89624114583333,-24.27488734505389L73.19913411458333,29.030082512985597L73.23070407986111,163.75969154184514L73.51483376736111,21.75500784678894L73.52764045138889,152.81013048778883L74.43512803819445,81.64508212290029L74.72968177083334,28.523978769779227L75.11060616319445,64.86097159981729L75.14575008680556,44.27011937173931L75.42898628472223,-18.04344004934483L75.80544322916666,63.601414049213595L75.93231875,91.59859520738777L76.43297074652777,165.64840445735237L76.76802934027776,0.7652544866908895L77.2299634548611,-51.2356798865578L77.3851328125,135.22899816252968L77.45839895833333,2.7788796641610047L77.58408315972223,107.52629449692643L77.65109487847222,246.29872954975474L77.99985364583333,-101.51252005316991L78.00789505208334,71.02160546860914L78.32180772569444,-51.27814852107653L78.76497855902777,140.8768374161287L78.92163706597222,40.067340625958025L79.09467621527777,90.27681650356814L79.50568142361111,-21.838292598724326L79.63464175347222,-2.5243143439292517L79.98340052083334,5.538640770045208L80.00514210069444,-23.567182269963336L80.49417873263889,129.29275487227875L80.52604652777778,-85.9141588861292L80.56208394097222,66.24731643904342L81.54432682291667,0.8000311959873725L81.69860269097222,14.808192323554664L81.73195963541667,144.1773638833653L81.88325720486111,98.09902490810916L81.91125321180556,18.731640051711707L82.18734149305556,46.25107304887341L82.23588776041666,183.19871153614739L82.7889578125,106.6071142283353L82.87115885416667,32.089787941087394L82.96974053819444,125.06601798534393L82.97271883680556,7.146742278879369L83.12490989583334,-5.422295126047977L83.17047786458333,19.760104163126524L83.24523315972223,60.529529339887894L83.29377942708332,159.55410744927147L83.40248732638888,171.34028525785968L83.77894427083334,146.16942865198308L83.83285147569444,372.7675609588623L83.90165017361112,72.91239242255689L83.91445685763888,145.08536592396825L85.03072317708335,-59.88019537925716L85.12126345486112,82.34576783667913L85.19929487847222,-39.38904086026276L85.3785884548611,53.686390562491L85.4235607638889,120.52435814250602L85.49265729166666,247.15510361844844L86.0376859375,34.33694505149669L86.06061883680556,-13.470139731060357L86.2414015625,84.7950345982205L86.65210894097223,18.597352656451154L86.80161953125,160.48653758655897L86.92938854166667,122.5580523393371L87.11493654513889,86.36879338730468L87.30614331597222,131.62141809680244L87.39549227430555,65.3882736942985L87.62869305555556,58.8397454836152L87.83836527777777,78.52974331108007L87.91788585069443,7.619512747634559L88.53201102430556,-19.75954501195387L88.85426293402777,4.35846734046938L88.93289001736112,-7.843347771601236L89.12647942708332,49.62693866274575L89.22029583333334,201.49713986570185L89.24799401041668,-30.869629448110395L89.25127013888888,18.915124118328116L89.27360737847224,-42.91880971735173L89.42818107638888,-16.352338639172626L89.50651032986111,78.56368800726804L89.71648038194445,189.69742925600573L89.92406779513888,70.57578191432087L90.14982282986111,-6.1799449649723845L90.7636501736111,109.80575145916507L91.19818394097221,46.79766370085155L91.34382274305555,-20.448001092130475L91.47129392361111,216.35148469968274L91.54396440972222,3.0044391371987245L91.88676657986112,-88.17859645323317L92.1119259548611,41.68910681117667L92.48153281249999,11.790967518633073L92.51637890625,13.134023698893476L92.58428411458334,111.59298754822126L92.67154826388888,221.99807713248512L92.99826762152779,290.93706243688405L93.07600121527777,130.67319169911474L93.09863628472222,112.51864648949018L93.35893958333334,-9.093803530389602L93.37412890625,-1.6703907576474026L93.38336163194444,124.90994958985938L93.59690564236111,196.49907647479665L93.61388194444446,67.5256782052192L93.70710269097223,117.56657312133096L93.84470008680556,34.16344993764705L93.85810243055556,24.830137886784318L94.15563446180556,117.9663614143025L94.44720989583334,89.79924097928135L94.48384296875001,138.36344809965655L94.49694748263889,76.62042668190873L94.5746810763889,42.27274362607437L94.6181642361111,86.66995335979897L94.9797296875,74.24060783873907L95.12090104166667,93.87643609805542L95.1247728298611,107.92391523989765L95.18523229166667,-0.6777487668123969L95.30108810763889,185.71175557916814L95.30257725694445,43.89045045050709L95.47234027777777,93.1451133597981L95.84909505208333,0.5849210403182522L95.98818159722222,91.8422815366225L96.07157395833333,-18.453807137229223L96.17045347222222,22.54415429722181L96.57907604166667,133.98861767487094L96.71667343749999,45.48690137808974L97.07585625,20.281476665626894L97.4004907986111,114.57930558378047L97.52915329861112,98.33116375858134L97.79094574652777,-9.621875296939482L98.06673619791667,158.991091132164L98.29546953124999,96.285677514293L98.41817543402777,99.12040611830628L98.68741362847223,143.48137892376295L98.72910980902778,145.82415520061147L98.9632040798611,298.7132343812422L99.13266927083333,136.88998405499893L99.22469869791666,-41.61072206497188L99.48738463541667,53.5353969674219L99.75185755208334,121.20124756206168L100.00948038194444,-40.796480948274755L100.01930876736111,27.255014915357958L100.04313515625,-18.719849922440233L100.32190390625,8.635829947211542L100.59203559027777,-14.21356142650949L100.61437282986111,106.18314240737396L100.70014782986112,112.4149014082822L100.75703333333334,245.59266452355817L100.76269210069444,14.20641426606613L100.76864869791666,69.09844673086299L100.79753819444444,45.00030078942127L101.28121388888889,123.33410237594086L101.60376362847222,134.24983622269198L101.68119939236112,222.8739111965353L101.82773168402778,7.624907645312237L101.84083619791666,89.30679232153027L101.97009435763889,143.8233626864173L102.15594019097223,81.0643249844963L102.18006440972222,-34.56394028663631L102.22741935763888,133.55315592072228L102.35250789930555,441.41728383844554L102.62919184027777,29.10206723213198L102.71794513888888,254.16613041270864L102.81593116319445,49.955344067378505L102.81742031249999,64.5240206772631L102.90408880208334,78.0518836555156L103.01428585069445,50.096112533049165L103.13192864583334,55.34269308434292L103.32253975694445,25.255730574781275L103.54055121527777,77.09384333951908L103.89109696180556,54.77214129404591L104.02571605902777,59.97461136362771L104.07158185763889,-4.647002772851391L104.13948706597222,181.57022930275312L104.49211762152778,104.24186160889542L104.75569704861111,285.2991306131536L105.06275963541667,12.472422220490218L105.42194244791668,127.49817213145172L105.64888880208333,12.356122612953206L105.67152387152778,419.39217528429896L105.79006015625001,39.76409222862939L106.12362960069444,55.40925713018938L106.29220130208334,-11.66741429133848L106.43724444444445,40.29971924966033L106.58556371527777,85.5410050831058L106.7309046875,49.63492910563948L107.16871458333334,143.20041265270928L107.26521145833333,273.5549994381991L107.45016380208334,13.65640324896035L107.50913411458333,17.840350205248065L107.91060876736111,58.45150466940621L107.94039175347223,30.948891764337397L107.94902881944445,106.41501750729303L107.99161848958333,-8.0255322673104L108.09228498263889,61.81352937356993L108.28349175347222,79.10389949245888L108.45444609375001,-48.30180505189026L108.75614774305556,84.76635771989824L109.12664809027778,-4.130775803869392L109.23624947916666,11.921154791658585L109.29164583333333,-0.9036535133014811L109.373846875,140.53191403367302L109.38397309027778,74.51357767256825L109.66720928819446,63.80158513378015L109.69520529513889,62.39210817217829L110.43650381944444,49.63952555846086L110.57737734375,61.68786062706603L111.12955390625001,25.224670350551627L111.153678125,64.68297953903677L111.26059904513889,9.22311131520706L111.71836354166668,49.38772410425274L111.81754088541668,32.54511490735142L112.17970199652777,49.37313270433384L112.19757178819445,80.5562562996691L112.23956579861111,119.86843928965656L112.30449270833333,183.2653397213329L112.62644678819444,102.9225405806845L113.01809305555555,4.65663014758719L113.03983463541667,164.25291466712952L113.25873958333332,-12.198588723486091L113.31085980902778,60.508007294752396L113.362384375,-0.6619285290891188L113.82580763888889,236.2882163741372L113.99914461805555,123.99528664892371L114.09861979166668,154.5207110751759L114.21953871527778,66.08371316980234L114.4720984375,-45.5831698504361L114.86344687500001,120.33166198838843L115.39686015625,96.18442607467826L115.84092447916666,6.170750141143818L116.20159644097222,152.22535235231572L116.35557447916666,101.35868442600425L116.65906310763889,131.5329897295345L116.67961336805556,-48.665272495963315L117.36372855902778,171.8919842785055L117.68895876736111,14.02695359425114L119.14653810763889,263.426287651062L119.18853211805556,66.58931698582391L119.2918790798611,27.90375255996532L119.41130885416666,34.83947617357428L119.57154131944445,69.97025979784405L119.73207161458333,56.11192157254978L119.8220162326389,-14.227832729166176L119.90511076388889,6.6824358051473745L120.71014487847224,-40.25947523117061L120.77298697916667,21.21859676729551L120.92904982638889,-16.26876328208226L120.94662178819443,44.34423207830301L121.21198819444444,112.68696729703385L121.23402760416667,103.98442428491335L121.30908072916667,72.96031529862775L121.46931319444444,128.01472998749128L121.51011588541667,69.87243651598693L121.9315451388889,118.49479284069757L121.93839522569445,142.78350934657186L122.01791579861111,-84.31408498503941L122.13734557291666,-17.106770721348834L122.29817369791667,30.048694342374823L122.41968828125,181.85594308376312L122.80359097222222,108.42119053277104L123.11363185763888,-2.358261791142536L123.33700425347222,109.51361175558786L123.51480868055556,19.404266303235865L123.82842352430556,102.56539116122507L124.00831276041666,59.29557597366249L124.01546067708333,-67.30154130675572L124.47292734375,-82.54054953835222L124.48484053819445,86.63386029546912L124.76390711805556,48.549407357519335L124.83747109375,58.36989425393669L124.89108046875,274.90171935341573L125.04208020833333,-17.029170513153037L125.10879409722223,36.34952961314811L125.44534184027778,77.41124435175551L125.6761599826389,82.60845979099925L125.76491328125,91.64246411757037L125.85396440972222,-32.506820245222606L126.05410607638889,70.90582257238304L126.18842734375,78.86215172978966L126.24888680555556,-61.498587955128045L126.60866527777779,84.27436942674899L126.72154279513889,-15.502476811408958L126.83114418402778,-66.27927293560717L126.97708081597222,37.091771624305046L127.20372934027779,107.04237457297067L127.28027161458334,39.712807132439195L127.558146875,101.13265020197089L127.70199869791666,61.94378258423372L127.70765746527778,-63.44540271975774L127.72344244791667,41.71365479447627L127.76096901041666,175.8362730958245L127.91911666666667,-96.50709082863543L128.16750677083334,26.0110162496567L128.32565442708335,55.73897409439089L129.24833133680556,232.4228225404566L129.2650098090278,10.020803283561378L129.62866006944444,59.786157996817074L129.95091197916668,202.46996699679983L130.29847942708332,44.21270567178728L130.36817161458333,216.64626190879127L130.46020104166666,79.47067820483988L130.48313394097224,49.17509080605076L130.88937387152777,375.85685680129313L131.03263003472222,187.70193093473262L131.35756241319444,93.89781188152055L131.6804099826389,365.5106611035087L131.74414557291666,46.658662363886855L131.76261102430556,53.33740182491867L132.0690779513889,62.017217931422344L132.0830759548611,88.74336119673471L132.1548529513889,141.22000086307526L132.57389956597223,126.4756064414978L132.5864084201389,34.29664396697826L132.76719114583332,337.0714268250899L132.91789305555557,-5.074700669808789L133.4253951388889,159.82201087474823L133.48079149305556,-38.686764251102076L134.3483698784722,100.08077942783183L134.71618975694443,59.022714037786855L134.75877942708334,76.17722384902565L135.20552421875,30.03524066643284L135.3157212673611,165.38842313939875L135.6883064236111,63.46240072358741L135.8592607638889,34.66884874755687L136.42573315972223,63.933698984709665L136.5186560763889,432.39110690897166L136.55975659722222,16.85604752735661L136.72326519097223,54.23798887838019L136.90911102430556,5.302742275324749L137.59263055555556,68.66786675967955L137.73469539930556,-1.9957342581315403L137.8883756076389,59.50323757393795L137.98129852430557,37.56335761330346L138.5138183159722,51.27106969600375L138.84917473958333,122.97652855786411L139.53180078124998,-127.90226866982195L139.61608663194446,130.20635322007269L139.66582421875,60.055084055120304L139.7807865451389,47.21576707200573L139.9898631076389,132.6068525043401L140.27012100694444,71.3560088005933L140.3115193576389,86.14686408097094L140.59713819444445,70.56106283515693L140.67725442708334,-2.6093379313295433L140.68618932291665,207.5733579722318L140.88007656250002,73.06235858933493L140.98848663194445,189.29789032719353L141.0143978298611,165.81614021821457L141.38489817708333,81.83044361390853L141.5126671875,38.54334677078509L141.92992682291666,105.75750176473099L141.9600076388889,150.95004649595782L142.09313758680557,-13.340216208587975L142.57443064236114,152.3061367490075L142.63012482638888,57.20832003382122L142.70934756944445,52.04598680409519L142.96667256944443,107.57009627060458L143.4566026909722,-34.586987289515385L143.91585633680555,96.96256453611635L144.50377248263888,181.42183844609693L144.6777051215278,54.12207290801136L144.7262513888889,119.29060498692773L144.95826085069444,38.35904028198937L146.33214999999998,74.94843280044472L146.68358923611112,70.55989573895933L146.6865675347222,117.76323992013931L147.02192395833336,-25.129765228791637L147.3137972222222,-36.86348065462978L147.31528637152778,96.17955867810684L147.33673012152778,-5.039976710622932L147.35757821180556,11.425452411174794L147.45407508680555,92.9355036020279L148.0285888888889,322.077927199277L148.27251154513888,74.02585014971821L148.39789791666666,110.5654825297269L148.55902387152778,126.58948913487522L149.05788888888887,81.26384148814464L149.07546085069444,72.46392057294196L149.30538550347222,51.537795834920644L149.33278585069445,121.948707038706L149.3929474826389,103.28679687868467L149.86917743055557,78.18978443335405L150.01660321180555,44.5636018054052L151.34522222222222,-8.495449434627165L151.4780543402778,244.71655232256109L151.5048590277778,157.97162331234327L151.50783732638888,146.14506769180298L151.59569713541669,189.88509496775538L151.61594956597222,0.14696564457634886L151.82264348958336,-18.4105136827989L152.87934383680556,-27.146910277279925L153.38446328125,123.46897481788291L153.6760387152778,61.92374953085727L153.97952734375,54.25964759425686L154.24072413194443,-10.138409175656022L154.32560564236113,89.62969732826409L154.66751432291665,108.74034788391809L155.5285404513889,52.11863809282131L155.54402760416664,62.120087840340375L155.63039826388888,81.5649487105283L155.73672352430555,11.915198824622431L155.79807647569447,84.82251021265985L155.99315503472224,3.1081890138713044L156.02383151041667,69.30053660070355L156.51227248263888,21.298326161774746L156.58613428819444,185.76284645904195L156.68084418402776,4.097085746851849L156.85775512152776,14.723892851309355L157.11210182291666,151.48992949182337L157.64998255208334,110.66756838018244L157.70061362847224,38.080862573602L158.10625789930555,15.080972736532066L158.4043855902778,24.952887394211533L158.88955043402777,61.74154105782511L159.03221093750003,41.978225372054375L159.04114583333333,-9.819357324730248L160.0904004340278,114.55107468366623L160.15919913194443,-68.02479327808724L160.21072369791668,170.59931884028694L160.22442387152776,37.48591805317187L160.31436848958333,37.56183984875681L160.62172890625,53.677756328474416L160.85552534722223,139.27899820154363L160.88828663194445,42.61119313131681L160.92998281250001,112.175080223517L161.04851909722223,183.39418426426977L161.14263333333332,71.77946151251143L161.2087515625,22.789974608204606L161.41425416666667,164.67849296873266L161.49258342013889,94.36352102864875L161.60129131944444,59.138107302514L161.7123818576389,43.111842033537975L161.9828113715278,-2.7652240991592016L162.46231744791666,-21.696059118617644L162.68688116319444,93.22427688945426L162.69105078125,53.50179155035454L163.20153116319446,21.059037273580408L163.22982499999998,184.9101648980921L163.82071944444442,168.48537254333496L164.02383940972223,-1.801781692288103L164.12807986111113,29.816723333163722L164.2052177951389,140.45724385434931L164.2165353298611,17.060626842758897L164.22487456597221,105.46909293261444L164.8241082465278,94.43960347229785L164.8485302951389,-2.7317757335575896L165.06773307291667,2.9973993951624376L165.17435616319443,-15.248600119894173L165.19043897569443,210.20599131150678L165.2100957465278,85.46829385107215L165.26698125,92.64814018119468L165.33548211805555,50.62510862540117L165.44478567708333,68.781956856901L165.70300416666666,92.15354315530172L166.14706848958332,22.890933524478584L166.17029921875,60.54876754500651L166.21259105902777,82.5135059952736L166.2536915798611,-48.12559090961108L166.25577638888888,59.01856715977194L166.32814904513887,60.52317894588819L166.35108194444445,61.56195570393044L166.90266284722222,59.88522390343928L166.93304149305555,159.14553386514837L167.17607065972223,103.16149138862437L167.4411392361111,15.4980966340412L167.82831805555554,99.57316751100801L167.88877751736112,96.53081686930224L168.45286727430556,-41.22518589279864L168.49813741319446,62.396976767615854L168.57706232638887,68.99722885950047L169.35290911458335,56.831230473112L169.5053980034722,-33.78962620821865L169.6197646701389,42.89778927781367L169.64716501736112,131.38853594931692L169.8663677951389,-5.853973258625359L169.96375815972223,237.69436168670654L170.03374817708334,43.55941713127224L170.07931614583333,129.33968808434227L170.2922644965278,-15.17686476490714L170.3708915798611,81.66939392956822L170.63179053819445,-28.717703071507525L170.64310807291668,21.773451203649707L170.80304270833332,506.5173270919106L171.71410425347224,295.0141856236891L171.73584583333334,3.61570741913537L171.9288395833333,54.39480536634273L171.9744075520833,164.5320874344219L172.02533645833333,55.35380237752742L172.12093984375,184.3937509059906L172.3603950520833,19.968164985830164L172.5361146701389,51.70657580819999L172.58138480902778,552.6315505287864L173.11539374999998,182.11956895481458L173.39267335069445,48.07746650414036L173.70986215277776,3.960069732232554L173.71135130208333,224.6815328056162L174.08214947916665,-6.919602220708663L174.0955518229167,7.052122966809733L174.31803072916668,58.42075375264342L174.43180173611108,182.104693423618L175.11353428819444,-66.80977600271049L175.29163654513889,35.9841823469509L175.54092013888888,-26.329398653723935L175.69608949652778,-20.18612077019431L175.7157462673611,95.20084511420946L176.59583350694444,162.76781682534653L176.64169930555556,7.380228654904826L177.01428446180554,132.29051968184388L177.26863116319444,6.423691717061154L177.67040364583335,449.42363808371806L178.32056623263887,112.66903225942093L178.46173758680555,3.1739684018222016L178.5707433159722,11.582604581659501L178.83938585069444,13.73688553138214L178.98115286458332,14.945174769921763L179.45202187499999,77.20099919492549L179.6366763888889,211.95561657168648L180.03785321180555,60.00037979266862L180.14536979166667,16.997513733126915L180.24424930555557,66.14816781065683L180.27403229166666,221.62869208509272L180.45660199652778,155.39500099962407L180.6632959201389,-29.918612090024066L181.46356475694446,35.3623592474244L182.83834739583332,-56.01975046504626L182.86604557291668,-0.9438970522446994L182.93514210069446,37.444720216772794L183.14481432291666,98.70013639601795L183.1885953125,27.399387172677315L183.2258240451389,53.13737580315636L183.24577864583333,87.90380961786619L183.30474895833333,119.4768032865091L183.47957508680557,44.24622596935795L183.95699635416668,105.0306771722707L184.14075737847222,30.31058185750789L184.23129765625,30.766146199269755L184.64260069444447,93.82159516486256L185.05152109375,59.10791745510971L185.05896684027778,75.90969806638634L185.49260711805556,217.0281727097251L185.52030529513888,11.368065086278074L185.74784730902778,45.310123768719784L185.75648437499999,15.71897573362699L185.88693385416667,159.64257418025625L185.89020998263888,127.9389232830568L185.9009318576389,34.95088440721686L185.92714088541666,887.7619420831853L186.45191710069443,41.59187397089874L186.6005342013889,-4.542711008678765L186.71668784722223,43.55663815953517L186.91861649305557,204.78157275373286L186.9463146701389,89.37813684615223L187.4127162326389,202.86862356012517L187.66944557291666,-1.0421753038059367L187.68403923611112,63.42735067280857L187.76832508680556,85.78093176809224L188.03905243055556,98.63598746603186L188.19392395833333,89.22941750017083L188.37440885416666,20.990361425009656L188.42772039930554,156.13731014728546L188.63262734375,-24.170883308757414L189.39477395833336,25.816847887906185L189.4829315972222,-71.93259820071133L189.50288619791667,9.463124318556364L190.15930321180554,255.89595040408045L190.4079911458333,170.30294953693044L190.51401857638888,35.305873469872935L190.6221308159722,416.68480942466044L190.62570477430558,-48.773275949738206L190.73947578124998,158.60804860158402L191.04356006944445,107.61651157249106L191.29641762152778,24.977114081382773L191.5242574652778,22.714580313725932L191.5653579861111,143.08612714030525L191.62254131944445,22.3371149084785L191.8432332465278,14.061965281313126L191.8631878472222,174.63142220540482L192.50084157986112,59.94168210706929L192.88236163194446,-59.11357322606171L193.8759220486111,-29.130765210498442L193.93638151041668,70.7377487312664L193.96705798611112,112.25877067175782L194.16422135416667,807.0103847330266L194.96180972222223,114.95324632254517L195.0556261284722,5.7563260902058175L195.34005364583334,-20.899014537984662L195.53662135416664,242.69507217407227L195.90265425347224,76.55267995460468L196.17367942708333,159.9142660227689L196.23264973958334,72.293105524372L196.80746137152778,30.58252306417988L197.00641171875,161.29280864108694L197.07163645833336,109.79418959400873L197.2241253472222,66.59019695357844L197.23335807291667,57.313210032202996L197.3953775173611,-37.77776475386183L197.64019366319442,60.664218355308904L197.73341440972223,67.27560131996871L197.98150668402778,-32.46438997442069L198.09795815972222,81.42322834513406L198.47679774305556,133.3999024629593L198.70672239583334,-16.98524405739524L198.71714644097221,-95.91379594802852L198.76628836805554,114.7221912470731L199.12249288194445,137.83851736242121L199.24519878472222,-6.0425644950433135L199.2606859375,38.95477605407889L199.39947465277777,-31.936284639618577L199.47006032986113,-36.29897774349557L199.5236697048611,85.53846588459882L199.6359515625,49.46845575083388L200.53748255208333,65.59617626667024L200.94550946180556,199.43604917959735L201.06106744791666,-43.2913789532401L201.34638845486108,124.46240326491272L201.55963463541667,28.53995006463746L201.6251572048611,63.977609855207554L201.78122005208334,93.02314071763648L201.8038551215278,79.33918416771023L202.16393142361113,70.26117545908149L202.8635337673611,116.73788326978683L203.10328680555557,124.27420046112756L203.21527083333334,88.94525505195966L203.44013237847224,4.8895842270417775L203.4714045138889,124.3340526548299L203.60751276041668,22.888574155894208L203.73587743055555,24.63861422376202L203.81897196180554,153.33613540909508L204.05544887152777,-35.426951278339715L204.2353381076389,107.98241511258213L204.5805229166667,-6.444673792882367L205.06955954861112,55.76157511906191L205.43380546875002,201.11530579220167L205.484734375,22.011330225250962L205.48592569444443,180.22603180191734L205.57855078125002,62.11829793317753L206.05835468749999,23.784434080123923L206.0607373263889,22.225442924282792L206.07235269097222,24.996449394659574L206.1444275173611,84.30865100432528L206.43451380208333,176.57760396870702L206.54232821180557,7.861611778085912L207.03553446180555,102.50744756243448L207.26575694444443,110.57696287198502L207.29226380208334,161.02565330808812L207.37625182291666,124.9717775149779L207.67229470486112,11.748211156238227L208.29773741319443,45.8372532264753L208.35045329861111,104.13288467580622L208.37755581597224,48.814144577492385L208.8245984375,-38.797318892045425L209.20135321180555,27.328431080688148L209.3958361111111,125.28795688260688L209.40536666666665,58.343762568452156L209.73149036458335,-8.37316508726637L210.20384852430556,58.33928839997812L210.4007140625,118.38106839765204L210.44717552083333,108.23473327810115L210.69437430555556,51.152735612609185L210.85877638888888,127.27356216040528L210.91476840277778,33.67092934792693L211.0738095486111,-7.891307213089647L211.09197717013888,131.58428201892158L211.4383532986111,118.07877669551156L211.77758151041667,-57.57875600728119L211.85233680555555,216.85198734023353L211.90624401041669,75.08557469600981L212.04235225694444,27.988349351015973L212.1757800347222,178.00641264698723L212.3738368923611,18.184448767792116L212.67256024305556,136.7564927068624L213.62353098958334,-51.25208037549796L214.22038203124998,73.1207373765382L214.63793949652776,29.533249034123L214.91819739583335,39.85482241890649L215.09898012152777,-25.878740072250327L215.16241788194444,59.595717509361855L215.17045928819445,107.38274705951865L215.44624973958335,91.19059707901697L215.7515253472222,-58.95557225834237L215.84117213541668,-17.876922336491656L215.9778760416667,106.86377708478409L216.1160690972222,69.04952699758792L216.19737664930554,7.179025346582616L216.3007236111111,110.89491656151688L216.35492864583333,62.9270902032202L216.89638333333332,31.931000517173274L217.01581310763888,-36.69913049177687L217.07061380208333,22.519112381068158L217.1075447048611,-21.2821721597151L217.71720243055557,52.30965223772961L218.06745034722223,161.23533979329198L218.45016171875,43.104454620317995L218.5737611111111,87.37265916304156L218.59580052083334,45.86546734246342L218.64553810763888,61.587932735681555L219.18997109375,94.45814753391527L219.53426241319445,96.62182759425859L219.59353055555556,115.80857977542011L220.01615112847225,-5.680550076744737L220.75238654513888,93.95944559032267L220.80659157986113,44.64582124487923L220.8330984375,131.35046475583857L220.95491085069446,12.19140319932593L220.98856562499998,90.97242741693152L221.11067586805558,157.78127214041623L221.2238512152778,41.41232698072089L221.40046432291666,199.70705047520727L221.4525845486111,26.800589496439166L221.59345807291666,53.146418850530296L221.62443237847222,64.66221757504074L221.7090160590278,-1.0073985945094537L221.72658802083333,165.37356679006058L221.9076685763889,83.37993615323848L222.12895616319443,50.18653821132401L222.32194991319446,72.79062838310546L222.35203072916667,92.27026716145603L222.84166302083335,88.71814184839076L222.8916984375,206.44229969111353L223.32027560763888,81.88495246117766L223.58653550347225,7.157340255650632L223.7408113715278,9.996806778691054L224.0183888020833,82.51494223692202L224.1941084201389,157.64455344460228L224.4892578125,105.27525066245688L224.50414930555556,95.4890285594897L224.60451796874997,69.84040580960838L224.74330668402777,13.19943383606999L224.93481128472223,140.79389506036586L225.64930512152776,81.29827771945435L225.70172317708332,75.61275450614369L226.08592369791666,87.304119985212L226.29678723958332,55.52034406770362L226.36082065972224,30.244390059601198L226.74144722222223,42.643962938677205L226.76348663194443,31.08948040008547L226.78761085069445,116.32477797161451L227.25460807291665,-36.73795457319777L227.32876770833334,6.85032981634142L227.44432569444444,8.142606821927183L227.47113038194442,-6.5644501122561225L227.5741795138889,85.59819819168612L227.92234262152778,-6.146937782114174L228.25948602430557,18.38227127356964L228.5614855034722,61.096199801022365L228.7520966145833,69.81230858306995L229.06809409722223,122.37362356619403L229.22117864583333,-14.675695554776594L229.45854904513888,58.22688870402901L229.77127039930556,-98.92655617540532L230.03604114583334,-8.944453580812967L230.22129131944445,135.14385468851438L230.50006006944446,57.72419813275339L230.5825589409722,75.10808700458571L230.93101987847223,74.00899169390853L231.1526052951389,143.1216039874337L231.1689859375,35.956239174712806L231.2249779513889,15.089278481223383L231.52757309027777,70.21429020166399L231.54008194444447,2.884974523024138L231.77894149305556,-5.610008792443677L231.94274791666666,11.75856456431477L232.37251640624999,27.52985737811437L232.88180546875,200.95547295700422L232.98813072916667,90.24011921069841L233.47478472222224,134.91146167841825L233.77499722222223,98.70071664723484L233.7803581597222,38.0486730174585L234.07342274305554,95.78703551400794L234.55352447916667,74.89294927499513L235.0157564236111,128.76875925064087L235.04226328125,108.51410265944223L235.20547404513889,146.41716235334223L235.2858881076389,55.91737257079645" style="fill: none;" fill="none"></path></g></g></g></g></g></g><g transform="translate(61, 177)" clip-path="url(#clip_1)"><clipPath id="clip_1"><rect width="268" height="23"></rect></clipPath><g><g><line x1="0" y1="0" x2="0" y2="5" style="visibility: inherit;" fill="rgb(0, 0, 0)" stroke="rgb(204, 204, 204)" stroke-width="1px"></line><line x1="29.78298611111111" y1="0" x2="29.78298611111111" y2="5" style="visibility: inherit;" fill="rgb(0, 0, 0)" stroke="rgb(204, 204, 204)" stroke-width="1px"></line><line x1="59.56597222222222" y1="0" x2="59.56597222222222" y2="5" style="visibility: inherit;" fill="rgb(0, 0, 0)" stroke="rgb(204, 204, 204)" stroke-width="1px"></line><line x1="89.34895833333333" y1="0" x2="89.34895833333333" y2="5" style="visibility: inherit;" fill="rgb(0, 0, 0)" stroke="rgb(204, 204, 204)" stroke-width="1px"></line><line x1="119.13194444444444" y1="0" x2="119.13194444444444" y2="5" style="visibility: inherit;" fill="rgb(0, 0, 0)" stroke="rgb(204, 204, 204)" stroke-width="1px"></line><line x1="148.91493055555557" y1="0" x2="148.91493055555557" y2="5" style="visibility: inherit;" fill="rgb(0, 0, 0)" stroke="rgb(204, 204, 204)" stroke-width="1px"></line><line x1="178.69791666666666" y1="0" x2="178.69791666666666" y2="5" style="visibility: inherit;" fill="rgb(0, 0, 0)" stroke="rgb(204, 204, 204)" stroke-width="1px"></line><line x1="208.48090277777777" y1="0" x2="208.48090277777777" y2="5" style="visibility: inherit;" fill="rgb(0, 0, 0)" stroke="rgb(204, 204, 204)" stroke-width="1px"></line><line x1="238.26388888888889" y1="0" x2="238.26388888888889" y2="5" style="visibility: inherit;" fill="rgb(0, 0, 0)" stroke="rgb(204, 204, 204)" stroke-width="1px"></line><line x1="268.046875" y1="0" x2="268.046875" y2="5" style="visibility: inherit;" fill="rgb(0, 0, 0)" stroke="rgb(204, 204, 204)" stroke-width="1px"></line></g><g transform="translate(0, 8)"><text x="0" y="0" dx="0em" dy="0.95em" style="text-anchor: middle; visibility: hidden; font-family: Roboto, sans-serif; font-size: 12px; font-weight: 200;" fill="rgb(33, 33, 33)" stroke="none" stroke-width="1px">-100k</text><text x="29.78298611111111" y="0" dx="0em" dy="0.95em" style="text-anchor: middle; visibility: inherit; font-family: Roboto, sans-serif; font-size: 12px; font-weight: 200;" fill="rgb(33, 33, 33)" stroke="none" stroke-width="1px">0</text><text x="59.56597222222222" y="0" dx="0em" dy="0.95em" style="text-anchor: middle; visibility: hidden; font-family: Roboto, sans-serif; font-size: 12px; font-weight: 200;" fill="rgb(33, 33, 33)" stroke="none" stroke-width="1px">100k</text><text x="89.34895833333333" y="0" dx="0em" dy="0.95em" style="text-anchor: middle; visibility: inherit; font-family: Roboto, sans-serif; font-size: 12px; font-weight: 200;" fill="rgb(33, 33, 33)" stroke="none" stroke-width="1px">200k</text><text x="119.13194444444444" y="0" dx="0em" dy="0.95em" style="text-anchor: middle; visibility: hidden; font-family: Roboto, sans-serif; font-size: 12px; font-weight: 200;" fill="rgb(33, 33, 33)" stroke="none" stroke-width="1px">300k</text><text x="148.91493055555557" y="0" dx="0em" dy="0.95em" style="text-anchor: middle; visibility: inherit; font-family: Roboto, sans-serif; font-size: 12px; font-weight: 200;" fill="rgb(33, 33, 33)" stroke="none" stroke-width="1px">400k</text><text x="178.69791666666666" y="0" dx="0em" dy="0.95em" style="text-anchor: middle; visibility: hidden; font-family: Roboto, sans-serif; font-size: 12px; font-weight: 200;" fill="rgb(33, 33, 33)" stroke="none" stroke-width="1px">500k</text><text x="208.48090277777777" y="0" dx="0em" dy="0.95em" style="text-anchor: middle; visibility: inherit; font-family: Roboto, sans-serif; font-size: 12px; font-weight: 200;" fill="rgb(33, 33, 33)" stroke="none" stroke-width="1px">600k</text><text x="238.26388888888889" y="0" dx="0em" dy="0.95em" style="text-anchor: middle; visibility: hidden; font-family: Roboto, sans-serif; font-size: 12px; font-weight: 200;" fill="rgb(33, 33, 33)" stroke="none" stroke-width="1px">700k</text><text x="268.046875" y="0" dx="0em" dy="0.95em" style="text-anchor: middle; visibility: hidden; font-family: Roboto, sans-serif; font-size: 12px; font-weight: 200;" fill="rgb(33, 33, 33)" stroke="none" stroke-width="1px">800k</text></g><line x1="0" y1="0" x2="268.046875" y2="0" fill="rgb(0, 0, 0)" stroke="rgb(204, 204, 204)" stroke-width="1px"></line></g></g></g></g></svg>