<svg viewBox="0 0 330 200" xmlns="http://www.w3.org/2000/svg"><g><g><g><g><g><line x1="60" y1="177" x2="55" y2="177" style="visibility: inherit;" fill="rgb(0, 0, 0)" stroke="rgb(204, 204, 204)" stroke-width="1px"></line><line x1="60" y1="164.35714285714283" x2="55" y2="164.35714285714283" style="visibility: inherit;" fill="rgb(0, 0, 0)" stroke="rgb(204, 204, 204)" stroke-width="1px"></line><line x1="60" y1="151.7142857142857" x2="55" y2="151.7142857142857" style="visibility: inherit;" fill="rgb(0, 0, 0)" stroke="rgb(204, 204, 204)" stroke-width="1px"></line><line x1="60" y1="139.07142857142853" x2="55" y2="139.07142857142853" style="visibility: inherit;" fill="rgb(0, 0, 0)" stroke="rgb(204, 204, 204)" stroke-width="1px"></line><line x1="60" y1="126.42857142857137" x2="55" y2="126.42857142857137" style="visibility: inherit;" fill="rgb(0, 0, 0)" stroke="rgb(204, 204, 204)" stroke-width="1px"></line><line x1="60" y1="113.78571428571432" x2="55" y2="113.78571428571432" style="visibility: inherit;" fill="rgb(0, 0, 0)" stroke="rgb(204, 204, 204)" stroke-width="1px"></line><line x1="60" y1="101.14285714285715" x2="55" y2="101.14285714285715" style="visibility: inherit;" fill="rgb(0, 0, 0)" stroke="rgb(204, 204, 204)" stroke-width="1px"></line><line x1="60" y1="88.5" x2="55" y2="88.5" style="visibility: inherit;" fill="rgb(0, 0, 0)" stroke="rgb(204, 204, 204)" stroke-width="1px"></line><line x1="60" y1="75.85714285714285" x2="55" y2="75.85714285714285" style="visibility: inherit;" fill="rgb(0, 0, 0)" stroke="rgb(204, 204, 204)" stroke-width="1px"></line><line x1="60" y1="63.21428571428569" x2="55" y2="63.21428571428569" style="visibility: inherit;" fill="rgb(0, 0, 0)" stroke="rgb(204, 204, 204)" stroke-width="1px"></line><line x1="60" y1="50.57142857142853" x2="55" y2="50.57142857142853" style="visibility: inherit;" fill="rgb(0, 0, 0)" stroke="rgb(204, 204, 204)" stroke-width="1px"></line><line x1="60" y1="37.928571428571374" x2="55" y2="37.928571428571374" style="visibility: inherit;" fill="rgb(0, 0, 0)" stroke="rgb(204, 204, 204)" stroke-width="1px"></line><line x1="60" y1="25.285714285714313" x2="55" y2="25.285714285714313" style="visibility: inherit;" fill="rgb(0, 0, 0)" stroke="rgb(204, 204, 204)" stroke-width="1px"></line><line x1="60" y1="12.642857142857157" x2="55" y2="12.642857142857157" style="visibility: inherit;" fill="rgb(0, 0, 0)" stroke="rgb(204, 204, 204)" stroke-width="1px"></line><line x1="60" y1="0" x2="55" y2="0" style="visibility: inherit;" fill="rgb(0, 0, 0)" stroke="rgb(204, 204, 204)" stroke-width="1px"></line></g><g transform="translate(50, 0)"><text x="0" y="177" dx="0em" dy="0.3em" style="text-anchor: end; visibility: hidden; font-family: Roboto, sans-serif; font-size: 12px; font-weight: 200;" fill="rgb(33, 33, 33)" stroke="none" stroke-width="1px">0.062</text><text x="0" y="164.35714285714283" dx="0em" dy="0.3em" style="text-anchor: end; visibility: inherit; font-family: Roboto, sans-serif; font-size: 12px; font-weight: 200;" fill="rgb(33, 33, 33)" stroke="none" stroke-width="1px">0.064</text><text x="0" y="151.7142857142857" dx="0em" dy="0.3em" style="text-anchor: end; visibility: hidden; font-family: Roboto, sans-serif; font-size: 12px; font-weight: 200;" fill="rgb(33, 33, 33)" stroke="none" stroke-width="1px">0.066</text><text x="0" y="139.07142857142853" dx="0em" dy="0.3em" style="text-anchor: end; visibility: inherit; font-family: Roboto, sans-serif; font-size: 12px; font-weight: 200;" fill="rgb(33, 33, 33)" stroke="none" stroke-width="1px">0.068</text><text x="0" y="126.42857142857137" dx="0em" dy="0.3em" style="text-anchor: end; visibility: hidden; font-family: Roboto, sans-serif; font-size: 12px; font-weight: 200;" fill="rgb(33, 33, 33)" stroke="none" stroke-width="1px">0.07</text><text x="0" y="113.78571428571432" dx="0em" dy="0.3em" style="text-anchor: end; visibility: inherit; font-family: Roboto, sans-serif; font-size: 12px; font-weight: 200;" fill="rgb(33, 33, 33)" stroke="none" stroke-width="1px">0.072</text><text x="0" y="101.14285714285715" dx="0em" dy="0.3em" style="text-anchor: end; visibility: hidden; font-family: Roboto, sans-serif; font-size: 12px; font-weight: 200;" fill="rgb(33, 33, 33)" stroke="none" stroke-width="1px">0.074</text><text x="0" y="88.5" dx="0em" dy="0.3em" style="text-anchor: end; visibility: inherit; font-family: Roboto, sans-serif; font-size: 12px; font-weight: 200;" fill="rgb(33, 33, 33)" stroke="none" stroke-width="1px">0.076</text><text x="0" y="75.85714285714285" dx="0em" dy="0.3em" style="text-anchor: end; visibility: hidden; font-family: Roboto, sans-serif; font-size: 12px; font-weight: 200;" fill="rgb(33, 33, 33)" stroke="none" stroke-width="1px">0.078</text><text x="0" y="63.21428571428569" dx="0em" dy="0.3em" style="text-anchor: end; visibility: inherit; font-family: Roboto, sans-serif; font-size: 12px; font-weight: 200;" fill="rgb(33, 33, 33)" stroke="none" stroke-width="1px">0.08</text><text x="0" y="50.57142857142853" dx="0em" dy="0.3em" style="text-anchor: end; visibility: hidden; font-family: Roboto, sans-serif; font-size: 12px; font-weight: 200;" fill="rgb(33, 33, 33)" stroke="none" stroke-width="1px">0.082</text><text x="0" y="37.928571428571374" dx="0em" dy="0.3em" style="text-anchor: end; visibility: inherit; font-family: Roboto, sans-serif; font-size: 12px; font-weight: 200;" fill="rgb(33, 33, 33)" stroke="none" stroke-width="1px">0.084</text><text x="0" y="25.285714285714313" dx="0em" dy="0.3em" style="text-anchor: end; visibility: hidden; font-family: Roboto, sans-serif; font-size: 12px; font-weight: 200;" fill="rgb(33, 33, 33)" stroke="none" stroke-width="1px">0.086</text><text x="0" y="12.642857142857157" dx="0em" dy="0.3em" style="text-anchor: end; visibility: inherit; font-family: Roboto, sans-serif; font-size: 12px; font-weight: 200;" fill="rgb(33, 33, 33)" stroke="none" stroke-width="1px">0.088</text><text x="0" y="0" dx="0em" dy="0.3em" style="text-anchor: end; visibility: hidden; font-family: Roboto, sans-serif; font-size: 12px; font-weight: 200;" fill="rgb(33, 33, 33)" stroke="none" stroke-width="1px">0.09</text></g><line x1="60" y1="0" x2="60" y2="177" fill="rgb(0, 0, 0)" stroke="rgb(204, 204, 204)" stroke-width="1px"></line></g></g><g transform="translate(60, 0)" clip-path="url(#clip_0)"><clipPath id="clip_0"><rect width="270" height="177"></rect></clipPath><g><g><g><line x1="0" y1="0" x2="0" y2="177" fill="rgb(0, 0, 0)" stroke="rgb(66, 66, 66)" stroke-width="1px" opacity="0.25"></line><line x1="30" y1="0" x2="30" y2="177" fill="rgb(0, 0, 0)" stroke="rgb(66, 66, 66)" stroke-width="1px" opacity="0.25"></line><line x1="60" y1="0" x2="60" y2="177" fill="rgb(0, 0, 0)" stroke="rgb(66, 66, 66)" stroke-width="1px" opacity="0.25"></line><line x1="90" y1="0" x2="90" y2="177" fill="rgb(0, 0, 0)" stroke="rgb(66, 66, 66)" stroke-width="1px" opacity="0.25"></line><line x1="120" y1="0" x2="120" y2="177" fill="rgb(0, 0, 0)" stroke="rgb(66, 66, 66)" stroke-width="1px" opacity="0.25"></line><line x1="150" y1="0" x2="150" y2="177" fill="rgb(0, 0, 0)" stroke="rgb(66, 66, 66)" stroke-width="1px" opacity="0.25"></line><line x1="180" y1="0" x2="180" y2="177" fill="rgb(0, 0, 0)" stroke="rgb(66, 66, 66)" stroke-width="1px" opacity="0.25"></line><line x1="210" y1="0" x2="210" y2="177" fill="rgb(0, 0, 0)" stroke="rgb(66, 66, 66)" stroke-width="1px" opacity="0.25"></line><line x1="240" y1="0" x2="240" y2="177" fill="rgb(0, 0, 0)" stroke="rgb(66, 66, 66)" stroke-width="1px" opacity="0.25"></line><line x1="270" y1="0" x2="270" y2="177" fill="rgb(0, 0, 0)" stroke="rgb(66, 66, 66)" stroke-width="1px" opacity="0.25"></line></g><g><line x1="0" y1="177" x2="270" y2="177" fill="rgb(0, 0, 0)" stroke="rgb(66, 66, 66)" stroke-width="1px" opacity="0.25"></line><line x1="0" y1="164.35714285714283" x2="270" y2="164.35714285714283" fill="rgb(0, 0, 0)" stroke="rgb(66, 66, 66)" stroke-width="1px" opacity="0.25"></line><line x1="0" y1="151.7142857142857" x2="270" y2="151.7142857142857" fill="rgb(0, 0, 0)" stroke="rgb(66, 66, 66)" stroke-width="1px" opacity="0.25"></line><line x1="0" y1="139.07142857142853" x2="270" y2="139.07142857142853" fill="rgb(0, 0, 0)" stroke="rgb(66, 66, 66)" stroke-width="1px" opacity="0.25"></line><line x1="0" y1="126.42857142857137" x2="270" y2="126.42857142857137" fill="rgb(0, 0, 0)" stroke="rgb(66, 66, 66)" stroke-width="1px" opacity="0.25"></line><line x1="0" y1="113.78571428571432" x2="270" y2="113.78571428571432" fill="rgb(0, 0, 0)" stroke="rgb(66, 66, 66)" stroke-width="1px" opacity="0.25"></line><line x1="0" y1="101.14285714285715" x2="270" y2="101.14285714285715" fill="rgb(0, 0, 0)" stroke="rgb(66, 66, 66)" stroke-width="1px" opacity="0.25"></line><line x1="0" y1="88.5" x2="270" y2="88.5" fill="rgb(0, 0, 0)" stroke="rgb(66, 66, 66)" stroke-width="1px" opacity="0.25"></line><line x1="0" y1="75.85714285714285" x2="270" y2="75.85714285714285" fill="rgb(0, 0, 0)" stroke="rgb(66, 66, 66)" stroke-width="1px" opacity="0.25"></line><line x1="0" y1="63.21428571428569" x2="270" y2="63.21428571428569" fill="rgb(0, 0, 0)" stroke="rgb(66, 66, 66)" stroke-width="1px" opacity="0.25"></line><line x1="0" y1="50.57142857142853" x2="270" y2="50.57142857142853" fill="rgb(0, 0, 0)" stroke="rgb(66, 66, 66)" stroke-width="1px" opacity="0.25"></line><line x1="0" y1="37.928571428571374" x2="270" y2="37.928571428571374" fill="rgb(0, 0, 0)" stroke="rgb(66, 66, 66)" stroke-width="1px" opacity="0.25"></line><line x1="0" y1="25.285714285714313" x2="270" y2="25.285714285714313" fill="rgb(0, 0, 0)" stroke="rgb(66, 66, 66)" stroke-width="1px" opacity="0.25"></line><line x1="0" y1="12.642857142857157" x2="270" y2="12.642857142857157" fill="rgb(0, 0, 0)" stroke="rgb(66, 66, 66)" stroke-width="1px" opacity="0.25"></line><line x1="0" y1="0" x2="270" y2="0" fill="rgb(0, 0, 0)" stroke="rgb(66, 66, 66)" stroke-width="1px" opacity="0.25"></line></g></g></g><g><g><line x1="0" y1="568.9285714285714" x2="270" y2="568.9285714285714" fill="rgb(0, 0, 0)" stroke="rgb(153, 153, 153)" stroke-width="1.5px"></line></g></g><g><g><line x1="30" y1="0" x2="30" y2="177" fill="rgb(0, 0, 0)" stroke="rgb(153, 153, 153)" stroke-width="1.5px"></line></g></g><g><g><g><g><g><path stroke="rgb(255, 112, 67)" stroke-width="2px" d="M30.240000000000002,46.40241287648676L30.84,-98.24916419972277L31.08,-17.234425195571013L31.14,35.50990414071962L31.2,92.63545584352168L31.32,76.65556033054806L31.56,52.81449193682172L31.62,13.471954381538904L32.4,-27.8162206980754L39.72,-50.927682645138496L39.839999999999996,4.368174614690512L40.199999999999996,-61.888985456330715L40.32,-11.876419967976984L40.62,24.726577383729143L41.04,30.25311802347039L41.1,28.69076869456663L41.16,19.263680935735284L41.4,-19.24665937034809L41.46,29.797532043757922L41.52,47.6766520503035L41.94,19.776197687556333L42.12,41.90166023887935L42.18000000000001,57.16490104592249L42.24,54.12234780071019L42.300000000000004,16.552097497790577L42.42,51.74307830324085L42.660000000000004,31.158723175808447L42.78,16.814947169337167L42.9,78.24720764493915L43.14,71.1605409642218L43.2,81.23516957266936L43.26,116.00782653870462L43.44,94.93446107274801L43.74,69.29085524504995L44.339999999999996,44.35910708681114L44.64,25.39999846375635L44.7,50.35585171520414L44.76,81.32666364378407L45.480000000000004,42.81715972974191L45.54,60.50055578034268L45.6,75.43043184516095L46.26,76.8368777187048L46.44,82.46860903381999L46.56,43.04854413710138L46.68,39.187272864490446L46.92,23.946167817743085L47.1,41.664178357568865L47.28,45.997337367052026L47.4,51.767118795548086L47.7,57.41642170436376L47.82,38.52494074021955L47.88,56.75449219925598L48.36,76.75207341405648L48.48,79.05980512316765L48.72,53.51637928290893L48.96,84.27898088116828L49.080000000000005,70.33128227347616L49.14,57.45200114921286L49.32,73.73707408336986L50.22,99.55816793220148L50.28,70.15989607950478L50.58,57.64828139940582L50.699999999999996,30.117276401007047L50.76,51.211216657058394L51.12,6.338988377441007L51.239999999999995,40.70881200573471L51.480000000000004,57.62512394717032L51.72,78.65708938029395L51.78,76.27095333210816L51.84,48.50735844484846L51.9,36.77504452141962L51.96,53.10704482411481L52.02,70.78034821553398L52.68000000000001,43.85775083629024L53.160000000000004,59.6647685428127L53.4,52.55287123678115L53.519999999999996,68.23299879321539L53.64,55.63009318404839L53.82,54.39614005331836L54.120000000000005,53.469428409093204L54.24,73.32507556869938L54.540000000000006,33.38290091783702L54.839999999999996,61.71635419983212L54.9,51.04077919977889L55.26,59.57292793700173L55.32,56.178537717515624L55.56,41.92953708149538L55.8,49.8825378261658L56.1,88.05386206761911L56.16,45.14266082115808L56.22,40.238111640108336L56.34,76.10367619783955L56.58,75.69179849244777L56.64,81.26555238018996L56.76,15.169031583372135L57,63.299360355455875L57.12,4.51233716224211L57.36,38.1706520914198L57.66,7.503682953920718L57.9,11.170643642940483L57.96,59.488791148814826L58.08,69.28892565596728L58.2,81.09892888563049L58.44,83.84583859859207L58.5,51.43998247344842L58.8,59.28395031070433L58.86,75.71805587600817L59.22,69.8315938697015L59.339999999999996,80.8396252836524L59.64,51.349973703453934L59.879999999999995,84.48978766587891L60.54,83.94306837534269L60.6,73.55860499663656L60.66,84.74659751727285L60.72,59.43365166963741L60.78,74.02744742178167L60.839999999999996,77.07834826503714L61.02,41.0793164893232L61.08,83.23822140412415L61.14,88.02831527847749L61.980000000000004,91.86214102660838L62.04,99.79437739379621L62.16,94.17602039668554L62.22,105.18020259572369L62.28,110.92863110613233L62.4,100.82311398248996L62.519999999999996,107.79627765521653L62.64,116.03340016274515L62.760000000000005,74.62077922078714L63,71.65133387716259L63.12,75.4427158586481L63.36,80.90879486514912L63.72,103.06994874187575L63.84,102.10250249280062L64.08,77.41724999497164L64.25999999999999,75.95370389925473L64.38,75.00999655072116L65.04,32.94889610172132L65.1,16.48657619793565L65.28,64.40734859353769L65.4,75.46653947857904L65.46,58.25751569985938L65.64,78.2934826057614L65.76,76.47064550084924L66.11999999999999,78.70003065342678L66.18,72.12324237919259L66.48,81.42021656264141L66.78,32.25667234114658L66.84,51.27600639714757L66.96,89.16362208773214L67.32,85.91171307950924L67.38,90.56405259466851L67.56,81.85246575140685L67.67999999999999,112.34031515278657L67.74,90.45541321269754L67.98,93.0224339878769L68.22,86.87686113811796L68.52,91.14803965439188L68.58,41.7824451828416L68.64,51.475673623859194L68.94000000000001,60.08143216421399L69.06,46.1753455105435L69.3,86.30056748748741L69.48,76.79309631647936L69.6,66.0271274633373L70.02000000000001,93.57563666880267L70.2,62.45875110937949L70.5,46.83857465215791L70.55999999999999,39.80557823691868L70.80000000000001,37.77739676969281L71.04,54.191779061691484L71.52,91.19868985684901L71.64,83.30910545426205L71.76,66.53378563085896L71.82000000000001,107.79893513553307L71.94,101.62324996269669L72.12,72.60722426034586L72.60000000000001,58.13646821652401L72.9,91.46977913321928L73.02,100.05801398293724L73.2,88.85137469100596L73.25999999999999,78.72144834798875L73.38,100.17722287451888L73.5,108.8263833741883L73.56,83.49112387251667L73.68,43.8290071404514L73.74000000000001,77.80667255108496L73.86,94.85829676772407L73.92,79.85599212910176L73.98,83.12567918765383L74.27999999999999,73.69759333974534L74.52000000000001,98.485844965428L74.64,96.14496537613431L75.36,92.34814474835818L75.84,84.55099669012316L75.89999999999999,115.58027506163313L76.13999999999999,111.5578902295948L76.32000000000001,113.96269211362136L76.5,124.698937019563L76.56,104.40822781119974L76.67999999999999,82.39554870721236L76.74,48.7691835123945L76.8,86.04901096148609L76.92,85.97047312469415L77.28,31.106867248567383L78.24000000000001,36.231970470570374L78.3,62.07746542521545L78.36,82.88920048662386L78.42,87.0415733299243L78.6,84.0501505374152L79.08,99.27429112515004L79.14,102.89576721961843L79.67999999999999,115.31935580239023L79.92,116.40459247032004L79.98,107.1253377524396L80.10000000000001,70.69126492135575L80.16,52.24752124526664L80.34,56.09491819113486L80.39999999999999,75.79689524666746L80.58,70.93365479339352L80.69999999999999,92.50967805028328L81.06,78.78199133369121L81.42,92.69232485690247L81.6,84.16465002978676L81.72,62.77035947850246L81.96000000000001,62.62150550610369L82.2,93.77751543529185L82.25999999999999,63.20988424407705L83.04,86.87922988151729L83.16,86.82012744606097L83.39999999999999,73.52108397230413L83.52000000000001,100.63932077971043L83.7,132.22144403688273L83.82000000000001,134.4120737828741L83.88,115.3324487713874L84.06,124.78720652933887L84.11999999999999,152.2995112709759L84.42,87.34118692881648L84.48,100.39215696679487L84.60000000000001,81.68325404591948L84.66,92.66344814800637L85.08,121.4070255374261L85.14,111.9822262160049L85.25999999999999,99.13842967173429L85.68,100.45191200047454L85.8,96.27469000244824L85.86,80.38312926818038L85.92,99.47362437802018L86.34,92.25592710691032L86.52,114.82004684364908L86.7,105.74072187721123L86.94,84.00922426500973L87.12,94.90340883598444L87.3,118.19439087634427L87.6,74.54500416370463L87.78,97.70596420438423L87.89999999999999,97.75578690401098L88.02000000000001,92.74403218271016L88.08000000000001,113.31228486290294L88.67999999999999,115.52058075677921L88.74,132.87548798210366L88.91999999999999,117.60672069039398L89.16,93.13095400173763L89.4,119.63635983728948L89.52,130.31901908656963L89.64,125.0835002142932L89.75999999999999,127.0089500525272L89.94000000000001,118.33534836045955L90.12,128.49993207616836L90.18,143.42530179870357L90.24,149.68324092197895L90.36,97.92169680780972L90.66,95.33622808465589L90.78,82.28384023092858L90.9,82.13693059876876L91.32,70.65760566231793L91.55999999999999,80.55081937488511L91.68,85.36578891229303L92.1,120.15491021348889L92.16,123.40914899001542L92.22,122.0830844872595L92.58000000000001,131.91553807457692L92.76,139.81975934199158L93.36,124.76628710460807L93.47999999999999,107.93199141742924L93.60000000000001,97.16259912035719L93.72,105.45477405843822L94.02,122.77219195843071L94.14,113.11950343230987L94.2,100.22635015560671L94.25999999999999,101.0246159979228L94.32,113.59542684418531L94.38,106.79184255143403L94.62,92.94174675854853L94.8,100.02545263766362L95.1,103.53854988710692L95.16,101.96237818928816L95.22,97.99573285300887L95.46000000000001,98.17642441429021L95.88,111.17947201836212L96.11999999999999,112.68159977994371L96.17999999999999,114.53251030344116L96.24000000000001,122.67231028768708L96.42,128.37155627391425L96.54,134.71762348521764L96.66,134.79769608392303L96.72,135.87877520245988L96.84,137.28165505891076L97.26,125.98313340540882L97.32000000000001,108.00856300590128L97.5,96.94861590332972L97.56,67.86470618952202L97.67999999999999,72.55989296501207L97.74,56.01012218241804L97.92,103.80506371831416L98.03999999999999,102.06782199879079L98.34,87.83825073972527L98.75999999999999,99.7560965975236L99,121.37248578855632L99.06,106.02427018312446L99.12,109.32382383805927L99.72,129.98525262052414L99.83999999999999,90.41797591211295L100.02000000000001,98.87851929301303L100.44,131.48655984609465L100.56,131.83900263621464L100.61999999999999,147.2859059759535L100.67999999999999,147.88403979727116L100.92,141.07446264583675L101.04,121.04117103518051L101.34,122.10599288489738L101.58,158.7537128508297L101.64,107.38054294212758L101.82000000000001,106.53662003088739L102.3,117.35869164897817L102.36,91.0879931402519L102.42,106.949397230712L102.84,118.9473599776176L103.08,130.86030197647491L103.38,129.67842908207942L103.5,128.58758293776052L103.74000000000001,79.64040549083973L104.64,74.39478113003372L104.76,96.38954102672388L104.94,106.76969177189957L105,112.54953815395868L105.06,104.95859252298449L105.11999999999999,60.79360912799151L105.24,105.83778555811745L105.36000000000001,128.68075549972832L105.42,134.76900702511367L105.60000000000001,140.07045541538997L105.66,111.7047236479516L106.02,118.90206912432707L106.25999999999999,102.7214066342985L106.56,104.47801961298775L106.62,117.1411752288443L106.68,86.88788761065953L106.92,91.0690119654501L107.1,98.66394644153078L107.4,97.97639693209423L107.58,88.61106193297435L107.88,88.21713617753409L107.94,123.17163233814924L108.12,75.86195875406953L108.36,69.4787532469245L108.6,73.0772512356238L108.89999999999999,106.22116215227825L109.2,124.6316548035753L109.32000000000001,93.10463602137133L109.5,112.44075149173477L109.56,130.0432545194665L110.10000000000001,128.4892428027517L110.69999999999999,110.80760180736002L110.88000000000001,113.99879972295328L111.24,127.04799298396665L111.6,114.71873389623566L111.84,111.02240879501107L111.9,139.49006897990736L111.96000000000001,106.31621871632666L112.08,104.38053668796701L112.5,83.34201917803097L112.55999999999999,111.30054842173256L112.80000000000001,109.86807983702798L113.16,128.33885788585852L113.39999999999999,145.29915650628533L113.58000000000001,122.52861506564076L113.82000000000001,93.50421459143374L115.02,126.93128954696233L115.25999999999999,143.92321465636408L115.86,143.09764705604815L116.16,135.24743392854552L116.27999999999999,148.03391488835413L116.34,132.43727752320802L116.4,128.35515393637743L116.46000000000001,139.93633536931603L116.94,135.39601361671268L117.30000000000001,119.66298390834184L117.42,124.9047652660613L117.48,128.02651099606607L117.6,130.86158857661462L117.66,124.59529609460984L118.38000000000001,141.27914624712764L118.44,135.92289696941484L118.56,110.72094200395513L118.97999999999999,106.73593907560688L119.22,107.22641211155519L119.4,121.66893497945944L119.64,101.93974236581536L119.88,46.97522465632353L119.94000000000001,87.20023514093837L120.12,80.05333314949542L120.53999999999999,74.0196342760323L120.6,112.95400303566444L120.66,119.92397804238793L120.78,129.180825117868L120.96000000000001,150.98280578600446L121.67999999999999,122.24411152791085L122.04,111.21342621610653L122.22,105.60870260133291L122.28,122.81042370279992L122.46,133.83949472356056L122.88000000000001,142.02955000906124L123.06,130.3857944379215L123.12,140.47827485876215L123.72,135.58768185184553L123.9,90.05229902730933L123.96000000000001,108.81072123754522L124.08,133.26036696720084L124.25999999999999,121.36470887117365L124.32,132.45632045726214L124.38,141.67882368634565L124.56,141.39389422509748L124.8,139.44974157964816L125.1,146.75972178688167L125.7,143.17403783608646L125.76,134.99432598391957L125.82000000000001,123.30468089995942L126.06,151.96500241443704L126.17999999999999,148.9305670923814L126.66,145.39403899710322L127.62,141.37611361010298L127.86,114.49686161675116L128.1,102.50220623100347L128.22,104.57394654443591L128.4,139.34229528200214L128.46,123.2979989580096L128.76,127.77766735402575L128.82,138.46174462551292L129.06,125.7371825553697L129.24,160.851210322074L129.35999999999999,129.5532734106816L129.72,156.3543370312951L129.96,153.40452502561905L130.2,145.09974688525975L130.44,142.82751979287337L130.62,109.1045528164856L130.74,125.31851808581574L131.1,124.55800873252043L131.16,125.7891603201509L131.22,122.74661030709031L131.28,144.77060161052003L131.58,161.22471037432555L131.64000000000001,167.78806699639983L131.7,141.3207853294143L132.12,151.06370720860875L132.23999999999998,134.66423002326707L132.42000000000002,132.97049838484145L132.54,129.92773202680328L132.6,127.86281278163999L132.66,129.93248004829516L132.72,89.37360444137829L133.07999999999998,113.9693382120861L133.32,106.02049335545416L133.38,82.58642640534707L133.5,121.35031438322207L133.8,142.87925363239168L134.28,140.59705901111505L134.34,164.27921249888402L134.58,154.5662258062656L134.7,157.5385086745642L135,145.13969088515518L135.18,127.87139674122511L135.24,115.41318889231991L135.89999999999998,121.04223943216509L136.5,137.42961793306927L136.62,129.74228266660165L136.8,126.653361219582L137.04,113.98840219539568L137.1,113.79403516678732L137.16,118.00682376129375L137.34,116.02570005154666L137.51999999999998,134.4724255759992L137.76000000000002,141.7640051136387L138,141.76954813710114L138.12,142.6265402950379L139.14,146.32552351885803L139.38,117.86836920834985L139.55999999999997,124.76387760520134L139.62,138.7737049548635L139.8,156.790530225819L139.92000000000002,142.1410765041879L140.16,121.33963890186213L140.28,132.5253395448232L140.82,121.22385938653538L141.06,144.50049298816435L141.60000000000002,156.7701614666791L141.9,125.6497395283978L141.96,156.11120012171781L142.02,151.89503368085963L142.44,139.01689247099367L142.79999999999998,166.2325287935177L142.98,161.81851360235277L143.16,137.1880783874951L143.28,152.09693898195994L143.70000000000002,139.99319030220576L143.94,125.21572703006173L144.12,133.7647357686725L144.48,138.87884347975734L144.54,142.00045384286415L144.6,146.81001871928996L144.78,153.09891219287087L145.08,145.79883201841187L145.44,151.0068512537358L145.5,153.01383143278477L146.1,146.4264325748918L146.16,129.82366896235317L146.4,119.80829987861729L146.45999999999998,130.93229552044707L146.51999999999998,151.02096126082938L146.7,150.22267951218043L146.82,132.21177789188644L147,143.7631075580806L147.18,159.0706417645662L147.36,166.2526927317853L147.6,113.34026116541217L147.66,126.93873777038566L147.78,133.6800137956883L147.84,129.29293797782165L147.96,121.57820048894004L148.02,161.69446036071315L148.61999999999998,174.21428755262502L148.74,154.34228268893537L148.86,128.10475323321467L149.22,130.47995810939102L149.28,135.80877761468938L149.46,150.40094098276722L151.02,137.97024975145527L151.26,102.41279304834153L151.56,82.01657394058671L151.68,111.92830971003444L151.85999999999999,115.27504367730116L152.1,145.7633868662014L152.16,128.19033974964668L152.4,134.45409083529432L152.58,152.8613674761132L152.82,164.7954676926045L153.24,183.59235731541565L153.3,154.73604982193552L153.35999999999999,150.57865157780796L154.01999999999998,140.7179045936076L154.07999999999998,135.55757272093862L154.20000000000002,139.89292221831053L154.44,135.1199113624159L154.74,151.9778263873547L155.22,159.502413095294L155.34,131.98019552220697L155.46,117.72394801542471L155.7,129.86001745509859L155.82,134.42161850378707L155.88,129.9433059655944L155.99999999999997,119.78837224537331L156.18,125.78942987651435L156.3,133.75276235454055L156.54,138.09627048372323L156.6,155.90067129722124L156.84,136.61698184246347L156.9,140.39859518650746L157.14,129.62240431709378L157.2,137.93576364689474L157.38,126.36275013839673L157.44,145.73849669429939L157.61999999999998,149.25623378526558L158.16,142.76551835843466L158.34,137.0244396045887L158.94,150.64002589843597L159.54,139.42022674444192L159.72,166.57125045328485L160.14000000000001,167.10902378498147L160.56,171.3407064729677L161.22,160.69658741164397L161.33999999999997,140.354056885121L161.64000000000001,167.9405562611089L161.94,162.02103121554563L162.06,140.30085933577158L162.18,150.2548241458603L162.54,147.44148371386422L162.66,149.55448287246506L162.72,135.5655185858055L162.84,145.1015069898325L162.9,151.08468406297914L163.26,133.56740595211903L163.5,125.9838036163979L164.16,144.5351952165394L164.34,148.32434513696776L164.51999999999998,135.55359773525268L164.64,94.71747133035385L165.42000000000002,124.10849234912432L165.84,158.24858631634322L166.02,147.03254849281072L166.56,146.03539335639402L166.79999999999998,134.9137546338165L166.85999999999999,134.6052606405758L167.52,152.06313579860415L168,167.2070840338141L168.29999999999998,176.86180715794978L168.35999999999999,173.0261445005019L168.66,157.53850032359324L168.96,172.59339617302567L169.14000000000001,181.06599563255807L169.44,160.65547394093812L169.92,150.61873118482197L170.1,133.41867333890292L170.39999999999998,147.6720892733242L170.51999999999998,169.2134579498542L170.57999999999998,119.63842210048276L170.64000000000001,144.0338063202729L170.76000000000002,139.18020066394988L171.12,147.75791565215764L171.42,136.08306186748675L171.54,159.09364075871187L172.26,164.9019409629985L172.38000000000002,142.591985114072L172.68,152.15460812479932L173.04,135.74129895909746L173.34,145.74393366133214L173.46,178.41973828033485L173.57999999999998,175.48671896312163L173.64,161.34261318647415L173.82,150.91675422466216L173.88,146.23311678693548L174.9,147.55861835469602L175.67999999999998,166.19161411483677L175.85999999999999,154.42143978009656L176.10000000000002,160.53883728326238L176.16000000000003,114.4058051778471L176.34,142.41777239752818L176.46,162.26883192538455L176.52,168.65673829211056L177.24,174.50503558018616L177.72,163.09840209202397L177.83999999999997,174.60482905457275L177.89999999999998,165.78054269386104L178.14000000000001,158.25430209009087L178.38,153.83296158652445L178.5,157.3932348678679L178.62,131.6286219310011L179.04,132.65950107198717L179.1,146.92412422840283L179.34,129.24331639682512L179.57999999999998,142.94579402151007L179.88000000000002,145.84000924552856L180,138.98639009703706L180.18,171.71750511583818L180.3,183.59160275416707L180.36,119.85439804034567L180.48,114.54681401411123L180.6,105.2171017823185L180.78,121.10196422834866L181.01999999999998,118.76284457027715L181.07999999999998,72.89600309938919L181.14,129.30216257314606L181.26,131.67176059891932L181.38,154.89118387790333L181.68,127.08054494725178L181.8,145.24953191882L181.86,141.99030761875372L182.28,134.17321842457872L182.4,75.19386980433299L182.57999999999998,100.87794612092053L183.9,96.01605341408583L183.96,131.57203200162948L184.08,135.04447879443046L184.5,143.47587634354522L184.62,162.77168714115263L184.68,154.74913528286103L184.98,159.55632005849807L185.04,123.87255709344602L185.1,126.11169989349261L185.28,131.6210502029255L185.34,146.3430088842389L185.52,136.47376424577698L185.88,156.52334822335243L185.94,124.08163744366917L186.06,129.23535135566954L186.18,129.15569671158988L186.29999999999998,123.37907235720749L186.35999999999999,114.80961873811736L187.02,120.98260038475969L187.08,118.68141097568223L187.14000000000001,104.55214479071691L187.62,121.10750802458996L187.68,122.11847805696878L187.98,145.932782095268L188.04,174.06322903813316L188.1,151.49227045405743L188.16,157.9692854131987L188.28,119.32464385475524L188.34,133.0841305989203L188.4,145.97618058295959L188.57999999999998,148.55437136531168L189.24,130.49024533193628L189.6,126.60338652281187L189.72,142.1022404177168L190.2,146.50434552007283L190.26,137.69416242294102L190.32,131.71171342574544L190.44,126.58646223519601L190.86,124.16876629252137L191.04000000000002,135.32048926337478L191.16,150.5962832817754L191.34,145.99256786998038L191.46,158.5760146001164L191.58,149.42064068431756L192.12,131.30081074749205L192.35999999999999,143.12860414062519L192.48000000000002,140.66722388158698L192.60000000000002,155.14923522143127L192.72,153.56698758251315L192.78,128.5198624797616L193.02,130.60899831631934L193.08,141.0736476178289L193.14000000000001,138.06758879820993L193.44,131.18526705197212L193.73999999999998,158.74780136060883L193.79999999999998,153.44734132629222L194.04,102.08430416872764L194.34,117.28660151143987L194.4,132.7502575929342L194.46,139.26988420663264L194.52,157.3206302731768L194.64000000000001,126.19966850507895L194.70000000000002,121.94130408406293L195.18,154.39563898612792L195.24,141.51958311335378L195.3,143.15583199105345L195.6,147.31696236039213L195.66,166.5102374726832L195.89999999999998,135.5956337342952L196.07999999999998,139.21665030659997L196.26000000000002,144.96624525154687L196.38000000000002,137.92660504184062L196.5,147.6888345328512L196.62,138.9847491003172L196.68,166.05880740259104L196.74,156.68193905338057L197.04,154.39944032387294L197.1,157.4648501190922L197.82,151.64950860392767L197.94000000000003,165.39024188259842L198.36,154.68550452077147L198.72,164.727083150307L198.78,164.05836155808979L199.44,150.60108059694008L199.5,134.81694424437413L200.04000000000002,138.84506502748255L200.16,161.94315528912637L200.28,171.59398240685718L200.46,172.29681528456024L200.64,186.2647340003329L201.06,183.460198517999L201.12,174.45897651864175L201.42,136.68687569845707L201.54,156.41332151569895L201.66000000000003,143.26247892596535L201.72,137.24490372855956L201.96,139.20271680579572L202.08,130.01112246579947L202.26,138.2781872651144L202.74,115.80443120009684L202.85999999999999,127.29692163812163L202.92,142.33288833007586L203.04,146.3210904679448L203.33999999999997,141.2429193860484L203.46,135.96798393933554L203.58,136.74063003630295L203.70000000000002,131.14874990582123L204.18,132.19209560547344L204.66,126.78401787073145L204.72,131.328083011027L204.84,150.43488207268805L204.89999999999998,167.6537819267653L205.07999999999998,161.21008741795504L205.2,175.7673555106575L205.26000000000002,146.76485240403736L205.44,136.40971031751587L205.8,155.57575829009028L206.04,158.23422362145246L206.1,131.17917291450092L206.94,143.26032954871073L207.12,141.30770869675354L207.3,156.45630451897347L207.48000000000002,154.5605717429237L207.72,155.8458881403805L207.9,147.76917004824202L207.96,139.9832248131579L208.02,150.11674863169043L208.38,163.30987623290176L208.67999999999998,154.4726002486192L208.73999999999998,158.21184853061183L208.79999999999998,166.5460571479874L209.04000000000002,167.65918175513863L209.16,158.19123579855244L209.22,168.81230589455225L209.58,152.58265590832997L209.76,141.56373528341277L209.88,160.58860698461424L209.94,168.41750212766377L210.06,159.15298703125842L210.12,180.3755750759858L210.23999999999998,135.63150526396655L210.42,142.15489639485355L210.6,135.5509923189975L211.08,154.28654207315338L211.14000000000001,142.7373090852022L211.44,147.9033319803735L211.68,149.04241249875187L211.74,156.90226844924834L212.04,112.66210426079115L212.82000000000002,111.7041454777617L212.88,138.0082550151731L212.94,149.10842310552167L213,139.66979305501545L213.54,138.39826896692202L213.95999999999998,163.2311588179505L214.14,156.35410223739532L214.44000000000003,179.9433698508231L214.62,162.34615843016437L214.98000000000002,166.23162195821297L215.04,146.90106714638455L215.1,160.48651310086817L215.4,160.19381613472873L215.64,162.67719915643627L215.76,151.5783585505376L215.94,160.35490459439438L216.17999999999998,166.17993629503337L216.24,174.59280103078623L216.3,169.60157096166105L216.42000000000002,180.54488161500083L216.66,156.6469067080281L216.72,149.0770347987263L216.84,150.77940599852408L216.9,141.0065359023087L217.14,146.66176130540128L217.2,155.9336514653212L217.26,174.81626385169474L217.56,146.10659454636973L217.67999999999998,149.8698170701201L218.28,146.6312267357685L218.34,160.9911347612487L218.58,153.8821397235838L218.70000000000002,154.45194971626088L219,138.15650733833274L219.12,147.86573563530894L219.29999999999998,145.52205137406415L219.42,165.3665525712817L220.02,151.7862178299065L220.20000000000002,154.91431393702243L220.38,151.39445849772514L220.68,146.7832261533512L220.85999999999999,166.93138913364763L221.22,157.56569599029072L221.39999999999998,150.95804446034478L221.51999999999998,157.0540299983109L221.82000000000002,139.57444476058652L221.94,152.95278411575217L222.18,152.89159442720785L222.24,150.53811459470288L222.72,145.77667726031325L222.96,131.72612834884413L223.01999999999998,128.84130509614585L223.2,125.32655311774995L223.32,110.93977457460545L223.44,121.2071489591577L223.74,126.57515389233185L223.98000000000002,123.94269154119955L224.22,132.94816436472902L224.46,140.04386000098802L224.57999999999998,148.41120805555926L224.94,123.47861576804131L225.11999999999998,122.51485162215592L225.66,168.9544057570697L225.78,156.04518514070855L225.9,178.43026162969863L226.08,170.99845979683272L226.26,188.36161906038754L226.44,172.00776905383825L226.5,149.26846042187134L226.79999999999998,154.44204541987847L227.28,152.37627111215815L227.64000000000001,147.93415891815596L227.82,172.2641186619023L227.88,152.93184808262365L228.35999999999999,147.38814191697085L228.83999999999997,166.24055151577193L229.38,194.57115167255728L229.62,182.69196294642234L230.04,144.69630952841658L230.4,161.52668451255252L230.51999999999998,168.4261522143226L230.7,157.81836195199824L230.82000000000002,156.4125184619971L231.18,159.62380033588278L231.3,147.81873601929723L231.36,141.98862559266993L231.72,149.76600851899963L231.84,133.37397241507776L231.9,133.72513622250185L231.96,156.89108130884358L232.2,151.1798527690899L232.26,150.64406661878252L232.32,179.698217829067L232.44,174.6324378456379L232.61999999999998,172.1673997209748L232.74,149.22823773336378L233.04000000000002,147.8818716709817L233.1,141.4807128926263L233.28,131.65596971887368L233.58,162.1654823037949L233.64,154.20240717522393L233.76,149.57902572559004L233.82,169.8513788934663L234.12,167.30279436020177L234.23999999999998,151.20310227969446L234.42000000000002,131.1897590682286L234.48000000000002,137.78100884367439L234.54000000000002,163.88263832447007L234.72,165.10269862960024L234.9,131.21446042218528L235.08,143.97475154290117L235.32,144.6267288477307L235.56,132.63776569585795L235.68,151.10609206825114L235.98,130.76149207599448L236.04,133.9172409949409L236.16,159.77605466837505L236.34,177.0116746945583L236.64000000000001,119.9945559387873L236.76000000000002,134.9531337831556L237.24,146.84489062427602L237.3,143.20322900328793L237.54,128.02073664767084L237.66,130.4429240789735L237.95999999999998,142.26402587011086L238.07999999999998,142.14666994912488L238.20000000000002,140.7705592832577L238.32000000000002,144.28066938733448L238.5,146.14854986097788L238.8,163.8250981781181L238.86,169.30683432385817L238.92,168.41282991729332" style="fill: none;" fill="none"></path></g></g></g></g><g opacity="0.2"><g><g><g><path stroke="rgb(255, 112, 67)" stroke-width="2px" d="M30.240000000000002,46.40241287648676L30.84,-185.04011044544836L30.900000000000002,-28.511410302349503L31.08,36.19625553488729L31.14,104.37290052218096L31.2,171.66065904710973L31.32,53.80405406866754L31.56,18.05398534451211L31.62,-44.550646618008656L32.4,-89.12434880222594L32.82,14.174073413014392L32.88,-169.514481233699L36.42,-131.5611534246377L36.54,5.833951234817485L36.96,-52.13074331837044L38.64,-206.89876722437998L38.76,14.359923356345696L38.82,-9.066824657576436L39.72,-38.40662458113264L39.839999999999996,87.31196050133023L40.199999999999996,-161.27472556063114L40.26,18.07579186345847L40.32,15.163561872073569L40.62,79.6310734110219L41.04,38.542928983058225L41.1,26.347244701215185L41.16,5.123049297503037L41.4,-77.01216982943676L41.46,103.3638191648892L41.52,74.49533206011567L41.94,-22.07448385655884L42.12,75.089854065861L42.18000000000001,80.05976225648607L42.24,49.558517932891824L42.300000000000004,-39.803277956587955L42.42,104.52954951141561L42.660000000000004,0.2821904846599843L42.78,-4.700716840369389L42.9,170.39559835834163L43.14,60.53054094314573L43.2,96.34711248534066L43.26,168.16681198775768L43.44,63.32441287381307L43.74,30.82544650350297L44.339999999999996,6.961484849452953L44.64,-3.038664470825899L44.7,87.78963159237588L44.76,127.78288153665406L45.480000000000004,-14.947096141321346L45.54,87.0256498562438L45.6,97.82524594238825L46.26,78.94654652902057L46.44,90.91620600649287L46.56,-16.081553207976505L46.68,33.395365955574164L46.92,1.0845102476222006L47.1,68.24119416730744L47.28,52.49707588127679L47.4,60.42179093829221L47.7,65.8903760675873L47.82,10.187719294003053L47.88,84.09881938781056L48.36,106.74844523625714L48.48,82.52140268683432L48.72,15.201240522520855L48.96,130.42288327855724L49.080000000000005,49.40973436193804L49.14,38.13307946281771L49.32,98.16468348460538L50.22,138.2898087054491L50.28,26.062488300459698L50.58,38.88085937925745L50.699999999999996,-11.179231096591286L50.76,82.8521270411355L51.12,-60.969354041985135L51.239999999999995,92.26354744817529L51.480000000000004,82.99959185932363L51.72,110.20503752997942L51.78,72.6917492598295L51.84,6.861966113959023L51.9,19.17657363627637L51.96,77.60504527815749L52.02,97.2903033026627L52.68000000000001,3.4738547674247084L53.160000000000004,83.37529510259627L53.4,41.88502527773378L53.519999999999996,91.7531901278666L53.64,36.72573477029798L53.82,52.54521035722322L54.120000000000005,52.07936094275541L54.24,103.10854630810873L54.540000000000006,-26.530361058456585L54.839999999999996,104.21653412282467L54.9,35.02741669969897L55.26,72.37115104283605L55.32,51.08695238828657L55.56,20.556036127465084L55.8,61.81203894317148L56.1,145.31084842979908L56.16,-19.224141048533603L56.22,32.881287868533796L56.34,129.90202303443635L56.58,75.07398193436009L56.64,89.62618321180344L56.76,-83.9757496118546L57,135.4948535135814L57.12,-83.66819762757848L57.36,88.65812448518616L57.66,-38.49677075232779L57.9,16.671084676470052L57.96,131.9660124076264L58.08,83.98912741669587L58.2,98.81393373012543L58.44,87.96620316803454L58.5,2.831198285732934L58.8,71.04990206658839L58.86,100.36921422396387L59.22,61.00190086024148L59.339999999999996,97.35167240457875L59.64,7.115496333156297L59.879999999999995,134.19950860951627L60.54,83.12298943953854L60.6,57.98190992857728L60.66,101.52858629822731L60.72,21.464232898184218L60.78,95.91814104999814L60.839999999999996,81.6546995299203L61.02,-12.919231174247617L61.08,146.47657877632548L61.14,95.2134560900075L61.980000000000004,97.61287964880466L62.04,111.69273194457803L62.16,85.7484849010195L62.22,121.68647589428085L62.28,119.55127387174537L62.4,85.66483829702649L62.519999999999996,118.25602316430636L62.64,128.38908392403806L62.760000000000005,12.501847807850133L63,67.1971658617258L63.12,81.12978883087634L63.36,89.10791337490082L63.72,136.31167955696583L63.84,100.65133311918802L64.08,40.3893712482282L64.25999999999999,73.75838475567953L64.38,73.59443552792071L65.04,-30.14275457177846L65.1,-8.206903657742915L65.28,136.28850718694073L65.4,92.0553258061409L65.46,32.44398003177981L65.64,108.34743296461446L65.76,73.73638984348092L66.11999999999999,82.04410838229315L66.18,62.2580599678414L66.48,95.36567783781459L66.78,-41.48864399109571L66.84,79.80500748114926L66.96,145.995045623609L67.32,81.0338495671749L67.38,97.54256186740739L67.56,68.78508548651422L67.67999999999999,158.0720892548561L67.74,57.62806030256406L67.98,96.8729651506458L68.22,77.6585018634796L68.52,97.55480742880275L68.58,-32.265946524483844L68.64,66.01551628538539L68.94000000000001,72.990069974746L69.06,25.31621553003786L69.3,146.48840045290333L69.48,62.53188955996717L69.6,49.878174183624125L70.02000000000001,134.89840047700062L70.2,15.783422770244723L70.5,23.40830996632574L70.55999999999999,29.256083614059843L70.80000000000001,34.73512456885404L71.04,78.81335249968936L71.52,146.70905604958534L71.64,71.47472885038171L71.76,41.37080589575425L71.82000000000001,169.6966593925442L71.94,92.35972220344202L72.12,29.083185706819783L72.60000000000001,36.43033415079115L72.9,141.4697455082621L73.02,112.94036625751426L73.2,72.0414157531091L73.25999999999999,63.52655883346284L73.38,132.3608846643141L73.5,121.80012412369251L73.56,45.48823462000913L73.68,-15.664167957646534L73.74000000000001,128.77317066703523L73.86,120.4357330926827L73.92,57.352535171168185L73.98,88.0302097754819L74.27999999999999,59.555464567882666L74.52000000000001,135.66822240395203L74.64,92.63364599219389L75.36,86.65291380669389L75.84,72.85527460277079L75.89999999999999,162.12419261889798L76.13999999999999,105.5243129815374L76.32000000000001,117.56989493966103L76.5,140.80330437847545L76.56,73.9721639986549L76.67999999999999,49.37653005123136L76.74,-1.6703642798321756L76.8,141.9687521351235L76.92,85.85266636950628L77.28,-51.18854156562262L78.24000000000001,43.91962530357495L78.3,100.84570785718304L78.36,114.10680307873656L78.42,93.27013259487492L78.6,79.56301634865147L79.08,122.11050200675214L79.14,108.32798136132104L79.67999999999999,133.954738676548L79.92,118.0324474722147L79.98,93.20645567561898L80.10000000000001,16.040155674730013L80.16,24.581905731133027L80.34,61.866013609937255L80.39999999999999,105.3498608299664L80.58,63.638794113482724L80.69999999999999,124.87371293561799L81.06,58.190461258803076L81.42,113.5578251417194L81.6,71.37313778911317L81.72,30.67892365157602L81.96000000000001,62.39822454750536L82.2,140.51153032907416L82.25999999999999,17.35843745725493L83.04,122.38324833767754L83.16,86.73147379287651L83.39999999999999,53.57251876166887L83.52000000000001,141.31667599081993L83.7,179.59462892264128L83.82000000000001,137.6980184018612L83.88,86.71301125415734L84.06,138.96934316626616L84.11999999999999,193.56796838343143L84.42,-10.096299584422816L84.48,119.96861202376229L84.60000000000001,53.61989966460634L84.66,109.13373930113656L85.08,164.52239162155558L85.14,97.84502723387308L85.25999999999999,79.87273485532828L85.68,102.42213549358503L85.8,90.00885700540883L85.86,56.54578816677842L85.92,128.10936704277992L86.34,81.42938120024544L86.52,148.6662264487573L86.7,92.12173442755426L86.94,51.41197784670759L87.12,111.24468569244657L87.3,153.13086393688405L87.6,9.070924094745077L87.78,132.44740426540375L87.89999999999999,97.83052095345087L88.02000000000001,85.2264001007591L88.08000000000001,144.1646638831922L88.67999999999999,118.83302459759372L88.74,158.9078488200903L88.91999999999999,94.70356975282941L89.16,56.41730396875311L89.4,159.39446859061718L89.52,146.3430079604898L89.64,117.23022190587861L89.75999999999999,129.8971248098782L89.94000000000001,105.32494582235813L90.12,143.74680764973164L90.18,165.8133563825062L90.24,159.07014960689204L90.36,20.279380636555796L90.66,91.45802499992506L90.78,62.7052584503378L90.9,81.91656615052904L91.32,53.43861825764177L91.55999999999999,95.39063994373593L91.68,92.5882432184049L92.1,172.3385921652828L92.16,128.2905071548053L92.22,120.09398773312569L92.58000000000001,146.66421845555305L92.76,151.67609124311377L93.36,102.1860787485327L93.47999999999999,82.68054788666112L93.60000000000001,81.00851067474909L93.72,117.89303646555967L94.02,148.74831880841936L94.14,98.64047064312865L94.2,80.88662024055208L94.25999999999999,102.2220147613968L94.32,132.45164311357905L94.38,96.58646611230714L94.62,72.16660306922026L94.8,110.65101145633628L95.1,108.80819576127188L95.16,99.59812064255986L95.22,92.0457648485899L95.46000000000001,98.44746175621236L95.88,130.68404342447008L96.11999999999999,114.934791422316L96.17999999999999,117.30887608868736L96.24000000000001,134.88201026405605L96.42,136.92042525325502L96.54,144.23672430217266L96.66,134.917804981981L96.72,137.50039388026508L96.84,139.38597484358718L97.26,109.03535092515604L97.32000000000001,81.04670740664004L97.5,80.35869524947233L97.56,24.238841618810365L97.67999999999999,79.60267312824725L97.74,31.185466008526927L97.92,175.49747602215837L98.03999999999999,99.46195941950593L98.34,66.49389385112693L98.75999999999999,117.63286538422108L99,153.79706957510538L99.06,83.00194677497659L99.12,114.2731543204614L99.72,160.97739579422134L99.83999999999999,31.067060849496283L100.02000000000001,111.56933436436312L100.44,180.39862067571707L100.56,132.36766682139464L100.61999999999999,170.45626098556178L100.67999999999999,148.7812405292477L100.92,130.8600969186851L101.04,90.99123361919607L101.34,123.7032256594726L101.58,213.72529279972827L101.64,30.320788079074426L101.82000000000001,105.27073566402707L102.3,133.59179907611437L102.36,51.6819453771625L102.42,130.7415033664022L102.84,136.944304097976L103.08,148.729714974761L103.38,127.90561974048615L103.5,126.95131372128213L103.74000000000001,6.219639320458662L104.64,66.52634458882467L104.76,129.38168087175913L104.94,122.33991788966316L105,121.21930772704738L105.06,93.57217407652308L105.11999999999999,-5.453865964497855L105.24,173.40405020330633L105.36000000000001,162.94521041214466L105.42,143.90138431319167L105.60000000000001,148.02262800080436L105.66,69.156125996794L106.02,129.69808733889033L106.25999999999999,78.45041289925574L106.56,107.11293908102171L106.62,136.13590865262915L106.68,41.507956183382426L106.92,97.34069849763597L107.1,110.05634815565176L107.4,96.94507266793931L107.58,74.56305943429469L107.88,87.62624754437378L107.94,175.60337657907178L108.12,4.897448377949839L108.36,59.90394498620714L108.6,78.47499821867261L108.89999999999999,155.93702852725983L109.2,152.24739378052098L109.32000000000001,45.814107848065234L109.5,141.44492469727993L109.56,156.44700906106402L110.10000000000001,126.15822522767951L110.69999999999999,84.28514031427247L110.88000000000001,118.78559659634317L111.24,146.6217828754868L111.6,96.22484526463916L111.84,105.47792114317417L111.9,182.19155925725187L111.96000000000001,56.555443320955526L112.08,101.47701364542756L112.5,51.784242913126924L112.55999999999999,153.23834228728498L112.80000000000001,107.71937695997102L113.16,156.04502495910438L113.39999999999999,170.73960443692548L113.58000000000001,88.37280290467397L113.82000000000001,49.96761388012339L115.02,177.07190198025532L115.25999999999999,169.41110232046674L115.86,141.8592956555741L116.16,123.47211423729146L116.27999999999999,167.21363632806708L116.34,109.04232147548879L116.4,122.23196855613162L116.46000000000001,157.30810751872403L116.94,128.5855309878077L117.30000000000001,96.06343934578554L117.42,132.7674373026405L117.48,132.7091295910733L117.6,135.11420494743754L117.66,115.19585737160273L118.38000000000001,166.3049214759043L118.44,127.88852305284567L118.56,72.91800955576555L118.97999999999999,100.75843468308449L119.22,107.96212166547775L119.4,143.3327192813158L119.64,72.34595344534941L119.88,-35.471551907914034L119.94000000000001,147.53775086786064L120.12,69.33298016233103L120.53999999999999,64.96908596583773L120.6,171.35555617511272L120.66,130.37894055247307L120.78,143.0660957310881L120.96000000000001,183.68577678820915L121.67999999999999,79.1360701407705L122.04,94.66739824839999L122.22,97.20161717917237L122.28,148.6130053550005L122.46,150.38310125470161L122.88000000000001,154.31463293731213L123.06,112.9201610812119L123.12,155.61699549002307L123.72,128.25179234147072L123.9,21.749224790504975L123.96000000000001,136.94835455289908L124.08,169.9348355616842L124.25999999999999,103.5212217271328L124.32,149.09373783639498L124.38,155.51257852997097L124.56,140.96650003322532L124.8,136.5335126114743L125.1,157.724692097732L125.7,137.79551190989358L125.76,122.72475820566926L125.82000000000001,105.7702132740191L126.06,194.95548468615328L126.17999999999999,144.37891410929817L126.66,140.08924685418606L127.62,135.3492255296026L127.86,74.17798362672328L128.1,84.51022315238203L128.22,107.68155701458454L128.4,191.49481838835138L128.46,99.23155447202069L128.76,134.49716994804993L128.82,154.48786053274358L129.06,106.65033945015497L129.24,213.52225197213036L129.35999999999999,82.606368043593L129.72,196.55593246221542L129.96,148.97980701710495L130.2,132.64257967472076L130.44,139.41917915429386L130.62,58.520102351903894L130.74,149.63946598981107L131.1,123.41724470257759L131.16,127.63588770159652L131.22,118.18278528749943L131.28,177.80658856566464L131.64000000000001,177.63310192951135L131.7,101.61986282893588L132.12,165.67809002740043L132.23999999999998,110.06501424525464L132.42000000000002,130.42990092720302L132.54,125.36358248974595L132.6,124.76543391389507L132.66,133.03698094827786L132.72,28.535291031002977L133.07999999999998,150.86293886814798L133.32,94.09722607050622L133.38,47.43532598018644L133.5,179.49614635003465L133.8,175.17266250614608L134.28,137.17376707920005L134.34,199.80244273053748L134.58,139.99674576733793L134.7,161.99693297701222L135,126.54146420104163L135.18,101.96895552533013L135.24,96.72587711896215L135.89999999999998,129.48581524193287L136.5,162.01068568442548L136.62,118.21127976690019L136.8,122.0199790490525L137.04,94.99096365911619L137.1,113.50248462387492L137.16,124.32600665305341L137.34,113.05401448692594L137.51999999999998,162.142513862678L137.76000000000002,152.7013744200979L138,141.77786267229487L138.12,143.91202853194304L139.14,151.87399835458822L139.38,75.18263774258749L139.55999999999997,135.10714020047868L139.62,159.78844597935677L139.8,183.81576813225234L139.92000000000002,120.1668959217412L140.16,90.13748249837329L140.28,149.3038905092648L140.82,104.27163914910383L141.06,179.41544339060783L141.60000000000002,175.1746641844511L141.9,78.9691066209759L141.96,201.8033910116979L142.02,145.5707840195724L142.44,119.69968065619469L142.79999999999998,207.05598327730382L142.98,155.19749081560542L143.16,100.24242556520869L143.28,174.46022987365723L143.70000000000002,121.83756728257451L143.94,103.04953212184564L144.12,146.58824887658866L144.48,146.55000504638465L144.54,146.68286938752445L144.6,154.02436603392871L144.78,162.53225240324224L145.08,134.84871175672325L145.44,158.81888010672162L145.5,156.02430170135838L146.1,136.54533428805215L146.16,104.91952354354517L146.4,104.78524625301361L146.45999999999998,147.61828898319175L146.51999999999998,181.1539598714028L146.7,149.02525688920701L146.82,105.19542546144552L147,161.09010205737184L147.18,182.0319430742945L147.36,177.0257691826139L147.6,33.97161381585256L147.66,147.33645267784595L147.78,143.79192783364226L147.84,122.71232425102164L147.96,110.00609425561768L148.02,221.8688501683729L148.61999999999998,192.99402834049292L148.74,124.53427539340086L148.86,88.74845904963357L149.22,134.0427654236555L149.28,143.80200687263692L149.46,172.28918603488376L151.02,119.32421290448733L151.26,49.076607993670855L151.56,51.422245278954485L151.68,156.79591336420606L151.85999999999999,120.2951446282012L152.1,191.49590164955174L152.16,101.83076907481465L152.4,143.8497174637658L152.58,180.47228243734156L153.24,211.78769174963236L153.3,111.4515885817153L153.35999999999999,144.34255421161652L154.01999999999998,125.92678411730697L154.07999999999998,127.81707491193498L154.20000000000002,146.39594646436828L154.44,127.9603950785739L154.74,177.26469892476285L155.22,170.78929315720285L155.34,90.69686916257653L155.46,96.33957675525119L155.7,148.06412161460943L155.82,141.26402007681983L155.88,123.2258371583053L155.99999999999997,104.55597166504178L156.18,134.79101632322582L156.3,145.69776107157978L156.54,144.61153267749717L156.6,182.60727251746823L156.84,107.69144766032696L156.9,146.07101520257336L157.14,113.45811801297323L157.2,150.4058026415961L157.38,109.00322987564971L157.44,174.80211652815342L157.61999999999998,154.53283942171504L158.16,133.0294452181884L158.34,128.41282147381986L158.94,171.06340533920695L159.54,122.59052801345075L159.72,207.2977860165494L160.14000000000001,167.91568378252643L160.56,177.68823050494706L161.22,144.7304088196584L161.33999999999997,109.8402610953365L161.64000000000001,209.32030532509089L161.94,153.1417436472007L162.06,107.72060151611055L162.18,165.18577136099339L162.54,143.22147306587013L162.66,152.72398161036628L162.72,114.5820721558162L162.84,159.405489595873L162.9,160.05944967269897L163.26,107.29148878582885L163.5,114.60840011281626L164.16,172.36228261675151L164.34,154.00807001761027L164.51999999999998,116.3974766326802L164.64,33.46328172300542L165.42000000000002,168.19502387728008L165.84,209.45872726717167L166.02,130.2084917575121L166.56,144.53966065176894L166.79999999999998,118.23129654995032L166.85999999999999,134.14251965071472L167.52,178.24994853564672L168.29999999999998,191.3438918441534L168.35999999999999,167.27265051433017L168.66,134.30703405823024L168.96,195.17573994717426L169.14000000000001,193.7748948218567L169.44,130.0396914035082L169.92,135.56361705064774L170.1,107.61858657002449L170.39999999999998,169.05221317495617L170.51999999999998,201.52551096464907L170.57999999999998,45.27586832642553L170.64000000000001,180.62688264995813L170.76000000000002,131.8997921794653L171.12,160.6244881344693L171.42,118.57078119048049L171.54,193.60950909554958L172.26,173.61439126942838L172.38000000000002,109.12705134068216L172.68,166.49854264089038L173.04,111.12133521054471L173.34,160.74788571468423L173.46,227.433445208839L173.57999999999998,171.08718998730183L173.64,140.12645452150275L173.82,135.27796578194412L173.88,139.20766063034534L174.9,149.54687070633682L175.67999999999998,194.14110775504793L175.85999999999999,136.76617827798637L176.10000000000002,169.71493353801114L176.16000000000003,45.20625701972414L176.34,184.43572322704964L177.24,183.2774815122996L177.72,145.98845185978072L177.83999999999997,191.86446949839592L177.89999999999998,152.54411315279347L178.14000000000001,146.96494118443556L178.38,147.20095083117485L178.5,162.73364478988307L178.62,92.98170252570083L179.04,134.20581978346618L179.1,168.3210589630263L179.34,102.7221046494586L179.57999999999998,163.49951045853751L179.88000000000002,150.18133208155632L180,128.70596137429985L180.18,220.81417764403992L180.3,201.40274921166045L180.36,24.248590969613595L180.48,106.5854379747595L180.6,91.22253343462944L180.78,144.92925789739402L181.01999999999998,115.25416508316994L181.07999999999998,4.095740893057389L181.14,213.9114017837814L181.26,135.2261576375791L181.38,189.72031879637922L181.68,85.36458655127457L181.8,172.5030123761722L181.86,137.10147116865429L182.28,122.4475846333163L182.4,-13.275153126035441L182.57999999999998,139.4040605958019L183.9,88.72321435383387L183.96,184.905999882945L184.08,140.2531489836318L184.5,156.12297266721725L184.62,191.7154033375638L184.68,142.71530749542373L184.98,166.76709722195352L185.04,70.34691264586789L185.1,129.47041409356254L185.28,139.88507566707474L185.34,168.425946906209L185.52,121.66989728808403L185.88,186.59772418971573L185.94,75.4190712741443L186.06,136.96592222367013L186.18,129.03621474547046L186.29999999999998,114.714135825634L186.35999999999999,101.95543830948216L187.02,130.24207285472323L187.08,115.22962686206613L187.14000000000001,83.35824551326887L187.62,145.9405528753996L187.68,123.63493310553687L187.98,181.65423815271683L188.04,216.25889945243085L188.1,117.6358325779438L188.16,167.6848078519106L188.28,61.35768151709009L188.34,153.72336071516784L188.4,165.31425555901868L188.57999999999998,152.42165753883975L189.24,103.39405628187315L189.6,120.7730983091252L189.72,165.3505212600742L190.2,153.10750317360672L190.26,124.47888777724333L190.32,122.73803992995192L190.44,118.898585449372L190.86,120.54222237850938L191.04000000000002,152.04807371965475L191.16,173.5099743093763L191.34,139.08699475228786L191.46,177.45118469532048L191.58,135.68757981061935L192.12,104.12106584225381L192.35999999999999,160.87029423032487L192.48000000000002,136.97515349302972L192.60000000000002,176.87225223119768L192.72,151.1936161241361L192.78,90.94917482563426L193.02,133.7427020711558L193.08,156.77062157009328L193.14000000000001,133.55850056878157L193.44,120.86178443261554L193.73999999999998,200.091602823564L193.79999999999998,145.4966512748173L194.04,25.0397484323808L194.34,140.09004752550806L194.4,155.94574171517576L194.46,149.04932412718023L194.52,184.39674937299318L194.64000000000001,79.51822585293223L194.70000000000002,115.55375745253903L195.18,203.07714133922542L195.24,122.2054993041924L195.3,145.61020530760288L195.6,153.5586579144001L195.66,195.30015014111996L195.89999999999998,89.2237281267132L196.07999999999998,144.64817516505718L196.26000000000002,153.59063766896725L196.38000000000002,127.36714472728116L196.5,162.33217876936706L196.62,125.92862095151628L196.68,206.66989485600166L196.74,142.61663652956486L197.04,150.97569222961152L197.1,162.06296481192112L197.82,142.92649633118083L197.94000000000003,186.00134180060454L198.36,138.62839847803116L198.72,179.78945109461034L198.78,163.05527916976382L199.44,130.41515915521552L199.5,111.14073971552507L200.04000000000002,144.8872462021453L200.16,196.59029068159205L200.28,186.07022308345353L200.46,173.3510646011148L200.64,207.21661207399197L200.82,174.59309421479702L201.06,186.2563791658197L201.12,160.9571435196059L201.42,80.0287244681801L201.54,186.0029902415616L201.66000000000003,123.53621504136493L201.72,128.21854093245096L201.96,142.13943642164978L202.08,116.22373095580508L202.26,150.6787844640868L202.74,82.09379710257052L202.85999999999999,144.53565729515893L202.92,164.88683836800712L203.04,152.30339367474826L203.33999999999997,133.62566276320388L203.46,128.05558076926638L203.58,137.89959918175424L203.70000000000002,122.76092971009868L204.18,133.7571141549519L204.66,118.67190126861844L204.72,138.14418072147026L204.84,179.09508066517967L204.89999999999998,193.48213170788117L205.07999999999998,151.54454565473964L205.2,197.6032576497112L205.26000000000002,103.26109774410725L205.44,120.87699718773365L205.8,184.3248302489519L206.04,162.22192161849568L206.1,90.59659685407365L206.94,161.38206450002534L207.12,138.37877741881778L207.3,179.17919825230325L207.48000000000002,151.7169725788491L207.72,157.77386273656572L207.9,135.6540929100343L207.96,128.30430696053165L208.02,165.31703435948918L208.38,183.09956763471877L208.67999999999998,141.2166862721954L208.73999999999998,163.82072095360073L208.79999999999998,179.04737007405078L209.04000000000002,169.32886866586549L209.16,143.98931686367305L209.22,184.743911038552L209.58,128.23818092899663L209.76,125.03535434603691L209.88,189.12591453641653L209.94,180.16084484223808L210.06,145.2562143866505L210.12,212.20945714307683L210.23999999999998,68.51540054593767L210.42,151.93998309118408L210.6,125.6451362052134L211.08,182.38986670438732L211.14000000000001,125.41345960327556L211.44,155.65236632313045L211.68,150.7510332763195L211.74,168.69205237499307L212.04,46.301857978105524L212.82000000000002,110.26720730321748L212.88,177.46441932129008L212.94,165.75867524104459L213,125.51184797925609L213.54,136.4909828347819L213.95999999999998,200.48049359449317L214.14,146.03851736656256L214.44000000000003,215.32727127096484L214.62,135.95034129917622L214.98000000000002,172.05981725028585L215.04,117.90523492864199L215.1,180.86468203259366L215.4,159.75477068551947L215.64,166.40227368899752L215.76,134.93009764168943L215.94,173.51972366017955L216.17999999999998,174.91748384599174L216.24,187.2120981344155L216.3,162.1147258579731L216.42000000000002,196.95984759501047L216.66,120.79994434756892L216.72,137.72222693477357L216.84,153.33296279822076L216.9,126.34723075798578L217.14,155.14459941004003L217.2,169.841486705201L217.26,203.14018243125506L217.56,103.04209058838231L217.67999999999998,155.51465085574557L218.28,141.7733412342412L218.34,182.530996799469L218.58,143.2186471670866L218.70000000000002,155.3066647052765L219,113.71334377144063L219.12,162.42957808077335L219.29999999999998,142.00652498219694L219.42,195.133304367108L220.02,131.4157157178436L220.20000000000002,159.6064580976963L220.38,146.11467533877916L220.68,139.86637763679028L220.85999999999999,197.15363360409225L221.22,143.51715627525533L221.39999999999998,141.04656716542584L221.51999999999998,166.19800830526012L221.82000000000002,113.35506690399987L221.94,173.02029314850057L222.18,152.79980989439147L222.24,147.0078948459455L222.72,138.63452125872882L222.96,110.6503049816404L223.01999999999998,124.51407021709849L223.2,120.05442515015602L223.32,89.35960675988878L223.44,136.60821053598607L223.74,134.62716129209312L223.98000000000002,119.99399801450116L224.22,146.4563736000231L224.46,150.68740345537663L224.57999999999998,160.9622301374163L224.94,86.07972733676432L225.11999999999998,121.06920540332794L225.66,238.61373695944036L225.78,136.68135421616688L225.9,212.00787636318378L226.08,159.850757047534L226.26,214.40635795571976L226.44,147.4769940440144L226.5,115.15949747392108L226.79999999999998,162.2024229168892L227.28,149.2776096505778L227.64000000000001,141.27099062715257L227.82,208.75905827752183L227.88,123.9334422137056L228.35999999999999,139.07258266849175L228.83999999999997,194.51916591397352L229.38,237.06705190773522L229.62,164.87317985721995L230.04,87.70282940140791L230.4,186.7722469887563L230.51999999999998,178.7753537669778L230.7,141.90667655851158L230.82000000000002,154.30375322699547L231.18,164.4407231467111L231.3,130.11113954441888L231.36,133.24345995272907L231.72,161.43208290849412L231.84,108.78591825919491L231.9,134.251881933638L231.96,191.63999893835611L232.2,142.6130099594593L232.26,149.8403873933213L232.32,223.2794446444937L232.44,167.0337678704943L232.61999999999998,168.4698425339801L232.74,114.81949475194726L233.04000000000002,145.86232257740838L233.1,131.87897472509314L233.28,116.91885495824474L233.58,207.92975118117673L233.64,142.25779448236736L233.76,142.64395355113913L233.82,200.25990864528077L234.12,163.4799175603049L234.23999999999998,127.0535641589335L234.42000000000002,101.16974425102983L234.48000000000002,147.66788350684303L234.54000000000002,203.03508254566364L234.72,166.93278908729553L234.9,80.38210311106272L235.08,163.11518822397503L235.32,145.60469480497497L235.56,114.6543209680489L235.68,178.808581626841L235.98,100.24459208760942L236.04,138.65086437336035L236.16,198.56427517852612L236.34,202.86510473383325L236.64000000000001,34.468877805130816L236.76000000000002,157.3910005497081L237.24,164.6825258859566L237.3,137.7407365718058L237.54,105.24699811424527L237.66,134.07620522592748L237.95999999999998,159.9956785568169L238.07999999999998,141.97063606764587L238.20000000000002,138.70639328445705L238.32000000000002,149.54583454344953L238.5,148.95037057144302L238.8,190.33992065382856L238.86,177.5294385424682L238.92,167.07182330744607" style="fill: none;" fill="none"></path></g></g></g></g></g></g><g transform="translate(60, 177)" clip-path="url(#clip_1)"><clipPath id="clip_1"><rect width="270" height="23"></rect></clipPath><g><g><line x1="0" y1="0" x2="0" y2="5" style="visibility: inherit;" fill="rgb(0, 0, 0)" stroke="rgb(204, 204, 204)" stroke-width="1px"></line><line x1="30" y1="0" x2="30" y2="5" style="visibility: inherit;" fill="rgb(0, 0, 0)" stroke="rgb(204, 204, 204)" stroke-width="1px"></line><line x1="60" y1="0" x2="60" y2="5" style="visibility: inherit;" fill="rgb(0, 0, 0)" stroke="rgb(204, 204, 204)" stroke-width="1px"></line><line x1="90" y1="0" x2="90" y2="5" style="visibility: inherit;" fill="rgb(0, 0, 0)" stroke="rgb(204, 204, 204)" stroke-width="1px"></line><line x1="120" y1="0" x2="120" y2="5" style="visibility: inherit;" fill="rgb(0, 0, 0)" stroke="rgb(204, 204, 204)" stroke-width="1px"></line><line x1="150" y1="0" x2="150" y2="5" style="visibility: inherit;" fill="rgb(0, 0, 0)" stroke="rgb(204, 204, 204)" stroke-width="1px"></line><line x1="180" y1="0" x2="180" y2="5" style="visibility: inherit;" fill="rgb(0, 0, 0)" stroke="rgb(204, 204, 204)" stroke-width="1px"></line><line x1="210" y1="0" x2="210" y2="5" style="visibility: inherit;" fill="rgb(0, 0, 0)" stroke="rgb(204, 204, 204)" stroke-width="1px"></line><line x1="240" y1="0" x2="240" y2="5" style="visibility: inherit;" fill="rgb(0, 0, 0)" stroke="rgb(204, 204, 204)" stroke-width="1px"></line><line x1="270" y1="0" x2="270" y2="5" style="visibility: inherit;" fill="rgb(0, 0, 0)" stroke="rgb(204, 204, 204)" stroke-width="1px"></line></g><g transform="translate(0, 8)"><text x="0" y="0" dx="0em" dy="0.95em" style="text-anchor: middle; visibility: hidden; font-family: Roboto, sans-serif; font-size: 12px; font-weight: 200;" fill="rgb(33, 33, 33)" stroke="none" stroke-width="1px">-500</text><text x="30" y="0" dx="0em" dy="0.95em" style="text-anchor: middle; visibility: inherit; font-family: Roboto, sans-serif; font-size: 12px; font-weight: 200;" fill="rgb(33, 33, 33)" stroke="none" stroke-width="1px">0</text><text x="60" y="0" dx="0em" dy="0.95em" style="text-anchor: middle; visibility: inherit; font-family: Roboto, sans-serif; font-size: 12px; font-weight: 200;" fill="rgb(33, 33, 33)" stroke="none" stroke-width="1px">500</text><text x="90" y="0" dx="0em" dy="0.95em" style="text-anchor: middle; visibility: inherit; font-family: Roboto, sans-serif; font-size: 12px; font-weight: 200;" fill="rgb(33, 33, 33)" stroke="none" stroke-width="1px">1k</text><text x="120" y="0" dx="0em" dy="0.95em" style="text-anchor: middle; visibility: inherit; font-family: Roboto, sans-serif; font-size: 12px; font-weight: 200;" fill="rgb(33, 33, 33)" stroke="none" stroke-width="1px">1.5k</text><text x="150" y="0" dx="0em" dy="0.95em" style="text-anchor: middle; visibility: inherit; font-family: Roboto, sans-serif; font-size: 12px; font-weight: 200;" fill="rgb(33, 33, 33)" stroke="none" stroke-width="1px">2k</text><text x="180" y="0" dx="0em" dy="0.95em" style="text-anchor: middle; visibility: inherit; font-family: Roboto, sans-serif; font-size: 12px; font-weight: 200;" fill="rgb(33, 33, 33)" stroke="none" stroke-width="1px">2.5k</text><text x="210" y="0" dx="0em" dy="0.95em" style="text-anchor: middle; visibility: inherit; font-family: Roboto, sans-serif; font-size: 12px; font-weight: 200;" fill="rgb(33, 33, 33)" stroke="none" stroke-width="1px">3k</text><text x="240" y="0" dx="0em" dy="0.95em" style="text-anchor: middle; visibility: inherit; font-family: Roboto, sans-serif; font-size: 12px; font-weight: 200;" fill="rgb(33, 33, 33)" stroke="none" stroke-width="1px">3.5k</text><text x="270" y="0" dx="0em" dy="0.95em" style="text-anchor: middle; visibility: hidden; font-family: Roboto, sans-serif; font-size: 12px; font-weight: 200;" fill="rgb(33, 33, 33)" stroke="none" stroke-width="1px">4k</text></g><line x1="0" y1="0" x2="270" y2="0" fill="rgb(0, 0, 0)" stroke="rgb(204, 204, 204)" stroke-width="1px"></line></g></g></g></g></svg>