<svg viewBox="0 0 330 200" xmlns="http://www.w3.org/2000/svg"><g><g><g><g><g><line x1="51.5625" y1="177" x2="46.5625" y2="177" style="visibility: inherit;" fill="rgb(0, 0, 0)" stroke="rgb(204, 204, 204)" stroke-width="1px"></line><line x1="51.5625" y1="163.3846153846154" x2="46.5625" y2="163.3846153846154" style="visibility: inherit;" fill="rgb(0, 0, 0)" stroke="rgb(204, 204, 204)" stroke-width="1px"></line><line x1="51.5625" y1="149.76923076923077" x2="46.5625" y2="149.76923076923077" style="visibility: inherit;" fill="rgb(0, 0, 0)" stroke="rgb(204, 204, 204)" stroke-width="1px"></line><line x1="51.5625" y1="136.15384615384613" x2="46.5625" y2="136.15384615384613" style="visibility: inherit;" fill="rgb(0, 0, 0)" stroke="rgb(204, 204, 204)" stroke-width="1px"></line><line x1="51.5625" y1="122.53846153846153" x2="46.5625" y2="122.53846153846153" style="visibility: inherit;" fill="rgb(0, 0, 0)" stroke="rgb(204, 204, 204)" stroke-width="1px"></line><line x1="51.5625" y1="108.92307692307693" x2="46.5625" y2="108.92307692307693" style="visibility: inherit;" fill="rgb(0, 0, 0)" stroke="rgb(204, 204, 204)" stroke-width="1px"></line><line x1="51.5625" y1="95.3076923076923" x2="46.5625" y2="95.3076923076923" style="visibility: inherit;" fill="rgb(0, 0, 0)" stroke="rgb(204, 204, 204)" stroke-width="1px"></line><line x1="51.5625" y1="81.6923076923077" x2="46.5625" y2="81.6923076923077" style="visibility: inherit;" fill="rgb(0, 0, 0)" stroke="rgb(204, 204, 204)" stroke-width="1px"></line><line x1="51.5625" y1="68.07692307692307" x2="46.5625" y2="68.07692307692307" style="visibility: inherit;" fill="rgb(0, 0, 0)" stroke="rgb(204, 204, 204)" stroke-width="1px"></line><line x1="51.5625" y1="54.46153846153847" x2="46.5625" y2="54.46153846153847" style="visibility: inherit;" fill="rgb(0, 0, 0)" stroke="rgb(204, 204, 204)" stroke-width="1px"></line><line x1="51.5625" y1="40.84615384615384" x2="46.5625" y2="40.84615384615384" style="visibility: inherit;" fill="rgb(0, 0, 0)" stroke="rgb(204, 204, 204)" stroke-width="1px"></line><line x1="51.5625" y1="27.230769230769234" x2="46.5625" y2="27.230769230769234" style="visibility: inherit;" fill="rgb(0, 0, 0)" stroke="rgb(204, 204, 204)" stroke-width="1px"></line><line x1="51.5625" y1="13.615384615384606" x2="46.5625" y2="13.615384615384606" style="visibility: inherit;" fill="rgb(0, 0, 0)" stroke="rgb(204, 204, 204)" stroke-width="1px"></line><line x1="51.5625" y1="0" x2="46.5625" y2="0" style="visibility: inherit;" fill="rgb(0, 0, 0)" stroke="rgb(204, 204, 204)" stroke-width="1px"></line></g><g transform="translate(41.5625, 0)"><text x="0" y="177" dx="0em" dy="0.3em" style="text-anchor: end; visibility: hidden; font-family: Roboto, sans-serif; font-size: 12px; font-weight: 200;" fill="rgb(33, 33, 33)" stroke="none" stroke-width="1px">-340</text><text x="0" y="163.3846153846154" dx="0em" dy="0.3em" style="text-anchor: end; visibility: inherit; font-family: Roboto, sans-serif; font-size: 12px; font-weight: 200;" fill="rgb(33, 33, 33)" stroke="none" stroke-width="1px">-320</text><text x="0" y="149.76923076923077" dx="0em" dy="0.3em" style="text-anchor: end; visibility: hidden; font-family: Roboto, sans-serif; font-size: 12px; font-weight: 200;" fill="rgb(33, 33, 33)" stroke="none" stroke-width="1px">-300</text><text x="0" y="136.15384615384613" dx="0em" dy="0.3em" style="text-anchor: end; visibility: inherit; font-family: Roboto, sans-serif; font-size: 12px; font-weight: 200;" fill="rgb(33, 33, 33)" stroke="none" stroke-width="1px">-280</text><text x="0" y="122.53846153846153" dx="0em" dy="0.3em" style="text-anchor: end; visibility: hidden; font-family: Roboto, sans-serif; font-size: 12px; font-weight: 200;" fill="rgb(33, 33, 33)" stroke="none" stroke-width="1px">-260</text><text x="0" y="108.92307692307693" dx="0em" dy="0.3em" style="text-anchor: end; visibility: inherit; font-family: Roboto, sans-serif; font-size: 12px; font-weight: 200;" fill="rgb(33, 33, 33)" stroke="none" stroke-width="1px">-240</text><text x="0" y="95.3076923076923" dx="0em" dy="0.3em" style="text-anchor: end; visibility: hidden; font-family: Roboto, sans-serif; font-size: 12px; font-weight: 200;" fill="rgb(33, 33, 33)" stroke="none" stroke-width="1px">-220</text><text x="0" y="81.6923076923077" dx="0em" dy="0.3em" style="text-anchor: end; visibility: inherit; font-family: Roboto, sans-serif; font-size: 12px; font-weight: 200;" fill="rgb(33, 33, 33)" stroke="none" stroke-width="1px">-200</text><text x="0" y="68.07692307692307" dx="0em" dy="0.3em" style="text-anchor: end; visibility: hidden; font-family: Roboto, sans-serif; font-size: 12px; font-weight: 200;" fill="rgb(33, 33, 33)" stroke="none" stroke-width="1px">-180</text><text x="0" y="54.46153846153847" dx="0em" dy="0.3em" style="text-anchor: end; visibility: inherit; font-family: Roboto, sans-serif; font-size: 12px; font-weight: 200;" fill="rgb(33, 33, 33)" stroke="none" stroke-width="1px">-160</text><text x="0" y="40.84615384615384" dx="0em" dy="0.3em" style="text-anchor: end; visibility: hidden; font-family: Roboto, sans-serif; font-size: 12px; font-weight: 200;" fill="rgb(33, 33, 33)" stroke="none" stroke-width="1px">-140</text><text x="0" y="27.230769230769234" dx="0em" dy="0.3em" style="text-anchor: end; visibility: inherit; font-family: Roboto, sans-serif; font-size: 12px; font-weight: 200;" fill="rgb(33, 33, 33)" stroke="none" stroke-width="1px">-120</text><text x="0" y="13.615384615384606" dx="0em" dy="0.3em" style="text-anchor: end; visibility: hidden; font-family: Roboto, sans-serif; font-size: 12px; font-weight: 200;" fill="rgb(33, 33, 33)" stroke="none" stroke-width="1px">-100</text><text x="0" y="0" dx="0em" dy="0.3em" style="text-anchor: end; visibility: hidden; font-family: Roboto, sans-serif; font-size: 12px; font-weight: 200;" fill="rgb(33, 33, 33)" stroke="none" stroke-width="1px">-80</text></g><line x1="51.5625" y1="0" x2="51.5625" y2="177" fill="rgb(0, 0, 0)" stroke="rgb(204, 204, 204)" stroke-width="1px"></line></g></g><g transform="translate(51, 0)" clip-path="url(#clip_0)"><clipPath id="clip_0"><rect width="278" height="177"></rect></clipPath><g><g><g><line x1="0" y1="0" x2="0" y2="177" fill="rgb(0, 0, 0)" stroke="rgb(66, 66, 66)" stroke-width="1px" opacity="0.25"></line><line x1="30.9375" y1="0" x2="30.9375" y2="177" fill="rgb(0, 0, 0)" stroke="rgb(66, 66, 66)" stroke-width="1px" opacity="0.25"></line><line x1="61.875" y1="0" x2="61.875" y2="177" fill="rgb(0, 0, 0)" stroke="rgb(66, 66, 66)" stroke-width="1px" opacity="0.25"></line><line x1="92.8125" y1="0" x2="92.8125" y2="177" fill="rgb(0, 0, 0)" stroke="rgb(66, 66, 66)" stroke-width="1px" opacity="0.25"></line><line x1="123.75" y1="0" x2="123.75" y2="177" fill="rgb(0, 0, 0)" stroke="rgb(66, 66, 66)" stroke-width="1px" opacity="0.25"></line><line x1="154.6875" y1="0" x2="154.6875" y2="177" fill="rgb(0, 0, 0)" stroke="rgb(66, 66, 66)" stroke-width="1px" opacity="0.25"></line><line x1="185.625" y1="0" x2="185.625" y2="177" fill="rgb(0, 0, 0)" stroke="rgb(66, 66, 66)" stroke-width="1px" opacity="0.25"></line><line x1="216.5625" y1="0" x2="216.5625" y2="177" fill="rgb(0, 0, 0)" stroke="rgb(66, 66, 66)" stroke-width="1px" opacity="0.25"></line><line x1="247.5" y1="0" x2="247.5" y2="177" fill="rgb(0, 0, 0)" stroke="rgb(66, 66, 66)" stroke-width="1px" opacity="0.25"></line><line x1="278.4375" y1="0" x2="278.4375" y2="177" fill="rgb(0, 0, 0)" stroke="rgb(66, 66, 66)" stroke-width="1px" opacity="0.25"></line></g><g><line x1="0" y1="177" x2="278.4375" y2="177" fill="rgb(0, 0, 0)" stroke="rgb(66, 66, 66)" stroke-width="1px" opacity="0.25"></line><line x1="0" y1="163.3846153846154" x2="278.4375" y2="163.3846153846154" fill="rgb(0, 0, 0)" stroke="rgb(66, 66, 66)" stroke-width="1px" opacity="0.25"></line><line x1="0" y1="149.76923076923077" x2="278.4375" y2="149.76923076923077" fill="rgb(0, 0, 0)" stroke="rgb(66, 66, 66)" stroke-width="1px" opacity="0.25"></line><line x1="0" y1="136.15384615384613" x2="278.4375" y2="136.15384615384613" fill="rgb(0, 0, 0)" stroke="rgb(66, 66, 66)" stroke-width="1px" opacity="0.25"></line><line x1="0" y1="122.53846153846153" x2="278.4375" y2="122.53846153846153" fill="rgb(0, 0, 0)" stroke="rgb(66, 66, 66)" stroke-width="1px" opacity="0.25"></line><line x1="0" y1="108.92307692307693" x2="278.4375" y2="108.92307692307693" fill="rgb(0, 0, 0)" stroke="rgb(66, 66, 66)" stroke-width="1px" opacity="0.25"></line><line x1="0" y1="95.3076923076923" x2="278.4375" y2="95.3076923076923" fill="rgb(0, 0, 0)" stroke="rgb(66, 66, 66)" stroke-width="1px" opacity="0.25"></line><line x1="0" y1="81.6923076923077" x2="278.4375" y2="81.6923076923077" fill="rgb(0, 0, 0)" stroke="rgb(66, 66, 66)" stroke-width="1px" opacity="0.25"></line><line x1="0" y1="68.07692307692307" x2="278.4375" y2="68.07692307692307" fill="rgb(0, 0, 0)" stroke="rgb(66, 66, 66)" stroke-width="1px" opacity="0.25"></line><line x1="0" y1="54.46153846153847" x2="278.4375" y2="54.46153846153847" fill="rgb(0, 0, 0)" stroke="rgb(66, 66, 66)" stroke-width="1px" opacity="0.25"></line><line x1="0" y1="40.84615384615384" x2="278.4375" y2="40.84615384615384" fill="rgb(0, 0, 0)" stroke="rgb(66, 66, 66)" stroke-width="1px" opacity="0.25"></line><line x1="0" y1="27.230769230769234" x2="278.4375" y2="27.230769230769234" fill="rgb(0, 0, 0)" stroke="rgb(66, 66, 66)" stroke-width="1px" opacity="0.25"></line><line x1="0" y1="13.615384615384606" x2="278.4375" y2="13.615384615384606" fill="rgb(0, 0, 0)" stroke="rgb(66, 66, 66)" stroke-width="1px" opacity="0.25"></line><line x1="0" y1="0" x2="278.4375" y2="0" fill="rgb(0, 0, 0)" stroke="rgb(66, 66, 66)" stroke-width="1px" opacity="0.25"></line></g></g></g><g><g><line x1="0" y1="-54.46153846153847" x2="278.4375" y2="-54.46153846153847" fill="rgb(0, 0, 0)" stroke="rgb(153, 153, 153)" stroke-width="1.5px"></line></g></g><g><g><line x1="30.9375" y1="0" x2="30.9375" y2="177" fill="rgb(0, 0, 0)" stroke="rgb(153, 153, 153)" stroke-width="1.5px"></line></g></g><g><g><g><g><g><path stroke="rgb(255, 112, 67)" stroke-width="2px" d="M33.598125,214.82741950045397L33.78375,142.1514301698768L33.969375,133.00484073481866L34.959375,195.5831556580622L35.083125,129.69296094355016L35.51625,91.27172595698939L35.64,153.94738606414853L35.887499999999996,202.59448548451508L35.949375,134.0088758842208L36.073125000000005,58.88281233830865L36.135,50.01575094082336L36.196875,42.00495162886446L36.25875,37.25526950902942L36.568125,71.38323043831012L36.753750000000004,91.92447335300639L36.8775,104.10813209242619L37.310625,108.75964847234212L37.743750000000006,78.40783754449771L37.929375,91.77116381417974L38.115,68.92073393142047L38.3625,54.25676862402628L38.857499999999995,45.98851234884107L38.919375,6.052538410278731L39.3525,16.61175722490371L39.6,104.40958356481613L39.8475,109.15083147410303L40.033125,78.39812276426466L40.156875,92.13393083869147L40.280625,100.62321251392996L40.46625,108.10447239157808L40.528124999999996,78.089185266725L40.59,59.59780699892887L40.71375,14.1126615940519L40.775625,53.65886097350841L40.96125,107.2485204153622L41.146875,116.23080789995984L41.394375000000004,48.308586093733254L41.45625,75.84690968023808L41.518125,124.313965369676L41.641875,87.00808392891608L42.755625,65.46257766631895L42.879374999999996,89.85904947316426L42.941250000000004,67.41477522268403L43.065000000000005,125.08560778124335L43.250625,88.73717798566987L43.498125,149.275900870061L43.683749999999996,168.65473692378097L43.869375,150.50990260724245L43.93125,68.73005637108685L44.055,87.21339573765391L44.17875,65.88499324374898L44.67375,119.10586368776114L44.859375,84.33933082533682L45.230625,103.74447622769914L45.416250000000005,108.68884243734061L45.91125,144.87779009093504L46.220625000000005,100.50842325171394L46.40625,177.87032673122673L46.839375,118.59680752649143L46.963125,118.77102385164454L47.086875,83.47668590757252L47.458125,127.61755775285178L47.519999999999996,89.35424355861838L47.829375,66.46696213436346L48.015,52.643943854010516L48.076875,44.98020176162506L48.448125,40.01308877876739L48.571875000000006,38.05050533869972L49.004999999999995,36.50569972045992L49.190625,34.4304026180144L50.180625,143.19406047480504L50.428125,133.50204346731243L50.737500000000004,94.00794037012604L50.923125,35.34525672736923L51.10875,0.011716096337514248L51.2325,-21.566542012986478L51.7275,-21.598943780792478L52.09875,1.1445940915380022L52.222500000000004,12.826832208941733L52.284375,52.0336885305934L52.408125000000005,77.38449846710155L52.655625,128.9664974670548L52.7175,91.33512339478364L52.841249999999995,100.11277320867005L52.903125,142.3137697413829L53.088750000000005,136.8266929596134L53.150625,60.97292625171903L53.212500000000006,49.92403630147461L53.274375,75.98262391993224L53.521874999999994,24.02888765042318L53.7075,28.809456449365978L53.83125,30.769899051786066L54.016875,31.83126818520324L54.264375,32.23986327646899L54.573750000000004,32.94343430921824L54.635625,32.4030534185951L54.759375,70.26621630033075L54.82125,53.91228978245204L55.44,10.667520066597685L55.563750000000006,-15.219957806491779L55.625625,4.716626578124192L55.6875,49.090106656009134L55.81125,102.81197626261087L55.873124999999995,109.78187818732913L56.1825,154.239139213329L56.739375,193.68172496429548L56.801249999999996,130.01781805493698L57.110625,163.246247802238L57.29625,145.68836964363246L57.605625,165.83756237925337L57.729375000000005,182.34279555931286L58.1625,123.20079849037286L58.471875,120.8002244837219L58.533750000000005,119.41194330276318L58.719375,84.64957158844126L58.843125,97.80524745558128L58.905,72.08811955207473L59.090625,121.60066789260301L59.152499999999996,182.01713845341035L59.214375000000004,122.79963607591488L59.27625,117.76189956547081L59.709375,118.90556202744354L59.833124999999995,84.33429763986231L59.895,63.567377184334305L60.26625,116.86294471504769L60.39,153.33922082730084L60.575625,143.25971324495322L60.699374999999996,135.80050117413538L61.194374999999994,59.84957373698141L61.50375,91.09831465797912L61.689375,68.51113434485507L61.813125,54.35085818165765L62.060625,45.58266318216917L62.184374999999996,5.688622689327335L62.308125,123.99399148469016L62.370000000000005,87.71738337864464L62.555625,67.05550371540042L62.74125,53.30897446106115L62.803125,45.47580924657361L62.926875,40.719916183836574L63.545625,38.0461127305093L63.793124999999996,69.36229161479295L64.10249999999999,84.5708220467003L64.535625,63.09530105648321L64.659375,50.35889011124119L65.030625,78.84265861414558L65.278125,96.99280727035031L65.83500000000001,175.6099114693316L65.95875000000001,118.41234861264988L66.020625,49.38346425434934L66.639375,78.38232990477309L66.825,130.55974931756336L67.0725,125.80506035901759L67.19625,188.0974081167026L67.381875,159.52941382660208L67.5675,142.09115882687323L67.629375,132.34448857474476L67.753125,173.85463175286966L67.815,208.7101948701563L67.93875,174.95202949157996L68.18625,119.21376262621298L68.248125,85.02245080833748L68.31,100.53003321975308L68.371875,73.8598346009474L68.68125,89.90016108489989L68.74312499999999,131.22007735444055L68.805,124.52453885369493L69.361875,88.6175692172275L69.67125,159.46305035695912L69.795,138.55685970824098L69.91875,193.44081133463516L69.980625,129.5310196283051L70.04249999999999,126.42155057280638L70.16625,122.05629842793111L70.35187499999999,122.31689156802666L70.723125,86.42793148951264L70.78500000000001,131.3365001046451L70.970625,159.55626365390785L71.094375,107.6849707613614L71.71312499999999,77.46199544087258L71.77499999999999,165.09121365950554L71.89875,143.76398565607744L71.960625,99.35135293680301L72.20812500000001,72.67016905014896L72.45562500000001,21.979828795858243L72.826875,27.199677062671203L73.13625,29.79031963716701L73.445625,63.362340820761744L73.50750000000001,16.500281494127737L73.56937500000001,58.21063492336966L73.63125,13.332583170353566L73.81687500000001,86.80876001339004L73.87875,64.79606393743983L74.311875,52.68915548517272L74.4975,10.09024972178456L75.24,18.87856611396392L75.36375,100.978987578159L75.61125,106.48325105331818L76.168125,163.68297478313272L76.539375,144.46865658806624L76.60125,136.03284133865702L77.158125,59.94868037064511L77.4675,14.33796404411026L77.529375,21.463574559654255L77.59125,24.468116237069594L77.83875,64.56768384793588L78.14812500000001,53.11709858062151L78.58125,44.987087503428505L78.643125,112.28799173169956L78.76687500000001,141.38947951543201L78.9525,134.404175145407L79.2,94.67966413547138L79.38562499999999,35.303797227164424L79.4475,34.79954520547684L79.695,67.45930912636605L79.9425,53.223176300827134L80.06625,80.88103895920722L80.12812500000001,124.38930161696065L80.19,87.84524915489692L80.31375,66.42639878399133L80.56125,18.24643469291947L80.623125,59.41461623379557L80.99437499999999,82.95918560096695L81.118125,96.62585951919644L81.18,70.1255034223239L81.24187500000001,88.47447439320052L81.55125,63.82068839427741L81.613125,86.5292841866566L82.10812499999999,65.21713537828002L82.78875000000001,52.363593252771814L83.09812500000001,114.68204168446056L83.16000000000001,81.84763027941881L83.593125,96.53628378570268L83.964375,36.40838430192951L84.08812499999999,35.31965751550266L84.335625,34.81970670788182L84.3975,34.70694776177087L84.583125,106.34308584644053L84.706875,181.81377387114557L85.01625,122.3222951783063L85.51125,149.93337860938763L85.75874999999999,102.96744588323699L85.944375,106.57482114416244L86.13000000000001,75.88303958872852L86.43937500000001,57.02555583472373L86.74874999999999,12.891508446115333L86.810625,55.162448637380734L86.8725,46.5537555687716L87.181875,41.00026775025486L87.42937500000001,109.31885820686865L87.49125000000001,43.97292677557497L87.73875,4.9391564024175025L88.048125,82.41591120923897L88.41937499999999,61.30666530276691L88.543125,84.90888246366137L88.66687499999999,63.53887258075466L88.914375,16.47990402787294L89.10000000000001,-11.35291379061034L89.409375,5.995295593478618L89.96625,106.28557321133056L90.02812499999999,108.84734586583829L90.08999999999999,119.83409219310573L90.46125,84.28020887468254L90.83250000000001,131.7487757717747L91.08,92.94428318673518L91.141875,68.21269057619752L91.20375,54.53645885631045L91.265625,113.05420685675503L91.3275,81.80153975783304L91.513125,128.874972363564L91.8225,91.39364632566544L91.94624999999999,68.5921555782268L92.00812499999999,19.577807098552906L92.255625,90.70794557411071L92.503125,179.61350870564428L92.565,154.8137798027135L92.626875,105.63476591911306L92.75062500000001,75.9970894216038L92.8125,58.97364467703831L92.874375,128.89139740568208L92.998125,125.58118318875182L93.121875,54.051326914601184L93.245625,81.35169411675952L93.3075,62.927886681143434L93.616875,86.5915781531422L93.740625,96.85550033990215L93.864375,169.16627402455424L94.2975,211.95555270725058L94.854375,140.75201021321755L95.2875,129.30944833890558L95.349375,55.96837510309198L95.535,46.55577649618136L95.596875,109.59831678412708L95.65875,113.41825030090745L95.7825,183.34718055539423L95.90625,123.54472970117523L96.15375,85.21582649164114L96.215625,137.15097069216017L96.586875,94.27407792216958L96.83437500000001,109.49182787559741L96.958125,159.10385672573406L97.14375000000001,195.92633465593326L97.329375,162.31439989587363L97.515,147.58504947403262L97.63875,66.98017143062877L97.88625,54.2162786114572L97.948125,46.1267863037433L98.38125,42.099628864202096L98.566875,74.40352083940469L98.62875,95.32384435272633L99,135.05093841001323L99.12375,93.26321203047684L99.185625,67.91327409751162L99.433125,54.347356149274695L99.495,111.7524738420588L99.68062499999999,112.7913982926151L99.86625000000001,46.22773834062737L99.99,110.16061141633556L100.051875,174.21119651476525L100.175625,117.96505017016476L100.36125,83.54638459193886L100.546875,98.52807987250105L100.60875,137.22150509372298L100.85625,96.1796719254871L100.918125,70.13405212238962L101.04187499999999,88.56346986173756L101.35125,66.82994088357648L101.47500000000001,18.441342866071125L101.536875,23.76626470636519L101.59875,62.99720976094352L102.09374999999999,85.48547086670735L102.155625,98.0896297818934L102.2175,105.44719630738723L102.40312499999999,75.7106178473455L102.89812500000001,130.89926616926968L103.021875,121.50873377852244L103.764375,85.30572354817565L103.82625,131.6495428090436L103.95,90.79807810007082L104.07374999999999,66.76305214709554L104.259375,53.20613857209895L104.32124999999999,44.7709565502418L104.44500000000001,69.32258381314537L104.630625,54.19838899074931L105.868125,46.09351119173774L106.239375,117.89294913165925L106.30125,82.9279957128447L106.42500000000001,98.15320724591597L106.6725,72.32247828854267L106.79625,21.78378881288072L106.92,26.33260027653554L107.105625,-5.674846750440236L107.415,10.220311652823272L107.53875000000001,52.47087374988209L107.600625,44.780389686189764L107.6625,39.915312821723624L107.78625000000001,37.04293454737612L108.219375,66.54599829603384L108.343125,87.43266813514737L109.08562500000001,65.73670335442077L109.27125,18.032427095905295L109.45687500000001,-10.252831826120204L109.51875,6.270278443390383L109.6425,17.111555564193797L109.76625,57.935845832882265L109.89,47.66555391931318L110.1375,143.25129176790404L110.26125,165.66527030000023L110.38499999999999,144.9179092690927L110.570625,65.48758980545888L110.694375,54.11928307967707L111.00375,78.45042203474284L111.189375,90.3041976647685L111.49875,66.85382620665858L111.560625,88.59682659839419L111.68437499999999,98.1765665823463L111.87,37.2701050182726L112.303125,1.0637484940524122L112.42687500000001,14.332405825322684L112.48875000000001,52.64872377332612L112.6125,79.60650082799809L112.674375,136.12759706756208L112.86,94.81886558071902L112.98375,109.86801302706724L113.293125,79.44515866040351L113.416875,144.9135753926814L113.47875,135.40965693557877L113.60249999999999,59.59348171061738L113.66437499999999,14.103515389554321L113.72625,21.440959660039688L114.22125,23.91195543939071L114.46875,-7.161804224920039L114.778125,8.431993228456944L114.84,-16.447120835900293L115.21125,70.76062412368519L115.335,88.72272950162997L115.45875000000001,113.89463872449059L115.520625,114.41705275185934L115.644375,79.94197603588124L116.263125,26.461221438564984L116.325,28.765361837466667L116.44875,-4.371634290357671L116.82000000000001,10.70648013322981L116.88187500000001,57.890573777053284L117.19125,82.49304816121395L117.253125,62.61020990634374L117.43875,50.957273052617836L117.5625,43.210804038245136L117.68625,71.33365299742874L117.81,126.20916481152817L117.99562499999999,120.50785676890307L118.05749999999999,85.62376627926552L118.18125,64.09120268090818L118.42875000000001,51.53212651107646L118.614375,100.17153143737005L118.67625,73.82456148280212L118.80000000000001,141.002235997629L118.92375,131.02004284087755L119.233125,91.71984583392106L119.79,137.08602342958943L120.0375,95.37110166761695L120.16125000000001,35.66625689386151L120.470625,34.12781605883043L120.5325,69.26452514085716L120.718125,55.33276995511976L121.02749999999999,82.07470441598049L121.15125,103.35696827008108L121.46062500000001,40.38165787762823L121.708125,105.31092033880653L121.955625,75.3666829828437L122.0175,23.67445553675159L122.14125,97.13825467721924L122.265,71.30567054925146L122.450625,56.5758476091858L122.5125,46.324917252222704L122.63625,137.33326249451275L122.69812499999999,183.42052690776535L122.76,165.70823397255884L122.821875,147.7906939799145L122.94562499999999,167.40517017212838L123.255,113.24514948064332L123.44062500000001,111.34071407333941L123.62625,190.64914918468875L123.811875,92.72756429380834L123.9975,68.46835921978332L124.36874999999999,19.80340525484082L124.430625,-9.732236037947615L124.925625,41.71465366813439L125.11125,71.28698248502278L125.235,21.328920169645368L125.35875,25.787230125374965L125.60625,58.379015509119206L125.791875,48.19379121183422L126.10125000000001,42.8730037826519L126.225,72.87519884786637L126.286875,56.70633813384003L126.781875,111.70081863676434L126.9675,45.410452061329465L127.153125,40.008043369084334L127.215,2.3594232914808266L127.33874999999999,47.61893480233742L127.58624999999999,7.272056188107047L128.08125,54.46583803603129L128.266875,11.281666505069918L128.32875,19.10449348965553L128.4525,23.07301297189201L128.57625000000002,26.408325534975642L128.7,68.41289505430872L129.009375,55.47844917200829L129.07125,116.82876426169354L129.133125,112.56958411384454L129.31875,80.68251211663154L129.4425,61.0758079995838L129.50437499999998,86.84216857191073L129.628125,64.6934924954038L129.81375,51.84666635201617L129.9375,112.59439807968926L130.741875,130.33881108902446L130.865625,168.91501380748622L131.29875,114.30750086872023L131.360625,114.52225060104735L131.855625,82.79937737103255L131.979375,61.703858389078356L132.28875,49.12355735710238L132.53625,42.09060943444998L132.598125,111.3350171874879L132.66,45.2059783547747L132.721875,40.607911917086575L132.78375,36.92871643078831L133.03125,98.07555575803728L133.27875,108.04397396714208L133.464375,78.42578022613863L134.02125,97.59137309924985L134.083125,72.16776528457997L134.145,163.26614209968432L134.26875,179.2596448357571L134.454375,205.51061778712133L134.64000000000001,101.84228729340764L134.701875,176.91992475359868L135.01125,153.1148559705111L135.073125,141.28694261626097L135.135,190.28471496128304L135.196875,92.56242304815808L135.25875,137.93782135443575L135.320625,141.18095312290782L135.444375,158.73583519818882L135.50625,108.55493566105574L135.75375,43.46908887277543L136.125,73.8424092750625L136.99125,57.4814049437935L137.176875,45.3421053188527L137.300625,39.17174985512999L137.424375,77.90145600344758L137.795625,59.92552957506285L137.919375,49.2068581315311L137.98125000000002,42.593180524576695L138.043125,102.61443126396476L138.105,74.78572855442752L138.166875,58.618296967767684L138.414375,47.601230572769246L138.661875,41.513550925824255L138.72375,37.96940957066882L139.033125,77.63668743410804L139.3425,123.32774056292878L139.71375,122.57830449400724L139.89937500000002,120.6890552625101L139.96125,85.49729921820317L140.45625,63.3652696840732L140.518125,83.80232192913383L140.58,62.5113953523984L140.889375,115.78025733989455L141.8175,83.27941391133608L142.003125,61.673459480553134L142.25062499999999,49.88971092345809L142.374375,8.296182651222875L142.498125,54.44115371070068L142.62187500000002,46.1159094082864L142.74562500000002,40.5249401668318L142.80749999999998,70.44497830251045L142.93125,137.9312271877112L143.735625,165.8952271197932L143.7975,145.76496950035397L143.85937500000003,132.19556300373551L143.92125,92.44934884021457L144.045,162.39674929060715L144.230625,110.75077775194842L144.29250000000002,79.09415124965163L144.354375,98.77231359759745L144.66375,72.05700694471005L144.725625,121.46467733013733L144.849375,51.22577897235307L144.91125000000002,78.72795301667507L144.973125,60.843991682112915L145.15875,83.24812507424672L145.220625,127.04113728913937L145.40625,87.47294794214349L146.14874999999998,64.98724830911874L146.2725,51.70090278091896L146.334375,145.1944003111295L146.458125,99.36048712693838L146.52,38.03869147077039L146.58187500000003,105.08383856785889L146.705625,76.75543760585956L148.066875,59.63558516248657L148.43812499999999,48.9924251049664L148.995,77.41199864208141L149.056875,58.707429628176264L149.11875,48.12079859017573L149.36624999999998,79.1037997201361L149.428125,60.74498751593835L149.551875,200.9922064143106L150.23250000000002,256.8674569803472L150.35625000000002,168.30426205348024L150.665625,215.839079824486L150.7275,222.72435647341754L150.85125,147.19107523001657L150.97500000000002,100.75970002270043L151.284375,74.34391536461936L151.408125,58.37878360597865L151.7175,47.17638530640945L151.779375,41.27160347811026L151.965,38.082076631074386L152.274375,105.72916024772515L152.33625,151.24495971534182L152.521875,137.7057841882045L152.70749999999998,96.66873613322767L152.769375,71.6868887934432L152.893125,56.53961289971375L153.016875,79.67477165077327L153.264375,177.3911475457524L153.511875,85.1127530303876L153.635625,29.448123163602173L154.06875,64.89347893027518L154.130625,51.81066383286837L154.37812499999998,43.67867202361675L154.873125,39.65568219460125L155.05875,37.41046843165709L155.986875,36.55410149356456L156.110625,66.92912563002545L156.29625000000001,18.5765493841876L156.358125,59.24901533326197L156.54375,85.308728657965L157.1625,96.49834494060981L157.71937499999999,71.46291837887911L157.843125,56.09897590901316L158.09062500000002,81.69321428075948L158.52375,92.01684749968312L159.01875,67.91162358018848L159.26624999999999,87.84927838958694L159.328125,31.120492592374237L159.575625,63.36214045570249L160.44187499999998,88.09435144026344L160.6275,165.97542678212682L160.813125,146.75256662554114L161.1225,101.67539681032316L161.30812500000002,106.21887308187449L161.679375,77.8662603725622L161.803125,156.01904291036124L161.865,72.00841621884524L162.298125,90.6942339964439L162.421875,139.78721244188677L162.6075,127.9623982189632L162.793125,124.88861043077695L163.22625,53.3504973685218L163.288125,45.881033824320724L163.35,5.88384491763065L163.72125,16.95934013022833L164.15437500000002,-10.47361299119544L164.34,5.628356771933136L164.52562500000002,49.2497204324132L164.71124999999998,7.997799335291003L164.896875,90.22904360545647L165.0825,101.42733252125915L165.144375,109.0575535467098L165.20625,108.37288793481676L165.763125,78.89881438367401L166.134375,25.768987531197467L166.258125,63.13421910375454L166.38187499999998,85.8917316012251L166.629375,29.877815831783543L166.815,31.564669470148857L166.876875,31.645047327465665L166.93875,65.46277480949023L167.31,17.840948264221858L167.37187500000002,22.96717403290212L167.43375,62.89727256877972L167.68125,92.21963034941086L167.86687500000002,141.54709606196025L167.99062500000002,163.5793168788378L168.67125,110.8377950645773L168.795,116.81881121279986L168.856875,118.61051256714806L168.91875000000002,85.32235605384804L168.980625,64.07536746156063L169.04250000000002,52.02738102756738L169.228125,118.82704915627903L169.29,120.36803186193148L169.72312499999998,85.5495402193599L169.90875,29.670874384022376L170.5275,65.04686631930313L171.084375,52.199766191446656L171.455625,43.428892824092756L171.703125,101.91178961760771L172.074375,74.67248000647957L172.198125,91.67622791900195L172.26000000000002,68.13694170276086L172.5075,54.3374666527037L172.816875,45.816288045445845L172.87875000000003,39.99611938018968L173.37375,68.16220151656032L173.49749999999997,101.74899050316036L173.745,74.33126265845421L174.301875,57.6739519920452L174.54937500000003,48.86816107935422L174.673125,40.06261572626336L174.73499999999999,37.27649498225742L174.796875,68.57901705959186L174.85875000000001,84.70843055576714L175.78687499999998,97.98252964693685L176.34375,104.21707321277898L176.405625,176.0232668581061L176.52937500000002,119.41611582963229L176.715,119.37612161804681L177.024375,150.2414389150889L177.08625,102.34589420936733L177.21,111.4902296784149L177.395625,113.1001734562752L177.519375,81.17546657564313L177.58125,62.22410868073743L177.9525,87.43491719724956L178.138125,31.0099327361166L178.20000000000002,32.27408891413091L178.32375000000002,32.23956998431464L178.385625,32.83754880023421L178.4475,33.45638627946443L178.695,34.18880310463029L178.880625,34.525364969185915L178.94250000000002,64.57242211590159L179.00437499999998,52.00884671154816L179.06625,110.1679654506819L179.12812499999998,114.668303825322L179.31375,82.64893536385306L179.375625,160.0794871385342L179.4375,173.1741591926758L179.49937500000001,150.44792827364333L179.685,103.23560750317337L179.746875,40.35241680686882L179.80875,69.20092236477032L180.17999999999998,55.59059581482072L180.984375,104.7211527206382L181.355625,41.507921522912845L181.603125,35.723619467421074L181.66500000000002,34.46893086154864L181.78875,33.121003480120294L182.098125,32.953991717729636L182.46937499999999,33.181512884829495L182.53125,32.43675061936301L182.77875,31.89906932068631L182.840625,66.6994825329166L182.964375,118.50486943261053L183.02625,118.20049741358528L183.76875,117.64093314335099L184.14,48.910775178134244L184.325625,43.866175025562924L184.38750000000002,128.39357201503728L185.06812499999998,89.841953016433L185.625,168.9443436566897L185.686875,79.90214505943335L185.810625,128.1297279630188L186.11999999999998,122.96076554978391L186.181875,86.9787993473358L186.24375,65.85070947900692L186.305625,82.59087295772416L186.429375,61.89146333104976L187.3575,15.526417096287423L187.543125,22.184532743499634L187.60500000000002,26.089321952759175L187.79062499999998,28.387974979422925L187.97625,100.78298194340799L188.1,107.8935723832548L188.161875,113.82317834206226L188.3475,82.0779631669711L189.09,102.95150075362316L189.151875,73.81471741478282L189.21375,22.918032086101075L189.646875,26.777866593814334L189.8325,29.276859069494723L190.760625,31.720701365111786L190.94625000000002,68.27872847381468L191.13187499999998,223.5460545046614L191.3175,247.11315347353L191.565,162.33369213764115L191.62687499999998,111.4862921540165L191.68875,45.282525167258484L191.8125,71.97441432192211L191.87437500000001,91.59151260682513L192.43125,67.07162758174832L193.111875,87.4324544871875L193.17375,101.17670498272719L193.29749999999999,137.37469918404736L193.359375,130.479481845164L193.42125,161.79463072931895L193.483125,110.8920559128017L193.54500000000002,115.14266354505182L193.7925,156.98558714070296L193.85437499999998,72.58722432485861L194.225625,57.559252929876095L194.65875,115.35486764772433L195.40124999999998,147.78297228071693L196.14374999999998,67.12041776579017L196.205625,89.17108512274031L196.2675,66.59751149093685L196.329375,18.528288307640427L196.515,24.738482196197825L196.700625,27.766608546140432L196.824375,30.01495468128253L197.07187499999998,30.58961852551006L197.50500000000002,71.56331579304042L197.7525,55.80807638049673L197.87625,135.7273262031478L198.309375,93.78379155130953L198.37125,70.47511245989477L198.433125,153.55905030158291L198.61875,172.17655670213364L198.804375,149.54307048649954L199.23749999999998,68.19315293069425L199.36124999999998,54.39147020737241L199.48499999999999,45.70988954254242L199.670625,110.21774355875864L199.85625,148.43060186129185L200.35125,102.54313061516L200.41312499999998,109.01032999169216L200.475,142.98057482606998L200.59875,99.58824024382406L200.660625,139.02400864636957L201.09375,96.9752916999912L201.526875,36.726911585181135L201.650625,117.54469609849451L201.7125,83.98757491758528L201.774375,128.9707904715097L201.83625,89.91417516838511L201.89812500000002,67.41405317325913L202.269375,84.8298447973975L202.33125,64.95569177176782L202.393125,81.97065258841376L204.06375,60.51415356758401L204.125625,114.36932146747348L204.249375,115.77491741849491L204.435,48.26417517366576L204.80624999999998,79.59359196192183L204.868125,26.127685184001933L204.93,89.17868823066858L204.991875,99.86559480250875L205.42499999999998,107.89026931014108L205.6725,78.11366198985569L205.79625000000001,25.21017882052489L205.981875,127.35491217700545L206.415,122.39243106615669L206.600625,86.42967665022964L207.1575,65.1732266632147L207.52875,53.27342205843814L207.590625,46.54997859845682L207.714375,75.2792821560693L207.9,59.13193124150816L208.51875,49.37051583812905L208.704375,41.482224452734705L208.76624999999999,38.62875690346175L209.01375000000002,71.45403073462514L209.26125,90.69014532723091L209.323125,67.4194013630678L209.385,53.84932387635932L209.50875000000002,114.44455991137748L209.63250000000002,147.3546840387736L209.88,139.222643562537L210.00375,185.97202866118505L210.31312499999999,122.99190231164494L210.375,86.03922932221457L210.6225,96.56202281812593L210.808125,36.64398204477793L210.99375,34.784462264821215L211.426875,70.02471718198467L211.550625,87.25137229198828L212.41687499999998,64.18152807302198L212.47875,122.21375688475368L212.6025,121.68673632736663L212.664375,161.83526590812372L213.03562499999998,110.7761156230368L213.22125,115.04570073650238L213.5925,185.29097137339184L213.778125,90.02863864097893L213.90187500000002,102.88113985901644L214.08749999999998,110.33711113333355L214.396875,144.54997973964558L214.644375,101.11253007542047L214.70624999999998,140.7852311048977L214.83,131.24711078865226L215.015625,129.22963178268654L215.07750000000001,124.723953714669L215.13937499999997,157.83902216870527L215.263125,140.43619716164983L215.386875,165.41196182726333L215.881875,143.99884136074354L215.94375,130.7108083940453L216.005625,90.13963405141365L216.0675,68.06241094279228L216.19125000000003,91.34865370021562L216.93375,140.47753459918587L217.119375,62.64896223068475L217.305,85.40343112916358L217.5525,64.96857105824483L217.614375,151.96559139358573L217.738125,138.2704611218335L217.8,159.90317745810611L217.985625,108.52537557229455L218.17125000000001,43.70128706367461L218.356875,40.13937422795086L218.604375,35.97373864903765L218.79,35.713881978672894L218.91375000000002,34.71693709266496L219.223125,68.20013711380963L219.40875,53.93242891745569L219.84187500000002,162.34584341192172L219.96562500000002,143.73016248495352L220.15124999999998,99.73777959170828L220.275,106.00492542197958L220.336875,76.08481588645098L220.58437500000002,24.341992206611604L220.708125,28.299443464742193L220.76999999999998,29.082256727789872L221.079375,31.302658855634267L221.203125,100.96151892553499L221.326875,39.09916157517962L221.63625000000002,107.66402758475621L221.76,77.53955749746203L221.945625,93.5912689833405L222.0075,69.67506518075699L222.25500000000002,55.143416629675656L222.5025,78.45772365569002L222.811875,93.28179171576227L222.87375,101.94472780045346L223.430625,75.44686048398299L224.235,58.64599205567674L224.35875000000001,13.539015055888012L224.420625,108.92582813847572L224.97750000000002,113.66137569543518L225.286875,114.06368973610877L225.34875,46.813502707781716L225.9675,42.36271966196621L226.58625,38.235543291508165L226.771875,35.81403266107152L226.9575,67.64934348110805L227.019375,18.96895500906515L227.266875,24.884017682234465L227.514375,27.66999873941128L227.70000000000002,120.56426125348754L227.82375,158.51735971182808L227.885625,142.09842612795322L228.009375,99.71733680939661L228.38062499999998,73.16137524425426L228.81375000000003,58.00497383288821L229.55625,88.72874939889158L229.618125,31.586070877751826L229.741875,63.00210700419015L230.05124999999998,120.8469996291968L230.4225,191.8791896738522L231.226875,162.81668649624342L231.28875,111.82786529130072L231.53625000000002,143.82305133749077L231.59812499999998,64.6674388553167L232.09312500000001,52.391307992802396L232.4025,86.99094732760751L232.58812500000002,163.7477480465044L233.083125,76.78429510877824L233.26874999999998,24.471435176006587L233.330625,28.643790952734356L233.39249999999998,30.786925253356365L233.454375,32.95958836546783L234.13500000000002,73.04608659988467L234.32062499999998,22.203038535482925L234.50625,26.570450792751622L234.691875,91.99887762521529L234.75375,101.8531807339708L235.125,106.50933949413098L235.3725,77.02837797908076L235.49625,128.30221444707888L235.74375,90.91226710724973L235.8675,68.5411277532696L235.92937500000002,141.05474383758377L236.11499999999998,98.2357282652531L236.48625,72.5575528696086L236.919375,91.78715064641962L237.78562499999998,100.0666116534392L238.033125,71.3254766708308L238.095,90.86289558407901L238.52812500000002,67.76213098964513L238.59,53.73430538352565L238.899375,82.44423092580348L239.085,63.20877378027926L239.518125,126.49104758397284L239.641875,89.57377710995402L240.013125,32.09986987826698L240.136875,66.62085116373903L240.19875000000002,52.72575867234574L240.32250000000002,78.5799576025586L240.879375,124.58043859774311L240.94125,88.2785807057838L241.065,128.79554164950693L241.18875,90.56374316503468L241.86937500000002,67.93819021617824L241.93125,115.46042600808738L242.17875,146.81649425231336L242.240625,142.1886295554445L242.3025,137.35796049506058L243.04500000000002,95.84347706983532L243.16875,70.34181266589835L243.354375,88.92794942064027L243.41625,66.26342546574803L243.54000000000002,52.91344282921593L243.849375,109.7260675473643L243.973125,110.58327435973617L244.096875,80.52985501078611L245.086875,130.00681352855702L245.39624999999998,92.44140684272014L245.458125,69.00025578776099L245.705625,90.0069435868393L245.7675,67.07588274239805L246.26250000000002,52.992266600347946" style="fill: none;" fill="none"></path></g></g></g></g><g opacity="0.2"><g><g><g><path stroke="rgb(255, 112, 67)" stroke-width="2px" d="M33.53625,212.0273719200721L33.598125,131.25838658259465L33.78375,33.27982600285456L33.969375,119.29570805476263L34.959375,289.40649296687195L35.083125,30.885551393949072L35.51625,33.64962862454927L35.64,247.95132821890022L35.887499999999996,275.5606880774865L35.949375,31.134222881610587L36.073125000000005,-53.80381092543787L36.135,36.7153339092548L36.196875,29.988847556481L36.25875,30.130780087984526L36.568125,122.5750262920673L36.753750000000004,122.73628516564001L36.8775,122.38360149676984L37.310625,115.73691875751203L37.743750000000006,32.880137927715595L37.929375,111.81614878727841L38.115,34.645093653752255L38.3625,32.26082241351787L38.857499999999995,33.586128528301536L38.919375,-53.8514207812456L39.3525,32.45058517456055L39.6,236.1063217163086L39.8475,116.26270329402044L40.033125,32.26905987079327L40.156875,112.73764290442834L40.280625,113.35713500976563L40.46625,119.32636219904973L40.528124999999996,33.06625460111177L40.59,31.8607396052434L40.71375,-54.115056501443576L40.775625,112.97816003652719L40.96125,187.6330095731295L41.146875,129.70423912635215L41.394375000000004,-53.5747466133191L41.45625,117.15439505943884L41.518125,197.0145489032452L41.641875,31.049261768047625L42.755625,33.14431827251729L42.879374999999996,126.4537571833684L42.941250000000004,33.74836384699895L43.065000000000005,211.59185661902796L43.250625,34.21453329233024L43.498125,240.0839851966271L43.683749999999996,197.72299100435697L43.869375,123.29265113243689L43.93125,-53.93971298314056L44.055,114.93840478750376L44.17875,33.89238950289213L44.67375,198.93716935377856L44.859375,32.18953153170072L45.230625,132.8521943312425L45.416250000000005,116.10539175180288L45.91125,199.16121157132662L46.220625000000005,33.954372992882355L46.40625,293.9131819504958L46.839375,29.686528719388512L46.963125,119.03234833937424L47.086875,30.535178991464466L47.458125,193.82886552077076L47.519999999999996,31.95927226726826L47.829375,32.13603999798114L48.015,31.909416433481077L48.076875,33.484588623046875L48.448125,32.562419304480926L48.571875000000006,35.10663017859825L49.004999999999995,34.18849129310021L49.190625,31.31745696434607L50.180625,306.339547259991L50.428125,118.96401795607345L50.737500000000004,34.76678572434645L50.923125,-52.648768736765916L51.2325,-53.93392917697247L51.294375,30.894474440354568L51.7275,-53.12415630450616L52.09875,35.2599009000338L52.222500000000004,30.35018938504732L52.284375,110.84397301307091L52.408125000000005,115.41071337186375L52.655625,206.33949596698469L52.7175,34.88806228637696L52.841249999999995,113.27924792949969L52.903125,205.61526454045224L53.088750000000005,128.59607778695914L53.150625,-52.80772381012255L53.212500000000006,33.35070137610801L53.274375,115.07050534761869L53.521874999999994,-53.90171675384045L53.7075,35.9803096477802L53.83125,33.71056295541616L54.016875,33.42332188532903L54.264375,32.852755913367645L54.573750000000004,33.99879085834209L54.635625,31.59248208266038L54.759375,127.06096062293419L54.82125,29.381400005634024L55.44,-54.19963450718383L55.563750000000006,-54.0511746161259L55.625625,34.62150315504808L55.6875,115.65032677283655L55.81125,183.39478067251352L55.873124999999995,120.23673107440653L56.1825,220.92503075232875L56.739375,252.84560359074516L56.801249999999996,34.52195769089919L57.110625,213.0888924231896L57.29625,119.35155240572415L57.605625,196.06135148268478L57.729375000000005,207.10064532940203L58.1625,34.48780288696288L58.471875,117.1993634737455L58.533750000000005,117.32952153132513L58.719375,32.50601401695839L58.843125,117.53876125629131L58.905,33.51242769681491L59.090625,195.86949040339545L59.152499999999996,272.64184429462136L59.214375000000004,33.973382509671715L59.27625,110.20529479980469L59.709375,120.62105572040264L59.833124999999995,32.477401058490464L59.895,32.4169965010423L60.26625,196.8062960111178L60.39,208.05363499568057L60.575625,128.1404518714318L60.699374999999996,124.61168306790867L61.194374999999994,-54.07681741874952L61.50375,137.97142603947566L61.689375,34.630363875169024L61.813125,33.11044393686148L62.060625,32.43037068293645L62.184374999999996,-54.15243804993538L62.308125,301.45204467773436L62.370000000000005,33.30247121957632L62.555625,36.06268422053411L62.74125,32.689180579552286L62.803125,33.72606142484225L62.926875,33.586076589731064L63.545625,34.03540755051833L63.793124999999996,116.33655994121844L64.10249999999999,107.38361769456131L64.535625,30.8820195711576L64.659375,31.254273693378156L65.030625,121.5683113685021L65.278125,124.21803025465745L65.83500000000001,293.5355677678035L65.95875000000001,32.61600432762733L66.020625,-54.15986228310147L66.639375,121.88062838040865L66.825,208.8258784367488L67.0725,118.67302692119893L67.19625,281.53592975323016L67.381875,116.67742239145133L67.5675,115.9337763272799L67.629375,117.72448319655197L67.753125,236.1198465200571L67.815,260.99353954608625L67.93875,124.31478142371543L68.18625,35.606362328162554L68.248125,33.73548308152418L68.31,123.7914068368765L68.371875,33.85453667273888L68.68125,113.96065081082857L68.74312499999999,193.19995175875152L68.805,114.48123110257661L69.361875,34.75711476252629L69.67125,265.7312720665565L69.795,107.19757373516376L69.91875,275.76673877422627L69.980625,33.66633206881011L70.04249999999999,121.7573469895583L70.16625,115.50842021061824L70.35187499999999,122.70778127817007L70.723125,32.59449137174167L70.78500000000001,198.69935302734373L70.970625,201.885908977802L71.094375,29.8780314225417L71.71312499999999,32.12753246013934L71.77499999999999,296.5350409874549L71.89875,111.77314365093525L71.960625,32.73240385789137L72.20812500000001,32.64839322016789L72.45562500000001,-54.05568158557783L72.826875,35.029449462890625L73.13625,33.676283498910756L73.445625,113.72037259615384L73.50750000000001,-53.792807495823276L73.56937500000001,120.77616506723257L73.63125,-53.98449445917055L73.81687500000001,197.02302527794473L73.87875,31.777019823514493L74.311875,34.52879280677209L74.4975,-53.80810892329767L75.24,32.06104070223296L75.36375,224.12961977445164L75.61125,114.73964626605695L76.168125,249.48256037785458L76.539375,115.64717929546649L76.60125,123.37911846454325L77.158125,-54.177561081372765L77.4675,-54.07811044569199L77.529375,32.15199033297025L77.59125,28.974928753192618L77.83875,124.71703526423526L78.14812500000001,35.94122067964994L78.58125,32.79207088763898L78.643125,213.2393480741061L78.76687500000001,185.04171119103066L78.9525,123.9262185903696L79.2,35.09289762056791L79.38562499999999,-53.760003135296L79.4475,34.04316717294546L79.695,116.44895500769982L79.9425,31.868977062518777L80.06625,122.36783294677734L80.12812500000001,189.65169560359072L80.19,33.029170461801385L80.31375,34.29812322763296L80.56125,-54.02351144368832L80.623125,121.16688854510969L80.99437499999999,118.276039651724L81.118125,117.1258703965407L81.18,30.374969277015097L81.24187500000001,115.99793084951548L81.55125,26.840009395892796L81.613125,120.59217787522536L82.10812499999999,33.24891216571513L82.78875000000001,33.08328006450946L83.09812500000001,208.1597143319937L83.16000000000001,32.596013171856214L83.593125,118.56926404512846L83.964375,-53.78346492373026L84.08812499999999,33.686567335862385L84.335625,34.069780496450576L84.3975,34.53780934260441L84.583125,213.797292973445L84.706875,295.0198059082031L85.01625,33.08507713904747L85.51125,191.3500037560096L85.75874999999999,32.518546794011044L85.944375,111.98588403555064L86.13000000000001,29.84536725557768L86.43937500000001,28.739330203716566L86.74874999999999,-53.30956263679724L86.810625,118.56885892427883L86.8725,33.64071596585788L87.181875,32.670036022479714L87.42937500000001,211.79674389178936L88.048125,198.63104341947115L88.41937499999999,29.64279644305889L88.543125,120.31220820500302L88.66687499999999,31.483857756394602L88.914375,-54.108548801449615L89.10000000000001,-53.10214051833519L89.409375,32.01760966961201L89.96625,256.72098963810845L90.02812499999999,112.6900048475999L90.08999999999999,136.3142116840069L90.46125,30.949383897047785L90.83250000000001,202.95162611741287L91.08,34.737544309175924L91.141875,31.115301660390998L91.20375,34.02211127647987L91.265625,200.8308288574219L91.3275,34.92253910945012L91.513125,199.48512127216046L91.8225,35.171657268817604L91.94624999999999,34.3899194570688L92.00812499999999,-53.943715620957896L92.503125,312.9718534029447L92.565,117.61418644831731L92.626875,31.866245093712447L92.75062500000001,31.540574675339915L92.8125,33.438477560190044L92.874375,233.76802649864783L92.998125,120.61586186335636L93.121875,-53.24345749662472L93.245625,122.302244919997L93.3075,35.29217552771936L93.616875,122.08711536114032L93.740625,112.25138362004206L93.864375,277.63243455153247L94.2975,276.13947073129503L94.854375,33.946696472167964L95.2875,112.14560552743765L95.349375,-54.04323475062847L95.535,32.43687858581542L95.596875,204.16212721604566L95.65875,119.14815057607797L95.7825,288.2405759371244L95.90625,33.84105341984676L96.15375,27.722471677340003L96.215625,215.0536869929387L96.586875,29.958738767183753L96.83437500000001,132.31845280573918L96.958125,233.52190000093898L97.14375000000001,251.16005155123196L97.329375,111.89649775578427L97.515,125.49102384127102L97.63875,-53.92714563447695L97.88625,35.07043938269981L97.948125,33.99254784217247L98.38125,36.05889270489032L98.566875,122.85935880220853L98.62875,126.70432962270883L99,194.64157949594352L99.12375,30.58162246117225L99.185625,29.888367198063783L99.433125,33.99847922691932L99.495,197.860150381235L99.68062499999999,114.34978496844951L99.86625000000001,-53.61775158735423L100.051875,270.28707416240985L100.175625,33.595830653263974L100.36125,31.918386224599978L100.546875,121.00062279334436L100.60875,195.26164292555592L100.85625,34.61692217313326L100.918125,31.065622417743395L101.04187499999999,116.20759647075946L101.35125,34.229647416334885L101.47500000000001,-54.14155416018689L101.536875,31.753647466806267L101.59875,121.84362734281099L102.09374999999999,119.21786252535306L102.155625,116.99586815467248L102.2175,116.483546095628L102.40312499999999,31.105750157282905L102.89812500000001,213.68223865215595L103.021875,107.42293519240158L103.764375,31.00120820265551L103.82625,201.16527170034553L103.95,29.5208810366117L104.07374999999999,30.710513217632577L104.259375,32.870768209604115L104.32124999999999,32.118183517456046L104.44500000000001,106.15002470750076L104.630625,31.512096757155202L105.868125,33.936194493220405L106.239375,225.59210604154148L106.30125,30.480565584622887L106.42500000000001,120.99102454552283L106.6725,33.57638485248271L106.79625,-54.024245400612166L106.92,33.15581747201774L107.105625,-53.68601729090399L107.415,34.0630492577186L107.53875000000001,115.84671689547025L107.600625,33.24466359065129L107.6625,32.61769752502442L107.78625000000001,32.73436713585486L108.219375,110.80059391902043L108.343125,118.76267289381761L109.08562500000001,33.19275618333083L109.27125,-53.523987291867904L109.45687500000001,-52.6807202091584L109.51875,31.054943847656254L109.6425,33.37347124539888L109.76625,119.17228123591495L109.89,32.26011604895959L110.1375,286.62989854079024L110.26125,199.28623809814454L110.38499999999999,113.79686772273138L110.570625,-53.65788938999175L110.694375,37.06682299100435L111.00375,114.9471304673415L111.189375,108.08486110980695L111.49875,31.678269019493683L111.560625,121.2113271859976L111.68437499999999,112.54617655827448L111.87,-54.08958732783796L112.303125,-53.24578629227785L112.42687500000001,34.23539182222807L112.48875000000001,110.12320069533128L112.6125,120.04316641000601L112.674375,220.90924142690807L112.86,32.85576835045448L112.98375,132.44173419658955L113.293125,33.8108771104079L113.416875,243.11620049109828L113.47875,121.15377924992488L113.60249999999999,-54.130781126824694L113.66437499999999,-54.13143409204025L113.72625,32.44712606576773L114.22125,27.618449108417227L114.46875,-53.77244372138612L114.778125,31.82268940852239L114.84,-53.76579193243615L115.21125,201.57224156306341L115.335,115.66588756854718L115.45875000000001,151.65250255878155L115.520625,115.20067379291241L115.644375,28.229360961914054L116.263125,-53.759910457409354L116.325,32.221572435819176L116.44875,-54.07712848209419L116.82000000000001,33.32365176861102L116.88187500000001,128.66671424278846L117.19125,119.39675973745493L117.253125,32.78595252403847L117.43875,33.47786777202901L117.5625,31.59110051668608L117.68625,113.51792643620418L117.81,208.52243253267727L117.99562499999999,111.95589470496543L118.05749999999999,33.2976305448092L118.18125,31.792357283372137L118.42875000000001,32.69351225632888L118.614375,173.1306388268104L118.67625,34.304106550950266L118.80000000000001,241.7687477698693L118.92375,116.04675310575047L119.233125,32.76955032348633L119.79,205.13528982309194L120.0375,32.79871902465821L120.16125000000001,-53.891010266771694L120.470625,31.820154806283806L120.5325,121.96958876389724L120.718125,34.43513717651366L121.02749999999999,122.18760610727163L121.15125,135.28036405123197L121.46062500000001,-54.08130771105107L121.708125,202.7048140305739L121.955625,30.450326948899498L122.0175,-53.86388563238658L122.14125,207.3339533879207L122.265,32.5567943572998L122.450625,34.48111319908728L122.5125,30.948521716778085L122.63625,273.8457803579477L122.69812499999999,252.55142352764423L122.76,139.1397945697491L122.821875,120.91438399094801L122.94562499999999,196.82688446044924L123.255,32.00511844341572L123.44062500000001,108.48406096238357L123.62625,309.61180185171276L123.811875,-54.15481304251231L123.9975,32.07955160874586L124.36874999999999,-53.19402569257297L124.430625,-54.03569797713023L124.925625,118.88498822725735L125.11125,115.64547571035533L125.235,-53.60817330342074L125.35875,32.474695058969345L125.60625,107.26669358473558L125.791875,32.91595476590669L126.10125000000001,34.891822638878466L126.225,117.87849144568811L126.286875,32.45304706280048L126.781875,194.19253939115086L126.9675,-54.02509780182289L127.153125,31.90443033071665L127.215,-54.113506824924414L127.33874999999999,115.5082020686223L127.58624999999999,-53.24826173323851L128.08125,125.25651080791766L128.266875,-53.49459079137215L128.32875,30.83873396653396L128.4525,29.025792195246773L128.57625000000002,31.41129437960111L128.7,131.4197493333083L129.009375,36.0767803485577L129.07125,208.85423689622147L129.133125,106.18081389207106L129.31875,32.85190412081205L129.4425,31.665751824012176L129.50437499999998,125.49170943040114L129.628125,31.4704783806434L129.81375,32.576427136934726L129.9375,203.71599567119893L130.741875,156.95543060302734L130.865625,226.77931788517878L131.29875,32.39623146057129L131.360625,114.844375199538L131.855625,35.215067526010365L131.979375,30.060579916147088L132.28875,30.25310580913838L132.53625,31.541187550471378L132.598125,215.20162881704476L132.66,-53.987579894295116L132.721875,33.7108122605544L132.78375,31.40992320134089L133.03125,189.79581474891074L133.27875,122.9966012807993L133.464375,33.99848961463342L134.02125,126.33976240891677L134.083125,34.032353562575125L134.145,299.91370732234077L134.701875,289.5363809438852L135.01125,117.40725279587966L135.073125,123.54507258488583L135.135,263.78137347881614L135.25875,206.00091881385217L135.320625,146.045650775616L135.444375,185.0681583111103L135.50625,33.283586355356064L135.75375,-54.15968130964499L136.125,119.4023898784931L136.99125,32.939898446890034L137.176875,27.133155881441553L137.300625,29.916216659545903L137.424375,135.996015225924L137.795625,32.961639932485724L137.919375,33.12885096623348L137.98125000000002,32.672664114145135L138.043125,192.64630737304688L138.105,33.0426744901217L138.166875,34.36714958777795L138.414375,31.07563098027155L138.661875,32.38203145540678L138.72375,32.65319753793569L139.033125,137.13760422926683L139.3425,191.86432025615986L139.71375,121.454150390625L139.89937500000002,117.85518141526443L139.96125,32.70966515174278L140.45625,30.167225382878236L140.518125,114.45790029672476L140.58,30.575005487295304L140.889375,195.68355032113882L141.8175,34.52814876849834L142.003125,29.264527834378747L142.25062499999999,32.214088087815504L142.374375,-54.09410975712996L142.498125,123.65861029991736L142.62187500000002,33.62804295466496L142.74562500000002,32.13848630464994L142.80749999999998,115.3250355060284L142.93125,239.16060051551233L143.735625,207.84122701791617L143.7975,115.56958307119515L143.85937500000003,111.84145325880783L143.92125,32.83002759493315L144.045,267.3178499661959L144.230625,33.28182044396034L144.29250000000002,31.609211496206427L144.354375,128.28955711951622L144.66375,31.98404696537899L144.725625,195.57618290827824L144.849375,-54.132568564323265L144.91125000000002,119.98121408315805L144.973125,34.01804968026969L145.15875,116.85432516244742L145.220625,192.73065561147834L145.40625,28.12066392164964L146.14874999999998,31.25869885958158L146.2725,31.771384488619283L146.334375,285.4346466064453L146.458125,30.60961735065166L146.52,-53.94400201348157L146.58187500000003,205.65155921349157L146.705625,34.26283616286057L148.066875,33.955806497427126L148.43812499999999,33.02768501868614L148.995,120.0413589477539L149.056875,30.65057610731858L149.11875,32.24085203317496L149.36624999999998,125.57830141507662L149.428125,33.20676920964168L149.551875,411.36303476186896L150.23250000000002,340.68033282940206L150.35625000000002,35.45946966317984L150.665625,287.1413064809946L150.7275,233.0522714468149L150.85125,33.89115336491512L150.97500000000002,31.11263721172627L151.284375,34.72023837749776L151.408125,34.43108596801757L151.7175,30.372787857055656L151.779375,32.414430735661426L151.965,33.29778636052058L152.274375,207.19978567270132L152.33625,219.51865891676684L152.521875,117.3970208974985L152.70749999999998,35.113164050762464L152.769375,34.214117783766525L152.893125,33.81869905911958L153.016875,114.37750977736252L153.264375,323.96571138822117L153.635625,-54.04882163657592L154.06875,118.06151258028471L154.130625,32.18644118675818L154.37812499999998,31.480684309739342L154.873125,33.62119745107798L155.05875,34.04264778724084L155.986875,35.269551086425786L156.110625,112.4916618347168L156.29625000000001,-53.95231498456916L156.358125,120.2577142568735L156.54375,124.39829864501952L157.1625,113.28276936457708L157.71937499999999,33.909778536283056L157.843125,33.053062204214235L158.09062500000002,120.0845718383789L158.52375,107.50229732806866L159.01875,31.753787700946507L159.26624999999999,117.75576060368465L159.328125,-53.97268610344483L159.575625,111.72461225069486L160.44187499999998,125.19266791710486L160.6275,282.7970397949219L160.813125,117.91827639066257L161.1225,34.059642087496236L161.30812500000002,113.03408748920148L161.679375,35.33734130859375L161.803125,273.24821671705985L161.865,-54.00752381842869L162.298125,118.7229606628418L162.421875,213.42668011005108L162.6075,110.22517688457782L162.793125,120.27792874849759L163.22625,-53.95667222486094L163.288125,34.676838508019074L163.35,-54.11193844240446L163.72125,33.57258294912486L164.15437500000002,-51.623042673331035L164.34,29.781311416625968L164.52562500000002,114.68176592313326L164.71124999999998,-53.880082310392325L164.896875,213.57591001070463L165.0825,118.22476589496318L165.144375,120.50288508488582L165.20625,107.34588951697717L165.763125,34.68770405695988L166.134375,-53.92575274751738L166.258125,119.18206646259013L166.38187499999998,120.02800034743089L166.629375,-54.14305782237878L166.815,34.09494992769682L166.876875,31.765614113440883L166.93875,116.18936603252703L167.31,-53.59179155368071L167.37187500000002,30.65651268592248L167.43375,122.79242037259615L167.68125,136.20316702035757L167.86687500000002,215.53829463078424L167.99062500000002,196.62764810415416L168.67125,31.72551234318659L168.795,125.79033543513371L168.856875,121.29806459867036L168.91875000000002,35.390121283898L168.980625,32.2048845731295L169.04250000000002,33.955401376577534L169.228125,219.02655134934645L169.29,122.67950592041016L169.72312499999998,33.32180275550255L169.90875,-54.14712436898395L170.5275,118.1108542222243L171.084375,32.92911599966197L171.455625,30.27258277306189L171.703125,189.6361348078801L172.074375,33.81351558978741L172.198125,117.18184978778547L172.26000000000002,32.82801237839918L172.5075,33.63825407761793L172.816875,33.03452013455904L172.87875000000003,31.26586638230543L173.37375,110.41132472111629L173.49749999999997,152.1291739830604L173.745,33.204670891394976L174.301875,32.68798599243165L174.54937500000003,35.65947471031776L174.673125,26.8542976966271L174.73499999999999,33.09731386624849L174.796875,115.53280017559347L174.85875000000001,108.90255080003004L175.78687499999998,117.89367828369141L176.34375,113.56888856154222L176.405625,283.73255732609675L176.52937500000002,34.50538928692158L176.715,119.31613030066858L177.024375,196.53941486065204L177.08625,30.502577150785L177.21,125.20673288198617L177.395625,115.51508912306564L177.519375,33.28840625469502L177.58125,33.7970718383789L177.9525,125.25112997201774L178.138125,-53.627543955582844L178.20000000000002,34.17032318115235L178.32375000000002,32.18779158959021L178.385625,33.73451702411358L178.4475,34.3846424983098L178.695,35.287428342379066L178.880625,35.03020776601938L178.94250000000002,109.64300783597507L179.00437499999998,33.16348360501802L179.06625,197.4066435593825L179.12812499999998,121.41881138728215L179.31375,34.61988267164965L179.375625,276.2253148005559L179.4375,192.81616727388823L179.49937500000001,116.35858189509466L179.685,32.41712634746846L179.746875,-53.97236923758798L179.80875,112.4736807016226L180.17999999999998,35.17510598989634L180.984375,178.41698807936447L181.355625,-53.31192527367517L181.603125,27.047166384183434L181.66500000000002,32.58689795274L181.78875,31.099112407977774L182.098125,32.703474074143635L182.46937499999999,33.52279463547926L182.53125,31.319607221163245L182.77875,31.09254737267128L182.840625,118.90010235126202L182.964375,196.21294978215144L183.02625,117.74393938504733L183.76875,116.80158673799956L184.14,-54.18446176969089L184.325625,36.29927479670598L184.38750000000002,255.1846674992488L185.06812499999998,32.014524518526514L185.625,287.59792961707484L185.810625,200.47110231839693L186.11999999999998,115.20732192993164L186.181875,33.005850043663614L186.24375,34.15857467651368L186.305625,107.70111817580002L186.429375,30.842348891038153L187.3575,-54.02115225585607L187.543125,32.171706214317915L187.60500000000002,31.946505766648517L187.79062499999998,31.835954519418568L187.97625,209.37549238938553L188.1,118.55945804302509L188.161875,122.71758728027343L188.3475,34.460140404334425L189.09,134.26180713360125L189.151875,30.1095424065223L189.21375,-53.42699590692155L189.646875,32.567618355384234L189.8325,33.02534778301533L190.760625,35.38646480853741L190.94625000000002,123.11576913686899L191.13187499999998,456.4470435509315L191.3175,282.46380192683296L191.565,35.16450013380785L191.62687499999998,35.21519217857948L191.68875,-54.02312531287852L191.8125,112.01224805391752L191.87437500000001,121.0171600341797L192.43125,30.29180004413312L193.111875,117.97369484534632L193.17375,121.79308072603665L193.29749999999999,191.67169048602764L193.359375,120.13665583683895L193.42125,208.7673540555514L193.483125,34.538193688025835L193.54500000000002,121.51857499342698L193.7925,219.7499725341797L193.85437499999998,-54.01031989890796L194.225625,35.017295837402344L194.65875,202.0482897244967L196.14374999999998,-53.873414006599994L196.205625,122.24708615816557L196.2675,32.73715104323168L196.329375,-53.57554646730422L196.515,34.05377302903395L196.700625,32.30879807105432L196.824375,33.38747388399565L197.07187499999998,31.45161429185133L197.50500000000002,133.02386169433595L197.7525,32.17521726168118L197.87625,255.6062009371244L198.309375,30.86848957355205L198.37125,35.51209382277269L198.433125,278.18495706411505L198.61875,200.10281630295972L198.804375,115.59284116304838L199.23749999999998,-53.83172340301366L199.36124999999998,33.688946122389574L199.48499999999999,32.68751854529748L199.670625,206.97952458308293L199.85625,205.74988931509162L200.35125,33.711923745962295L200.41312499999998,118.71112905649039L200.475,193.93594207763672L200.59875,34.49973837045523L200.660625,198.1776612501878L201.09375,33.90221628042367L201.526875,-53.64565858703393L201.650625,238.77137286846454L201.7125,33.651893146221454L201.774375,196.4456138023963L201.83625,31.329252213698158L201.89812500000002,33.66387018057016L202.269375,110.95353223360502L202.33125,35.14446223332332L202.393125,107.49309381338267L204.06375,28.329405036339395L204.125625,195.1520733173077L204.249375,117.88331134502704L204.435,-53.00193819357799L204.80624999999998,126.58771714430587L204.868125,-54.07117498287789L204.93,183.7551928006686L204.991875,115.89595466026893L205.42499999999998,119.92728107158953L205.6725,33.448751009427575L205.79625000000001,-54.145045933471266L205.981875,280.57201221172625L206.415,114.94870939988358L206.600625,32.48554502633902L207.1575,33.28855168269231L207.52875,35.42371515127328L207.590625,36.464813408484815L207.714375,118.37323749248799L207.9,34.91090486966646L208.51875,34.728392733060396L208.704375,29.649787374643182L208.76624999999999,34.34855557955229L209.01375000000002,120.6919414813702L209.26125,119.54431721613956L209.323125,32.513285416823166L209.385,33.49420764629657L209.50875000000002,205.33741396390477L209.63250000000002,196.7198702298678L209.88,127.02458284818209L210.00375,256.0961063091571L210.31312499999999,28.52171278733474L210.375,30.610219838069042L210.6225,112.34621306199294L210.808125,-53.233079115244074L210.99375,31.995182594886195L211.426875,122.88509955772987L211.550625,113.0913549569937L212.41687499999998,29.576761744572572L212.47875,209.26210010235127L212.6025,120.89620549128605L212.664375,222.05806027925934L213.03562499999998,34.1873901954064L213.22125,121.45007840670071L213.5925,290.65887732872596L213.778125,-52.86486045764043L213.90187500000002,122.15989168607273L214.08749999999998,121.5210680448092L214.396875,195.8692826491136L214.644375,35.95635557908278L214.70624999999998,200.2942826491136L214.83,116.93993031428411L215.015625,126.20341327373798L215.07750000000001,117.96543661264272L215.13937499999997,207.5116248497596L215.263125,114.33195965106671L215.386875,202.8756088256836L215.881875,111.87916066096379L215.94375,110.7787589439979L216.005625,29.282872537466194L216.0675,34.94657627986028L216.19125000000003,126.27801783635066L216.93375,214.17085594764123L217.119375,-54.09389632206698L217.305,119.53513447688177L217.5525,34.31628095186673L217.614375,282.46112189659704L217.738125,117.72776571420522L217.8,192.352251962515L217.985625,31.458672743577228L218.17125000000001,-53.53484569925528L218.356875,34.796504974365234L218.604375,29.725285280667826L218.79,35.324096973125755L218.91375000000002,33.2215197636531L219.223125,118.4249371455266L219.40875,32.530866622924805L219.84187500000002,324.9659651536208L219.96562500000002,115.8066410945012L220.15124999999998,33.74920525184044L220.275,115.40564416738657L220.336875,31.20465158315806L220.58437500000002,-53.272243313147456L220.708125,34.235620351938095L220.76999999999998,30.256476622361408L221.079375,34.63326204740085L221.203125,205.4498090303861L221.63625000000002,210.51132659912108L221.76,32.352852366520814L221.945625,117.66883621215821L222.0075,33.800759476881765L222.25500000000002,33.345943803053636L222.5025,113.42918419471152L222.811875,115.51789380587064L222.87375,114.93913192749024L223.430625,35.70005950927735L224.235,33.4446894132174L224.35875000000001,-54.121450443795105L224.420625,252.00604776235727L224.97750000000002,120.76469703087439L225.286875,114.66716079711914L225.34875,-54.06177783470887L225.9675,35.686545093242934L226.58625,32.044778735821055L226.771875,32.18176671541654L226.9575,115.40230971116287L227.019375,-54.0516276989992L227.266875,33.75661169198843L227.514375,31.848970325176527L227.70000000000002,259.90565502460186L227.82375,215.44700739933893L227.885625,117.47002575214093L228.009375,36.14570283156175L228.38062499999998,33.327432896540714L228.81375000000003,35.2703717158391L229.55625,134.81441274789665L229.618125,-54.12794690395776L229.741875,110.12616119384766L230.05124999999998,207.61433856670672L230.4225,298.42747474083535L231.226875,119.22293172983024L231.28875,35.34463348388671L231.53625000000002,191.81583040677586L231.59812499999998,-54.06597986794436L232.09312500000001,33.97711169903096L232.4025,138.8904063298152L232.58812500000002,278.88294912484974L233.26874999999998,-53.9978547231509L233.330625,34.902324617826025L233.39249999999998,34.001626704289365L233.454375,36.21858303363506L234.13500000000002,133.1758339515099L234.32062499999998,-54.06153356111968L234.50625,33.1215691786546L234.691875,190.14151787391074L234.75375,116.63463539710412L235.125,113.49357763437123L235.3725,32.806935706505406L235.49625,205.21296914907603L235.74375,34.827346097506L235.8675,34.984418722299424L235.92937500000002,249.825167964055L236.11499999999998,34.00720490675707L236.48625,34.04028977614183L236.919375,120.63154731163611L237.78562499999998,112.4858031639686L238.033125,28.21377419691819L238.095,120.16902395395132L238.52812500000002,33.11098409799428L238.59,32.69256697434645L238.899375,125.50911923922025L239.085,34.35558806199293L239.518125,221.41445828951322L239.641875,34.19787139892578L240.013125,-54.11099096926359L240.136875,118.40232309194712L240.19875000000002,31.883119935255788L240.32250000000002,117.36125599787786L240.879375,193.58116009051983L240.94125,33.8257938678448L241.065,189.57098306509164L241.18875,33.21604543832632L241.86937500000002,33.999860792893635L241.93125,186.74377969595102L242.17875,193.85059661865236L242.240625,135.24683251014122L242.3025,130.11195690448469L243.04500000000002,33.57175193199745L243.16875,32.089316059992875L243.354375,116.80715455275316L243.41625,32.266639533409716L243.54000000000002,32.88846887441782L243.849375,194.94500462458686L243.973125,111.86908457829402L244.096875,35.449725987361035L245.086875,204.22225130521332L245.39624999999998,36.09329681396485L245.458125,33.838529205322274L245.705625,121.51697528545674L245.7675,32.679291475736186L246.26250000000002,31.866842387272754" style="fill: none;" fill="none"></path></g></g></g></g></g></g><g transform="translate(51, 177)" clip-path="url(#clip_1)"><clipPath id="clip_1"><rect width="278" height="23"></rect></clipPath><g><g><line x1="0" y1="0" x2="0" y2="5" style="visibility: inherit;" fill="rgb(0, 0, 0)" stroke="rgb(204, 204, 204)" stroke-width="1px"></line><line x1="30.9375" y1="0" x2="30.9375" y2="5" style="visibility: inherit;" fill="rgb(0, 0, 0)" stroke="rgb(204, 204, 204)" stroke-width="1px"></line><line x1="61.875" y1="0" x2="61.875" y2="5" style="visibility: inherit;" fill="rgb(0, 0, 0)" stroke="rgb(204, 204, 204)" stroke-width="1px"></line><line x1="92.8125" y1="0" x2="92.8125" y2="5" style="visibility: inherit;" fill="rgb(0, 0, 0)" stroke="rgb(204, 204, 204)" stroke-width="1px"></line><line x1="123.75" y1="0" x2="123.75" y2="5" style="visibility: inherit;" fill="rgb(0, 0, 0)" stroke="rgb(204, 204, 204)" stroke-width="1px"></line><line x1="154.6875" y1="0" x2="154.6875" y2="5" style="visibility: inherit;" fill="rgb(0, 0, 0)" stroke="rgb(204, 204, 204)" stroke-width="1px"></line><line x1="185.625" y1="0" x2="185.625" y2="5" style="visibility: inherit;" fill="rgb(0, 0, 0)" stroke="rgb(204, 204, 204)" stroke-width="1px"></line><line x1="216.5625" y1="0" x2="216.5625" y2="5" style="visibility: inherit;" fill="rgb(0, 0, 0)" stroke="rgb(204, 204, 204)" stroke-width="1px"></line><line x1="247.5" y1="0" x2="247.5" y2="5" style="visibility: inherit;" fill="rgb(0, 0, 0)" stroke="rgb(204, 204, 204)" stroke-width="1px"></line><line x1="278.4375" y1="0" x2="278.4375" y2="5" style="visibility: inherit;" fill="rgb(0, 0, 0)" stroke="rgb(204, 204, 204)" stroke-width="1px"></line></g><g transform="translate(0, 8)"><text x="0" y="0" dx="0em" dy="0.95em" style="text-anchor: middle; visibility: hidden; font-family: Roboto, sans-serif; font-size: 12px; font-weight: 200;" fill="rgb(33, 33, 33)" stroke="none" stroke-width="1px">-500</text><text x="30.9375" y="0" dx="0em" dy="0.95em" style="text-anchor: middle; visibility: inherit; font-family: Roboto, sans-serif; font-size: 12px; font-weight: 200;" fill="rgb(33, 33, 33)" stroke="none" stroke-width="1px">0</text><text x="61.875" y="0" dx="0em" dy="0.95em" style="text-anchor: middle; visibility: inherit; font-family: Roboto, sans-serif; font-size: 12px; font-weight: 200;" fill="rgb(33, 33, 33)" stroke="none" stroke-width="1px">500</text><text x="92.8125" y="0" dx="0em" dy="0.95em" style="text-anchor: middle; visibility: inherit; font-family: Roboto, sans-serif; font-size: 12px; font-weight: 200;" fill="rgb(33, 33, 33)" stroke="none" stroke-width="1px">1k</text><text x="123.75" y="0" dx="0em" dy="0.95em" style="text-anchor: middle; visibility: inherit; font-family: Roboto, sans-serif; font-size: 12px; font-weight: 200;" fill="rgb(33, 33, 33)" stroke="none" stroke-width="1px">1.5k</text><text x="154.6875" y="0" dx="0em" dy="0.95em" style="text-anchor: middle; visibility: inherit; font-family: Roboto, sans-serif; font-size: 12px; font-weight: 200;" fill="rgb(33, 33, 33)" stroke="none" stroke-width="1px">2k</text><text x="185.625" y="0" dx="0em" dy="0.95em" style="text-anchor: middle; visibility: inherit; font-family: Roboto, sans-serif; font-size: 12px; font-weight: 200;" fill="rgb(33, 33, 33)" stroke="none" stroke-width="1px">2.5k</text><text x="216.5625" y="0" dx="0em" dy="0.95em" style="text-anchor: middle; visibility: inherit; font-family: Roboto, sans-serif; font-size: 12px; font-weight: 200;" fill="rgb(33, 33, 33)" stroke="none" stroke-width="1px">3k</text><text x="247.5" y="0" dx="0em" dy="0.95em" style="text-anchor: middle; visibility: inherit; font-family: Roboto, sans-serif; font-size: 12px; font-weight: 200;" fill="rgb(33, 33, 33)" stroke="none" stroke-width="1px">3.5k</text><text x="278.4375" y="0" dx="0em" dy="0.95em" style="text-anchor: middle; visibility: hidden; font-family: Roboto, sans-serif; font-size: 12px; font-weight: 200;" fill="rgb(33, 33, 33)" stroke="none" stroke-width="1px">4k</text></g><line x1="0" y1="0" x2="278.4375" y2="0" fill="rgb(0, 0, 0)" stroke="rgb(204, 204, 204)" stroke-width="1px"></line></g></g></g></g></svg>