<svg viewBox="0 0 330 200" xmlns="http://www.w3.org/2000/svg"><g><g><g><g><g><line x1="51.5625" y1="177" x2="46.5625" y2="177" style="visibility: inherit;" fill="rgb(0, 0, 0)" stroke="rgb(204, 204, 204)" stroke-width="1px"></line><line x1="51.5625" y1="165.2" x2="46.5625" y2="165.2" style="visibility: inherit;" fill="rgb(0, 0, 0)" stroke="rgb(204, 204, 204)" stroke-width="1px"></line><line x1="51.5625" y1="153.4" x2="46.5625" y2="153.4" style="visibility: inherit;" fill="rgb(0, 0, 0)" stroke="rgb(204, 204, 204)" stroke-width="1px"></line><line x1="51.5625" y1="141.6" x2="46.5625" y2="141.6" style="visibility: inherit;" fill="rgb(0, 0, 0)" stroke="rgb(204, 204, 204)" stroke-width="1px"></line><line x1="51.5625" y1="129.8" x2="46.5625" y2="129.8" style="visibility: inherit;" fill="rgb(0, 0, 0)" stroke="rgb(204, 204, 204)" stroke-width="1px"></line><line x1="51.5625" y1="118.00000000000001" x2="46.5625" y2="118.00000000000001" style="visibility: inherit;" fill="rgb(0, 0, 0)" stroke="rgb(204, 204, 204)" stroke-width="1px"></line><line x1="51.5625" y1="106.2" x2="46.5625" y2="106.2" style="visibility: inherit;" fill="rgb(0, 0, 0)" stroke="rgb(204, 204, 204)" stroke-width="1px"></line><line x1="51.5625" y1="94.4" x2="46.5625" y2="94.4" style="visibility: inherit;" fill="rgb(0, 0, 0)" stroke="rgb(204, 204, 204)" stroke-width="1px"></line><line x1="51.5625" y1="82.6" x2="46.5625" y2="82.6" style="visibility: inherit;" fill="rgb(0, 0, 0)" stroke="rgb(204, 204, 204)" stroke-width="1px"></line><line x1="51.5625" y1="70.8" x2="46.5625" y2="70.8" style="visibility: inherit;" fill="rgb(0, 0, 0)" stroke="rgb(204, 204, 204)" stroke-width="1px"></line><line x1="51.5625" y1="59.00000000000001" x2="46.5625" y2="59.00000000000001" style="visibility: inherit;" fill="rgb(0, 0, 0)" stroke="rgb(204, 204, 204)" stroke-width="1px"></line><line x1="51.5625" y1="47.20000000000001" x2="46.5625" y2="47.20000000000001" style="visibility: inherit;" fill="rgb(0, 0, 0)" stroke="rgb(204, 204, 204)" stroke-width="1px"></line><line x1="51.5625" y1="35.39999999999999" x2="46.5625" y2="35.39999999999999" style="visibility: inherit;" fill="rgb(0, 0, 0)" stroke="rgb(204, 204, 204)" stroke-width="1px"></line><line x1="51.5625" y1="23.599999999999994" x2="46.5625" y2="23.599999999999994" style="visibility: inherit;" fill="rgb(0, 0, 0)" stroke="rgb(204, 204, 204)" stroke-width="1px"></line><line x1="51.5625" y1="11.799999999999997" x2="46.5625" y2="11.799999999999997" style="visibility: inherit;" fill="rgb(0, 0, 0)" stroke="rgb(204, 204, 204)" stroke-width="1px"></line><line x1="51.5625" y1="0" x2="46.5625" y2="0" style="visibility: inherit;" fill="rgb(0, 0, 0)" stroke="rgb(204, 204, 204)" stroke-width="1px"></line></g><g transform="translate(41.5625, 0)"><text x="0" y="177" dx="0em" dy="0.3em" style="text-anchor: end; visibility: hidden; font-family: Roboto, sans-serif; font-size: 12px; font-weight: 200;" fill="rgb(33, 33, 33)" stroke="none" stroke-width="1px">-400</text><text x="0" y="165.2" dx="0em" dy="0.3em" style="text-anchor: end; visibility: inherit; font-family: Roboto, sans-serif; font-size: 12px; font-weight: 200;" fill="rgb(33, 33, 33)" stroke="none" stroke-width="1px">-380</text><text x="0" y="153.4" dx="0em" dy="0.3em" style="text-anchor: end; visibility: hidden; font-family: Roboto, sans-serif; font-size: 12px; font-weight: 200;" fill="rgb(33, 33, 33)" stroke="none" stroke-width="1px">-360</text><text x="0" y="141.6" dx="0em" dy="0.3em" style="text-anchor: end; visibility: inherit; font-family: Roboto, sans-serif; font-size: 12px; font-weight: 200;" fill="rgb(33, 33, 33)" stroke="none" stroke-width="1px">-340</text><text x="0" y="129.8" dx="0em" dy="0.3em" style="text-anchor: end; visibility: hidden; font-family: Roboto, sans-serif; font-size: 12px; font-weight: 200;" fill="rgb(33, 33, 33)" stroke="none" stroke-width="1px">-320</text><text x="0" y="118.00000000000001" dx="0em" dy="0.3em" style="text-anchor: end; visibility: inherit; font-family: Roboto, sans-serif; font-size: 12px; font-weight: 200;" fill="rgb(33, 33, 33)" stroke="none" stroke-width="1px">-300</text><text x="0" y="106.2" dx="0em" dy="0.3em" style="text-anchor: end; visibility: hidden; font-family: Roboto, sans-serif; font-size: 12px; font-weight: 200;" fill="rgb(33, 33, 33)" stroke="none" stroke-width="1px">-280</text><text x="0" y="94.4" dx="0em" dy="0.3em" style="text-anchor: end; visibility: inherit; font-family: Roboto, sans-serif; font-size: 12px; font-weight: 200;" fill="rgb(33, 33, 33)" stroke="none" stroke-width="1px">-260</text><text x="0" y="82.6" dx="0em" dy="0.3em" style="text-anchor: end; visibility: hidden; font-family: Roboto, sans-serif; font-size: 12px; font-weight: 200;" fill="rgb(33, 33, 33)" stroke="none" stroke-width="1px">-240</text><text x="0" y="70.8" dx="0em" dy="0.3em" style="text-anchor: end; visibility: inherit; font-family: Roboto, sans-serif; font-size: 12px; font-weight: 200;" fill="rgb(33, 33, 33)" stroke="none" stroke-width="1px">-220</text><text x="0" y="59.00000000000001" dx="0em" dy="0.3em" style="text-anchor: end; visibility: hidden; font-family: Roboto, sans-serif; font-size: 12px; font-weight: 200;" fill="rgb(33, 33, 33)" stroke="none" stroke-width="1px">-200</text><text x="0" y="47.20000000000001" dx="0em" dy="0.3em" style="text-anchor: end; visibility: inherit; font-family: Roboto, sans-serif; font-size: 12px; font-weight: 200;" fill="rgb(33, 33, 33)" stroke="none" stroke-width="1px">-180</text><text x="0" y="35.39999999999999" dx="0em" dy="0.3em" style="text-anchor: end; visibility: hidden; font-family: Roboto, sans-serif; font-size: 12px; font-weight: 200;" fill="rgb(33, 33, 33)" stroke="none" stroke-width="1px">-160</text><text x="0" y="23.599999999999994" dx="0em" dy="0.3em" style="text-anchor: end; visibility: inherit; font-family: Roboto, sans-serif; font-size: 12px; font-weight: 200;" fill="rgb(33, 33, 33)" stroke="none" stroke-width="1px">-140</text><text x="0" y="11.799999999999997" dx="0em" dy="0.3em" style="text-anchor: end; visibility: hidden; font-family: Roboto, sans-serif; font-size: 12px; font-weight: 200;" fill="rgb(33, 33, 33)" stroke="none" stroke-width="1px">-120</text><text x="0" y="0" dx="0em" dy="0.3em" style="text-anchor: end; visibility: hidden; font-family: Roboto, sans-serif; font-size: 12px; font-weight: 200;" fill="rgb(33, 33, 33)" stroke="none" stroke-width="1px">-100</text></g><line x1="51.5625" y1="0" x2="51.5625" y2="177" fill="rgb(0, 0, 0)" stroke="rgb(204, 204, 204)" stroke-width="1px"></line></g></g><g transform="translate(51, 0)" clip-path="url(#clip_0)"><clipPath id="clip_0"><rect width="278" height="177"></rect></clipPath><g><g><g><line x1="0" y1="0" x2="0" y2="177" fill="rgb(0, 0, 0)" stroke="rgb(66, 66, 66)" stroke-width="1px" opacity="0.25"></line><line x1="30.9375" y1="0" x2="30.9375" y2="177" fill="rgb(0, 0, 0)" stroke="rgb(66, 66, 66)" stroke-width="1px" opacity="0.25"></line><line x1="61.875" y1="0" x2="61.875" y2="177" fill="rgb(0, 0, 0)" stroke="rgb(66, 66, 66)" stroke-width="1px" opacity="0.25"></line><line x1="92.8125" y1="0" x2="92.8125" y2="177" fill="rgb(0, 0, 0)" stroke="rgb(66, 66, 66)" stroke-width="1px" opacity="0.25"></line><line x1="123.75" y1="0" x2="123.75" y2="177" fill="rgb(0, 0, 0)" stroke="rgb(66, 66, 66)" stroke-width="1px" opacity="0.25"></line><line x1="154.6875" y1="0" x2="154.6875" y2="177" fill="rgb(0, 0, 0)" stroke="rgb(66, 66, 66)" stroke-width="1px" opacity="0.25"></line><line x1="185.625" y1="0" x2="185.625" y2="177" fill="rgb(0, 0, 0)" stroke="rgb(66, 66, 66)" stroke-width="1px" opacity="0.25"></line><line x1="216.5625" y1="0" x2="216.5625" y2="177" fill="rgb(0, 0, 0)" stroke="rgb(66, 66, 66)" stroke-width="1px" opacity="0.25"></line><line x1="247.5" y1="0" x2="247.5" y2="177" fill="rgb(0, 0, 0)" stroke="rgb(66, 66, 66)" stroke-width="1px" opacity="0.25"></line><line x1="278.4375" y1="0" x2="278.4375" y2="177" fill="rgb(0, 0, 0)" stroke="rgb(66, 66, 66)" stroke-width="1px" opacity="0.25"></line></g><g><line x1="0" y1="177" x2="278.4375" y2="177" fill="rgb(0, 0, 0)" stroke="rgb(66, 66, 66)" stroke-width="1px" opacity="0.25"></line><line x1="0" y1="165.2" x2="278.4375" y2="165.2" fill="rgb(0, 0, 0)" stroke="rgb(66, 66, 66)" stroke-width="1px" opacity="0.25"></line><line x1="0" y1="153.4" x2="278.4375" y2="153.4" fill="rgb(0, 0, 0)" stroke="rgb(66, 66, 66)" stroke-width="1px" opacity="0.25"></line><line x1="0" y1="141.6" x2="278.4375" y2="141.6" fill="rgb(0, 0, 0)" stroke="rgb(66, 66, 66)" stroke-width="1px" opacity="0.25"></line><line x1="0" y1="129.8" x2="278.4375" y2="129.8" fill="rgb(0, 0, 0)" stroke="rgb(66, 66, 66)" stroke-width="1px" opacity="0.25"></line><line x1="0" y1="118.00000000000001" x2="278.4375" y2="118.00000000000001" fill="rgb(0, 0, 0)" stroke="rgb(66, 66, 66)" stroke-width="1px" opacity="0.25"></line><line x1="0" y1="106.2" x2="278.4375" y2="106.2" fill="rgb(0, 0, 0)" stroke="rgb(66, 66, 66)" stroke-width="1px" opacity="0.25"></line><line x1="0" y1="94.4" x2="278.4375" y2="94.4" fill="rgb(0, 0, 0)" stroke="rgb(66, 66, 66)" stroke-width="1px" opacity="0.25"></line><line x1="0" y1="82.6" x2="278.4375" y2="82.6" fill="rgb(0, 0, 0)" stroke="rgb(66, 66, 66)" stroke-width="1px" opacity="0.25"></line><line x1="0" y1="70.8" x2="278.4375" y2="70.8" fill="rgb(0, 0, 0)" stroke="rgb(66, 66, 66)" stroke-width="1px" opacity="0.25"></line><line x1="0" y1="59.00000000000001" x2="278.4375" y2="59.00000000000001" fill="rgb(0, 0, 0)" stroke="rgb(66, 66, 66)" stroke-width="1px" opacity="0.25"></line><line x1="0" y1="47.20000000000001" x2="278.4375" y2="47.20000000000001" fill="rgb(0, 0, 0)" stroke="rgb(66, 66, 66)" stroke-width="1px" opacity="0.25"></line><line x1="0" y1="35.39999999999999" x2="278.4375" y2="35.39999999999999" fill="rgb(0, 0, 0)" stroke="rgb(66, 66, 66)" stroke-width="1px" opacity="0.25"></line><line x1="0" y1="23.599999999999994" x2="278.4375" y2="23.599999999999994" fill="rgb(0, 0, 0)" stroke="rgb(66, 66, 66)" stroke-width="1px" opacity="0.25"></line><line x1="0" y1="11.799999999999997" x2="278.4375" y2="11.799999999999997" fill="rgb(0, 0, 0)" stroke="rgb(66, 66, 66)" stroke-width="1px" opacity="0.25"></line><line x1="0" y1="0" x2="278.4375" y2="0" fill="rgb(0, 0, 0)" stroke="rgb(66, 66, 66)" stroke-width="1px" opacity="0.25"></line></g></g></g><g><g><line x1="0" y1="-58.999999999999986" x2="278.4375" y2="-58.999999999999986" fill="rgb(0, 0, 0)" stroke="rgb(153, 153, 153)" stroke-width="1.5px"></line></g></g><g><g><line x1="30.9375" y1="0" x2="30.9375" y2="177" fill="rgb(0, 0, 0)" stroke="rgb(153, 153, 153)" stroke-width="1.5px"></line></g></g><g><g><g><g><g><path stroke="rgb(255, 112, 67)" stroke-width="2px" d="M34.093125,184.03421404435505L34.27875,148.43541943623958L34.65,95.46548233257332L34.711875,154.89985136176708L34.77375,69.45284236489891L34.835625,48.218313144582126L35.021249999999995,126.44547861109629L35.083125,81.51909867698419L35.145,114.82145149251059L35.268750000000004,103.17908913291616L35.330625,135.7433493587811L35.701874999999994,148.34927262712318L36.01125,95.8596570830142L36.444375,142.23001797895756L37.06312500000001,156.0150137594967L37.310625,99.2013961663436L37.496249999999996,93.03157235876826L37.558125000000004,62.64032103686514L37.681875,43.9525198396543L38.115,33.09358261328432L38.424375000000005,26.002655498840358L38.671875,51.64539739002345L38.73375,36.35012365222868L38.857499999999995,58.487706652557826L38.98125,41.05540325419778L39.3525,30.91893318359757L39.414375,-4.837494611229685L39.8475,3.2709436084179186L39.97125,72.38062186237089L40.033125,49.28512961099813L40.21874999999999,36.419888799526305L40.651875,28.50250157723265L40.8375,-6.345195812196693L40.96125,2.8493529720104447L41.085,34.462019193584005L41.45625,58.215018035025075L41.518125,97.59713704203648L41.580000000000005,123.34468273804207L41.889375,177.68507819767083L42.3225,112.408594556428L42.384375000000006,44.10546935823975L42.44625,92.55794518919305L42.693749999999994,61.816873497781565L42.755625,13.698917082666842L42.8175,14.436432036709567L43.250625,14.194526244730817L43.43625,-14.9375132470556L43.498125,-2.5398678420318523L43.56,34.62290247593391L43.621875,53.930632354701174L43.745625000000004,67.3082559386997L43.993125,16.930743629700245L44.116875,16.907125743249868L44.240625,46.56257641030541L44.488125,113.20037458153487L44.550000000000004,74.32280687172367L44.611875,21.209376723046027L44.7975,83.37067901234325L45.106875,56.688107419612976L45.725625,68.08554450547872L46.035,120.41121342203724L46.096875000000004,106.33701375878877L46.15875,99.86567016933579L46.901250000000005,125.05283093460928L46.963125,80.92302717404681L47.025,117.39047462962337L47.705625,47.17065633787077L47.89125,92.78360327537871L48.015,92.212509133196L48.13875,166.9582711049176L48.386250000000004,106.6703840801869L48.571875000000006,182.05356736217465L48.7575,143.78110574933604L48.88125,122.96813628895707L49.190625,80.26316467132345L49.314375,54.305031523741334L49.376250000000006,9.356851042769573L49.871249999999996,40.68797933904064L49.995,140.0583188534244L50.2425,146.1129374790468L50.49,166.81395059777964L50.61375,170.91507592507404L50.675625,169.86592092125537L50.86125,136.88284668117117L51.789375,156.4620233163199L51.85125,137.66463439994817L52.160624999999996,147.1204661868439L52.284375,94.64647456684268L52.34625,94.14033676647279L52.7175,90.85497183527428L52.841249999999995,60.88694028500245L53.088750000000005,43.62445103623585L53.33625,90.90960458170244L53.398125,90.02917803222458L53.46,120.68366807421754L53.521874999999994,77.97769565654224L53.58375,136.34567171521442L53.645625,117.86256806819115L54.32625,77.08871619491859L54.82125,110.96688132827929L55.06875,138.0695400518504L55.192499999999995,119.28646048130555L55.31625,108.62790228975987L55.501875,97.70702732356295L55.81125,94.55081588144247L55.935,136.75928652593578L56.244375000000005,116.83049025052242L56.55375,104.72878060050874L56.615625,97.90290501802009L56.986875,154.65211276178866L57.048750000000005,69.37016536691968L57.29625,47.2770335158061L57.54375,65.16030397178834L57.853125,45.65423008204761L57.915,63.252996606357485L57.976875,73.77045165033792L58.100625,51.083739068816044L58.348124999999996,36.90454413098688L58.410000000000004,86.45841617585774L58.533750000000005,57.52324819184277L58.78125,40.80953231964668L58.905,31.396051178897388L59.152499999999996,86.48588412530721L59.461875,115.57325105623899L59.709375,105.63009937641918L59.77125,69.41855373595894L59.895,48.27031357702459L60.01875,63.77480252609757L60.26625,74.30399296585384L60.328125,49.72943816842832L60.637499999999996,36.0809893170726L60.699374999999996,27.755439293368557L61.070625,106.87796206234925L61.194374999999994,70.40602616929432L61.50375,49.04162998380315L61.75125,35.659807671678365L62.431875,27.828341237528523L62.49375,23.40705198372804L62.555625,20.662825550588384L62.6175,77.06991298172024L62.679375,81.25556692965715L62.74125,55.370458077716165L62.926875,97.46545331342655L62.988749999999996,65.21209602370047L63.050625000000004,104.37389701851716L63.916875000000005,155.00246467595406L63.97875,99.91009288027945L64.10249999999999,127.96993719789425L64.164375,144.38733414490844L64.22625,121.78188095569509L64.35,49.57124123179851L64.47375,127.4417032351729L64.5975,112.30198348895532L64.72125,73.66644201598062L64.96875,50.28302844811376L65.0925,127.6061852329308L65.34,83.53951405723893L65.71124999999999,119.30409649586683L65.83500000000001,108.06078516802788L66.0825,96.53254660130501L66.268125,64.44094193173026L66.391875,45.18153900547373L67.0725,3.7702611522885796L67.134375,8.539918379605592L67.32000000000001,41.91804929436491L67.44375000000001,63.1336424428299L67.505625,103.04022623718232L67.69125,68.92083752453595L67.815,106.24460896003409L68.248125,96.22691717045407L68.5575,93.45841043410837L68.866875,116.18072729073846L68.92875,75.3739614293747L69.0525,51.74995907198029L69.42375,99.49091892463352L69.485625,125.69357039774886L69.67125,167.5038852806415L69.795,137.3450079261974L69.856875,89.40182494614812L70.10437499999999,89.38892992862638L70.35187499999999,177.98728056459768L70.66125,113.36485094373907L70.723125,44.58459513297964L70.78500000000001,33.209928283401084L71.094375,54.499506835763306L71.218125,67.987120117083L71.465625,77.98166025384351L71.65125,53.509367673302215L71.77499999999999,38.695854704323125L72.20812500000001,118.43837048860951L72.39375,163.65160273750166L72.703125,104.86911416935646L72.76499999999999,69.78775554995374L73.0125,109.35844068348786L73.26,42.19196626675357L73.755,32.06120533378262L73.87875,25.085562738843777L74.0025,21.573300778071882L74.064375,103.35115978813224L74.188125,68.02936927375823L74.37375,109.51496153007528L74.86875,71.78074815827954L75.17812500000001,49.6988763852021L75.301875,36.66585018414861L75.48750000000001,26.948889535538004L75.549375,53.508504985971236L75.673125,8.628380984784956L75.796875,11.339022945119007L75.85875,13.088395609112414L75.9825,-15.60787878104932L76.044375,25.865471278733686L76.168125,50.71836083120505L76.23,36.994462207951536L76.291875,28.84834755182169L76.60125,22.967236009120388L76.84875000000001,20.26820256738629L76.9725,108.05825540273646L77.71499999999999,71.49326024847781L78.21000000000001,79.36059213541482L78.271875,83.26635265673717L78.519375,56.39924711039971L78.705,103.78460283166952L78.890625,68.87129307107203L78.9525,47.644404016471334L79.07624999999999,33.981642165742166L79.138125,26.225239083625L79.2,50.59124800339764L79.32375,36.07855364212648L79.695,27.866300794895018L80.685,23.12249403894874L80.74687499999999,49.74659835208019L80.80875,6.395881799868112L80.870625,10.175700588709923L81.05624999999999,100.66762714033531L81.55125,66.93170955446486L81.613125,73.55532321803048L82.17,49.985711966706965L82.41749999999999,6.677731654854812L82.479375,65.46732502806914L82.603125,45.88062029760319L82.66499999999999,34.353992295749414L82.85062500000001,26.79841789942231L82.9125,83.35874141348151L83.09812500000001,118.70737045844045L83.221875,135.68316824674397L83.593125,116.85444623613229L83.964375,76.71298665037077L84.15,83.16530309862091L84.27374999999999,84.92470975223894L84.52125000000001,83.59530107106993L84.76875000000001,56.231420419253304L84.830625,40.1004091363176L85.635,28.942209196390174L85.75874999999999,22.784470476330192L86.00625,78.03402859927468L86.13000000000001,23.49600666619094L86.315625,50.24862243233174L86.43937500000001,6.7126930209282225L86.50125,39.61795059038895L86.686875,88.67768441673338L86.74874999999999,58.33107610414157L87.05812499999999,11.68374268024997L87.12,103.14886584740782L87.24375,66.60245946205798L87.30562499999999,46.491029876453524L87.73875,92.415972173919L87.80062500000001,91.45912273306233L87.924375,146.04155054413428L88.3575,64.15650105907412L88.48125,44.47779846259291L88.543125,90.93583532755572L88.605,60.95781564965843L89.038125,43.121627774804814L89.22375,32.00959785018563L89.409375,26.149022320951214L89.656875,22.094411836174245L89.8425,19.495645026509248L90.02812499999999,87.48736675223367L90.33749999999999,58.85809296393785L90.52312500000001,70.99056842484707L90.646875,19.273269742003887L90.77062500000001,46.167065727038285L90.83250000000001,63.970442622258126L91.45125,44.72761942467322L91.513125,63.03708685255785L91.69874999999999,104.82872208223786L91.94624999999999,179.5879690891865L92.19375000000001,182.8870343831994L92.3175,172.94894169925556L92.44125000000001,140.90086233400643L92.565,121.8882736259898L92.75062500000001,80.07448486651184L92.93625,144.09399011424304L92.998125,124.16041897088955L93.05999999999999,192.20289347237747L93.18375,121.89315277043818L93.493125,78.55070452847386L93.616875,52.65032753275814L93.740625,37.7724685228287L94.17375,117.29249502971282L94.42124999999999,75.93174747559137L94.545,51.68408861597005L94.97812499999999,93.5615300738789L95.03999999999999,124.50724446034296L95.101875,80.6220045436374L95.47312500000001,24.940884144839746L95.65875,48.5099592588765L96.2775,64.11551827993527L96.40124999999999,73.64445269159398L96.525,80.55743479855013L96.64874999999999,110.46861261252852L96.958125,72.7174485428589L97.08187500000001,50.99225678440675L97.14375000000001,66.13985437581984L97.205625,46.27856704443722L97.2675,65.44028951865454L97.329375,15.8221894949795L97.576875,70.55549765694865L97.7625,129.21751099651294L98.07187499999999,146.75509424439215L98.13375,93.83631872314893L98.195625,61.82699322973899L98.44312500000001,43.010027663917604L98.87625,2.3730955263443434L99.12375,37.12068306043551L99.185625,89.40554399153476L99.2475,30.338909150009645L99.433125,24.803005402115172L99.556875,20.922110095517166L99.68062499999999,18.996318852720428L99.74249999999999,81.87460930479634L99.86625000000001,142.4403741033856L100.299375,149.9282424063673L100.36125,96.5157259613985L100.546875,94.57755026189771L100.60875,63.12913712124993L100.73249999999999,97.79230636942964L100.794375,95.19668991296638L100.98,40.255559441859425L101.10375,29.668146761307053L101.413125,54.21166997817096L101.84625,68.63625155965647L102.155625,47.98180702710248L102.2175,89.20706480708179L102.83625,30.028030817785588L102.96,54.29247370307369L103.14562500000001,39.27797640934422L103.57875,55.92187593349717L103.7025,69.49905561380925L103.764375,48.08805232580507L103.82625,5.590887723779728L104.07374999999999,39.63123575926783L104.1975,29.670433777338033L104.50687500000001,24.218497662643042L104.75437500000001,20.873288905203015L104.81625000000001,18.471716385113996L105.001875,47.178652938978566L105.496875,35.12073747871916L105.55875,27.29669041203619L105.620625,84.30576143960452L106.05375,114.2235778354424L106.30125,103.06883017294514L106.610625,38.40998436279837L106.73437500000001,28.5677877978548L106.981875,-6.103816923852885L107.91,2.5276611396335804L108.03375,65.5124965861239L108.219375,74.5796166040181L108.28125,111.2957655678796L108.343125,103.3677620140676L108.40499999999999,155.0413809633234L108.52875,99.55265066051358L108.6525,36.28348318638726L108.71437499999999,58.465630378140965L108.9,41.24994673884745L108.96187499999999,31.396387904148334L109.333125,23.818192209041708L109.580625,81.16079655101099L109.89,54.714492334903476L109.951875,69.77626424859834L110.01375,47.26131647152228L110.26125,62.99335854746415L110.446875,125.52858299957225L110.75625000000001,51.9412496279866L110.941875,7.680221822690382L111.25125,79.34590775181738L111.313125,82.01984201437168L111.49875,83.6391146202441L111.74624999999999,56.33365880510543L111.99374999999999,40.54973190415701L112.303125,61.036658173255915L112.6125,70.58273556557465L112.73625000000001,49.07738065819244L112.921875,65.8350276991147L112.98375,105.33793690755476L113.540625,69.42260055395668L114.159375,48.61964395053807L114.345,66.50443969063534L114.71624999999999,74.56756933195932L115.0875,51.69972916021075L115.335,67.67319137796238L115.396875,47.873709443476635L115.45875000000001,65.3420657539766L115.5825,45.91636341478831L116.015625,118.40651946488863L116.07749999999999,107.31537884201913L116.325,70.25086146048493L116.69624999999999,47.264497802804605L116.94375,35.25450733646793L117.12937500000001,-2.0900419994291877L117.376875,61.37308478569402L118.614375,102.01882926497112L118.861875,98.62180610390455L119.480625,35.82354650480716L119.79,56.56340164556006L119.91375,97.12118564065639L119.975625,94.77080855236257L120.0375,120.91224269977694L120.09937500000001,108.5214324728935L120.594375,71.72477385141188L120.965625,108.78995378838616L121.089375,71.88106480232858L121.15125,49.58402895708072L121.27499999999999,35.567432419414445L121.33687499999999,60.15605674168775L122.07937500000001,107.53597205770798L122.14125,41.06304624469749L122.265,1.2627581290702423L122.69812499999999,7.282003723877676L122.94562499999999,69.01826497846724L123.13125000000001,106.15686902126002L123.37875,167.47615852213104L123.62625,169.87623466405984L123.688125,107.59092375131675L123.87375,127.51567107207912L124.30687499999999,83.50923552898965L124.36874999999999,85.3990863613391L124.430625,124.14182376504566L124.55437500000001,109.35054720092192L124.74000000000001,72.7071237307094L125.4825,50.32738941176549L125.85375,116.55402495565305L126.03937499999999,161.76797478784496L126.10125000000001,103.01340737026557L126.286875,67.22225951004995L126.72000000000001,75.98437578659639L126.905625,51.876822676547675L126.9675,66.31685318844815L127.58624999999999,16.571837652547945L127.77187500000001,16.954160025610783L127.83375000000001,16.59621104222193L127.9575,16.453909669766734L128.20499999999998,16.548787818461633L128.266875,104.12187962467071L128.4525,69.17532827529071L128.7,78.80518134017441L129.009375,111.07284000527653L129.628125,101.46133107836124L129.69,65.83414544877456L129.751875,108.42143953977255L129.99937500000001,71.86375544749635L130.123125,78.79811435248217L130.618125,130.78144185367682L131.608125,146.9302050780264L131.855625,94.23751055902287L132.103125,63.007491473353156L132.226875,108.09500049924628L132.4125,71.46316735277043L132.474375,112.17008742338102L132.78375,43.90463089827109L132.84562499999998,61.061145604392344L133.093125,111.42336460872913L133.27875,73.0717991607453L133.4025,50.02312063414249L133.77375,65.92622961925504L134.02125,45.76139154962919L134.26875,93.16294259579313L134.51624999999999,130.52999273032742L134.701875,115.09857907325508L134.825625,101.85798350352336L135.196875,161.6743555318015L135.25875,133.55341361204964L135.320625,144.23407892894852L135.3825,63.07265438289705L135.691875,103.95498679477728L135.75375,98.79833674239372L135.81562499999998,173.92009286574876L136.24875,140.61027092941018L136.3725,120.88939882473595L136.55812500000002,171.58225159952906L136.681875,79.53071913307826L136.74375,111.5384117044563L136.805625,72.82595669064254L136.8675,135.55402225657303L137.23875,177.29253554632666L137.48624999999998,197.9211730611944L137.548125,125.33460865239047L137.671875,140.06953667580933L137.98125000000002,60.731027187942544L138.47625,100.35457956960147L138.53812499999998,37.04253580910174L138.785625,58.73642767442589L138.909375,42.1741945563157L139.21875,61.922792551660514L139.40437500000002,72.84583788451194L139.46625,20.215872691611278L140.146875,48.233886530005826L140.765625,5.764842273476072L140.889375,9.448183196116895L141.07500000000002,12.42376172431075L141.3225,13.83699903898097L141.384375,105.42546138627921L141.44625,40.282244334361515L141.631875,61.11860795315597L141.8175,70.22791172013576L142.065,120.24768392172987L142.3125,110.28952478174888L142.43625,101.30972371914699L143.488125,95.79026703178117L143.735625,64.52560370051403L143.92125,45.680639197847455L143.983125,64.41987863589598L144.16875,104.60918816786571L144.29250000000002,97.32611330355145L144.54,123.66590882685742L144.66375,140.52953907052853L145.220625,91.03684178948507L145.46812500000001,61.73492886519496L146.025,71.1749780710701L146.334375,113.1603136248686L146.39625,142.5031286046087L146.458125,148.91054989225742L146.89125,95.41318931035447L147.2625,151.80923450906425L147.448125,96.48922445177644L147.63375000000002,124.64857043766743L147.7575,135.60669804873328L148.190625,118.39488772572435L148.43812499999999,75.63777669061038L148.62375,82.55427209346779L148.995,56.29701192551426L149.056875,69.9198844014023L149.11875,76.9414729992398L149.30437500000002,52.61160068797161L149.61375,38.050519891542734L149.98499999999999,87.76670439098032L150.046875,87.96784233673665L150.665625,117.57539558758887L150.7275,77.5409218007955L150.97500000000002,53.2996069134851L151.03687499999998,142.47408836684107L151.09875,154.3530024585812L151.284375,156.7576285015159L151.408125,100.21808390632944L151.59375,66.14947873124882L151.779375,16.27805374818685L151.965,105.94958725379492L152.21249999999998,186.88345425657386L152.398125,180.16840442103845L152.46,113.37434590579691L152.58375,74.23891830397619L152.64562500000002,82.65792715426072L153.264375,26.177048844789173L153.388125,21.86512853783053L153.511875,103.96796420765926L153.88312499999998,69.15062160320885L153.945,132.2234206914175L154.130625,85.12572129912783L155.739375,27.58694074599509L155.986875,51.06412874203067L156.29625000000001,37.37487714756216L156.42000000000002,-1.0284451573569497L156.605625,5.806170790107324L156.853125,74.53648347992377L156.91500000000002,81.95779694830583L157.1625,55.830176337928805L157.348125,95.52939645217134L157.59562499999998,93.78056334737701L158.02875,62.95530236389495L158.09062500000002,70.08813753405963L158.15249999999997,107.65642439055296L158.833125,98.79039363579662L158.895,65.64867590926117L159.01875,118.61880173696295L159.26624999999999,108.12067923553715L159.575625,71.18209455304105L160.070625,78.28927083094574L160.194375,53.865687254426824L160.318125,9.09860220441696L160.565625,11.892071692523222L160.689375,13.286931095347938L160.75125,-15.016830087526948L160.87499999999997,-2.600265166773979L161.060625,61.476429034701226L161.184375,43.06737499894573L161.431875,32.380649181496345L161.49374999999998,56.05642783897593L161.74125,66.41971449147148L161.803125,16.368644722166543L162.050625,106.48958990947182L162.11249999999998,70.29264856848582L162.298125,48.79969314499774L162.36,35.90347335770177L162.54562499999997,57.39507754489451L163.1025,11.094783708123362L163.288125,45.368274033467785L163.906875,33.96009753775645L164.52562500000002,92.8926689962867L164.71124999999998,61.42855043341654L165.144375,43.26262205082141L165.57750000000001,32.17186238454559L166.258125,55.48457574371563L166.38187499999998,39.85625277044812L166.69125,100.5915762472298L167.00062499999999,146.15254120732226L167.124375,156.6162869314246L167.24812500000002,100.67462304996806L167.619375,130.04030886416052L167.743125,174.1830435948635L167.92875,177.01476194793372L167.99062500000002,142.45109081133836L168.361875,149.35296210399054L168.609375,125.82043088788262L169.29,82.00102373048347L169.475625,85.96902964356353L169.66125,58.51469561816937L169.785,100.38633958769847L170.58937500000002,96.00974369402535L171.0225,64.03315871641522L171.20812500000002,99.28450265172414L171.76500000000001,66.21796770431573L172.074375,16.327083562004407L172.755,46.89545301806203L173.25,91.74362190849347L173.559375,118.84145000056483L173.62125,105.26676300570998L173.93062500000002,158.08950934151193L174.24,101.23972818791495L174.425625,37.24964562368168L174.73499999999999,90.60295644159183L175.23,61.71931945821684L175.415625,43.09900201428555L175.725,31.73230672614946L175.84875,86.15539148197875L175.910625,58.36285647121849L175.9725,107.42354811124672L176.09625,130.20054695756835L176.4675,144.89645903391602L176.776875,93.25226543499801L176.900625,118.3405966877566L177.643125,135.23077708003677L177.766875,116.73445471237753L178.07625,76.05201804227028L178.4475,52.634691599287954L178.756875,107.92090919785403L178.880625,71.5779135607046L179.00437499999998,79.00543502607118L179.06625,82.08132845949036L179.251875,56.137299150889525L179.31375,39.74983664385403L180.365625,87.99479993553118L181.17,58.84298454505894L181.355625,42.34254182566818L181.603125,31.428631418643096L181.66500000000002,25.54668196397884L181.85062499999998,51.814889000164655L181.974375,38.091366261426906L182.03625,90.55267437111395L182.77875,90.43998993760977L183.27375,30.939989518443554L183.39749999999998,53.09802898938646L183.459375,68.37718140730374L183.706875,47.66998468666741L183.954375,35.371675443348096L184.201875,57.30790797596979L184.635,41.563453830992046L184.696875,30.52126599366358L184.944375,58.050880079596595L185.191875,69.97659829922279L185.50125000000003,76.66386437504148L185.625,110.07450807814988L185.810625,72.28055363229032L185.93437500000002,129.51406508953045L185.99625,84.34808529395265L186.11999999999998,57.566526286234875L186.24375,69.10445574976828L186.429375,76.02419932876721L186.676875,79.9203656055611L186.73874999999998,53.886647433405024L186.800625,8.84889998612697L186.924375,76.71629384909808L187.048125,51.848453250376814L187.3575,95.54897710159324L187.48125,93.53023275753799L187.543125,62.96596759641731L187.97625,104.65410716917853L188.1,70.03900318090166L188.28562499999998,79.05635942807224L189.646875,23.935326640429658L189.70875,50.210257141484355L189.8325,118.6956190065703L190.265625,110.13746466566093L190.389375,102.78761612849812L190.45125000000002,95.48900809262622L190.760625,63.23695804771442L190.8225,118.29703469190991L190.884375,104.02774925752878L191.07,38.9334553693795L191.13187499999998,29.808127909127705L191.3175,51.970560278191485L191.75062499999999,37.52882795768638L191.87437500000001,91.76205763886965L191.99812500000002,61.29660161823392L192.121875,100.4210132170341L192.18374999999997,66.76951875785718L192.864375,73.94561579572994L192.92625,81.12908328359029L192.988125,130.96343629827916L193.483125,113.94646235269796L193.54500000000002,75.44366415478285L193.85437499999998,82.71625403486189L193.91625,55.78748850490152L193.978125,39.72269216910302L194.04,30.370249212594626L194.16375000000002,58.79674913693175L194.225625,111.5650926950497L194.28750000000002,132.29440424984233L194.47312499999998,85.20462646714172L195.15375,87.51360424942567L195.525,59.035525495212056L195.64875,99.358560902596L196.14374999999998,65.18909888286619L196.205625,153.71512558948535L196.2675,163.64700528533183L196.39125,103.34703187603309L196.824375,97.47513068567845L197.01000000000002,63.98315531570395L197.13375,44.747238617889174L197.319375,33.05416980037217L197.443125,26.20196492343618L197.566875,98.12739074605392L198.12375,63.133779235230016L198.37125,44.30141140100129L198.495,62.49031241677264L198.61875,44.121597240102645L198.74249999999998,127.40228207453033L198.804375,82.62542377963028L199.051875,142.9887615919969L199.11375,90.93762194543253L199.17562500000003,60.46998957961303L199.48499999999999,125.30600766378345L199.79437499999997,110.8598826134068L199.85625,134.88920886491908L200.10375,116.23661681065069L200.41312499999998,104.97382512789434L200.475,69.64308462751784L200.536875,18.669989378767475L200.59875,111.65813620538549L200.7225,73.25566434652231L200.784375,81.15477116650713L201.27937500000002,55.29960412446483L201.34125,97.81081264557736L201.40312500000002,64.67705820502219L201.7125,44.89916967643128L201.774375,32.246331060009155L202.021875,56.71680119948206L202.2075,96.30610037300951L202.393125,90.85710700114944L202.51687500000003,60.76999271631466L202.640625,101.77786928701536L202.764375,166.20008338861547L202.82625,105.68881074483919L202.888125,101.21808381018477L203.1975,67.76062610398192L203.259375,117.03516704422509L204.001875,76.65941760934757L204.125625,52.7218954386554L204.55875,38.23280077637684L204.93,58.58191032422453L204.991875,130.34349995430037L205.6725,84.17136944279505L205.734375,86.55894098940752L206.29125000000002,58.12827957167185L206.415,11.567423328006015L206.53875,-16.432009216878587L206.724375,54.592014196435365L206.91,96.71804335672839L207.09562499999998,93.96735006188861L207.34312500000001,63.164534976098004L207.405,42.216473793276L207.714375,31.593592772059345L207.83812500000002,111.38778688882157L207.96187500000002,73.36756852611519L208.02374999999998,50.00020227899918L208.27125,36.49325070089561L208.395,91.7241645318655L208.580625,31.558473449849355L209.075625,52.64141243905026L209.199375,68.4418204858911L209.26125,76.4020122744448L209.385,22.415911651719043L209.69437499999998,19.92635625616811L209.81812499999998,-11.342513371371608L209.941875,-30.193942239799117L210.065625,17.70210108678459L210.56062500000002,112.0043917555864L211.055625,101.66086771936747L211.1175,67.14999304372988L211.24125,46.45709650372816L211.303125,34.36229531678769L211.48874999999998,57.23124889417417L211.6125,10.90519766857581L211.674375,13.06808503180955L211.85999999999999,72.13562567728887L212.23125000000002,49.36591065417607L212.47875,124.32382996184157L212.540625,81.09762915386274L213.406875,85.37570639856764L213.5925,115.7643585315234L213.778125,136.10643250172654L213.96375,87.81148196807693L214.21125,154.97795192498677L214.396875,128.4476293092889L214.45875,175.79479291760464L214.52062500000002,192.67742811872682L214.891875,178.57658358022047L215.20125,142.52990376141352L215.263125,152.97726891700435L215.325,68.35568912091261L215.57250000000002,78.41351491297723L215.69625,115.43413604739573L215.75812499999998,45.83614223982849L216.129375,33.04596943203187L216.315,25.755562005898813L216.43875,89.75265226701586L216.500625,30.44483416020685L216.62437500000001,112.4245986162413L216.68625,102.44882087628777L216.80999999999997,68.1733907923742L216.995625,122.77722966585421L217.18125,50.36951218172229L217.67625,37.71269070747087L217.738125,28.040295454755963L218.04749999999999,-6.567543332281361L218.29500000000002,80.0377779557093L218.356875,145.90843459569118L218.66625,123.63140749813739L219.470625,80.14085139585508L219.5325,137.06374899669274L219.59437499999999,88.6773842246758L219.65625,29.9280161404268L220.213125,54.09406841228343L220.64624999999998,37.76864490479194L220.831875,86.67854204541422L221.14125,58.70298783711182L221.326875,121.22803440148584L221.698125,79.41205269655558L221.76,53.429101979261475L221.82187499999998,102.57803943462719L222.13125,68.13556511585445L222.37875,47.5511299020322L222.5025,34.957154992000596L222.688125,27.007457118735495L222.935625,22.429530637208092L222.9975,49.24433691259832L223.059375,97.68398227451212L223.18312500000002,158.79455000923852L223.430625,187.71209914616813L223.49249999999998,118.96176690347235L223.61625,137.0082798686459L223.678125,119.37286489384378L223.925625,78.16987228713636L223.98749999999998,82.63975815011385L224.049375,86.13997616692379L224.35875000000001,55.932920178914046L224.4825,39.997243043627726L225.10125,140.63621789648914L225.163125,121.06292452451457L225.410625,178.13470979283372L225.534375,112.33789014571975L225.84375,73.77949110647481L225.9675,80.2924378279474L226.153125,54.564042042471556L226.276875,70.09560906337356L226.895625,165.78376485208662L227.08125,136.08765246593947L227.266875,176.82824125983714L227.57625000000002,111.74150255619521L227.76187499999997,134.46325517141244L228.133125,57.251245023271L228.31875,39.70383926860126L228.4425,125.36866415686389L228.751875,81.86613111130585L228.87562499999999,144.39045442361945L229.123125,92.73250638830253L229.185,61.60791163937799L229.68,43.52770294676155L229.9275,88.17293268114287L229.989375,29.45783182233547L230.175,79.1926926236747L230.29875,115.92728232225173L230.4225,46.304151660444674L230.731875,94.35414565935274L230.979375,154.22015145811164L231.226875,174.6706204158826L231.474375,111.48928618995924L231.59812499999998,101.50266778331148L231.969375,97.60918312848298L232.711875,90.6997316788476L232.835625,61.01389024632224L232.959375,72.6938022264066L233.145,109.6776997928752L233.330625,72.57705353051028L233.51625,20.32863817947865L233.578125,47.97692698727703L233.8875,100.02126678806938L234.3825,36.733161290779094L234.75375,121.45613554399873L234.93937499999998,80.02979723216096L235.00125,24.565504320627443L235.49625,21.153462168792494L235.99124999999998,18.96127743555282L236.548125,17.806043347318045L236.795625,18.086145417570517L237.22875,17.129013208794255L237.60000000000002,46.08553207078438L237.72375,94.50347598075187L237.909375,63.411758317943324L238.033125,101.95145879935973L238.404375,67.97137070197913L238.52812500000002,46.80527154838475L238.59,34.273263667556236L238.96125,27.17500470932281L239.085,21.713668658113217L239.14687500000002,-10.438820530786698L239.20875,82.7161763094577L239.45624999999998,56.24890872756912L239.518125,133.1167966525571L239.58,86.07467845540145L239.70375,157.51955804980335L239.889375,71.1220218658241L240.013125,49.15133137510966L240.32250000000002,109.40814257506578L240.38437499999998,42.72842997481852L240.57,30.801932893338375L240.879375,142.57629474576865L240.94125,91.98684725151392L241.065,62.02344697395523L241.12687499999998,143.70092975663877L241.43625,91.01595174436412L241.56,116.25464648607158L241.745625,76.6442716562914L241.8075,138.41707788635298L241.86937500000002,180.8346947298587L242.05499999999998,114.47481891311051L242.240625,74.98826207540536L242.42625,82.10065866125885L242.67374999999998,119.37603264792719L242.92125000000001,142.70555269422508L243.04500000000002,121.9210902224921L243.354375,78.72551274555579L243.41625,82.48707662926707L243.54000000000002,55.99021155373211L243.72562499999998,10.230773747062397L244.035,-17.108325456085367L244.15875000000003,-3.5296504860535576L244.65375,32.01521855846552L244.71562500000002,54.666985993477745L244.963125,69.6987858343679L245.086875,150.58299147132388L245.39624999999998,180.87190608884902L245.52,115.397493506825L245.64375,219.87181959042312L245.7675,170.05579573374604L245.953125,163.63549843634135L246.26250000000002,104.95390776541811L246.324375,69.52521221296182L246.38625,48.28962473378295L246.44812499999998,65.02144604388306L246.51,45.37827766050953L246.571875,34.235110761344785L246.819375,96.4604904070022L246.94312499999998,64.54923961773649L247.06687499999998,73.65203412708719L247.2525,51.09664399920154L247.438125,36.61763999449161" style="fill: none;" fill="none"></path></g></g></g></g><g opacity="0.2"><g><g><g><path stroke="rgb(255, 112, 67)" stroke-width="2px" d="M33.9075,199.58172424316405L33.969375,95.9127032470703L34.093125,167.7791613769531L34.27875,95.07907257080078L34.65,16.04793518066407L34.711875,244.02625427246093L34.77375,-58.695976144075374L34.835625,16.3697541809082L35.021249999999995,243.77907653808597L35.083125,14.131992645263677L35.145,164.77388488769532L35.268750000000004,85.71577545166016L35.330625,184.5893539428711L35.701874999999994,167.2580679321289L36.01125,17.12545761108399L36.444375,211.78544067382813L37.06312500000001,176.69248626708983L37.310625,13.981022109985345L37.496249999999996,83.77684005737304L37.558125000000004,17.053454132080077L37.681875,15.920821762084962L38.115,16.805178070068358L38.424375000000005,15.366265335083005L38.671875,90.10950912475586L38.73375,13.407213439941412L38.857499999999995,91.69408081054688L38.98125,14.906948318481444L39.3525,15.71422813415528L39.414375,-58.47213618397713L39.8475,15.433600921630868L39.97125,176.04513916015625L40.033125,14.641891250610353L40.21874999999999,17.12202758789062L40.651875,16.626420745849604L40.8375,-58.61674189090727L40.96125,16.641176147460932L41.085,81.88101852416993L41.45625,93.84451629638671L41.518125,156.67031555175782L41.580000000000005,161.9660012817383L41.889375,259.19567138671874L42.3225,14.493869094848641L42.384375000000006,-58.349218438863765L42.44625,165.23665893554687L42.693749999999994,15.705265960693357L42.755625,-58.47801753997802L42.8175,15.542704467773428L43.250625,13.8316675567627L43.43625,-58.63557248473166L43.498125,16.056600265502926L43.56,90.36705795288084L43.621875,82.89222717285156L43.745625000000004,87.37469131469726L43.993125,-58.6355248337984L44.116875,16.87169891357421L44.240625,91.04575241088867L44.488125,213.15707183837893L44.550000000000004,16.00645530700683L44.611875,-58.46076849997043L44.7975,176.61263244628907L45.106875,16.664250030517575L45.725625,85.18170013427735L46.035,198.899716796875L46.096875000000004,85.225714263916L46.15875,90.15865478515624L46.901250000000005,162.83357208251954L46.963125,14.728321533203117L47.025,172.09164581298828L47.705625,-58.159071099758165L47.89125,161.20302368164064L48.015,91.35586791992186L48.13875,279.0769140625L48.386250000000004,16.238553543090823L48.571875000000006,295.1283422851563L48.7575,86.37241333007812L48.88125,91.74868209838867L49.190625,16.205707244873047L49.314375,15.367831802368165L49.376250000000006,-58.06541967868805L49.871249999999996,87.68467178344727L49.995,289.113828125L50.2425,155.19486541748046L50.49,197.86547027587892L50.61375,177.06676391601562L50.675625,168.29218841552733L50.86125,87.40823532104493L51.789375,185.83078826904296L51.85125,109.46855102539062L52.160624999999996,161.30421386718749L52.284375,15.935487136840823L52.34625,93.38113006591797L52.7175,85.92692443847656L52.841249999999995,15.934892959594725L53.088750000000005,17.73071716308594L53.33625,161.83733489990234L53.398125,88.70853820800781L53.46,166.66540313720705L53.521874999999994,13.918737030029305L53.58375,223.89763580322264L53.645625,90.13791259765627L54.32625,15.927938385009773L54.82125,161.7841290283203L55.06875,178.72352813720704L55.192499999999995,91.11184112548827L55.31625,92.6400650024414L55.501875,81.32571487426758L55.81125,89.81649871826173L55.935,200.07199249267578L56.244375000000005,86.93729583740235L56.55375,86.57621612548827L56.615625,87.66409164428711L56.986875,239.77592437744138L57.048750000000005,-58.552755725383776L57.29625,14.137335739135745L57.54375,91.98520965576172L57.853125,16.39511924743653L57.915,89.65114639282226L57.976875,89.5466342163086L58.100625,17.053670196533204L58.348124999999996,15.635751724243157L58.410000000000004,160.78922424316406L58.533750000000005,14.120496215820314L58.78125,15.738958511352532L58.905,17.275829467773445L59.152499999999996,169.12063354492187L59.461875,159.2043014526367L59.709375,90.71537185668946L59.77125,15.101235275268559L59.895,16.547953338623053L60.01875,87.03153594970703L60.26625,90.09777862548829L60.328125,12.86760597229003L60.637499999999996,15.608316040039057L60.699374999999996,15.267114257812509L61.070625,225.56174621582034L61.194374999999994,15.69812232971192L61.50375,16.995035705566412L61.75125,15.58707420349121L62.431875,16.081141586303715L62.49375,16.77511810302735L62.555625,16.546485900878906L62.6175,161.68054412841798L62.679375,87.53404785156249L62.74125,16.542794799804682L62.926875,160.60794616699218L62.988749999999996,16.83206008911132L63.050625000000004,163.1165985107422L63.916875000000005,230.94531616210938L63.97875,17.271535186767572L64.10249999999999,170.0597036743164L64.164375,169.01342956542967L64.22625,87.873701171875L64.35,-58.744718354046334L64.47375,244.2473962402344L64.5975,89.5924038696289L64.72125,15.713129806518552L64.96875,15.207908096313478L65.0925,243.59092041015626L65.34,17.439507293701176L65.71124999999999,172.95097015380858L65.83500000000001,91.19581817626954L66.0825,79.2401887512207L66.268125,16.30353492736816L66.391875,16.292434616088862L67.0725,-58.346655627489085L67.134375,15.694404220581049L67.32000000000001,91.98524566650391L67.44375000000001,94.95703216552734L67.505625,162.90010192871094L67.69125,17.7417544555664L67.815,162.23026611328126L68.248125,81.20037948608397L68.5575,89.30565032958985L68.866875,150.2642025756836L68.92875,14.163812637329094L69.0525,16.313955535888677L69.42375,171.10235870361328L69.485625,164.9975476074219L69.67125,230.21935760498047L69.795,92.10669189453124L69.856875,17.48705047607422L70.10437499999999,89.36958740234374L70.35187499999999,310.8848065185547L70.66125,16.43120651245117L70.723125,-58.58578858315946L70.78500000000001,16.147928009033205L71.094375,86.43387466430664L71.218125,88.2185400390625L71.465625,92.97347045898437L71.65125,16.800928802490233L71.77499999999999,16.4755852508545L72.20812500000001,238.05214416503907L72.39375,231.47145111083987L72.703125,16.695381317138665L72.76499999999999,17.165717620849605L73.0125,168.71446838378907L73.26,-58.5577453583479L73.755,16.865063934326166L73.87875,14.622098846435554L74.0025,16.304907836914072L74.064375,226.01794830322268L74.188125,15.046683502197268L74.37375,171.74334991455078L74.86875,15.179428100585945L75.17812500000001,16.57606872558593L75.301875,17.11631088256835L75.48750000000001,12.37344856262208L75.549375,93.34792816162108L75.673125,-58.69180501699449L75.796875,15.404985885620123L75.85875,15.712454605102536L75.9825,-58.652290366292014L76.044375,88.07549636840821L76.168125,87.99769515991211L76.23,16.408614273071294L76.291875,16.62917556762696L76.60125,14.14556869506836L76.84875000000001,16.219652404785148L76.9725,239.7433346557617L77.71499999999999,16.645767517089848L78.21000000000001,91.1615899658203L78.271875,89.12499343872071L78.519375,16.098588790893555L78.705,174.86263641357422L78.890625,16.50132843017578L78.9525,15.804070434570315L79.07624999999999,13.48749938964843L79.138125,14.590634460449222L79.2,87.14026138305664L79.32375,14.30951210021973L79.695,15.547921524047855L80.685,16.00678390502929L80.74687499999999,89.68275482177734L80.80875,-58.63019302845001L80.870625,15.845428771972655L81.05624999999999,236.40551696777342L81.55125,16.327833175659173L81.613125,83.4907437133789L82.17,14.631295089721684L82.41749999999999,-58.28423881292342L82.479375,153.65171508789064L82.603125,16.500563201904296L82.66499999999999,17.064050292968744L82.85062500000001,15.46505630493163L82.9125,168.1992266845703L83.09812500000001,171.7303140258789L83.221875,161.1468649291992L83.593125,88.61136322021486L83.964375,16.500797271728523L84.15,92.8437777709961L84.27374999999999,87.56381973266602L84.52125000000001,81.6011880493164L84.76875000000001,15.185599441528316L84.830625,15.903892211914064L85.635,12.204909286499026L85.75874999999999,13.547862396240243L86.00625,160.9083657836914L86.13000000000001,-58.31102623343466L86.315625,90.37754608154297L86.43937500000001,-58.5912010961771L86.50125,88.97583694458008L86.686875,162.26728515625L86.74874999999999,12.811163635253903L87.05812499999999,-58.2872574555874L87.12,240.34655059814455L87.24375,11.782849884033205L87.30562499999999,16.32388549804688L87.73875,161.30338562011718L87.80062500000001,90.02384857177735L87.924375,227.91519226074217L88.3575,-58.67107316851616L88.48125,14.95974456787109L88.543125,160.622890625L88.605,15.990786132812499L89.038125,16.36734596252442L89.22375,15.341552963256829L89.409375,17.358159027099607L89.656875,16.012496109008797L89.8425,15.59749481201171L90.02812499999999,189.4749493408203L90.33749999999999,15.914182281494135L90.52312500000001,89.18928161621093L90.646875,-58.30267828226088L90.77062500000001,86.50775970458984L90.83250000000001,90.67550796508789L91.45125,15.86338462829589L91.513125,90.50128799438477L91.69874999999999,167.5161749267578L91.94624999999999,291.7268395996094L92.19375000000001,187.83563232421875L92.3175,158.04180267333984L92.44125000000001,92.82874328613279L92.565,93.36939056396486L92.75062500000001,17.353801727294915L92.93625,240.12324798583984L92.998125,94.26006225585938L93.05999999999999,294.26660522460935L93.18375,16.428541717529303L93.493125,13.537032165527346L93.616875,13.799762039184579L93.740625,15.455680007934566L94.17375,236.57253479003907L94.42124999999999,13.89062614440919L94.545,15.312600326538096L94.97812499999999,156.37769226074218L95.03999999999999,170.92581604003908L95.101875,14.794144668579111L95.47312500000001,-58.580796453356754L95.65875,83.86357192993164L96.2775,87.52385681152344L96.40124999999999,87.93785430908203L96.525,90.92690795898439L96.64874999999999,155.3353793334961L96.958125,16.090702438354498L97.08187500000001,18.40446914672852L97.14375000000001,88.86125076293946L97.205625,16.486636047363273L97.2675,94.18287322998047L97.329375,-58.60496054053307L97.576875,152.65545989990233L97.7625,217.21053100585937L98.07187499999999,173.06146911621093L98.13375,14.458155441284184L98.195625,13.813004989624018L98.44312500000001,14.784579315185544L98.87625,-58.58230268001557L99.12375,89.24206436157228L99.185625,167.8328353881836L99.2475,-58.26104311227797L99.433125,16.49914978027344L99.556875,15.100767135620124L99.68062499999999,16.107631988525394L99.74249999999999,176.19204498291015L99.86625000000001,233.28902130126954L100.299375,161.16004486083983L100.36125,16.396951293945307L100.546875,91.67028671264649L100.60875,15.956517410278323L100.73249999999999,149.7870602416992L100.794375,91.30326522827148L100.98,-42.15613626480104L101.10375,13.787027740478514L101.413125,91.02695480346681L101.84625,90.27312393188475L102.155625,17.000140228271487L102.2175,151.04495147705077L102.83625,-58.74052016615868L102.96,90.68913803100587L103.14562500000001,16.756230468750008L103.57875,80.88772521972658L103.7025,89.86482513427734L103.764375,15.971547393798836L103.82625,-58.15485917925835L104.07374999999999,90.69175781250001L104.1975,14.72923080444336L104.50687500000001,16.040593490600582L104.75437500000001,15.855475769042972L104.81625000000001,14.869357604980463L105.001875,90.2390577697754L105.496875,17.033864288330072L105.55875,15.560619812011725L105.620625,169.81936798095703L106.05375,159.10030242919922L106.30125,86.3367086791992L106.610625,-58.57828435242177L106.73437500000001,13.804492950439453L106.981875,-58.11122400641441L107.91,15.474878234863288L108.03375,159.98974975585938L108.219375,88.18029663085936L108.28125,166.36998901367187L108.343125,91.4757566833496L108.40499999999999,232.55180938720702L108.52875,16.319555206298833L108.6525,-58.62026802480219L108.71437499999999,91.73885116577148L108.9,15.426421279907236L108.96187499999999,16.616049652099612L109.333125,12.450898666381844L109.580625,167.17470306396484L109.89,15.045036010742189L109.951875,92.36892211914063L110.01375,13.488894805908206L110.26125,86.59142166137696L110.446875,219.33141967773437L111.25125,186.8444366455078L111.313125,86.03074340820312L111.49875,86.06802352905274L111.74624999999999,15.375475082397466L111.99374999999999,16.87384155273437L112.303125,91.76704757690429L112.6125,84.90185165405273L112.73625000000001,16.819348297119138L112.921875,90.97149826049804L112.98375,164.59230072021484L113.540625,15.54959602355958L114.159375,17.415209045410162L114.345,93.33163330078125L114.71624999999999,86.6622637939453L115.0875,17.39796890258788L115.335,91.63338470458986L115.396875,18.174486541748045L115.45875000000001,91.54460021972656L115.5825,16.777809906005864L116.015625,227.14175354003905L116.07749999999999,90.67866790771484L116.325,14.654085388183592L116.69624999999999,12.784952316284173L116.94375,17.239521636962888L117.12937500000001,-58.10686600327494L117.376875,156.5677749633789L118.614375,162.98744598388672L118.861875,93.5262713623047L119.480625,-58.37384289383889L119.79,87.67318435668946L119.91375,157.95786163330078L119.975625,91.24524291992189L120.0375,160.12439392089843L120.09937500000001,89.93521713256837L120.594375,16.52978591918945L120.965625,164.38772369384765L121.089375,16.517731323242185L121.15125,16.138475189208986L121.27499999999999,14.542537612915039L121.33687499999999,97.03899322509766L122.07937500000001,178.60584503173828L122.265,-58.437674044370645L122.69812499999999,16.310872116088863L122.94562499999999,161.62265686035155L123.13125000000001,161.86477508544922L123.37875,259.45509277343746L123.62625,173.47634887695312L123.688125,14.162957382202144L123.87375,157.40279205322267L124.30687499999999,17.49958221435547L124.36874999999999,88.23386260986328L124.430625,182.25592987060546L124.55437500000001,87.16363235473632L124.74000000000001,17.741988525390628L125.4825,16.7577879333496L125.85375,215.8939782714844L126.03937499999999,229.5888995361328L126.10125000000001,14.881556243896489L126.286875,13.535537719726555L126.72000000000001,89.12755020141601L126.905625,15.715493011474607L126.9675,87.97689895629883L127.58624999999999,-58.04568565130235L127.77187500000001,17.527643585205077L127.83375000000001,16.059287567138675L127.9575,16.24045761108399L128.20499999999998,16.691105041503913L128.266875,235.48151733398439L128.4525,16.7555012512207L128.7,93.2499609375L129.009375,159.4743280029297L129.628125,87.04406768798827L129.69,12.393367004394541L129.751875,172.30238067626954L129.99937500000001,17.02722930908203L130.123125,89.19965270996093L130.618125,208.75643310546874L131.608125,171.15334991455077L131.855625,15.198468780517572L132.103125,16.162462844848637L132.226875,175.72626403808593L132.4125,16.51541763305664L132.474375,173.23046752929687L132.78375,-58.493553889393795L132.84562499999998,86.79591766357423L133.093125,186.96669311523436L133.27875,15.544450988769524L133.4025,15.450102844238291L133.77375,89.78089309692383L134.02125,15.514134445190427L134.26875,164.26526916503906L134.51624999999999,186.5805679321289L134.701875,91.95145858764648L134.825625,81.99709014892578L135.196875,251.39891357421874L135.25875,91.37200073242187L135.320625,160.25507690429686L135.3825,-58.669482436180104L135.691875,165.27848541259766L135.75375,91.06336166381836L135.81562499999998,286.60272705078125L136.24875,90.64553802490234L136.3725,91.3080906677246L136.55812500000002,247.62153076171876L136.681875,-58.54657956659794L136.74375,159.54995056152345L136.805625,14.75727416992187L136.8675,229.64612060546878L137.48624999999998,228.8641293334961L137.548125,16.454762039184562L137.671875,162.1719287109375L137.98125000000002,-58.276737043857565L138.47625,159.78990814208984L138.53812499999998,-57.92552983164789L138.785625,91.2772654724121L138.909375,17.330844879150384L139.21875,91.54568954467774L139.40437500000002,89.23040588378908L139.46625,-58.72907509773969L140.146875,90.26090728759765L140.765625,-57.93872411131857L140.889375,14.97319458007813L141.07500000000002,16.887129516601554L141.3225,15.956855010986331L141.384375,242.80815490722654L141.44625,-57.43258124351503L141.631875,92.37315338134766L141.8175,83.89186737060547L142.065,195.2773422241211L142.3125,95.35228607177733L142.43625,87.84002212524413L143.488125,87.51108200073242L143.735625,17.628608703613274L143.92125,17.413192443847663L143.983125,92.52873779296876L144.16875,164.89315246582032L144.29250000000002,86.40150100708009L144.54,163.1756021118164L144.66375,165.82498443603515L145.220625,16.79779586791993L145.46812500000001,17.782059478759756L146.025,85.33505187988281L146.334375,176.1383169555664L146.39625,186.51735107421877L146.458125,158.52168182373046L146.89125,15.1671484375L147.2625,236.4033023071289L147.448125,13.50920936584473L147.63375000000002,166.8875894165039L147.7575,152.04388946533203L148.190625,92.57717224121095L148.43812499999999,11.502110137939445L148.62375,92.9290151977539L148.995,16.911121673583988L149.056875,90.35419311523438L149.11875,87.47385589599608L149.30437500000002,16.116792221069332L149.61375,16.208898696899407L149.98499999999999,162.3409811401367L150.046875,88.26954925537109L150.665625,161.9867254638672L150.7275,17.48921112060548L150.97500000000002,16.937634582519536L151.03687499999998,276.23581054687503L151.09875,172.17137359619142L151.284375,160.36456756591798L151.408125,15.408767013549813L151.59375,15.04657096862794L151.779375,-58.529083726406085L152.21249999999998,308.2842547607422L152.274375,172.55440185546877L152.398125,178.69326110839845L152.46,13.18325813293457L152.58375,15.535776901245121L152.64562500000002,95.2864404296875L153.264375,-58.54426861941815L153.388125,15.397248077392568L153.511875,227.12221771240237L153.88312499999998,16.924607696533204L153.945,226.83261932373048L154.130625,14.479172210693351L155.739375,-58.721230083703986L155.986875,86.27991073608398L156.29625000000001,16.840999755859382L156.42000000000002,-58.633428614735614L156.605625,16.058094711303717L156.853125,177.63195251464842L156.91500000000002,93.0897671508789L157.1625,16.63874542236329L157.348125,155.07822662353516L157.59562499999998,91.15731369018555L158.02875,16.717410888671875L158.09062500000002,80.78739028930664L158.15249999999997,164.00885467529298L158.833125,85.49134750366211L158.895,15.936099319458016L159.01875,198.0739904785156L159.26624999999999,92.37349548339843L159.575625,15.77421752929687L160.070625,88.95003524780275L160.194375,17.230311889648444L160.318125,-58.052025370597825L160.565625,16.082275924682616L160.689375,15.379220199584964L160.75125,-57.472471861839274L160.87499999999997,16.024582214355473L161.060625,157.59147033691406L161.184375,15.453793945312496L161.431875,16.35056045532226L161.49374999999998,91.57009582519532L161.74125,81.96464447021485L161.803125,-58.70795993179082L162.050625,241.6710076904297L162.11249999999998,15.997236557006842L162.298125,16.56026000976562L162.36,16.559143676757817L162.54562499999997,89.6324838256836L163.1025,-58.35565704703332L163.288125,96.77850952148437L163.906875,16.847832794189458L164.52562500000002,181.29152618408202L164.71124999999998,14.232372589111327L165.144375,16.013729476928717L165.57750000000001,15.535722885131829L166.258125,90.4536457824707L166.38187499999998,16.413768310546878L166.69125,191.69456146240236L167.00062499999999,214.49398864746095L167.124375,172.31190551757814L167.24812500000002,16.762127227783196L167.619375,174.08883758544923L167.743125,240.39714569091797L167.92875,181.2623394775391L167.99062500000002,90.60558410644532L168.361875,159.70576904296874L168.609375,90.5216340637207L169.29,16.271912994384774L169.475625,91.92103851318359L169.66125,17.333194580078125L169.785,163.1938055419922L170.58937500000002,89.44484985351562L171.0225,16.068281250000005L171.20812500000002,152.16151855468752L171.76500000000001,16.618165283203126L172.074375,-58.50924265146257L172.755,92.74800720214844L173.25,159.01587524414063L173.559375,159.48819213867188L173.62125,84.90473251342773L173.93062500000002,237.32362884521484L174.24,15.965056457519534L174.425625,-58.735478222668156L174.73499999999999,170.632922668457L175.23,18.3938639831543L175.415625,15.168525848388677L175.725,14.682263793945314L175.84875,167.79001861572266L175.910625,16.674053955078115L175.9725,181.01458557128908L176.09625,164.3660452270508L176.4675,166.9403271484375L176.776875,15.785975036621085L176.900625,155.97309356689453L177.643125,160.56604766845703L177.766875,88.98997116088869L178.07625,15.02836303710938L178.4475,17.508701934814443L178.756875,190.8502355957031L178.880625,17.063420104980473L179.00437499999998,90.14671722412109L179.06625,86.69516860961913L179.251875,17.221255187988273L179.31375,15.168642883300771L180.365625,160.36224487304688L181.17,15.115261459350577L181.355625,17.59187774658203L181.603125,15.057765808105469L181.66500000000002,16.723757781982417L181.85062499999998,91.21719955444335L181.974375,17.50608215332032L182.03625,169.24463653564453L182.77875,90.27096328735351L183.27375,-58.31001111030578L183.39749999999998,86.33508819580078L183.459375,91.29591003417968L183.706875,16.609189605712892L183.954375,16.92421157836914L184.201875,90.21225677490233L184.635,17.946772613525393L184.696875,13.957984237670894L184.944375,99.3453012084961L185.191875,87.8651756286621L185.50125000000003,86.69476348876952L185.625,160.1904736328125L185.810625,15.589621963500985L185.93437500000002,215.3643322753906L185.99625,16.59911560058593L186.11999999999998,17.39418777465821L186.24375,86.41134994506837L186.429375,86.40381469726563L186.676875,85.76461502075195L186.73874999999998,14.836070175170901L186.800625,-58.70772118479013L186.924375,178.51738464355466L187.048125,14.546692352294913L187.3575,161.09976287841798L187.48125,90.50211624145507L187.543125,17.119569854736334L187.97625,167.1863165283203L188.1,18.11634719848633L188.28562499999998,92.58239379882811L189.646875,-58.74622254103422L189.70875,89.6226528930664L189.8325,221.4236618041992L190.265625,97.30023315429689L190.389375,91.76284332275391L190.45125000000002,84.54109603881835L190.760625,14.858882980346673L190.8225,200.88714965820313L190.884375,82.62382110595703L191.07,-58.70798546284438L191.13187499999998,16.120136718749997L191.3175,85.21420883178712L191.75062499999999,15.866229476928712L191.87437500000001,173.11190216064452L191.99812500000002,15.598417587280267L192.121875,159.10763061523437L192.18374999999997,16.29227706909179L192.864375,84.70976135253905L192.92625,91.90428451538087L192.988125,205.7149658203125L193.483125,88.42100143432617L193.54500000000002,17.689466857910148L193.85437499999998,93.62513885498046L193.91625,15.394340209960944L193.978125,15.62549766540528L194.04,16.341584777832026L194.16375000000002,101.4364990234375L194.225625,190.71760803222656L194.28750000000002,163.38837158203125L194.47312499999998,14.569959793090826L195.15375,90.97707092285157L195.525,16.318407363891602L195.64875,159.84311401367188L196.14374999999998,13.934905853271484L196.205625,286.50416564941406L196.2675,178.54482482910154L196.39125,12.89707176208496L196.824375,88.66727890014648L197.01000000000002,13.745192260742192L197.13375,15.893363571167L197.319375,15.514566574096685L197.443125,15.923657608032237L197.566875,206.01552947998047L198.12375,10.643361968994135L198.37125,16.052859649658213L198.495,89.7736639404297L198.61875,16.568524475097664L198.74249999999998,252.32330932617188L198.804375,15.460136337280273L199.051875,233.5337683105469L199.11375,12.86091247558593L199.17562500000003,14.76854103088379L199.48499999999999,222.56003479003905L199.79437499999997,89.19069503784179L199.85625,170.9331982421875L200.10375,88.25772872924806L200.41312499999998,88.07963760375976L200.475,16.64697387695312L200.536875,-57.78965349435805L200.59875,251.1403564453125L200.7225,15.651956558227532L200.784375,93.00343139648439L201.27937500000002,16.516853561401373L201.34125,161.5776254272461L201.40312500000002,14.976426544189449L201.7125,15.232336883544919L201.774375,13.267073135375975L202.021875,93.4225064086914L202.2075,155.6900491333008L202.393125,82.68361694335937L202.51687500000003,15.639321289062503L202.640625,163.2896841430664L202.764375,262.8334045410156L202.82625,14.921901779174805L202.888125,94.51199340820312L203.1975,17.574439544677738L203.259375,190.94697845458984L204.001875,16.09579345703124L204.125625,16.81561218261719L204.55875,16.49915878295899L204.93,89.1055746459961L204.991875,237.98588439941406L205.6725,14.91317367553711L205.734375,90.14029830932618L206.29125000000002,15.482287445068362L206.415,-58.27386103749276L206.53875,-58.431158034205446L206.724375,161.12804931640625L206.91,159.90708709716796L207.09562499999998,89.8413101196289L207.34312500000001,16.960312347412113L207.405,10.794382019042976L207.714375,15.659271240234375L207.83812500000002,231.07907806396483L207.96187500000002,16.33724098205567L208.02374999999998,14.949152908325186L208.27125,16.23282333374024L208.395,174.5705352783203L208.580625,-58.69006317317485L209.075625,84.26582092285156L209.199375,92.14243255615234L209.26125,88.34229995727539L209.385,-58.56323928236962L209.69437499999998,16.1920231628418L209.81812499999998,-58.245817812681196L209.941875,-58.47108554244042L210.065625,89.54616607666016L210.56062500000002,253.45782775878905L211.055625,86.14558166503906L211.1175,15.383681030273435L211.24125,15.417751693725577L211.303125,16.220093536376957L211.48874999999998,91.5346792602539L211.6125,-58.58387916982174L211.674375,16.312416076660163L211.85999999999999,160.73693664550783L212.23125000000002,15.211338119506829L212.47875,236.76070892333985L212.540625,16.258327941894525L213.406875,91.79282226562499L213.5925,161.34733673095704L213.778125,166.61954345703126L213.96375,15.369056167602535L214.21125,255.72765686035154L214.396875,88.65214538574217L214.45875,246.81553833007814L214.52062500000002,218.00138092041016L214.891875,157.42531677246095L215.20125,88.45988403320312L215.263125,168.64831665039063L215.325,-58.576680573225005L215.57250000000002,93.50025360107422L215.69625,170.96506774902343L215.75812499999998,-58.560848471522334L216.129375,13.86071022033692L216.315,14.819950866699209L216.43875,185.7482876586914L216.62437500000001,235.39424530029297L216.68625,87.48515426635741L216.80999999999997,16.76024566650391L216.995625,204.6829879760742L217.18125,-58.24206404447557L217.67625,18.727458496093746L217.738125,13.531702575683592L218.04749999999999,-58.4793015128374L218.356875,244.71441955566405L218.66625,90.21586685180664L219.470625,14.905017242431649L219.5325,222.4480953979492L219.59437499999999,16.097837066650385L219.65625,-58.19603598594667L220.213125,90.34314682006834L220.64624999999998,13.280509643554682L220.831875,160.04338775634767L221.14125,16.739656524658198L221.326875,215.01560424804688L221.698125,16.688080139160157L221.76,14.454675903320306L221.82187499999998,176.30144561767577L222.13125,16.471853637695318L222.37875,16.674477081298825L222.5025,16.066192626953118L222.688125,15.082910308837885L222.935625,15.562640914916987L222.9975,89.46654632568361L223.059375,170.3434503173828L223.18312500000002,250.46040161132814L223.430625,231.08842285156248L223.49249999999998,15.83626853942872L223.61625,164.07804931640626L223.678125,92.91974243164064L223.925625,16.365383377075194L223.98749999999998,89.34458694458007L224.049375,91.39030319213866L224.35875000000001,10.622336196899418L224.4825,16.093727340698234L225.10125,291.5946801757812L225.163125,91.70298446655273L225.410625,263.7423876953125L225.534375,13.642660675048832L225.84375,15.941892547607422L225.9675,90.06185791015625L226.153125,15.97144836425782L226.276875,93.39295959472658L226.895625,309.31599853515627L227.08125,91.54348388671876L227.266875,237.93912445068358L227.57625000000002,14.111394500732416L227.76187499999997,168.5458840942383L228.133125,-58.56677019894124L228.31875,13.38273063659668L228.4425,253.86590148925782L228.751875,16.612331542968743L228.87562499999999,238.17693939208985L229.123125,15.245584335327143L229.185,14.921019515991208L229.68,16.407389907836922L229.9275,155.14077728271485L229.989375,-58.61481946587562L230.175,153.7949838256836L230.29875,171.0291668701172L230.4225,-58.13054433226587L230.731875,166.42913665771485L230.979375,244.01916015625L231.226875,205.34632385253906L231.474375,16.717284851074215L231.59812499999998,86.52274017333984L231.969375,91.76895614624024L232.711875,80.33555450439454L232.835625,16.485128097534187L232.959375,90.2136701965332L233.145,165.15354614257814L233.330625,16.9260841369629L233.51625,-58.04398484706878L233.578125,89.44936019897459L233.8875,178.0877764892578L234.75375,248.54059692382816L234.93937499999998,17.89028976440429L235.00125,-58.63093504667281L235.49625,16.035398941040036L235.99124999999998,15.673000335693366L236.548125,16.073192214965815L236.795625,18.506298522949216L237.22875,15.693314895629891L237.60000000000002,89.52031036376952L237.72375,167.13039184570312L237.909375,16.774181823730462L238.033125,159.76100952148437L238.404375,17.001238555908195L238.52812500000002,15.056122817993174L238.59,15.475251846313471L238.96125,16.527616271972665L239.085,13.521664581298825L239.14687500000002,-58.66755431413652L239.20875,222.44867156982423L239.45624999999998,16.548007354736324L239.518125,248.41862854003907L239.58,15.511501159667969L239.70375,264.68687744140624L239.889375,-58.47428241014481L240.013125,16.19529563903808L240.32250000000002,199.79335937500002L240.38437499999998,-57.291138925552374L240.57,12.912187271118158L240.879375,310.23783752441403L240.94125,16.102676010131844L241.065,17.078346557617188L241.12687499999998,266.21715393066404L241.43625,11.988484725952157L241.56,154.11268859863281L241.745625,17.22870941162109L241.8075,231.07628723144532L241.86937500000002,244.4611199951172L242.05499999999998,14.935005187988288L242.240625,15.758426818847656L242.42625,92.76925354003907L242.67374999999998,175.28909362792967L242.92125000000001,177.69983276367185L243.04500000000002,90.74439651489256L243.354375,13.932146530151366L243.41625,88.12942245483399L243.54000000000002,16.24491394042968L243.72562499999998,-58.408382962942134L244.035,-58.11697426080704L244.15875000000003,16.83836196899414L244.65375,85.33252212524414L244.71562500000002,88.64463714599609L244.963125,92.24648559570312L245.086875,271.9092999267578L245.39624999999998,226.3052780151367L245.52,17.18587463378906L245.64375,376.5833087158203L245.7675,95.33175994873048L245.953125,154.00505249023436L246.26250000000002,16.9315217590332L246.324375,16.382168884277352L246.38625,16.43624351501464L246.44812499999998,90.11917800903319L246.51,15.913525085449217L246.571875,17.520360412597665L246.819375,189.79855987548828L246.94312499999998,16.682363433837885L247.06687499999998,87.30622589111327L247.2525,17.263558807373048L247.438125,14.899133987426756" style="fill: none;" fill="none"></path></g></g></g></g></g></g><g transform="translate(51, 177)" clip-path="url(#clip_1)"><clipPath id="clip_1"><rect width="278" height="23"></rect></clipPath><g><g><line x1="0" y1="0" x2="0" y2="5" style="visibility: inherit;" fill="rgb(0, 0, 0)" stroke="rgb(204, 204, 204)" stroke-width="1px"></line><line x1="30.9375" y1="0" x2="30.9375" y2="5" style="visibility: inherit;" fill="rgb(0, 0, 0)" stroke="rgb(204, 204, 204)" stroke-width="1px"></line><line x1="61.875" y1="0" x2="61.875" y2="5" style="visibility: inherit;" fill="rgb(0, 0, 0)" stroke="rgb(204, 204, 204)" stroke-width="1px"></line><line x1="92.8125" y1="0" x2="92.8125" y2="5" style="visibility: inherit;" fill="rgb(0, 0, 0)" stroke="rgb(204, 204, 204)" stroke-width="1px"></line><line x1="123.75" y1="0" x2="123.75" y2="5" style="visibility: inherit;" fill="rgb(0, 0, 0)" stroke="rgb(204, 204, 204)" stroke-width="1px"></line><line x1="154.6875" y1="0" x2="154.6875" y2="5" style="visibility: inherit;" fill="rgb(0, 0, 0)" stroke="rgb(204, 204, 204)" stroke-width="1px"></line><line x1="185.625" y1="0" x2="185.625" y2="5" style="visibility: inherit;" fill="rgb(0, 0, 0)" stroke="rgb(204, 204, 204)" stroke-width="1px"></line><line x1="216.5625" y1="0" x2="216.5625" y2="5" style="visibility: inherit;" fill="rgb(0, 0, 0)" stroke="rgb(204, 204, 204)" stroke-width="1px"></line><line x1="247.5" y1="0" x2="247.5" y2="5" style="visibility: inherit;" fill="rgb(0, 0, 0)" stroke="rgb(204, 204, 204)" stroke-width="1px"></line><line x1="278.4375" y1="0" x2="278.4375" y2="5" style="visibility: inherit;" fill="rgb(0, 0, 0)" stroke="rgb(204, 204, 204)" stroke-width="1px"></line></g><g transform="translate(0, 8)"><text x="0" y="0" dx="0em" dy="0.95em" style="text-anchor: middle; visibility: hidden; font-family: Roboto, sans-serif; font-size: 12px; font-weight: 200;" fill="rgb(33, 33, 33)" stroke="none" stroke-width="1px">-500</text><text x="30.9375" y="0" dx="0em" dy="0.95em" style="text-anchor: middle; visibility: inherit; font-family: Roboto, sans-serif; font-size: 12px; font-weight: 200;" fill="rgb(33, 33, 33)" stroke="none" stroke-width="1px">0</text><text x="61.875" y="0" dx="0em" dy="0.95em" style="text-anchor: middle; visibility: inherit; font-family: Roboto, sans-serif; font-size: 12px; font-weight: 200;" fill="rgb(33, 33, 33)" stroke="none" stroke-width="1px">500</text><text x="92.8125" y="0" dx="0em" dy="0.95em" style="text-anchor: middle; visibility: inherit; font-family: Roboto, sans-serif; font-size: 12px; font-weight: 200;" fill="rgb(33, 33, 33)" stroke="none" stroke-width="1px">1k</text><text x="123.75" y="0" dx="0em" dy="0.95em" style="text-anchor: middle; visibility: inherit; font-family: Roboto, sans-serif; font-size: 12px; font-weight: 200;" fill="rgb(33, 33, 33)" stroke="none" stroke-width="1px">1.5k</text><text x="154.6875" y="0" dx="0em" dy="0.95em" style="text-anchor: middle; visibility: inherit; font-family: Roboto, sans-serif; font-size: 12px; font-weight: 200;" fill="rgb(33, 33, 33)" stroke="none" stroke-width="1px">2k</text><text x="185.625" y="0" dx="0em" dy="0.95em" style="text-anchor: middle; visibility: inherit; font-family: Roboto, sans-serif; font-size: 12px; font-weight: 200;" fill="rgb(33, 33, 33)" stroke="none" stroke-width="1px">2.5k</text><text x="216.5625" y="0" dx="0em" dy="0.95em" style="text-anchor: middle; visibility: inherit; font-family: Roboto, sans-serif; font-size: 12px; font-weight: 200;" fill="rgb(33, 33, 33)" stroke="none" stroke-width="1px">3k</text><text x="247.5" y="0" dx="0em" dy="0.95em" style="text-anchor: middle; visibility: inherit; font-family: Roboto, sans-serif; font-size: 12px; font-weight: 200;" fill="rgb(33, 33, 33)" stroke="none" stroke-width="1px">3.5k</text><text x="278.4375" y="0" dx="0em" dy="0.95em" style="text-anchor: middle; visibility: hidden; font-family: Roboto, sans-serif; font-size: 12px; font-weight: 200;" fill="rgb(33, 33, 33)" stroke="none" stroke-width="1px">4k</text></g><line x1="0" y1="0" x2="278.4375" y2="0" fill="rgb(0, 0, 0)" stroke="rgb(204, 204, 204)" stroke-width="1px"></line></g></g></g></g></svg>