<svg viewBox="0 0 330 200" xmlns="http://www.w3.org/2000/svg"><g><g><g><g><g><line x1="60" y1="177" x2="55" y2="177" style="visibility: inherit;" fill="rgb(0, 0, 0)" stroke="rgb(204, 204, 204)" stroke-width="1px"></line><line x1="60" y1="154.87499999999997" x2="55" y2="154.87499999999997" style="visibility: inherit;" fill="rgb(0, 0, 0)" stroke="rgb(204, 204, 204)" stroke-width="1px"></line><line x1="60" y1="132.75000000000003" x2="55" y2="132.75000000000003" style="visibility: inherit;" fill="rgb(0, 0, 0)" stroke="rgb(204, 204, 204)" stroke-width="1px"></line><line x1="60" y1="110.62500000000004" x2="55" y2="110.62500000000004" style="visibility: inherit;" fill="rgb(0, 0, 0)" stroke="rgb(204, 204, 204)" stroke-width="1px"></line><line x1="60" y1="88.5" x2="55" y2="88.5" style="visibility: inherit;" fill="rgb(0, 0, 0)" stroke="rgb(204, 204, 204)" stroke-width="1px"></line><line x1="60" y1="66.37499999999999" x2="55" y2="66.37499999999999" style="visibility: inherit;" fill="rgb(0, 0, 0)" stroke="rgb(204, 204, 204)" stroke-width="1px"></line><line x1="60" y1="44.24999999999994" x2="55" y2="44.24999999999994" style="visibility: inherit;" fill="rgb(0, 0, 0)" stroke="rgb(204, 204, 204)" stroke-width="1px"></line><line x1="60" y1="22.12500000000002" x2="55" y2="22.12500000000002" style="visibility: inherit;" fill="rgb(0, 0, 0)" stroke="rgb(204, 204, 204)" stroke-width="1px"></line><line x1="60" y1="0" x2="55" y2="0" style="visibility: inherit;" fill="rgb(0, 0, 0)" stroke="rgb(204, 204, 204)" stroke-width="1px"></line></g><g transform="translate(50, 0)"><text x="0" y="177" dx="0em" dy="0.3em" style="text-anchor: end; visibility: hidden; font-family: Roboto, sans-serif; font-size: 12px; font-weight: 200;" fill="rgb(33, 33, 33)" stroke="none" stroke-width="1px">-1.45</text><text x="0" y="154.87499999999997" dx="0em" dy="0.3em" style="text-anchor: end; visibility: inherit; font-family: Roboto, sans-serif; font-size: 12px; font-weight: 200;" fill="rgb(33, 33, 33)" stroke="none" stroke-width="1px">-1.4</text><text x="0" y="132.75000000000003" dx="0em" dy="0.3em" style="text-anchor: end; visibility: hidden; font-family: Roboto, sans-serif; font-size: 12px; font-weight: 200;" fill="rgb(33, 33, 33)" stroke="none" stroke-width="1px">-1.35</text><text x="0" y="110.62500000000004" dx="0em" dy="0.3em" style="text-anchor: end; visibility: inherit; font-family: Roboto, sans-serif; font-size: 12px; font-weight: 200;" fill="rgb(33, 33, 33)" stroke="none" stroke-width="1px">-1.3</text><text x="0" y="88.5" dx="0em" dy="0.3em" style="text-anchor: end; visibility: hidden; font-family: Roboto, sans-serif; font-size: 12px; font-weight: 200;" fill="rgb(33, 33, 33)" stroke="none" stroke-width="1px">-1.25</text><text x="0" y="66.37499999999999" dx="0em" dy="0.3em" style="text-anchor: end; visibility: inherit; font-family: Roboto, sans-serif; font-size: 12px; font-weight: 200;" fill="rgb(33, 33, 33)" stroke="none" stroke-width="1px">-1.2</text><text x="0" y="44.24999999999994" dx="0em" dy="0.3em" style="text-anchor: end; visibility: hidden; font-family: Roboto, sans-serif; font-size: 12px; font-weight: 200;" fill="rgb(33, 33, 33)" stroke="none" stroke-width="1px">-1.15</text><text x="0" y="22.12500000000002" dx="0em" dy="0.3em" style="text-anchor: end; visibility: inherit; font-family: Roboto, sans-serif; font-size: 12px; font-weight: 200;" fill="rgb(33, 33, 33)" stroke="none" stroke-width="1px">-1.1</text><text x="0" y="0" dx="0em" dy="0.3em" style="text-anchor: end; visibility: hidden; font-family: Roboto, sans-serif; font-size: 12px; font-weight: 200;" fill="rgb(33, 33, 33)" stroke="none" stroke-width="1px">-1.05</text></g><line x1="60" y1="0" x2="60" y2="177" fill="rgb(0, 0, 0)" stroke="rgb(204, 204, 204)" stroke-width="1px"></line></g></g><g transform="translate(60, 0)" clip-path="url(#clip_0)"><clipPath id="clip_0"><rect width="270" height="177"></rect></clipPath><g><g><g><line x1="0" y1="0" x2="0" y2="177" fill="rgb(0, 0, 0)" stroke="rgb(66, 66, 66)" stroke-width="1px" opacity="0.25"></line><line x1="30" y1="0" x2="30" y2="177" fill="rgb(0, 0, 0)" stroke="rgb(66, 66, 66)" stroke-width="1px" opacity="0.25"></line><line x1="60" y1="0" x2="60" y2="177" fill="rgb(0, 0, 0)" stroke="rgb(66, 66, 66)" stroke-width="1px" opacity="0.25"></line><line x1="90" y1="0" x2="90" y2="177" fill="rgb(0, 0, 0)" stroke="rgb(66, 66, 66)" stroke-width="1px" opacity="0.25"></line><line x1="120" y1="0" x2="120" y2="177" fill="rgb(0, 0, 0)" stroke="rgb(66, 66, 66)" stroke-width="1px" opacity="0.25"></line><line x1="150" y1="0" x2="150" y2="177" fill="rgb(0, 0, 0)" stroke="rgb(66, 66, 66)" stroke-width="1px" opacity="0.25"></line><line x1="180" y1="0" x2="180" y2="177" fill="rgb(0, 0, 0)" stroke="rgb(66, 66, 66)" stroke-width="1px" opacity="0.25"></line><line x1="210" y1="0" x2="210" y2="177" fill="rgb(0, 0, 0)" stroke="rgb(66, 66, 66)" stroke-width="1px" opacity="0.25"></line><line x1="240" y1="0" x2="240" y2="177" fill="rgb(0, 0, 0)" stroke="rgb(66, 66, 66)" stroke-width="1px" opacity="0.25"></line><line x1="270" y1="0" x2="270" y2="177" fill="rgb(0, 0, 0)" stroke="rgb(66, 66, 66)" stroke-width="1px" opacity="0.25"></line></g><g><line x1="0" y1="177" x2="270" y2="177" fill="rgb(0, 0, 0)" stroke="rgb(66, 66, 66)" stroke-width="1px" opacity="0.25"></line><line x1="0" y1="154.87499999999997" x2="270" y2="154.87499999999997" fill="rgb(0, 0, 0)" stroke="rgb(66, 66, 66)" stroke-width="1px" opacity="0.25"></line><line x1="0" y1="132.75000000000003" x2="270" y2="132.75000000000003" fill="rgb(0, 0, 0)" stroke="rgb(66, 66, 66)" stroke-width="1px" opacity="0.25"></line><line x1="0" y1="110.62500000000004" x2="270" y2="110.62500000000004" fill="rgb(0, 0, 0)" stroke="rgb(66, 66, 66)" stroke-width="1px" opacity="0.25"></line><line x1="0" y1="88.5" x2="270" y2="88.5" fill="rgb(0, 0, 0)" stroke="rgb(66, 66, 66)" stroke-width="1px" opacity="0.25"></line><line x1="0" y1="66.37499999999999" x2="270" y2="66.37499999999999" fill="rgb(0, 0, 0)" stroke="rgb(66, 66, 66)" stroke-width="1px" opacity="0.25"></line><line x1="0" y1="44.24999999999994" x2="270" y2="44.24999999999994" fill="rgb(0, 0, 0)" stroke="rgb(66, 66, 66)" stroke-width="1px" opacity="0.25"></line><line x1="0" y1="22.12500000000002" x2="270" y2="22.12500000000002" fill="rgb(0, 0, 0)" stroke="rgb(66, 66, 66)" stroke-width="1px" opacity="0.25"></line><line x1="0" y1="0" x2="270" y2="0" fill="rgb(0, 0, 0)" stroke="rgb(66, 66, 66)" stroke-width="1px" opacity="0.25"></line></g></g></g><g><g><line x1="0" y1="-464.62500000000017" x2="270" y2="-464.62500000000017" fill="rgb(0, 0, 0)" stroke="rgb(153, 153, 153)" stroke-width="1.5px"></line></g></g><g><g><line x1="30" y1="0" x2="30" y2="177" fill="rgb(0, 0, 0)" stroke="rgb(153, 153, 153)" stroke-width="1.5px"></line></g></g><g><g><g><g><g><path stroke="rgb(255, 112, 67)" stroke-width="2px" d="M32.52,-99.35460491946795L32.58,26.015539451908218L32.76,149.65829746590472L32.94,300.926080709614L41.94,222.65423622405336L42.18000000000001,170.09765655204419L42.36,160.22830578329936L42.54,172.99970982457924L42.599999999999994,167.95903850785322L42.72,159.61757226700425L42.84,173.39065580317293L43.32,168.46866627185895L43.5,153.75004567890966L43.86,136.4994703661776L44.040000000000006,144.02634867020706L44.52,145.46914870731993L44.82,126.2707122516212L45,136.10546486089098L45.42,118.39224410360742L45.54,123.5864752310854L45.66,120.32029272188802L46.02,130.7344720665815L46.08,138.30510844613323L46.38,120.73038169041402L46.56,144.17750592407663L46.62,153.61930036173507L46.98,130.8342589594498L47.1,137.02006376132815L47.519999999999996,112.30683303085242L47.7,84.81652593736209L48.660000000000004,83.52764546945312L48.9,90.66780438467633L49.2,48.95781227615337L49.379999999999995,34.49576516548904L49.56,74.1874343371398L49.68,71.57125440931357L49.74,91.83097703275705L50.16,101.61117772470487L50.52,113.7153107178841L50.64,79.3081360252281L50.699999999999996,89.0396870131242L50.82,106.58513315647521L51.06,117.25252623635335L51.12,72.95177125500322L51.239999999999995,84.4363466952245L51.3,86.33247938477997L51.480000000000004,114.74409729673872L51.54,96.23875948449613L51.6,116.8945416013041L51.66,131.26972702739474L51.9,126.38462764977125L52.08,108.07636217450322L52.199999999999996,91.05630493268504L52.38,105.52765095296584L52.62,107.64526419677189L52.92,77.94335148833898L52.98,88.35853627981366L53.099999999999994,61.73090860641972L53.160000000000004,67.23715215561971L53.76,64.14028426193111L53.88,52.82086148371051L53.94,74.56935977047534L54,73.40549003544957L54.120000000000005,104.11042735256865L54.18,38.06647330092258L54.48,57.662080368798186L55.02,76.72651653373313L55.08,61.562284641766944L55.379999999999995,18.59297332364573L55.56,41.03871322392372L55.86,53.72218501996364L55.980000000000004,61.08195827264404L56.400000000000006,49.27684670602573L56.699999999999996,27.510195672007143L56.76,69.90823205679168L56.94,89.52669108134218L57.06,90.56533448828284L57.12,79.89075503905435L57.300000000000004,105.23697415685551L57.36,83.0266467553133L57.42,59.514910353526744L57.48,83.15200746852473L57.9,70.3433634328742L58.019999999999996,52.3114749126374L58.08,64.84901468352916L58.44,70.97277441261078L58.559999999999995,54.11404968880335L58.74,51.05074504365162L58.86,83.68322934716727L59.339999999999996,84.38016372924913L59.64,63.95447684529946L59.82,85.77510867836193L59.94,75.69039737178161L60.18,74.39106845255654L60.3,64.01698557970496L60.419999999999995,45.33460552953223L60.480000000000004,45.59032964386068L60.66,20.46878070639085L60.839999999999996,32.34683236483645L60.900000000000006,60.17369297149128L61.02,37.430260723843254L61.62,32.01925324560048L61.86,32.22271699405218L62.16,16.340960280278402L62.58,24.706980381118672L62.699999999999996,37.391267915789705L63.059999999999995,38.950727546348794L63.300000000000004,54.62775933988965L63.84,67.19613654761365L63.96,58.91898719876311L64.02,92.08556266074957L64.62,88.35907098916516L64.8,75.49006188671197L65.04,61.285224728348346L65.16,45.51087022576484L65.34,29.39984908553213L65.52,41.7563020876184L65.58,56.12979138440699L65.7,40.003828457276825L65.76,65.20983105378197L65.88,61.506095227461174L66.11999999999999,49.50092371515104L66.18,40.50845265514649L66.24,45.110255385202166L66.3,51.08398756072642L66.60000000000001,75.51188447884161L66.66,47.55767406708862L66.72,26.173669848959758L67.26,51.91501330978934L67.56,36.06592175750288L67.67999999999999,8.165267356564726L67.8,30.54665666123041L67.86,47.71047237694149L67.91999999999999,58.198451204180046L68.04,43.27814021294071L68.22,54.71258427253222L68.58,17.202231404488415L68.64,23.32611057597704L68.82,39.213206991185544L68.94000000000001,38.94983259715421L69.53999999999999,58.36838681625004L69.6,63.084567803899496L69.72,43.597835695004434L69.77999999999999,51.89239134505748L70.02000000000001,70.8873400337419L70.26,85.30448518079048L70.61999999999999,50.88631144691423L70.92,54.23622224050116L71.22,24.145975096925223L71.28,28.546768202724486L71.34,50.36454678436665L71.39999999999999,43.62366214311452L71.58,9.007635944583038L71.64,31.370182081161683L72.06,1.2307934666268023L72.24,38.85962218669612L72.96,21.024236766264167L73.08,36.5150179432424L73.32,15.51817872325134L73.86,29.539785517451467L74.22,58.01771007370785L74.27999999999999,38.237581291150086L74.82,42.94061367413458L75.11999999999999,76.43314092577133L75.17999999999999,94.19910689127819L75.24,44.45528384406793L75.48,29.36580181336056L75.78,16.69873001704011L76.2,52.070436158951495L76.26,80.84590418289682L76.38000000000001,84.82695583790891L76.56,62.618526746573124L76.8,30.241669636811082L76.97999999999999,32.43746701588942L77.03999999999999,31.377223656837455L77.28,47.82236526385802L77.52,60.646431529377985L77.64,46.662706925782615L77.7,44.72661699909746L77.75999999999999,49.880670488231075L77.88,61.58639384529159L78.12,28.936216457016265L78.18,18.137232460574534L78.53999999999999,15.313023828265834L78.66,36.868067707298806L78.72,70.45400724749484L78.78,59.043892681245296L79.08,71.86561828830496L79.14,77.45194083439506L79.61999999999999,64.33080321542737L80.28,72.86975616212074L80.58,36.562705743285285L80.64,17.830871193392408L81.06,53.00216179417579L81.42,44.07136526898745L81.53999999999999,46.01371366498593L81.78,47.10831095408038L81.84,32.82969840544833L82.02,53.929931594004486L82.14,64.0751783329668L82.44,60.857417862321356L82.92,55.96370346588223L83.16,43.14347559954124L83.33999999999999,78.25271534171937L83.52000000000001,47.12360722569961L83.82000000000001,61.97961978166309L84.11999999999999,41.11330006151802L84.17999999999999,47.08425770777115L84.24,27.31113001452477L84.54,-3.6248339489306205L84.78,31.65848464517561L84.84,90.0926520511435L85.08,95.80151393919749L85.38000000000001,79.38563656156995L85.74,49.154881091986546L85.86,42.113130981966584L85.97999999999999,25.46234925701897L86.22000000000001,47.91028645106965L86.4,35.32040971796994L86.7,12.409470571764048L87.24000000000001,63.51087578158843L87.3,56.06611509335801L87.36,51.5848684502409L87.72,31.612377917335394L88.08000000000001,24.23036014769432L88.32000000000001,33.309503315293526L88.38,34.15452096367104L88.44,58.980387553597836L88.5,57.63290354312977L88.56,78.63242717207383L88.74,93.32758674395623L89.04,54.873282750681334L89.16,43.34248785986614L89.22,29.79515772351096L89.46,37.79166665845193L89.69999999999999,43.53179449542206L89.75999999999999,39.1798057478895L89.82,64.4163454009432L89.94000000000001,49.99738149841659L90,48.678289633989586L90.06,55.46255220294018L90.18,53.45015688729298L90.3,42.077161478948604L90.42,56.0773777055454L90.48,58.41202542112548L90.78,67.53726595000197L90.9,68.33883486602171L91.02,68.09920970447939L91.44,68.13419418244413L91.98,66.8711416763595L92.39999999999999,44.16322953954519L92.46,47.10446459922304L92.64,15.417617481190623L92.7,42.53438375070011L92.76,35.05720881029554L92.88,42.80293709876883L93,52.47397810723041L93.24,38.0513662964442L93.3,49.77250833930603L93.66000000000001,42.86901523841638L93.9,27.445126617987317L94.02,54.83137898745504L94.2,64.97301731766682L94.38,47.069697608121736L94.56,58.10048274372125L94.68,50.1012651692277L94.92,29.898744521763692L94.98,44.61895712508368L95.4,58.044290019831685L95.58,46.592773147679324L95.64,64.59868859544811L96,55.02128312167782L96.11999999999999,77.02960594402101L96.17999999999999,65.29974894467802L96.42,36.48785508122327L96.48,71.02993905810291L96.66,75.15129032294612L96.84,61.9518533144037L96.96,48.21071000061281L97.02,51.15725538231048L97.13999999999999,77.66270569024753L97.32000000000001,91.5291464034215L97.5,103.99440992495398L97.56,102.54270000827901L97.8,69.87928788407206L97.86,56.507779267689976L97.97999999999999,52.080342738188186L98.28,31.033082251761464L98.4,25.664175084241684L98.46,31.178270203476256L98.52,38.409921802643076L99,41.192721198536866L99.06,67.78587860497109L99.12,44.599587360812876L99.3,72.55409841525179L99.78,58.2084808873392L99.9,67.84785893721927L100.61999999999999,57.394537515422975L100.67999999999999,61.989299551833376L100.80000000000001,76.84772845279497L100.92,77.73909306628302L101.10000000000001,45.90011394085166L101.16,23.47378599680468L101.28,31.98959190867551L101.46,32.5772726727856L102.66000000000001,75.47208574970557L103.02,90.93565745091426L103.08,58.63306156954761L103.2,72.5560881862736L103.44,75.85823706207846L103.56,34.71513989817006L103.68,58.22757463008704L103.86,56.54568245619859L104.16,43.73896381026697L104.28,96.58673956850889L104.33999999999999,82.0565781525357L104.39999999999999,78.06763422081366L104.52000000000001,109.1738586162895L104.94,84.30927806707437L105.06,57.8490587330593L105.78,59.130217114492254L105.96,33.110021662356814L106.14,3.6499242494357915L106.19999999999999,8.908579999795744L106.32000000000001,23.942148861045347L106.44,61.264096031638815L106.56,84.25205348137187L106.8,72.92165936352708L106.92,75.5402882416361L107.03999999999999,60.791235442120644L107.22000000000001,89.6846767158263L107.34,66.32489623373463L107.64,87.44442072955202L107.82,87.05548233656552L108.12,59.16753620426925L108.18,84.58493432117156L108.3,37.08344068951991L108.48,31.893050496742696L108.89999999999999,28.069453993419106L109.02000000000001,36.12940430580337L109.08000000000001,79.17592992746097L109.2,68.31074174859089L109.26,24.0210198796866L109.44,20.97125684243903L109.56,69.44742822064445L109.86,78.37149016507558L109.98,68.19175825386098L110.04,76.35292953174614L110.16,63.31191497994248L110.22,80.71262015076151L110.28,50.79547391636177L110.75999999999999,50.91596037330038L111,55.4123407255519L111.3,37.39079058473755L111.36,47.79878690424837L111.72,43.732204071183645L111.84,76.24947838276609L111.96000000000001,71.98602221184962L112.02,65.83011666401622L112.14,83.29523350873232L112.74000000000001,30.632526696197036L112.80000000000001,64.32409433154572L112.92,34.12212497966474L113.28,26.389887755972094L113.34,44.262689033664486L113.64,70.37980158300226L113.7,46.045208115404954L113.88,28.78546665848858L114,39.403951971182614L114.12,72.57334425952997L114.24,99.46033918206078L114.41999999999999,106.35113875475044L114.47999999999999,42.86164357904499L114.60000000000001,41.222914926075305L114.84,12.926366753496776L115.02,29.863340775440992L115.08,55.57077178971224L115.2,61.31012018690256L115.32,57.44657290083023L115.62,70.34756884635598L116.16,57.38032978571126L116.4,50.11963823912544L116.52000000000001,49.87916674302811L116.82,40.21125227264637L116.88,20.911349380326747L117.06,11.617091038413285L117.36,25.451542841546193L117.48,13.465386478395745L117.78,48.37650995748735L118.02,70.49938491164137L118.26,104.67346331583553L118.32000000000001,79.132507593078L118.44,53.71958100237998L118.56,91.56698469781021L118.74,98.63664381780113L118.8,43.60553483413392L118.92,36.223180557767996L118.97999999999999,45.166997137952116L119.03999999999999,17.2706814785529L119.10000000000001,-10.560097481028576L119.22,27.12767485069259L119.52,34.38024453691854L119.7,68.65004549248349L119.88,44.101613961597195L120.06,29.932592417561946L120.24000000000001,20.798958865263398L120.6,43.827512721692514L120.66,31.399798095509418L121.14,29.80062600391209L121.32,51.10479223976794L121.44,64.30161245018402L121.56,72.34474343866204L121.80000000000001,63.756142299235485L121.98,51.00506668142118L122.28,80.02636151821393L122.39999999999999,47.48434055632932L122.46,67.50411351195925L122.94,63.29293396277404L123.12,89.53799337269768L123.3,75.81869062257952L123.36,69.54529857917508L123.47999999999999,90.44185567071362L123.72,94.87756283384755L124.2,116.81875166477089L124.38,97.77817202318506L124.44,91.88961074774738L124.56,126.25282865777777L124.68,133.66732231387596L124.8,117.6014371848648L125.1,66.17940858224308L125.16,65.16676020156908L125.22,56.46255669314608L125.39999999999999,46.19706071209284L125.52000000000001,51.1497427272282L125.58,53.13199196144823L125.7,45.349497186451416L125.88,45.55742325026349L126,66.26149514698122L126.78,72.98198892702541L126.89999999999999,97.49831365364722L127.32000000000001,99.31224674473964L127.38000000000001,66.7945450215982L127.86,71.49626696523706L127.97999999999999,62.353174140552774L128.28,94.55457168251276L128.51999999999998,79.40167261022327L128.57999999999998,86.75642595802539L128.64000000000001,83.6255690462279L128.70000000000002,79.39347156327293L128.76,93.76142533088522L129,57.828082653670336L129.24,55.676657350533496L129.42,49.18797506789763L129.96,59.14230273902658L130.02,54.21267527783066L130.08,31.528108730579277L130.2,54.40208831707528L130.38,66.77474393415382L130.56,71.96069871168092L130.62,49.63886903989761L130.92,57.41348332922726L130.98,41.381492798096374L131.04,53.409445777276986L131.1,68.7501988021969L131.16,56.275515652205875L131.22,53.812917194668294L131.34,59.179241872968596L131.4,4.852791045392925L131.64000000000001,32.798486265114185L132,84.73273524795248L132.84,56.3882058450835L133.01999999999998,71.57091391022549L133.14,43.466411804768775L133.26000000000002,42.08033979869685L133.62,58.88035777173521L133.74,93.95586077548312L133.8,85.56043963537964L133.85999999999999,65.63681033197854L133.92,43.02405089702487L133.98,28.71861108879015L134.22,45.04555304491387L134.46,39.16084053304114L134.52,73.98233965746358L134.82,84.87217235393402L135.12,57.86731953517839L135.48,91.7698600238338L135.66,112.78194372330762L135.72,96.49055223747884L136.20000000000002,44.80245229652402L136.26000000000002,47.12159598500057L136.32000000000002,74.6321095742615L136.62,44.68388510452698L137.51999999999998,57.51230071012372L137.7,70.14722462906956L137.94,61.43257260569635L138.06,76.71133639960706L138.18,76.56195453732745L138.3,62.229099249419725L138.42000000000002,67.30094874833657L138.48,79.0152904327788L138.6,102.63604184008113L139.38,104.30118825445454L139.44,61.240260901509984L139.5,63.878404106175466L139.55999999999997,63.438027885839716L139.68,66.63729001717888L139.86,70.69286807559203L139.92000000000002,92.99336247552797L139.98000000000002,60.20359728878356L140.28,43.959191668901525L140.34,44.64141396813015L140.46,19.281622005298278L140.52,61.509857697960435L140.58,66.90864989976694L140.76,31.937855087641555L140.82,22.10234167750104L141,45.79298059091229L141.72,67.85299339261802L141.84,38.18248309115856L141.9,51.91497374427494L142.02,61.6115527919065L142.08,70.04202329940385L142.14000000000001,78.81532709495292L142.26,92.70855226931607L143.58,109.29380287419336L143.94,90.11148913914307L144.48,76.64002888330421L144.54,98.43500528889065L144.6,87.13848601673345L144.83999999999997,53.90291246708814L144.89999999999998,67.09488342366566L145.01999999999998,111.88673993445607L145.68,94.8903464346956L145.8,80.43044909655039L146.1,72.90129809867729L146.16,73.83494063193437L146.28,55.27473025306964L146.4,57.20978603830875L146.7,46.48056477350557L146.82,32.20569487835499L147.12,39.297258975658046L147.18,66.17671988162591L147.36,73.33303741069557L147.66,75.54053995282597L147.72,29.44445387882674L147.9,51.099240901247754L148.07999999999998,39.207164026603735L148.14,46.84019757348632L148.26,65.1134189190765L148.38,67.54373422994016L148.61999999999998,51.25003418763754L148.86,50.28337803745433L148.98000000000002,24.239239044571903L149.4,59.27088128780431L149.46,53.78367454561653L149.7,67.39337214680344L150.17999999999998,54.14104218990698L150.35999999999999,60.08917176551277L151.26,61.84625201121957L151.38,45.631696442937816L151.56,53.11492329846378L151.62,27.363664090696272L151.79999999999998,70.20135880712468L152.4,64.94014600040799L152.94,77.31243898345402L153.06,83.95555623694281L153.3,112.13653083040732L153.72,63.6058181488182L154.20000000000002,6.556101463059538L154.44,4.058775700223411L154.5,14.722192547972233L154.74,45.61072641745527L155.57999999999998,55.95346366247727L155.76,53.126451366431695L155.94,48.06046142178012L156.24,93.10930310486091L156.42000000000002,102.8356012272735L156.78,108.80471128033986L156.9,71.49652815942396L156.96,70.79598606279154L157.38,67.37626841456097L157.5,83.85409578556066L157.67999999999998,65.3407867483749L157.86,59.618250020292656L158.28,32.12434752461151L158.34,27.01508800790805L158.4,44.34599557284171L158.76,30.317841784737432L159.18,45.46695593391773L159.35999999999999,53.006689473360304L159.54,55.362162449580225L159.72,54.396331845892504L159.9,46.04218457887946L160.08,53.34743785113319L160.14000000000001,48.11962515860928L160.20000000000002,28.273137299717227L160.74,35.47492166072178L161.1,64.92532207793033L161.22,102.24970494643472L161.33999999999997,77.77242206892745L161.58,72.08570651627404L161.76000000000002,78.10223195801271L161.82000000000002,114.2267035117751L161.88,68.5274048489932L162.24,83.72668673053998L162.3,74.09378143224491L162.36,91.75213620706428L162.6,63.0489285567047L162.78,114.487581859746L162.9,57.62514546556379L163.56,61.41787993337583L163.68,18.293694802676846L163.74,91.51942395481775L163.8,134.66631059237304L163.86,114.49608438246247L163.92000000000002,72.9195711435842L164.1,63.671167720673566L164.16,63.67162720520384L164.57999999999998,56.42530369853427L164.76,95.52423090991648L165.36,40.37560448203847L165.9,60.06981402131538L166.26,41.103231987313116L166.5,76.9303062683079L166.85999999999999,91.38816687618097L166.98000000000002,72.00385449620724L167.04000000000002,64.88059522087957L167.28,39.33083203658803L167.58,47.44367188945619L167.64000000000001,41.119827930540986L168.12,24.75257488752077L168.23999999999998,32.578105668214945L168.48,51.47231911420111L169.02,55.00121890782879L169.26000000000002,34.79236986207702L169.38,56.264175593660696L169.44,58.695858514193525L169.5,101.01539935820335L169.56,94.26454025598188L170.45999999999998,55.98108090217006L171,65.21722663196972L171.06,72.31476803274778L171.18,66.95764400751486L171.36,37.73385144586025L171.66,54.2072346288839L171.72,46.486484818391666L171.84,81.59938648505965L172.01999999999998,48.06778788068271L172.14,46.33443667589654L172.2,47.12643729507349L172.56,58.249289696570806L172.74,54.04141291687286L172.8,69.41433518355718L172.92000000000002,47.82364722028749L172.98000000000002,56.42033433875668L173.04,53.94350659824152L173.28,75.9627115486666L173.46,80.28795088282854L173.52,90.50540106863755L173.57999999999998,67.1280078969657L173.64,60.96192927850839L173.7,45.83287343796228L173.88,62.19928699383816L173.94,72.61457837611246L174,44.40043902987127L174.06,34.01999545451332L174.24,39.089705803133974L174.3,72.13138502725232L174.36,48.11685172252811L174.72,27.612814256745324L175.5,70.44024979424341L175.85999999999999,57.820275660466315L176.10000000000002,57.31416849858236L176.16000000000003,68.07180149892964L176.28,59.78593258583549L176.58,42.476181462550144L176.94,66.69157595345023L177,74.7727657253065L177.24,65.25781436529867L177.29999999999998,113.28681604723393L177.42,83.5123059788957L177.48,64.00181758639903L178.20000000000002,67.26349504135662L178.56,62.92735001649029L178.74,54.81593504670598L178.8,77.67317270710072L179.45999999999998,77.16967248603106L180,91.17181985190157L180.06,80.10939355260525L180.18,82.74532282094002L180.48,84.97252063596162L180.54,85.2187477388615L180.6,62.661274983801555L180.66,53.603355618904835L180.78,60.38932762896471L181.68,37.788387098046876L181.86,47.931760190804496L181.92000000000002,57.888312863635875L182.1,92.16487322290416L182.28,58.65318952822488L182.4,59.8178935219276L182.46,49.234290156926434L182.64,10.641751870015636L183.36,4.621627583801366L183.42000000000002,9.840533432185413L183.48000000000002,13.481759510528892L183.9,17.42782135134445L184.08,48.510002275261414L184.98,44.77748109099451L185.16000000000003,63.743196351511344L185.34,79.0917548317809L185.52,71.94088621014951L185.76,41.23194913312552L185.82,49.5692289128588L185.88,70.7951465043239L186,78.24842758135873L186.06,72.30984539483116L186.6,83.84586664851983L187.26000000000002,106.49638078699394L187.32000000000002,72.25272015386747L187.44,30.56113552840906L187.5,14.563689564420956L187.56,54.96800135061399L187.62,70.0203797488525L187.68,74.20316431934322L187.92,101.96779452571081L187.98,125.56675700431353L188.34,120.43915374329856L188.76,108.11427359134657L189.48,99.97067373007957L190.2,60.5683862269546L190.26,49.37682053450497L190.32,49.23064139487594L190.38,102.1049522817269L190.55999999999997,87.37454198957302L190.74,60.21335498786462L190.86,65.29645252404501L191.1,75.07979936705762L191.52,54.171467013995255L191.76,40.352657930755754L191.88,27.252482495727616L192.29999999999998,46.11608967901617L192.35999999999999,79.53889244628758L192.42,71.04501603742132L192.60000000000002,53.128662006257194L192.78,68.76270361912148L193.2,65.81895144088203L193.32,82.9511024671979L193.44,81.20106795538588L193.62,78.37132181590275L193.79999999999998,90.1994042984574L194.27999999999997,100.45893942069586L194.34,56.685520283887264L194.4,73.9965627864059L194.52,53.622172276679095L194.58,98.28627457648723L195,108.88764568823704L195.42,97.09266097937903L195.54,106.14205417391587L195.6,116.8022433600243L195.66,74.76088428982594L195.72,76.87461548142724L195.78,52.893676144439496L196.14000000000001,94.04743422422322L196.20000000000002,76.7167354425998L196.26000000000002,80.27350564010207L197.88,87.24675740723171L197.94000000000003,43.55430716231081L198.06,48.76790152761109L198.24,61.04431993229852L198.6,56.62896126785081L198.66,26.35388013290279L198.72,34.32433796266857L198.78,38.41083870136822L199.2,34.843613921428265L199.44,71.83964112926992L199.56,46.86895253377834L199.73999999999998,48.34771779845756L200.16,60.11506707471964L200.34,55.37293478847959L200.88,55.34980743528256L201.23999999999998,39.90337975860146L201.29999999999998,33.82228393578831L201.42,41.518972535278195L201.60000000000002,78.84789899548635L202.20000000000002,85.96283042169065L202.38,75.74812810263899L202.44,105.67388072396442L202.68,113.48685752621371L202.92,121.65781781238957L202.98,94.05780142046595L203.04,104.13250404296863L203.16,107.43853987275696L203.28,98.92849746357872L203.52,89.76408950693298L203.64000000000001,70.02280936364461L203.94,83.31948250367722L204,83.85596498152306L204.24,63.53601877868587L204.42,47.430267149093254L204.6,79.14560654990827L205.01999999999998,86.36737312813382L205.14,96.95341008865707L205.98,89.99419594981597L206.04,81.24189906822639L206.16,22.86994628612391L206.22,80.80990872683637L206.57999999999998,69.53105763138836L206.76,56.171249148497076L207.12,97.83200003936832L207.3,57.65357889077031L207.42000000000002,56.041177876835825L207.6,68.93353343489514L207.9,72.8933048515484L208.14,68.70511273556744L208.2,52.52149989613178L208.32,51.71354636197257L208.5,46.24097698119265L208.56,69.10954759828446L208.61999999999998,29.712278069926505L208.73999999999998,36.574093617125286L208.85999999999999,61.76320633716825L209.34,62.301122101708906L209.4,58.19381176982208L209.46,67.35757555695699L209.52,37.6622049220343L209.64000000000001,13.104204154487755L210.35999999999999,32.388783488557515L210.54,52.78734650247444L210.72000000000003,81.875755846698L210.96,103.34766358148995L211.02,91.32800849683252L211.14000000000001,109.28390512709116L211.20000000000002,93.8737440934437L211.38,63.948549105564204L211.56,54.70274967780077L211.74,21.301470856847544L211.98,52.95219332038293L212.16,83.09222778117021L212.28,70.43418028614137L212.58,49.88820792830714L212.76000000000002,35.58981708047826L213.18,72.23372671221522L213.3,77.3541108203818L213.48,85.04364286857181L213.6,77.18388103841141L213.66,67.51451425193788L213.9,50.596821167701734L214.01999999999998,56.91580265679013L214.07999999999998,52.2649372453573L214.38000000000002,54.59584183902045L214.5,48.711915322604696L214.62,51.263436167516026L214.92000000000002,65.29620929305413L215.04,63.267869757083965L215.22,68.86588492779012L215.28,62.881594436097515L215.52,97.53966115518114L215.76,60.34261206748307L216.05999999999997,88.55396678425203L216.11999999999998,82.48865219579538L216.66,84.0922969378615L217.44,60.12290359721092L217.56,31.712839872750624L217.62,68.96244830555503L218.16000000000003,36.07411212126482L218.46,38.58792096614874L218.52,65.8533678903582L219.12,74.7079411062242L219.72,81.08967657760628L219.9,106.06691241190339L220.08,74.46558000997005L220.14000000000001,86.8418277880866L220.38,75.1669723976444L220.62,82.07042763166375L220.8,46.680470666484474L220.92,60.419292331455L220.98,57.98442263645995L221.1,56.365398187894016L221.45999999999998,55.263796245729004L221.88000000000002,39.07693721990288L222.6,36.397382152917956L222.66,39.56975863745393L222.78,52.274698080841205L223.07999999999998,86.57018548382733L223.44,64.22361570676217L224.22,75.56326164054907L224.28,76.3607528045656L224.52,84.26498607604991L224.57999999999998,93.13880920296477L225.06,87.16067447594142L225.36,89.67504023511016L225.54000000000002,79.14589454530959L226.02,89.96444936871104L226.2,98.68925404715286L226.26,81.05436859230845L226.32,44.837347756032045L226.38,64.50459917199846L227.04,58.78001286871566L227.22,26.695452203079025L227.4,38.63112980706929L227.58,28.973902097841766L227.64000000000001,-28.057313280403207L228,27.15968115502622L228.24,74.05082027539032L228.35999999999999,36.02960660710579L228.6,32.45174204501294L228.72,70.29711877818573L228.78,84.5915461749772L228.95999999999998,60.84314582174655L229.32000000000002,71.28451228991527L229.74,44.322691588731914L230.57999999999998,43.74346927948729L230.82000000000002,20.935909391331286L230.88000000000002,55.15075271182507L231.3,33.76214199574737L231.36,62.521783693504034L231.66,52.43857897750835L231.84,30.661337264968733L232.26,35.49223967110739L232.38,47.2409625751711L232.74,32.750849145825924L232.86,61.63667729984292L232.92000000000002,90.85292181665044L233.04000000000002,69.3713453131577L233.58,74.31138820157415L233.64,73.1431390685199L233.76,63.138779177806356L233.88,50.03042794140676L234.54000000000002,57.823105936482584L234.60000000000002,76.62312455489341L234.84,47.26474590011897L234.9,31.442505067041253L234.96,34.767838350207064L235.68,28.990752620262228L235.79999999999998,38.719835855223145L235.98,43.15314115146249L236.04,71.61086133157885L236.16,54.0842904748659L236.46,61.05754163874034L236.58,76.62654871352215L236.70000000000002,94.43101190690818L237.66,97.4675401876248L237.95999999999998,82.60316236197214L238.01999999999998,70.10244445430794L238.26000000000002,83.5460231329653L238.32000000000002,88.69772672806104L238.8,65.698058868372" style="fill: none;" fill="none"></path></g></g></g></g><g opacity="0.2"><g><g><g><path stroke="rgb(255, 112, 67)" stroke-width="2px" d="M31.86,-101.52008825540547L32.52,160.45030689239505L32.58,213.6614007353783L41.94,201.87032675743106L42.18000000000001,91.26278704404831L42.36,145.4242796301842L42.54,192.15681588649753L42.599999999999994,160.39803153276446L42.72,147.10537290573123L42.84,194.05028110742572L43.32,161.08568197488788L43.5,131.67211478948593L43.86,110.62360739707947L44.040000000000006,155.31666612625125L44.52,147.63334876298907L44.82,97.47305756807327L45,150.85759377479556L45.42,91.82241296768188L45.54,131.37782192230225L45.66,115.42101895809174L46.02,146.355741083622L46.08,149.661063015461L46.38,94.36829155683517L46.56,179.3481922745705L46.62,167.78199201822284L46.98,96.65669685602188L47.1,146.2987709641457L47.519999999999996,75.2369869351387L47.7,43.58106529712675L48.660000000000004,81.59432476758957L48.9,101.37804275751114L49.2,-13.607175886631051L49.379999999999995,12.802694499492626L49.56,133.72493809461594L49.68,67.64698451757431L49.74,122.22056096792221L50.16,116.28147876262665L50.52,131.87151020765305L50.64,27.69737398624418L50.699999999999996,103.63701349496841L50.82,132.90330237150192L51.06,133.25361585617065L51.12,6.500638782978038L51.239999999999995,101.66320985555649L51.3,89.17667841911316L51.480000000000004,157.3615241646767L51.54,68.48075276613235L51.6,147.878214776516L51.66,152.83250516653064L51.9,119.05697858333588L52.08,80.61396396160126L52.199999999999996,65.52621906995773L52.38,127.234669983387L52.62,110.82168406248093L52.92,33.390482425689676L52.98,103.98131346702576L53.099999999999994,21.789467096328714L53.160000000000004,75.49651747941971L53.76,59.49498242139816L53.88,35.841727316379526L53.94,107.19210720062256L54,71.65968543291092L54.120000000000005,150.1678333282471L54.18,-60.99945777654652L54.48,87.05549097061157L55.02,105.32317078113556L55.08,38.81593680381773L55.379999999999995,-45.860993653535886L55.56,74.70732307434082L55.86,72.74739271402359L55.980000000000004,72.12161815166473L56.400000000000006,31.569179356098154L56.699999999999996,-5.13978087902073L56.76,133.50528663396835L56.94,118.95437961816788L57.06,92.12329959869385L57.12,63.87888586521149L57.300000000000004,143.25630283355713L57.36,49.71115565299988L57.42,24.24730575084684L57.48,118.60765314102173L57.9,51.130397379398346L58.019999999999996,25.263642132282236L58.08,83.65532433986664L58.44,80.15841400623322L58.559999999999995,28.825962603092172L58.74,46.45578807592392L58.86,132.63195580244064L59.339999999999996,85.42556530237198L59.64,33.315946519374826L59.82,118.50605642795563L59.94,60.56333041191101L60.18,72.44207507371902L60.3,48.455861270427704L60.419999999999995,17.311035454273203L60.480000000000004,45.973915815353394L60.66,-17.213542699813882L60.839999999999996,50.16390985250473L60.900000000000006,101.91398388147354L61.02,3.3151123523711963L61.62,23.902742028236368L61.86,32.527912616729715L62.16,-7.481674790382424L62.58,37.25601053237913L62.699999999999996,56.417699217796326L63.059999999999995,41.28991699218748L63.300000000000004,78.14330703020096L63.84,86.04870235919952L63.96,46.50326317548752L64.02,141.83542585372925L64.62,82.76933348178864L64.8,56.18654823303223L65.04,39.977968990802744L65.16,21.849338471889475L65.34,5.233317375183086L65.52,60.29098159074783L65.58,77.69002532958984L65.7,15.814884066581707L65.76,103.01883494853973L65.88,55.95049148797989L66.11999999999999,31.49316644668577L66.18,27.01974606513975L66.24,52.012959480285645L66.3,60.044585824012756L66.60000000000001,112.15372985601425L66.66,5.626358449459056L66.72,-5.9023364782333765L67.26,90.52702850103378L67.56,12.292284429073314L67.67999999999999,-33.68571424484257L67.8,64.11874061822891L67.86,73.45619595050812L67.91999999999999,73.93041944503784L68.04,20.897673726081827L68.22,71.8642503619194L68.58,-39.06329789757733L68.64,32.51192933320997L68.82,63.04385161399841L68.94000000000001,38.55477100610731L69.53999999999999,87.49621814489365L69.6,70.15883928537369L69.72,14.367737531661968L69.77999999999999,64.33422482013702L70.02000000000001,99.37976306676865L70.26,106.93020290136337L70.61999999999999,-0.7409491539001858L70.92,59.2610884308815L71.22,-20.98939561843876L71.28,35.14795786142347L71.34,83.09121465682983L71.39999999999999,33.512335181236246L71.58,-42.91640335321431L71.64,64.91400128602982L72.06,-43.97828945517544L72.24,95.30286526679993L72.96,-5.728841364383737L73.08,59.75118970870972L73.32,-15.977080106735269L73.86,50.57219570875168L74.22,100.7345969080925L74.27999999999999,8.567388117313365L74.82,49.99516224861145L75.11999999999999,126.67193180322647L75.17999999999999,120.84805583953857L75.24,-30.160450726747552L75.48,6.731578767299633L75.78,-2.3018776774406824L76.2,105.12799537181854L76.26,124.00910621881485L76.38000000000001,90.79853332042694L76.56,29.30588310956953L76.8,-18.32361602783207L76.97999999999999,35.73116308450697L77.03999999999999,29.78685861825941L77.28,72.49007767438889L77.52,79.88253092765808L77.64,25.687120020389536L77.7,41.8224821090698L77.75999999999999,57.61175072193146L77.88,79.14497888088226L78.12,-20.039049625396768L78.18,1.9387564659118457L78.53999999999999,11.076710879802684L78.66,69.20063352584839L78.72,120.83291655778885L78.78,41.92872083187101L79.08,91.0982066988945L79.14,85.83142465353012L79.61999999999999,44.64909678697586L80.28,85.67818558216095L80.58,-17.897869884967843L80.64,-10.266880631446877L81.06,105.75909769535065L81.42,30.675170481204965L81.53999999999999,48.92723625898361L81.78,48.750206887722015L81.84,11.411779582500438L82.02,85.58028137683868L82.14,79.29304844141006L82.44,56.030777156353L82.92,48.62313187122345L83.16,23.913133800029733L83.33999999999999,130.91657495498657L83.52000000000001,0.4299450516700548L83.82000000000001,84.26363861560822L84.11999999999999,9.813820481300334L84.17999999999999,56.040694177150726L84.24,-2.3485615253448877L84.54,-50.02877989411358L84.78,84.58346253633499L84.84,177.74390316009524L85.08,104.36480677127838L85.38000000000001,54.76182049512863L85.74,3.8087478876113696L85.86,31.55050581693647L85.97999999999999,0.4861766695976061L86.22000000000001,81.58219224214554L86.4,16.435594618320444L86.7,-21.9569381475449L87.24000000000001,140.16298359632492L87.3,44.89897406101227L87.36,44.862998485565186L87.72,1.6536421179771228L88.08000000000001,13.157333493232708L88.32000000000001,46.92821806669235L88.38,35.422047436237314L88.44,96.219187438488L88.5,55.61167752742767L88.56,110.13171261548996L88.74,115.37032610177994L89.04,-2.8081732392311487L89.16,26.046295523643472L89.22,9.4741625189781L89.46,49.786430060863495L89.69999999999999,52.14198625087738L89.75999999999999,32.65182262659071L89.82,102.27115488052368L89.94000000000001,28.368935644626596L90,46.69965183734894L90.06,65.63894605636597L90.18,50.431563913822174L90.3,25.01766836643217L90.42,77.07770204544067L90.48,61.91399699449539L90.78,81.22512674331665L90.9,69.54118824005127L91.02,67.73977196216583L91.44,68.18667089939117L91.98,64.97656291723251L92.39999999999999,10.101361334323864L92.46,51.51631718873978L92.64,-32.112653195858044L92.7,83.20953315496445L92.76,23.8414463996887L92.88,54.42152953147888L93,66.98053961992264L93.24,16.417448580265024L93.3,67.35422140359879L93.66000000000001,32.51377558708189L93.9,4.309293687343578L94.02,95.9107575416565L94.2,80.18547481298447L94.38,20.214718043804147L94.56,74.64666044712067L94.68,38.10243880748747L94.92,-0.40503644943241235L94.98,66.69927603006363L95.4,78.18228936195374L95.58,29.415497839450815L95.64,91.60756176710129L96,40.655174911022165L96.11999999999999,110.04209017753601L96.17999999999999,47.70496344566345L96.42,-6.729985713958779L96.48,122.84306502342224L96.66,81.33331722021103L96.84,42.152697801589945L96.96,27.59899502992628L97.02,55.57707345485687L97.13999999999999,117.42088115215302L97.32000000000001,112.32880747318268L97.5,122.6923052072525L97.56,100.36513513326645L97.8,20.884169697761514L97.86,36.45051634311674L97.97999999999999,45.439187943935394L98.28,-0.5378084778786099L98.4,17.610814332962015L98.46,39.44941288232801L98.52,49.25739920139313L99,45.36692029237747L99.06,107.6756147146225L99.12,9.820150494575481L99.3,114.4858649969101L99.78,36.69005459547041L99.9,82.30692601203918L100.61999999999999,41.714555382728555L100.67999999999999,68.88144260644913L100.80000000000001,99.13537180423737L100.92,79.07613998651505L101.10000000000001,-1.858354747295419L101.16,-10.165705919265786L101.28,44.76330077648163L101.46,33.45879381895063L102.66000000000001,139.8143053650856L103.02,114.13101500272751L103.08,10.179167747497539L103.2,93.44062811136246L103.44,80.81146037578583L103.56,-26.99950584769253L103.68,93.4962267279625L103.86,54.022844195365906L104.16,24.528885841369608L104.28,175.8584032058716L104.33999999999999,60.2613360285759L104.39999999999999,72.08421832323074L104.52000000000001,155.8331952095032L104.94,47.0124072432518L105.06,18.15872973203657L105.78,61.05195468664169L105.96,-5.9202715158462915L106.14,-40.54022186994557L106.19999999999999,16.796563625335672L106.32000000000001,46.49250215291977L106.44,117.24701678752899L106.56,118.73398965597153L106.8,55.92606818675995L106.92,79.46823155879974L107.03999999999999,38.66765624284742L107.22000000000001,133.02483862638474L107.34,31.285225510597208L107.64,119.12370747327805L107.82,86.47207474708557L108.12,17.33561700582502L108.18,122.71103149652481L108.3,-34.1687997579575L108.48,24.10746520757673L108.89999999999999,22.334059238433817L109.02000000000001,48.21932977437973L109.08000000000001,143.7457183599472L109.2,52.012959480285645L109.26,-42.41356292366986L109.44,16.396612286567667L109.56,142.16168528795242L109.86,91.75758308172226L109.98,52.922160387039185L110.04,88.59468644857407L110.16,43.75039315223692L110.22,106.81367790699005L110.28,5.919754564762096L110.75999999999999,51.09669005870819L111,62.15691125392914L111.3,10.358465373516063L111.36,63.410781383514404L111.72,37.63232982158659L111.84,125.02538985013962L111.96000000000001,65.59083795547485L112.02,56.59625834226608L112.14,109.49290877580643L112.74000000000001,-48.36153352260594L112.80000000000001,114.86144578456879L112.92,-11.180829048156777L113.28,14.791531920433025L113.34,71.07189095020294L113.64,109.55547040700912L113.7,9.543317914009075L113.88,2.895854473113994L114,55.331679940223694L114.12,122.32743269205093L114.24,139.79083156585693L114.41999999999999,116.68733811378479L114.47999999999999,-52.372599184513135L114.60000000000001,38.76482194662092L114.84,-29.518455505371133L115.02,55.26880180835724L115.08,94.13191831111908L115.2,69.91914278268814L115.32,51.65125197172165L115.62,89.69906276464462L116.16,37.92947119474409L116.4,39.22860091924665L116.52000000000001,49.518459498882294L116.82,25.7093805670738L116.88,-8.03850495815281L117.06,-2.324296474456826L117.36,46.203220546245575L117.48,-4.513848066329995L117.78,100.74319517612457L118.02,103.68369734287262L118.26,155.9345809221268L118.32000000000001,40.82107400894163L118.44,15.600191116332988L118.56,148.33809024095538L118.74,109.24113249778748L118.8,-38.941128641367L118.92,25.149649143218973L118.97999999999999,58.5827220082283L119.03999999999999,-24.57379201054577L119.10000000000001,-52.30626592040066L119.22,83.65933334827423L119.52,45.25909906625748L119.7,120.05474692583084L119.88,7.278966665267925L120.06,8.679060101509075L120.24000000000001,7.098508536815624L120.6,78.37034350633621L120.66,12.758226156234722L121.14,27.401867866516092L121.32,83.06104159355164L121.44,84.0968427658081L121.56,84.40943992137909L121.80000000000001,50.87324059009552L121.98,31.878453254699686L122.28,123.55830377340317L122.39999999999999,-1.3286908864975369L122.46,97.53377294540405L122.94,56.976164638996124L123.12,128.90558248758316L123.3,55.23973649740219L123.36,60.1352105140686L123.47999999999999,121.78669130802155L123.72,101.53112357854843L124.2,149.73053491115573L124.38,69.21730256080627L124.44,83.05676883459091L124.56,177.79765552282336L124.68,144.78906279802325L124.8,93.50260949134827L125.1,-10.953634321689645L125.16,63.647787630558014L125.22,43.40625143051145L125.39999999999999,30.798816740512827L125.52000000000001,58.578765749931335L125.58,56.10536581277847L125.7,33.67575502395628L125.88,45.8693123459816L126,97.3176029920578L126.78,83.06272959709167L126.89999999999999,134.27280074357986L127.32000000000001,102.03314638137817L127.38000000000001,18.017992436885812L127.86,78.54884988069534L127.97999999999999,48.638534903526306L128.28,142.85666799545288L128.51999999999998,56.67232400178909L128.57999999999998,97.7885559797287L128.64000000000001,78.92928367853165L128.70000000000002,73.04532533884048L128.76,115.31335598230362L129,3.928068637847881L129.24,52.44951939582825L129.42,39.454951643943765L129.96,74.07379424571991L130.02,46.81823408603668L130.08,-2.498741090297738L130.2,88.7130576968193L130.38,85.33372735977173L130.56,79.73963087797165L130.62,16.156124532222726L130.92,69.07540476322174L130.98,17.333507001399973L131.04,71.45137524604797L131.1,91.76132833957672L131.16,37.56349092721937L131.22,50.119019508361816L131.34,67.228728890419L131.4,-76.63688519597058L131.64000000000001,74.71702909469604L132,162.63410872220996L132.84,13.871411740779857L133.01999999999998,94.34497600793839L133.14,1.3096586465835376L133.26000000000002,40.00123178958891L133.62,84.08038473129272L133.74,146.56911528110507L133.8,72.9673079252243L133.85999999999999,35.75136637687681L133.92,9.104911744594554L133.98,7.260451376438121L134.22,69.53596597909927L134.46,30.333771765232065L134.52,126.21458834409714L134.82,101.20692139863968L135.12,17.36004030704496L135.48,142.62367075681686L135.66,144.3000692725182L135.72,72.05346500873566L136.20000000000002,-32.72969761490826L136.26000000000002,50.600311517715454L136.32000000000002,115.89787995815277L136.62,-0.23845160007480737L137.51999999999998,76.75492411851883L137.7,89.09961050748825L137.94,48.36059457063675L138.06,99.62948209047318L138.18,76.33788174390793L138.3,40.72981631755827L138.42000000000002,74.90872299671173L138.48,96.58680295944214L138.6,138.06716895103455L139.38,106.79890787601471L139.44,-3.3511301279068384L139.5,67.83561891317368L139.55999999999997,62.777463555336L139.68,71.43618321418762L139.86,76.77623516321182L139.92000000000002,126.44410407543182L139.98000000000002,11.018949508666973L140.28,19.5925832390785L140.34,45.664747416973114L140.46,-18.758065938949624L140.52,124.85221123695374L140.58,75.0068382024765L140.76,-20.51833713054661L140.82,7.349071562290172L141,81.32893896102905L141.72,100.9430125951767L141.84,-6.323282361030618L141.9,72.51370972394943L142.02,76.15642136335373L142.08,82.68772906064987L142.14000000000001,91.97528278827667L142.26,113.5483900308609L143.58,134.1716787815094L143.94,61.33801853656769L144.48,56.43283849954605L144.54,131.1274698972702L144.6,70.19370710849762L144.83999999999997,4.049552142620067L144.89999999999998,86.88283985853195L145.01999999999998,179.07452470064166L145.68,69.39575618505478L145.8,58.74060308933258L146.1,61.607571601867676L146.16,75.23540443181992L146.28,27.43441468477247L146.4,60.11236971616745L146.7,30.38673287630079L146.82,10.793390035629253L147.12,49.93460512161255L147.18,106.4959112405777L147.36,84.06751370429993L147.66,78.85179376602173L147.72,-39.699675232172055L147.9,83.5814214348793L148.07999999999998,21.369048714637735L148.14,58.28974789381027L148.26,92.52325093746185L148.38,71.18920719623566L148.61999999999998,26.809484124183633L148.86,48.833393812179565L148.98000000000002,-14.826969444751779L149.4,111.81834465265274L149.46,45.5528644323349L149.7,87.80791854858398L150.17999999999998,34.26254725456236L150.35999999999999,69.01136612892151L151.26,64.48187237977982L151.38,21.309863090515115L151.56,64.33976358175278L151.62,-11.263224720954934L151.79999999999998,134.45790088176727L152.4,57.048326790332794L152.94,95.87087845802307L153.06,93.92023211717606L153.3,154.40799272060397L153.72,-9.190250873565713L154.20000000000002,-79.0184735655785L154.44,0.31278705596921863L154.5,30.717317819595316L154.74,91.94352722167969L155.57999999999998,71.46756953001022L155.76,48.88593292236328L155.94,40.46147650480268L156.24,160.6825656294823L156.42000000000002,117.42504841089249L156.78,117.75837635993958L156.9,15.534253478050212L156.96,69.74517291784286L157.38,62.246691942214966L157.5,108.57083684206009L157.67999999999998,37.570823192596414L157.86,51.03444492816925L158.28,-9.116506218910256L158.34,19.351198732852914L158.4,70.34235692024231L158.76,9.275611102581005L159.18,68.19062715768814L159.35999999999999,64.31628978252411L159.54,58.89537191390991L159.72,52.94758594036102L159.9,33.510963678359964L160.08,64.30531775951385L160.14000000000001,40.277906119823434L160.20000000000002,-1.4965944886207974L160.74,46.277598202228546L161.1,109.10092270374298L161.22,158.2362792491913L161.33999999999997,41.05649775266645L161.58,63.555633187294006L161.76000000000002,87.12702012062073L161.82000000000002,168.4134108424187L161.88,-0.021543145179787837L162.24,106.52560955286026L162.3,59.644423484802246L162.36,118.23966836929321L162.6,19.994117081165292L162.78,191.6455618143082L162.9,-27.668509125709573L163.56,67.10698163509369L163.68,-46.392582893371625L163.8,199.38664054870608L163.86,84.24074506759644L163.92000000000002,10.554801285266857L164.1,49.798562586307526L164.16,63.67231643199921L164.57999999999998,45.55581843852997L164.76,154.17262172698977L165.36,-42.34733515977864L165.9,89.61112833023071L166.26,12.653358936309795L166.5,130.67091768980026L166.85999999999999,113.07495778799057L166.98000000000002,42.92738592624662L167.04000000000002,54.19570630788803L167.28,1.0061872601508899L167.58,59.61293166875839L167.64000000000001,31.634061992168405L168.12,0.20169532299039783L168.23999999999998,44.31640183925629L168.48,79.81363928318024L169.02,60.294568598270416L169.26000000000002,4.479096293449382L169.38,88.47188419103622L169.44,62.34338289499283L169.5,164.49471062421802L169.56,84.13825160264969L170.45999999999998,-1.4441081285477078L171,79.07144522666931L171.06,82.96108013391495L171.18,58.92195796966553L171.36,-6.101837396621743L171.66,78.9173094034195L171.72,34.90536010265348L171.84,134.26873898506165L172.01999999999998,-2.22961002588276L172.14,43.73440986871717L172.2,48.314438223838806L172.56,74.93356829881668L172.74,47.7295977473259L172.8,92.47371858358383L172.92000000000002,15.437615275382976L172.98000000000002,69.31536501646042L173.04,50.22826498746872L173.28,108.9915189743042L173.46,86.77580988407135L173.52,105.83157634735107L173.57999999999998,32.06191813945768L173.64,51.71281135082245L173.7,23.139289677143076L173.88,86.74890732765198L173.94,88.23751544952393L174,2.0792300105094714L174.06,18.44933009147642L174.24,46.69427132606506L174.3,121.69390386343002L174.36,12.095051765441875L174.72,-3.1432419419289026L175.5,134.68140310049057L175.85999999999999,38.8903144598007L176.10000000000002,56.55500775575638L176.16000000000003,84.20825099945068L176.28,47.35712921619415L176.58,16.5115547776222L176.94,103.01466768980026L177,86.89455038309097L177.24,50.985387325286865L177.29999999999998,185.33031857013705L177.42,38.85054087638853L177.48,34.73608499765394L178.20000000000002,72.15601122379303L178.56,56.423132479190826L178.74,42.64881259202955L178.8,111.95902919769287L179.45999999999998,76.41442215442657L180,112.17504090070724L180.06,63.51575410366058L180.18,86.69921672344208L180.48,88.3133173584938L180.54,85.58808839321136L180.6,28.825065851211527L180.66,40.016476571559885L180.78,70.56828564405441L181.68,3.886976301670055L181.86,63.146819829940796L181.92000000000002,72.82314187288284L182.1,143.5797137618065L182.28,8.385663986206035L182.4,61.56494951248169L182.46,33.35888510942457L182.64,-47.24705556035046L183.36,-4.408558845520059L183.42000000000002,17.668892204761484L183.48000000000002,18.943598628044107L183.9,23.34691411256788L184.08,95.13327366113663L184.98,39.17869931459425L185.16000000000003,92.19176924228668L185.34,102.11459255218506L185.52,61.21458327770233L185.76,-4.83145648241047L185.82,62.075148582458496L185.88,102.63402289152145L186,89.42834919691086L186.06,63.401972115039825L186.6,101.14989852905273L187.26000000000002,140.4721519947052L187.32000000000002,20.887229204177835L187.44,-31.976241409778634L187.5,-9.432479381561318L187.56,115.57446902990341L187.62,92.59894734621048L187.68,80.47734117507935L187.92,143.6147398352623L187.98,160.9652007222176L188.34,112.74774885177612L188.76,89.62695336341858L189.48,87.75527393817902L190.2,1.4649549722671313L190.26,32.589471995830515L190.32,49.011372685432434L190.38,181.41641861200335L190.55999999999997,65.27892655134201L190.74,19.47157448530195L190.86,72.92109882831573L191.1,89.75481963157654L191.52,22.80896848440168L191.76,19.624444305896738L191.88,7.602219343185405L192.29999999999998,74.41150045394897L192.35999999999999,129.67309659719467L192.42,58.30420142412186L192.60000000000002,26.254130959510782L192.78,92.21376603841782L193.2,61.40332317352295L193.32,108.6493290066719L193.44,78.57601618766785L193.62,74.12670260667801L193.79999999999998,107.94152802228928L194.27999999999997,115.8482421040535L194.34,-8.974608421325723L194.4,99.96312654018402L194.52,23.060586512088754L194.58,165.28242802619937L195,124.78970235586166L195.42,79.40018391609192L195.54,119.71614396572113L195.6,132.79252713918686L195.66,11.698845684528331L195.72,80.04521226882935L195.78,16.922267138957956L196.14000000000001,155.7780713438988L196.20000000000002,50.72068727016449L196.26000000000002,85.60866093635559L197.88,97.70663505792618L197.94000000000003,-21.984368205070535L198.06,56.58829307556152L198.24,79.45894753932953L198.6,50.0059232711792L198.66,-19.058741569519082L198.72,46.28002470731735L198.78,44.540589809417725L199.2,29.492776751518228L199.44,127.33368194103241L199.56,9.412919640541057L199.73999999999998,50.56586569547653L200.16,77.76609098911285L200.34,48.259736359119415L200.88,55.31511640548706L201.23999999999998,16.733738243579843L201.29999999999998,24.700640201568582L201.42,53.06400543451309L201.60000000000002,134.84128868579865L202.20000000000002,96.63522756099701L202.38,60.426074624061584L202.44,150.56250965595248L202.68,125.20632272958755L202.92,133.91425824165344L202.98,52.657776832580566L203.04,119.24455797672272L203.16,112.39759361743927L203.28,86.16343384981155L203.52,76.01747757196426L203.64000000000001,40.41088914871214L203.94,103.26449221372604L204,84.66068869829178L204.24,33.05609947443006L204.42,23.271639704704263L204.6,126.71861565113068L205.01999999999998,97.20002299547195L205.14,112.83246552944183L205.98,79.55537474155426L206.04,68.11345374584198L206.16,-64.68798288702969L206.22,167.71985238790515L206.57999999999998,52.6127809882164L206.76,36.13153642415998L207.12,160.32312637567523L207.3,-2.6140528321266565L207.42000000000002,53.62257635593414L207.6,88.2720667719841L207.9,78.83296197652817L208.14,62.42282456159592L208.2,28.246080636978128L208.32,50.501616060733795L208.5,38.032122910022714L208.56,103.41240352392197L208.61999999999998,-29.383626222610513L208.73999999999998,46.86681693792343L208.85999999999999,99.54687541723251L209.34,63.1079957485199L209.4,52.03284627199173L209.46,81.10322123765945L209.52,-6.8808510303497705L209.64000000000001,-23.732796996831933L210.35999999999999,61.31565248966217L210.54,83.38519102334976L210.72000000000003,125.5083698630333L210.96,135.55552518367767L211.02,73.29852586984634L211.14000000000001,136.21775007247925L211.20000000000002,70.75850254297256L211.38,19.060756623744943L211.56,40.83405053615568L211.74,-28.80044737458233L211.98,100.42827701568604L212.16,128.30227947235107L212.28,51.447109043598175L212.58,19.069249391555765L212.76000000000002,14.142230808734874L213.18,127.19959115982056L213.3,85.03468698263168L213.48,96.57794094085693L213.6,65.39423829317093L213.66,53.01046407222748L213.9,25.220281541347482L214.01999999999998,66.39427489042282L214.07999999999998,45.28863912820816L214.38000000000002,58.092198729515076L214.5,39.88602554798124L214.62,55.09071743488312L214.92000000000002,86.34536898136139L215.04,60.225360453128815L215.22,77.26290768384933L215.28,53.90515869855881L215.52,149.52676123380664L215.76,4.547038435935955L216.05999999999997,130.87099885940552L216.11999999999998,73.39068031311035L216.66,86.49776405096054L217.44,24.168813586235025L217.56,-10.902255713939706L217.62,124.8368609547615L218.16000000000003,-13.25839215517048L218.46,42.35863423347471L218.52,106.75153827667236L219.12,87.9898009300232L219.72,90.66227978467941L219.9,143.53276616334915L220.08,27.06358140707014L220.14000000000001,105.40619945526123L220.38,57.6546893119812L220.62,92.42561048269272L220.8,-6.404464781284371L220.92,81.02752482891083L220.98,54.33211809396744L221.1,53.936861515045166L221.45999999999998,53.611393332481384L221.88000000000002,14.796648681163768L222.6,32.37804955244062L222.66,44.32832336425781L222.78,71.33210724592209L223.07999999999998,138.01341658830643L223.44,30.703761041164377L224.22,92.57273054122925L224.28,77.55698955059052L224.52,96.12133598327637L224.57999999999998,106.44954389333725L225.06,78.1934723854065L225.36,93.44658887386322L225.54000000000002,63.35217601060867L226.02,106.19228160381317L226.2,111.77646106481552L226.26,54.60204041004181L226.32,-9.488183498382607L226.38,94.00547629594803L227.04,50.19313341379166L227.22,-21.431388795375863L227.4,56.53464621305466L227.58,14.488060534000377L227.64000000000001,-113.60413634777073L228,109.98517280817032L228.24,144.38752895593646L228.35999999999999,-21.00221389532093L228.6,27.084945201873758L228.72,127.06518387794495L228.78,106.03318727016449L228.95999999999998,25.220545291900613L229.32000000000002,86.94656199216843L229.74,3.8799605369567676L230.57999999999998,42.8746358156204L230.82000000000002,-13.275430440902749L230.88000000000002,106.47301769256592L231.3,1.6792259216308398L231.36,105.66124624013901L231.66,37.31377190351484L231.84,-2.0045253038406763L232.26,42.73859328031538L232.38,64.86404693126678L232.74,11.015679001808147L232.86,104.96541953086853L232.92000000000002,134.67728859186172L233.04000000000002,37.14898055791853L233.58,81.72145253419876L233.64,71.39076536893845L233.76,48.13223934173584L233.88,30.36790108680723L234.54000000000002,69.51212292909622L234.60000000000002,104.82315248250961L234.84,3.2271779179572864L234.9,7.709143817424755L234.96,39.75583827495573L235.68,20.325124025344827L235.79999999999998,53.31346070766449L235.98,49.80309909582138L236.04,114.29744160175323L236.16,27.794434189796426L236.46,71.517418384552L236.58,99.98005932569504L236.70000000000002,121.13770669698715L237.66,102.0223326086998L237.95999999999998,60.306595623493195L238.01999999999998,51.351367592811584L238.26000000000002,103.71139115095139L238.32000000000002,96.42528212070465L238.8,31.198557078838327" style="fill: none;" fill="none"></path></g></g></g></g></g></g><g transform="translate(60, 177)" clip-path="url(#clip_1)"><clipPath id="clip_1"><rect width="270" height="23"></rect></clipPath><g><g><line x1="0" y1="0" x2="0" y2="5" style="visibility: inherit;" fill="rgb(0, 0, 0)" stroke="rgb(204, 204, 204)" stroke-width="1px"></line><line x1="30" y1="0" x2="30" y2="5" style="visibility: inherit;" fill="rgb(0, 0, 0)" stroke="rgb(204, 204, 204)" stroke-width="1px"></line><line x1="60" y1="0" x2="60" y2="5" style="visibility: inherit;" fill="rgb(0, 0, 0)" stroke="rgb(204, 204, 204)" stroke-width="1px"></line><line x1="90" y1="0" x2="90" y2="5" style="visibility: inherit;" fill="rgb(0, 0, 0)" stroke="rgb(204, 204, 204)" stroke-width="1px"></line><line x1="120" y1="0" x2="120" y2="5" style="visibility: inherit;" fill="rgb(0, 0, 0)" stroke="rgb(204, 204, 204)" stroke-width="1px"></line><line x1="150" y1="0" x2="150" y2="5" style="visibility: inherit;" fill="rgb(0, 0, 0)" stroke="rgb(204, 204, 204)" stroke-width="1px"></line><line x1="180" y1="0" x2="180" y2="5" style="visibility: inherit;" fill="rgb(0, 0, 0)" stroke="rgb(204, 204, 204)" stroke-width="1px"></line><line x1="210" y1="0" x2="210" y2="5" style="visibility: inherit;" fill="rgb(0, 0, 0)" stroke="rgb(204, 204, 204)" stroke-width="1px"></line><line x1="240" y1="0" x2="240" y2="5" style="visibility: inherit;" fill="rgb(0, 0, 0)" stroke="rgb(204, 204, 204)" stroke-width="1px"></line><line x1="270" y1="0" x2="270" y2="5" style="visibility: inherit;" fill="rgb(0, 0, 0)" stroke="rgb(204, 204, 204)" stroke-width="1px"></line></g><g transform="translate(0, 8)"><text x="0" y="0" dx="0em" dy="0.95em" style="text-anchor: middle; visibility: hidden; font-family: Roboto, sans-serif; font-size: 12px; font-weight: 200;" fill="rgb(33, 33, 33)" stroke="none" stroke-width="1px">-500</text><text x="30" y="0" dx="0em" dy="0.95em" style="text-anchor: middle; visibility: inherit; font-family: Roboto, sans-serif; font-size: 12px; font-weight: 200;" fill="rgb(33, 33, 33)" stroke="none" stroke-width="1px">0</text><text x="60" y="0" dx="0em" dy="0.95em" style="text-anchor: middle; visibility: inherit; font-family: Roboto, sans-serif; font-size: 12px; font-weight: 200;" fill="rgb(33, 33, 33)" stroke="none" stroke-width="1px">500</text><text x="90" y="0" dx="0em" dy="0.95em" style="text-anchor: middle; visibility: inherit; font-family: Roboto, sans-serif; font-size: 12px; font-weight: 200;" fill="rgb(33, 33, 33)" stroke="none" stroke-width="1px">1k</text><text x="120" y="0" dx="0em" dy="0.95em" style="text-anchor: middle; visibility: inherit; font-family: Roboto, sans-serif; font-size: 12px; font-weight: 200;" fill="rgb(33, 33, 33)" stroke="none" stroke-width="1px">1.5k</text><text x="150" y="0" dx="0em" dy="0.95em" style="text-anchor: middle; visibility: inherit; font-family: Roboto, sans-serif; font-size: 12px; font-weight: 200;" fill="rgb(33, 33, 33)" stroke="none" stroke-width="1px">2k</text><text x="180" y="0" dx="0em" dy="0.95em" style="text-anchor: middle; visibility: inherit; font-family: Roboto, sans-serif; font-size: 12px; font-weight: 200;" fill="rgb(33, 33, 33)" stroke="none" stroke-width="1px">2.5k</text><text x="210" y="0" dx="0em" dy="0.95em" style="text-anchor: middle; visibility: inherit; font-family: Roboto, sans-serif; font-size: 12px; font-weight: 200;" fill="rgb(33, 33, 33)" stroke="none" stroke-width="1px">3k</text><text x="240" y="0" dx="0em" dy="0.95em" style="text-anchor: middle; visibility: inherit; font-family: Roboto, sans-serif; font-size: 12px; font-weight: 200;" fill="rgb(33, 33, 33)" stroke="none" stroke-width="1px">3.5k</text><text x="270" y="0" dx="0em" dy="0.95em" style="text-anchor: middle; visibility: hidden; font-family: Roboto, sans-serif; font-size: 12px; font-weight: 200;" fill="rgb(33, 33, 33)" stroke="none" stroke-width="1px">4k</text></g><line x1="0" y1="0" x2="270" y2="0" fill="rgb(0, 0, 0)" stroke="rgb(204, 204, 204)" stroke-width="1px"></line></g></g></g></g></svg>