<svg viewBox="0 0 330 200" xmlns="http://www.w3.org/2000/svg"><g><g><g><g><g><line x1="60" y1="177" x2="55" y2="177" style="visibility: inherit;" fill="rgb(0, 0, 0)" stroke="rgb(204, 204, 204)" stroke-width="1px"></line><line x1="60" y1="160.90909090909088" x2="55" y2="160.90909090909088" style="visibility: inherit;" fill="rgb(0, 0, 0)" stroke="rgb(204, 204, 204)" stroke-width="1px"></line><line x1="60" y1="144.81818181818178" x2="55" y2="144.81818181818178" style="visibility: inherit;" fill="rgb(0, 0, 0)" stroke="rgb(204, 204, 204)" stroke-width="1px"></line><line x1="60" y1="128.7272727272727" x2="55" y2="128.7272727272727" style="visibility: inherit;" fill="rgb(0, 0, 0)" stroke="rgb(204, 204, 204)" stroke-width="1px"></line><line x1="60" y1="112.63636363636364" x2="55" y2="112.63636363636364" style="visibility: inherit;" fill="rgb(0, 0, 0)" stroke="rgb(204, 204, 204)" stroke-width="1px"></line><line x1="60" y1="96.54545454545453" x2="55" y2="96.54545454545453" style="visibility: inherit;" fill="rgb(0, 0, 0)" stroke="rgb(204, 204, 204)" stroke-width="1px"></line><line x1="60" y1="80.45454545454542" x2="55" y2="80.45454545454542" style="visibility: inherit;" fill="rgb(0, 0, 0)" stroke="rgb(204, 204, 204)" stroke-width="1px"></line><line x1="60" y1="64.3636363636363" x2="55" y2="64.3636363636363" style="visibility: inherit;" fill="rgb(0, 0, 0)" stroke="rgb(204, 204, 204)" stroke-width="1px"></line><line x1="60" y1="48.27272727272721" x2="55" y2="48.27272727272721" style="visibility: inherit;" fill="rgb(0, 0, 0)" stroke="rgb(204, 204, 204)" stroke-width="1px"></line><line x1="60" y1="32.181818181818095" x2="55" y2="32.181818181818095" style="visibility: inherit;" fill="rgb(0, 0, 0)" stroke="rgb(204, 204, 204)" stroke-width="1px"></line><line x1="60" y1="16.090909090909115" x2="55" y2="16.090909090909115" style="visibility: inherit;" fill="rgb(0, 0, 0)" stroke="rgb(204, 204, 204)" stroke-width="1px"></line><line x1="60" y1="0" x2="55" y2="0" style="visibility: inherit;" fill="rgb(0, 0, 0)" stroke="rgb(204, 204, 204)" stroke-width="1px"></line></g><g transform="translate(50, 0)"><text x="0" y="177" dx="0em" dy="0.3em" style="text-anchor: end; visibility: hidden; font-family: Roboto, sans-serif; font-size: 12px; font-weight: 200;" fill="rgb(33, 33, 33)" stroke="none" stroke-width="1px">0.052</text><text x="0" y="160.90909090909088" dx="0em" dy="0.3em" style="text-anchor: end; visibility: inherit; font-family: Roboto, sans-serif; font-size: 12px; font-weight: 200;" fill="rgb(33, 33, 33)" stroke="none" stroke-width="1px">0.054</text><text x="0" y="144.81818181818178" dx="0em" dy="0.3em" style="text-anchor: end; visibility: hidden; font-family: Roboto, sans-serif; font-size: 12px; font-weight: 200;" fill="rgb(33, 33, 33)" stroke="none" stroke-width="1px">0.056</text><text x="0" y="128.7272727272727" dx="0em" dy="0.3em" style="text-anchor: end; visibility: inherit; font-family: Roboto, sans-serif; font-size: 12px; font-weight: 200;" fill="rgb(33, 33, 33)" stroke="none" stroke-width="1px">0.058</text><text x="0" y="112.63636363636364" dx="0em" dy="0.3em" style="text-anchor: end; visibility: hidden; font-family: Roboto, sans-serif; font-size: 12px; font-weight: 200;" fill="rgb(33, 33, 33)" stroke="none" stroke-width="1px">0.06</text><text x="0" y="96.54545454545453" dx="0em" dy="0.3em" style="text-anchor: end; visibility: inherit; font-family: Roboto, sans-serif; font-size: 12px; font-weight: 200;" fill="rgb(33, 33, 33)" stroke="none" stroke-width="1px">0.062</text><text x="0" y="80.45454545454542" dx="0em" dy="0.3em" style="text-anchor: end; visibility: hidden; font-family: Roboto, sans-serif; font-size: 12px; font-weight: 200;" fill="rgb(33, 33, 33)" stroke="none" stroke-width="1px">0.064</text><text x="0" y="64.3636363636363" dx="0em" dy="0.3em" style="text-anchor: end; visibility: inherit; font-family: Roboto, sans-serif; font-size: 12px; font-weight: 200;" fill="rgb(33, 33, 33)" stroke="none" stroke-width="1px">0.066</text><text x="0" y="48.27272727272721" dx="0em" dy="0.3em" style="text-anchor: end; visibility: hidden; font-family: Roboto, sans-serif; font-size: 12px; font-weight: 200;" fill="rgb(33, 33, 33)" stroke="none" stroke-width="1px">0.068</text><text x="0" y="32.181818181818095" dx="0em" dy="0.3em" style="text-anchor: end; visibility: inherit; font-family: Roboto, sans-serif; font-size: 12px; font-weight: 200;" fill="rgb(33, 33, 33)" stroke="none" stroke-width="1px">0.07</text><text x="0" y="16.090909090909115" dx="0em" dy="0.3em" style="text-anchor: end; visibility: hidden; font-family: Roboto, sans-serif; font-size: 12px; font-weight: 200;" fill="rgb(33, 33, 33)" stroke="none" stroke-width="1px">0.072</text><text x="0" y="0" dx="0em" dy="0.3em" style="text-anchor: end; visibility: hidden; font-family: Roboto, sans-serif; font-size: 12px; font-weight: 200;" fill="rgb(33, 33, 33)" stroke="none" stroke-width="1px">0.074</text></g><line x1="60" y1="0" x2="60" y2="177" fill="rgb(0, 0, 0)" stroke="rgb(204, 204, 204)" stroke-width="1px"></line></g></g><g transform="translate(60, 0)" clip-path="url(#clip_0)"><clipPath id="clip_0"><rect width="270" height="177"></rect></clipPath><g><g><g><line x1="0" y1="0" x2="0" y2="177" fill="rgb(0, 0, 0)" stroke="rgb(66, 66, 66)" stroke-width="1px" opacity="0.25"></line><line x1="30" y1="0" x2="30" y2="177" fill="rgb(0, 0, 0)" stroke="rgb(66, 66, 66)" stroke-width="1px" opacity="0.25"></line><line x1="60" y1="0" x2="60" y2="177" fill="rgb(0, 0, 0)" stroke="rgb(66, 66, 66)" stroke-width="1px" opacity="0.25"></line><line x1="90" y1="0" x2="90" y2="177" fill="rgb(0, 0, 0)" stroke="rgb(66, 66, 66)" stroke-width="1px" opacity="0.25"></line><line x1="120" y1="0" x2="120" y2="177" fill="rgb(0, 0, 0)" stroke="rgb(66, 66, 66)" stroke-width="1px" opacity="0.25"></line><line x1="150" y1="0" x2="150" y2="177" fill="rgb(0, 0, 0)" stroke="rgb(66, 66, 66)" stroke-width="1px" opacity="0.25"></line><line x1="180" y1="0" x2="180" y2="177" fill="rgb(0, 0, 0)" stroke="rgb(66, 66, 66)" stroke-width="1px" opacity="0.25"></line><line x1="210" y1="0" x2="210" y2="177" fill="rgb(0, 0, 0)" stroke="rgb(66, 66, 66)" stroke-width="1px" opacity="0.25"></line><line x1="240" y1="0" x2="240" y2="177" fill="rgb(0, 0, 0)" stroke="rgb(66, 66, 66)" stroke-width="1px" opacity="0.25"></line><line x1="270" y1="0" x2="270" y2="177" fill="rgb(0, 0, 0)" stroke="rgb(66, 66, 66)" stroke-width="1px" opacity="0.25"></line></g><g><line x1="0" y1="177" x2="270" y2="177" fill="rgb(0, 0, 0)" stroke="rgb(66, 66, 66)" stroke-width="1px" opacity="0.25"></line><line x1="0" y1="160.90909090909088" x2="270" y2="160.90909090909088" fill="rgb(0, 0, 0)" stroke="rgb(66, 66, 66)" stroke-width="1px" opacity="0.25"></line><line x1="0" y1="144.81818181818178" x2="270" y2="144.81818181818178" fill="rgb(0, 0, 0)" stroke="rgb(66, 66, 66)" stroke-width="1px" opacity="0.25"></line><line x1="0" y1="128.7272727272727" x2="270" y2="128.7272727272727" fill="rgb(0, 0, 0)" stroke="rgb(66, 66, 66)" stroke-width="1px" opacity="0.25"></line><line x1="0" y1="112.63636363636364" x2="270" y2="112.63636363636364" fill="rgb(0, 0, 0)" stroke="rgb(66, 66, 66)" stroke-width="1px" opacity="0.25"></line><line x1="0" y1="96.54545454545453" x2="270" y2="96.54545454545453" fill="rgb(0, 0, 0)" stroke="rgb(66, 66, 66)" stroke-width="1px" opacity="0.25"></line><line x1="0" y1="80.45454545454542" x2="270" y2="80.45454545454542" fill="rgb(0, 0, 0)" stroke="rgb(66, 66, 66)" stroke-width="1px" opacity="0.25"></line><line x1="0" y1="64.3636363636363" x2="270" y2="64.3636363636363" fill="rgb(0, 0, 0)" stroke="rgb(66, 66, 66)" stroke-width="1px" opacity="0.25"></line><line x1="0" y1="48.27272727272721" x2="270" y2="48.27272727272721" fill="rgb(0, 0, 0)" stroke="rgb(66, 66, 66)" stroke-width="1px" opacity="0.25"></line><line x1="0" y1="32.181818181818095" x2="270" y2="32.181818181818095" fill="rgb(0, 0, 0)" stroke="rgb(66, 66, 66)" stroke-width="1px" opacity="0.25"></line><line x1="0" y1="16.090909090909115" x2="270" y2="16.090909090909115" fill="rgb(0, 0, 0)" stroke="rgb(66, 66, 66)" stroke-width="1px" opacity="0.25"></line><line x1="0" y1="0" x2="270" y2="0" fill="rgb(0, 0, 0)" stroke="rgb(66, 66, 66)" stroke-width="1px" opacity="0.25"></line></g></g></g><g><g><line x1="0" y1="595.3636363636364" x2="270" y2="595.3636363636364" fill="rgb(0, 0, 0)" stroke="rgb(153, 153, 153)" stroke-width="1.5px"></line></g></g><g><g><line x1="30" y1="0" x2="30" y2="177" fill="rgb(0, 0, 0)" stroke="rgb(153, 153, 153)" stroke-width="1.5px"></line></g></g><g><g><g><g><g><path stroke="rgb(255, 112, 67)" stroke-width="2px" d="M30.36,291.4032623998143L30.419999999999998,174.45349476350978L30.54,125.27413203770462L30.96,50.46700539616213L31.08,-6.93457137627995L39.06,-10.64098096825656L39.24,6.795407135468976L39.3,-0.6126991937631845L39.36,32.29196102684849L39.480000000000004,28.52180295597647L39.54,63.897787220149816L39.72,22.985102175978753L39.900000000000006,78.50080582041033L40.14,19.714661057679262L40.199999999999996,38.44947257570594L40.26,58.59769521216599L40.38,68.04233768024844L41.46,36.14406699414895L41.58,30.15707386906723L41.64,37.88888810609827L41.760000000000005,23.39340151975119L41.94,60.2237949338505L42.18000000000001,10.049200322601914L42.36,18.694770731174067L42.54,74.76510945960196L42.599999999999994,91.19274568560363L42.72,88.33990758550641L42.84,71.25375339162173L43.32,55.985669218675575L43.5,85.00259139402027L43.86,66.46587010778958L44.040000000000006,52.898486071357844L44.52,69.78274409656231L44.82,48.52862553571013L45,68.44855388485175L45.42,88.77200140536402L45.54,111.55820821078599L45.66,110.40522103356874L46.02,-39.044796483449986L46.08,10.490361193956986L46.38,49.01652824345298L46.56,46.73352975308556L46.62,56.561308346692144L46.98,48.94785694249852L47.1,46.537960966962224L47.519999999999996,78.0615138880726L47.7,48.95513391058809L48.660000000000004,58.283710521553246L48.9,69.81253449608184L49.2,28.897946750783007L49.379999999999995,92.54271548131887L49.56,63.120131578520045L49.68,37.56051454279779L49.74,59.58299607725229L50.16,34.57250801736877L50.52,39.828707561797636L50.64,72.14214895286196L50.699999999999996,74.70035093551246L50.82,27.79741111060652L51.06,-10.961055844877315L51.12,4.739197268898074L51.239999999999995,67.41040598441052L51.3,50.92262828782347L51.480000000000004,54.75992830492507L51.54,61.70964101600203L51.6,107.6958000888191L51.66,45.85591706973521L51.9,54.96607145004069L52.08,33.775231355785515L52.199999999999996,84.66528813231811L52.38,52.84107863798854L52.62,-27.14596885180129L52.92,26.517895560864872L52.98,64.6127294722171L53.099999999999994,118.49723290070989L53.160000000000004,104.93628581725254L53.76,92.93632344223673L53.88,132.77764785289423L53.94,97.75229675336111L54,86.11857338189958L54.120000000000005,49.14227667929827L54.18,40.81006839291785L54.48,48.29976370366154L55.02,65.88133890561032L55.08,76.53110867004479L55.379999999999995,51.105820284035836L55.56,52.94930788404386L55.86,51.85574480825831L55.980000000000004,77.1050783933704L56.400000000000006,53.83728848780586L56.699999999999996,36.58570298375836L56.76,36.698095783885826L56.94,62.953096099781014L57.06,90.93032300520797L57.12,71.76247147350828L57.300000000000004,39.3834825645374L57.36,84.38260467375056L57.42,81.51319098080945L57.48,70.50071373509458L57.9,42.52089665705396L58.019999999999996,75.51675053136934L58.08,84.0233174723231L58.44,110.97224134737944L58.559999999999995,77.87212916389466L58.74,76.57391464489643L58.86,99.6361657053543L59.339999999999996,82.14731166781864L59.64,77.97785034842961L59.82,42.42108400721137L59.94,10.290754969903931L60.18,17.24878416039078L60.3,34.219315895900365L60.419999999999995,36.11660665295976L60.480000000000004,53.98069845668136L60.66,77.0604106558173L60.839999999999996,77.1646642094357L60.900000000000006,116.01012869889377L61.02,24.25963336899226L61.62,51.70740412713057L61.86,48.036997471858434L62.16,69.06376821673476L62.58,68.07644031678666L62.699999999999996,97.9405667676629L63.059999999999995,96.82691062220174L63.300000000000004,97.23858363141288L63.84,98.47164285714321L63.96,92.70791725347466L64.02,120.30623759049192L64.62,105.181259482231L64.8,80.55738625853645L65.04,34.17958388719959L65.16,18.684847303918264L65.34,12.251569086616866L65.52,23.04332901983703L65.58,59.643253838713406L65.7,68.86703020186046L65.76,62.665571294242056L65.88,94.53047205654885L66.11999999999999,93.80205151554081L66.18,73.90513570973954L66.24,59.18758289736308L66.3,60.375304265423075L66.60000000000001,53.11082558413193L66.66,92.14984620613309L66.72,66.82668953105915L67.26,65.34967054270406L67.56,83.82777299868502L67.67999999999999,91.05397376215554L67.8,88.7335533861447L67.86,42.019077475533756L67.91999999999999,-40.383295170159606L68.04,6.16492129951147L68.22,17.358231197424203L68.58,77.61267816570137L68.64,65.11108999198893L68.82,92.28675304933475L68.94000000000001,95.55530871365555L69.53999999999999,49.51655087988757L69.6,82.71953266335238L69.72,77.71961588870387L69.77999999999999,85.11513012502407L70.02000000000001,63.70747401085335L70.26,28.938975273173064L70.61999999999999,76.34376033244406L70.92,85.59745987495322L71.22,81.65355673088051L71.28,111.13865476748488L71.34,92.10159787097443L71.39999999999999,70.22930306746063L71.58,40.963385286162406L71.64,63.75557123067876L72.06,1.813731089977807L72.24,24.188372211739754L72.96,68.21006730187695L73.08,81.64082656170912L73.32,72.61340139916044L73.86,64.38898598102845L74.22,-7.141790774502917L74.27999999999999,17.424422313006136L74.82,64.41514819923017L75.11999999999999,52.301341981612936L75.17999999999999,45.40326811834664L75.24,69.42065853076053L75.48,104.95643310447478L75.78,121.50252624300357L76.2,106.39176666163293L76.26,84.80253055943783L76.38000000000001,111.60464926133969L76.56,73.6815680781681L76.8,43.61398846190878L76.97999999999999,91.10149834323947L77.03999999999999,112.24447522242464L77.28,98.82070693453635L77.52,117.26931239522874L77.64,68.87427102161055L77.7,89.1763908066309L77.75999999999999,108.00831270476645L77.88,126.80294485843459L78.12,116.2438398342344L78.18,131.9251820269018L78.53999999999999,96.68646154973005L78.66,69.3827116846518L78.72,92.75316092943191L78.78,60.691806899052004L79.08,106.41050962437026L79.14,112.59729556989511L79.61999999999999,91.23015425761729L80.28,96.52364603755804L80.58,75.97299310773997L80.64,48.49219412224627L81.06,66.101146466509L81.42,97.0762070393958L81.53999999999999,114.96084180062672L81.78,143.41054066931244L81.84,153.88032609227858L82.02,91.43455775761558L82.14,85.9423675645609L82.44,109.53637438579801L82.92,117.38369740638323L83.16,102.06484035444531L83.33999999999999,100.18140656282417L83.52000000000001,112.27746544579428L83.82000000000001,132.20456240247458L84.11999999999999,112.3166817482918L84.17999999999999,119.47869016215314L84.24,73.04037125237218L84.54,89.73481090805844L84.78,100.9175518628473L84.84,101.33088328806741L85.08,114.36143281408327L85.38000000000001,105.50136442717094L85.74,85.85431720402994L85.86,111.55524482101671L85.97999999999999,100.14816211758698L86.22000000000001,69.27630903725462L86.4,107.03258993270777L86.7,67.20398430849772L87.24000000000001,87.08080489477366L87.3,107.5394194589145L87.36,79.05520112691664L87.72,15.765092216384225L88.08000000000001,39.00980809748014L88.32000000000001,96.45457066710331L88.38,143.2904779557591L88.44,112.44774195110936L88.5,89.23029262592446L88.56,82.27003083037815L88.74,52.8051829909641L89.04,80.460294815242L89.16,70.17610156621372L89.22,66.50284778581108L89.46,34.79033976932352L89.69999999999999,61.85289644790769L89.75999999999999,68.3422699546401L89.82,76.54234115823523L89.94000000000001,90.64342074827091L90,92.83543717405634L90.06,108.82059665861772L90.18,53.046512653488115L90.3,49.139771510830805L90.42,76.56314175271895L90.48,122.56716444892392L90.78,89.4355823445481L90.9,91.5552634782671L91.02,79.9370671145367L91.44,68.50567187371426L91.98,84.64064391717497L92.39999999999999,98.59548906083377L92.46,76.43139307149443L92.64,56.964193677322555L92.7,52.919404599318796L92.76,56.063638177012756L92.88,82.15516601754578L93,103.19459821868317L93.24,120.0845546115378L93.3,114.09555304363822L93.66000000000001,111.78318853945622L93.9,109.14008941947436L94.02,95.74928269044334L94.2,96.41426297687049L94.38,100.69136734999752L94.56,49.01688514198654L94.68,65.19318953671436L94.92,52.52134422101875L94.98,62.18778404432062L95.4,104.79714269107731L95.58,43.29753739038803L95.64,80.28190495339116L96,74.99772628081817L96.11999999999999,88.53057757305164L96.17999999999999,100.11109123130154L96.42,98.45442973239564L96.48,116.15978358295649L96.66,148.8108186804045L96.84,73.74405168029762L96.96,89.09610654216686L97.02,74.37703597779624L97.13999999999999,75.74274150165165L97.32000000000001,57.95005555583925L97.5,110.64256443921691L97.56,88.66181140259366L97.8,98.3513223324418L97.86,112.4527666120973L97.97999999999999,131.0798143296985L98.28,157.426423297931L98.4,141.95081568537523L98.46,147.582139389386L98.52,152.5300336070154L99,-1.7339401751202221L99.06,-2.4412182938178866L99.12,44.30103414935232L99.3,56.774924606900804L99.78,103.33893856563537L99.9,112.434719697314L100.61999999999999,129.0618684488238L100.67999999999999,154.39041802110842L100.80000000000001,135.6210561898883L100.92,138.26023216400847L101.10000000000001,105.26396619455241L101.16,98.54967268756221L101.28,88.90023661362207L101.46,85.95946458024211L102.66000000000001,96.47796052882167L103.02,35.993415288535026L103.08,2.7640647918788L103.2,26.01196301600537L103.44,70.98086007336765L103.56,67.37473495597183L103.68,107.5335406318252L103.86,119.28332002165318L104.16,144.9886838816656L104.28,118.99758653778153L104.33999999999999,137.51040636535205L104.39999999999999,122.60554410673971L104.52000000000001,126.69950488764361L104.94,100.4685609097597L105.06,107.41941159534723L105.78,104.58759658296051L105.96,114.41200901505653L106.14,103.53296050148133L106.19999999999999,118.50011050532412L106.32000000000001,87.39231853817353L106.44,96.17688274192749L106.56,111.67541214546686L106.8,86.14312821731374L106.92,109.47035913638607L107.03999999999999,104.6732599224262L107.22000000000001,110.18765089263556L107.34,134.9783364354753L107.64,125.00865651104131L107.82,103.51859177148668L108.12,142.3871814830518L108.18,125.0933516673477L108.3,97.09936802373444L108.48,105.57863692459593L108.89999999999999,106.4171288995246L109.02000000000001,102.02198068700758L109.08000000000001,109.53729793723488L109.2,99.14961727329639L109.26,125.72587529450875L109.44,85.3007518876317L109.56,80.4815999676745L109.86,84.51547902123266L109.98,104.48327461711791L110.04,70.96551894282993L110.16,87.51453798819276L110.22,88.4375393910276L110.28,111.16519690564405L110.75999999999999,111.83345245617217L111,116.36384029890918L111.3,98.95180357194164L111.36,81.17380275274326L111.72,126.58330707896575L111.84,131.5965524243425L111.96000000000001,77.57378945999912L112.02,33.82099187850374L112.14,99.65236411434606L112.74000000000001,92.3068713173889L112.80000000000001,91.74040710320172L112.92,97.20481506547661L113.28,116.63893650779647L113.34,97.71963075340048L113.64,92.4724339663673L113.7,80.30729971157736L113.88,110.13772725305743L114,105.0909924196436L114.12,54.47418745625875L114.24,90.7322776750854L114.41999999999999,65.6939592979033L114.47999999999999,77.9202847363649L114.60000000000001,103.62678557148351L114.84,140.60320638560086L115.02,111.4526032579872L115.08,119.81733645635444L115.2,124.43069586592019L115.32,97.94207350763845L115.62,113.41146637682745L116.16,94.98153881188463L116.4,80.70278040469691L116.52000000000001,103.89533594354228L116.82,136.6470705878445L116.88,150.1133407334241L117.06,129.18783108254604L117.36,153.95321657140886L117.48,124.7527261455916L117.78,136.0868263232745L118.02,109.83132170800954L118.26,103.52100806063436L118.32000000000001,92.15443715663723L118.44,86.50226217688848L118.56,80.77086637236808L118.74,90.5716472804543L118.8,121.14805119655328L118.92,101.50371944234571L118.97999999999999,140.78327964359184L119.03999999999999,110.96603357940928L119.10000000000001,71.11655818421737L119.22,65.73405452911958L119.52,34.07511998728942L119.7,50.1086380647943L119.88,81.96078655850114L120.06,69.5931594106519L120.24000000000001,89.23632709526252L120.6,93.74952199934586L120.66,111.97213363791882L121.14,105.39441423773721L121.32,117.3458147454042L121.44,114.7454883081564L121.56,150.885400884538L121.80000000000001,128.00854861492894L121.98,116.98433388542308L122.28,73.09556983166547L122.39999999999999,82.92902207688299L122.46,36.852910841309956L122.94,66.88691250751464L123.12,94.11482133972136L123.3,117.86123081477247L123.36,111.14335321282766L123.47999999999999,66.89638589070582L123.72,97.97555538616928L124.2,49.71595568799214L124.38,76.7023955192217L124.44,80.35446715390975L124.56,66.55820660612761L124.68,75.12900345273437L124.8,116.77343117986145L125.1,118.71572244261297L125.16,120.5589001558263L125.22,93.5419125210287L125.39999999999999,79.05180513837905L125.52000000000001,114.18309608414427L125.58,127.06539062124014L125.7,118.77479851954452L125.88,127.25758392368986L126,119.99515738666466L126.78,64.27253300405873L126.89999999999999,66.02769398961857L127.32000000000001,87.5340825091808L127.38000000000001,97.11421507099051L127.86,90.97172433055889L127.97999999999999,92.65171937730744L128.28,73.4890691607947L128.51999999999998,98.9350309966223L128.57999999999998,92.2056561143853L128.64000000000001,99.34272251805515L128.70000000000002,91.74600909573881L128.76,108.96491711012536L129,104.80851596723475L129.24,85.01490485312459L129.42,97.87171851995913L129.96,102.93590491275174L130.02,137.228881271786L130.08,154.38524906381542L130.2,139.05793339338643L130.38,135.96681781768484L130.56,154.9256637127597L130.62,164.51702245173337L130.92,168.4325012808888L130.98,159.04065696653635L131.04,172.9335454224597L131.1,180.14413062501797L131.16,171.96249540147852L131.22,153.36034083446282L131.34,152.78042056933563L131.4,161.3443478386677L131.64000000000001,143.05257966546492L132,109.98773857176904L132.84,120.78102696344342L133.01999999999998,144.94195413234883L133.14,161.4742930553575L133.26000000000002,161.60851492201422L133.62,127.2866127690762L133.74,125.68915796232216L133.8,131.03933455861258L133.85999999999999,107.09714828918364L133.92,119.99482006641402L133.98,116.187454941562L134.22,126.79362835502639L134.46,146.39683090728852L134.52,84.26288479561462L134.82,51.9951683228359L135.12,85.19176349042002L135.48,74.75163629975079L135.66,83.59170296820062L135.72,62.49696209503986L136.20000000000002,67.90705443794705L136.26000000000002,70.98481301347073L136.32000000000002,97.64983174133091L136.62,57.13641463204164L137.51999999999998,74.88415733755902L137.7,90.78086351242608L137.94,107.44067965299236L138.06,108.29193004578558L138.18,127.85944899684313L138.3,119.27395205846014L138.42000000000002,114.95013528989466L138.48,134.47846236239442L138.6,130.4585181027739L139.38,120.26643773074022L139.44,130.0890479888189L139.5,122.30012260817584L139.55999999999997,163.94950481077433L139.68,127.74856222544176L139.86,82.24256417838798L139.92000000000002,97.33974404474209L139.98000000000002,87.54676890738504L140.28,128.66065049553174L140.34,115.39403710811074L140.46,96.1916777711218L140.52,73.50140931406972L140.58,82.82537009509744L140.76,62.091542939769L140.82,50.402096516690115L141,70.80761247249164L141.72,89.52295300531871L141.84,94.21024445775062L141.9,132.22339156048517L142.02,105.67832427487984L142.08,130.92097092537898L142.14000000000001,119.54000288711732L142.26,107.09340340719127L143.58,137.56713567597245L143.94,100.98900611760853L144.48,146.04382031732746L144.54,156.81788991002242L144.6,122.0605898755182L144.83999999999997,61.76962771757773L144.89999999999998,86.49216387336236L145.01999999999998,110.18940654197202L145.68,96.14147348880088L145.8,87.76699831619722L146.1,112.16039053249551L146.16,77.07758835452796L146.28,132.89637529984282L146.4,142.29360284669116L146.7,135.97113951818073L146.82,139.1931864611318L147.12,144.62395076866642L147.18,77.17550169341823L147.36,91.47452233381901L147.66,89.77562361718637L147.72,122.85710891397194L147.9,109.29358848627336L148.07999999999998,114.79824932957521L148.14,88.16316413012046L148.26,151.05082949150474L148.38,154.45944723629822L148.61999999999998,120.21148677012187L148.86,122.65510501631252L148.98000000000002,96.49533569804628L149.4,126.65646402722585L149.46,112.94875659809651L149.7,70.43162090503488L150.17999999999998,109.44751668689277L150.35999999999999,137.3450695340708L151.26,135.42480813434787L151.38,94.38380889062543L151.56,118.42586197506786L151.62,135.60936114439386L151.79999999999998,168.03410531972716L152.4,144.19868637856757L152.94,121.5530508665096L153.06,125.14501388282325L153.3,105.81358504052493L153.72,117.07975472120313L154.20000000000002,113.86485419066742L154.44,73.33726724240553L154.5,102.24134469779356L154.74,120.82905344165036L155.57999999999998,122.9940189301769L155.76,118.55512891724872L155.94,99.69143269585854L156.24,114.1173549757221L156.42000000000002,99.95927674945919L156.78,72.77998097004897L156.9,85.19667300359026L156.96,93.9645897944037L157.38,108.59758389912895L157.5,127.87363334035402L157.67999999999998,142.19726657319657L157.86,166.660214337942L158.28,149.69307174550443L158.34,157.83518944487597L158.4,145.08732092562687L158.76,164.3779734129348L159.18,135.7826401510077L159.35999999999999,168.65296175805338L159.54,166.58009179830754L159.72,140.8953613494755L159.9,145.5252372113365L160.08,143.828778458522L160.14000000000001,158.8830466856604L160.20000000000002,149.41062904103507L160.74,137.96921615153173L161.1,101.0863425102265L161.22,109.5178265085586L161.33999999999997,118.3070009237986L161.58,141.39872566814353L161.76000000000002,145.06659920730723L161.82000000000002,114.01909644435963L161.88,122.4592301338056L162.24,135.55769168561443L162.3,122.46149944255743L162.36,117.8753099917769L162.6,139.38512254288736L162.78,168.13105306562528L162.9,169.76025072710308L163.56,153.5532938533168L163.68,175.42131683568817L163.74,160.76508526950923L163.8,126.14963967716062L163.86,121.23151681437763L163.92000000000002,95.34961852906041L164.1,78.17167894095545L164.16,90.74955562437341L164.57999999999998,116.74020196228264L164.76,86.23588445160571L165.36,101.92479386769187L165.9,98.81006017558518L166.26,99.28192219872919L166.5,126.97940378033907L166.85999999999999,120.79310876731532L166.98000000000002,145.37071256456L167.04000000000002,140.06845637656855L167.28,136.0865118370672L167.58,120.11763237296681L167.64000000000001,102.21134217878391L168.12,107.95708480276966L168.23999999999998,140.62724046912052L168.48,151.1414608896151L169.02,141.76686974029175L169.26000000000002,116.7386702105483L169.38,139.36823364851625L169.44,147.0195327484257L169.5,175.19451502084792L169.56,147.79132964411681L170.45999999999998,114.4822108854989L171,131.42639673737798L171.06,115.28465375730622L171.18,137.8609402292L171.36,135.89296452047225L171.66,111.59921460057377L171.72,125.62958941446423L171.84,126.20249415660636L172.01999999999998,115.16589216940622L172.14,103.27268435417696L172.2,99.43621914140193L172.56,77.5387888616161L172.74,100.78473148684179L172.8,99.98205936678168L172.92000000000002,128.1514029421628L172.98000000000002,105.33823005990779L173.04,138.5776040066386L173.28,132.51875668384895L173.46,117.22039883071778L173.52,112.38360538432848L173.57999999999998,41.291209548087686L173.64,77.92967839637072L173.7,122.05777165867268L173.88,120.66982525822854L173.94,74.05601566846303L174,80.57834179291204L174.06,97.06633281598297L174.24,74.7822792675212L174.3,72.5882528500517L174.36,97.53688435470166L174.72,121.23895196961608L175.5,143.53356100392324L175.85999999999999,155.2569581275592L176.10000000000002,132.13363827011528L176.16000000000003,148.43359679479863L176.28,154.65926945561392L176.58,120.70710475330809L176.94,124.96308223872717L177,105.6964655828274L177.24,104.15851308448619L177.29999999999998,145.52650033342758L177.42,127.14434065818085L177.48,127.76083063992166L178.20000000000002,154.02502262702603L178.56,148.80839144436942L178.74,129.06379431146524L178.8,149.3017992849998L179.45999999999998,141.43751633348447L180,131.5846823860332L180.06,146.9947205966189L180.18,145.5322552699404L180.48,149.17650356815145L180.54,111.48852460502751L180.6,85.84143097731781L180.66,105.97633412852414L180.78,123.62235274700676L181.68,132.11279934952037L181.86,136.38814582087946L181.92000000000002,142.93189892240105L182.1,140.71311056654295L182.28,141.8367437809419L182.4,81.52810331792631L182.46,102.7271029075281L182.64,111.99304882788257L183.36,127.16179232767473L183.42000000000002,145.56305077221378L183.48000000000002,161.56180072535724L183.9,152.7762104932862L184.08,112.67446183133326L184.98,142.7779335561938L185.16000000000003,139.7713346791214L185.34,122.33666637936183L185.52,128.67110499706504L185.76,110.93676328910104L185.82,144.89574139973237L185.88,154.6527947476061L186,132.59266327183937L186.06,145.00083487140935L186.6,157.83322651602236L187.26000000000002,139.4630413188671L187.32000000000002,125.74074794690982L187.44,133.91335167085742L187.5,149.15682274891668L187.56,154.80569294784883L187.62,143.57342769863314L187.68,151.33668044089356L187.92,156.23603577433386L187.98,169.77128795667235L188.34,134.5118991985761L188.76,154.16810340828934L189.48,139.89043142829138L190.2,105.2771663431535L190.26,122.854125889899L190.32,113.42195250394009L190.38,132.2680840122823L190.55999999999997,128.8197466872462L190.74,138.84906608497883L190.86,131.6574066124145L191.1,165.59377001231158L191.52,184.97227803553105L191.76,115.72708529154527L191.88,100.7394585268718L192.29999999999998,128.02659826889496L192.35999999999999,104.23709385371399L192.42,127.13388853264837L192.60000000000002,131.06380158875356L192.78,131.9391116539747L193.2,150.54702362711433L193.32,130.7681722804889L193.44,116.37579759746703L193.62,127.21317203461531L193.79999999999998,144.11096508872157L194.27999999999997,141.94589341352642L194.34,146.79318540062297L194.4,142.97570569213067L194.52,116.77049964550095L194.58,136.67646715842193L195,134.0488126759245L195.42,119.81706083270446L195.54,150.00952669218339L195.6,151.54225364684336L195.66,157.71846232086529L195.72,155.33749612405688L195.78,168.84539795766239L196.14000000000001,165.8644395591723L196.20000000000002,144.0210876889715L196.26000000000002,130.72377349520042L197.88,98.78940178449989L197.94000000000003,112.97069703419447L198.06,127.0592250334533L198.24,136.400318013432L198.6,108.34882071857157L198.66,59.18332737125562L198.72,122.40720474005485L198.78,108.01010056088634L199.2,113.6849811387349L199.44,87.14947419510737L199.56,88.17970580654308L199.73999999999998,111.38366782164934L200.16,104.15995233138042L200.34,126.62643577709845L200.88,127.11034103285483L201.23999999999998,137.90749917548536L201.29999999999998,158.51806421027297L201.42,136.31057805332426L201.60000000000002,106.59191544361639L202.20000000000002,102.04767949287732L202.38,90.34441182393972L202.44,102.49675677536321L202.68,83.70515222739205L202.92,90.10631997764179L202.98,87.84726158552851L203.04,127.75309495736701L203.16,150.59940466810627L203.28,143.6763345007588L203.52,170.8314094242691L203.64000000000001,183.97978051071618L203.94,139.26903035164844L204,143.72807143554397L204.24,139.65072664005018L204.42,154.54475573095783L204.6,154.60243041749655L205.01999999999998,170.44588372425298L205.14,162.70089521162976L205.98,152.84426521262574L206.04,132.18598390547336L206.16,119.89587994337458L206.22,107.58499465591484L206.57999999999998,91.51649061673034L206.76,93.49258102241676L207.12,99.2995765484998L207.3,104.76083602175886L207.42000000000002,132.02991253317674L207.6,127.14459695002931L207.9,132.29329789735866L208.14,149.3389748939806L208.2,159.42451926035378L208.32,105.17118810393026L208.5,132.98106906769152L208.56,115.28560247395916L208.61999999999998,82.61155910173292L208.73999999999998,98.19510141918416L208.85999999999999,123.6567410528675L209.34,116.18775724443611L209.4,113.79691378680198L209.46,115.07455465006859L209.52,85.44759241607426L209.64000000000001,80.07881655071708L210.35999999999999,106.73227646812518L210.54,130.04491686198486L210.72000000000003,155.70595671594526L210.96,141.75740635907883L211.02,167.28203251019312L211.14000000000001,132.10181275855797L211.20000000000002,147.3614893931498L211.38,152.41484733853474L211.56,155.39411199513947L211.74,174.09543029430924L211.98,188.02522718234366L212.16,169.8104408944512L212.28,138.45388497446618L212.58,156.8803666244209L212.76000000000002,159.20931327837633L213.18,142.03529749375974L213.3,97.75352273241295L213.48,122.9417035218866L213.6,110.31391626165507L213.66,140.84881519579247L213.9,127.36389552427251L214.01999999999998,119.4691381669056L214.07999999999998,135.03088598130034L214.38000000000002,127.61876749854555L214.5,147.40848184036878L214.62,95.02429562833323L214.92000000000002,142.62115832853888L215.04,131.56933776604822L215.22,145.2138893705848L215.28,180.19892335222352L215.52,154.48055998799367L215.76,179.31722607693277L216.05999999999997,185.5422521354357L216.11999999999998,166.45387740589055L216.66,139.73136196582186L217.44,159.2377122350906L217.56,156.19783051063862L217.62,151.10423382344712L218.16000000000003,129.0727700506837L218.46,97.51195900259829L218.52,98.79227596510675L219.12,106.14864325462766L219.72,136.03715847369156L219.9,136.8419590136123L220.08,117.96966084863831L220.14000000000001,89.90668173014413L220.38,129.3987352903172L220.62,152.78385671924642L220.8,111.2490899771246L220.92,106.44333370765621L220.98,108.63486019137027L221.1,136.97060064672755L221.45999999999998,160.59772256514842L221.88000000000002,160.4277519364333L222.6,154.63301358640697L222.66,148.04874548003102L222.78,143.88578150030446L223.07999999999998,121.2101986369876L223.44,127.5884250894203L224.22,132.52867602296936L224.28,129.12688328941888L224.52,127.68117656833604L224.57999999999998,118.42503431807506L225.06,124.97652827505416L225.36,95.05306302571603L225.54000000000002,97.97906016529005L226.02,106.30715439180048L226.2,123.37831943146452L226.26,145.69768872533749L226.32,132.9243442927814L226.38,137.10342082254007L227.04,159.58560726728822L227.22,142.28294120569373L227.4,151.51401252948847L227.58,142.6710090265706L227.64000000000001,147.75031302238799L228,138.96850328202586L228.24,135.21033645874314L228.35999999999999,166.0577972066763L228.6,165.49038302495256L228.72,171.07392779184252L228.78,166.75452424944612L228.95999999999998,133.1715087773978L229.32000000000002,130.03971239983153L229.74,121.7733874281158L230.57999999999998,99.64871843597571L230.82000000000002,111.78419680777141L230.88000000000002,155.3844624981081L231.3,147.4304779826118L231.36,151.64057991799245L231.66,131.72946544498848L231.84,146.31757701154027L232.26,117.01079555417746L232.38,120.58924384535553L232.74,122.55511619006134L232.86,104.56828252667724L232.92000000000002,96.99115770737687L233.04000000000002,100.84887458816654L233.58,107.46828539224663L233.64,117.1314290380338L233.76,138.24026261933528L233.88,131.62847842023956L234.54000000000002,103.1566317372474L234.60000000000002,114.20548141827622L234.84,146.67636309165022L234.9,129.46941583323527L234.96,161.46185378033923L235.68,169.01908361846156L235.79999999999998,139.83697745977386L235.98,138.38670568171625L236.04,138.93396206473125L236.16,162.90623422997808L236.46,131.99193861154734L236.58,144.0738638871086L236.70000000000002,143.68470712447652L237.66,149.40111384033582L237.95999999999998,145.13615536886647L238.01999999999998,77.64893934736476L238.26000000000002,105.45567865139145L238.32000000000002,127.12354069711122L238.8,139.9461903351951" style="fill: none;" fill="none"></path></g></g></g></g><g opacity="0.2"><g><g><g><path stroke="rgb(255, 112, 67)" stroke-width="2px" d="M30.36,291.4032623998143L30.419999999999998,104.28363418172704L30.54,78.06194382093167L30.96,-37.50617553429175L31.56,-194.34184535525065L31.62,5.9365377317775L31.86,-22.46394199945714L34.56,-323.98291496255183L34.8,62.29787297682326L34.86,69.93554950573225L34.980000000000004,-77.16616637869318L35.76,-240.5272047140382L36.18,14.321047929200224L36.6,79.6487031145529L36.78,-136.92065248977056L36.96,0.9412820853970035L37.2,19.44290384108367L37.68,-91.47631229866637L37.74,-65.74324980920014L38.160000000000004,13.717119105837526L38.4,-76.96086055040364L38.94,-95.0792047977448L39.06,101.32561178505419L39.24,32.949989270080195L39.3,-11.724858682264L39.36,81.64895134351468L39.480000000000004,22.86656585064798L39.54,116.96176361089402L39.72,-38.38392538645055L39.900000000000006,161.7743612839417L40.14,-68.46455608443785L40.199999999999996,66.55168985236773L40.26,88.82002916661175L40.38,82.20930138230322L41.46,-11.703339034860795L41.58,21.176584181460434L41.64,49.48660946163262L41.760000000000005,1.6501716402443722L41.94,115.46938505497845L42.18000000000001,-65.21269159425391L42.36,31.663126344030523L42.54,158.87061755223706L42.599999999999994,115.83420002460478L42.72,84.06065043536096L42.84,45.624522100795375L43.32,33.083542959256576L43.5,128.52797465703702L43.86,38.66078817844389L44.040000000000006,32.547410016710074L44.52,95.10913113436914L44.82,16.647447694431616L45,98.32844640856439L45.42,119.2571726861325L45.54,145.73751841891894L45.66,108.67574026774274L46.02,-263.2198227589781L46.08,84.79309771006754L46.38,106.80577881769698L46.56,43.3090320175344L46.62,71.30297623710196L46.98,37.52767983620814L47.1,42.92311700365758L47.519999999999996,125.34684326973827L47.7,5.29556394436139L48.660000000000004,72.27657543800092L48.9,87.10577045787463L49.2,-32.47393486716535L49.379999999999995,188.0098685771227L49.56,18.986255724321676L49.68,-0.7789110107855828L49.74,92.61671837893398L50.16,-2.943224072456399L50.52,47.713006878441L50.64,120.6123110394586L50.699999999999996,78.53765390948813L50.82,-42.55699862675238L51.06,-69.0987562781031L51.12,28.289576939561126L51.239999999999995,161.41721905767915L51.3,26.190961742942953L51.480000000000004,60.51587833057748L51.54,72.13421008261764L51.6,176.67503869804466L51.66,-46.903907458890586L51.9,68.63130302049895L52.08,1.9889712144027842L52.199999999999996,161.00037329711697L52.38,5.1047643964940566L52.62,-147.12654008648616L52.92,107.01369217986408L52.98,121.75498033924534L53.099999999999994,199.3239880434491L53.160000000000004,84.59486519206652L53.76,74.93637987971304L53.88,192.53963446888054L53.94,45.214270104061455L54,68.66798832470718L54.120000000000005,-6.322168374603455L54.18,28.31175596334714L54.48,59.53430666977706L55.02,92.25370170853353L55.08,92.50576331669632L55.379999999999995,12.967887705022608L55.56,55.71453928405585L55.86,50.21540019457987L55.980000000000004,114.97907877103846L56.400000000000006,18.935603629459013L56.699999999999996,10.708324727686934L56.76,36.86668498407708L56.94,102.33559657362373L57.06,132.89616336334834L57.12,43.01069417595861L57.300000000000004,-9.18500079891902L57.36,151.88128783757034L57.42,77.20907044139771L57.48,53.981997866522164L57.9,0.5511710399930824L58.019999999999996,125.01053134284234L58.08,96.78316788375376L58.44,151.39562715996394L58.559999999999995,28.221960888667507L58.74,74.62659286639905L58.86,134.22954229604113L59.339999999999996,55.914030611515024L59.64,71.72365836934607L59.82,-10.914065504615968L59.94,-37.904738586057334L60.18,27.685827946121012L60.3,59.67511349916456L60.419999999999995,38.96254278854887L60.480000000000004,80.77683616226366L60.66,111.67997895452106L60.839999999999996,77.32104453986338L60.900000000000006,174.27832543308082L61.02,-113.36610962585974L61.62,92.87906026433812L61.86,42.53138748895036L62.16,100.60392433404921L62.58,66.59544846686447L62.699999999999996,142.73675644397733L63.059999999999995,95.15642640401015L63.300000000000004,97.85609314522958L63.84,100.32123169573867L63.96,84.0623288479718L64.02,161.7037180960178L64.62,82.49379231983963L64.8,43.62157642299476L65.04,-35.3871196698059L65.16,-4.557257571003697L65.34,2.6016517606648284L65.52,39.2309689196673L65.58,114.54314106702803L65.7,82.70269474658096L65.76,53.36338293281465L65.88,142.32782320000908L66.11999999999999,92.70942070402879L66.18,44.059762001037576L66.24,37.111253678798654L66.3,62.15688631751319L66.60000000000001,42.21410756219515L66.66,150.7083771391348L66.72,28.841954518448187L67.26,63.134142060171456L67.56,111.54492668265644L67.67999999999999,101.89327490736136L67.8,85.25292282212862L67.86,-28.052636390382624L67.91999999999999,-163.9868541386995L68.04,75.98724600401788L68.22,34.14819604429329L68.58,167.99434861811721L68.64,46.35870773142031L68.82,133.05024763535368L68.94000000000001,100.45814221013674L69.53999999999999,-19.541585870764514L69.6,132.52400533854959L69.72,70.21974072673102L69.77999999999999,96.20840147950429L70.02000000000001,31.59598983959715L70.26,-23.21377283334736L70.61999999999999,147.45093792135063L70.92,99.47800918871704L71.22,75.73770201477134L71.28,155.3663018223914L71.34,63.54601252620867L71.39999999999999,37.42086086219004L71.58,-2.9354913857850304L71.64,97.94385014745319L72.06,-91.09902912107384L72.24,57.750333894382806L72.96,134.24260993708262L73.08,101.78696545145726L73.32,59.07226365533739L73.86,52.05236285383048L74.22,-114.43795590780002L74.27999999999999,54.27374194426967L74.82,134.90123702856624L75.11999999999999,34.13063265518706L75.17999999999999,35.05615732344712L75.24,105.44674414938146L75.48,158.26009496504608L75.78,146.3216659507968L76.2,83.72562728957693L76.26,52.418676406145075L76.38000000000001,151.8078273141926L76.56,16.79694630341093L76.8,-1.4873809624802161L76.97999999999999,162.3327631652355L77.03999999999999,143.95894054120237L77.28,78.6850545027039L77.52,144.94222058626735L77.64,-3.718291038816636L77.7,119.62957048416136L77.75999999999999,136.25619555196977L77.88,154.99489308893678L78.12,100.40518229793416L78.18,155.44719531590286L78.53999999999999,43.82838083397256L78.66,28.42708688703447L78.72,127.80883479660207L78.78,12.599775853482134L79.08,174.98856371234763L79.14,121.87747448818247L79.61999999999999,59.17944228920067L80.28,104.46388370746914L80.58,45.147013713013024L80.64,7.270995644005828L81.06,92.51457498290318L81.42,143.53879789872602L81.53999999999999,141.78779394247314L81.78,186.0850889723409L81.84,169.5850042267279L82.02,-2.2340947443788988L82.14,77.70408227497879L82.44,144.92738461765373L82.92,129.15468193726102L83.16,79.08655477653848L83.33999999999999,97.35625587539236L83.52000000000001,130.42155377024952L83.82000000000001,162.0952078374949L84.11999999999999,82.4848607670177L84.17999999999999,130.2217027829452L84.24,3.3828928877006663L84.54,114.77647039158775L84.78,117.69166329503058L84.84,101.95088042589748L85.08,133.90725710310718L85.38000000000001,92.21126184680242L85.74,56.3837463693185L85.86,150.10663624649698L85.97999999999999,83.03753806244241L86.22000000000001,22.96852941675617L86.4,163.66701127588746L86.7,7.4610758721828265L87.24000000000001,116.89603577418758L87.3,138.22734130512583L87.36,36.328873628919744L87.72,-79.17007114941428L88.08000000000001,73.87688191912389L88.32000000000001,182.6217145215381L88.38,213.54433888874271L88.44,66.18363794413476L88.5,54.40411863814698L88.56,71.82963813705875L88.74,8.607911231842882L89.04,121.94296255165878L89.16,54.749811692671315L89.22,60.99296711520712L89.46,-12.778422255407701L89.69999999999999,102.44673146578396L89.75999999999999,78.07633021473883L89.82,88.84244796362789L89.94000000000001,111.7950401333245L90,96.12346181273459L90.06,132.79833588545972L90.18,-30.614613354206124L90.3,43.27965979684481L90.42,117.69819711555132L90.48,191.57319849323142L90.78,39.738209187984445L90.9,94.73478517884556L91.02,62.509772568941095L91.44,51.358579012480625L91.98,108.84310198236594L92.39999999999999,119.527756776322L92.46,43.18524908748537L92.64,27.763394586064575L92.7,46.852220982313135L92.76,60.779988543553756L92.88,121.29245777834544L93,134.7537465203892L93.24,145.4194892008196L93.3,105.11205069178882L93.66000000000001,108.31464178318325L93.9,105.17544073950158L94.02,75.66307259689675L94.2,97.41173340651119L94.38,107.10702390968798L94.56,-28.494838170029936L94.68,89.45764612880619L94.92,33.51357624747533L94.98,76.68744377927344L95.4,168.7111806612123L95.58,-48.9518705606461L95.64,135.75845629789612L96,67.07145827195859L96.11999999999999,108.82985451140183L96.17999999999999,117.48186171867627L96.42,95.96943748403677L96.48,142.7178143587979L96.66,197.78737132657656L96.84,-38.85609881986274L96.96,112.12418883497062L97.02,52.298430131240295L97.13999999999999,77.79129978743462L97.32000000000001,31.261026637120647L97.5,189.6813277642835L97.56,55.690681847659L97.8,112.8855887272141L97.86,133.60493303158066L97.97999999999999,159.02038590610024L98.28,196.94633675027976L98.4,118.73740426654163L98.46,156.02912494540212L98.52,159.95187493345952L99,-233.12990084832367L99.06,-3.502135471864227L99.12,114.41441281410778L99.3,75.48576029322362L99.78,173.18495950373733L99.9,126.0783913948319L100.61999999999999,154.00259157608855L100.67999999999999,192.38324237953532L100.80000000000001,107.46701344305816L100.92,142.2189961251887L101.10000000000001,55.76956724036822L101.16,88.47823242707683L101.28,74.42608250271188L101.46,81.54830653017214L102.66000000000001,112.255704451691L103.02,-54.73340257189494L103.08,-47.0799609531056L103.2,60.88381035219537L103.44,138.43420565941116L103.56,61.965547279878066L103.68,167.77174914560533L103.86,136.907989106395L104.16,183.54672967168415L104.28,80.01094052195548L104.33999999999999,165.2796361067078L104.39999999999999,100.24825071882115L104.52000000000001,132.8404460589994L104.94,61.12214494293383L105.06,117.84568762372838L105.78,100.33987406438047L105.96,129.14862766320053L106.14,87.2143877311186L106.19999999999999,140.95083551108834L106.32000000000001,40.73063058744775L106.44,109.35372904755849L106.56,134.92320625077593L106.8,47.84470232508397L106.92,144.4612055149945L107.03999999999999,97.47761110148645L107.22000000000001,118.45923734794961L107.34,172.16436474973503L107.64,110.05413662439042L107.82,71.28349466215478L108.12,200.69006605039942L108.18,99.15260694379154L108.3,55.10839255831456L108.48,118.29754027588798L108.89999999999999,107.67486686191774L109.02000000000001,95.42925836823201L109.08000000000001,120.81027381257574L109.2,83.56809627738862L109.26,165.5902623263272L109.44,24.663066777315983L109.56,73.25287208773871L109.86,90.56629760156976L109.98,134.4349680109457L110.04,20.688885431398024L110.16,112.33806655623692L110.22,89.8220414952798L110.28,145.25668317756868L110.75999999999999,112.83583578196438L111,123.15942206301469L111.3,72.83374848149037L111.36,54.50680152394551L111.72,194.69756356829944L111.84,139.11642044240776L111.96000000000001,-3.4603549865159264L112.14,198.39942246810952L112.74000000000001,81.28863212195306L112.80000000000001,90.89071078192102L112.92,105.4014270088889L113.28,145.79011867127633L113.34,69.34067212180655L113.64,84.60163878581739L113.7,62.05959832939232L113.88,154.8833685652776L114,97.52089016952294L114.12,-21.451019988818647L114.24,145.11941300332543L114.41999999999999,28.13648173213003L114.47999999999999,96.25977289405735L114.60000000000001,142.18653682416135L114.84,196.06783760677683L115.02,67.7266985665668L115.08,132.36443625390527L115.2,131.35073498026887L115.32,58.20913997021585L115.62,136.6155556806109L116.16,67.3366474644704L116.4,59.28464279391545L116.52000000000001,138.6841692518104L116.82,185.77467255429784L116.88,170.3127459517934L117.06,97.79956660622898L117.36,191.1012948047031L117.48,80.95199050686574L117.78,153.0879765897989L118.02,70.44806478511201L118.26,94.05553758957166L118.32000000000001,75.10458080064164L118.44,78.0239997072653L118.56,72.17377266558731L118.74,105.27281864258373L118.8,167.01265707070175L118.92,72.03722181103444L118.97999999999999,199.7026199454611L119.03999999999999,66.24016448313537L119.10000000000001,11.342345091429598L119.22,57.66029904647304L119.52,-13.413281825455778L119.7,74.15891518105158L119.88,129.73900929906148L120.06,51.04171868887811L120.24000000000001,118.70107862217857L120.6,100.5193143554709L120.66,139.3060510957783L121.14,95.52783513746476L121.32,135.27291550690475L121.44,110.84499865228477L121.56,205.09526974911037L121.80000000000001,93.69327021051535L121.98,100.44801179116422L122.28,7.2624237510290675L122.39999999999999,97.67920044470915L122.46,-32.2612560120496L122.94,111.93791500682178L123.12,134.95668458803132L123.3,153.4808450273492L123.36,101.0665368099104L123.47999999999999,0.5259349075230435L123.72,144.5943096293644L124.2,-22.673443859273767L124.38,117.182055266066L124.44,85.83257460594176L124.56,45.863815784454324L124.68,87.98519872264426L124.8,179.2400727705522L125.1,121.62915933674032L125.16,123.32366672564635L125.22,53.01643106883219L125.39999999999999,57.31664406440473L125.52000000000001,166.8800325027921L125.58,146.38883242688394L125.7,106.33891036700116L125.88,139.9817620299079L126,109.10151758112687L126.78,-19.31140356985008L126.89999999999999,68.66043546795844L127.32000000000001,119.79366528852417L127.38000000000001,111.48441391370511L127.86,81.75798821991137L127.97999999999999,95.17171194743024L128.28,44.74509383602573L128.51999999999998,137.10397375036368L128.57999999999998,82.11159379102965L128.64000000000001,110.04832212356003L128.70000000000002,80.35093896226446L128.76,134.7932791317051L129,98.57391425289887L129.24,55.32448818195948L129.42,117.15693902021104L129.96,110.53218450194055L130.02,188.66834581033746L130.08,180.1198007518595L130.2,116.06695988774298L130.38,131.3301444541324L130.56,183.36393255537206L130.62,178.9040605601939L130.92,174.30571952462194L130.98,144.95289049500767L131.04,193.77287810634482L131.1,190.96000842885533L131.16,159.69004256616938L131.22,125.45710898393932L131.34,151.9105401716449L131.4,174.1902387426658L131.64000000000001,115.61492740566078L132,60.39047693122515L132.84,136.97095955095506L133.01999999999998,181.1833448857069L133.14,186.27280143987048L133.26000000000002,161.80984772199932L133.62,75.80375953966919L133.74,123.29297575219108L133.8,139.06459945304826L133.85999999999999,71.18386888504027L133.92,139.34132773225957L133.98,110.47640725428406L134.22,142.70288847522298L134.46,175.80163473568177L134.52,-8.93803437189627L134.82,3.593593613667889L135.12,134.98665624179623L135.48,59.09144551374692L135.66,96.85180297087537L135.72,30.854850785298748L136.20000000000002,76.02219295230775L136.26000000000002,75.60145087675612L136.32000000000002,137.64735983312127L136.62,-3.6337110318921186L137.51999999999998,101.505771395835L137.7,114.62592277472669L137.94,132.43040386384183L138.06,109.56880563497542L138.18,157.21072742342946L138.3,106.39570665088566L138.42000000000002,108.46441013704644L138.48,163.77095297114414L138.6,124.42860171334307L139.38,104.97831717268984L139.44,144.82296337593684L139.5,110.6167345372113L139.55999999999997,226.42357811467215L139.68,73.44714834744278L139.86,13.983567107807469L139.92000000000002,119.98551384427327L139.98000000000002,72.85730620134959L140.28,190.33147287775168L140.34,95.49411702697927L140.46,67.3881387656385L140.52,39.46600662849164L140.58,96.811311266639L140.76,30.990802206776323L140.82,32.8679268820719L141,101.41588640619406L141.72,117.59596380455925L141.84,101.24118163639847L141.9,189.24311221458692L142.02,65.86072334647177L142.08,168.7849409011277L142.14000000000001,102.4685508297248L142.26,88.42350418730213L143.58,183.27773407914418L143.94,46.121811780062565L144.48,213.6260416169058L144.54,172.97899429906496L144.6,69.92463982376182L144.83999999999997,-28.666815519332925L144.89999999999998,123.57596810703927L145.01999999999998,145.73527054488656L145.68,75.06957390904425L145.8,75.2052855572917L146.1,148.75047885694286L146.16,24.453385087576756L146.28,216.62455571781504L146.4,156.38944416696373L146.7,126.48744452541524L146.82,144.0262568755583L147.12,152.7700972299684L147.18,-23.997171919454246L147.36,112.92305329442023L147.66,87.22727554223752L147.72,172.47933685915035L147.9,88.94830784472549L148.07999999999998,123.0552405945279L148.14,48.21053633093832L148.26,245.38232753358105L148.38,159.5723738534884L148.61999999999998,68.83954607085745L148.86,126.32053238559851L148.98000000000002,57.25568172064691L149.4,171.8981565209952L149.46,92.38719545440237L149.7,6.655917365442585L150.17999999999998,167.97136035967955L150.35999999999999,179.191398804838L151.26,132.5444160347635L151.38,32.82231002504172L151.56,154.48894160173154L151.62,161.38460989838296L151.79999999999998,216.671221582727L152.4,108.44555796682833L152.94,87.58459759842263L153.06,130.53295840729365L153.3,76.81644177707756L153.72,133.97900924222031L154.20000000000002,109.04250339486379L154.44,12.545886820012843L154.5,145.59746088087556L154.74,148.71061655743554L155.57999999999998,126.24146716296671L155.76,111.89679389785634L155.94,71.39588836377314L156.24,135.7562383955175L156.42000000000002,78.72215941006485L156.78,32.01103730093347L156.9,103.82171105390245L156.96,107.1164649806239L157.38,130.5470750562169L157.5,156.7877075021917L157.67999999999998,163.6827164224603L157.86,203.35463598506013L158.28,124.242357856848L158.34,170.04836599393323L158.4,125.9655181467533L158.76,193.3139521438967L159.18,92.88964025811713L159.35999999999999,217.95844416862184L159.54,163.47078685868868L159.72,102.36826567622745L159.9,152.470051004128L160.08,141.28409032930026L160.14000000000001,181.46444902636784L160.20000000000002,135.202002574097L160.74,120.80709681727666L161.1,45.76203204826872L161.22,122.16505250605667L161.33999999999997,131.4907625466585L161.58,176.03631278466094L161.76000000000002,150.56840951605275L161.82000000000002,67.44784229993819L161.88,135.1194306679747L162.24,155.20538401332766L162.3,102.81721107797186L162.36,110.9960258156061L162.6,171.64984136955303L162.78,211.24994884973222L162.9,172.20404721931976L163.56,129.24285854263738L163.68,208.22335130924526L163.74,138.7807379202409L163.8,74.22647128863765L163.86,113.85433252020313L163.92000000000002,56.5267711010846L164.1,52.404769558798165L164.16,109.6163706495003L164.57999999999998,155.72617146914655L164.76,40.47940818559037L165.36,125.45815799182111L165.9,94.13795963742513L166.26,99.98971523344515L166.5,168.5256261527538L166.85999999999999,111.51366624777967L166.98000000000002,182.2371182604269L167.04000000000002,132.1150720945813L167.28,130.1135950278152L167.58,96.16431317681614L167.64000000000001,75.35190688750959L168.12,116.57569873874837L168.23999999999998,189.6324739686467L168.48,166.9127915203571L169.02,127.7049830163067L169.26000000000002,79.19637091593306L169.38,173.3125788054683L169.44,158.49648139828983L169.5,217.45698842948133L169.56,106.6865515790202L170.45999999999998,64.5185327475721L171,156.84267551519653L171.06,91.07203928719865L171.18,171.72536993704057L171.36,132.94100095738062L171.66,75.158589720726L171.72,146.6751516353L171.84,127.0618512698195L172.01999999999998,98.61098918860608L172.14,85.43287263133307L172.2,93.6815213222395L172.56,44.69264344193715L172.74,135.65364542468026L172.8,98.77805118669161L172.92000000000002,170.40541830523446L172.98000000000002,71.11847073652525L173.04,188.4366649267348L173.28,123.43048569966444L173.46,94.27286205102095L173.52,105.12841521474445L173.57999999999998,-65.34738420627338L173.64,132.88738166879523L173.7,188.24991155212575L173.88,118.58790565756233L173.94,4.135301283814667L174,90.36183097958563L174.06,121.79831935058938L174.24,41.35619894482869L174.3,69.29721322384744L174.36,134.9598316116766L174.72,156.79205339198762L175.5,176.975474555384L175.85999999999999,172.84205381301314L176.10000000000002,97.44865848394954L176.16000000000003,172.88353458182377L176.28,163.9977784468369L176.58,69.77885769984937L176.94,131.34704846685582L177,76.79654059897767L177.24,101.85158433697438L177.29999999999998,207.5784812068397L177.42,99.5711011453108L177.48,128.68556561253286L178.20000000000002,193.42131060768256L178.56,140.98344467038456L178.74,99.44689861210907L178.8,179.65880674530158L179.45999999999998,129.64109190621156L180,116.8054314648563L180.06,170.1097779124975L180.18,143.33855727992272L180.48,154.64287601546803L180.54,54.95655616034159L180.6,47.37079053575339L180.66,136.17868885533372L180.78,150.09138067473063L181.68,144.84846925329077L181.86,142.8011655279181L181.92000000000002,152.74752857468343L182.1,137.38492803275582L182.28,143.52219360254026L182.4,-8.934857376597186L182.46,134.5256022919308L182.64,125.89196770841423L183.36,149.9149075773629L183.42000000000002,173.1649384390224L183.48000000000002,185.55992565507236L183.9,139.59782514517957L184.08,52.521838838403845L184.98,187.9331411434845L185.16000000000003,135.26143636351281L185.34,96.18466392972249L185.52,138.17276292361996L185.76,84.33525072715497L185.82,195.83420856567943L185.88,169.2883747694167L186,99.50246605818921L186.06,163.6130922707644L186.6,177.0818139829419L187.26000000000002,111.9077635231343L187.32000000000002,105.15730788897382L187.44,146.17225725677878L187.5,172.02202936600554L187.56,163.2789982462471L187.62,126.72502982480957L187.68,162.98155955428425L187.92,163.58506877449423L187.98,190.07416623018005L188.34,81.62281606143168L188.76,183.6524097228592L189.48,118.47392345829441L190.2,53.357268715446615L190.26,149.21956521001727L190.32,99.27369242500173L190.38,160.5372812747955L190.55999999999997,123.64724069969218L190.74,153.89304518157783L190.86,120.8699174035679L191.1,216.49831511215726L191.52,214.04004007036033L191.76,11.859296175566561L191.88,78.25801837986162L192.29999999999998,168.95730788192964L192.35999999999999,68.55283723094244L192.42,161.47908055104992L192.60000000000002,136.95867117291147L192.78,133.2520767518065L193.2,178.45889158682385L193.32,101.09989526055074L193.44,94.78723557293414L193.62,143.4692336903377L193.79999999999998,169.45765466988084L194.27999999999997,138.69828590073368L194.34,154.06412338126788L194.4,137.24948612939227L194.52,77.4626905755563L194.58,166.53541842780328L195,130.10733095217833L195.42,98.46943306787445L195.54,195.29822548140177L195.6,153.8413440788334L195.66,166.98277533189815L195.72,151.7660468288443L195.78,189.10725070807064L196.14000000000001,161.3930019614371L196.20000000000002,111.25605988367035L196.26000000000002,110.77780220454389L197.88,50.88784421844913L197.94000000000003,134.24263990873638L198.06,148.1920170323415L198.24,150.4119574834L198.6,66.27157477628099L198.66,-14.564912649718213L198.72,217.24302079325372L198.78,86.41444429213348L199.2,122.19730200550771L199.44,47.346213779666186L199.56,89.72505322369659L199.73999999999998,146.18961084430867L200.16,93.32437909597698L200.34,160.32616094567558L200.88,127.83619891648942L201.23999999999998,154.10323638943106L201.29999999999998,189.4339117624543L201.42,102.99934881790115L201.60000000000002,62.01392152905462L202.20000000000002,95.23132556676863L202.38,72.78951032053338L202.44,120.72527420249851L202.68,55.51774540543554L202.92,99.70807160301639L202.98,84.45867399735882L203.04,187.61184501512483L203.16,184.8688692342151L203.28,133.29172924973747L203.52,211.56402180953458L203.64000000000001,203.70233714038673L203.94,72.2029051130468L204,150.4166330613873L204.24,133.5347094468095L204.42,176.88579936731944L204.6,154.6889424473047L205.01999999999998,194.2110636843876L205.14,151.083412442695L205.98,138.0593202141198L206.04,101.19856194474477L206.16,101.46072400022635L206.22,89.11866672472517L206.57999999999998,67.41373455795372L206.76,96.45671663094649L207.12,108.01006983762437L207.3,112.95272523164748L207.42000000000002,172.9335273003036L207.6,119.81662357530809L207.9,140.01634931835258L208.14,174.90749038891357L208.2,174.55283580991352L208.32,23.7911913692951L208.5,174.69589051333338L208.56,88.74240258336066L208.61999999999998,33.60049404339354L208.73999999999998,121.5704148953611L208.85999999999999,161.84920050339264L209.34,104.98428153178907L209.4,110.21064860035071L209.46,116.99101594496855L209.52,41.00714906508269L209.64000000000001,72.02565275268118L210.35999999999999,146.7124663442373L210.54,165.01387745277447L210.72000000000003,194.1975164968859L210.96,120.83458082377909L211.02,205.5689717368646L211.14000000000001,79.33148313110522L211.20000000000002,170.2510043450377L211.38,159.99488425661215L211.56,159.8630089800466L211.74,202.1474077430638L211.98,208.91992251439527L212.16,142.48826146261254L212.28,91.41905109448864L212.58,184.520089099353L212.76000000000002,162.7027332593094L213.18,116.27427381683478L213.3,31.330860590392863L213.48,160.72397470609707L213.6,91.37223537130787L213.66,186.65116359699854L213.9,107.13651601699264L214.01999999999998,107.62700213085519L214.07999999999998,158.37350770289245L214.38000000000002,116.50058977441351L214.5,177.0930533531037L214.62,16.44801631027999L214.92000000000002,214.0164523788474L215.04,114.99160692231219L215.22,165.68071677738968L215.28,232.67647432468155L215.52,115.90301494164898L215.76,216.57222521034151L216.05999999999997,194.87979122319L216.11999999999998,137.82131531157276L216.66,99.64758880571883L217.44,188.49723763899365L217.56,151.63800792396066L217.62,143.46383879266L218.16000000000003,96.02557439153844L218.46,50.17074243047017L218.52,100.71275140886956L219.12,117.18319418890907L219.72,180.86993130228737L219.9,138.0491598234935L220.08,89.66121360117737L220.14000000000001,47.812213052402825L220.38,188.6368156305768L220.62,187.8615388626402L220.8,48.94693986394185L220.92,99.2346993034536L220.98,111.92214991694146L221.1,179.47421132976356L221.45999999999998,196.0384054427797L221.88000000000002,160.17279599336058L222.6,145.94090606136754L222.66,138.17234332046723L222.78,137.64133553071454L223.07999999999998,87.19682434201239L223.44,137.15576476806942L224.22,139.93905242329294L224.28,124.0241941890933L224.52,125.5126164867119L224.57999999999998,104.54082094268362L225.06,134.8037692105228L225.36,50.167865151708746L225.54000000000002,102.3680558746511L226.02,118.79929573156613L226.2,148.98506699096072L226.26,179.17674266614694L226.32,113.76432764394714L226.38,143.3720356171781L227.04,193.30888693441042L227.22,116.32894211330193L227.4,165.36061951518056L227.58,129.40650377219373L227.64000000000001,155.36926901611412L228,125.79578867148267L228.24,129.57308622381902L228.35999999999999,212.3289883285761L228.6,164.639261752367L228.72,179.44924494217742L228.78,160.2754189358516L228.95999999999998,82.79698556932533L229.32000000000002,125.34201783348212L229.74,109.37389997054228L230.57999999999998,66.4617149477655L230.82000000000002,129.98741436546499L230.88000000000002,220.78486103361303L231.3,135.4995012093674L231.36,157.95573282106355L231.66,101.86279373548246L231.84,168.19974436136806L232.26,73.05062336813317L232.38,125.95691628212276L232.74,125.50392470712009L232.86,77.5880320316011L232.92000000000002,85.62547047842631L233.04000000000002,106.63544990935105L233.58,117.39740159836681L233.64,131.62614450671452L233.76,169.90351299128747L233.88,121.71080212159588L234.54000000000002,60.44886171275916L234.60000000000002,130.77875593981958L234.84,195.38268560171127L234.9,103.65899494561279L234.96,209.45051070099527L235.68,180.35492837564507L235.79999999999998,96.06381822174245L235.98,136.21129801462996L236.04,139.75484663925386L236.16,198.86464247784832L236.46,85.62049518390133L236.58,162.1967518004504L236.70000000000002,143.10097198052839L237.66,157.97572391412473L237.95999999999998,138.7387176616625L238.01999999999998,-23.581884684887815L238.26000000000002,147.16578760743138L238.32000000000002,159.62533376569095L238.8,159.18016479232094" style="fill: none;" fill="none"></path></g></g></g></g></g></g><g transform="translate(60, 177)" clip-path="url(#clip_1)"><clipPath id="clip_1"><rect width="270" height="23"></rect></clipPath><g><g><line x1="0" y1="0" x2="0" y2="5" style="visibility: inherit;" fill="rgb(0, 0, 0)" stroke="rgb(204, 204, 204)" stroke-width="1px"></line><line x1="30" y1="0" x2="30" y2="5" style="visibility: inherit;" fill="rgb(0, 0, 0)" stroke="rgb(204, 204, 204)" stroke-width="1px"></line><line x1="60" y1="0" x2="60" y2="5" style="visibility: inherit;" fill="rgb(0, 0, 0)" stroke="rgb(204, 204, 204)" stroke-width="1px"></line><line x1="90" y1="0" x2="90" y2="5" style="visibility: inherit;" fill="rgb(0, 0, 0)" stroke="rgb(204, 204, 204)" stroke-width="1px"></line><line x1="120" y1="0" x2="120" y2="5" style="visibility: inherit;" fill="rgb(0, 0, 0)" stroke="rgb(204, 204, 204)" stroke-width="1px"></line><line x1="150" y1="0" x2="150" y2="5" style="visibility: inherit;" fill="rgb(0, 0, 0)" stroke="rgb(204, 204, 204)" stroke-width="1px"></line><line x1="180" y1="0" x2="180" y2="5" style="visibility: inherit;" fill="rgb(0, 0, 0)" stroke="rgb(204, 204, 204)" stroke-width="1px"></line><line x1="210" y1="0" x2="210" y2="5" style="visibility: inherit;" fill="rgb(0, 0, 0)" stroke="rgb(204, 204, 204)" stroke-width="1px"></line><line x1="240" y1="0" x2="240" y2="5" style="visibility: inherit;" fill="rgb(0, 0, 0)" stroke="rgb(204, 204, 204)" stroke-width="1px"></line><line x1="270" y1="0" x2="270" y2="5" style="visibility: inherit;" fill="rgb(0, 0, 0)" stroke="rgb(204, 204, 204)" stroke-width="1px"></line></g><g transform="translate(0, 8)"><text x="0" y="0" dx="0em" dy="0.95em" style="text-anchor: middle; visibility: hidden; font-family: Roboto, sans-serif; font-size: 12px; font-weight: 200;" fill="rgb(33, 33, 33)" stroke="none" stroke-width="1px">-500</text><text x="30" y="0" dx="0em" dy="0.95em" style="text-anchor: middle; visibility: inherit; font-family: Roboto, sans-serif; font-size: 12px; font-weight: 200;" fill="rgb(33, 33, 33)" stroke="none" stroke-width="1px">0</text><text x="60" y="0" dx="0em" dy="0.95em" style="text-anchor: middle; visibility: inherit; font-family: Roboto, sans-serif; font-size: 12px; font-weight: 200;" fill="rgb(33, 33, 33)" stroke="none" stroke-width="1px">500</text><text x="90" y="0" dx="0em" dy="0.95em" style="text-anchor: middle; visibility: inherit; font-family: Roboto, sans-serif; font-size: 12px; font-weight: 200;" fill="rgb(33, 33, 33)" stroke="none" stroke-width="1px">1k</text><text x="120" y="0" dx="0em" dy="0.95em" style="text-anchor: middle; visibility: inherit; font-family: Roboto, sans-serif; font-size: 12px; font-weight: 200;" fill="rgb(33, 33, 33)" stroke="none" stroke-width="1px">1.5k</text><text x="150" y="0" dx="0em" dy="0.95em" style="text-anchor: middle; visibility: inherit; font-family: Roboto, sans-serif; font-size: 12px; font-weight: 200;" fill="rgb(33, 33, 33)" stroke="none" stroke-width="1px">2k</text><text x="180" y="0" dx="0em" dy="0.95em" style="text-anchor: middle; visibility: inherit; font-family: Roboto, sans-serif; font-size: 12px; font-weight: 200;" fill="rgb(33, 33, 33)" stroke="none" stroke-width="1px">2.5k</text><text x="210" y="0" dx="0em" dy="0.95em" style="text-anchor: middle; visibility: inherit; font-family: Roboto, sans-serif; font-size: 12px; font-weight: 200;" fill="rgb(33, 33, 33)" stroke="none" stroke-width="1px">3k</text><text x="240" y="0" dx="0em" dy="0.95em" style="text-anchor: middle; visibility: inherit; font-family: Roboto, sans-serif; font-size: 12px; font-weight: 200;" fill="rgb(33, 33, 33)" stroke="none" stroke-width="1px">3.5k</text><text x="270" y="0" dx="0em" dy="0.95em" style="text-anchor: middle; visibility: hidden; font-family: Roboto, sans-serif; font-size: 12px; font-weight: 200;" fill="rgb(33, 33, 33)" stroke="none" stroke-width="1px">4k</text></g><line x1="0" y1="0" x2="270" y2="0" fill="rgb(0, 0, 0)" stroke="rgb(204, 204, 204)" stroke-width="1px"></line></g></g></g></g></svg>