<svg viewBox="0 0 330 200" xmlns="http://www.w3.org/2000/svg"><g><g><g><g><g><line x1="60" y1="177" x2="55" y2="177" style="visibility: inherit;" fill="rgb(0, 0, 0)" stroke="rgb(204, 204, 204)" stroke-width="1px"></line><line x1="60" y1="163.38461538461544" x2="55" y2="163.38461538461544" style="visibility: inherit;" fill="rgb(0, 0, 0)" stroke="rgb(204, 204, 204)" stroke-width="1px"></line><line x1="60" y1="149.7692307692308" x2="55" y2="149.7692307692308" style="visibility: inherit;" fill="rgb(0, 0, 0)" stroke="rgb(204, 204, 204)" stroke-width="1px"></line><line x1="60" y1="136.1538461538462" x2="55" y2="136.1538461538462" style="visibility: inherit;" fill="rgb(0, 0, 0)" stroke="rgb(204, 204, 204)" stroke-width="1px"></line><line x1="60" y1="122.53846153846153" x2="55" y2="122.53846153846153" style="visibility: inherit;" fill="rgb(0, 0, 0)" stroke="rgb(204, 204, 204)" stroke-width="1px"></line><line x1="60" y1="108.9230769230769" x2="55" y2="108.9230769230769" style="visibility: inherit;" fill="rgb(0, 0, 0)" stroke="rgb(204, 204, 204)" stroke-width="1px"></line><line x1="60" y1="95.30769230769235" x2="55" y2="95.30769230769235" style="visibility: inherit;" fill="rgb(0, 0, 0)" stroke="rgb(204, 204, 204)" stroke-width="1px"></line><line x1="60" y1="81.69230769230772" x2="55" y2="81.69230769230772" style="visibility: inherit;" fill="rgb(0, 0, 0)" stroke="rgb(204, 204, 204)" stroke-width="1px"></line><line x1="60" y1="68.0769230769231" x2="55" y2="68.0769230769231" style="visibility: inherit;" fill="rgb(0, 0, 0)" stroke="rgb(204, 204, 204)" stroke-width="1px"></line><line x1="60" y1="54.46153846153847" x2="55" y2="54.46153846153847" style="visibility: inherit;" fill="rgb(0, 0, 0)" stroke="rgb(204, 204, 204)" stroke-width="1px"></line><line x1="60" y1="40.84615384615382" x2="55" y2="40.84615384615382" style="visibility: inherit;" fill="rgb(0, 0, 0)" stroke="rgb(204, 204, 204)" stroke-width="1px"></line><line x1="60" y1="27.23076923076925" x2="55" y2="27.23076923076925" style="visibility: inherit;" fill="rgb(0, 0, 0)" stroke="rgb(204, 204, 204)" stroke-width="1px"></line><line x1="60" y1="13.615384615384626" x2="55" y2="13.615384615384626" style="visibility: inherit;" fill="rgb(0, 0, 0)" stroke="rgb(204, 204, 204)" stroke-width="1px"></line><line x1="60" y1="0" x2="55" y2="0" style="visibility: inherit;" fill="rgb(0, 0, 0)" stroke="rgb(204, 204, 204)" stroke-width="1px"></line></g><g transform="translate(50, 0)"><text x="0" y="177" dx="0em" dy="0.3em" style="text-anchor: end; visibility: hidden; font-family: Roboto, sans-serif; font-size: 12px; font-weight: 200;" fill="rgb(33, 33, 33)" stroke="none" stroke-width="1px">-1.65</text><text x="0" y="163.38461538461544" dx="0em" dy="0.3em" style="text-anchor: end; visibility: inherit; font-family: Roboto, sans-serif; font-size: 12px; font-weight: 200;" fill="rgb(33, 33, 33)" stroke="none" stroke-width="1px">-1.6</text><text x="0" y="149.7692307692308" dx="0em" dy="0.3em" style="text-anchor: end; visibility: hidden; font-family: Roboto, sans-serif; font-size: 12px; font-weight: 200;" fill="rgb(33, 33, 33)" stroke="none" stroke-width="1px">-1.55</text><text x="0" y="136.1538461538462" dx="0em" dy="0.3em" style="text-anchor: end; visibility: inherit; font-family: Roboto, sans-serif; font-size: 12px; font-weight: 200;" fill="rgb(33, 33, 33)" stroke="none" stroke-width="1px">-1.5</text><text x="0" y="122.53846153846153" dx="0em" dy="0.3em" style="text-anchor: end; visibility: hidden; font-family: Roboto, sans-serif; font-size: 12px; font-weight: 200;" fill="rgb(33, 33, 33)" stroke="none" stroke-width="1px">-1.45</text><text x="0" y="108.9230769230769" dx="0em" dy="0.3em" style="text-anchor: end; visibility: inherit; font-family: Roboto, sans-serif; font-size: 12px; font-weight: 200;" fill="rgb(33, 33, 33)" stroke="none" stroke-width="1px">-1.4</text><text x="0" y="95.30769230769235" dx="0em" dy="0.3em" style="text-anchor: end; visibility: hidden; font-family: Roboto, sans-serif; font-size: 12px; font-weight: 200;" fill="rgb(33, 33, 33)" stroke="none" stroke-width="1px">-1.35</text><text x="0" y="81.69230769230772" dx="0em" dy="0.3em" style="text-anchor: end; visibility: inherit; font-family: Roboto, sans-serif; font-size: 12px; font-weight: 200;" fill="rgb(33, 33, 33)" stroke="none" stroke-width="1px">-1.3</text><text x="0" y="68.0769230769231" dx="0em" dy="0.3em" style="text-anchor: end; visibility: hidden; font-family: Roboto, sans-serif; font-size: 12px; font-weight: 200;" fill="rgb(33, 33, 33)" stroke="none" stroke-width="1px">-1.25</text><text x="0" y="54.46153846153847" dx="0em" dy="0.3em" style="text-anchor: end; visibility: inherit; font-family: Roboto, sans-serif; font-size: 12px; font-weight: 200;" fill="rgb(33, 33, 33)" stroke="none" stroke-width="1px">-1.2</text><text x="0" y="40.84615384615382" dx="0em" dy="0.3em" style="text-anchor: end; visibility: hidden; font-family: Roboto, sans-serif; font-size: 12px; font-weight: 200;" fill="rgb(33, 33, 33)" stroke="none" stroke-width="1px">-1.15</text><text x="0" y="27.23076923076925" dx="0em" dy="0.3em" style="text-anchor: end; visibility: inherit; font-family: Roboto, sans-serif; font-size: 12px; font-weight: 200;" fill="rgb(33, 33, 33)" stroke="none" stroke-width="1px">-1.1</text><text x="0" y="13.615384615384626" dx="0em" dy="0.3em" style="text-anchor: end; visibility: hidden; font-family: Roboto, sans-serif; font-size: 12px; font-weight: 200;" fill="rgb(33, 33, 33)" stroke="none" stroke-width="1px">-1.05</text><text x="0" y="0" dx="0em" dy="0.3em" style="text-anchor: end; visibility: hidden; font-family: Roboto, sans-serif; font-size: 12px; font-weight: 200;" fill="rgb(33, 33, 33)" stroke="none" stroke-width="1px">-1</text></g><line x1="60" y1="0" x2="60" y2="177" fill="rgb(0, 0, 0)" stroke="rgb(204, 204, 204)" stroke-width="1px"></line></g></g><g transform="translate(60, 0)" clip-path="url(#clip_0)"><clipPath id="clip_0"><rect width="270" height="177"></rect></clipPath><g><g><g><line x1="0" y1="0" x2="0" y2="177" fill="rgb(0, 0, 0)" stroke="rgb(66, 66, 66)" stroke-width="1px" opacity="0.25"></line><line x1="30" y1="0" x2="30" y2="177" fill="rgb(0, 0, 0)" stroke="rgb(66, 66, 66)" stroke-width="1px" opacity="0.25"></line><line x1="60" y1="0" x2="60" y2="177" fill="rgb(0, 0, 0)" stroke="rgb(66, 66, 66)" stroke-width="1px" opacity="0.25"></line><line x1="90" y1="0" x2="90" y2="177" fill="rgb(0, 0, 0)" stroke="rgb(66, 66, 66)" stroke-width="1px" opacity="0.25"></line><line x1="120" y1="0" x2="120" y2="177" fill="rgb(0, 0, 0)" stroke="rgb(66, 66, 66)" stroke-width="1px" opacity="0.25"></line><line x1="150" y1="0" x2="150" y2="177" fill="rgb(0, 0, 0)" stroke="rgb(66, 66, 66)" stroke-width="1px" opacity="0.25"></line><line x1="180" y1="0" x2="180" y2="177" fill="rgb(0, 0, 0)" stroke="rgb(66, 66, 66)" stroke-width="1px" opacity="0.25"></line><line x1="210" y1="0" x2="210" y2="177" fill="rgb(0, 0, 0)" stroke="rgb(66, 66, 66)" stroke-width="1px" opacity="0.25"></line><line x1="240" y1="0" x2="240" y2="177" fill="rgb(0, 0, 0)" stroke="rgb(66, 66, 66)" stroke-width="1px" opacity="0.25"></line><line x1="270" y1="0" x2="270" y2="177" fill="rgb(0, 0, 0)" stroke="rgb(66, 66, 66)" stroke-width="1px" opacity="0.25"></line></g><g><line x1="0" y1="177" x2="270" y2="177" fill="rgb(0, 0, 0)" stroke="rgb(66, 66, 66)" stroke-width="1px" opacity="0.25"></line><line x1="0" y1="163.38461538461544" x2="270" y2="163.38461538461544" fill="rgb(0, 0, 0)" stroke="rgb(66, 66, 66)" stroke-width="1px" opacity="0.25"></line><line x1="0" y1="149.7692307692308" x2="270" y2="149.7692307692308" fill="rgb(0, 0, 0)" stroke="rgb(66, 66, 66)" stroke-width="1px" opacity="0.25"></line><line x1="0" y1="136.1538461538462" x2="270" y2="136.1538461538462" fill="rgb(0, 0, 0)" stroke="rgb(66, 66, 66)" stroke-width="1px" opacity="0.25"></line><line x1="0" y1="122.53846153846153" x2="270" y2="122.53846153846153" fill="rgb(0, 0, 0)" stroke="rgb(66, 66, 66)" stroke-width="1px" opacity="0.25"></line><line x1="0" y1="108.9230769230769" x2="270" y2="108.9230769230769" fill="rgb(0, 0, 0)" stroke="rgb(66, 66, 66)" stroke-width="1px" opacity="0.25"></line><line x1="0" y1="95.30769230769235" x2="270" y2="95.30769230769235" fill="rgb(0, 0, 0)" stroke="rgb(66, 66, 66)" stroke-width="1px" opacity="0.25"></line><line x1="0" y1="81.69230769230772" x2="270" y2="81.69230769230772" fill="rgb(0, 0, 0)" stroke="rgb(66, 66, 66)" stroke-width="1px" opacity="0.25"></line><line x1="0" y1="68.0769230769231" x2="270" y2="68.0769230769231" fill="rgb(0, 0, 0)" stroke="rgb(66, 66, 66)" stroke-width="1px" opacity="0.25"></line><line x1="0" y1="54.46153846153847" x2="270" y2="54.46153846153847" fill="rgb(0, 0, 0)" stroke="rgb(66, 66, 66)" stroke-width="1px" opacity="0.25"></line><line x1="0" y1="40.84615384615382" x2="270" y2="40.84615384615382" fill="rgb(0, 0, 0)" stroke="rgb(66, 66, 66)" stroke-width="1px" opacity="0.25"></line><line x1="0" y1="27.23076923076925" x2="270" y2="27.23076923076925" fill="rgb(0, 0, 0)" stroke="rgb(66, 66, 66)" stroke-width="1px" opacity="0.25"></line><line x1="0" y1="13.615384615384626" x2="270" y2="13.615384615384626" fill="rgb(0, 0, 0)" stroke="rgb(66, 66, 66)" stroke-width="1px" opacity="0.25"></line><line x1="0" y1="0" x2="270" y2="0" fill="rgb(0, 0, 0)" stroke="rgb(66, 66, 66)" stroke-width="1px" opacity="0.25"></line></g></g></g><g><g><line x1="0" y1="-272.3076923076924" x2="270" y2="-272.3076923076924" fill="rgb(0, 0, 0)" stroke="rgb(153, 153, 153)" stroke-width="1.5px"></line></g></g><g><g><line x1="30" y1="0" x2="30" y2="177" fill="rgb(0, 0, 0)" stroke="rgb(153, 153, 153)" stroke-width="1.5px"></line></g></g><g><g><g><g><g><path stroke="rgb(255, 112, 67)" stroke-width="2px" d="M32.4,-50.50896493553758L32.82,79.74155267868629L32.88,144.43810240669532L32.94,163.7526946753464L33.059999999999995,188.00633244951933L42.12,190.57267951351656L42.18000000000001,173.61269711346267L42.24,172.03964368452517L42.300000000000004,168.55636611688524L42.42,158.45967940019133L42.660000000000004,156.5515201962202L42.78,139.9923217011907L42.9,145.13347889952666L43.14,153.83969245399254L43.2,170.89265074848572L43.26,153.06510644910554L43.44,135.00280762216298L43.74,119.03076826540827L44.339999999999996,110.46695595847032L44.64,110.74353722254307L44.7,109.07700232256299L44.76,106.82952990470258L45.480000000000004,93.62030256454439L45.54,99.54696468785902L45.6,108.83565570738755L46.26,74.39264289037493L46.44,98.05509364121211L46.56,79.66543501233579L46.68,44.88233895164351L46.92,33.523316522653765L47.1,40.07315152529596L47.28,33.2822823512409L47.4,29.98717700445702L47.7,25.459553432030255L47.82,30.63888852460184L47.88,48.95967342331729L48.36,62.217510036492065L48.48,58.774915979194105L48.72,42.79945726562178L48.96,53.966069065512286L49.080000000000005,44.29994588442741L49.14,30.46605032660656L49.32,40.50531311480595L50.22,30.33422974780391L50.28,48.09630109917999L50.58,50.670629851026945L50.699999999999996,53.90846345314831L50.76,58.51401516811793L51.12,57.869422865472224L51.239999999999995,83.89545616843635L51.480000000000004,42.95194008964682L51.72,61.64922483482678L51.78,59.56154420758368L51.84,51.740940026230994L51.9,44.93972872556343L51.96,64.0701672999649L52.02,79.83716700806829L52.68000000000001,78.41095157144159L53.160000000000004,51.644277077367626L53.4,80.83019446954634L53.519999999999996,75.60309069483628L53.64,68.30060196962678L53.82,74.11432550027165L54.120000000000005,78.70003459717884L54.24,66.54235057292476L54.540000000000006,85.03411072921536L54.839999999999996,74.81720022037086L54.9,72.78080010036683L55.26,82.06622372547515L55.32,80.95900875615915L55.56,59.672275602699195L55.8,79.55548222516373L56.1,72.43440347612236L56.16,84.04011734178634L56.22,86.63656364132012L56.34,65.11593015984275L56.58,60.11953356446786L56.64,44.19208190696307L56.76,59.7926418250062L57,73.58942763369062L57.12,73.787441681298L57.36,73.50956927795323L57.66,70.60518975614058L57.9,55.738516304245856L57.96,43.71046922269078L58.08,57.37289436120893L58.2,41.72862387481485L58.44,51.16137932730686L58.5,54.478005777372125L58.8,52.74563519484502L58.86,64.95566426251813L59.22,53.48917724579493L59.339999999999996,53.83623846887118L59.64,44.9867001454378L59.879999999999995,39.817483969122115L60.54,54.07701873406395L60.6,41.35946722540493L60.66,42.548092600140194L60.72,21.046667298611887L60.78,52.11892110623675L60.839999999999996,38.49895532898302L61.02,47.23546061499236L61.08,67.39332916029741L61.14,52.40887675924937L61.980000000000004,24.36874127625039L62.04,47.30052585377228L62.16,49.76456762032376L62.22,51.93143843173832L62.28,60.362830520262186L62.4,48.63196453166326L62.519999999999996,40.55611482457942L62.64,33.791851376366665L62.760000000000005,48.14104981942071L63,50.368526147145595L63.12,61.71052308093594L63.36,48.72756737275499L63.72,39.46664692413187L63.84,45.688191294151025L64.08,71.08612396685929L64.25999999999999,62.19653499988063L64.38,73.55055341687363L65.04,54.252224539043944L65.1,47.94356380362656L65.28,48.042112922655406L65.4,46.35682058186849L65.46,51.83159102571457L65.64,53.05951710134371L65.76,67.54265942145544L66.11999999999999,54.77473470504423L66.18,46.2430739256783L66.48,58.85748954043737L66.78,57.74254229826991L66.84,62.57545269137273L66.96,61.0560186440548L67.32,61.70541090484955L67.38,53.361731453727984L67.56,55.10150008439501L67.67999999999999,35.907302512349176L67.74,51.01602737615107L67.98,31.67686315620163L68.22,5.6466605842915385L68.52,7.783012213846826L68.58,24.775227954434925L68.64,26.307009075963453L68.94000000000001,27.897786296032564L69.06,23.683481911333484L69.3,5.563349443841767L69.48,1.907666882010317L69.6,29.194713293667814L70.02000000000001,24.779450222576155L70.2,29.022553664969436L70.5,25.775888751692552L70.55999999999999,23.935065043876293L70.80000000000001,7.314409817540943L71.04,15.513537098292908L71.52,25.247381347932098L71.64,20.34722001922726L71.76,17.694278593450257L71.82000000000001,25.868484188165237L71.94,43.3774468402495L72.12,25.115381178056214L72.60000000000001,42.412860451218485L72.9,21.432923204852973L73.02,32.9795485484141L73.2,41.04762731477845L73.25999999999999,38.18267349110565L73.38,46.06380582231045L73.5,20.83418793169854L73.56,13.598078630037735L73.68,28.929951477127727L73.74000000000001,59.999926775464985L73.86,65.84511816350333L73.92,52.978663581160546L73.98,67.27225275168615L74.27999999999999,63.79145142999403L74.52000000000001,72.31469578393259L74.64,50.097605755248196L75.36,67.05429033197537L75.84,52.21900942914692L75.89999999999999,62.65905037243048L76.13999999999999,57.403853119036555L76.32000000000001,49.06443478272847L76.5,39.70739668189763L76.56,64.28576600209139L76.67999999999999,49.48007860161635L76.74,34.814942405274806L76.8,42.931201331132506L76.92,50.423867479658156L77.28,42.79114874895028L78.24000000000001,29.35762731159785L78.3,36.24353927054123L78.36,24.27423347959859L78.42,23.453683591388423L78.6,39.4290747172345L79.08,43.19630654521731L79.14,53.745054655021555L79.67999999999999,36.46149720071372L79.92,31.014671760862612L79.98,55.67211500015863L80.10000000000001,35.93101534737583L80.16,51.63822201371869L80.34,49.61583043852627L80.39999999999999,37.4074416042976L80.58,47.52396457406635L80.69999999999999,54.096526856223335L81.06,46.28562560517032L81.42,37.319788126257656L81.6,42.41346464915454L81.72,47.246086534501934L81.96000000000001,28.03082664087846L82.2,22.55517601534983L82.25999999999999,13.422956885901016L83.04,43.67105135028592L83.16,60.35531824972327L83.39999999999999,28.265823575120347L83.52000000000001,28.748731607629512L83.7,35.07317997527294L83.82000000000001,36.938162302814206L83.88,22.34082593945128L84.06,33.39315828339732L84.11999999999999,31.90568915538337L84.42,22.459821063702144L84.48,36.33048672215401L84.60000000000001,31.67229471003617L84.66,27.488490190021317L85.08,53.894902706002156L85.14,40.8282746314138L85.25999999999999,39.16897468708429L85.68,27.05320395334504L85.8,45.93479875644873L85.86,39.94342399146504L85.92,55.59343659996182L86.34,22.756678715829445L86.52,22.169154071867297L86.7,44.176025069345805L86.94,47.48073404549029L87.12,60.680226092952964L87.3,48.824946865230324L87.6,34.663806209301235L87.78,33.471541626699086L87.89999999999999,27.975523128180097L88.02000000000001,11.481061399115468L88.08000000000001,16.004946665659944L88.67999999999999,4.676003789766019L88.74,22.328583770817225L88.91999999999999,30.337836928538835L89.16,24.326324537893495L89.4,30.191597029865026L89.52,18.03336272372202L89.64,22.346199222039342L89.75999999999999,10.703135338159937L89.94000000000001,21.42115604361772L90.12,10.62730766683883L90.18,33.11587987750812L90.24,41.741483211210394L90.36,30.667746580379884L90.66,39.531647586712L90.78,55.57388766502207L90.9,52.31677823370847L91.32,16.862017764669158L91.55999999999999,38.59149314358966L91.68,38.832748149971216L92.1,34.20406086613673L92.16,18.62887310239405L92.22,34.511323935382876L92.58000000000001,52.72467670833665L92.76,34.05105324614174L93.36,30.321605552327476L93.47999999999999,41.2035159577862L93.60000000000001,27.887427843667773L93.72,40.289351155287946L94.02,35.461225442200906L94.14,37.138346191435154L94.2,39.09058880945617L94.25999999999999,42.63300802974861L94.32,49.77092115085695L94.38,48.12347886379767L94.62,40.02840172621412L94.8,17.341499928257278L95.1,23.487524685817405L95.16,20.16464009964681L95.22,26.72723049204849L95.46000000000001,31.354373127523285L95.88,40.52340079243104L96.11999999999999,25.412034839683585L96.17999999999999,31.453561106728575L96.24000000000001,31.814111744087118L96.42,5.25251230695503L96.54,23.39165666208017L96.66,31.95478763973235L96.72,39.63585131367433L96.84,50.22944890031676L97.26,38.81080032926477L97.32000000000001,39.65194719573254L97.5,44.597253243751304L97.56,39.56881856588909L97.67999999999999,56.30687869681262L97.74,20.053516884131348L97.92,12.623339862698796L98.03999999999999,22.920007670107626L98.34,9.078156523263527L98.75999999999999,0.6864187919464666L99,2.055642107100531L99.06,5.9987880581446L99.12,46.34292444504115L99.72,55.473106536461124L99.83999999999999,38.79545517295655L100.02000000000001,46.3974680524105L100.44,37.6719584385865L100.56,49.02357274827618L100.61999999999999,60.72547965278281L100.67999999999999,24.966290569943066L100.92,17.815061949598967L101.04,37.31634513496465L101.34,32.43042869176699L101.58,34.507380098783564L101.64,35.285896054546924L101.82000000000001,56.7469134097526L102.3,59.2744130728244L102.36,48.138690090586515L102.42,57.55891431539457L102.84,48.43947270246637L103.08,22.48016467622602L103.38,39.95711099281307L103.5,23.556784366308328L103.74000000000001,32.72294991161289L104.64,43.89700298506308L104.76,26.469333696813635L104.94,27.26466507498421L105,10.146556478368298L105.06,22.720079475235547L105.11999999999999,35.27230500701257L105.24,12.042353260426092L105.36000000000001,18.100011192964065L105.42,9.96986401822409L105.60000000000001,9.645158770314167L105.66,12.26362724461037L106.02,24.989412276402103L106.25999999999999,25.454542904171323L106.56,4.24257697957977L106.62,11.007196302540935L106.68,7.683003982179994L106.92,29.39687486444789L107.1,42.75003419812524L107.4,55.62582110645594L107.58,47.19226908622746L107.88,32.03683793324751L107.94,16.621954045442795L108.12,35.00410947537077L108.36,47.62151541772417L108.6,41.86006806997979L108.89999999999999,45.21676102748782L109.2,32.84101407029376L109.32000000000001,22.854397078603927L109.5,11.706952440887912L109.56,27.640550762229378L110.10000000000001,25.476823998761684L110.69999999999999,39.18460181092038L110.88000000000001,18.58509534118381L111.24,47.81568868147939L111.6,48.12113863754227L111.84,53.49574663678655L111.9,51.6892870388205L111.96000000000001,50.816359783975315L112.08,51.54776390951344L112.5,57.78360008060893L112.55999999999999,35.573618496922094L112.80000000000001,46.56359321846765L113.16,42.114671877102055L113.39999999999999,20.203396657062846L113.58000000000001,18.637471965936182L113.82000000000001,18.308831601685576L115.02,36.56096773612969L115.25999999999999,33.53130815785209L115.86,27.237017915200294L116.16,27.82141389994276L116.27999999999999,31.73485563953558L116.34,40.52419936101155L116.4,35.27937510413701L116.46000000000001,40.36278328732163L116.94,38.84145491795432L117.30000000000001,33.374398376023336L117.42,26.202394381448986L117.48,49.051741728356724L117.6,41.61791121039146L117.66,4.527783822992006L118.38000000000001,18.337195360464367L118.44,8.281138647952105L118.56,21.80107793540497L118.97999999999999,31.223893118500573L119.22,34.285133406923286L119.4,36.101491691070294L119.64,23.303192612674007L119.88,10.810741224788673L119.94000000000001,32.931591148823046L120.12,22.976938668739045L120.53999999999999,35.18562032580681L120.6,26.558754388829385L120.66,16.618777205229893L120.78,22.943430697269374L120.96000000000001,6.640924060322325L121.67999999999999,15.683782356138753L122.04,20.54852181870316L122.22,33.37115494314592L122.28,22.700944305726637L122.46,8.578746717548986L122.88000000000001,24.25104630992486L123.06,31.634041643635047L123.12,55.667844510740615L123.72,39.846802686575096L123.9,38.24220515003565L123.96000000000001,31.44366780484636L124.08,14.049183934626148L124.25999999999999,41.68694564590379L124.32,35.249337533604105L124.38,10.045447786651344L124.56,24.661918829038974L124.8,36.14895478358721L125.1,40.18510033585525L125.7,30.76979268911835L125.76,37.52307128044438L125.82000000000001,44.669798156262445L126.06,53.03041549959244L126.17999999999999,47.823730066051844L126.66,50.19975372507942L127.62,28.381429327731848L127.86,32.37971760546569L128.1,40.982545059598515L128.22,36.40918751596491L128.4,44.049913599173834L128.46,41.887788638841535L128.76,17.157245995898812L128.82,20.901242457440134L129.06,15.440099308763045L129.24,10.35271799144205L129.35999999999999,3.185644233456841L129.72,34.53878099620389L129.96,25.9847366780962L130.2,18.471952418281646L130.44,7.918353090713686L130.62,21.193062274749153L130.74,27.196051117009212L131.1,28.468750122461934L131.16,55.251009383686025L131.22,40.680906284109405L131.28,56.101433497544555L131.58,53.76104791367941L131.64000000000001,52.640946513076756L131.7,36.96089813679828L132.12,19.467864524591384L132.23999999999998,36.562903697054644L132.42000000000002,38.47963155562573L132.54,4.782438790025009L132.6,22.561115278550417L132.66,21.556335031928015L132.72,2.9886749624856703L133.07999999999998,32.35382088384004L133.32,29.04522233224494L133.38,46.67955954680792L133.5,57.10456690308193L133.8,31.908637420268057L134.28,39.09746220327823L134.34,39.75415186608126L134.58,34.17687911016017L134.7,27.28944759959877L135,36.8627074673239L135.18,39.712165809998275L135.24,35.011855126586426L135.89999999999998,44.06039816118982L136.5,28.063448340026362L136.62,32.820047567177824L136.8,18.319980309035117L137.04,21.610036853328754L137.1,19.553962328061687L137.16,17.6042924805021L137.34,19.27811432015876L137.51999999999998,19.535245118561015L137.76000000000002,32.94986912994634L138,1.0189354154044608L138.12,-0.2665239456824742L139.14,27.232591571780727L139.38,35.19374943746262L139.55999999999997,52.23037491424759L139.62,61.51640417593736L139.8,51.20972554107547L139.92000000000002,24.821419680513106L140.16,39.68157333305996L140.28,37.38140138673314L140.82,42.00011221488524L141.06,41.004766566461214L141.60000000000002,48.957686646983085L141.9,36.76583413503106L141.96,35.34128365832108L142.02,29.195882830678524L142.44,35.46074763617004L142.79999999999998,32.248276822316726L142.98,24.49472802341555L143.16,36.0423037946167L143.28,39.74384095127425L143.70000000000002,41.95028536875229L143.94,39.04210640543672L144.12,33.06408867295045L144.48,30.201379613565027L144.54,16.708098651552458L144.6,32.406474682945245L144.78,44.83400304190735L145.08,33.151026995338576L145.44,51.07548178194343L145.5,34.220207889473826L146.1,30.47047929923137L146.16,31.888258329027046L146.4,46.95301924865575L146.45999999999998,46.26942987229951L146.51999999999998,43.93567935082766L146.7,17.22987978316036L146.82,10.022115392197572L147,24.289854887596583L147.18,24.800162994180006L147.36,4.813954870658727L147.6,8.999594969467434L147.66,27.622570294504406L147.78,13.763723945560162L147.84,16.68383911422798L147.96,25.028120378913684L148.02,34.036140483315556L148.61999999999998,43.178568938239025L148.74,30.256827838843943L148.86,50.27895952092394L149.22,32.02128403129402L149.28,47.57420337459162L149.46,21.73695956348884L151.02,14.622536590848322L151.26,27.158931896549067L151.56,51.30365661799908L151.68,39.975204080920975L151.85999999999999,26.12075855812479L152.1,40.91536647368103L152.16,27.193295644683193L152.4,33.542832591465505L152.58,23.611452834345233L152.82,27.252288127632557L153.24,32.61702692696639L153.3,37.115247043490136L153.35999999999999,56.1555985534538L154.01999999999998,50.810273367700844L154.07999999999998,49.22811926424472L154.20000000000002,27.868682583139304L154.44,21.261224917244785L154.74,32.46351406352955L155.22,41.905598672492715L155.34,45.183557969763896L155.46,41.28196327189551L155.7,36.520967716390956L155.82,43.89581430175657L155.88,44.74306367307618L155.99999999999997,71.56438903263268L156.18,37.726851074174604L156.3,40.731690378720145L156.54,43.64388496474808L156.6,23.26747421134117L156.84,22.25156837619808L156.9,11.435582885800457L157.14,37.64479508975669L157.2,28.119931919177574L157.38,32.535813970584236L157.44,43.103923623462855L157.61999999999998,33.76244446502763L158.16,37.83325818468346L158.34,30.076257703285876L158.94,35.71364619771144L159.54,30.885422321334918L159.72,35.30393176804504L160.14000000000001,36.78628975423339L160.56,24.51015988933955L161.22,42.849062277410056L161.33999999999997,50.86537756901236L161.64000000000001,40.249722947962596L161.94,30.322616006490712L162.06,28.680694120308196L162.18,23.658407845100324L162.54,2.3810130694282856L162.66,12.122876361718776L162.72,30.947767711797248L162.84,48.131523610195096L162.9,67.58269287318117L163.26,67.26246651466612L163.5,50.99808290093086L164.16,40.4431175857123L164.34,35.0638084581328L164.51999999999998,18.841328990554935L164.64,23.749395738989104L165.42000000000002,22.863688308566807L165.84,9.532977007967244L166.02,47.519129680708986L166.56,23.738102443975052L166.79999999999998,53.34911215596495L166.85999999999999,56.95692607430781L167.52,61.51316485619832L168,23.17035478060604L168.29999999999998,29.359741716278066L168.35999999999999,44.79340319509701L168.66,40.22482585025757L168.96,60.30257874473611L169.14000000000001,59.871884868090376L169.44,77.73379700514378L169.92,75.80183782152265L170.1,65.85843472005548L170.39999999999998,43.71600822677111L170.51999999999998,44.92269896952404L170.57999999999998,21.687437876071016L170.64000000000001,25.958514983473943L170.76000000000002,34.4845791080935L171.12,46.29050275202652L171.42,18.804478070694103L171.54,24.462670421611943L172.26,18.981219216867245L172.38000000000002,0.6310005692744161L172.68,41.77536795783659L173.04,31.652836374701L173.34,44.4176446859375L173.46,43.30527373935793L173.57999999999998,40.84497067296424L173.64,23.20881029666888L173.82,22.603026715204628L173.88,10.704162374584145L174.9,25.371739503091497L175.67999999999998,32.17144324561713L175.85999999999999,54.97617189900226L176.10000000000002,45.529296399359524L176.16000000000003,57.236596585038086L176.34,32.92863803319733L176.46,30.8792693448818L176.52,30.41879343723255L177.24,32.91256065577494L177.72,6.054867185231769L177.83999999999997,27.147588702440153L177.89999999999998,17.57316286936167L178.14000000000001,19.38114160871138L178.38,36.069534929662126L178.5,43.60784087075178L178.62,72.92906370319496L179.04,54.365982131429995L179.1,58.646811985579376L179.34,46.946278373410806L179.57999999999998,61.77526827409341L179.88000000000002,66.5538426843094L180,61.76956593022208L180.18,63.67747820676795L180.3,35.992293726663675L180.36,30.57524343758322L180.48,24.90594837554762L180.6,35.815148488993884L180.78,26.43391367894416L181.01999999999998,24.454000198990563L181.07999999999998,32.09863451141377L181.14,61.069587098285474L181.26,68.07857184902632L181.38,63.667314905774326L181.68,67.12092762566863L181.8,40.14342430458816L181.86,45.72231263469853L182.28,42.366557605984354L182.4,32.14916067595634L182.57999999999998,16.55017179919188L183.9,26.276287883404475L183.96,30.387142532077522L184.08,32.46698564882887L184.5,37.81361082230419L184.62,54.69855670170022L184.68,39.889648479896536L184.98,34.194786053199536L185.04,43.06595005974801L185.1,39.88813531353525L185.28,43.3400526575895L185.34,47.982837503343674L185.52,57.68219435616037L185.88,49.076247076460106L185.94,55.4903314197746L186.06,30.41341305650625L186.18,40.016035085185486L186.29999999999998,29.123583591371016L186.35999999999999,42.40557290192107L187.02,34.29692230865755L187.08,27.806626021490736L187.14000000000001,15.367417251840983L187.62,24.763067562079662L187.68,45.01604938429373L187.98,56.03791487720522L188.04,49.70116443019183L188.1,48.69194198826367L188.16,45.32109515452954L188.28,52.62693609439386L188.34,59.80508633455848L188.4,68.14525318329876L188.57999999999998,79.2219849817613L189.24,55.37464263395427L189.6,39.11142524876385L189.72,25.139069363876715L190.2,30.377286061427192L190.26,34.75096543028518L190.32,46.27230211043787L190.44,33.329858601679064L190.86,27.229737835098515L191.04000000000002,43.76486182032183L191.16,32.52521472602443L191.34,61.65746164623665L191.46,43.07016006797503L191.58,14.350940526434727L192.12,9.351597869937985L192.35999999999999,16.222865653913285L192.48000000000002,17.714833853219716L192.60000000000002,27.803115775423446L192.72,12.069282930313781L192.78,15.55440288396293L193.02,45.42893539985828L193.08,39.50641086677891L193.14000000000001,18.98050098361527L193.44,26.609145372484956L193.73999999999998,23.113948491989323L193.79999999999998,21.81202286211916L194.04,1.4043659239858433L194.34,22.67781531585202L194.4,48.66093931979782L194.46,47.24065921812286L194.52,41.33485526645063L194.64000000000001,67.97807004839203L194.70000000000002,45.626309224399385L195.18,27.95543296564642L195.24,22.60544185664894L195.3,43.22675907737769L195.6,47.661063530650466L195.66,62.77298357678777L195.89999999999998,27.71783956459542L196.07999999999998,24.704554517190235L196.26000000000002,34.698766639992236L196.38000000000002,37.26147920467028L196.5,31.792528664840333L196.62,35.887110548067525L196.68,33.13400555202731L196.74,37.07756265820993L197.04,39.73724073753229L197.1,31.38823965219861L197.82,46.46547084926032L197.94000000000003,42.57002925708663L198.36,35.53855630335995L198.72,28.9415482207038L198.78,48.26832641918233L199.44,45.13022594583221L199.5,52.47007164960568L200.04000000000002,45.3042989313011L200.16,54.883989945798014L200.28,45.34603655910196L200.46,20.785696867559583L200.64,39.22241779129804L200.82,27.973146693291252L201.06,16.089547236743577L201.12,10.855002553636247L201.42,20.141526605893464L201.54,37.62190348830222L201.66000000000003,59.87565712288862L201.72,44.39274464663448L201.96,60.30134520623119L202.08,43.29172979043511L202.26,44.96599960932624L202.74,49.073722285455624L202.85999999999999,25.543847991482163L202.92,33.65306710623431L203.04,43.80726948173936L203.33999999999997,31.172884864209816L203.46,55.426403747787084L203.58,60.34120945143104L203.70000000000002,71.61744282983642L204.18,51.97780840326167L204.66,53.45298392290089L204.72,47.94298394610548L204.84,56.30247777845801L204.89999999999998,46.57922833694976L205.07999999999998,40.37773537816522L205.2,47.19324083803479L205.26000000000002,51.26911799349188L205.44,60.74073828325431L205.8,32.99400142608005L206.04,31.52198760010321L206.1,34.008229140074306L206.94,29.565589864767784L207.12,26.909731796903046L207.3,41.87398651149613L207.48000000000002,50.941198480031844L207.72,46.326828697769706L207.9,32.06438297000461L207.96,44.480554287970115L208.02,31.2465653937331L208.38,34.25945822815037L208.67999999999998,31.11770785655387L208.73999999999998,21.743349496435865L208.79999999999998,30.71190163863864L209.04000000000002,18.89863932584391L209.16,20.44931273181194L209.22,42.912370363907826L209.58,35.38958410118534L209.76,49.687361394455195L209.88,64.65179710095539L209.94,19.591862334916446L210.06,8.346473421657219L210.12,4.3243205271342156L210.23999999999998,25.14099590772993L210.42,19.869061793882075L210.6,24.949708091203014L211.08,36.48648136353436L211.14000000000001,25.320483700792284L211.44,39.80305721817955L211.68,36.72974865984969L211.74,30.098014161025883L212.04,40.01824131862292L212.82000000000002,55.62381016581222L212.88,44.18130027138111L212.94,51.705881682486705L213,75.7610244318553L213.54,56.7875072219794L213.95999999999998,42.48557889995545L214.14,11.107122558350044L214.44000000000003,19.861526688884346L214.62,25.46670221422078L214.98000000000002,21.081832326715528L215.04,37.76838395249155L215.1,37.67580887549977L215.4,28.276969465549243L215.64,31.764726929855396L215.76,49.74061176450878L215.94,33.628870995472866L216.17999999999998,59.90308357070055L216.24,55.67466346404742L216.3,36.813149903262264L216.42000000000002,35.40240740329393L216.66,27.897216431065154L216.72,27.88173716677742L216.84,32.84142562901775L216.9,34.84781827331755L217.14,31.22195111578028L217.2,41.42163923577584L217.26,35.09510083636388L217.56,47.97792526727904L217.67999999999998,47.567521500769885L218.28,53.873472735807844L218.34,47.124264956980134L218.58,50.333609974343L218.70000000000002,35.0520335136679L219,62.07757117420326L219.12,17.136629392050136L219.29999999999998,28.46437268997392L219.42,34.141197120266284L220.02,10.649468261302532L220.20000000000002,31.710798798061955L220.38,32.98004891114728L220.68,33.81771495401165L220.85999999999999,0.9065701667945864L221.22,28.346516037712863L221.39999999999998,27.527833346288674L221.51999999999998,43.03058711973046L221.82000000000002,40.03049807719716L221.94,48.12550841874358L222.18,26.229404948484067L222.24,39.309664526825L222.72,33.51959567208395L222.96,47.703993115155036L223.01999999999998,46.241724881450274L223.2,51.56651744053728L223.32,50.41222588579362L223.44,57.11392449080329L223.74,46.56442171225733L223.98000000000002,41.068424993555006L224.22,37.278163652209265L224.46,45.24768229941407L224.57999999999998,48.45487572415905L224.94,47.6288107494368L225.11999999999998,66.43864751310578L225.66,51.884500487890925L225.78,46.469770246066126L225.9,44.13792054713355L226.08,41.83710520597039L226.26,38.258238098581316L226.44,61.421479160981704L226.5,59.19739288000716L226.79999999999998,32.15963329939196L227.28,48.743079643472306L227.64000000000001,51.27672211176228L227.82,44.572681668171036L227.88,60.85431709087781L228.35999999999999,61.1265514743143L228.83999999999997,55.84357465172542L229.38,44.471909203548456L229.62,23.10115007159574L230.04,25.751688149693827L230.4,31.006783543761046L230.51999999999998,20.517564969959704L230.7,47.5991748961182L230.82000000000002,48.62606252844895L231.18,48.86641955054945L231.3,46.72907624052255L231.36,31.21637191877077L231.72,5.699481085891502L231.84,10.027105831522864L231.9,21.60449575939773L231.96,36.19266457294822L232.2,46.63621826821118L232.26,48.48336497182854L232.32,45.18740504982731L232.44,55.37917898711544L232.61999999999998,49.11908687354084L232.74,40.22132088386663L233.04000000000002,49.87054859920992L233.1,60.57253909992279L233.28,43.77090783647953L233.58,34.69694005183043L233.64,43.01803348042028L233.76,47.19333225420209L233.82,43.12646450496833L234.12,40.99870241819094L234.23999999999998,33.435062996606405L234.42000000000002,29.147729654348115L234.48000000000002,35.15961971329136L234.54000000000002,33.64766227456433L234.72,58.31165091545886L234.9,70.5971002452968L235.08,80.23821521884743L235.32,80.9712479472734L235.56,71.97145314165036L235.68,69.97870752670445L235.98,63.28868654276545L236.04,48.237364159076485L236.16,34.708963204284736L236.34,23.10017044705535L236.64000000000001,16.082501759763403L236.76000000000002,4.558008439644768L237.24,4.639704074078338L237.3,30.521343322578595L237.54,16.5567629262019L237.66,21.425830040595645L237.95999999999998,9.19638028900815L238.07999999999998,14.96307795097868L238.20000000000002,26.896640595590018L238.32000000000002,23.95086978849694L238.5,34.876700508915455L238.8,27.05283690820293L238.86,49.37025004226066L238.92,50.07252066721147" style="fill: none;" fill="none"></path></g></g></g></g><g opacity="0.2"><g><g><g><path stroke="rgb(255, 112, 67)" stroke-width="2px" d="M31.62,-108.55248873050398L32.4,94.1710556470431L32.82,273.9359664916993L40.32,217.91262223170355L40.62,165.0240628535931L41.04,206.43711970402646L41.16,245.17426894261288L41.4,123.5535164979788L41.46,199.51568841934207L41.94,207.11180173433746L42.12,161.1822317196773L42.18000000000001,148.17272351338315L42.24,169.68006354111895L42.300000000000004,163.33144976542548L42.42,143.31464932515073L42.660000000000004,153.6892813902635L42.78,115.15352395864636L42.9,152.84521469703088L43.14,166.8990127856915L43.2,196.4720881902255L43.26,126.32379000003523L43.44,107.9093593817491L43.74,95.07270923027626L44.339999999999996,97.62123749806334L44.64,111.15840911865236L44.7,106.57719997259288L44.76,103.45832127791186L45.480000000000004,73.8064615543072L45.54,108.43695787283092L45.6,122.76869223668028L46.26,22.728123664855957L46.44,133.5487697674678L46.56,52.08094706902138L46.68,-7.29230513939491L46.92,16.484782879169163L47.1,49.89790402925933L47.28,23.095978590158314L47.4,25.044518984281112L47.7,18.668118073390083L47.82,38.4078911634592L47.88,76.44085077139049L48.36,82.10426495625423L48.48,53.611024893247176L48.72,18.83626919526321L48.96,70.715986765348L49.080000000000005,29.800761112800018L49.14,9.715206989875215L49.32,55.56420729710506L50.22,15.077604697300837L50.28,74.73940812624419L50.58,54.53212297879733L50.699999999999996,58.76521385633029L50.76,65.42234274057242L51.12,56.902534411503716L51.239999999999995,122.93450612288257L51.480000000000004,-18.46333402853745L51.72,89.69515195259682L51.78,56.43002326671894L51.84,40.01003375420204L51.9,34.73791177456196L51.96,92.76582516156712L52.02,103.4876665702233L52.68000000000001,76.27162841650157L53.160000000000004,11.494265336256756L53.4,124.60907055781439L53.519999999999996,67.76243503277118L53.64,57.34686888181247L53.82,82.83491079623884L54.120000000000005,85.57859824253963L54.24,48.30582453654364L54.540000000000006,112.77175096365123L54.839999999999996,59.49183445710403L54.9,69.72619992036087L55.26,95.99435916313759L55.32,79.29818630218507L55.56,27.742175872509304L55.8,109.38029215886046L56.1,61.752785352560196L56.16,101.44868814028227L56.22,90.53123309062079L56.34,32.83497993762676L56.58,52.62493867140551L56.64,20.300904420705944L56.76,83.19348170207098L57,94.28460634671727L57.12,74.08446275270903L57.36,73.09276067293608L57.66,66.24862047342154L57.9,33.43850612640381L57.96,25.668398600358234L58.08,77.86653206898616L58.2,18.262218145223766L58.44,65.31051250604483L58.5,59.45294545247005L58.8,50.14707932105433L58.86,83.27070786402777L59.22,36.289446720710174L59.339999999999996,54.35683030348559L59.64,31.71239266028771L59.879999999999995,32.06365970464854L60.54,75.46632088147678L60.6,22.283139962416424L60.66,44.33103066224319L60.72,-11.205470653680651L60.78,98.72730181767393L60.839999999999996,18.069006663102375L61.02,60.34021854400635L61.08,97.63013197825506L61.14,29.932198157677295L61.980000000000004,-17.691461948248058L62.04,81.69820272005522L62.16,53.46063027015101L62.22,55.181744648860054L62.28,73.009918653048L62.4,31.035665548764754L62.519999999999996,28.442340263953582L62.64,23.645456204047576L62.760000000000005,69.66484748400175L63,53.70974063873291L63.12,78.72351848162138L63.36,29.253133810483504L63.72,25.575266251197235L63.84,55.02050784917979L64.08,109.18302297592165L64.25999999999999,48.86215154941265L64.38,90.58158104236311L65.04,25.304731222299427L65.1,38.48057270050049L65.28,48.189936601198646L65.4,43.828882070688095L65.46,60.04374669148372L65.64,54.90140621478741L65.76,89.26737290162308L66.11999999999999,35.62284763042744L66.18,33.44558275662936L66.48,77.77911296257606L66.78,56.07012143501869L66.84,69.82481828102699L66.96,58.77686757307787L67.32,62.67949929604164L67.38,40.84621227704562L67.56,57.71115303039551L67.67999999999999,7.116006154280438L67.74,73.6791146718539L67.98,2.668116826277508L68.22,-33.39864327357367L68.52,10.987539658179658L68.58,50.26355156531702L68.64,28.604680758256183L68.94000000000001,30.2839521261362L69.06,17.36202533428486L69.3,-21.616849257395838L69.48,-3.575856960736779L69.6,70.12528291115395L70.02000000000001,18.156555615938636L70.2,35.387208828559295L70.5,20.90589138177726L70.55999999999999,21.17382948215191L70.80000000000001,-17.61657302196211L71.04,27.812228019420925L71.52,39.848147722390976L71.64,12.996978026170002L71.76,13.714866454784692L71.82000000000001,38.12979258023776L71.94,69.64089081837581L72.12,-2.27771731523368L72.60000000000001,68.35907936096191L72.9,-10.036982664695142L73.02,50.29948656375591L73.2,53.14974546432495L73.25999999999999,33.88524275559646L73.38,57.88550431911762L73.5,-17.010238904219424L73.56,2.743914677546576L73.68,51.92776074776283L73.74000000000001,106.60488972297084L73.86,74.61290524556087L73.92,33.678981707646294L73.98,88.71263650747447L74.27999999999999,58.57024944745578L74.52000000000001,85.09956231484047L74.64,16.771970712221595L75.36,92.4893171970661L75.84,29.966088074904217L75.89999999999999,78.31911178735587L76.13999999999999,49.52105723894561L76.32000000000001,36.555307278266326L76.5,25.671839530651393L76.56,101.15331998238197L76.67999999999999,27.271547500903782L76.74,12.817238110762371L76.8,55.105589719919074L76.92,61.662866702446586L77.28,31.342070652888374L78.24000000000001,9.207345155569227L78.3,46.572407208956214L78.36,6.32027479318473L78.42,22.22285875907311L78.6,63.392161406003524L79.08,48.84715428719154L79.14,69.56817681972797L79.67999999999999,10.536161019251898L79.92,22.844433601085964L79.98,92.65827985910269L80.10000000000001,6.31936586820163L80.16,75.19903201323291L80.34,46.5822430757376L80.39999999999999,19.094858352954564L80.58,62.6987490287194L80.69999999999999,63.95537027945887L81.06,34.569273728590744L81.42,23.87103190788856L81.6,50.05397943349986L81.72,54.495019362523L81.96000000000001,-0.7920631995567999L82.2,14.341700077056885L82.25999999999999,-0.2753718082721568L83.04,89.04319304686328L83.16,85.3817185988793L83.39999999999999,-19.868418436783994L83.52000000000001,29.4730936563932L83.7,44.55985252673809L83.82000000000001,39.73563579412608L83.88,0.4448213944068231L84.06,49.971656799316406L84.11999999999999,29.67448546336247L84.42,8.291018926180335L84.48,57.13648520983184L84.60000000000001,24.68500669185932L84.66,21.21278340999897L85.08,93.50452147997343L85.14,21.22833251953125L85.25999999999999,36.68002477058998L85.68,8.879547852736248L85.8,74.25719096110419L85.86,30.95636184398945L85.92,79.06845551270706L86.34,-26.498458110369178L86.52,21.287867105924178L86.7,77.1863315655635L86.94,52.43779750970695L87.12,80.47946416414702L87.3,31.04202802364643L87.6,13.422095225407526L87.78,31.683144752795894L87.89999999999999,19.73149538040161L88.02000000000001,-13.260631194481494L88.08000000000001,22.790774565476642L88.67999999999999,-12.317410524074853L88.74,48.807453742394095L88.91999999999999,42.35171666512123L89.16,15.309055951925428L89.4,38.989505767822266L89.52,-0.20398873549240681L89.64,28.815453969515296L89.75999999999999,-6.761460487659155L89.94000000000001,37.498187101804305L90.12,-5.56346489832953L90.18,66.84873819351196L90.24,54.67988821176383L90.36,14.057141634134142L90.66,52.8274990962102L90.78,79.63724778248714L90.9,47.431114086738006L91.32,-36.320122938889746L91.55999999999999,71.1857062119704L91.68,39.19463065954356L92.1,27.26102994038509L92.16,-4.733908543219921L92.22,58.335000184866104L92.58000000000001,80.04470586776735L92.76,6.040618052849395L93.36,24.727434011606068L93.47999999999999,57.52638156597431L93.60000000000001,7.913295672490045L93.72,58.89223612271823L94.02,28.21903687257034L94.14,39.654027315286484L94.2,42.01895273648776L94.25999999999999,47.94663686018725L94.32,60.47779083251953L94.38,45.65231543320876L94.62,27.885786019838783L94.8,-16.688852768677915L95.1,32.70656182215764L95.16,15.180313220390898L95.22,36.57111608065093L95.46000000000001,38.29508708073543L95.88,54.276942289792586L96.11999999999999,2.7449859105623657L96.17999999999999,40.51585050729606L96.24000000000001,32.35493770012489L96.42,-34.58988684874314L96.54,50.600373194767876L96.66,44.799484106210556L96.72,51.15744682458732L96.84,66.11984528028049L97.26,21.682827472686768L97.32000000000001,40.913667495434105L97.5,52.01521231577948L97.56,32.026166549095755L97.67999999999999,81.41396889319789L97.74,-34.32652583489052L97.92,1.478074330549969L98.03999999999999,38.365009381220894L98.34,-11.68462019700271L98.75999999999999,-11.901187805029066L99,4.109477079831628L99.06,11.913506984710693L99.12,106.85912902538595L99.72,69.16837967359103L99.83999999999999,13.778978127699627L100.02000000000001,57.80048737159144L100.44,24.583694017850448L100.56,66.05099421281082L100.61999999999999,78.27834000954262L100.67999999999999,-28.672493054316615L100.92,7.0882190190828736L101.04,66.56826991301318L101.34,25.101554026970508L101.58,37.62280720930834L101.64,36.453669988192054L101.82000000000001,88.93843944256125L102.3,63.06566256743212L102.36,31.435105617229762L102.42,71.68925065260669L102.84,34.76031028307403L103.08,-16.458797363134533L103.38,66.17253046769363L103.5,-1.0437055734487801L103.74000000000001,46.472198229569656L104.64,60.658082595238334L104.76,0.32782976443950795L104.94,28.457662142240096L105,-15.530606416555555L105.06,41.58036397053645L105.11999999999999,54.100643304678115L105.24,-22.80257435945365L105.36000000000001,27.18649809177105L105.42,-2.2253567438859387L105.60000000000001,9.158100898449243L105.66,16.191329956054688L106.02,44.07808982408965L106.25999999999999,26.152238845825195L106.56,-27.57537190730757L106.62,21.154125286982612L106.68,2.696715501638562L106.92,61.96768118784979L107.1,62.77977319864127L107.4,74.9395014689519L107.58,34.541941055884735L107.88,9.303691203777612L107.94,-6.50037178626427L108.12,62.57734262026275L108.36,66.54762433125423L108.6,33.217897048363334L108.89999999999999,50.25180046374981L109.2,14.27739363450271L109.32000000000001,7.874471591069146L109.5,-5.014214515686035L109.56,51.540948244241584L110.10000000000001,22.231233853560223L110.69999999999999,59.746268529158385L110.88000000000001,-12.314164363420936L111.24,91.66157869192271L111.6,48.5793135716365L111.84,61.55765863565299L111.9,48.97959764187153L111.96000000000001,49.50696890170757L112.08,52.64487009782058L112.5,67.1373543372521L112.55999999999999,2.258646121391876L112.80000000000001,63.048555300785964L113.16,35.441289865053626L113.39999999999999,-12.663516172995923L113.58000000000001,16.288584929246174L113.82000000000001,17.815871055309596L115.02,63.93917193779579L115.25999999999999,28.98681879043579L115.86,17.795582551222576L116.16,28.698007877056423L116.27999999999999,37.60501824892486L116.34,53.70821494322558L116.4,27.412138718825116L116.46000000000001,47.98789556209858L116.94,36.55946236390334L117.30000000000001,25.17381356312679L117.42,15.444388389587402L117.48,83.32576274871828L117.6,30.46716543344352L117.66,-51.10740725810713L118.38000000000001,39.05131266667293L118.44,-6.802946420816272L118.56,42.0809868665842L118.97999999999999,45.358115893143875L119.22,38.876993839557365L119.4,38.826029117290794L119.64,4.10574399507962L119.88,-7.927935857039246L119.94000000000001,66.11286603487456L120.12,8.044959948613092L120.53999999999999,53.498642811408416L120.6,13.618455483363226L120.66,1.708811429830701L120.78,32.43041093532856L120.96000000000001,-17.812835895098182L121.67999999999999,29.248069799863387L122.04,27.845631012549774L122.22,52.60510462981005L122.28,6.695628349597632L122.46,-12.604549664717469L122.88000000000001,47.759495698488685L123.06,42.70853464420025L123.12,91.71854881139903L123.72,16.11523995032677L123.9,35.835308845226585L123.96000000000001,21.24586178706242L124.08,-12.042541870704053L124.25999999999999,83.1435882128202L124.32,25.592925365154567L124.38,-27.760386833777783L124.56,46.586625392620384L124.8,53.3795087154095L125.1,46.23931866425735L125.7,16.646831219012913L125.76,47.65298916743353L125.82000000000001,55.389888469989494L126.06,65.5713415145874L126.17999999999999,40.01370191574097L126.66,53.76378921362071L127.62,-4.3460572682894165L127.86,38.377150022066566L128.1,53.88678624079779L128.22,29.54915120051457L128.4,55.511002723987296L128.46,38.644601198343125L128.76,-19.938567968515247L128.82,26.517237149752113L129.06,7.248384585747345L129.24,2.7216460154606685L129.35999999999999,-7.5649664035210336L129.72,81.56848614032454L129.96,13.153670200934785L130.2,7.20277602855976L130.44,-7.912045900638281L130.62,41.10512605080238L130.74,36.200534380399276L131.1,30.37779863064106L131.16,95.42439827552211L131.22,18.825751634744496L131.28,79.2322243176974L131.58,50.25046953788172L131.64000000000001,50.96079441217277L131.7,13.440825572380644L132.12,-6.7716858937190185L132.23999999999998,62.20546245574951L132.42000000000002,41.35472334348239L132.54,-45.76335035837615L132.6,49.229130011338455L132.66,20.049164661994354L132.72,-24.862815141677856L133.07999999999998,76.40153976587149L133.32,24.082324504852295L133.38,73.13106536865236L133.5,72.74207793749297L133.8,-5.885256803952721L134.28,49.88069937779353L134.34,40.739186360285835L134.58,25.810969976278454L134.7,16.95830033375667L135,51.222597268911514L135.18,43.98635332400982L135.24,27.961389101468612L135.89999999999998,57.63321271309486L136.5,4.06802360828106L136.62,39.954946407905L136.8,-3.4301205781790047L137.04,26.545121669769287L137.1,16.469850540161133L137.16,14.679787709162786L137.34,21.788847079643848L137.51999999999998,19.920941316164466L137.76000000000002,53.07180514702431L138,-46.87746515640846L138.12,-2.194712987312916L139.14,68.48126484797552L139.38,47.135486235985404L139.55999999999997,77.78531312942506L139.62,75.44544806847206L139.8,35.749707588782684L139.92000000000002,-14.761039110330431L140.16,61.971803811880264L140.28,33.93114346724291L140.82,48.92817845711342L141.06,39.51174809382513L141.60000000000002,60.887066767765944L141.9,18.478055367102996L141.96,33.204457943256095L142.02,19.977781589214626L142.44,44.8580448444073L142.79999999999998,27.429570601536675L142.98,12.864404825063856L143.16,53.36366745141837L143.28,45.29614668626052L143.70000000000002,45.25995199496929L143.94,34.6798379604633L144.12,24.097062074221107L144.48,25.907316024486843L144.54,-3.5318227914663582L144.6,55.954038730034476L144.78,63.47529558035045L145.08,15.62656292548546L145.44,77.96216396185069L145.5,8.937297050769507L146.1,24.84588641386765L146.16,34.01492687372062L146.4,69.55016062809871L146.45999999999998,45.24404580776508L146.51999999999998,40.43505356861995L146.7,-22.828819568340602L146.82,-0.7895311942467413L147,45.69146413069506L147.18,25.56562515405509L147.36,-25.16535731462333L147.6,15.278055117680475L147.66,55.55703328205989L147.78,-7.024545577856213L147.84,21.064011867229762L147.96,37.5445422759423L148.02,47.5481706399184L148.61999999999998,56.89221162062426L148.74,10.87421618975125L148.86,80.31215704404391L149.22,4.634770796849176L149.28,70.90358238953812L149.46,-17.018906153165368L151.02,3.9509021318875854L151.26,45.963524855100204L151.56,87.52074370017421L151.68,22.982525275303765L151.85999999999999,5.339090273930474L152.1,63.10727834701538L152.16,6.610189401186439L152.4,43.06713801163894L152.58,8.71438319866474L152.82,32.71354106756358L153.24,40.66413512596718L153.3,43.86257721827582L153.35999999999999,84.7161258183993L154.01999999999998,42.792285589071426L154.07999999999998,46.85488810906044L154.20000000000002,-4.170472438518823L154.44,11.350038418403047L154.74,49.26694778295665L155.22,56.0687255859375L155.34,50.10049691567055L155.46,35.429571225092964L155.7,29.379474383134113L155.82,54.95808417980488L155.88,46.0139377300556L155.99999999999997,111.79637707196751L156.18,-13.029455863512489L156.3,45.238949335538436L156.54,48.0121768437899L156.6,-7.2971419187692375L156.84,20.72770962348351L156.9,-4.788395349795996L157.14,76.95861339569093L157.2,13.832637163308947L157.38,39.15963704769428L157.44,58.95608810278087L157.61999999999998,19.75022572737473L158.16,43.939478764167205L158.34,18.440756981189427L158.94,44.169728939349845L159.54,23.64308650677021L159.72,41.93169593811035L160.14000000000001,39.009826733515816L160.56,6.095965091998755L161.22,70.35741585951587L161.33999999999997,62.88985050641574L161.64000000000001,24.32624101638794L161.94,15.43195559428288L162.06,26.217811291034398L162.18,16.124978432288543L162.54,-29.535079094079823L162.66,26.73567130015446L162.72,59.18510473691501L162.84,73.90715745779185L162.9,96.7594467676603L163.26,66.7821269768935L163.5,26.601507480327907L164.16,24.61066961288452L164.34,26.99484476676354L164.51999999999998,-5.492390210811914L164.64,31.11149586164035L165.42000000000002,21.53512716293335L165.84,-10.463089942932129L166.02,104.49835868982169L166.56,-11.933438411125781L166.79999999999998,97.76562672394974L166.85999999999999,62.36864695182215L167.52,68.34752302903397L168,-34.34386033278245L168.29999999999998,38.643822119786186L168.35999999999999,67.94389541332538L168.66,33.37195983299843L168.96,90.41920808645396L169.14000000000001,59.22584405312172L169.44,104.52666521072388L169.92,72.90389904609096L170.1,50.943330067854674L170.39999999999998,10.502368486844587L170.51999999999998,46.732735083653374L170.57999999999998,-13.165453764108507L170.64000000000001,32.3651306445782L170.76000000000002,47.27367529502281L171.12,63.999388217926025L171.42,-22.42455895130453L171.54,32.94995894798866L172.26,10.759042409750135L172.38000000000002,-26.894327402114868L172.68,103.49191904067993L173.04,16.469038999997665L173.34,63.56485715279213L173.46,41.636717319488525L173.57999999999998,37.15451607337364L173.64,-3.2454302677741325L173.82,21.69435134300819L173.88,-7.1441341363466675L174.9,47.37310519585243L175.67999999999998,42.37099885940552L175.85999999999999,89.18326487907997L176.10000000000002,31.358983149895312L176.16000000000003,74.79754686355592L176.34,-3.5332997945638924L176.46,27.805216312408447L176.52,29.72807957575871L177.24,36.65321148358859L177.72,-34.231673020582946L177.83999999999997,58.78667097825271L177.89999999999998,3.2115241197439266L178.14000000000001,22.09310971773589L178.38,61.10212491108821L178.5,54.9152997823862L178.62,116.91089795185972L179.04,26.52135977378258L179.1,65.06805676680347L179.34,29.395477955157954L179.57999999999998,84.0187531251174L179.88000000000002,73.72170429963333L180,54.593150799091056L180.18,66.53934662158674L180.3,-5.535482993492725L180.36,22.449668003962593L180.48,16.40200578249417L180.6,52.17894865916327L180.78,12.362061463869544L181.01999999999998,21.48412997906025L181.07999999999998,43.56558598004855L181.14,104.52601597859312L181.26,78.59204897513759L181.38,57.05042949089638L181.68,72.30134670551008L181.8,-0.3228306770324707L181.86,54.090645129864036L182.28,37.33292506291316L182.4,16.823065280914307L182.57999999999998,-6.848311515954822L183.9,40.86546200972338L183.96,36.55342450508705L184.08,35.58675032395583L184.5,45.833548582517196L184.62,80.02597552079422L184.68,17.67628614719097L184.98,25.65249241315402L185.04,56.372696069570694L185.1,35.121413194216224L185.28,48.517928673670845L185.34,54.94701477197501L185.52,72.23122963538539L185.88,36.16732615690966L185.94,65.11145793474638L186.06,-7.20196448839629L186.18,54.419968128204346L186.29999999999998,12.78490635064933L186.35999999999999,62.32855686774622L187.02,22.133946418762207L187.08,18.071181590740505L187.14000000000001,-3.291395902633667L187.62,38.85654302743766L187.68,75.39552211761476L187.98,72.57071311657245L188.04,40.19603875967174L188.1,47.17810832537139L188.16,40.26482490392833L188.28,63.585697504190314L188.34,70.57231169480545L188.4,80.65550345640918L188.57999999999998,95.83708267945511L189.24,19.603629112243652L189.6,14.716599170978247L189.72,4.180535536545978L190.2,38.234611107752876L190.26,41.31148448357216L190.32,63.554307130666885L190.44,13.91619333854088L190.86,18.07955668522762L191.04000000000002,68.56754779815674L191.16,15.66574408457829L191.34,105.355832026555L191.46,15.189207700582655L191.58,-28.72788878587577L192.12,1.852583885192871L192.35999999999999,26.529767329876247L192.48000000000002,19.952786152179417L192.60000000000002,42.93553865872897L192.72,-11.531466337350695L192.78,20.782082814436688L193.02,90.24073417370138L193.08,30.6226240671598L193.14000000000001,-11.808363841130202L193.44,38.052111955789414L193.73999999999998,17.871153171245876L193.79999999999998,19.8591344173138L194.04,-29.207119483214175L194.34,54.587989403651314L194.4,87.63562532571646L194.46,45.11023906561046L194.52,32.47614933894231L194.64000000000001,107.94289222130409L194.70000000000002,12.098667988410371L195.18,1.449118577517005L195.24,14.580455193152803L195.3,74.15873490847075L195.6,54.31252021055956L195.66,85.44086364599376L195.89999999999998,-24.86487645369309L196.07999999999998,20.18462694608249L196.26000000000002,49.69008482419528L196.38000000000002,41.10554805168739L196.5,23.589102855095508L196.62,42.028983372908385L196.68,29.00434805796696L196.74,42.99289831748375L197.04,43.72675785651573L197.1,18.864738024198104L197.82,69.08131764485286L197.94000000000003,36.726866868826065L198.36,24.99134687276988L198.72,19.046036096719593L198.78,77.25849371690018L199.44,40.42307523580699L199.5,63.479840205265944L200.04000000000002,34.55563985384429L200.16,69.2535264675434L200.28,31.03910647905791L200.46,-16.05481266975403L200.64,66.8774991769057L200.82,11.099240046281086L201.06,-1.735851948077856L201.12,3.003185528975262L201.42,34.07131268427922L201.54,63.842468811915474L201.66000000000003,93.25628757476807L201.72,21.168375932253333L201.96,84.16424604562613L202.08,17.777306666741016L202.26,47.47740433766292L202.74,55.235306299649764L202.85999999999999,-9.75096344947815L202.92,45.81689577836257L203.04,59.03857304499701L203.33999999999997,12.221307937915503L203.46,91.80668207315298L203.58,67.71341800689697L203.70000000000002,88.53179289744452L204.18,22.518356763399574L204.66,55.665747202359725L204.72,39.67798398091243L204.84,68.84171852698695L204.89999999999998,31.99435417468731L205.07999999999998,31.07549593998836L205.2,57.41649902783908L205.26000000000002,57.38293372667754L205.44,74.94816871789786L205.8,-8.626103859681335L206.04,29.313966861137988L206.1,37.737591450031L206.94,22.901630951808052L207.12,22.925944695105926L207.3,64.32036858338577L207.48000000000002,64.54201643283552L207.72,39.40527402437652L207.9,10.670714378356934L207.96,63.1048112649184L208.02,11.39558205237755L208.38,38.77879747977623L208.67999999999998,26.405082299159126L208.73999999999998,7.681811956258923L208.79999999999998,44.16472985194281L209.04000000000002,1.1787458566518856L209.16,22.77532284076397L209.22,76.60695681205165L209.58,24.105404707101673L209.76,71.13402733436L209.88,87.09845066070558L209.94,-47.998039814142075L210.12,-1.7089088146503306L210.23999999999998,56.36600897862361L210.42,11.961160623110267L210.6,32.570677537184494L211.08,53.791641272031356L211.14000000000001,8.57148720667912L211.44,61.52691749426036L211.68,32.11978582235484L211.74,20.15041241279015L212.04,54.8985820550185L212.82000000000002,79.03216343659622L212.88,27.017535429734455L212.94,62.99275379914504L213,111.84373855590822L213.54,28.327231407165527L213.95999999999998,21.032686416919407L214.14,-35.96056195405814L214.44000000000003,32.993132884685814L214.62,33.87446550222545L214.98000000000002,14.504527495457575L215.04,62.79821139115554L215.1,37.53694626001212L215.4,14.178710350623506L215.64,36.99636312631461L215.76,76.7044390164889L215.94,9.461259841918945L216.17999999999998,99.31440243354213L216.24,49.332033304067764L216.3,8.520879562084497L216.42000000000002,33.286293653341446L216.66,16.639429972721977L216.72,27.858518270345836L216.84,40.28095832237831L216.9,37.85740723976723L217.14,25.78315037947434L217.2,56.72117141576915L217.26,25.60529323724601L217.56,67.30216191365169L217.67999999999998,46.951915851006156L218.28,63.33239958836482L218.34,37.00045328873855L218.58,55.147627500387344L218.70000000000002,12.129668822655303L219,102.61587766500621L219.12,-50.27478328117958L219.29999999999998,45.45598763685961L219.42,42.656433765704826L220.02,-24.58812502714303L220.20000000000002,63.302794603201065L220.38,34.88392408077534L220.68,35.07421401830821L220.85999999999999,-48.46014701403106L221.22,69.5064348440904L221.39999999999998,26.299809309152455L221.51999999999998,66.28471777989314L221.82000000000002,35.53036451339722L221.94,60.26802393106315L222.18,-6.614750256905201L222.24,58.93005389433642L222.72,24.834492389972386L222.96,68.98058927976169L223.01999999999998,44.048322530893174L223.2,59.55370627916778L223.32,48.680788553678084L223.44,67.16647239831778L223.74,30.740167544438286L223.98000000000002,32.82442991550152L224.22,31.592771640190723L224.46,57.20196027022143L224.57999999999998,53.265665861276496L224.94,46.389713287353516L225.11999999999998,94.65340265860927L225.66,30.05327995006855L225.78,38.34767488332896L225.9,40.640145998734695L226.08,38.38588219422561L226.26,32.889937437497665L226.44,96.16634075458235L226.5,55.8612634585454L226.79999999999998,-8.397006071530846L227.28,73.61824915959285L227.64000000000001,55.07718581419726L227.82,34.51662100278415L227.88,85.27677022493803L228.35999999999999,61.534903049468994L228.83999999999997,47.91910941784199L229.38,27.414411031282874L229.62,-8.954988626333387L230.04,29.72749526684101L230.4,38.88942663486187L230.51999999999998,4.783737109257623L230.7,88.22158978535579L230.82000000000002,50.166393976945145L231.18,49.22695508370033L231.3,43.52306127548218L231.36,7.947315436143146L231.72,-32.575855163427505L231.84,16.518542949969945L231.9,38.97058065120991L231.96,58.074917793273926L232.2,62.3015488111056L232.26,51.254085027254554L232.32,40.243465166825516L232.44,70.66683989304764L232.61999999999998,39.72894870317901L232.74,26.874671899355384L233.04000000000002,64.34439017222479L233.1,76.62552485099208L233.28,18.568460941314697L233.58,21.0859883748568L233.64,55.499673623305114L233.76,53.45628041487475L233.82,37.0261628811176L234.12,37.8070592880249L234.23999999999998,22.08960386422965L234.42000000000002,22.716729640960693L234.48000000000002,44.17745480170616L234.54000000000002,31.379726116473872L234.72,95.30763387680054L234.9,89.02527424005362L235.08,94.69988767917341L235.32,82.07079703991229L235.56,58.47176093321581L235.68,66.98958910428561L235.98,53.253655066856986L236.04,25.66038058354305L236.16,14.416361772097083L236.34,5.686981311211212L236.64000000000001,5.555998728825494L236.76000000000002,-12.728731540533216L237.24,4.762247525728675L237.3,69.34380219532893L237.54,-4.390107668363122L237.66,28.729430712186385L237.95999999999998,-9.147794338373034L238.07999999999998,23.613124443934517L238.20000000000002,44.79698456250705L238.32000000000002,19.53221357785739L238.5,51.26544658954327L238.8,15.317041507134062L238.86,82.84636974334718L238.92,51.12592660463775" style="fill: none;" fill="none"></path></g></g></g></g></g></g><g transform="translate(60, 177)" clip-path="url(#clip_1)"><clipPath id="clip_1"><rect width="270" height="23"></rect></clipPath><g><g><line x1="0" y1="0" x2="0" y2="5" style="visibility: inherit;" fill="rgb(0, 0, 0)" stroke="rgb(204, 204, 204)" stroke-width="1px"></line><line x1="30" y1="0" x2="30" y2="5" style="visibility: inherit;" fill="rgb(0, 0, 0)" stroke="rgb(204, 204, 204)" stroke-width="1px"></line><line x1="60" y1="0" x2="60" y2="5" style="visibility: inherit;" fill="rgb(0, 0, 0)" stroke="rgb(204, 204, 204)" stroke-width="1px"></line><line x1="90" y1="0" x2="90" y2="5" style="visibility: inherit;" fill="rgb(0, 0, 0)" stroke="rgb(204, 204, 204)" stroke-width="1px"></line><line x1="120" y1="0" x2="120" y2="5" style="visibility: inherit;" fill="rgb(0, 0, 0)" stroke="rgb(204, 204, 204)" stroke-width="1px"></line><line x1="150" y1="0" x2="150" y2="5" style="visibility: inherit;" fill="rgb(0, 0, 0)" stroke="rgb(204, 204, 204)" stroke-width="1px"></line><line x1="180" y1="0" x2="180" y2="5" style="visibility: inherit;" fill="rgb(0, 0, 0)" stroke="rgb(204, 204, 204)" stroke-width="1px"></line><line x1="210" y1="0" x2="210" y2="5" style="visibility: inherit;" fill="rgb(0, 0, 0)" stroke="rgb(204, 204, 204)" stroke-width="1px"></line><line x1="240" y1="0" x2="240" y2="5" style="visibility: inherit;" fill="rgb(0, 0, 0)" stroke="rgb(204, 204, 204)" stroke-width="1px"></line><line x1="270" y1="0" x2="270" y2="5" style="visibility: inherit;" fill="rgb(0, 0, 0)" stroke="rgb(204, 204, 204)" stroke-width="1px"></line></g><g transform="translate(0, 8)"><text x="0" y="0" dx="0em" dy="0.95em" style="text-anchor: middle; visibility: hidden; font-family: Roboto, sans-serif; font-size: 12px; font-weight: 200;" fill="rgb(33, 33, 33)" stroke="none" stroke-width="1px">-500</text><text x="30" y="0" dx="0em" dy="0.95em" style="text-anchor: middle; visibility: inherit; font-family: Roboto, sans-serif; font-size: 12px; font-weight: 200;" fill="rgb(33, 33, 33)" stroke="none" stroke-width="1px">0</text><text x="60" y="0" dx="0em" dy="0.95em" style="text-anchor: middle; visibility: inherit; font-family: Roboto, sans-serif; font-size: 12px; font-weight: 200;" fill="rgb(33, 33, 33)" stroke="none" stroke-width="1px">500</text><text x="90" y="0" dx="0em" dy="0.95em" style="text-anchor: middle; visibility: inherit; font-family: Roboto, sans-serif; font-size: 12px; font-weight: 200;" fill="rgb(33, 33, 33)" stroke="none" stroke-width="1px">1k</text><text x="120" y="0" dx="0em" dy="0.95em" style="text-anchor: middle; visibility: inherit; font-family: Roboto, sans-serif; font-size: 12px; font-weight: 200;" fill="rgb(33, 33, 33)" stroke="none" stroke-width="1px">1.5k</text><text x="150" y="0" dx="0em" dy="0.95em" style="text-anchor: middle; visibility: inherit; font-family: Roboto, sans-serif; font-size: 12px; font-weight: 200;" fill="rgb(33, 33, 33)" stroke="none" stroke-width="1px">2k</text><text x="180" y="0" dx="0em" dy="0.95em" style="text-anchor: middle; visibility: inherit; font-family: Roboto, sans-serif; font-size: 12px; font-weight: 200;" fill="rgb(33, 33, 33)" stroke="none" stroke-width="1px">2.5k</text><text x="210" y="0" dx="0em" dy="0.95em" style="text-anchor: middle; visibility: inherit; font-family: Roboto, sans-serif; font-size: 12px; font-weight: 200;" fill="rgb(33, 33, 33)" stroke="none" stroke-width="1px">3k</text><text x="240" y="0" dx="0em" dy="0.95em" style="text-anchor: middle; visibility: inherit; font-family: Roboto, sans-serif; font-size: 12px; font-weight: 200;" fill="rgb(33, 33, 33)" stroke="none" stroke-width="1px">3.5k</text><text x="270" y="0" dx="0em" dy="0.95em" style="text-anchor: middle; visibility: hidden; font-family: Roboto, sans-serif; font-size: 12px; font-weight: 200;" fill="rgb(33, 33, 33)" stroke="none" stroke-width="1px">4k</text></g><line x1="0" y1="0" x2="270" y2="0" fill="rgb(0, 0, 0)" stroke="rgb(204, 204, 204)" stroke-width="1px"></line></g></g></g></g></svg>